<?xml version="1.0" encoding="utf-8"?>
<svg xmlns="http://www.w3.org/2000/svg" xmlns:xlink="http://www.w3.org/1999/xlink">
<symbol viewBox="0 0 822.59995 309.89998" id="logo">
    <path d="M794.7 30.1v-20h8.9c1.8 0 3.2.2 4 .6 1 .4 1.6 1 2.2 2 .6 1 .8 2 .8 3 0 1.4-.4 2.6-1.4 3.6-1 1-2.4 1.6-4.2 1.8.8.4 1.2.6 1.6 1 .8.8 1.6 1.6 2.2 2.6l3.6 5.3H809l-2.6-4.2c-.8-1.2-1.4-2.2-2-2.8l-1.4-1.4-1.2-.6h-4.4v8.9h-2.8v.2zm2.5-11.1h5.7c1.2 0 2.2-.2 2.8-.4.6-.2 1.2-.6 1.6-1.2.4-.6.6-1.2.6-1.8 0-1-.4-1.8-1-2.4-.6-.6-1.8-1-3.2-1h-6.3v6.7h-.2z"/>
    <path d="M802 41c-11.3 0-20.6-9.3-20.6-20.6S790.5 0 802 0c11.3 0 20.6 9.3 20.6 20.6S813.3 41 802 41zm0-38.5c-9.9 0-18 8.1-18 18s8.1 18 18 18 18-8.1 18-18c0-9.8-8.1-18-18-18z"/>
    <g>
        <path d="M0 22.2h242.3v242.3H0z"/>
        <path fill="#fff" d="M23.5 45.7h195.4v195.4H23.5z"/>
        <path d="M100.4 121.8h186.4v186.4H100.4z"/>
        <path fill="#f05a22" d="M122.6 144h141.7v141.7H122.6z"/>
        <g>
            <path d="M495.5 252.4c-1.8 4.6-4.6 8.5-7.9 12.3-3.6 3.6-7.7 6.7-12.3 9.3-4.6 2.6-9.7 4.6-14.9 6.1-5.3 1.6-10.7 2.2-16.2 2.2-7.7 0-15.3-1.6-22.2-4.6-6.9-3-13.3-7.1-18.8-12.5-5.5-5.3-10.1-11.7-13.5-19-3.2-6.7-5.2-14.3-6.1-22.6h153.9l.4-1.6c.2-1.4.4-3 .6-5.3.2-2.2.2-4.6.2-7.3 0-12.5-2.2-24.8-6.7-36.5-4.6-11.7-10.9-22.2-19.2-30.9-8.3-8.9-18.4-16-30.1-21.4-11.7-5.3-25-7.9-39.2-7.9-14.2 0-27.5 2.6-39.2 7.9-11.9 5.2-22.2 12.3-30.7 21.4-8.5 8.9-15.3 19.4-20 31.3-4.8 11.9-7.1 24.6-7.1 37.8 0 13.3 2.4 26 7.1 38 4.8 11.9 11.3 22.6 19.8 31.5 8.5 8.9 18.8 16 30.5 21.4 11.9 5.2 25.2 7.9 39.2 7.9 9.3 0 18.6-1.2 27.3-3.6 8.7-2.4 16.6-5.7 23.8-10.1 7.1-4.2 13.5-9.3 19-15.1 5.5-5.7 9.9-12.3 13.1-19.4l1-2.2-31.1-8.5-.7 1.4zm-51.9-112c7.9 0 15.7 1.4 22.8 4.4 7.1 2.8 13.5 6.9 18.8 11.9 5.3 5 9.9 11.3 13.5 18.4 3.2 6.5 5.3 13.9 6.1 21.6H382.9c.8-7.7 2.8-14.9 5.9-21.4 3.4-7.1 7.7-13.3 13.1-18.4 5.4-5.1 11.7-9.1 18.8-12.1 7-3 14.7-4.4 22.9-4.4zM712.6 82.2L530.8 307.9h228.4v-33.7H601.3L783 48.5H556.9v33.7z"/>
        </g>
    </g>
</symbol>
<symbol viewBox="0 0 446 191.5" id="logo-white">
    <path fill="#fff" d="M66 63.4h81.7V23.2H25.4v122.3H66z"/>
    <path fill="#fff" d="M76 73.4v94.1h94.1V73.4H76zm82.8 82.8H87.3V84.7h71.5v71.5z"/>
    <g>
        <path fill="#fff" d="M275.5 139.4c-.9 2.3-2.3 4.3-4 6.2-1.8 1.8-3.9 3.4-6.2 4.7-2.3 1.3-4.9 2.3-7.5 3.1-2.7.8-5.4 1.1-8.2 1.1-3.9 0-7.7-.8-11.2-2.3-3.5-1.5-6.7-3.6-9.5-6.3-2.8-2.7-5.1-5.9-6.8-9.6-1.6-3.4-2.6-7.2-3.1-11.4h77.7l.2-.8c.1-.6.2-1.5.3-2.7.1-1.1.1-2.3.1-3.7 0-6.3-1.1-12.5-3.4-18.4-2.3-5.9-5.5-11.2-9.7-15.6-4.2-4.5-9.3-8.1-15.2-10.8-5.9-2.7-12.6-4-19.8-4-7.2 0-13.9 1.3-19.8 4-6 2.6-11.2 6.2-15.5 10.8-4.3 4.5-7.7 9.8-10.1 15.8-2.4 6-3.6 12.4-3.6 19.1s1.2 13.1 3.6 19.2c2.4 6 5.7 11.4 10 15.9s9.5 8.1 15.4 10.8c6 2.6 12.7 4 19.8 4 4.7 0 9.4-.6 13.8-1.8 4.4-1.2 8.4-2.9 12-5.1 3.6-2.1 6.8-4.7 9.6-7.6 2.8-2.9 5-6.2 6.6-9.8l.5-1.1-15.7-4.3-.3.6zm-26.3-56.6c4 0 7.9.7 11.5 2.2 3.6 1.4 6.8 3.5 9.5 6s5 5.7 6.8 9.3c1.6 3.3 2.7 7 3.1 10.9h-61.5c.4-3.9 1.4-7.5 3-10.8 1.7-3.6 3.9-6.7 6.6-9.3 2.7-2.6 5.9-4.6 9.5-6.1 3.6-1.4 7.5-2.2 11.5-2.2zM420.6 36.5H306.5v17h78.6l-91.8 113.9h115.3v-17h-79.8z"/>
    </g>
</symbol>
</svg>
