<?xml version="1.0" encoding="utf-8"?>
<svg xmlns="http://www.w3.org/2000/svg" xmlns:xlink="http://www.w3.org/1999/xlink">
<symbol viewBox="0 0 476 301" id="logo">
     <g id="ez-by-ibexa-logo" stroke="none" stroke-width="1" fill="none" fill-rule="evenodd">
        <g fill="#000000" fill-rule="nonzero" id="Shape">
            <path d="M448.7,30.1 L448.7,10.1 L457.6,10.1 C459.4,10.1 460.8,10.3 461.6,10.7 C462.6,11.1 463.2,11.7 463.8,12.7 C464.4,13.7 464.6,14.7 464.6,15.7 C464.6,17.1 464.2,18.3 463.2,19.3 C462.2,20.3 460.8,20.9 459,21.1 C459.8,21.5 460.2,21.7 460.6,22.1 C461.4,22.9 462.2,23.7 462.8,24.7 L466.4,30 L463,30 L460.4,25.8 C459.6,24.6 459,23.6 458.4,23 L457,21.6 L455.8,21 L451.4,21 L451.4,29.9 L448.6,29.9 L448.6,30.1 L448.7,30.1 Z M451.2,19 L456.9,19 C458.1,19 459.1,18.8 459.7,18.6 C460.3,18.4 460.9,18 461.3,17.4 C461.7,16.8 461.9,16.2 461.9,15.6 C461.9,14.6 461.5,13.8 460.9,13.2 C460.3,12.6 459.1,12.2 457.7,12.2 L451.4,12.2 L451.4,18.9 L451.2,18.9 L451.2,19 Z"></path>
            <path d="M456,41 C444.7,41 435.4,31.7 435.4,20.4 C435.4,9.1 444.5,0 456,0 C467.3,0 476.6,9.3 476.6,20.6 C476.6,31.9 467.3,41 456,41 Z M456,2.5 C446.1,2.5 438,10.6 438,20.5 C438,30.4 446.1,38.5 456,38.5 C465.9,38.5 474,30.4 474,20.5 C474,10.7 465.9,2.5 456,2.5 Z"></path>
            <path d="M149.5,252.4 C147.7,257 144.9,260.9 141.6,264.7 C138,268.3 133.9,271.4 129.3,274 C124.7,276.6 119.6,278.6 114.4,280.1 C109.1,281.7 103.7,282.3 98.2,282.3 C90.5,282.3 82.9,280.7 76,277.7 C69.1,274.7 62.7,270.6 57.2,265.2 C51.7,259.9 47.1,253.5 43.7,246.2 C40.5,239.5 38.5,231.9 37.6,223.6 L191.5,223.6 L191.9,222 C192.1,220.6 192.3,219 192.5,216.7 C192.7,214.5 192.7,212.1 192.7,209.4 C192.7,196.9 190.5,184.6 186,172.9 C181.4,161.2 175.1,150.7 166.8,142 C158.5,133.1 148.4,126 136.7,120.6 C125,115.3 111.7,112.7 97.5,112.7 C83.3,112.7 70,115.3 58.3,120.6 C46.4,125.8 36.1,132.9 27.6,142 C19.1,150.9 12.3,161.4 7.6,173.3 C2.8,185.2 0.5,197.9 0.5,211.1 C0.5,224.4 2.9,237.1 7.6,249.1 C12.4,261 18.9,271.7 27.4,280.6 C35.9,289.5 46.2,296.6 57.9,302 C69.8,307.2 83.1,309.9 97.1,309.9 C106.4,309.9 115.7,308.7 124.4,306.3 C133.1,303.9 141,300.6 148.2,296.2 C155.3,292 161.7,286.9 167.2,281.1 C172.7,275.4 177.1,268.8 180.3,261.7 L181.3,259.5 L150.2,251 L149.5,252.4 L149.5,252.4 Z M97.6,140.4 C105.5,140.4 113.3,141.8 120.4,144.8 C127.5,147.6 133.9,151.7 139.2,156.7 C144.5,161.7 149.1,168 152.7,175.1 C155.9,181.6 158,189 158.8,196.7 L36.9,196.7 C37.7,189 39.7,181.8 42.8,175.3 C46.2,168.2 50.5,162 55.9,156.9 C61.3,151.8 67.6,147.8 74.7,144.8 C81.7,141.8 89.4,140.4 97.6,140.4 L97.6,140.4 Z M366.6,82.2 L184.8,307.9 L413.2,307.9 L413.2,274.2 L255.3,274.2 L437,48.5 L210.9,48.5 L210.9,82.2 L366.6,82.2 Z"></path>
        </g>
    </g>
</symbol>
<symbol viewBox="0 0 476 301" id="logo-white">
     <g id="ez-by-ibexa-logo" stroke="none" stroke-width="1" fill="none" fill-rule="evenodd">
        <g fill="#ffffff" fill-rule="nonzero" id="Shape">
            <path d="M448.7,30.1 L448.7,10.1 L457.6,10.1 C459.4,10.1 460.8,10.3 461.6,10.7 C462.6,11.1 463.2,11.7 463.8,12.7 C464.4,13.7 464.6,14.7 464.6,15.7 C464.6,17.1 464.2,18.3 463.2,19.3 C462.2,20.3 460.8,20.9 459,21.1 C459.8,21.5 460.2,21.7 460.6,22.1 C461.4,22.9 462.2,23.7 462.8,24.7 L466.4,30 L463,30 L460.4,25.8 C459.6,24.6 459,23.6 458.4,23 L457,21.6 L455.8,21 L451.4,21 L451.4,29.9 L448.6,29.9 L448.6,30.1 L448.7,30.1 Z M451.2,19 L456.9,19 C458.1,19 459.1,18.8 459.7,18.6 C460.3,18.4 460.9,18 461.3,17.4 C461.7,16.8 461.9,16.2 461.9,15.6 C461.9,14.6 461.5,13.8 460.9,13.2 C460.3,12.6 459.1,12.2 457.7,12.2 L451.4,12.2 L451.4,18.9 L451.2,18.9 L451.2,19 Z"></path>
            <path d="M456,41 C444.7,41 435.4,31.7 435.4,20.4 C435.4,9.1 444.5,0 456,0 C467.3,0 476.6,9.3 476.6,20.6 C476.6,31.9 467.3,41 456,41 Z M456,2.5 C446.1,2.5 438,10.6 438,20.5 C438,30.4 446.1,38.5 456,38.5 C465.9,38.5 474,30.4 474,20.5 C474,10.7 465.9,2.5 456,2.5 Z"></path>
            <path d="M149.5,252.4 C147.7,257 144.9,260.9 141.6,264.7 C138,268.3 133.9,271.4 129.3,274 C124.7,276.6 119.6,278.6 114.4,280.1 C109.1,281.7 103.7,282.3 98.2,282.3 C90.5,282.3 82.9,280.7 76,277.7 C69.1,274.7 62.7,270.6 57.2,265.2 C51.7,259.9 47.1,253.5 43.7,246.2 C40.5,239.5 38.5,231.9 37.6,223.6 L191.5,223.6 L191.9,222 C192.1,220.6 192.3,219 192.5,216.7 C192.7,214.5 192.7,212.1 192.7,209.4 C192.7,196.9 190.5,184.6 186,172.9 C181.4,161.2 175.1,150.7 166.8,142 C158.5,133.1 148.4,126 136.7,120.6 C125,115.3 111.7,112.7 97.5,112.7 C83.3,112.7 70,115.3 58.3,120.6 C46.4,125.8 36.1,132.9 27.6,142 C19.1,150.9 12.3,161.4 7.6,173.3 C2.8,185.2 0.5,197.9 0.5,211.1 C0.5,224.4 2.9,237.1 7.6,249.1 C12.4,261 18.9,271.7 27.4,280.6 C35.9,289.5 46.2,296.6 57.9,302 C69.8,307.2 83.1,309.9 97.1,309.9 C106.4,309.9 115.7,308.7 124.4,306.3 C133.1,303.9 141,300.6 148.2,296.2 C155.3,292 161.7,286.9 167.2,281.1 C172.7,275.4 177.1,268.8 180.3,261.7 L181.3,259.5 L150.2,251 L149.5,252.4 L149.5,252.4 Z M97.6,140.4 C105.5,140.4 113.3,141.8 120.4,144.8 C127.5,147.6 133.9,151.7 139.2,156.7 C144.5,161.7 149.1,168 152.7,175.1 C155.9,181.6 158,189 158.8,196.7 L36.9,196.7 C37.7,189 39.7,181.8 42.8,175.3 C46.2,168.2 50.5,162 55.9,156.9 C61.3,151.8 67.6,147.8 74.7,144.8 C81.7,141.8 89.4,140.4 97.6,140.4 L97.6,140.4 Z M366.6,82.2 L184.8,307.9 L413.2,307.9 L413.2,274.2 L255.3,274.2 L437,48.5 L210.9,48.5 L210.9,82.2 L366.6,82.2 Z"></path>
        </g>
    </g>
</symbol>
<symbol viewBox="0 0 476 301" id="logo-orange">
    <g id="ez-by-ibexa-logo" stroke="none" stroke-width="1" fill="none" fill-rule="evenodd">
        <g fill="#FF4713" fill-rule="nonzero" id="Shape">
            <path d="M448.7,30.1 L448.7,10.1 L457.6,10.1 C459.4,10.1 460.8,10.3 461.6,10.7 C462.6,11.1 463.2,11.7 463.8,12.7 C464.4,13.7 464.6,14.7 464.6,15.7 C464.6,17.1 464.2,18.3 463.2,19.3 C462.2,20.3 460.8,20.9 459,21.1 C459.8,21.5 460.2,21.7 460.6,22.1 C461.4,22.9 462.2,23.7 462.8,24.7 L466.4,30 L463,30 L460.4,25.8 C459.6,24.6 459,23.6 458.4,23 L457,21.6 L455.8,21 L451.4,21 L451.4,29.9 L448.6,29.9 L448.6,30.1 L448.7,30.1 Z M451.2,19 L456.9,19 C458.1,19 459.1,18.8 459.7,18.6 C460.3,18.4 460.9,18 461.3,17.4 C461.7,16.8 461.9,16.2 461.9,15.6 C461.9,14.6 461.5,13.8 460.9,13.2 C460.3,12.6 459.1,12.2 457.7,12.2 L451.4,12.2 L451.4,18.9 L451.2,18.9 L451.2,19 Z"></path>
            <path d="M456,41 C444.7,41 435.4,31.7 435.4,20.4 C435.4,9.1 444.5,0 456,0 C467.3,0 476.6,9.3 476.6,20.6 C476.6,31.9 467.3,41 456,41 Z M456,2.5 C446.1,2.5 438,10.6 438,20.5 C438,30.4 446.1,38.5 456,38.5 C465.9,38.5 474,30.4 474,20.5 C474,10.7 465.9,2.5 456,2.5 Z"></path>
            <path d="M149.5,252.4 C147.7,257 144.9,260.9 141.6,264.7 C138,268.3 133.9,271.4 129.3,274 C124.7,276.6 119.6,278.6 114.4,280.1 C109.1,281.7 103.7,282.3 98.2,282.3 C90.5,282.3 82.9,280.7 76,277.7 C69.1,274.7 62.7,270.6 57.2,265.2 C51.7,259.9 47.1,253.5 43.7,246.2 C40.5,239.5 38.5,231.9 37.6,223.6 L191.5,223.6 L191.9,222 C192.1,220.6 192.3,219 192.5,216.7 C192.7,214.5 192.7,212.1 192.7,209.4 C192.7,196.9 190.5,184.6 186,172.9 C181.4,161.2 175.1,150.7 166.8,142 C158.5,133.1 148.4,126 136.7,120.6 C125,115.3 111.7,112.7 97.5,112.7 C83.3,112.7 70,115.3 58.3,120.6 C46.4,125.8 36.1,132.9 27.6,142 C19.1,150.9 12.3,161.4 7.6,173.3 C2.8,185.2 0.5,197.9 0.5,211.1 C0.5,224.4 2.9,237.1 7.6,249.1 C12.4,261 18.9,271.7 27.4,280.6 C35.9,289.5 46.2,296.6 57.9,302 C69.8,307.2 83.1,309.9 97.1,309.9 C106.4,309.9 115.7,308.7 124.4,306.3 C133.1,303.9 141,300.6 148.2,296.2 C155.3,292 161.7,286.9 167.2,281.1 C172.7,275.4 177.1,268.8 180.3,261.7 L181.3,259.5 L150.2,251 L149.5,252.4 L149.5,252.4 Z M97.6,140.4 C105.5,140.4 113.3,141.8 120.4,144.8 C127.5,147.6 133.9,151.7 139.2,156.7 C144.5,161.7 149.1,168 152.7,175.1 C155.9,181.6 158,189 158.8,196.7 L36.9,196.7 C37.7,189 39.7,181.8 42.8,175.3 C46.2,168.2 50.5,162 55.9,156.9 C61.3,151.8 67.6,147.8 74.7,144.8 C81.7,141.8 89.4,140.4 97.6,140.4 L97.6,140.4 Z M366.6,82.2 L184.8,307.9 L413.2,307.9 L413.2,274.2 L255.3,274.2 L437,48.5 L210.9,48.5 L210.9,82.2 L366.6,82.2 Z"></path>
        </g>
    </g>
</symbol>
</svg>
