<?xml version="1.0" encoding="utf-8"?>
<svg xmlns="http://www.w3.org/2000/svg" xmlns:xlink="http://www.w3.org/1999/xlink">
<symbol viewBox="0 0 822.59995 309.89998" id="logo">
    <path d="M794.7 30.1v-20h8.9c1.8 0 3.2.2 4 .6 1 .4 1.6 1 2.2 2 .6 1 .8 2 .8 3 0 1.4-.4 2.6-1.4 3.6-1 1-2.4 1.6-4.2 1.8.8.4 1.2.6 1.6 1 .8.8 1.6 1.6 2.2 2.6l3.6 5.3H809l-2.6-4.2c-.8-1.2-1.4-2.2-2-2.8l-1.4-1.4-1.2-.6h-4.4v8.9h-2.8v.2zm2.5-11.1h5.7c1.2 0 2.2-.2 2.8-.4.6-.2 1.2-.6 1.6-1.2.4-.6.6-1.2.6-1.8 0-1-.4-1.8-1-2.4-.6-.6-1.8-1-3.2-1h-6.3v6.7h-.2z"/>
    <path d="M802 41c-11.3 0-20.6-9.3-20.6-20.6S790.5 0 802 0c11.3 0 20.6 9.3 20.6 20.6S813.3 41 802 41zm0-38.5c-9.9 0-18 8.1-18 18s8.1 18 18 18 18-8.1 18-18c0-9.8-8.1-18-18-18z"/>
    <g>
        <path d="M0 22.2h242.3v242.3H0z"/>
        <path fill="#fff" d="M23.5 45.7h195.4v195.4H23.5z"/>
        <path d="M100.4 121.8h186.4v186.4H100.4z"/>
        <path fill="#f05a22" d="M122.6 144h141.7v141.7H122.6z"/>
        <g>
            <path d="M495.5 252.4c-1.8 4.6-4.6 8.5-7.9 12.3-3.6 3.6-7.7 6.7-12.3 9.3-4.6 2.6-9.7 4.6-14.9 6.1-5.3 1.6-10.7 2.2-16.2 2.2-7.7 0-15.3-1.6-22.2-4.6-6.9-3-13.3-7.1-18.8-12.5-5.5-5.3-10.1-11.7-13.5-19-3.2-6.7-5.2-14.3-6.1-22.6h153.9l.4-1.6c.2-1.4.4-3 .6-5.3.2-2.2.2-4.6.2-7.3 0-12.5-2.2-24.8-6.7-36.5-4.6-11.7-10.9-22.2-19.2-30.9-8.3-8.9-18.4-16-30.1-21.4-11.7-5.3-25-7.9-39.2-7.9-14.2 0-27.5 2.6-39.2 7.9-11.9 5.2-22.2 12.3-30.7 21.4-8.5 8.9-15.3 19.4-20 31.3-4.8 11.9-7.1 24.6-7.1 37.8 0 13.3 2.4 26 7.1 38 4.8 11.9 11.3 22.6 19.8 31.5 8.5 8.9 18.8 16 30.5 21.4 11.9 5.2 25.2 7.9 39.2 7.9 9.3 0 18.6-1.2 27.3-3.6 8.7-2.4 16.6-5.7 23.8-10.1 7.1-4.2 13.5-9.3 19-15.1 5.5-5.7 9.9-12.3 13.1-19.4l1-2.2-31.1-8.5-.7 1.4zm-51.9-112c7.9 0 15.7 1.4 22.8 4.4 7.1 2.8 13.5 6.9 18.8 11.9 5.3 5 9.9 11.3 13.5 18.4 3.2 6.5 5.3 13.9 6.1 21.6H382.9c.8-7.7 2.8-14.9 5.9-21.4 3.4-7.1 7.7-13.3 13.1-18.4 5.4-5.1 11.7-9.1 18.8-12.1 7-3 14.7-4.4 22.9-4.4zM712.6 82.2L530.8 307.9h228.4v-33.7H601.3L783 48.5H556.9v33.7z"/>
        </g>
    </g>
</symbol>
<symbol viewBox="0 0 446 191.5" id="logo-white">
    <path fill="#fff" d="M66 63.4h81.7V23.2H25.4v122.3H66z"/>
    <path fill="#fff" d="M76 73.4v94.1h94.1V73.4H76zm82.8 82.8H87.3V84.7h71.5v71.5z"/>
    <g>
        <path fill="#fff" d="M275.5 139.4c-.9 2.3-2.3 4.3-4 6.2-1.8 1.8-3.9 3.4-6.2 4.7-2.3 1.3-4.9 2.3-7.5 3.1-2.7.8-5.4 1.1-8.2 1.1-3.9 0-7.7-.8-11.2-2.3-3.5-1.5-6.7-3.6-9.5-6.3-2.8-2.7-5.1-5.9-6.8-9.6-1.6-3.4-2.6-7.2-3.1-11.4h77.7l.2-.8c.1-.6.2-1.5.3-2.7.1-1.1.1-2.3.1-3.7 0-6.3-1.1-12.5-3.4-18.4-2.3-5.9-5.5-11.2-9.7-15.6-4.2-4.5-9.3-8.1-15.2-10.8-5.9-2.7-12.6-4-19.8-4-7.2 0-13.9 1.3-19.8 4-6 2.6-11.2 6.2-15.5 10.8-4.3 4.5-7.7 9.8-10.1 15.8-2.4 6-3.6 12.4-3.6 19.1s1.2 13.1 3.6 19.2c2.4 6 5.7 11.4 10 15.9s9.5 8.1 15.4 10.8c6 2.6 12.7 4 19.8 4 4.7 0 9.4-.6 13.8-1.8 4.4-1.2 8.4-2.9 12-5.1 3.6-2.1 6.8-4.7 9.6-7.6 2.8-2.9 5-6.2 6.6-9.8l.5-1.1-15.7-4.3-.3.6zm-26.3-56.6c4 0 7.9.7 11.5 2.2 3.6 1.4 6.8 3.5 9.5 6s5 5.7 6.8 9.3c1.6 3.3 2.7 7 3.1 10.9h-61.5c.4-3.9 1.4-7.5 3-10.8 1.7-3.6 3.9-6.7 6.6-9.3 2.7-2.6 5.9-4.6 9.5-6.1 3.6-1.4 7.5-2.2 11.5-2.2zM420.6 36.5H306.5v17h78.6l-91.8 113.9h115.3v-17h-79.8z"/>
    </g>
</symbol>
<symbol viewBox="0 0 400 180" id="logo-orange">
    <path fill="#FFFFFF" d="m126.242001,52.547l0,-49.829l-121.242,0l0,121.238l50.181,0l0,21.851l93.256,0l0,-93.26l-22.195,0zm-71.06,59.658l-38.431,0l0,-97.745l97.737,0l0,38.087l-59.306,0l0,59.658z" id="svg_3"/>
    <path fill="#FFFFFF" d="m252.925001,117.957c-0.903,2.254 -2.243,4.307 -3.989,6.104c-1.766,1.824 -3.819,3.389 -6.096,4.636c-2.301,1.27 -4.814,2.293 -7.467,3.04c-2.63,0.744 -5.364,1.123 -8.118,1.123c-3.896,0 -7.637,-0.755 -11.123,-2.242c-3.505,-1.487 -6.673,-3.582 -9.434,-6.228c-2.754,-2.637 -5.015,-5.842 -6.743,-9.524c-1.588,-3.381 -2.606,-7.165 -3.029,-11.255l77.005,0l0.159,-0.801c0.128,-0.643 0.224,-1.507 0.29,-2.634c0.054,-1.104 0.089,-2.324 0.089,-3.625c0,-6.274 -1.139,-12.428 -3.369,-18.288c-2.243,-5.861 -5.461,-11.073 -9.566,-15.491c-4.121,-4.419 -9.183,-8.011 -15.042,-10.67c-5.875,-2.665 -12.475,-4.013 -19.597,-4.013c-7.126,0 -13.737,1.317 -19.671,3.919c-5.925,2.603 -11.104,6.189 -15.395,10.662c-4.295,4.473 -7.664,9.744 -10.027,15.666c-2.351,5.922 -3.544,12.293 -3.544,18.927c0,6.642 1.193,13.036 3.544,19.012c2.358,5.988 5.704,11.29 9.934,15.759c4.233,4.477 9.384,8.067 15.309,10.666c5.929,2.599 12.544,3.919 19.674,3.919c4.702,0 9.291,-0.612 13.648,-1.82c4.345,-1.204 8.358,-2.889 11.929,-5.012c3.574,-2.115 6.766,-4.667 9.5,-7.579c2.742,-2.922 4.93,-6.197 6.514,-9.731l0.473,-1.055l-15.53,-4.295l-0.328,0.83zm-26.03,-56.107c4.016,0 7.85,0.724 11.409,2.161c3.555,1.437 6.727,3.439 9.419,5.96c2.696,2.521 4.969,5.639 6.751,9.26c1.63,3.311 2.668,6.94 3.098,10.794l-60.991,0c0.418,-3.858 1.398,-7.459 2.928,-10.724c1.665,-3.559 3.869,-6.673 6.569,-9.253c2.688,-2.571 5.856,-4.601 9.407,-6.038c3.56,-1.436 7.398,-2.16 11.41,-2.16z" id="svg_5"/>
    <polygon fill="#FFFFFF" points="396.7919921875,15.912994384765625 283.696044921875,15.912994384765625 283.696044921875,32.764007568359375 361.56396484375,32.764007568359375 270.5889892578125,145.66500854492188 384.928955078125,145.66500854492188 384.928955078125,128.80999755859375 305.81695556640625,128.80999755859375 " id="svg_6"/>
    <rect x="66.340001" y="63.717" fill="#F05B24" width="70.933" height="70.921" />
</symbol>
</svg>
