<?xml version="1.0" encoding="UTF-8"?>
<svg width="23px" height="23px" viewBox="0 0 23 23" version="1.1" xmlns="http://www.w3.org/2000/svg" xmlns:xlink="http://www.w3.org/1999/xlink">
    <title>Ibexa_responsive_wordmark</title>
    <defs>
        <linearGradient x1="8.9%" y1="22.9163815%" x2="91.4%" y2="77.2757009%" id="linearGradient-1">
            <stop stop-color="#EA571C" offset="0%"></stop>
            <stop stop-color="#E95026" offset="18.6%"></stop>
            <stop stop-color="#E83E3A" offset="53.7%"></stop>
            <stop stop-color="#E61850" offset="100%"></stop>
        </linearGradient>
    </defs>
    <g id="Ibexa_responsive_wordmark" stroke="none" stroke-width="1" fill="none" fill-rule="evenodd">
        <g style="mix-blend-mode: luminosity;" fill-rule="nonzero" id="Responsive_mark">
            <g id="Group_2">
                <ellipse id="Ellipse_12" fill="url(#linearGradient-1)" cx="11.5" cy="11.2700704" rx="11.5" ry="11.2700704"></ellipse>
                <path d="M20.331655,6.13542635 L17.5818325,6.13542635 L13.76182,9.90565936 L12.9142125,9.11850129 L11.5392725,10.4751924 L12.38688,11.2626322 L10.293075,13.3291687 L10.2915225,13.3279289 C9.7360725,13.7809858 8.665825,14.4036572 7.8902075,14.4036572 C7.43434394,14.4032742 6.98390465,14.3067389 6.56949,14.1206094 C6.56949,14.1206094 11.89399,8.79099304 12.234735,8.45446874 L11.944475,8.15406501 C10.798155,6.98248484 9.2488175,6.17870342 7.85105,6.17870342 C5.0085375,6.17870342 2.6958875,8.46123078 2.6958875,11.2666331 C2.6958875,14.0720354 5.008595,16.3545627 7.85105,16.3545627 C9.180565,16.3545627 10.3456875,15.916326 11.792905,14.5596913 L13.761475,12.6198868 L17.3406775,16.1543499 L20.0905,16.1543499 L15.1363575,11.2631393 L20.331655,6.13542635 Z M4.67262246,11.2283148 C4.67262246,9.47734033 6.1158725,8.05269022 7.8902075,8.05269022 C8.50515042,8.0523472 9.10694488,8.22713218 9.622395,8.55578667 L5.182705,12.9375901 C4.84953731,12.4272905 4.67252617,11.83413 4.67262246,11.2283148 L4.67262246,11.2283148 Z" id="Path_7" fill="#FFFFFF"></path>
            </g>
        </g>
    </g>
</svg>
