<?xml version="1.0" encoding="UTF-8"?>
<svg width="515px" height="342px" viewBox="0 0 515 342" version="1.1" xmlns="http://www.w3.org/2000/svg" xmlns:xlink="http://www.w3.org/1999/xlink">
    <title>image</title>
    <g id="+table" stroke="none" stroke-width="1" fill="none" fill-rule="evenodd">
        <g id="table/empty" transform="translate(-891.000000, -338.000000)">
            <g id="image" transform="translate(891.000000, 338.000000)">
                <circle id="Oval" fill="#FBFBFC" cx="344" cy="171" r="171"></circle>
                <rect id="Rectangle-Copy-3" fill="#FFFFFF" x="0" y="186" width="422" height="54" rx="10"></rect>
                <rect id="Rectangle" fill="#F3F3F6" x="0" y="120" width="422" height="54" rx="10"></rect>
                <rect id="Rectangle" fill="#FFFFFF" x="31" y="135" width="144" height="24" rx="10"></rect>
                <rect id="Rectangle-Copy" fill="#FFFFFF" x="290" y="135" width="43" height="24" rx="10"></rect>
                <rect id="Rectangle-Copy-2" fill="#FFFFFF" x="348" y="135" width="43" height="24" rx="10"></rect>
                <rect id="Rectangle" fill="#F3F3F6" x="0" y="252" width="422" height="54" rx="10"></rect>
                <rect id="Rectangle" fill="#FFFFFF" x="31" y="267" width="144" height="24" rx="10"></rect>
                <rect id="Rectangle-Copy" fill="#FFFFFF" x="290" y="267" width="43" height="24" rx="10"></rect>
                <rect id="Rectangle-Copy-2" fill="#FFFFFF" x="348" y="267" width="43" height="24" rx="10"></rect>
                <rect id="Rectangle-Copy-5" fill="#F3F3F6" x="29" y="202" width="144" height="24" rx="10"></rect>
                <rect id="Rectangle-Copy-6" fill="#F3F3F6" x="289" y="202" width="43" height="24" rx="10"></rect>
                <rect id="Rectangle-Copy-7" fill="#F3F3F6" x="346" y="202" width="43" height="24" rx="10"></rect>
            </g>
        </g>
    </g>
</svg>