<?xml version="1.0" encoding="UTF-8"?>
<svg width="368px" height="298px" viewBox="0 0 368 298" version="1.1" xmlns="http://www.w3.org/2000/svg" xmlns:xlink="http://www.w3.org/1999/xlink">
    <title>Group</title>
    <defs>
        <path d="M174.33643,11.4331282 L240.074223,11.4116085 C245.597068,11.4032518 250.075686,15.8789384 250.077494,21.4017856 C250.077495,21.4039692 250.077495,21.4061529 250.070946,21.4083343 L250.045659,98.5635988 C250.037297,104.083886 245.56267,108.558512 240.042383,108.566872 L174.30459,108.588392 C168.781745,108.596748 164.303127,104.121062 164.301319,98.5982144 C164.301318,98.5960308 164.301318,98.5938471 164.307867,98.5916657 L164.333153,21.4364012 C164.341516,15.9161143 168.816143,11.4414883 174.33643,11.4331282 Z" id="path-1"></path>
        <filter x="-90.4%" y="-61.2%" width="290.1%" height="267.7%" filterUnits="objectBoundingBox" id="filter-2">
            <feOffset dx="4" dy="22" in="SourceAlpha" result="shadowOffsetOuter1"></feOffset>
            <feGaussianBlur stdDeviation="23.5" in="shadowOffsetOuter1" result="shadowBlurOuter1"></feGaussianBlur>
            <feColorMatrix values="0 0 0 0 0   0 0 0 0 0.247058824   0 0 0 0 1  0 0 0 0.05 0" type="matrix" in="shadowBlurOuter1"></feColorMatrix>
        </filter>
        <path d="M34.6876136,19.8136324 L127.790987,19.7084604 C133.313831,19.7022217 137.796038,24.1743138 137.802277,29.6971578 C137.802285,29.7046837 137.802285,29.7122097 137.802277,29.7197356 L137.679897,138.197656 C137.673676,143.711684 133.205228,148.180139 127.691199,148.186368 L34.5878263,148.29154 C29.0649824,148.297778 24.5827752,143.825686 24.5765365,138.302842 C24.576528,138.295316 24.576528,138.28779 24.5765364,138.280264 L24.6989162,29.8023445 C24.7051369,24.2883156 29.1735848,19.8198612 34.6876136,19.8136324 Z" id="path-3"></path>
        <filter x="-68.9%" y="-46.6%" width="244.8%" height="227.5%" filterUnits="objectBoundingBox" id="filter-4">
            <feMorphology radius="0.5" operator="dilate" in="SourceAlpha" result="shadowSpreadOuter1"></feMorphology>
            <feOffset dx="4" dy="22" in="shadowSpreadOuter1" result="shadowOffsetOuter1"></feOffset>
            <feGaussianBlur stdDeviation="23.5" in="shadowOffsetOuter1" result="shadowBlurOuter1"></feGaussianBlur>
            <feComposite in="shadowBlurOuter1" in2="SourceAlpha" operator="out" result="shadowBlurOuter1"></feComposite>
            <feColorMatrix values="0 0 0 0 0   0 0 0 0 0.247058824   0 0 0 0 1  0 0 0 0.05 0" type="matrix" in="shadowBlurOuter1"></feColorMatrix>
        </filter>
    </defs>
    <g id="Page-1" stroke="none" stroke-width="1" fill="none" fill-rule="evenodd">
        <g id="Search_-no-results" transform="translate(-929.000000, -431.000000)">
            <g id="Group-2" transform="translate(980.000000, 479.000000)">
                <path d="M92.0809264,34.8164255 C121.114866,5.78248585 168.217614,5.81191646 197.287858,34.8821606 C223.738161,61.3324641 226.146346,102.711399 204.495421,131.825226 L245.992971,173.373832 C250.26423,177.650432 250.26423,184.578507 245.992971,188.855107 C241.728606,193.124804 234.810382,193.129126 230.540685,188.864762 C230.537465,188.861545 230.534247,188.858327 230.53103,188.855107 L189.01402,147.287146 C159.904203,168.877654 118.574047,166.450742 92.1466615,140.023357 C63.0764173,110.953113 63.0469867,63.8503652 92.0809264,34.8164255 Z M181.825917,50.3441013 C161.305745,29.8239289 128.056747,29.8031544 107.562201,50.2977 C87.0676552,70.7922457 87.0884298,104.041244 107.608602,124.561416 C128.128774,145.081589 161.377773,145.102363 181.872318,124.607818 C202.366864,104.113272 202.34609,70.8642736 181.825917,50.3441013 Z" id="Combined-Shape" fill="#F3F3F6"></path>
                <g id="Rectangle-Copy-5" transform="translate(207.189406, 60.000000) rotate(-345.000000) translate(-207.189406, -60.000000) ">
                    <use fill="black" fill-opacity="1" filter="url(#filter-2)" xlink:href="#path-1"></use>
                    <use fill="#FFFFFF" fill-rule="evenodd" xlink:href="#path-1"></use>
                </g>
                <g id="Rectangle" transform="translate(81.189406, 84.000000) rotate(-30.000000) translate(-81.189406, -84.000000) ">
                    <use fill="black" fill-opacity="1" filter="url(#filter-4)" xlink:href="#path-3"></use>
                    <use stroke="#E0E0E8" stroke-width="1" fill="#FFFFFF" fill-rule="evenodd" xlink:href="#path-3"></use>
                </g>
                <path d="M186.094385,18.5200368 L232.779335,18.5047541 C238.30218,18.4963975 242.780798,22.9720841 242.782606,28.4949313 C242.782607,28.4971149 242.782607,28.4992986 242.776057,28.50148 L242.763507,66.7946391 C242.755145,72.3149261 238.280518,76.789552 232.760231,76.7979122 L186.07528,76.8131948 C180.552435,76.8215515 176.073817,72.3458648 176.072009,66.8230176 C176.072009,66.820834 176.072009,66.8186504 176.078558,66.8164689 L176.091108,28.5233098 C176.09947,23.0030229 180.574098,18.5283969 186.094385,18.5200368 Z" id="Rectangle-Copy-6" fill="#F3F3F6" transform="translate(209.427308, 47.658974) rotate(-345.000000) translate(-209.427308, -47.658974) "></path>
                <path d="M38.981925,29.022175 L106.951207,28.9453951 C112.474051,28.9391564 116.956258,33.4112485 116.962496,38.9340925 C116.962505,38.9416184 116.962505,38.9491444 116.962496,38.9566703 L116.898094,96.043407 C116.891873,101.557436 112.423425,106.02589 106.909396,106.032119 L38.9401148,106.108899 C33.4172709,106.115138 28.9350637,101.643045 28.928825,96.1202015 C28.9288165,96.1126756 28.9288165,96.1051497 28.928825,96.0976237 L28.9932276,39.0108871 C28.9994483,33.4968582 33.4678961,29.0284038 38.981925,29.022175 Z" id="Rectangle-Copy-2" fill="#ECECF1" transform="translate(72.945661, 67.527147) rotate(-30.000000) translate(-72.945661, -67.527147) "></path>
                <path d="M95.8500238,36.0353908 C94.1955536,36.1997831 92.6400331,36.9315162 91.4547296,38.1181391 L75.1894065,54.3839758 L58.9231367,38.1171919 C57.5694508,36.7619986 55.7312695,36 53.8144632,36 C51.897657,36 50.0594757,36.7619986 48.7048431,38.1181391 L45.3065984,41.5163833 C43.9514051,42.8700692 43.1894065,44.7082505 43.1894065,46.6250568 L43.2247973,47.3393827 C43.3891896,48.9938529 44.1209227,50.5493734 45.3075456,51.7346769 L61.5733823,68 L45.3065984,84.2662697 C43.9514051,85.6199557 43.1894065,87.458137 43.1894065,89.3749432 C43.1894065,91.2917495 43.9514051,93.1299308 45.3075456,94.4845634 L48.7057898,97.8828081 C50.0594757,99.2380014 51.897657,100 53.8144632,100 L54.5287892,99.9646092 C56.1832594,99.8002169 57.7387799,99.0684838 58.9240834,97.8818609 L75.1894065,81.6160242 L91.4556762,97.8828081 C92.8093622,99.2380014 94.6475435,100 96.5643497,100 C98.481156,100 100.319337,99.2380014 101.67397,97.8818609 L105.072215,94.4836167 C106.427408,93.1299308 107.189406,91.2917495 107.189406,89.3749432 L107.154016,88.6606173 C106.989623,87.0061471 106.25789,85.4506266 105.071267,84.2653231 L88.8054307,68 L105.072215,51.7337303 C106.427408,50.3800443 107.189406,48.541863 107.189406,46.6250568 C107.189406,44.7082505 106.427408,42.8700692 105.071267,41.5154366 L101.673023,38.1171919 C100.319337,36.7619986 98.481156,36 96.5643497,36 L95.8500238,36.0353908 Z" id="interface-delete-2" fill="#FFFFFF" transform="translate(75.189406, 68.000000) rotate(-30.000000) translate(-75.189406, -68.000000) "></path>
                <path d="M220.811004,31.0199073 C219.880364,31.112378 219.005384,31.5239779 218.338651,32.1914532 L209.189406,41.3409864 L200.03963,32.1909205 C199.278181,31.4286242 198.244204,31 197.166001,31 C196.087797,31 195.05382,31.4286242 194.29184,32.1914532 L192.380327,34.1029656 C191.618031,34.8644139 191.189406,35.8983909 191.189406,36.9765944 L191.209314,37.3784028 C191.301784,38.3090423 191.713384,39.1840225 192.38086,39.8507557 L201.530393,49 L192.380327,58.1497767 C191.618031,58.9112251 191.189406,59.945202 191.189406,61.0234056 C191.189406,62.1016091 191.618031,63.1355861 192.38086,63.8975669 L194.292372,65.8090795 C195.05382,66.5713758 196.087797,67 197.166001,67 L197.567809,66.9800927 C198.498449,66.887622 199.373429,66.4760221 200.040162,65.8085468 L209.189406,56.6590136 L218.339183,65.8090795 C219.100632,66.5713758 220.134609,67 221.212812,67 C222.291016,67 223.324993,66.5713758 224.086973,65.8085468 L225.998486,63.8970344 C226.760782,63.1355861 227.189406,62.1016091 227.189406,61.0234056 L227.169499,60.6215972 C227.077028,59.6909577 226.665429,58.8159775 225.997953,58.1492443 L216.84842,49 L225.998486,39.8502233 C226.760782,39.0887749 227.189406,38.054798 227.189406,36.9765944 C227.189406,35.8983909 226.760782,34.8644139 225.997953,34.1024331 L224.086441,32.1909205 C223.324993,31.4286242 222.291016,31 221.212812,31 L220.811004,31.0199073 Z" id="interface-delete-2-copy" fill="#FFFFFF" transform="translate(209.189406, 49.000000) rotate(-345.000000) translate(-209.189406, -49.000000) "></path>
            </g>
        </g>
    </g>
</svg>