<?xml version="1.0" encoding="UTF-8"?>
<svg width="401px" height="328px" viewBox="0 0 401 328" version="1.1" xmlns="http://www.w3.org/2000/svg" xmlns:xlink="http://www.w3.org/1999/xlink">
    <title>Group 2</title>
    <defs>
        <path d="M145.325802,28.1904976 C182.94637,-9.43007056 243.979497,-9.39193601 281.647106,28.2756736 C315.919806,62.5483729 319.04031,116.16461 290.986602,153.888668 L344.75649,207.725498 C350.29095,213.266879 350.29095,222.243894 344.75649,227.785275 C339.230962,233.317711 330.266712,233.323312 324.734275,227.797785 L324.721765,227.785275 L324.721765,227.785275 L270.927339,173.923065 C233.2084,201.899656 179.654423,198.755248 145.410977,164.511803 C107.743368,126.844193 107.705233,65.8110659 145.325802,28.1904976 Z M261.612382,48.3103984 C235.023481,21.7214975 191.941273,21.694579 165.385578,48.2502742 C138.829883,74.8059694 138.856801,117.888177 165.445702,144.477078 C192.034603,171.065979 235.116811,171.092897 261.672506,144.537202 C288.228201,117.981507 288.201282,74.8992993 261.612382,48.3103984 Z" id="path-1"></path>
        <filter x="-33.7%" y="-25.9%" width="170.8%" height="170.7%" filterUnits="objectBoundingBox" id="filter-2">
            <feMorphology radius="0.5" operator="dilate" in="SourceAlpha" result="shadowSpreadOuter1"></feMorphology>
            <feOffset dx="4" dy="22" in="shadowSpreadOuter1" result="shadowOffsetOuter1"></feOffset>
            <feGaussianBlur stdDeviation="23.5" in="shadowOffsetOuter1" result="shadowBlurOuter1"></feGaussianBlur>
            <feComposite in="shadowBlurOuter1" in2="SourceAlpha" operator="out" result="shadowBlurOuter1"></feComposite>
            <feColorMatrix values="0 0 0 0 0   0 0 0 0 0.247058824   0 0 0 0 1  0 0 0 0.05 0" type="matrix" in="shadowBlurOuter1"></feColorMatrix>
        </filter>
    </defs>
    <g id="Page-1" stroke="none" stroke-width="1" fill="none" fill-rule="evenodd">
        <g id="Search_-empty" transform="translate(-925.000000, -471.000000)">
            <g id="Group-6" transform="translate(925.000000, 497.060210)">
                <path d="M60.6206374,66.9949487 L288.917155,66.9949487 C294.440002,66.9949487 298.917155,71.4721012 298.917155,76.9949487 L298.917155,95.2928397 C298.917155,100.815687 294.440002,105.29284 288.917155,105.29284 L60.6206374,105.29284 C55.0977899,105.29284 50.6206374,100.815687 50.6206374,95.2928397 L50.6206374,76.9949487 C50.6206374,71.4721012 55.0977899,66.9949487 60.6206374,66.9949487 Z" id="Rectangle" fill="#F3F3F6"></path>
                <rect id="Rectangle" fill="#FFFFFF" x="68.860429" y="77.6332518" width="84.7267737" height="17.0212849" rx="8.51064243"></rect>
                <rect id="Rectangle-Copy" fill="#FFFFFF" x="205.417002" y="77.6332518" width="30.4583831" height="17.0212849" rx="8.51064243"></rect>
                <rect id="Rectangle-Copy-2" fill="#FFFFFF" x="246.500403" y="77.6332518" width="30.4583831" height="17.0212849" rx="8.51064243"></rect>
                <path d="M65.0828452,160.612016 L344,160.612016 C349.522847,160.612016 354,165.089168 354,170.612016 L354,188.909906 C354,194.432754 349.522847,198.909906 344,198.909906 L65.0828452,198.909906 C59.5599977,198.909906 55.0828452,194.432754 55.0828452,188.909906 L55.0828452,170.612016 C55.0828452,165.089168 59.5599977,160.612016 65.0828452,160.612016 Z" id="Rectangle" fill="#F3F3F6"></path>
                <rect id="Rectangle" fill="#FFFFFF" x="77.0412144" y="171.250319" width="102.000167" height="17.0212849" rx="8.51064243"></rect>
                <rect id="Rectangle-Copy" fill="#FFFFFF" x="205.417002" y="171.250319" width="30.4583831" height="17.0212849" rx="8.51064243"></rect>
                <rect id="Rectangle-Copy-2" fill="#FFFFFF" x="301.583248" y="171.250319" width="30.4583831" height="17.0212849" rx="8.51064243"></rect>
                <path d="M10,113.803482 L288.917155,113.803482 C294.440002,113.803482 298.917155,118.280635 298.917155,123.803482 L298.917155,142.101373 C298.917155,147.624221 294.440002,152.101373 288.917155,152.101373 L10,152.101373 C4.4771525,152.101373 -1.10000309e-15,147.624221 0,142.101373 L0,123.803482 C-2.45271059e-15,118.280635 4.4771525,113.803482 10,113.803482 Z" id="Rectangle-Copy-3" fill="#FFFFFF"></path>
                <rect id="Rectangle-Copy-5" fill="#F3F3F6" x="20.5417002" y="125.151005" width="102.000167" height="17.0212849" rx="8.51064243"></rect>
                <rect id="Rectangle-Copy-6" fill="#F3F3F6" x="204.708668" y="125.151005" width="30.4583831" height="17.0212849" rx="8.51064243"></rect>
                <rect id="Rectangle-Copy-7" fill="#F3F3F6" x="245.083734" y="125.151005" width="30.4583831" height="17.0212849" rx="8.51064243"></rect>
                <path d="M142.45855,56.3566457 L287.500486,56.3566457 C293.023333,56.3566457 297.500486,60.8337982 297.500486,66.3566457 L297.500486,91.0375185 C297.500486,96.560366 293.023333,101.037518 287.500486,101.037518 L142.45855,101.037518 C136.935702,101.037518 132.45855,96.560366 132.45855,91.0375185 L132.45855,66.3566457 C132.45855,60.8337982 136.935702,56.3566457 142.45855,56.3566457 Z" id="Rectangle" fill="#F3F3F6"></path>
                <rect id="Rectangle-Copy" fill="#FFFFFF" x="214.625351" y="68.4133891" width="35.4167245" height="19.8581657" rx="9.92908284"></rect>
                <rect id="Rectangle-Copy-2" fill="#FFFFFF" x="262.083761" y="68.4133891" width="35.4167245" height="19.8581657" rx="9.92908284"></rect>
                <path d="M149.541895,110.257381 L278.292137,110.257381 C283.814985,110.257381 288.292137,114.734534 288.292137,120.257381 L288.292137,144.938254 C288.292137,150.461101 283.814985,154.938254 278.292137,154.938254 L149.541895,154.938254 C144.019047,154.938254 139.541895,150.461101 139.541895,144.938254 L139.541895,120.257381 C139.541895,114.734534 144.019047,110.257381 149.541895,110.257381 Z" id="Rectangle-Copy-3" fill="#FFFFFF"></path>
                <rect id="Rectangle-Copy-6" fill="#F3F3F6" x="213.917016" y="123.732565" width="35.4167245" height="19.8581657" rx="9.92908284"></rect>
                <rect id="Rectangle-Copy-7" fill="#F3F3F6" x="260.667092" y="123.732565" width="35.4167245" height="19.8581657" rx="9.92908284"></rect>
                <g id="Combined-Shape">
                    <use fill="black" fill-opacity="1" filter="url(#filter-2)" xlink:href="#path-1"></use>
                    <use stroke="#E0E0E8" stroke-width="1" fill="#FFFFFF" fill-rule="evenodd" xlink:href="#path-1"></use>
                </g>
            </g>
        </g>
    </g>
</svg>