<?xml version="1.0" encoding="utf-8"?>
<!-- Generator: Adobe Illustrator 20.1.0, SVG Export Plug-In . SVG Version: 6.00 Build 0)  -->
<svg version="1.1" id="Layer_3" xmlns="http://www.w3.org/2000/svg" xmlns:xlink="http://www.w3.org/1999/xlink" x="0px" y="0px"
	 viewBox="0 0 72 72" style="enable-background:new 0 0 72 72;" xml:space="preserve">
<path d="M59.1,72H12.9C10.8,72,9,70.2,9,68V4c0-2.2,1.8-4,3.9-4h28.9c0.3,0,0.5,0.1,0.7,0.3l20.2,21.3c0.2,0.2,0.3,0.4,0.3,0.7V68
	C63,70.2,61.3,72,59.1,72z M12.9,2C11.9,2,11,2.9,11,4v64c0,1.1,0.9,2,1.9,2h46.1c1.1,0,1.9-0.9,1.9-2V22.7L41.4,2H12.9z M61,24
	H48.3c-3.9,0-8.3-2.9-8.3-7L39.9,1.8c0-0.6,0.4-0.8,1-0.8c0,0,0,0,0,0c0.5,0,1,0.2,1,0.8l0.2,15.3c0,2.8,3.4,4.9,6.3,4.9H61
	c0.6,0,1,0.4,1,1S61.6,24,61,24z M45,61H27c-0.6,0-1-0.4-1-1s0.4-1,1-1h5V39h-5c-0.6,0-1-0.4-1-1s0.4-1,1-1h12c0.6,0,1,0.4,1,1v21h5
	c0.6,0,1,0.4,1,1S45.6,61,45,61z M34,59h4V39h-4V59z M36,33.9c-2.2,0-4-1.8-4-4s1.8-4,4-4c2.2,0,4,1.8,4,4S38.2,33.9,36,33.9z
	 M36,27.9c-1.1,0-2,0.9-2,2s0.9,2,2,2c1.1,0,2-0.9,2-2S37.1,27.9,36,27.9z"/>
</svg>
