<svg xmlns="http://www.w3.org/2000/svg" width="32" height="32">
<path d="M16 32C7.163 32 0 24.837 0 16S7.163 0 16 0s16 7.163 16 16c-.009 8.833-7.167 15.991-15.999 16H16zm0-30C8.268 2 2 8.268 2 16s6.268 14 14 14 14-6.268 14-14S23.732 2 16 2zm1.5 21.5A1.5 1.5 0 1 1 16 22a1.503 1.503 0 0 1 1.5 1.5zM17 19v-1.333-.001c0-.433.275-.801.66-.941l.007-.002c1.973-.7 3.36-2.549 3.36-4.723a5 5 0 0 0-5-5h-.028H16a5 5 0 0 0-5 5 1 1 0 0 0 2 0 3 3 0 0 1 3-3h.004a3 3 0 0 1 1.016 5.823l-.021.007c-1.175.424-2 1.53-2 2.828V19a1 1 0 0 0 2 0z"/>
</svg>