<svg version="1.1" xmlns="http://www.w3.org/2000/svg" width="32" height="32" viewBox="0 0 32 32">
<title>about</title>
<path fill="#333" d="M20.667 18.667h-1.333v-8.667c0-0.736-0.597-1.333-1.333-1.333v0h-6.667c-0.736 0-1.333 0.597-1.333 1.333s0.597 1.333 1.333 1.333v0h1.333v7.333h-1.333c-0.736 0-1.333 0.597-1.333 1.333s0.597 1.333 1.333 1.333v0h9.333c0.736 0 1.333-0.597 1.333-1.333s-0.597-1.333-1.333-1.333v0zM15.333 11.333h1.333v7.333h-1.333zM18 6c0 1.105-0.895 2-2 2s-2-0.895-2-2c0-1.105 0.895-2 2-2v0c1.105 0 2 0.895 2 2v0zM6.667 32c-0.231-0-0.447-0.058-0.637-0.16l0.007 0.004c-0.422-0.23-0.703-0.669-0.703-1.175 0-0.001 0-0.001 0-0.002v0-5.333h-2.333c-0.029 0.001-0.064 0.002-0.098 0.002-1.603 0-2.903-1.3-2.903-2.903 0-0.035 0.001-0.069 0.002-0.103l-0 0.005v-19.333c-0.001-0.029-0.002-0.064-0.002-0.098 0-1.603 1.3-2.903 2.903-2.903 0.035 0 0.069 0.001 0.103 0.002l-0.005-0h26.027c0.015-0 0.033-0 0.051-0 1.614 0 2.923 1.309 2.923 2.923 0 0.027-0 0.054-0.001 0.081l0-0.004v19.333c0.001 0.029 0.002 0.064 0.002 0.098 0 1.603-1.3 2.903-2.903 2.903-0.035 0-0.069-0.001-0.103-0.002l0.005 0h-11.93l-9.667 6.443c-0.207 0.14-0.462 0.223-0.737 0.223h-0zM3 2.667c-0.263 0-0.333 0.070-0.333 0.333v19.333c0 0.263 0.070 0.333 0.333 0.333h3.667c0.736 0 1.333 0.597 1.333 1.333v0 4.177l7.927-5.287c0.208-0.14 0.463-0.223 0.739-0.223 0 0 0.001 0 0.001 0h12.333c0.253 0 0.333-0.080 0.333-0.333v-19.333c0-0.307-0.14-0.333-0.307-0.333z"></path>
</svg>
