<svg xmlns="http://www.w3.org/2000/svg" width="32" height="32">
<path d="M7 32h-.007a.951.951 0 0 1-.445-.109l.005.003A1 1 0 0 1 6 31.001v-5H3a3 3 0 0 1-3-3v-20a3 3 0 0 1 3-3h26a3 3 0 0 1 3 3v20a3 3 0 0 1-3 3H15.333l-7.733 5.8a.992.992 0 0 1-.6.2zM3 2a1 1 0 0 0-1 1v20a1 1 0 0 0 1 1h4a1 1 0 0 1 1 1v4l6.4-4.8a.992.992 0 0 1 .6-.2h14a1 1 0 0 0 1-1V3a1 1 0 0 0-1-1zm15.667 18.333H17.6l-.061.001a3.073 3.073 0 0 1-3.072-2.997v-5.004h-1.134a1 1 0 0 1 0-2h1.097c1.112 0 2.016.891 2.036 1.998v5.002a1.078 1.078 0 0 0 1.136 1h-.003 1.067a1 1 0 0 1 0 2zM15 5a1.667 1.667 0 1 0 1.667 1.667C16.667 5.747 15.921 5 15 5z"/>
</svg>