<svg version="1.1" xmlns="http://www.w3.org/2000/svg" width="32" height="32" viewBox="0 0 32 32">
<title>about-info</title>
<path fill="#333" d="M18 24.333c0 1.105-0.895 2-2 2s-2-0.895-2-2c0-1.105 0.895-2 2-2v0c1.105 0 2 0.895 2 2v0zM17.333 18.973v-1.9c2.907-0.667 4-3.593 4-5.63 0-2.32-1.42-5.777-5.333-5.777-2.79 0-4.747 1.787-5.24 4.777-0.011 0.065-0.018 0.14-0.018 0.217 0 0.737 0.597 1.334 1.334 1.334 0.66 0 1.209-0.48 1.316-1.11l0.001-0.008c0.417-2.543 2.067-2.543 2.607-2.543 2.503 0 2.667 2.597 2.667 3.11-0.029 0.608-0.167 1.177-0.395 1.697l0.012-0.031c-0.44 0.98-1.167 1.437-2.283 1.437-0.736 0-1.333 0.597-1.333 1.333v0 3.083c0 0.736 0.597 1.333 1.333 1.333s1.333-0.597 1.333-1.333v0zM32 16c0-8.837-7.163-16-16-16s-16 7.163-16 16c0 8.837 7.163 16 16 16v0c8.833-0.009 15.991-7.167 16-15.999v-0.001zM29.333 16c0 7.364-5.97 13.333-13.333 13.333s-13.333-5.97-13.333-13.333c0-7.364 5.97-13.333 13.333-13.333v0c7.364 0 13.333 5.97 13.333 13.333v0z"></path>
</svg>
