<?xml version="1.0" encoding="utf-8"?>
<!-- Generator: Adobe Illustrator 20.1.0, SVG Export Plug-In . SVG Version: 6.00 Build 0)  -->
<svg version="1.1" id="Layer_2" xmlns="http://www.w3.org/2000/svg" xmlns:xlink="http://www.w3.org/1999/xlink" x="0px" y="0px"
	 viewBox="0 0 72 72" style="enable-background:new 0 0 72 72;" xml:space="preserve">
<g>
	<g>
		<g>
			<path d="M38.4,69.8c-11.6,0-22.8-6.1-29-16.4c-0.3-0.5-0.1-1.1,0.3-1.4c0.5-0.3,1.1-0.1,1.4,0.3c7.2,12.1,21.8,18,35.4,14.3
				c8.2-2.2,15-7.4,19.2-14.8c4.2-7.3,5.4-15.9,3.2-24C64.4,11.1,47,1.1,30.1,5.6c-13.6,3.6-23.2,16-23.5,30c0,0.6-0.5,1-1,1
				c-0.6,0-1-0.5-1-1c0.3-14.9,10.5-28,25-31.9C47.5-1.2,66,9.5,70.8,27.4c2.3,8.7,1.1,17.8-3.4,25.6C63,60.8,55.7,66.4,47,68.7
				C44.2,69.5,41.3,69.8,38.4,69.8z"/>
		</g>
		<g>
			<path d="M5.4,37c-0.2,0-0.3,0-0.5-0.1c-0.2-0.1-0.4-0.3-0.5-0.6L0,21.8c-0.2-0.5,0.1-1.1,0.7-1.2c0.5-0.2,1.1,0.1,1.2,0.7L6,34.7
				l13.1-4.5c0.5-0.2,1.1,0.1,1.3,0.6s-0.1,1.1-0.6,1.3L5.7,37C5.6,37,5.5,37,5.4,37z"/>
		</g>
	</g>
	<g>
		<g>
			<g>
				<path d="M38.5,37.5c-0.6,0-1-0.4-1-1v-20c0-0.6,0.4-1,1-1s1,0.4,1,1v20C39.5,37.1,39.1,37.5,38.5,37.5z"/>
			</g>
			<g>
				<path d="M50.5,37h-12c-0.6,0-1-0.4-1-1s0.4-1,1-1h12c0.6,0,1,0.4,1,1S51.1,37,50.5,37z"/>
			</g>
		</g>
		<g>
			<circle cx="38.5" cy="36" r="2.5"/>
			<path d="M38.5,39.5c-1.9,0-3.5-1.6-3.5-3.5s1.6-3.5,3.5-3.5S42,34.1,42,36S40.4,39.5,38.5,39.5z M38.5,34.5
				c-0.8,0-1.5,0.7-1.5,1.5s0.7,1.5,1.5,1.5S40,36.8,40,36S39.3,34.5,38.5,34.5z"/>
		</g>
	</g>
</g>
</svg>
