<svg xmlns="http://www.w3.org/2000/svg" width="32" height="32"><path d="M20 13.76v-.006a4 4 0 1 0-5.028 3.867l.028.006v12.04a1 1 0 0 0 2 0v-12.04a4.007 4.007 0 0 0 3-3.866zm-4 2a2 2 0 1 1 2-2 2 2 0 0 1-2 2zm5.827 5.853a1 1 0 0 1-.648-1.759l.001-.001a7.99 7.99 0 0 0 2.817-6.094 7.966 7.966 0 0 0-1.91-5.187l.009.011a7.684 7.684 0 0 0-.906-.907l-.011-.009a.999.999 0 1 1 1.298-1.522l-.001-.001c2.16 1.846 3.52 4.572 3.52 7.617s-1.36 5.771-3.507 7.605l-.014.011a.996.996 0 0 1-.646.237h-.004zm-11.667 0h-.004a.996.996 0 0 1-.647-.238l.001.001c-2.16-1.846-3.52-4.572-3.52-7.617s1.36-5.771 3.507-7.605l.014-.011a1.005 1.005 0 0 1 1.312 1.523l-.001.001a7.684 7.684 0 0 0-.907.906l-.009.011a7.961 7.961 0 0 0-1.9 5.176 7.985 7.985 0 0 0 2.806 6.085l.011.009a1 1 0 0 1-.647 1.76zm15.553 4.57a1 1 0 0 1-.648-1.759l.001-.001c3.026-2.584 4.932-6.403 4.932-10.667s-1.906-8.083-4.913-10.651l-.019-.016a1.002 1.002 0 1 1 1.299-1.526l-.001-.001a16.713 16.713 0 0 1 1.811 1.808l.019.022a15.915 15.915 0 0 1 3.805 10.358c0 4.872-2.178 9.236-5.613 12.17l-.022.018a.997.997 0 0 1-.65.243zm-19.426 0h-.004a.996.996 0 0 1-.647-.238l.001.001C2.18 22.993.002 18.629.002 13.757c0-3.961 1.439-7.586 3.824-10.38l-.019.022a16.713 16.713 0 0 1 1.808-1.811l.022-.019a1.002 1.002 0 0 1 1.298 1.526l-.001.001C3.908 5.68 2.002 9.499 2.002 13.763s1.906 8.083 4.913 10.651l.019.016a1 1 0 0 1-.647 1.76z"/></svg>