<svg version="1.1" xmlns="http://www.w3.org/2000/svg" width="32" height="32" viewBox="0 0 32 32">
<title>airtime</title>
<path fill="#333" d="M22.293 19.35c-0.735-0.001-1.331-0.598-1.331-1.333 0-0.367 0.148-0.699 0.388-0.94l-0 0c1.367-1.384 2.211-3.287 2.211-5.387s-0.844-4.003-2.212-5.387l0.001 0.001c-0.254-0.243-0.412-0.585-0.412-0.964 0-0.736 0.597-1.333 1.333-1.333 0.381 0 0.725 0.16 0.968 0.417l0.001 0.001c1.846 1.866 2.987 4.433 2.987 7.267s-1.141 5.401-2.988 7.268l0.001-0.001c-0.242 0.243-0.576 0.393-0.946 0.393-0 0-0.001 0-0.001 0h0zM10.683 19c0.242-0.241 0.391-0.575 0.391-0.943s-0.149-0.702-0.391-0.943v0c-1.391-1.385-2.252-3.302-2.252-5.42 0-2.088 0.836-3.981 2.193-5.361l-0.001 0.001c0.236-0.241 0.382-0.571 0.382-0.935 0-0.737-0.597-1.334-1.334-1.334-0.373 0-0.709 0.153-0.951 0.399l-0 0c-1.823 1.862-2.949 4.413-2.949 7.228 0 2.854 1.157 5.439 3.028 7.309l0 0c0.241 0.241 0.574 0.389 0.942 0.389s0.7-0.149 0.942-0.389l-0 0zM27.237 23.060c2.94-2.896 4.762-6.92 4.762-11.37 0-4.413-1.792-8.408-4.689-11.297l-0-0c-0.243-0.255-0.586-0.414-0.966-0.414-0.736 0-1.333 0.597-1.333 1.333 0 0.381 0.159 0.724 0.415 0.967l0.001 0.001c2.413 2.406 3.907 5.734 3.907 9.41 0 3.708-1.519 7.061-3.968 9.471l-0.002 0.002c-0.242 0.241-0.391 0.575-0.391 0.943s0.149 0.702 0.391 0.943v0c0.241 0.242 0.575 0.391 0.943 0.391s0.702-0.149 0.943-0.391v0zM6.667 23.047c0.237-0.24 0.383-0.571 0.383-0.935 0-0.373-0.153-0.71-0.399-0.951l-0-0c-2.449-2.412-3.967-5.765-3.967-9.471 0-3.677 1.493-7.005 3.907-9.412l0-0c0.228-0.239 0.368-0.563 0.368-0.919 0-0.736-0.597-1.333-1.333-1.333-0.356 0-0.679 0.139-0.918 0.366l0.001-0.001c-2.897 2.889-4.689 6.883-4.689 11.297 0 4.45 1.822 8.474 4.76 11.368l0.002 0.002c0.241 0.242 0.575 0.391 0.943 0.391s0.702-0.149 0.943-0.391v0zM20 11.687c0-0.001 0-0.003 0-0.005 0-2.209-1.791-4-4-4s-4 1.791-4 4c0 1.731 1.1 3.206 2.639 3.762l0.028 0.009v15.213c0 0.736 0.597 1.333 1.333 1.333s1.333-0.597 1.333-1.333v0-15.213c1.565-0.565 2.665-2.037 2.667-3.766v-0z"></path>
</svg>
