<?xml version="1.0" encoding="utf-8"?>
<!-- Generator: Adobe Illustrator 20.1.0, SVG Export Plug-In . SVG Version: 6.00 Build 0)  -->
<svg version="1.1" id="Layer_1" xmlns="http://www.w3.org/2000/svg" xmlns:xlink="http://www.w3.org/1999/xlink" x="0px" y="0px"
	 viewBox="0 0 72 72" style="enable-background:new 0 0 72 72;" xml:space="preserve">
<g>
	<g>
		<path d="M63,64H9c-0.6,0-1-0.4-1-1s0.4-1,1-1h54c0.6,0,1,0.4,1,1S63.6,64,63,64z"/>
	</g>
	<g>
		<path d="M63,50.1H9c-0.6,0-1-0.4-1-1s0.4-1,1-1h54c0.6,0,1,0.4,1,1S63.6,50.1,63,50.1z"/>
	</g>
	<g>
		<path d="M63,37.1H9c-0.6,0-1-0.4-1-1s0.4-1,1-1h54c0.6,0,1,0.4,1,1S63.6,37.1,63,37.1z"/>
	</g>
	<g>
		<path d="M63,24.1H9c-0.6,0-1-0.4-1-1s0.4-1,1-1h54c0.6,0,1,0.4,1,1S63.6,24.1,63,24.1z"/>
	</g>
	<g>
		<path d="M63,10H9c-0.6,0-1-0.4-1-1s0.4-1,1-1h54c0.6,0,1,0.4,1,1S63.6,10,63,10z"/>
	</g>
</g>
</svg>
