<svg version="1.1" xmlns="http://www.w3.org/2000/svg" width="32" height="32" viewBox="0 0 32 32">
<title>align-center</title>
<path fill="#333" d="M28.667 30.667h-25.333c-0.736 0-1.333-0.597-1.333-1.333s0.597-1.333 1.333-1.333v0h25.333c0.736 0 1.333 0.597 1.333 1.333s-0.597 1.333-1.333 1.333v0zM23.333 22.667c0-0.736-0.597-1.333-1.333-1.333v0h-12c-0.736 0-1.333 0.597-1.333 1.333s0.597 1.333 1.333 1.333v0h12c0.736 0 1.333-0.597 1.333-1.333v0zM26.667 16c0-0.736-0.597-1.333-1.333-1.333v0h-18.667c-0.736 0-1.333 0.597-1.333 1.333s0.597 1.333 1.333 1.333v0h18.667c0.736 0 1.333-0.597 1.333-1.333v0zM23.333 9.333c0-0.736-0.597-1.333-1.333-1.333v0h-12c-0.736 0-1.333 0.597-1.333 1.333s0.597 1.333 1.333 1.333v0h12c0.736 0 1.333-0.597 1.333-1.333v0zM30 2.667c0-0.736-0.597-1.333-1.333-1.333v0h-25.333c-0.736 0-1.333 0.597-1.333 1.333s0.597 1.333 1.333 1.333v0h25.333c0.736 0 1.333-0.597 1.333-1.333v0z"></path>
</svg>
