<svg xmlns="http://www.w3.org/2000/svg" width="32" height="32"><path d="M16.177 21.667a.996.996 0 0 1-.69-.277L7.31 13.577a1 1 0 1 1 1.38-1.446l7.467 7.133 13.8-13.967a.999.999 0 0 1 1.419 1.407l.001-.001-14.49 14.667a1 1 0 0 1-.71.297zM31.667 16v-.005c0-1.26-.148-2.484-.428-3.658l.021.107a1 1 0 1 0-1.945.46l-.002-.007c.227.934.358 2.005.358 3.108 0 7.548-6.119 13.667-13.667 13.667S2.337 23.553 2.337 16.005 8.456 2.338 16.004 2.338c3.315 0 6.355 1.18 8.721 3.144l-.023-.018a1 1 0 0 0 1.278-1.541l-.002-.001a15.579 15.579 0 0 0-9.98-3.59C7.346.332.331 7.346.331 15.999s7.014 15.667 15.667 15.667c8.651 0 15.665-7.012 15.667-15.663z"/></svg>