<svg xmlns="http://www.w3.org/2000/svg" width="32" height="32"><path d="M23 32c-4.971 0-9-4.029-9-9s4.029-9 9-9a9 9 0 0 1 9 9 9 9 0 0 1-9 9zm0-16a7 7 0 1 0 7 7 7 7 0 0 0-7-7zm3.373 4.96l-2.667-2.667a1.123 1.123 0 0 0-.15-.124l-.004-.002-.077-.04a1.023 1.023 0 0 0-.088-.048l-.005-.002-.103-.033-.083-.023a.932.932 0 0 0-.4.001l.006-.001-.083.023-.103.033a.963.963 0 0 0-.097.052l.003-.002-.077.04c-.057.04-.107.081-.153.127l-2.666 2.666a1 1 0 0 0 0 1.414 1 1 0 0 0 1.414 0l.96-.96v5.587a1 1 0 0 0 2 0v-5.587l.96.96a1 1 0 0 0 1.414 0 1 1 0 0 0 0-1.414zM11 22.667H5.896a4.23 4.23 0 0 1-4.229-4.164V9a1 1 0 0 1 2 0v9.5a2.231 2.231 0 0 0 2.229 2.167l.057-.001H5.95 11a1 1 0 0 1 0 2zM25 11V9a1 1 0 0 0-2 0v2a1 1 0 0 0 2 0zm-7.333-.333A2.667 2.667 0 0 0 15 8h-3.333a2.667 2.667 0 1 0 0 5.334H15a2.667 2.667 0 0 0 2.667-2.667zM15 10a.667.667 0 1 1 0 1.334h-3.333a.667.667 0 1 1 0-1.334zm11.667-4.333v-3.11A2.603 2.603 0 0 0 24.064 0h-.043.002H2.603A2.604 2.604 0 0 0 0 2.555V5.667a1 1 0 0 0 1 1h24.667a1 1 0 0 0 1-1zM2 2.557a.608.608 0 0 1 .605-.558l.04.001h-.002 21.38l.039-.001c.318 0 .579.244.605.556V4.667H2z"/></svg>