<svg version="1.1" xmlns="http://www.w3.org/2000/svg" width="32" height="32" viewBox="0 0 32 32">
<title>archive-restore</title>
<path fill="#333" d="M11.333 22.667c0-0.736 0.597-1.333 1.333-1.333v0h6.667c0.736 0 1.333 0.597 1.333 1.333s-0.597 1.333-1.333 1.333v0h-6.667c-0.736 0-1.333-0.597-1.333-1.333v0zM31.813 11.333l-4.147 7.030v11.71c-0.004 1.065-0.868 1.927-1.933 1.927-0.001 0-0.002 0-0.004 0h-19.46c-0.001 0-0.002 0-0.003 0-1.065 0-1.93-0.862-1.933-1.926v-11.71l-4.147-7.030c-0.159-0.217-0.255-0.489-0.255-0.784 0-0.736 0.597-1.333 1.333-1.333 0.537 0 1.001 0.318 1.212 0.776l0.003 0.008 3.947 6.667h19.147l3.947-6.667c0.214-0.466 0.678-0.784 1.215-0.784 0.736 0 1.333 0.597 1.333 1.333 0 0.295-0.096 0.567-0.258 0.788l0.003-0.004zM25 19.333h-18v10h18zM21.28 4.393l-3.717-3.727c-0.399-0.402-0.951-0.65-1.562-0.65s-1.163 0.249-1.562 0.65l-0 0-3.72 3.727c-0.239 0.241-0.387 0.573-0.387 0.94 0 0.737 0.597 1.334 1.334 1.334 0.37 0 0.705-0.151 0.947-0.394l0-0 2.053-2.067v9.127c0 0.736 0.597 1.333 1.333 1.333s1.333-0.597 1.333-1.333v0-9.13l2.053 2.070c0.242 0.243 0.577 0.394 0.947 0.394 0.737 0 1.334-0.597 1.334-1.334 0-0.367-0.148-0.699-0.387-0.94l0 0z"></path>
</svg>
