<svg version="1.1" xmlns="http://www.w3.org/2000/svg" width="96" height="96" viewBox="0 0 96 96">
<title>archive-restore</title>
<path d="M94 28.56A4 4 0 0 0 88.56 30L76.72 50H19.28L7.44 30a4 4 0 1 0-6.88 4L13 55.09v35.13A5.8 5.8 0 0 0 18.81 96h58.38A5.8 5.8 0 0 0 83 90.22V55.09L95.44 34A4 4 0 0 0 94 28.56zM75 88H21V58h54zM57.82 69H38.18a4 4 0 0 1 0-8h19.64a4 4 0 0 1 0 8zm6-50.16a4 4 0 0 1-5.66 0L52 12.61V40a4 4 0 0 1-8 0V12.62l-6.16 6.2a4 4 0 0 1-5.68-5.64L43.32 2a6.6 6.6 0 0 1 9.37 0l11.15 11.18a4 4 0 0 1-.02 5.66z"/>
</svg>
