<svg version="1.1" xmlns="http://www.w3.org/2000/svg" width="96" height="96" viewBox="0 0 96 96">
<title>assign-user</title>
<path fill="#333" d="M50,34a6.45,6.45,0,0,1-1.7,4.4L39,48.69A4,4,0,0,1,33,43.31L37.86,38h-11A2.86,2.86,0,0,0,24,40.85V64.53a16,16,0,1,1-8,0V40.85A10.87,10.87,0,0,1,26.85,30h11L33,24.69A4,4,0,1,1,39,19.31L48.32,29.6A6.52,6.52,0,0,1,50,34ZM90.55,61.64A6,6,0,0,1,85.79,64H58.23a6,6,0,0,1-4.75-2.34A7.1,7.1,0,0,1,52.12,56a14.45,14.45,0,0,1,.29-1.91c.19-.84,2.92-13,5.28-16.63a13,13,0,0,1,9.78-5.78,16,16,0,1,1,8.64.1c3.34.46,7.73,2.07,9.94,6.11,2.76,4.15,5.62,16.83,5.65,17a2,2,0,0,1,.06.34l.09.67A7.09,7.09,0,0,1,90.55,61.64ZM72,24.36a8.18,8.18,0,1,0-8-8.18A8.1,8.1,0,0,0,72,24.36ZM83.76,56c-1.1-4.87-3.37-12.25-4.35-13.64a4,4,0,0,1-.34-.56C78.16,40,75,39.65,73.9,39.65H68.43a5.09,5.09,0,0,0-4,2.2c-.84,1.3-2.91,8.25-4.17,14l0,.1v0Z"/>
</svg>