<svg xmlns="http://www.w3.org/2000/svg" width="32" height="32"><path d="M27 32h-6.005a1 1 0 0 1-.995-.896V31.1l-.903-9.1H17a1 1 0 0 1-1-1v-3a8 8 0 0 1 16 0v3a1 1 0 0 1-1 1h-2.097L28 31.1a1 1 0 0 1-.995.9H27zm-5.097-2h4.193l.903-9.1a1 1 0 0 1 .995-.9h2.005v-2a6 6 0 1 0-12 0v2h2.005a1 1 0 0 1 .995.896v.004zM24 10a5 5 0 1 1 5-5 5 5 0 0 1-5 5zm0-8a3 3 0 1 0 3 3 3 3 0 0 0-3-3zm-8.27 5.333l-4.667-5A1 1 0 1 0 9.604 3.7l-.001-.001 3.107 3.333c-4.553.063-8.71.757-8.71 6.3v8.767c-2.299.482-4 2.492-4 4.899a5 5 0 1 0 6.033-4.893L6 22.099v-8.767c0-3.65 2.177-4.23 6.667-4.333l-3.063 3.333a.998.998 0 0 0 .721 1.692.997.997 0 0 0 .738-.325l.001-.001 4.667-5a.997.997 0 0 0 0-1.367l.001.001z"/></svg>