<?xml version="1.0" encoding="utf-8"?>
<!-- Generator: Adobe Illustrator 20.1.0, SVG Export Plug-In . SVG Version: 6.00 Build 0)  -->
<svg version="1.1" id="Layer_1" xmlns="http://www.w3.org/2000/svg" xmlns:xlink="http://www.w3.org/1999/xlink" x="0px" y="0px"
	 viewBox="0 0 72 72" style="enable-background:new 0 0 72 72;" xml:space="preserve">
<style type="text/css">
	.st0{display:none;}
	.st1{display:inline;}
</style>
<g>
	<g>
		<g>
			<g>
				<path d="M35.3,67c-0.2,0-0.4-0.1-0.6-0.2c-0.3-0.2-0.4-0.5-0.4-0.8V55.9c0-0.2,0.1-0.4,0.2-0.6l15-21.6c0.3-0.5,0.9-0.6,1.4-0.2
					c0.5,0.3,0.6,0.9,0.2,1.4L36.3,56.2v8.4l8.5-3.1l14.5-20.9c0.3-0.5,0.9-0.6,1.4-0.3c0.5,0.3,0.6,0.9,0.3,1.4L46.2,62.9
					c-0.1,0.2-0.3,0.3-0.5,0.4l-10.1,3.7C35.5,67,35.4,67,35.3,67z"/>
			</g>
			<g>
				<path d="M40.7,59.5c-0.2,0-0.4-0.1-0.6-0.2c-0.4-0.3-0.6-0.9-0.2-1.4l14.8-20.6c0.3-0.4,0.9-0.6,1.4-0.2
					c0.4,0.3,0.6,0.9,0.2,1.4L41.5,59.1C41.3,59.3,41,59.5,40.7,59.5z"/>
			</g>
			<g>
				<path d="M62.9,38.3c-0.2,0-0.4-0.1-0.6-0.2l-9.6-6.7c-0.2-0.2-0.4-0.4-0.4-0.7c0-0.3,0-0.5,0.2-0.8c0,0,0.6-0.9,2.5-3.7
					c0.8-1.2,2.2-1.6,3.9-1.2c1.1,0.3,1.9,0.9,2,0.9c0,0,0,0,0,0c0,0,0.8,0.5,4,2.7c2.7,1.9,2.2,4.3,1.5,5.3l-2.7,3.7
					C63.5,38.2,63.2,38.3,62.9,38.3z M54.7,30.4l8,5.6l2.1-2.9c0.2-0.3,0.7-1.4-1-2.5c-3.2-2.2-3.9-2.6-3.9-2.7
					c-0.1,0-2.3-1.5-3.2-0.3C55.7,28.9,55.1,29.8,54.7,30.4z"/>
			</g>
		</g>
	</g>
	<g>
		<g>
			<g>
				<path d="M37.5,72H10c-1.9,0-3.2-0.5-4.1-1.5c-0.8-1-1.1-2.4-0.8-4.2c0-0.1,0.3-1.5,0.6-2.5C6,63,6.2,62,6.5,61
					c1.8-6.6,4.2-15.6,7.3-19c4.7-5.2,11.9-4.6,12.7-4.5h7.8c0.1,0,2.7,0,5.9,1.5c0.5,0.2,0.7,0.8,0.5,1.3s-0.8,0.7-1.3,0.5
					c-2.8-1.3-5.1-1.3-5.1-1.3h-7.9h-0.1c-0.1,0-6.9-0.8-11,3.9c-2.8,3.1-5.2,11.8-6.9,18.2c-0.3,1-0.5,2-0.8,2.9
					c-0.3,1-0.6,2.3-0.6,2.3c-0.2,1.1-0.1,2,0.4,2.5C7.9,69.7,8.8,70,10,70h27.5c0.6,0,1,0.4,1,1S38.1,72,37.5,72z"/>
			</g>
			<g>
				<path d="M29.6,33.6c-9.3,0-16.8-7.5-16.8-16.8S20.3,0,29.6,0c4.6,0,8.8,1.8,12,5c3.1,3.2,4.8,7.4,4.8,11.8
					C46.4,26.1,38.9,33.6,29.6,33.6z M29.6,2c-8.2,0-14.8,6.6-14.8,14.8s6.6,14.8,14.8,14.8S44.4,25,44.4,16.8
					c0-3.9-1.4-7.6-4.2-10.4S33.6,2,29.6,2z"/>
			</g>
			<g class="st0">
				<path class="st1" d="M50.1,63.2c-0.8,0-1.5-0.2-1.9-0.7l-4.8-4.3c-0.4-0.4-0.4-1-0.1-1.4c0.4-0.4,1-0.4,1.4-0.1l4.8,4.3
					c0.2,0.2,0.6,0.2,0.8-0.1l7.9-10.8c0.3-0.4,1-0.5,1.4-0.2s0.5,1,0.2,1.4l-7.9,10.8C51.5,62.8,50.8,63.2,50.1,63.2z"/>
			</g>
			<g class="st0">
				<path class="st1" d="M51.5,72c-8.6,0-15.6-7-15.6-15.6s7-15.6,15.6-15.6s15.6,7,15.6,15.6S60.1,72,51.5,72z M51.5,42.8
					c-7.5,0-13.6,6.1-13.6,13.6S44,70,51.5,70s13.6-6.1,13.6-13.6S59,42.8,51.5,42.8z"/>
			</g>
		</g>
	</g>
</g>
</svg>
