<svg version="1.1" xmlns="http://www.w3.org/2000/svg" width="32" height="32" viewBox="0 0 32 32">
<title>author</title>
<path fill="#333" d="M10.667 16c-4.418 0-8-3.582-8-8s3.582-8 8-8c4.418 0 8 3.582 8 8v0c0 4.418-3.582 8-8 8v0zM10.667 2.667c-2.946 0-5.333 2.388-5.333 5.333s2.388 5.333 5.333 5.333c2.946 0 5.333-2.388 5.333-5.333v0c0-2.946-2.388-5.333-5.333-5.333v0zM12 30.667c0-0.736-0.597-1.333-1.333-1.333v0h-8c-0.005-0.015-0.008-0.033-0.008-0.052s0.003-0.036 0.008-0.053l-0 0.001c0.020-0.073 0.035-0.159 0.040-0.247l0-0.003c0.017-0.207 0.048-0.396 0.092-0.579l-0.005 0.026v-0.040c0.707-2.873 1.943-6.697 2.54-7.517 1.173-1.58 3.297-1.537 3.31-1.537h3.103c0.371 0.004 0.731 0.035 1.083 0.089l-0.043-0.005c0.058 0.009 0.125 0.014 0.193 0.014 0.737 0 1.334-0.597 1.334-1.334 0-0.669-0.492-1.222-1.133-1.319l-0.007-0.001c-0.432-0.065-0.934-0.105-1.445-0.11l-0.005-0h-3c-0.41 0-3.6 0-5.52 2.63-1.29 1.757-2.87 8.037-2.977 8.437-0.071 0.265-0.129 0.583-0.161 0.907l-0.002 0.026c-0.040 0.178-0.063 0.383-0.063 0.593 0 0.647 0.217 1.243 0.581 1.72l-0.005-0.007c0.477 0.625 1.222 1.025 2.060 1.027h8.030c0.736 0 1.333-0.597 1.333-1.333v0zM16.263 31.883l6.023-2.703c0.262-0.122 0.473-0.316 0.613-0.557l0.003-0.007 5.877-10.427c0.108-0.189 0.171-0.414 0.171-0.655 0-0.739-0.599-1.338-1.338-1.338-0.498 0-0.933 0.272-1.163 0.676l-0.003 0.007-5.667 10.047-3.937 1.773-0.49-4.48 5.573-9.94c0.107-0.188 0.17-0.413 0.17-0.653 0-0.739-0.599-1.337-1.337-1.337-0.498 0-0.933 0.273-1.163 0.677l-0.003 0.007-5.783 10.333c-0.096 0.18-0.153 0.393-0.153 0.62 0 0.056 0.004 0.112 0.010 0.166l-0.001-0.006 0.737 6.727c0.054 0.431 0.306 0.793 0.66 0.997l0.006 0.003c0.191 0.111 0.42 0.177 0.664 0.177 0.198 0 0.386-0.043 0.554-0.12l-0.008 0.003zM20.187 25.423l5.617-10c0.107-0.188 0.17-0.413 0.17-0.653 0-0.739-0.599-1.337-1.337-1.337-0.498 0-0.933 0.273-1.163 0.677l-0.003 0.007-5.61 10.003c-0.108 0.188-0.171 0.413-0.171 0.654 0 0.497 0.272 0.93 0.675 1.16l0.007 0.003c0.188 0.107 0.413 0.17 0.652 0.17 0.498 0 0.932-0.273 1.161-0.677l0.003-0.007zM30.637 9.583l-4.857-2.637c-0.361-0.203-0.793-0.322-1.253-0.322-0.257 0-0.505 0.037-0.739 0.107l0.018-0.005c-0.582 0.17-1.053 0.558-1.328 1.068l-0.006 0.012-0.773 1.507c-0.096 0.18-0.152 0.393-0.152 0.619 0 0.503 0.278 0.94 0.689 1.168l0.007 0.003 6.903 3.747c0.183 0.101 0.401 0.16 0.633 0.16 0.001 0 0.002 0 0.004 0h-0c0.138-0.001 0.271-0.021 0.396-0.059l-0.010 0.003c0.348-0.11 0.628-0.349 0.79-0.659l0.003-0.007 0.79-1.507c0.58-1.113 0.087-2.547-1.117-3.197z"></path>
</svg>
