<svg xmlns="http://www.w3.org/2000/svg" width="32" height="32"><path d="M15 32a1 1 0 0 1-.979-1.203l-.001.006 1-5a1 1 0 0 1 .273-.51L25.43 15.12c.689-.692 1.643-1.12 2.697-1.12s2.007.428 2.697 1.12l.023.023a3.792 3.792 0 0 1 1.142 2.717 3.788 3.788 0 0 1-1.044 2.617l.002-.002a1.363 1.363 0 0 1-.264.207l-.006.003-9.983 10a.99.99 0 0 1-.507.272l-.006.001-4.983 1a1.067 1.067 0 0 1-.192.04h-.004zm5-2zm-3.08-3.507l-.647 3.23 3.217-.643 9.93-9.96a.93.93 0 0 1 .199-.154l.004-.002a1.779 1.779 0 0 0-.192-2.405l-.001-.001-.037-.04a1.805 1.805 0 0 0-2.547.016zM11 32H4.995A1 1 0 0 1 4 31.104V31.1L3.097 22H1a1 1 0 0 1-1-1v-3a8 8 0 0 1 16 0v3a1 1 0 0 1-1 1h-2.097L12 31.1c-.053.508-.478.9-.995.9H11zm-5.097-2h4.193l.903-9.1c.053-.508.478-.9.995-.9h2.005v-2a6 6 0 1 0-12 0v2h2.005a1 1 0 0 1 .995.896v.004zM8 10a5 5 0 1 1 5-5 5 5 0 0 1-5 5zm0-8a3 3 0 1 0 3 3 3 3 0 0 0-3-3z"/></svg>