<?xml version="1.0" encoding="utf-8"?>
<!-- Generator: Adobe Illustrator 24.3.0, SVG Export Plug-In . SVG Version: 6.00 Build 0)  -->
<svg version="1.1" id="Warstwa_1" xmlns="http://www.w3.org/2000/svg" xmlns:xlink="http://www.w3.org/1999/xlink" x="0px" y="0px"
	 viewBox="0 0 19 19" style="enable-background:new 0 0 19 19;" xml:space="preserve">
<g>
	<path class="st0" d="M5,8.3c-2.7,0-5,2.2-5,5c0,2.7,2.2,5,5,5c2.7,0,5-2.2,5-5C9.8,10.4,7.6,8.3,5,8.3z M4.9,17
		c-2.1,0-3.7-1.7-3.7-3.8s1.6-3.8,3.7-3.8s3.7,1.7,3.7,3.8S6.8,17,4.9,17z"/>
	<path class="st0" d="M6.5,11.2c-0.2,0-0.4,0.1-0.5,0.3l-1.5,1.9l-0.6-0.5c-0.1-0.1-0.3-0.2-0.5-0.2c-0.4,0-0.7,0.3-0.7,0.7
		c0,0.2,0.1,0.4,0.2,0.5l1.1,1C4,15,4.2,15.1,4.4,15.1l0,0c0.2,0,0.4-0.1,0.5-0.2L7,12.4c0.1-0.1,0.2-0.3,0.2-0.5
		C7.2,11.5,6.9,11.2,6.5,11.2z"/>
	<path class="st0" d="M15.1,4.5L15.1,4.5L15.1,4.5z"/>
	<path class="st0" d="M18.5,2.3L18.5,2.3l-2.1-2.1C16.2,0,16,0,15.8,0l0,0H6.5C5.9,0,5.3,0.5,5.3,1.2v6.4c0.4,0,0.7,0.1,1.1,0.2V1.1
		c0,0,0-0.1,0.1-0.1h2.2v2.7C8.7,4.4,9.3,5,10.1,5H14c0,0,0,0,0.1,0c0.4,0,0.7-0.1,1-0.4c0.2-0.2,0.3-0.5,0.3-0.8l0,0l0,0V1h0.3l2,2
		v9.2c0,0,0,0.1-0.1,0.1h-0.7V7.8c0-0.6-0.5-1.2-1.2-1.2l0,0H8.5l0,0c-0.6,0-1.1,0.6-1.1,1.2l0,0v0.2c0.4,0.2,0.8,0.4,1.1,0.7v-1
		c0,0,0-0.1,0.1-0.1l0,0h7.1l0,0c0,0,0.1,0,0.1,0.1l0,0v4.4h-5.4c0,0.3,0.1,0.6,0.1,0.9c0,0.1,0,0.2,0,0.2h7.2
		c0.6,0,1.2-0.5,1.2-1.2V2.8C18.8,2.6,18.7,2.4,18.5,2.3z M14.4,3.7L14.4,3.7c-0.1,0.1-0.2,0.1-0.2,0.1l0,0l0,0h-3.9
		c-0.2,0-0.3-0.1-0.3-0.1V1h4.4V3.7z"/>
	<rect x="12.6" y="1.3" class="st0" width="1.1" height="2.3"/>
</g>
</svg>
