<svg width="32px" height="26px" viewBox="0 0 32 26" version="1.1" xmlns="http://www.w3.org/2000/svg" xmlns:xlink="http://www.w3.org/1999/xlink">
    <title>autosave-error</title>
    <g transform="translate(14.222222, 8.888889)" id="ico/autosave_on-copy-4">
        <path d="M8.88888889,9.44444445 C8.48,9.44444445 8.14833333,9.11277778 8.14833333,8.70388889 L8.14833333,8.70388889 L8.14833333,4.25944443 C8.14833333,3.85055553 8.48,3.51888887 8.88888889,3.51888887 C9.29777778,3.51888887 9.62944445,3.85055553 9.62944445,4.25944443 L9.62944445,4.25944443 L9.62944445,8.70388889 C9.62944445,9.11277778 9.29777778,9.44444445 8.88888889,9.44444445 L8.88888889,9.44444445 L8.88888889,9.44444445 Z M8.88888889,10.5555556 C7.86611111,10.5555556 7.03722221,11.3844445 7.03722221,12.4072222 C7.03722221,13.43 7.86611111,14.2588889 8.88888889,14.2588889 C9.91166667,14.2588889 10.7405556,13.43 10.7405556,12.4072222 L10.7405556,12.4072222 C10.7405556,11.3844445 9.91166667,10.5555556 8.88888889,10.5555556 L8.88888889,10.5555556 L8.88888889,10.5555556 Z M17.3316667,15.8927778 C17.6094445,15.4305556 17.7738889,14.8733334 17.7738889,14.2772222 C17.7738889,13.8011111 17.6688889,13.3488889 17.4811111,12.9438889 L17.4894445,12.9633334 C17.4833334,12.9538889 17.4772223,12.9433334 17.4716667,12.9316667 L17.4711111,12.93 L11.4822222,2.47833331 C10.9794445,1.54722219 10.0111111,0.924999967 8.89722222,0.924999967 C7.78333333,0.924999967 6.81444444,1.54722219 6.31944443,2.46277775 L6.31166666,2.47833331 L0.309999964,12.9211111 C0.309999964,12.9322222 0.297222186,12.9416667 0.291666631,12.9544445 C0.108333297,13.3422222 0.00111107408,13.7961111 0.00111107408,14.2755556 C0.00111107408,14.8722222 0.167222186,15.43 0.454999965,15.9055556 L0.447222187,15.8916667 C0.817777744,16.5027778 1.38611108,16.8527778 1.99722219,16.8527778 L15.7822223,16.8527778 C16.3916667,16.8527778 16.9561111,16.5027778 17.3322223,15.8933334 L17.3316667,15.8927778 Z M7.59277777,3.21666664 C7.83555555,2.7372222 8.32444444,2.41388886 8.88888889,2.41388886 C9.45333334,2.41388886 9.94222223,2.73666664 10.1811111,3.20833331 L10.185,3.21666664 L16.1738889,13.6388889 C16.2516667,13.8261111 16.2966667,14.0433334 16.2966667,14.2716667 C16.2966667,14.5844445 16.2116667,14.8772222 16.0638889,15.1283334 L16.0683334,15.1205556 C15.9738889,15.2744445 15.8611111,15.3744445 15.7811111,15.3744445 L1.99611108,15.3744445 C1.91666664,15.3744445 1.81111108,15.2744445 1.70888886,15.1205556 C1.56555553,14.8777778 1.48111108,14.5861111 1.48111108,14.2738889 C1.48111108,14.045 1.52666664,13.8266667 1.60944441,13.6277778 L1.60555553,13.6388889 L7.59277777,3.21666664 Z" id="warning"></path>
    </g>
    <path d="M10.9135802,0 C14.8435059,0 18.2882767,2.03019932 20.2098673,5.07605732 C20.7335661,4.97534423 21.2741182,4.92307692 21.8271605,4.92307692 C24.3493382,4.92307692 26.6117355,6.01016502 28.1506186,7.73109913 C28.8484065,8.51143579 29.3974355,9.42209492 29.7544722,10.420821 C28.9465871,9.95662066 28.0780232,9.58697346 27.16324,9.32718919 C27.0571451,9.18616165 26.9442813,9.04907138 26.8254008,8.91612723 C25.5758465,7.51874974 23.7729891,6.7008547 21.8271605,6.7008547 C21.3911697,6.7008547 20.9629406,6.74158656 20.5456017,6.82184546 C19.8268505,6.9600693 19.0968405,6.64365879 18.706306,6.02463379 C17.0556539,3.4082326 14.132354,1.77777778 10.9135802,1.77777778 C5.85902557,1.77777778 1.77777778,5.76668965 1.77777778,10.6666667 C1.77777778,15.3131042 5.45497005,19.1595389 10.1343955,19.5259181 L10.5266103,19.5483366 L10.7644444,19.5555556 L12.4781012,19.555857 C12.4557993,19.8491289 12.4444444,20.1454607 12.4444444,20.4444444 C12.4444444,20.7437691 12.4558252,21.0404357 12.4781775,21.3340351 L10.6666667,21.3333333 L10.5044333,21.325976 C4.66660124,21.1156831 0,16.4238168 0,10.6666667 C0,4.77562934 4.88617631,0 10.9135802,0 Z" id="Combined-Shape" fill-rule="nonzero"></path>
</svg>