<svg xmlns="http://www.w3.org/2000/svg" viewBox="0 0 95.66 96"><g id="Warstwa_2" data-name="Warstwa 2"><g id="_253_autosave" data-name="253 autosave"><path d="M69,96h0c-17.47-.3-26.61-13.81-26.61-27S51.48,42.3,69,42h.1c17.47.3,26.61,13.81,26.61,27S86.52,95.7,69.05,96Zm0-48c-14.19.27-20.66,11.07-20.66,21S54.81,89.73,69,90c14.19-.27,20.66-11.07,20.66-21S83.19,48.27,69,48Z"/><path d="M67.7,81.76a3,3,0,0,1-2.17-.94l-9.17-9.64a3,3,0,1,1,4.35-4.13l6.66,7L78.09,59A3,3,0,1,1,83,62.5l-12.83,18a3,3,0,0,1-2.23,1.25Z"/><path d="M57.27,30.67H32.6a7.94,7.94,0,0,1-7.93-7.94V3a3,3,0,0,1,6,0V22.73a1.93,1.93,0,0,0,1.93,1.94H57.27a1.94,1.94,0,0,0,1.93-1.94V3a3,3,0,0,1,6,0V22.73A7.94,7.94,0,0,1,57.27,30.67Z"/><path d="M33.29,80H18a3,3,0,0,1-3-3V47.86A7.92,7.92,0,0,1,23,40H44a3,3,0,0,1,0,6H23a1.91,1.91,0,0,0-2,1.86V74H33.29a3,3,0,0,1,0,6Z"/><path d="M33,80H7.93A7.94,7.94,0,0,1,0,72.07V24.35a12.78,12.78,0,0,1,3.77-9.09L15.25,3.77A12.78,12.78,0,0,1,24.35,0H72.07A7.94,7.94,0,0,1,80,7.93V33a3,3,0,0,1-6,0V7.93A1.94,1.94,0,0,0,72.07,6H24.35A6.79,6.79,0,0,0,19.5,8L8,19.5a6.81,6.81,0,0,0-2,4.86V72.07A1.94,1.94,0,0,0,7.93,74H33a3,3,0,0,1,0,6Z"/></g></g></svg>