<?xml version="1.0" encoding="UTF-8"?>
<svg width="32px" height="26px" viewBox="0 0 32 26" version="1.1" xmlns="http://www.w3.org/2000/svg" xmlns:xlink="http://www.w3.org/1999/xlink">
    <title>autosave-saving</title>
    <g transform="translate(14.222222, 8.888889)" id="ico/autosave_on-copy-2">
        <path d="M17.2158923,4.6222222 L16.3307744,7.99084175 C16.2483502,8.30222222 15.969293,8.52848485 15.6379798,8.52956229 L15.6379798,8.52956229 C15.6369024,8.52956229 15.6363637,8.52956229 15.6352862,8.52956229 C15.5410101,8.52956229 15.4515825,8.51124579 15.3691583,8.4773064 L15.3740068,8.47892256 L12.5241751,7.35676767 C12.2542761,7.24848484 12.0673401,6.98936026 12.0673401,6.6860606 C12.0673401,6.28794612 12.3900337,5.96525251 12.7881482,5.96525251 C12.882963,5.96525251 12.9740068,5.98356901 13.0569697,6.01696969 L13.0521212,6.01535352 L14.4312458,6.55407406 C13.4685522,4.10666665 11.186532,2.42370368 8.64,2.42370368 C5.78639729,2.42370368 3.28888887,4.49400672 2.5632323,7.46074073 C2.47973061,7.77158249 2.20013465,7.99676767 1.8682828,7.99676767 C1.47178448,7.99676767 1.15016832,7.67515151 1.15016832,7.27865319 C1.15016832,7.22208754 1.15663296,7.16713804 1.16902354,7.11434343 L1.1679461,7.11919191 C2.04983162,3.50060604 5.12215487,0.986935994 8.64,0.986935994 C11.5744108,0.986935994 14.2157576,2.78249156 15.5124579,5.45454544 L15.826532,4.25696968 C15.8992593,3.93158247 16.1858586,3.69185183 16.5284849,3.69185183 C16.9249832,3.69185183 17.2465994,4.01346799 17.2465994,4.40996631 C17.2465994,4.4832323 17.235825,4.55434342 17.2153536,4.62114476 L17.2169697,4.61629628 L17.2158923,4.6222222 Z M15.5404714,9.81548822 C15.4882155,9.80202021 15.4284175,9.7939394 15.3670034,9.7939394 C15.0313805,9.7939394 14.7496297,10.0239731 14.6709765,10.3348148 L14.669899,10.3396633 C13.9388552,13.2918519 11.442963,15.3535354 8.60013468,15.3535354 C6.05360268,15.3535354 3.77158247,13.6711111 2.80888886,11.223165 L4.18801345,11.7618855 C4.26612793,11.79367 4.3571717,11.8119865 4.45198651,11.8119865 C4.84902355,11.8119865 5.17117844,11.4898317 5.17117844,11.0927946 C5.17117844,10.7905724 4.98478113,10.5319865 4.72080806,10.4258586 L4.71595958,10.4242424 L1.86612792,9.2983165 C1.78855216,9.26707071 1.69858583,9.24875421 1.60430973,9.24875421 C1.27191916,9.24875421 0.991784479,9.47501684 0.910437677,9.78154883 L0.909360236,9.78639731 L0.0242423873,13.1550169 C0.00915821216,13.2099663 0.000538683504,13.2724579 0.000538683504,13.3376431 C0.000538683504,13.6705724 0.227340031,13.9507071 0.53441074,14.0320539 L0.539259224,14.0331313 C0.593131279,14.0476768 0.655084141,14.0562963 0.718653165,14.0562963 L0.718653165,14.0562963 C1.05158246,14.0562963 1.33117842,13.829495 1.41252522,13.5224243 L1.41360266,13.5175758 L1.72767674,12.32 C3.02437708,14.9936701 5.66572389,16.7897643 8.60013468,16.7897643 C12.1055892,16.7897643 15.1741414,14.2755556 16.0651852,10.6844445 C16.0786532,10.6327273 16.0861953,10.573468 16.0861953,10.5125926 C16.0861953,10.1775084 15.8567004,9.89575758 15.5458586,9.81656566 L15.5410101,9.81548822 L15.5404714,9.81548822 Z" id="review"></path>
    </g>
    <path d="M10.9135802,0 C14.8435059,0 18.2882767,2.03019932 20.2098673,5.07605732 C20.7335661,4.97534423 21.2741182,4.92307692 21.8271605,4.92307692 C24.3493382,4.92307692 26.6117355,6.01016502 28.1506186,7.73109913 C28.8484065,8.51143579 29.3974355,9.42209492 29.7544722,10.420821 C28.9465871,9.95662066 28.0780232,9.58697346 27.16324,9.32718919 C27.0571451,9.18616165 26.9442813,9.04907138 26.8254008,8.91612723 C25.5758465,7.51874974 23.7729891,6.7008547 21.8271605,6.7008547 C21.3911697,6.7008547 20.9629406,6.74158656 20.5456017,6.82184546 C19.8268505,6.9600693 19.0968405,6.64365879 18.706306,6.02463379 C17.0556539,3.4082326 14.132354,1.77777778 10.9135802,1.77777778 C5.85902557,1.77777778 1.77777778,5.76668965 1.77777778,10.6666667 C1.77777778,15.3131042 5.45497005,19.1595389 10.1343955,19.5259181 L10.5266103,19.5483366 L10.7644444,19.5555556 L12.4781012,19.555857 C12.4557993,19.8491289 12.4444444,20.1454607 12.4444444,20.4444444 C12.4444444,20.7437691 12.4558252,21.0404357 12.4781775,21.3340351 L10.6666667,21.3333333 L10.5044333,21.325976 C4.66660124,21.1156831 0,16.4238168 0,10.6666667 C0,4.77562934 4.88617631,0 10.9135802,0 Z" id="Combined-Shape" fill-rule="nonzero"></path>
</svg>