<?xml version="1.0" encoding="UTF-8"?>
<svg width="32px" height="28px" viewBox="0 0 32 28" version="1.1" xmlns="http://www.w3.org/2000/svg" xmlns:xlink="http://www.w3.org/1999/xlink">
    <title>autosave-saved</title>
    <g transform="translate(14.933333, 11.200000)" id="ico/autosave_on">
        <path d="M8.492925,11.55 C8.3055,11.55 8.1354,11.475975 8.009925,11.35575 L3.71699998,7.253925 C3.52387882,7.08432214 3.43926777,6.82250545 3.49661018,6.57196053 C3.55395259,6.3214156 3.74401986,6.12246475 3.99168605,6.05374524 C4.23935224,5.98502573 4.50475833,6.05759717 4.68299998,6.24277499 L8.47875,9.86895001 L15.601425,2.65912498 C15.7771729,2.48093876 16.0346319,2.41004828 16.2768196,2.47315729 C16.5190073,2.53626631 16.7091297,2.72378707 16.7755696,2.9650823 C16.8420094,3.20637754 16.7746729,3.46478877 16.598925,3.64297498 L8.991675,11.34315 C8.8602777,11.4766382 8.68075809,11.5517375 8.49345,11.5515753 L8.492925,11.5515753 L8.492925,11.55 Z M16.8,8.4 C16.8,7.723275 16.720725,7.06544999 16.571625,6.43492499 L16.583175,6.49267499 C16.5449304,6.23093086 16.362372,6.01311788 16.111339,5.92972074 C15.860306,5.84632359 15.5837023,5.91159565 15.3964356,6.09842134 C15.209169,6.28524703 15.143245,6.56169608 15.22605,6.81292499 L15.225525,6.80924999 C15.343125,7.289625 15.41085,7.8414 15.41085,8.408925 C15.41085,12.275025 12.2766,15.40875 8.411025,15.40875 C4.54544998,15.40875 1.41119997,12.2745 1.41119997,8.408925 C1.41119997,4.54282498 4.54544998,1.40909997 8.411025,1.40909997 C10.0389041,1.40661876 11.6163345,1.97384734 12.86985,3.01244998 L12.8583,3.00299998 C13.1564373,3.23847521 13.5879936,3.1930774 13.830605,2.90071779 C14.0732164,2.60835819 14.0382611,2.1758309 13.75185,1.92622497 L13.750275,1.92517497 C12.2469405,0.677864196 10.3539278,-0.00298877875 8.400525,0.00103209989 C3.76109998,0.00103209989 0.000524965002,3.76162498 0.000524965002,8.40105 C0.000524965002,13.040475 3.76109998,16.80105 8.400525,16.80105 C13.03995,16.80105 16.800525,13.040475 16.800525,8.40105 L16.800525,8.4 L16.8,8.4 Z" id="approved"></path>
    </g>
    <path d="M11.5555556,5.68434189e-14 C15.7166533,5.68434189e-14 19.3640577,2.09364305 21.398683,5.23468411 C21.9531876,5.13082374 22.5255369,5.07692308 23.1111111,5.07692308 C25.7816522,5.07692308 28.1771317,6.19798267 29.8065374,7.97269598 C30.7109131,8.95772243 31.3792899,10.1441153 31.7277119,11.4519551 C30.9700969,11.0403703 30.1641429,10.7077093 29.3200453,10.4651962 C29.0698931,10.0120486 28.762569,9.58599278 28.4033656,9.19475621 C27.0803081,7.75371067 25.1714002,6.91025641 23.1111111,6.91025641 C22.6494738,6.91025641 22.1960548,6.95226114 21.7541665,7.03502813 C20.9931358,7.17757146 20.2201841,6.85127313 19.806677,6.2129036 C18.0589277,3.51473987 14.9636689,1.83333333 11.5555556,1.83333333 C6.20367413,1.83333333 1.88235294,5.9468987 1.88235294,11 C1.88235294,15.7916387 5.77585064,19.7582745 10.7305364,20.1361031 L11.1458227,20.1592221 L11.3976471,20.1666667 L14.1392679,20.1659798 C14.0475661,20.7639234 14,21.3764069 14,22 L11.2941176,22 L11.1223411,21.9924128 C4.94110719,21.7755482 0,16.9370611 0,11 C0,4.92486775 5.17359845,5.68434189e-14 11.5555556,5.68434189e-14 Z" id="Combined-Shape" fill-rule="nonzero"></path>
</svg>