<?xml version="1.0" encoding="UTF-8"?>
<svg width="32px" height="22px" viewBox="0 0 32 22" version="1.1" xmlns="http://www.w3.org/2000/svg" xmlns:xlink="http://www.w3.org/1999/xlink">
    <title>autosave-on</title>
    <path d="M11.5555556,6 C15.7162122,6 19.3632843,8.09319918 21.3980359,11.2336852 C21.9508817,11.1310411 22.5243572,11.0769231 23.1111111,11.0769231 C28.0203089,11.0769231 32,14.8652829 32,19.5384615 C32,24.2116402 28.0203089,28 23.1111111,28 L22.588,27.984 L22.5882353,28 L11.2941176,28 L11.10181,27.9916753 C4.93016949,27.7648304 0,22.9304862 0,17 C0,10.9248678 5.17359845,6 11.5555556,6 Z M11.5555556,8 C6.25672871,8 2,12.0520783 2,17 C2,21.6740657 5.80631353,25.5689527 10.6800668,25.9654861 L11.1259997,25.9918216 L11.416,26 L22.35,26 L22.4241388,25.9905201 L22.6491439,25.9849349 L23.1111111,26 C26.9371786,26 30,23.0844297 30,19.5384615 C30,15.9924934 26.9371786,13.0769231 23.1111111,13.0769231 C22.6536065,13.0769231 22.2022523,13.1185498 21.7631265,13.2000801 C20.9668138,13.3479274 20.1599458,13.0009163 19.7195473,12.3211943 C17.9974864,9.66332275 14.935137,8 11.5555556,8 Z" id="Combined-Shape"></path>
</svg>