<svg width="32px" height="27px" viewBox="0 0 32 27" version="1.1" xmlns="http://www.w3.org/2000/svg" xmlns:xlink="http://www.w3.org/1999/xlink">
    <title>autosave-off</title>
    <g transform="translate(14.222222, 8.888889)" fill="#131C26" id="ico/autosave_on-copy-3">
        <path d="M8.88888889,17.7777778 C3.97944442,17.7777778 -3.70370375e-08,13.7983334 -3.70370375e-08,8.88888889 C-3.70370375e-08,3.97944442 3.97944442,-3.70370375e-08 8.88888889,-3.70370375e-08 C13.7983334,-3.70370375e-08 17.7777778,3.97944442 17.7777778,8.88888889 L17.7777778,8.88888889 C17.7727778,13.7961111 13.7961111,17.7727778 8.88944444,17.7777778 L8.88888889,17.7777778 Z M8.88888889,1.48166664 C4.79777776,1.48166664 1.48166664,4.79833332 1.48166664,8.88888889 C1.48166664,12.9794445 4.79833332,16.2961111 8.88888889,16.2961111 C12.98,16.2961111 16.2961111,12.9794445 16.2961111,8.88888889 L16.2961111,8.88888889 C16.2961111,4.79777776 12.9794445,1.48166664 8.88888889,1.48166664 L8.88888889,1.48166664 Z M9.93722223,8.88888889 L12.3761111,6.44999999 C12.51,6.3161111 12.5933333,6.13055554 12.5933333,5.9261111 C12.5933333,5.51666665 12.2616667,5.18499998 11.8522222,5.18499998 C11.6477778,5.18499998 11.4622222,5.26777776 11.3283333,5.40222221 L11.3283333,5.40222221 L8.88944444,7.84111111 L6.45055555,5.40222221 C6.31666666,5.26833332 6.1311111,5.18499998 5.92666665,5.18499998 C5.51722221,5.18499998 5.18555554,5.51666665 5.18555554,5.9261111 C5.18555554,6.13055554 5.26833332,6.3161111 5.40277776,6.44999999 L5.40277776,6.44999999 L7.84166666,8.88888889 L5.40277776,11.3277778 C5.26888887,11.4616667 5.18555554,11.6472222 5.18555554,11.8516667 C5.18555554,12.2611111 5.51722221,12.5927778 5.92666665,12.5927778 C6.1311111,12.5927778 6.31666666,12.51 6.45055555,12.3755556 L8.88944444,9.93666667 L11.3283333,12.3755556 C11.4622222,12.5094445 11.6477778,12.5927778 11.8522222,12.5927778 C12.2616667,12.5927778 12.5933333,12.2611111 12.5933333,11.8516667 C12.5933333,11.6472222 12.5105556,11.4616667 12.3761111,11.3277778 L12.3761111,11.3277778 L9.93722223,8.88888889 Z" id="circle-close"></path>
    </g>
    <path d="M10.9135802,0.5 C14.6639089,0.5 17.9528109,2.43553877 19.7869907,5.34284445 C20.7974154,5.47222726 21.3064116,5.42307692 21.8271605,5.42307692 C24.2003182,5.42307692 26.3297229,6.44488953 27.7779011,8.06438829 C28.1289533,8.45697017 28.4399566,8.88465988 28.7044713,9.34138826 C28.300147,9.16991113 27.8846239,9.01984808 27.4592801,8.89263168 C25.8553851,7.0812585 23.9185311,6.2008547 21.8271605,6.2008547 C21.3590406,6.2008547 20.8992648,6.24467017 20.4511764,6.33084254 C20.1928752,6.38051674 19.9325509,6.34849882 19.7017149,6.24844683 C19.4708788,6.14839484 19.269531,5.98030877 19.1291826,5.75784666 C17.3889569,2.999465 14.3079903,1.27777778 10.9135802,1.27777778 C8.25199461,1.27777778 5.84702545,2.32805806 4.10608053,4.02195042 C2.35694604,5.72381099 1.27777778,8.07500092 1.27777778,10.6666667 C1.27777778,13.1150733 2.24291451,15.3538436 3.82491511,17.0309984 C5.41580137,18.7175732 7.63066257,19.8356111 10.1118775,20.0256713 L10.1118775,20.0256713 L11.9508074,20.0491621 L10.675925,20.8333369 C7.8160733,20.727378 5.27262058,19.5595227 3.44315946,17.7300615 C1.61430162,15.9012037 0.5,13.4112535 0.5,10.6666667 C0.5,7.86050376 1.66465916,5.32054507 3.54599893,3.48176955 C5.43152742,1.63890008 8.0366174,0.5 10.9135802,0.5 Z" id="Combined-Shape" stroke="#131C26"></path>
</svg>