<svg xmlns="http://www.w3.org/2000/svg" width="32" height="32"><path d="M31 18.817H28.279a.279.279 0 0 1-.279-.259V10.037a.29.29 0 0 1 .288-.257H31a1 1 0 0 0 0-2h-2.667l-.065-.001a2.27 2.27 0 0 0-1.713.778l-.002.003-5.82-2.14a4.037 4.037 0 0 0-1.419-.252c-.677 0-1.317.163-1.881.453l.023-.011-3.213 1.62a3.776 3.776 0 0 0-2.253-.743h-.005c-.507 0-.989.102-1.429.286l.024-.009-4.63 1.837a2.29 2.29 0 0 0-2.23-1.82H1a1 1 0 0 0 0 2h2.715c.148 0 .269.112.285.256v8.501a.986.986 0 0 0-.048.145l-.002.008a.276.276 0 0 1-.233.127h-.011.001H1a1 1 0 0 0 0 2h2.72a2.279 2.279 0 0 0 1.783-.869l.004-.005h2.217l4.373 4.92a2.779 2.779 0 0 0 1.894.963l.009.001H14.229c.688 0 1.318-.252 1.801-.67l-.004.003c.484-.419.821-.996.931-1.65l.002-.016.078.001c.454 0 .886-.096 1.275-.269l-.02.008a3.216 3.216 0 0 0 1.712-1.742l.008-.021q.04-.1.07-.2h.07a1.33 1.33 0 0 0 .191 0h-.004l6.213-1.19a2.278 2.278 0 0 0 1.706.773h2.74a1 1 0 0 0 0-2zm-11.087.436h-.247l-1.667-1.667a1 1 0 0 0-1.402 1.415l-.001-.002 1.607 1.613c0 .03 0 .063-.03.097a1.212 1.212 0 0 1-1.575.664l.008.003-.043-.02-1.16-1.16a1 1 0 0 0-1.402 1.418L14 21.613l1 1v.411a.784.784 0 0 1-.276.598l-.001.001a.75.75 0 0 1-.572.19h.003a.782.782 0 0 1-.549-.282l-.001-.001-4.667-5.267a.998.998 0 0 0-.745-.333H6.001v-6.197l5.31-2.13c.197-.082.426-.13.666-.13h.213a2.55 2.55 0 0 0 2.745 4.081l-.018.005 2.023-.667 3.727 4.817c.119.16.191.362.193.579v.001a.963.963 0 0 1-.946.963h-.001zM26 18.12l-3.167.607c.023-.132.036-.284.037-.44a2.985 2.985 0 0 0-.609-1.794l.005.007-3.313-4.263.583-.193a1 1 0 1 0-.637-1.898l.007-.002-4.623 1.523a.536.536 0 0 1-.665-.286l-.001-.003a.56.56 0 0 1 .247-.732l.003-.001 4.48-2.26a2.118 2.118 0 0 1 1.698-.092l-.015-.005L26 10.485z"/></svg>