<svg xmlns="http://www.w3.org/2000/svg" viewBox="0 0 96 96"><path d="M92 7a4 4 0 0 0-4 4v6h-7L65.8 9.43A4 4 0 0 0 64 9H48a4 4 0 0 0-2.84 1.17L38.34 17H8v-6a4 4 0 0 0-8 0v52.25a4 4 0 0 0 8 0v-6h2.64a8 8 0 0 0 2.3 6.42l17.5 17.59a8 8 0 0 0 9.25 1.5l3.37 3.45A9.39 9.39 0 0 0 49.75 89a9.08 9.08 0 0 0 4-1 10.85 10.85 0 0 0 5.7-6.87.92.92 0 0 1 .57-.46 11 11 0 0 0 7.43-7.57.9.9 0 0 1 .57-.47 11 11 0 0 0 7.43-7.57.73.73 0 0 1 .43-.5 7.81 7.81 0 0 0 4.66-4.47 8 8 0 0 0 .53-2.86H88v6a4 4 0 0 0 8 0V11a4 4 0 0 0-4-4zM39.63 72l-2.39 2.41-.05.06-1 1-17.58-17.53 3.52-3.55L39.64 72zM73 57.14a8.69 8.69 0 0 0-5.23 5.78 3.05 3.05 0 0 1-2.27 2.17A8.78 8.78 0 0 0 59.81 71a3.05 3.05 0 0 1-2.27 2.17A8.78 8.78 0 0 0 51.81 79a2.89 2.89 0 0 1-1.6 1.9 1.28 1.28 0 0 1-1.43-.35l-3.17-3.23a8 8 0 0 0-.31-11L27.8 48.74a8 8 0 0 0-11.33 0l-.47.46H8V25h22.38l-5.22 5.24a4.1 4.1 0 0 0-1.1 2.12c-.13.72-1.15 7.19 2.93 11.26 1.75 1.74 5 3.59 10.73 2.54a4 4 0 0 0 2.12-1.11L51 33.87l21.67 21.78a5 5 0 0 1 .44 1.46zm4.61-7.83L53.84 25.38a4 4 0 0 0-5.68 0l-13 13.11a3.3 3.3 0 0 1-2.51-.49 4.76 4.76 0 0 1-.79-3.1L49.66 17h13.39l15.15 7.62A4 4 0 0 0 80 25h8v24.23z" fill="#333"/></svg>