<svg version="1.1" xmlns="http://www.w3.org/2000/svg" width="32" height="32" viewBox="0 0 32 32">
<title>b2b</title>
<path fill="#333" d="M30.667 2.333c-0.736 0-1.333 0.597-1.333 1.333v0 2h-2.333l-5.067-2.523c-0.175-0.090-0.381-0.143-0.6-0.143h-5.333c-0.001 0-0.003 0-0.004 0-0.368 0-0.701 0.149-0.942 0.39v0l-2.273 2.277h-10.113v-2c0-0.736-0.597-1.333-1.333-1.333s-1.333 0.597-1.333 1.333v0 17.417c0 0.736 0.597 1.333 1.333 1.333s1.333-0.597 1.333-1.333v0-2h0.88c-0.008 0.077-0.012 0.166-0.012 0.256 0 0.735 0.298 1.401 0.779 1.884l-0-0 5.833 5.863c0.483 0.484 1.15 0.783 1.888 0.783 0.436 0 0.847-0.105 1.211-0.29l-0.015 0.007 1.123 1.15c0.568 0.574 1.356 0.93 2.226 0.93 0.001 0 0.003 0 0.004 0h-0c0.488-0.008 0.946-0.13 1.35-0.341l-0.017 0.008c0.925-0.459 1.614-1.276 1.894-2.265l0.006-0.025c0.040-0.075 0.107-0.13 0.188-0.153l0.002-0.001c1.204-0.37 2.129-1.31 2.47-2.497l0.006-0.026c0.038-0.076 0.106-0.133 0.188-0.156l0.002-0c1.204-0.37 2.129-1.31 2.47-2.497l0.006-0.026c0.019-0.076 0.072-0.137 0.142-0.166l0.002-0.001c0.712-0.256 1.269-0.792 1.547-1.473l0.006-0.017c0.112-0.283 0.177-0.611 0.177-0.953v-0h2.31v2c0 0.736 0.597 1.333 1.333 1.333s1.333-0.597 1.333-1.333v0-17.41c0-0.736-0.597-1.333-1.333-1.333v0zM13.21 24l-0.797 0.803-0.017 0.020-0.333 0.333-5.86-5.843 1.173-1.183 5.837 5.87zM24.333 19.047c-0.85 0.336-1.491 1.038-1.738 1.906l-0.005 0.020c-0.101 0.362-0.389 0.638-0.75 0.722l-0.007 0.001c-0.919 0.309-1.622 1.036-1.891 1.949l-0.005 0.021c-0.101 0.362-0.389 0.638-0.75 0.722l-0.007 0.001c-0.919 0.3-1.625 1.018-1.904 1.923l-0.006 0.021c-0.076 0.284-0.271 0.512-0.527 0.631l-0.006 0.002c-0.046 0.019-0.099 0.029-0.155 0.029-0.128 0-0.243-0.056-0.321-0.145l-0-0-1.057-1.077c0.422-0.47 0.68-1.094 0.68-1.779 0-0.738-0.299-1.405-0.783-1.888l-0-0-5.833-5.86c-0.483-0.484-1.151-0.784-1.888-0.784s-1.405 0.3-1.888 0.784l-0 0-0.157 0.153h-2.667v-8.067h7.46l-1.74 1.747c-0.184 0.188-0.314 0.429-0.365 0.698l-0.001 0.009c-0.043 0.24-0.383 2.397 0.977 3.753 0.583 0.58 1.667 1.197 3.577 0.847 0.278-0.051 0.52-0.183 0.707-0.37l3.72-3.727 7.223 7.26c0.069 0.141 0.121 0.305 0.146 0.478l0.001 0.009zM25.87 16.437l-7.923-7.977c-0.242-0.244-0.577-0.394-0.947-0.394s-0.705 0.151-0.947 0.394l-4.333 4.37c-0.067 0.015-0.145 0.023-0.224 0.023-0.228 0-0.441-0.070-0.617-0.189l0.004 0.002c-0.169-0.248-0.27-0.555-0.27-0.886 0-0.052 0.002-0.103 0.007-0.154l-0.001 0.006 5.933-5.967h4.463l5.050 2.54c0.166 0.080 0.362 0.127 0.568 0.127 0.011 0 0.022-0 0.034-0l-0.002 0h2.667v8.077z"></path>
</svg>
