<svg version="1.1" xmlns="http://www.w3.org/2000/svg" width="32" height="32" viewBox="0 0 32 32">
<title>back</title>
<path fill="#333" d="M26.667 14.667h-18.85l5.183-5.777c0.21-0.235 0.339-0.548 0.339-0.89 0-0.739-0.599-1.339-1.339-1.339-0.397 0-0.754 0.173-0.999 0.447l-0.001 0.001-6.27 7c-0.453 0.491-0.73 1.149-0.73 1.873 0 0.006 0 0.012 0 0.018v-0.001c-0 0.006-0 0.014-0 0.021 0 0.719 0.276 1.374 0.728 1.864l-0.002-0.002 6.273 7.007c0.246 0.276 0.603 0.449 1 0.449 0.739 0 1.339-0.599 1.339-1.339 0-0.342-0.128-0.655-0.34-0.891l0.001 0.001-5.19-5.777h18.857c0.736 0 1.333-0.597 1.333-1.333s-0.597-1.333-1.333-1.333v0z"></path>
</svg>
