<svg version="1.1" xmlns="http://www.w3.org/2000/svg" width="32" height="32" viewBox="0 0 32 32">
<title>back-current-date</title>
<path fill="#333" d="M32 26.507c0.002 0.055 0.003 0.12 0.003 0.185 0 2.096-1.276 3.894-3.093 4.659l-0.033 0.012c-0.846 0.379-1.831 0.611-2.867 0.636l-0.009 0h-1.333c-0.736 0-1.333-0.597-1.333-1.333s0.597-1.333 1.333-1.333v0h1.333c0.55 0 3.333-0.17 3.333-2.827 0-2.477-3.197-2.507-3.333-2.507h-9.127l2.067 2.053c0.243 0.242 0.394 0.577 0.394 0.947 0 0.737-0.597 1.334-1.334 1.334-0.367 0-0.699-0.148-0.94-0.387l0 0-3.727-3.72c-0.403-0.398-0.652-0.951-0.652-1.562s0.249-1.163 0.652-1.561l0-0 3.727-3.717c0.241-0.239 0.573-0.387 0.94-0.387 0.737 0 1.334 0.597 1.334 1.334 0 0.37-0.151 0.705-0.394 0.947l-2.070 2.053h9.13c1.028 0.024 2.001 0.235 2.894 0.6l-0.054-0.020c2.037 0.84 3.16 2.47 3.16 4.593zM26.627 1h-1.293c-0.736 0-1.333 0.597-1.333 1.333s0.597 1.333 1.333 1.333v0h1.287c0.029 0.022 0.048 0.057 0.048 0.096 0 0.005-0 0.010-0.001 0.015l0-0.001v6.557h-24v-6.6c-0-0.001-0-0.002-0-0.003 0-0.035 0.028-0.063 0.063-0.063 0 0 0 0 0 0v0h1.27c0.736 0 1.333-0.597 1.333-1.333s-0.597-1.333-1.333-1.333v0h-1.27c-1.508 0.002-2.73 1.225-2.73 2.733 0 0 0 0 0 0v0 22.523c0 0 0 0 0 0 0 1.513 1.224 2.74 2.736 2.743h7.264c0.736 0 1.333-0.597 1.333-1.333s-0.597-1.333-1.333-1.333v0h-7.263c-0.039-0.002-0.070-0.034-0.070-0.073 0-0.001 0-0.002 0-0.004v0-13.257h24c0 0.736 0.597 1.333 1.333 1.333s1.333-0.597 1.333-1.333v0-9.223c0-0.009 0-0.020 0-0.030 0-1.503-1.207-2.724-2.705-2.746l-0.002-0zM18 3.667h-6.667c-0.736 0-1.333-0.597-1.333-1.333s0.597-1.333 1.333-1.333v0h6.667c0.736 0 1.333 0.597 1.333 1.333s-0.597 1.333-1.333 1.333v0zM24 6.667c0 0.002 0 0.003 0 0.005 0 1.473-1.194 2.667-2.667 2.667s-2.667-1.194-2.667-2.667c0-0.97 0.517-1.818 1.291-2.285l0.012-0.007v-3.047c0-0.736 0.597-1.333 1.333-1.333s1.333 0.597 1.333 1.333v0 3c0.82 0.466 1.363 1.332 1.363 2.326 0 0.002 0 0.005 0 0.007v-0zM10.333 6.667c0 0.002 0 0.003 0 0.005 0 1.473-1.194 2.667-2.667 2.667s-2.667-1.194-2.667-2.667c0-0.97 0.518-1.818 1.291-2.285l0.012-0.007v-3.047c0-0.736 0.597-1.333 1.333-1.333s1.333 0.597 1.333 1.333v0 3c0.819 0.466 1.363 1.332 1.363 2.326 0 0.002 0 0.005 0 0.007v-0z"></path>
</svg>
