<svg xmlns="http://www.w3.org/2000/svg" width="32" height="32"><path d="M30.333 4H23.69V1a1 1 0 0 0-2 0v3H10.31V1a1 1 0 0 0-2 0v3H1.667a1 1 0 0 0-1 1v26a1 1 0 0 0 1 1h28.667a1 1 0 0 0 1-1V5a1 1 0 0 0-1-1zM8.31 6v2a1 1 0 0 0 2 0V6h11.38v2a1 1 0 0 0 2 0V6h5.643v6H2.666V6zM2.667 30V14h26.667v16zm19.666-8a1 1 0 0 1-1 1h-8.53l1.963 2.36a1 1 0 1 1-1.532 1.282l-.002-.003-3.333-4s-.02-.03-.033-.043-.033-.047-.047-.07-.033-.06-.05-.09-.023-.05-.033-.073-.023-.073-.033-.11a.46.46 0 0 1-.016-.064v-.003a.79.79 0 0 1-.02-.181v-.006c0-.064.007-.126.021-.186l-.001.006a.447.447 0 0 1 .018-.07l-.001.003c0-.037.02-.073.033-.11s.023-.047.033-.073.03-.06.05-.09.03-.047.047-.07.02-.03.033-.043l3.333-4a1 1 0 0 1 1.532 1.282l.002-.003-1.963 2.353h8.53a1 1 0 0 1 1 1z"/></svg>