<svg xmlns="http://www.w3.org/2000/svg" width="32" height="32"><path d="M23.667 21H8.334a1 1 0 0 1 0-2h15.333a1 1 0 0 1 0 2zm-4 4a1 1 0 0 0-1-1h-5.333a1 1 0 0 0 0 2h5.333a1 1 0 0 0 1-1zM30 31V13.667a1 1 0 0 0-1-1H3a1 1 0 0 0-1 1V31a1 1 0 0 0 1 1h26a1 1 0 0 0 1-1zM4 14.667h24V30H4zm17.183-4.194l-2.23-3.603a.684.684 0 0 0-.077-.097 4 4 0 1 0-5.753.001l-.001-.001a.859.859 0 0 0-.075.094l-.002.003-2.23 3.603a.999.999 0 0 0 .329 1.374l.004.002a.975.975 0 0 0 .516.15 1 1 0 0 0 .848-.469l.002-.004 2.233-3.603c.02-.037.033-.073.05-.107.357.116.768.183 1.194.183h.006a4.088 4.088 0 0 0 1.229-.191l-.029.008c.019.043.036.078.056.112l-.003-.005 2.23 3.603a1 1 0 0 0 .85.473h.006a.98.98 0 0 0 .525-.152l-.004.002a1 1 0 0 0 .321-1.381l.002.004zM14 4a2 2 0 1 1 2 2 2 2 0 0 1-2-2z"/></svg>