<?xml version="1.0" encoding="utf-8"?>
<!-- Generator: Adobe Illustrator 20.1.0, SVG Export Plug-In . SVG Version: 6.00 Build 0)  -->
<svg version="1.1" id="Layer_2" xmlns="http://www.w3.org/2000/svg" xmlns:xlink="http://www.w3.org/1999/xlink" x="0px" y="0px"
	 viewBox="0 0 72 72" style="enable-background:new 0 0 72 72;" xml:space="preserve">
<g>
	<g>
		<path d="M48.3,56.5H5.2c-2.9,0-5.2-2.2-5.2-5v-38c0-2.8,2.3-5,5.2-5h58.6c2.9,0,5.2,2.2,5.2,5v22.4c0,0.6-0.4,1-1,1s-1-0.4-1-1
			V13.5c0-1.7-1.4-3-3.2-3H5.2c-1.8,0-3.2,1.3-3.2,3v38c0,1.7,1.4,3,3.2,3h43.1c0.6,0,1,0.4,1,1S48.8,56.5,48.3,56.5z"/>
	</g>
	<g>
		<path d="M47,37.5H22c-2.7,0-5-2.2-5-5v0c0-2.7,2.2-5,5-5h25c2.8,0,5,2.2,5,5v0C52,35.3,49.8,37.5,47,37.5z"/>
		<path d="M47,38.5H22c-3.3,0-6-2.7-6-6s2.7-6,6-6h25c3.3,0,6,2.7,6,6S50.3,38.5,47,38.5z M22,28.5c-2.2,0-4,1.8-4,4s1.8,4,4,4h25
			c2.2,0,4-1.8,4-4s-1.8-4-4-4H22z"/>
	</g>
	<g>
		<path d="M65.2,63.5c-0.1,0-0.2,0-0.2,0c-0.3-0.1-0.5-0.2-0.6-0.5l-4.1-6.8l-2.7,2.6c-0.3,0.3-0.7,0.3-1.1,0.2
			c-0.4-0.1-0.6-0.5-0.6-0.9l-1.3-19.1c0-0.4,0.2-0.7,0.5-0.9c0.3-0.2,0.7-0.2,1.1,0l15.5,10.4c0.3,0.2,0.5,0.6,0.4,0.9
			s-0.3,0.7-0.6,0.8l-3.8,1.5l3.8,6.7c0.3,0.5,0.1,1-0.3,1.3l-5.3,3.4C65.6,63.4,65.4,63.5,65.2,63.5z M60.5,53.7c0,0,0.1,0,0.1,0
			c0.3,0,0.6,0.2,0.7,0.5l4.2,6.9l3.7-2.3l-3.9-6.9c-0.1-0.3-0.2-0.6-0.1-0.8s0.3-0.5,0.6-0.6l3-1.2L56.7,41l1,14.9l2.1-2
			C60,53.8,60.2,53.7,60.5,53.7z"/>
	</g>
</g>
</svg>
