<svg version="1.1" xmlns="http://www.w3.org/2000/svg" width="32" height="32" viewBox="0 0 32 32">
<title>banner</title>
<path fill="#333" d="M30 7h-6.863l-6.267-5.040c-0.226-0.182-0.517-0.292-0.833-0.292s-0.607 0.11-0.836 0.294l0.003-0.002-6.337 5.040h-6.867c-1.105 0-2 0.895-2 2v0 14c0 1.105 0.895 2 2 2v0h28c1.105 0 2-0.895 2-2v0-14c0-1.105-0.895-2-2-2v0zM16.030 4.707l2.85 2.293h-5.73zM29.333 22.333h-26.667v-12.667h26.667zM24 15.333h-16c-0.736 0-1.333-0.597-1.333-1.333s0.597-1.333 1.333-1.333v0h16c0.736 0 1.333 0.597 1.333 1.333s-0.597 1.333-1.333 1.333v0zM20.667 19.333h-9.333c-0.736 0-1.333-0.597-1.333-1.333s0.597-1.333 1.333-1.333v0h9.333c0.736 0 1.333 0.597 1.333 1.333s-0.597 1.333-1.333 1.333v0z"></path>
</svg>
