<svg xmlns="http://www.w3.org/2000/svg" viewBox="0 0 96 96"><path d="M88.46 78L76.73 57.67a36 36 0 1 0-57.46 0L7.54 78a4 4 0 0 0 4.21 5.93l12.19-2.34L28 93.31A4 4 0 0 0 31.41 96h.38a4 4 0 0 0 3.46-2L48 72h.1l12.7 22a4 4 0 0 0 3.46 2h.38A4 4 0 0 0 68 93.31l4.07-11.72 12.19 2.34a4 4 0 0 0 4.2-5.93zM48 8a28 28 0 1 1-28 28A28 28 0 0 1 48 8zM32.69 82.42l-2.33-6.72a4 4 0 0 0-4.53-2.62l-7 1.34L25 63.7a36.09 36.09 0 0 0 14.3 7.24zm37.48-9.34a4 4 0 0 0-4.53 2.62l-2.33 6.72-6.64-11.48A36.09 36.09 0 0 0 71 63.7l6.19 10.72zM64.41 33l-6.87 6.84L59 49.7a2 2 0 0 1-2 2.3 2.06 2.06 0 0 1-1-.26l-8.25-4.68-8.36 4.46a2 2 0 0 1-2.91-2.11l1.72-9.79-6.71-7a2 2 0 0 1 1.17-3.37l9.33-1.29 4.29-8.82a2 2 0 0 1 3.62.05L54 28.1l9.3 1.54A2 2 0 0 1 64.91 31a2 2 0 0 1-.5 2z" fill="#333"/></svg>