<svg version="1.1" xmlns="http://www.w3.org/2000/svg" width="32" height="32" viewBox="0 0 32 32">
<title>bestseller</title>
<path fill="#333" d="M29.487 26l-3.91-6.777c1.513-1.986 2.423-4.502 2.423-7.231 0-6.627-5.373-12-12-12s-12 5.373-12 12c0 2.729 0.911 5.245 2.445 7.26l-0.021-0.029-3.91 6.777c-0.112 0.191-0.179 0.421-0.179 0.667 0 0.736 0.597 1.333 1.333 1.333 0.088 0 0.174-0.009 0.257-0.025l-0.008 0.001 4.063-0.78 1.353 3.907c0.171 0.49 0.607 0.845 1.131 0.896l0.005 0h0.127c0.49-0.001 0.919-0.266 1.15-0.66l0.003-0.006 4.25-7.333h0.033l4.233 7.333c0.235 0.401 0.663 0.666 1.153 0.667h0.127c0.523-0.058 0.951-0.411 1.117-0.887l0.003-0.009 1.357-3.907 4.063 0.78c0.074 0.014 0.158 0.023 0.245 0.023 0.736 0 1.333-0.597 1.333-1.333 0-0.245-0.066-0.475-0.182-0.672l0.003 0.006zM16 2.667c5.155 0 9.333 4.179 9.333 9.333s-4.179 9.333-9.333 9.333c-5.155 0-9.333-4.179-9.333-9.333v0c0-5.155 4.179-9.333 9.333-9.333v0zM10.897 27.473l-0.777-2.24c-0.186-0.527-0.68-0.897-1.26-0.897-0.088 0-0.175 0.009-0.259 0.025l0.008-0.001-2.333 0.447 2.057-3.573c1.33 1.11 2.929 1.945 4.683 2.395l0.083 0.018zM23.39 24.36c-0.075-0.015-0.162-0.024-0.25-0.024-0.58 0-1.074 0.37-1.257 0.888l-0.003 0.009-0.777 2.24-2.213-3.827c1.841-0.467 3.444-1.302 4.796-2.429l-0.019 0.016 2.063 3.573zM21.47 11l-2.29 2.28 0.487 3.287c0.005 0.030 0.008 0.065 0.008 0.1 0 0.368-0.298 0.667-0.667 0.667-0.003 0-0.005 0-0.008-0h0c-0.122-0-0.237-0.032-0.337-0.088l0.003 0.002-2.75-1.56-2.787 1.487c-0.091 0.049-0.199 0.078-0.313 0.078-0.368 0-0.667-0.298-0.667-0.667 0-0.041 0.004-0.080 0.011-0.119l-0.001 0.004 0.573-3.263-2.237-2.333c-0.116-0.12-0.187-0.283-0.187-0.463 0-0.337 0.249-0.615 0.573-0.66l0.004-0 3.11-0.43 1.43-2.94c0.111-0.224 0.337-0.375 0.599-0.375 0.268 0 0.5 0.159 0.606 0.387l0.002 0.004 1.367 2.97 3.1 0.513c0.253 0.038 0.457 0.215 0.535 0.449l0.001 0.005c0.018 0.058 0.029 0.125 0.029 0.195 0 0.184-0.075 0.351-0.196 0.472v0z"></path>
</svg>
