<svg xmlns="http://www.w3.org/2000/svg" width="32" height="32"><path d="M11.69 23.667c-.688 0-1.29-.37-1.619-.921l-.005-.009a1.89 1.89 0 0 1-.102-1.679l-.005.012 1.317-3.03-2.39-2.13a1.86 1.86 0 0 1-.554-1.327c0-.511.205-.973.537-1.31.34-.342.811-.554 1.331-.554h.031-.002 2.5l1.583-3.333a1.883 1.883 0 1 1 3.348-.043l.005.01v.03l1.583 3.333h2.55c1.019 0 1.848.817 1.866 1.832V14.575c0 .521-.212.993-.553 1.335l-.04.033-2.357 2.097 1.313 3.017a1.873 1.873 0 0 1-2.675 2.351l.009.005-3.363-1.897-3.387 1.903c-.263.155-.58.247-.918.247h-.005zm-.067-2zm-1.066-6.947l2.59 2.31a.998.998 0 0 1 .251 1.15l.003-.006-1.447 3.333 3.553-2a1 1 0 0 1 .985.003l-.005-.003 3.553 2-1.443-3.333a.997.997 0 0 1 .249-1.142l.001-.001 2.593-2.31h-2.8a1 1 0 0 1-.9-.564l-.003-.006L16 10.494l-1.737 3.667c-.165.34-.507.57-.903.57h-.001zm-.334 0zm11.594 0zM16 32C7.163 32 0 24.837 0 16S7.163 0 16 0s16 7.163 16 16c-.009 8.833-7.167 15.991-15.999 16H16zm0-30C8.268 2 2 8.268 2 16s6.268 14 14 14 14-6.268 14-14S23.732 2 16 2z"/></svg>