<svg version="1.1" xmlns="http://www.w3.org/2000/svg" width="32" height="32" viewBox="0 0 32 32">
<title>block-visible-recurring</title>
<path fill="#333" d="M31.947 21.087l-0.863 2.957c-0.106 0.355-0.346 0.641-0.659 0.806l-0.007 0.003c-0.177 0.092-0.386 0.147-0.608 0.147-0.001 0-0.001 0-0.002 0h0c-0.005 0-0.012 0-0.018 0-0.163 0-0.319-0.028-0.465-0.080l0.010 0.003-2.787-1c-0.494-0.203-0.836-0.68-0.836-1.237 0-0.726 0.579-1.316 1.301-1.333l0.002-0c-1.032-1.066-2.475-1.727-4.073-1.727-1.842 0-3.478 0.879-4.513 2.24l-0.010 0.014c-0.249 0.335-0.643 0.55-1.087 0.55-0.294 0-0.565-0.094-0.787-0.253l0.004 0.003c-0.33-0.246-0.541-0.634-0.541-1.072 0-0.29 0.093-0.559 0.25-0.778l-0.003 0.004c1.543-2.041 3.965-3.346 6.693-3.346 2.627 0 4.971 1.21 6.505 3.104l0.012 0.016c0.226-0.432 0.672-0.722 1.185-0.722 0.136 0 0.267 0.020 0.391 0.058l-0.009-0.003c0.563 0.164 0.967 0.676 0.967 1.282 0 0.13-0.019 0.255-0.053 0.374l0.002-0.009zM30.11 26.803c-0.218-0.157-0.49-0.251-0.784-0.251-0.444 0-0.837 0.214-1.083 0.544l-0.003 0.004c-1.032 1.372-2.657 2.25-4.488 2.25-0.013 0-0.025-0-0.038-0h0.002c-0.003 0-0.007 0-0.010 0-1.595 0-3.035-0.659-4.065-1.719l-0.001-0.001c0.724-0.016 1.306-0.606 1.306-1.333 0-0.557-0.342-1.034-0.827-1.234l-0.009-0.003-2.787-1c-0.134-0.049-0.288-0.078-0.449-0.078-0.223 0-0.433 0.055-0.618 0.152l0.007-0.003c-0.321 0.169-0.561 0.455-0.664 0.801l-0.002 0.009-0.863 2.957c-0.031 0.107-0.049 0.231-0.049 0.358 0 0.605 0.404 1.117 0.956 1.279l0.009 0.002c0.112 0.032 0.24 0.052 0.372 0.053h0.001c0.001 0 0.002 0 0.003 0 0.515 0 0.962-0.292 1.184-0.719l0.003-0.007c1.547 1.913 3.893 3.126 6.523 3.126 2.718 0 5.133-1.295 6.662-3.302l0.015-0.020c0.158-0.216 0.252-0.487 0.252-0.78 0-0.444-0.217-0.838-0.552-1.080l-0.004-0.003zM18 3.667h-6.667c-0.736 0-1.333-0.597-1.333-1.333s0.597-1.333 1.333-1.333v0h6.667c0.736 0 1.333 0.597 1.333 1.333s-0.597 1.333-1.333 1.333v0zM26.627 1h-1.293c-0.736 0-1.333 0.597-1.333 1.333s0.597 1.333 1.333 1.333v0h1.287c0.029 0.022 0.048 0.057 0.048 0.096 0 0.005-0 0.010-0.001 0.015l0-0.001v6.557h-24v-6.6c-0-0.001-0-0.002-0-0.003 0-0.035 0.028-0.063 0.063-0.063 0 0 0 0 0 0v0h1.27c0.736 0 1.333-0.597 1.333-1.333s-0.597-1.333-1.333-1.333v0h-1.27c-1.508 0.002-2.73 1.225-2.73 2.733 0 0 0 0 0 0v0 22.523c0 0 0 0 0 0 0 1.513 1.224 2.74 2.736 2.743h9.264c0.736 0 1.333-0.597 1.333-1.333s-0.597-1.333-1.333-1.333v0h-9.263c-0.039-0.002-0.070-0.034-0.070-0.073 0-0.001 0-0.002 0-0.004v0-13.257h24c0 0.736 0.597 1.333 1.333 1.333s1.333-0.597 1.333-1.333v0-9.223c0-0.009 0-0.020 0-0.030 0-1.503-1.207-2.724-2.705-2.746l-0.002-0zM9 4.36v-3.027c0-0.736-0.597-1.333-1.333-1.333s-1.333 0.597-1.333 1.333v0 3.027c-0.803 0.47-1.333 1.328-1.333 2.309 0 1.473 1.194 2.667 2.667 2.667s2.667-1.194 2.667-2.667c0-0.982-0.531-1.84-1.321-2.303l-0.013-0.007zM23 4.36v-3.027c0-0.736-0.597-1.333-1.333-1.333s-1.333 0.597-1.333 1.333v0 3.027c-0.803 0.47-1.333 1.328-1.333 2.309 0 1.473 1.194 2.667 2.667 2.667s2.667-1.194 2.667-2.667c0-0.982-0.531-1.84-1.321-2.303l-0.013-0.007z"></path>
</svg>
