<svg version="1.1" xmlns="http://www.w3.org/2000/svg" width="32" height="32" viewBox="0 0 32 32">
<title>block-invisible</title>
<path fill="#333" d="M31.88 24.887c-0.027 0.057-0.063 0.113-0.097 0.17s-0.020 0.037-0.033 0.053v0c-3.143 4.36-6.51 6.557-10.047 6.557-0.71-0.002-1.4-0.085-2.061-0.242l0.061 0.012c-0.598-0.141-1.035-0.669-1.035-1.3 0-0.737 0.597-1.334 1.334-1.334 0.106 0 0.209 0.012 0.307 0.036l-0.009-0.002c2.94 0.667 5.88-0.863 8.753-4.57-0.263-0.403-0.527-0.787-0.787-1.14-0.154-0.215-0.246-0.482-0.246-0.772 0-0.736 0.597-1.333 1.333-1.333 0.427 0 0.806 0.2 1.050 0.512l0.002 0.003c0.47 0.633 0.94 1.333 1.4 2.1v0c0 0.005 0 0.011 0 0.017s-0 0.012-0 0.017l0-0.001c0.035 0.057 0.066 0.123 0.091 0.192l0.002 0.008c0.012 0.033 0.023 0.075 0.032 0.117l0.001 0.006c0 0.043 0.027 0.083 0.033 0.127s0 0.090 0 0.133 0 0.083 0 0.127 0 0.077 0 0.117c-0.002 0.049-0.009 0.096-0.021 0.141l0.001-0.004c0 0.040-0.023 0.077-0.037 0.117s-0.010 0.093-0.030 0.137zM22.88 17.127c-7-1.173-11.813 6.173-12 6.487 0 0 0 0.033-0.023 0.047s-0.047 0.087-0.067 0.13c-0.015 0.029-0.030 0.067-0.044 0.105l-0.002 0.008c0 0.040-0.023 0.083-0.033 0.127s-0.020 0.083-0.027 0.123 0 0.087 0 0.133 0 0.080 0 0.12 0 0.090 0 0.137 0 0.080 0.023 0.117 0.027 0.087 0.040 0.13l0.050 0.12s0 0.037 0.023 0.053c0.471 0.835 0.952 1.55 1.482 2.224l-0.028-0.037c0.246 0.317 0.628 0.519 1.057 0.519 0.737 0 1.334-0.597 1.334-1.334 0-0.308-0.105-0.592-0.28-0.818l0.002 0.003c-0.333-0.423-0.59-0.81-0.793-1.12 1.217-1.563 4.633-5.333 8.853-4.643 0.062 0.010 0.134 0.016 0.208 0.016 0.736 0 1.333-0.597 1.333-1.333 0-0.654-0.471-1.199-1.093-1.312l-0.008-0.001zM29.67 17.127c-0.246-0.278-0.603-0.452-1.001-0.452-0.335 0-0.64 0.123-0.874 0.327l0.002-0.001-5.3 4.567c-0.343-0.148-0.743-0.235-1.163-0.235-1.657 0-3 1.343-3 3 0 0 0 0.001 0 0.002v-0c0.002 0.266 0.037 0.523 0.101 0.768l-0.005-0.021-5.3 4.587c-0.348 0.244-0.572 0.643-0.572 1.095 0 0.736 0.597 1.333 1.333 1.333 0.387 0 0.735-0.165 0.978-0.427l0.001-0.001 5.3-4.567c0.343 0.148 0.743 0.235 1.163 0.235 1.657 0 3-1.343 3-3 0-0 0-0.001 0-0.002v0c-0.002-0.266-0.037-0.523-0.101-0.768l0.005 0.021 5.3-4.587c0.278-0.246 0.452-0.603 0.452-1.001 0-0.333-0.122-0.637-0.324-0.871l0.001 0.002zM18 3.667h-6.667c-0.736 0-1.333-0.597-1.333-1.333s0.597-1.333 1.333-1.333v0h6.667c0.736 0 1.333 0.597 1.333 1.333s-0.597 1.333-1.333 1.333v0zM26.627 1h-1.293c-0.736 0-1.333 0.597-1.333 1.333s0.597 1.333 1.333 1.333v0h1.287c0.029 0.022 0.048 0.057 0.048 0.096 0 0.005-0 0.010-0.001 0.015l0-0.001v6.557h-24v-6.6c-0-0.001-0-0.002-0-0.003 0-0.035 0.028-0.063 0.063-0.063 0 0 0 0 0 0v0h1.27c0.736 0 1.333-0.597 1.333-1.333s-0.597-1.333-1.333-1.333v0h-1.27c-1.508 0.002-2.73 1.225-2.73 2.733 0 0 0 0 0 0v0 22.523c0 0 0 0 0 0 0 1.513 1.224 2.74 2.736 2.743h5.264c0.736 0 1.333-0.597 1.333-1.333s-0.597-1.333-1.333-1.333v0h-5.263c-0.039-0.002-0.070-0.034-0.070-0.073 0-0.001 0-0.002 0-0.004v0-13.257h24c0 0.736 0.597 1.333 1.333 1.333s1.333-0.597 1.333-1.333v0-9.223c0-0.009 0-0.020 0-0.030 0-1.503-1.207-2.724-2.705-2.746l-0.002-0zM9 4.36v-3.027c0-0.736-0.597-1.333-1.333-1.333s-1.333 0.597-1.333 1.333v0 3.027c-0.803 0.47-1.333 1.328-1.333 2.309 0 1.473 1.194 2.667 2.667 2.667s2.667-1.194 2.667-2.667c0-0.982-0.531-1.84-1.321-2.303l-0.013-0.007zM23 4.36v-3.027c0-0.736-0.597-1.333-1.333-1.333s-1.333 0.597-1.333 1.333v0 3.027c-0.803 0.47-1.333 1.328-1.333 2.309 0 1.473 1.194 2.667 2.667 2.667s2.667-1.194 2.667-2.667c0-0.982-0.531-1.84-1.321-2.303l-0.013-0.007z"></path>
</svg>
