<svg xmlns="http://www.w3.org/2000/svg" width="32" height="32"><path d="M22.897 32c-3.247 0-6.433-2.333-8.333-4.52-.34-.395-.547-.914-.547-1.48s.207-1.085.549-1.483l-.003.003C16.483 22.3 19.72 19.963 23 20c3.27-.05 6.513 2.3 8.45 4.517.34.395.547.914.547 1.48s-.207 1.085-.549 1.483l.003-.003c-1.937 2.223-5.17 4.567-8.45 4.523zm0-10c-2.563 0-5.29 2.057-6.84 3.833a.268.268 0 0 0 0 .334v-.001c1.643 1.883 4.313 3.867 6.923 3.833h.037c2.593.04 5.283-1.95 6.927-3.833a.268.268 0 0 0 0-.334v.001c-1.567-1.793-4.333-3.883-6.923-3.83h-.12zM23 29a3 3 0 1 1 0-6 3 3 0 1 1 0 6zm0-4a1 1 0 0 0 0 2 1 1 0 0 0 0-2zM21 2h-3V1a1 1 0 0 0-2 0v1H8V1a1 1 0 0 0-2 0v1H3a3 3 0 0 0-3 3v16a3 3 0 0 0 3 3h8a1 1 0 0 0 0-2H3a1 1 0 0 1-1-1V10h20v7a1 1 0 0 0 2 0V5a3 3 0 0 0-3-3zM2 8V5a1 1 0 0 1 1-1h3v1a1 1 0 0 0 2 0V4h8v1a1 1 0 0 0 2 0V4h3a1 1 0 0 1 1 1v3z"/></svg>