<svg version="1.1" xmlns="http://www.w3.org/2000/svg" width="32" height="32" viewBox="0 0 32 32">
<title>block-visible</title>
<path fill="#333" d="M18 3.667h-6.667c-0.736 0-1.333-0.597-1.333-1.333s0.597-1.333 1.333-1.333v0h6.667c0.736 0 1.333 0.597 1.333 1.333s-0.597 1.333-1.333 1.333v0zM26.627 1h-1.293c-0.736 0-1.333 0.597-1.333 1.333s0.597 1.333 1.333 1.333v0h1.287c0.029 0.022 0.048 0.057 0.048 0.096 0 0.005-0 0.010-0.001 0.015l0-0.001v6.557h-24v-6.6c-0-0.001-0-0.002-0-0.003 0-0.035 0.028-0.063 0.063-0.063 0 0 0 0 0 0v0h1.27c0.736 0 1.333-0.597 1.333-1.333s-0.597-1.333-1.333-1.333v0h-1.27c-1.508 0.002-2.73 1.225-2.73 2.733 0 0 0 0 0 0v0 22.523c0 0 0 0 0 0 0 1.513 1.224 2.74 2.736 2.743h5.264c0.736 0 1.333-0.597 1.333-1.333s-0.597-1.333-1.333-1.333v0h-5.263c-0.039-0.002-0.070-0.034-0.070-0.073 0-0.001 0-0.002 0-0.004v0-13.257h24c0 0.736 0.597 1.333 1.333 1.333s1.333-0.597 1.333-1.333v0-9.223c0-0.009 0-0.020 0-0.030 0-1.503-1.207-2.724-2.705-2.746l-0.002-0zM23 4.36v-3.027c0-0.736-0.597-1.333-1.333-1.333s-1.333 0.597-1.333 1.333v0 3.027c-0.803 0.47-1.333 1.328-1.333 2.309 0 1.473 1.194 2.667 2.667 2.667s2.667-1.194 2.667-2.667c0-0.982-0.531-1.84-1.321-2.303l-0.013-0.007zM9 4.36v-3.027c0-0.736-0.597-1.333-1.333-1.333s-1.333 0.597-1.333 1.333v0 3.027c-0.803 0.47-1.333 1.328-1.333 2.309 0 1.473 1.194 2.667 2.667 2.667s2.667-1.194 2.667-2.667c0-0.982-0.531-1.84-1.321-2.303l-0.013-0.007zM31.9 25.17c0.014-0.033 0.029-0.074 0.041-0.116l0.002-0.008c0-0.043 0.023-0.083 0.033-0.127s0-0.083 0-0.123 0-0.087 0-0.13 0-0.087 0-0.13 0-0.080 0-0.123-0.020-0.083-0.033-0.127c-0.014-0.050-0.029-0.091-0.046-0.131l0.003 0.007c0-0.037-0.033-0.073-0.050-0.113s-0.047-0.080-0.073-0.12c-0.011-0.022-0.023-0.040-0.037-0.057l0 0.001c-3.313-4.467-6.907-6.667-10.667-6.533-5.857 0.2-9.8 6-10.167 6.573v0l-0.023 0.033-0.037 0.080c-0.025 0.038-0.049 0.083-0.071 0.13l-0.003 0.007c0 0.040-0.023 0.080-0.037 0.12s-0.027 0.083-0.037 0.127 0 0.087 0 0.13 0 0.083 0 0.127 0 0.083 0 0.127 0 0.087 0 0.13 0.023 0.083 0.037 0.127 0.023 0.080 0.037 0.12c0.024 0.053 0.049 0.098 0.076 0.141l-0.003-0.004 0.037 0.080 0.023 0.033c0.367 0.557 4.31 6.373 10.167 6.573h0.333c3.667 0 7.14-2.197 10.36-6.54 0.013-0.017 0.026-0.035 0.036-0.055l0.001-0.002c0.027-0.040 0.050-0.080 0.073-0.12s0.010-0.070 0.023-0.107zM21.167 29.333c-3.563-0.117-6.397-3.227-7.52-4.667 1.117-1.437 3.933-4.537 7.51-4.667 2.62-0.087 5.257 1.48 7.827 4.667-2.563 3.18-5.19 4.753-7.817 4.667zM24.333 24.667c0 1.657-1.343 3-3 3s-3-1.343-3-3c0-1.657 1.343-3 3-3v0c1.657 0 3 1.343 3 3v0z"></path>
</svg>
