<svg xmlns="http://www.w3.org/2000/svg" width="32" height="32"><path d="M31 20h-1v-1a5 5 0 0 0-10 0v1h-1a1 1 0 0 0-1 1v10a1 1 0 0 0 1 1h12a1 1 0 0 0 1-1V21a1 1 0 0 0-1-1zm-9-1a3 3 0 1 1 6 0v1h-6zm8 11H20v-8h10zm-5-2.5a1.5 1.5 0 1 1 1.5-1.5 1.503 1.503 0 0 1-1.5 1.5zm0-2a.5.5 0 1 0 .5.5.5.5 0 0 0-.5-.5zM21 2h-3V1a1 1 0 0 0-2 0v1H8V1a1 1 0 0 0-2 0v1H3a3 3 0 0 0-3 3v16a3 3 0 0 0 3 3h12a1 1 0 0 0 0-2H3a1 1 0 0 1-1-1V10h20v1a1 1 0 0 0 2 0V5a3 3 0 0 0-3-3zM2 8V5a1 1 0 0 1 1-1h3v1a1 1 0 0 0 2 0V4h8v1a1 1 0 0 0 2 0V4h3a1 1 0 0 1 1 1v3z"/></svg>