<svg version="1.1" xmlns="http://www.w3.org/2000/svg" width="32" height="32" viewBox="0 0 32 32">
<title>block-add</title>
<path fill="#333" d="M18.667 28H1.334a1.333 1.333 0 0 1-1.333-1.333V1.334C.001.598.598.001 1.334.001h25.333C27.403.001 28 .598 28 1.334v17.333a1.333 1.333 0 0 1-2.666 0v-16H2.667v22.667h16a1.333 1.333 0 0 1 0 2.666zm12-2.667H28v-2.667a1.333 1.333 0 0 0-2.666 0v2.667h-2.667a1.333 1.333 0 0 0 0 2.666h2.667v2.667a1.333 1.333 0 0 0 2.666 0v-2.667h2.667a1.333 1.333 0 0 0 0-2.666z"></path>
</svg>
