<svg xmlns="http://www.w3.org/2000/svg" width="32" height="32"><path d="M31.45 24.517C29.533 22.334 26.333 20 23.1 20H23c-3.283-.047-6.517 2.3-8.453 4.52-.34.395-.547.914-.547 1.48s.207 1.085.549 1.483l-.003-.003c1.917 2.187 5.12 4.52 8.35 4.52h.103c3.287.053 6.513-2.3 8.453-4.523.339-.395.545-.912.545-1.478 0-.567-.208-1.086-.551-1.485l.003.003zm-15.39 1.666a.268.268 0 0 1 0-.334v.001c1.547-1.793 4.273-3.85 6.837-3.85h.12a6.015 6.015 0 0 1 2.204.421l-.041-.014-6.25 6.26a13.954 13.954 0 0 1-2.856-2.481l-.014-.016zm13.883 0C28.333 28.026 25.666 30 23.103 30h-.126a6.093 6.093 0 0 1-2.205-.411l.042.014 6.25-6.25a13.86 13.86 0 0 1 2.864 2.462l.013.015a.268.268 0 0 1 .003.337v-.001zM21 2h-3V1a1 1 0 0 0-2 0v1H8V1a1 1 0 0 0-2 0v1H3a3 3 0 0 0-3 3v16a3 3 0 0 0 3 3h8a1 1 0 0 0 0-2H3a1 1 0 0 1-1-1V10h20v7a1 1 0 0 0 2 0V5a3 3 0 0 0-3-3zM2 8V5a1 1 0 0 1 1-1h3v1a1 1 0 0 0 2 0V4h8v1a1 1 0 0 0 2 0V4h3a1 1 0 0 1 1 1v3z"/></svg>