<svg version="1.1" xmlns="http://www.w3.org/2000/svg" width="32" height="32" viewBox="0 0 32 32">
<title>blog</title>
<path fill="#333" d="M30.667 22.667c-0.736 0-1.333-0.597-1.333-1.333v0c-0.011-10.305-8.362-18.655-18.666-18.667h-0.001c-0.736 0-1.333-0.597-1.333-1.333s0.597-1.333 1.333-1.333v0c11.777 0.013 21.32 9.557 21.333 21.332v0.001c0 0.736-0.597 1.333-1.333 1.333v0zM26.28 21.12c0.032-0.348 0.050-0.754 0.050-1.163 0-3.586-1.403-6.844-3.689-9.256l0.006 0.006c-2.895-3.088-6.994-5.018-11.543-5.040h-0.104c-0.736 0-1.333 0.597-1.333 1.333s0.597 1.333 1.333 1.333v0h0.103c3.778 0.019 7.179 1.619 9.577 4.173l0.007 0.007c1.842 1.936 2.976 4.561 2.976 7.451 0 0.322-0.014 0.641-0.042 0.957l0.003-0.041c-0.004 0.038-0.006 0.081-0.006 0.125 0 0.695 0.532 1.266 1.211 1.328l0.005 0c0.018 0.002 0.039 0.003 0.060 0.003s0.042-0.001 0.063-0.003l-0.003 0c0.694-0.001 1.263-0.531 1.326-1.208l0-0.005zM20.973 20.453c0.187-2.12-0.667-4.38-2.333-6.2-1.87-2.037-4.473-3.253-6.973-3.253-0.736 0-1.333 0.597-1.333 1.333s0.597 1.333 1.333 1.333v0c1.763 0 3.637 0.893 5 2.387 1.17 1.28 1.77 2.79 1.667 4.163-0.004 0.037-0.006 0.080-0.006 0.123 0 0.69 0.525 1.258 1.197 1.326l0.006 0h0.117c0.695-0.001 1.265-0.533 1.326-1.212l0-0.005zM16.79 21.93l-0.943 5.667c-0.092 0.528-0.484 0.945-0.991 1.071l-0.009 0.002-13.18 3.29c-0.101 0.027-0.217 0.043-0.337 0.043-0.736 0-1.333-0.597-1.333-1.333 0-0.12 0.016-0.236 0.045-0.346l-0.002 0.009 3.293-13.19c0.128-0.516 0.545-0.908 1.065-0.999l0.008-0.001 5.667-0.943c0.066-0.012 0.142-0.018 0.22-0.018 0.369 0 0.702 0.15 0.944 0.392l5.18 5.193c0.242 0.241 0.392 0.575 0.392 0.944 0 0.078-0.007 0.154-0.019 0.227l0.001-0.008zM14.047 22.167l-4.213-4.213-4.12 0.687-1.92 7.693 3.207-3.21c0.228-0.189 0.524-0.303 0.847-0.303 0.736 0 1.333 0.597 1.333 1.333 0 0.323-0.114 0.618-0.305 0.849l0.002-0.002-3.21 3.207 7.667-1.92z"></path>
</svg>
