<?xml version="1.0" encoding="utf-8"?>
<!-- Generator: Adobe Illustrator 20.1.0, SVG Export Plug-In . SVG Version: 6.00 Build 0)  -->
<svg version="1.1" id="Layer_2" xmlns="http://www.w3.org/2000/svg" xmlns:xlink="http://www.w3.org/1999/xlink" x="0px" y="0px"
	 viewBox="0 0 72 72" style="enable-background:new 0 0 72 72;" xml:space="preserve">
<style type="text/css">
	.st0{fill-rule:evenodd;clip-rule:evenodd;}
</style>
<g>
	<g>
		<g>
			<g>
				<path d="M42.3,60.7H29.3c-0.3,0-0.6-0.2-0.8-0.4l-6.8-9.4c-0.2-0.3-0.2-0.8,0-1.1l13.5-20.6c0.2-0.3,0.5-0.5,0.8-0.5
					c0.3,0,0.7,0.2,0.8,0.5l13.4,21c0.2,0.4,0.2,0.8-0.1,1.2l-7.1,9C42.9,60.5,42.6,60.7,42.3,60.7z M29.8,58.7h12.1l6.4-8.1
					L36,31.5L23.7,50.2L29.8,58.7z"/>
			</g>
			<g>
				<path d="M36,46.5c-0.6,0-1-0.4-1-1L35,30.8c0-0.6,0.4-1,1-1c0,0,0,0,0,0c0.6,0,1,0.4,1,1L37,45.5C37,46,36.6,46.5,36,46.5
					C36,46.5,36,46.5,36,46.5z"/>
			</g>
			<g>
				<circle class="st0" cx="36" cy="48.6" r="2.8"/>
				<path d="M36,52.3c-2.1,0-3.8-1.7-3.8-3.8s1.7-3.8,3.8-3.8s3.8,1.7,3.8,3.8S38.1,52.3,36,52.3z M36,46.8c-1,0-1.8,0.8-1.8,1.8
					s0.8,1.8,1.8,1.8c1,0,1.8-0.8,1.8-1.8S37,46.8,36,46.8z"/>
			</g>
		</g>
	</g>
	<g>
		<g>
			<path d="M59.1,72H12.9c-2.2,0-4-1.8-4-4V4c0-2.2,1.8-4,4-4h28.9c0.3,0,0.5,0.1,0.7,0.3l20.2,21.3c0.2,0.2,0.3,0.4,0.3,0.7V68
				C63.1,70.2,61.3,72,59.1,72z M12.9,2c-1.1,0-2,0.9-2,2v64c0,1.1,0.9,2,2,2h46.1c1.1,0,2-0.9,2-2V22.7L41.4,2H12.9z"/>
		</g>
		<g>
			<path d="M61.4,23.8H48.3c-3.9,0-8.1-2.9-8.1-7L40.1,1.4c0-0.6,0.4-1,1-1c0,0,0,0,0,0c0.5,0,1,0.4,1,1l0.1,15.4c0,2.8,3.2,5,6.1,5
				h13.1c0.6,0,1,0.4,1,1S62,23.8,61.4,23.8z"/>
		</g>
	</g>
</g>
</svg>
