<svg version="1.1" xmlns="http://www.w3.org/2000/svg" width="32" height="32" viewBox="0 0 32 32">
<title>blog_post</title>
<path fill="#333" d="M20 32h-18.667c-0.736 0-1.333-0.597-1.333-1.333s0.597-1.333 1.333-1.333v0h18.667c0.736 0 1.333 0.597 1.333 1.333s-0.597 1.333-1.333 1.333v0zM32.040 4.49c0 0 0 0.001 0 0.001 0 0.371-0.152 0.707-0.397 0.949l-0 0-13.957 13.737c-0.033 0.033-0.073 0.057-0.107 0.087 0.062 0.151 0.098 0.327 0.098 0.511 0 0.063-0.004 0.125-0.012 0.186l0.001-0.007-0.8 4.8c-0.092 0.528-0.484 0.945-0.991 1.071l-0.009 0.002-11.2 2.8c-0.101 0.027-0.217 0.043-0.337 0.043-0.736 0-1.333-0.597-1.333-1.333 0-0.12 0.016-0.236 0.045-0.346l-0.002 0.009 2.8-11.2c0.128-0.516 0.545-0.908 1.065-0.999l0.008-0.001 4.8-0.8c0.064-0.011 0.137-0.016 0.212-0.016 0.214 0 0.416 0.049 0.597 0.137l-0.008-0.004 0.050-0.057 13.957-13.727c0.24-0.237 0.571-0.383 0.935-0.383s0.695 0.146 0.935 0.383l3.253 3.196c0.245 0.242 0.397 0.578 0.397 0.949 0 0.004-0 0.008-0 0.012v-0.001zM14.907 20.19l-3.43-3.43-3.263 0.543-1.42 5.697 2.207-2.21c0.228-0.189 0.524-0.303 0.847-0.303 0.736 0 1.333 0.597 1.333 1.333 0 0.323-0.114 0.618-0.305 0.849l0.002-0.002-2.21 2.207 5.683-1.42zM28.807 4.49l-1.353-1.333-13 12.803 1.333 1.333c0.008-0.011 0.017-0.021 0.027-0.030l0-0z"></path>
</svg>
