<svg xmlns="http://www.w3.org/2000/svg" width="32" height="32"><path d="M26 5.823v5.843a1 1 0 0 1-2 0v-5.89l.001-.035c0-.575-.451-1.045-1.018-1.075H20v2.333a1 1 0 0 1-2 0V4.666h-4v2.333a1 1 0 0 1-2 0V4.666H8v2.333a1 1 0 0 1-2 0V4.666H3.02A1.078 1.078 0 0 0 2 5.778v-.002 19.96c.015.517.437.93.956.93h.021-.001 8.023a1 1 0 0 1 0 2H2.926A2.951 2.951 0 0 1-.001 25.79V5.823l-.001-.079A3.08 3.08 0 0 1 2.96 2.666H5.999V.999a1 1 0 0 1 2 0v1.667h4V.999a1 1 0 0 1 2 0v1.667h4V.999a1 1 0 0 1 2 0v1.667h3.033A3.081 3.081 0 0 1 26 5.744l-.001.083v-.004zm-2 23.074A10.024 10.024 0 0 1 19.681 30h-.014l-.113.001a5.031 5.031 0 0 1-2.296-.551l.029.013-2.247 2.243a1 1 0 0 1-1.414 0 1 1 0 0 1 0-1.414l2.24-2.243c-.51-.953-.667-2.227-.42-3.683.553-3.217 3.067-7.44 7.52-9.627a1 1 0 0 1 1.33.418l.003.005.87 1.627 1.83-2.907a1 1 0 0 1 .735-.463h.005a15.587 15.587 0 0 1 3.353.006l-.069-.006c.466.052.833.417.886.879v.005c.074.545.116 1.174.116 1.814 0 5.595-3.238 10.433-7.943 12.742l-.083.037zm5.977-13.564a13.713 13.713 0 0 0-1.604.022l.044-.003-2.48 3.957a1.001 1.001 0 0 1-1.724-.054l-.003-.005L23 17c-3.287 1.96-5.163 5.197-5.58 7.7a4.944 4.944 0 0 0 .005 1.835l-.005-.031 4.207-4.21a1 1 0 0 1 1.413 1.414l.001-.001-4.207 4.207c1 .217 2.533.027 4.293-.817 4.103-2.018 6.876-6.169 6.876-10.967 0-.28-.009-.558-.028-.834l.002.037z"/></svg>