<?xml version="1.0" encoding="utf-8"?>
<!-- Generator: Adobe Illustrator 20.1.0, SVG Export Plug-In . SVG Version: 6.00 Build 0)  -->
<svg version="1.1" id="Layer_3" xmlns="http://www.w3.org/2000/svg" xmlns:xlink="http://www.w3.org/1999/xlink" x="0px" y="0px"
	 viewBox="0 0 72 72" style="enable-background:new 0 0 72 72;" xml:space="preserve">
<style type="text/css">
	.st0{fill-rule:evenodd;clip-rule:evenodd;}
</style>
<g>
	<g>
		<g>
			<g>
				<path d="M45.8,38.7c-0.5,0-1-0.4-1-0.9C44,26.7,33.5,27,33.1,27c-0.5,0-1-0.4-1-1s0.4-1,1-1c0.1,0,12.9-0.4,13.8,12.6
					C46.8,38.2,46.4,38.7,45.8,38.7C45.9,38.7,45.8,38.7,45.8,38.7z"/>
			</g>
			<g>
				<path d="M54.6,37.4c-0.5,0-1-0.4-1-0.9c-1.4-18.7-19-18.1-19.7-18.1c-0.5,0-1-0.4-1-1c0-0.6,0.4-1,1-1c7-0.3,20.6,3.4,21.8,19.9
					C55.6,36.9,55.2,37.3,54.6,37.4C54.6,37.4,54.6,37.4,54.6,37.4z"/>
			</g>
			<g>
				<path d="M62.8,35.5c-0.5,0-1-0.4-1-0.9C59.9,9.4,36.1,10.1,35.1,10.2c-0.6,0-1-0.4-1-1s0.4-1,1-1c0.3,0,26.7-0.9,28.8,26.3
					C63.8,35,63.4,35.5,62.8,35.5C62.8,35.5,62.8,35.5,62.8,35.5z"/>
			</g>
			<g>
				<path d="M71,33.7c-0.5,0-1-0.4-1-0.9C67.7,1,37.7,2,36.4,2c-0.6,0-1-0.4-1-1c0-0.6,0.4-1,1-1C36.6,0,69.5-1.1,72,32.6
					C72,33.2,71.6,33.6,71,33.7C71,33.7,71,33.7,71,33.7z"/>
			</g>
		</g>
	</g>
	<g>
		<g>
			<path d="M1,72c-0.3,0-0.5-0.1-0.7-0.3C0.1,71.5,0,71.1,0,70.8L6.7,35c0.1-0.4,0.4-0.7,0.8-0.8l16.7-2.5c0.3,0,0.6,0.1,0.8,0.3
				L39,45c0.2,0.2,0.3,0.5,0.3,0.9l-2.3,16.9c-0.1,0.4-0.4,0.7-0.8,0.8L1.2,72C1.2,72,1.1,72,1,72z M8.6,36L2.3,69.7l32.9-7.9
				l2.1-15.7L24.1,33.7L8.6,36z"/>
		</g>
		<g>
			<path d="M2.2,70.9c-0.2,0-0.5-0.1-0.7-0.3c-0.4-0.4-0.4-1-0.1-1.4l14.7-15.8c0.4-0.4,1-0.4,1.4,0s0.4,1,0.1,1.4L2.9,70.6
				C2.7,70.8,2.5,70.9,2.2,70.9z"/>
		</g>
		<g>
			<ellipse transform="matrix(0.6849 -0.7286 0.7286 0.6849 -30.7639 30.6088)" class="st0" cx="20" cy="50.9" rx="4.1" ry="4.1"/>
			<path d="M20,55.9c-1.3,0-2.5-0.5-3.5-1.4c-2-1.9-2.1-5.1-0.2-7.2l0,0c1.9-2,5.1-2.1,7.2-0.2c1,0.9,1.6,2.2,1.6,3.5
				c0,1.4-0.4,2.6-1.4,3.6c-0.9,1-2.2,1.6-3.5,1.6C20.1,55.9,20.1,55.9,20,55.9z M17.8,48.8c-1.2,1.2-1.1,3.2,0.1,4.3
				c0.6,0.6,1.4,0.9,2.2,0.8c0.8,0,1.6-0.4,2.1-1s0.9-1.4,0.8-2.2c0-0.8-0.4-1.6-1-2.1C20.9,47.5,18.9,47.5,17.8,48.8L17.8,48.8z"/>
		</g>
	</g>
</g>
</svg>
