<?xml version="1.0" encoding="utf-8"?>
<!-- Generator: Adobe Illustrator 20.1.0, SVG Export Plug-In . SVG Version: 6.00 Build 0)  -->
<svg version="1.1" id="Layer_1" xmlns="http://www.w3.org/2000/svg" xmlns:xlink="http://www.w3.org/1999/xlink" x="0px" y="0px"
	 viewBox="0 0 72 72" style="enable-background:new 0 0 72 72;" xml:space="preserve">
<path d="M38.5,68.2H10.4c-0.6,0-1-0.4-1-1V4.8c0-0.6,0.4-1,1-1h30.2c7.9,0.1,13.6,2.5,17,7.1c0,0,0,0,0,0c2,2.8,3.1,6.2,3.1,10.1
	c0,4-1.1,7.3-3.1,9.8c-0.8,1-1.9,1.9-3.3,2.8c2.5,1.2,4.4,2.9,5.8,5.1c1.7,2.7,2.6,5.9,2.6,9.7c0,3.9-1,7.4-2.9,10.5
	c-1.2,2-2.8,3.8-4.7,5.2c-2.1,1.6-4.6,2.7-7.5,3.3C44.8,68,41.8,68.2,38.5,68.2z M11.4,66.2h27.2c3.1,0,6-0.3,8.6-0.8
	c2.6-0.5,4.8-1.5,6.7-3c1.7-1.2,3.1-2.8,4.2-4.6c1.8-2.8,2.6-6,2.6-9.4c0-3.4-0.8-6.3-2.3-8.6c-1.5-2.3-3.8-4-6.7-5.1
	c-0.4-0.1-0.6-0.5-0.7-0.9c0-0.4,0.2-0.8,0.5-1c2-1,3.5-2.1,4.5-3.3c1.8-2.1,2.7-5,2.7-8.6c0-3.5-0.9-6.5-2.7-9
	c-3-4-8.2-6.1-15.4-6.2H11.4V66.2z M38,30.4H22.8c-0.6,0-1-0.4-1-1V15.6c0-0.6,0.4-1,1-1h13.6c3.1,0,5.7,0.3,7.7,1
	c1.9,0.8,4,2.6,4,6.7c0,3-1,5.1-3,6.3C43.3,29.8,40.9,30.4,38,30.4z M23.8,28.4H38c2.5,0,4.6-0.5,6.1-1.4c1.4-0.8,2.1-2.4,2.1-4.6
	c0-2.5-0.9-4.1-2.7-4.8c-1.8-0.6-4.1-0.9-7-0.9H23.8V28.4z M38,57.4H22.8c-0.6,0-1-0.4-1-1V39.7c0-0.6,0.4-1,1-1h15.4
	c2.9,0,5,0.4,6.7,1.2c3,1.4,4.6,3.9,4.6,7.6c0,4.2-1.6,7.2-4.7,8.7C43.1,57,40.9,57.4,38,57.4z M23.8,55.4H38c2.5,0,4.5-0.3,5.9-1
	c2.4-1.2,3.5-3.4,3.5-6.9c0-2.8-1.1-4.7-3.4-5.8c-1.3-0.6-3.3-0.9-5.8-1H23.8V55.4z"/>
</svg>
