<svg version="1.1" xmlns="http://www.w3.org/2000/svg" width="32" height="32" viewBox="0 0 32 32">
<title>bold</title>
<path fill="#333" d="M27.113 16.823c-0.538-0.696-1.195-1.272-1.945-1.703l-0.032-0.017c0.452-0.359 0.845-0.761 1.185-1.207l0.012-0.017c1.033-1.357 1.56-3.080 1.56-5.123 0-3.067-1.207-5.353-3.583-6.79-2.19-1.323-5.503-1.967-10.13-1.967h-9.513c-0.736 0-1.333 0.597-1.333 1.333v0 29.333c0 0.736 0.597 1.333 1.333 1.333v0h11.437c3.737 0 6.763-0.843 9-2.51 2.367-1.757 3.563-4.223 3.563-7.33 0-2.16-0.523-3.97-1.553-5.337zM14.18 2.667c4.070 0 7 0.533 8.753 1.583 1.563 0.947 2.293 2.377 2.293 4.507 0 1.467-0.333 2.613-1 3.507-0.59 0.788-1.463 1.337-2.465 1.497l-0.022 0.003h-15.74v-11.097zM23.513 27.35c-1.77 1.333-4.263 2-7.413 2h-10.1v-12.92h15.15c0.122 0.078 0.265 0.137 0.418 0.169l0.008 0.001c1.607 0.333 2.75 0.96 3.407 1.827s1 2.153 1 3.733c0.017 2.25-0.797 3.947-2.467 5.19z"></path>
</svg>
