<svg xmlns="http://www.w3.org/2000/svg" viewBox="0 0 96 96"><path d="M80.35 77.53l4.72-3A4 4 0 0 0 87 71.16V4a4 4 0 0 0-4-4H24.69A15.64 15.64 0 0 0 9 15.58V80.51c0 .36-.06.72-.06 1.08C9 89.54 16.32 96 25.33 96H83a4 4 0 0 0 2.14-7.38l-4.76-3a4.48 4.48 0 0 1 0-8.09zM42 8h16v25.71l-6-6.61a4.05 4.05 0 0 0-3.11-1.29 4 4 0 0 0-3 1.55l-3.84 5zM25.33 88C20.81 88 17 85.07 17 81.56s3.81-6.4 8.33-6.4h46.33a12 12 0 0 0 0 12.84zM79 67.16H25.33a17.84 17.84 0 0 0-8.28 2V15.57A7.62 7.62 0 0 1 24.69 8H34v36a4 4 0 0 0 2.71 3.78A3.84 3.84 0 0 0 38 48a4 4 0 0 0 3.16-1.55L49.25 36l9.8 10.69A4 4 0 0 0 66 44V8h13z" fill="#333"/></svg>