<svg xmlns="http://www.w3.org/2000/svg" width="32" height="32"><path d="M17.843 32c-.19 0-.373-.026-.548-.073l.015.003a2.035 2.035 0 0 1-1.238-.944l-.005-.01a2.04 2.04 0 0 1-.273-1.024c0-.284.057-.554.161-.8l-.005.014 1.667-3.803-2.95-2.92A1.977 1.977 0 0 1 16.04 19h-.002 3.333l1.783-3.85.023-.043a2.064 2.064 0 1 1 3.661-.012l.005.011.02.043 1.77 3.85h3.333l.053-.001a1.98 1.98 0 0 1 1.342 3.436l-.001.001-2.957 2.923 1.667 3.793a2.043 2.043 0 0 1-2.916 2.564l.009.005L23 29.39l-4.15 2.333a1.977 1.977 0 0 1-1.007.273zM23 27.243h.002c.18 0 .348.048.492.133l-.005-.003L28.136 30c.023 0 .037.017.05 0a.046.046 0 0 0 .028-.043.05.05 0 0 0-.005-.021l-1.913-4.41a.996.996 0 0 1 .217-1.11l3.457-3.417H26a.999.999 0 0 1-.904-.574l-.003-.006-2.037-4.393-.023-.027-.017-.002a.088.088 0 0 0-.017.002.05.05 0 0 0-.033.023l-2.05 4.4a1.002 1.002 0 0 1-.906.577h-3.974l3.457 3.423a.995.995 0 0 1 .214 1.113l.003-.006-1.92 4.42-.001.013.001.014v-.001a.049.049 0 0 0 .026.023h.043l4.643-2.613a.981.981 0 0 1 .496-.143h.001zM15.977 21h.033zM24 0H5a5 5 0 0 0-5 5v23a4 4 0 0 0 4 4h7a1 1 0 0 0 0-2H4a2 2 0 1 1 0-4h7a1 1 0 0 0 0-2H4c-.736 0-1.426.2-2.019.547l.019-.01V5a3 3 0 0 1 3-3h19v9a1 1 0 0 0 2 0V2a2 2 0 0 0-2-2z"/></svg>