<svg version="1.1" xmlns="http://www.w3.org/2000/svg" width="32" height="32" viewBox="0 0 32 32">
<title>bookmark-manager</title>
<path fill="#333" d="M26.783 25.843l1.573-1c.383-.235.637-.649.643-1.122V1.333C28.999.597 28.402 0 27.666 0H8.212a5.213 5.213 0 0 0-5.213 5.192v21.645c0 .12-.02.24-.02.36.02 2.65 2.46 4.803 5.463 4.803h19.223a1.333 1.333 0 0 0 .718-2.456l-.005-.003-1.587-1a1.492 1.492 0 1 1-.008-2.692l.009-.004zm-18.34 3.49c-1.507 0-2.777-.977-2.777-2.147s1.27-2.133 2.777-2.133h15.443c-.389.606-.621 1.346-.621 2.14s.231 1.534.63 2.156l-.01-.016zm0-6.946h-.024c-1 0-1.942.247-2.768.682l.032-.016V5.19a2.54 2.54 0 0 1 2.54-2.523H26.333v19.72zm13.36-10.72l-2.29 2.28.487 3.287a.667.667 0 0 1-.659.767h-.008a.688.688 0 0 1-.337-.088l.003.002-2.75-1.56-2.787 1.487a.667.667 0 0 1-.969-.708l-.001.004.573-3.263-2.237-2.333a.666.666 0 0 1 .39-1.123h.003l3.107-.43 1.43-2.94a.668.668 0 0 1 .602-.38h.026-.001.007c.268 0 .499.158.605.386l.002.004 1.333 2.977 3.1.513a.67.67 0 0 1 .532.449l.001.005a.665.665 0 0 1-.163.666z"></path>
</svg>
