<svg version="1.1" xmlns="http://www.w3.org/2000/svg" width="32" height="32" viewBox="0 0 32 32">
<title>bookmark-manager</title>
<path fill="#333" d="M26.783 25.843l1.573-1c0.383-0.235 0.637-0.649 0.643-1.122v-22.388c0-0.736-0.597-1.333-1.333-1.333v0h-19.437c-0.005-0-0.011-0-0.017-0-2.872 0-5.202 2.323-5.213 5.192v21.644c0 0.12-0.020 0.24-0.020 0.36 0.020 2.65 2.46 4.803 5.463 4.803h19.223c0 0 0 0 0 0 0.736 0 1.333-0.597 1.333-1.333 0-0.472-0.245-0.887-0.615-1.123l-0.005-0.003-1.587-1c-0.508-0.246-0.851-0.757-0.851-1.348s0.344-1.103 0.843-1.344l0.009-0.004zM14 2.667h5.333v8.57l-2-2.203c-0.247-0.265-0.599-0.431-0.989-0.431-0.017 0-0.034 0-0.050 0.001l0.002-0c-0.407 0.017-0.765 0.214-0.998 0.514l-0.002 0.003-1.28 1.667zM8.443 29.333c-1.507 0-2.777-0.977-2.777-2.147s1.27-2.133 2.777-2.133h15.443c-0.389 0.606-0.621 1.346-0.621 2.14s0.231 1.534 0.63 2.156l-0.010-0.016zM26.333 22.387h-17.89c-0.007-0-0.016-0-0.024-0-1 0-1.942 0.247-2.768 0.682l0.032-0.016v-17.863c0.009-1.396 1.143-2.523 2.54-2.523 0.002 0 0.005 0 0.007 0h3.103v12c0.001 0.582 0.374 1.076 0.894 1.257l0.009 0.003c0.127 0.046 0.274 0.073 0.427 0.073 0.001 0 0.002 0 0.003 0h-0c0.427-0 0.807-0.201 1.051-0.514l0.002-0.003 2.697-3.483 3.267 3.563c0.245 0.266 0.595 0.433 0.983 0.433 0.735 0 1.331-0.595 1.333-1.329v-12h4.333z"></path>
</svg>
