<svg xmlns="http://www.w3.org/2000/svg" width="32" height="32"><path d="M31.277 13.81l-7.133 5.857a.667.667 0 0 0-.211.745l-.001-.005 3 8.897a2.025 2.025 0 0 1-.3 1.862l.004-.005a2.072 2.072 0 0 1-2.886.433l.006.004-7.333-5.333a.69.69 0 0 0-.812.001l.002-.001-7.333 5.333a2.057 2.057 0 0 1-1.884.286l.015.004a2.041 2.041 0 0 1-1.3-2.597l-.004.014 3-8.893a.667.667 0 0 0-.241-.742l-.002-.001-7.12-5.843a2.027 2.027 0 0 1-.74-1.567 2.053 2.053 0 0 1 2.053-2.043h8.385c.292 0 .54-.188.63-.449l.001-.005 3-8.41v-.023a2.067 2.067 0 1 1 3.858-.008l.005.014 3 8.433a.684.684 0 0 0 .643.453h8.363a2.074 2.074 0 0 1 1.928 1.319l.005.014a2.03 2.03 0 0 1-.594 2.255l-.003.002z"/></svg>