<svg xmlns="http://www.w3.org/2000/svg" width="32" height="32"><path d="M7.593 32c-.332 0-.65-.055-.947-.156l.021.006a2.912 2.912 0 0 1-1.847-3.71l-.006.02 2.723-8.097-6.48-5.33a2.913 2.913 0 0 1 1.858-5.156h7.608l2.733-7.667C13.689.794 14.754.017 16.001.017s2.312.777 2.738 1.873l.007.02 2.733 7.687h7.59a2.954 2.954 0 0 1 2.74 1.88l.007.02c.115.301.181.649.181 1.012 0 .888-.397 1.683-1.024 2.218l-.004.003-6.507 5.333 2.723 8.103c.098.278.154.599.154.933 0 .653-.216 1.256-.58 1.741l.005-.008a2.944 2.944 0 0 1-4.108.594l.008.006-6.667-4.85-6.667 4.853a2.936 2.936 0 0 1-1.736.563H7.59zM16 24.5c.367.007.703.131.974.336l-.004-.003 6.88 5a.94.94 0 0 0 1.309-.191l.002-.002a.898.898 0 0 0 .131-.833l.002.006-2.807-8.333a1.639 1.639 0 0 1 .51-1.811l.003-.002 6.667-5.487a.904.904 0 0 0 .262-1.007l.002.006a.942.942 0 0 0-.876-.6h-7.823a1.643 1.643 0 0 1-1.543-1.082l-.004-.011-2.813-7.907a.935.935 0 0 0-1.209-.517l.006-.002a.909.909 0 0 0-.534.514l-.002.006v.02l-2.797 7.887a1.643 1.643 0 0 1-1.545 1.09H2.926a.923.923 0 0 0-.923.913v.001c.001.282.13.533.332.699l.002.001 6.667 5.477a1.663 1.663 0 0 1 .51 1.795l.003-.012-2.807 8.333a.877.877 0 0 0 .053.695l-.002-.005c.111.22.302.386.534.462l.006.002a.944.944 0 0 0 .853-.132l-.003.002 6.883-5c.268-.192.602-.307.963-.307h.007z"/></svg>