<svg version="1.1" xmlns="http://www.w3.org/2000/svg" width="32" height="32" viewBox="0 0 32 32">
<title>bookmark-active</title>
<path fill="#333" d="M31.933 12.12c-0.161-0.469-0.564-0.815-1.056-0.892l-0.008-0.001-9.433-1.447-4.237-9.013c-0.217-0.455-0.672-0.764-1.2-0.767h-0c-0.53 0-0.989 0.31-1.203 0.759l-0.003 0.008-4.223 9-9.44 1.443c-0.499 0.078-0.902 0.424-1.061 0.884l-0.003 0.009c-0.044 0.127-0.070 0.273-0.070 0.425 0 0.363 0.145 0.692 0.38 0.932l-0-0 6.87 7.037-1.617 9.947c-0.011 0.064-0.017 0.137-0.017 0.212 0 0.736 0.597 1.333 1.333 1.333 0.236 0 0.458-0.061 0.65-0.169l-0.007 0.003 8.41-4.65 8.423 4.667c0.186 0.104 0.408 0.166 0.644 0.166 0.736 0 1.333-0.597 1.333-1.333 0-0.076-0.006-0.151-0.019-0.224l0.001 0.008-1.62-9.953 6.86-7.027c0.235-0.24 0.38-0.569 0.38-0.932 0-0.152-0.025-0.298-0.072-0.434l0.003 0.009z"></path>
</svg>
