<svg xmlns="http://www.w3.org/2000/svg" viewBox="0 0 96 96"><path d="M75.23 96a4.06 4.06 0 0 1-1.94-.5L48 81.52l-25.25 14a4 4 0 0 1-5.88-4.14l4.85-29.84L1.13 40.38a4 4 0 0 1-.93-4.07 4 4 0 0 1 3.19-2.68l28.3-4.31 12.67-27A4 4 0 0 1 48 0a4 4 0 0 1 3.6 2.3l12.71 27 28.3 4.34a4 4 0 0 1 2.26 6.75L74.29 61.51l4.88 29.84A4 4 0 0 1 75.23 96zM48 73a4 4 0 0 1 1.94.5L70 84.51l-3.88-23.7a4 4 0 0 1 1.08-3.44l16.56-17L61 36.92a4 4 0 0 1-3-2.25L48 13.41 38 34.65a4 4 0 0 1-3 2.26l-22.7 3.45 16.57 17A4 4 0 0 1 30 60.78l-3.9 23.71 20-11A4 4 0 0 1 48 73z" fill="#333"/></svg>