<svg version="1.1" xmlns="http://www.w3.org/2000/svg" width="32" height="32" viewBox="0 0 32 32">
<title>bookmark</title>
<path fill="#333" d="M25.077 32c-0.237-0.001-0.46-0.062-0.654-0.17l0.007 0.004-8.43-4.66-8.417 4.667c-0.186 0.104-0.407 0.166-0.644 0.166-0.736 0-1.333-0.597-1.333-1.333 0-0.075 0.006-0.148 0.018-0.22l-0.001 0.008 1.617-9.947-6.863-7.053c-0.235-0.24-0.38-0.569-0.38-0.932 0-0.152 0.025-0.298 0.072-0.434l-0.003 0.009c0.161-0.469 0.564-0.815 1.056-0.892l0.008-0.001 9.433-1.437 4.223-9c0.217-0.46 0.677-0.773 1.21-0.773 0.001 0 0.002 0 0.003 0h-0c0.528 0.003 0.983 0.312 1.197 0.759l0.003 0.008 4.237 9 9.433 1.447c0.645 0.101 1.133 0.653 1.133 1.318 0 0.363-0.145 0.692-0.38 0.932l-6.86 7.040 1.627 9.947c0.011 0.065 0.018 0.14 0.018 0.217 0 0.736-0.596 1.332-1.331 1.333h-0zM16 24.333c0 0 0.001 0 0.001 0 0.237 0 0.459 0.062 0.652 0.17l-0.007-0.003 6.687 3.67-1.293-7.9c-0.011-0.065-0.018-0.14-0.018-0.217 0-0.362 0.144-0.69 0.378-0.93l-0 0 5.52-5.667-7.587-1.15c-0.445-0.072-0.811-0.355-0.997-0.742l-0.003-0.008-3.333-7.087-3.333 7.080c-0.188 0.396-0.554 0.681-0.992 0.752l-0.008 0.001-7.567 1.15 5.523 5.667c0.242 0.241 0.391 0.575 0.391 0.944 0 0.069-0.005 0.137-0.015 0.204l0.001-0.007-1.3 7.903 6.667-3.667c0.183-0.102 0.401-0.162 0.633-0.163h0z"></path>
</svg>
