<svg version="1.1" xmlns="http://www.w3.org/2000/svg" width="32" height="32" viewBox="0 0 32 32">
<title>box-collapse</title>
<path d="M20.119144,18.0181975 L17.0705249,20.5161585 C16.7798628,20.7494882 16.4058687,20.8901526 15.9992083,20.8901526 C15.592548,20.8901526 15.2192205,20.7488215 14.9245585,20.5134919 L14.9278917,20.5161585 L11.8812727,18.0181975 C11.6952756,17.8542001 11.5792774,17.6162038 11.5792774,17.350208 C11.5792774,16.859549 11.9772712,16.4615552 12.4679302,16.4615552 C12.6712603,16.4615552 12.8579241,16.5295541 13.0079217,16.644219 L13.0059218,16.6428857 L15.1105556,18.3648588 L15.1105556,4.889736 C15.1105556,4.399077 15.5085493,4.00108322 15.9992083,4.00108322 C16.4898673,4.00108322 16.8878611,4.399077 16.8878611,4.889736 L16.8878611,4.889736 L16.8878611,18.3648588 L18.9898283,16.6428857 C19.1418259,16.5168877 19.3391562,16.4408888 19.5544861,16.4408888 C20.0458118,16.4408888 20.4444722,16.8395493 20.4444722,17.3308749 C20.4444722,17.6075373 20.3184742,17.8542001 20.1204773,18.0175309 L20.119144,18.0188642 L20.119144,18.0181975 Z M29.3333333,4.16013069e-05 C30.8060927,4.16013069e-05 32,1.19394894 32,2.66670827 L32,29.3333749 C32,30.8061343 30.8060927,32.0000416 29.3333333,32.0000416 L2.66666667,32.0000416 C1.19390733,32.0000416 0,30.8061343 0,29.3333749 L0,2.66670827 C0,1.19394894 1.19390733,4.16013069e-05 2.66666667,4.16013069e-05 L29.3333333,4.16013069e-05 Z M29.3333333,1.33337493 L2.66666667,1.33337493 C1.98288555,1.33337493 1.41932379,1.84809519 1.34230364,2.51121343 L1.33333333,2.66670827 L1.33333333,29.3333749 C1.33333333,30.0171561 1.84805359,30.5807178 2.51117183,30.657738 L2.66666667,30.6667083 L29.3333333,30.6667083 C30.0171145,30.6667083 30.5806762,30.151988 30.6576964,29.4888698 L30.6666667,29.3333749 L30.6666667,2.66670827 C30.6666667,1.98292715 30.1519464,1.41936539 29.4888282,1.34234524 L29.3333333,1.33337493 Z M23.1104306,23.556111 L23.2218756,23.563037 C23.6599644,23.6178891 23.9990833,23.9918478 23.9990833,24.4447638 C23.9990833,24.9354228 23.6010896,25.3334166 23.1104306,25.3334166 L23.1104306,25.3334166 L8.88865278,25.3334166 L8.7772077,25.3264905 C8.33911896,25.2716384 8,24.8976798 8,24.4447638 C8,23.9541048 8.39799378,23.556111 8.88865278,23.556111 L8.88865278,23.556111 L23.1104306,23.556111 Z"></path>
</svg>