<svg xmlns="http://www.w3.org/2000/svg" width="32" height="32"><path d="M31.707 30.293l-4.443-4.443a7.957 7.957 0 0 0 1.413-4.547 8.023 8.023 0 1 0-2.737 6.035l-.009.008 4.363 4.36a1 1 0 0 0 1.414 0 1 1 0 0 0 0-1.414zm-11.04-2.96a6 6 0 1 1 6-6 6 6 0 0 1-6 6zm10.453-16.44A2.971 2.971 0 0 0 29 10h-1V7a3 3 0 0 0-3-3H12V3a3 3 0 0 0-3-3H3a3 3 0 0 0-3 3v19.777a3.265 3.265 0 0 0 2.68 3.17l.02.003A.948.948 0 0 0 3 26h7.334a1 1 0 0 0 0-2h-4.06c.047-.102.093-.227.131-.355l.005-.021 3.133-10.887c.119-.426.503-.734.96-.737H29a1 1 0 0 1 1 1v.009a.956.956 0 0 1-.035.258l.002-.007a1 1 0 0 0 1.931.521l.002-.007a2.991 2.991 0 0 0-.78-2.893zM26 10H10.503a3.022 3.022 0 0 0-2.878 2.149l-.006.021-3.133 10.893a1.27 1.27 0 0 1-1.219.923 1.26 1.26 0 0 1-.884-.36A1.242 1.242 0 0 1 2 22.765V3a1 1 0 0 1 1-1h6a1 1 0 0 1 1 1v2a1 1 0 0 0 1 1h14a1 1 0 0 1 1 1z"/></svg>