<svg version="1.1" xmlns="http://www.w3.org/2000/svg" width="32" height="32" viewBox="0 0 32 32">
<title>browse</title>
<path fill="#333" d="M29.167 29.333h-1.5c-0.736 0-1.333-0.597-1.333-1.333s0.597-1.333 1.333-1.333v0h1.49c0.053-0.003 0.101-0.021 0.141-0.050l-0.001 0c0.023-0.020 0.037-0.049 0.037-0.082 0-0 0-0.001 0-0.001v0-14.533h-26.667v14.55c0.010 0.067 0.067 0.117 0.135 0.117 0.005 0 0.010-0 0.015-0.001l-0.001 0h1.49c0.736 0 1.333 0.597 1.333 1.333s-0.597 1.333-1.333 1.333v0h-1.49c-0.004 0-0.009 0-0.013 0-1.541 0-2.792-1.244-2.803-2.782v-15.884c0-0.736 0.597-1.333 1.333-1.333v0h29.333c0.736 0 1.333 0.597 1.333 1.333v0 15.867c0 0.002 0 0.004 0 0.005 0 0.77-0.315 1.466-0.823 1.968l-0 0c-0.512 0.511-1.219 0.827-1.999 0.827-0.004 0-0.008 0-0.012-0h0.001zM32 7.333v-1.467c-0.015-1.586-1.305-2.867-2.893-2.867-0.007 0-0.014 0-0.021 0h-16.349l-1.18-1.743c-0.524-0.763-1.392-1.257-2.375-1.257-0.003 0-0.006 0-0.008 0h-6.29c-0.006-0-0.013-0-0.020-0-1.573 0-2.85 1.269-2.863 2.839v4.495c0 0.736 0.597 1.333 1.333 1.333s1.333-0.597 1.333-1.333v0-4.493c0.015-0.099 0.099-0.174 0.201-0.174 0.005 0 0.011 0 0.016 0.001l-0.001-0h6.29c0.002-0 0.004-0 0.006-0 0.068 0 0.129 0.033 0.167 0.083l0 0.001 1.577 2.333c0.243 0.354 0.646 0.583 1.102 0.583 0.002 0 0.003 0 0.005 0h17.056c0.005-0 0.010-0.001 0.016-0.001 0.117 0 0.214 0.087 0.231 0.199l0 0.001v1.467c0 0.736 0.597 1.333 1.333 1.333s1.333-0.597 1.333-1.333v0zM23.94 29.72l-3.433-3.41c0.778-1.105 1.243-2.478 1.243-3.961 0-0.006 0-0.011-0-0.017v0.001c0-0.005 0-0.011 0-0.017 0-3.881-3.146-7.027-7.027-7.027s-7.027 3.146-7.027 7.027c0 3.881 3.146 7.027 7.027 7.027 1.444 0 2.786-0.435 3.902-1.182l-0.025 0.016 3.46 3.437c0.241 0.239 0.573 0.387 0.94 0.387 0.737 0 1.334-0.597 1.334-1.334 0-0.37-0.151-0.705-0.394-0.947l-0-0zM10.333 22.333c0.067-2.365 2-4.256 4.375-4.256s4.308 1.891 4.375 4.25l0 0.006c0 0.002 0 0.005 0 0.008 0 1.191-0.484 2.27-1.267 3.049l-0 0c-0.793 0.794-1.889 1.285-3.1 1.285-2.406 0-4.359-1.939-4.383-4.339l-0-0.002z"></path>
</svg>
