<?xml version="1.0" encoding="utf-8"?>
<!-- Generator: Adobe Illustrator 20.1.0, SVG Export Plug-In . SVG Version: 6.00 Build 0)  -->
<svg version="1.1" id="Layer_1" xmlns="http://www.w3.org/2000/svg" xmlns:xlink="http://www.w3.org/1999/xlink" x="0px" y="0px"
	 viewBox="0 0 72 72" style="enable-background:new 0 0 72 72;" xml:space="preserve">
<path d="M68.2,64.2h-3.6c-0.6,0-1-0.4-1-1s0.4-1,1-1h3.6c1,0,1.8-0.8,1.8-1.9V23.8H2v36.5c0,1,0.8,1.9,1.8,1.9h4c0.6,0,1,0.4,1,1
	s-0.4,1-1,1h-4c-2.1,0-3.8-1.7-3.8-3.9V22.8c0-0.6,0.4-1,1-1h70c0.6,0,1,0.4,1,1v37.5C72,62.5,70.3,64.2,68.2,64.2z M71,19.3
	c-0.6,0-1-0.4-1-1v-4.6c0-1-0.8-1.8-1.8-1.8h-42c-2.3,0-3-2.2-3.5-4c-0.7-2.3-1.2-3.4-2.7-3.4H3.8C2.8,4.6,2,5.4,2,6.3l0,12
	c0,0.6-0.4,1-1,1s-1-0.4-1-1v-12c0.1-2.1,1.8-3.7,3.8-3.7h16.1c3.1,0,4,2.7,4.6,4.8c0.6,1.7,0.9,2.6,1.6,2.6h42
	c2.1,0,3.8,1.7,3.8,3.8v4.6C72,18.9,71.6,19.3,71,19.3z M32.4,62.1c-7.9,0-14.2-6.4-14.2-14.2s6.4-14.2,14.2-14.2
	s14.2,6.4,14.2,14.2c0,3.8-1.5,7.4-4.1,10C39.8,60.7,36.2,62.1,32.4,62.1z M32.4,35.7c-6.7,0-12.2,5.5-12.2,12.2
	c0,6.7,5.5,12.2,12.2,12.2c3.3,0,6.4-1.3,8.7-3.6c2.3-2.3,3.6-5.4,3.6-8.6C44.6,41.2,39.1,35.7,32.4,35.7z M52.9,69.2
	c-0.3,0-0.5-0.1-0.7-0.3L41.3,58c-0.4-0.4-0.4-1,0-1.4c0.4-0.4,1-0.4,1.4,0l10.9,10.9c0.4,0.4,0.4,1,0,1.4
	C53.4,69.1,53.1,69.2,52.9,69.2z"/>
</svg>
