<?xml version="1.0" encoding="utf-8"?>
<!-- Generator: Adobe Illustrator 20.1.0, SVG Export Plug-In . SVG Version: 6.00 Build 0)  -->
<svg version="1.1" id="Layer_1" xmlns="http://www.w3.org/2000/svg" xmlns:xlink="http://www.w3.org/1999/xlink" x="0px" y="0px"
	 viewBox="0 0 72 72" style="enable-background:new 0 0 72 72;" xml:space="preserve">
<g>
	<g>
		<g>
			<path d="M12,61c-0.1,0-0.3,0-0.4-0.1C11.2,60.8,11,60.4,11,60V43.4l-6.8-0.1C1.8,43.3,0,41.4,0,39.1V4.2C0,1.9,1.8,0.1,4.1,0
				L56,0l0,0c2.3,0,4.3,1.9,4.3,4.2v34.9c0,2.3-1.9,4.2-4.3,4.2l-23.9,0L12.6,60.7C12.5,60.9,12.2,61,12,61z M56,2L4.2,2
				C3,2,2,3,2,4.2v34.9c0,1.2,1,2.2,2.2,2.2l7.8,0.1c0.5,0,1,0.5,1,1v15.3l18.1-16.1c0.2-0.2,0.4-0.3,0.7-0.3l24.2,0
				c1.2,0,2.3-1,2.3-2.2V4.2C58.2,3,57.2,2,56,2L56,2z"/>
		</g>
	</g>
	<g>
		<g>
			<path d="M60,72c-0.2,0-0.5-0.1-0.7-0.3L39.9,54.4l-8.6,0c-0.6,0-1-0.4-1-1c0-0.6,0.4-1,1-1h0l8.9,0c0.2,0,0.5,0.1,0.7,0.3
				L59,68.8V53.5c0-0.5,0.4-1,1-1l7.8-0.1c1.2,0,2.2-1,2.2-2.2V15.2c0-1.2-1-2.2-2.2-2.2L67,13c-0.6,0-1-0.4-1-1s0.4-1,1-1h0.8
				c2.3,0.1,4.2,1.9,4.2,4.2v34.9c0,2.3-1.8,4.2-4.1,4.2L61,54.4V71c0,0.4-0.2,0.8-0.6,0.9C60.3,72,60.2,72,60,72z"/>
		</g>
	</g>
</g>
</svg>
