<svg xmlns="http://www.w3.org/2000/svg" viewBox="0 0 96 96"><path d="M17.89 82.17a4 4 0 0 1-4-4v-18.1L8 60a8.19 8.19 0 0 1-8-8.08V8.08A8.26 8.26 0 0 1 8.08 0h65.48C77.84 0 81 3.4 81 8.08v43.86c0 4.61-3.34 8.06-7.71 8.06H44.75L20.53 81.19a4.07 4.07 0 0 1-2.64.98zM8 8.17v43.77a.2.2 0 0 0 .14.08l9.79.09a4 4 0 0 1 4 4v13.26L40.62 53a4 4 0 0 1 2.63-1H73V8H8.3a.49.49 0 0 0-.3.17zM73.56 8zm4.55 88a4 4 0 0 1-2.7-1l-23-21.06-8.36.06a4 4 0 0 1 0-8l9.9-.13a3.91 3.91 0 0 1 2.76 1l17.5 16v-13a4 4 0 0 1 4-4l9.86-.1s.07-.06.07-.08V23.08a4 4 0 0 1 .53-8h.65c4.4 0 6.82 2.41 6.82 6.78v43.91a8.16 8.16 0 0 1-7.91 8.07l-6 .06V92a4 4 0 0 1-4 4zm11.54-72.86z" fill="#333"/></svg>