<svg version="1.1" xmlns="http://www.w3.org/2000/svg" width="32" height="32" viewBox="0 0 32 32">
<title>bubbles</title>
<path fill="#333" d="M5.963 27.39c-0.736 0-1.333-0.597-1.333-1.333v0-6.033l-1.963-0.023c-1.468-0.035-2.647-1.223-2.667-2.691l-0-0.002v-14.613c0.033-1.474 1.219-2.661 2.69-2.693l0.003-0h21.827c1.427 0 2.48 1.133 2.48 2.693v14.62c0 1.537-1.113 2.687-2.57 2.687h-9.513l-8.073 7.063c-0.235 0.202-0.543 0.326-0.88 0.327h-0zM2.667 2.723v14.59c0.011 0.015 0.027 0.025 0.046 0.027l0 0 3.263 0.030c0.736 0 1.333 0.597 1.333 1.333v0 4.42l6.23-5.457c0.233-0.206 0.54-0.332 0.876-0.333h9.917v-14.667h-21.567c-0.040 0.007-0.075 0.027-0.1 0.056l-0 0zM26.037 32c-0.005 0-0.012 0-0.018 0-0.339 0-0.648-0.126-0.883-0.335l0.001 0.001-7.667-7.020-2.787 0.020c-0.736 0-1.333-0.597-1.333-1.333s0.597-1.333 1.333-1.333v0l3.3-0.043c0.014-0.001 0.031-0.001 0.049-0.001 0.336 0 0.642 0.127 0.873 0.335l-0.001-0.001 5.833 5.333v-4.333c0-0.736 0.597-1.333 1.333-1.333v0l3.287-0.033s0.023-0.020 0.023-0.027v-14.203c-0.699-0.048-1.248-0.626-1.248-1.333 0-0.738 0.598-1.336 1.336-1.336 0.031 0 0.062 0.001 0.092 0.003l-0.004-0h0.217c1.467 0 2.273 0.803 2.273 2.26v14.637c-0.016 1.461-1.181 2.644-2.632 2.69l-0.004 0-2 0.020v6.033c0 0.736-0.597 1.333-1.333 1.333v0z"></path>
</svg>
