<svg xmlns="http://www.w3.org/2000/svg" width="32" height="32"><path d="M27 32a.997.997 0 0 1-.707-.293L20.586 26h-5.587a3 3 0 0 1-3-3V13a3 3 0 0 1 3-3h14a3 3 0 0 1 3 3v10a3 3 0 0 1-3 3h-1v5a1 1 0 0 1-.61.921l-.007.002a.953.953 0 0 1-.376.077h-.008zM15 12a1 1 0 0 0-1 1v10a1 1 0 0 0 1 1h6c.276 0 .526.112.707.293L26 28.586v-3.587a1 1 0 0 1 1-1h2a1 1 0 0 0 1-1v-10a1 1 0 0 0-1-1zm-9.293 9.707l4-4a1 1 0 0 0-1.414-1.413l.001-.001-2.293 2.293v-3.587a1 1 0 0 0-1-1h-2a1 1 0 0 1-1-1v-10a1 1 0 0 1 1-1h14a1 1 0 0 1 1 1v4a1 1 0 0 0 2 0v-4a3 3 0 0 0-3-3h-14a3 3 0 0 0-3 3v10a3 3 0 0 0 3 3h1v5a1 1 0 0 0 .61.921l.007.002c.111.048.24.077.376.077h.008a.997.997 0 0 0 .707-.293z"/></svg>