<svg xmlns="http://www.w3.org/2000/svg" width="32" height="32"><path d="M27.733 25.75l3.82-2.533a1 1 0 0 0-.157-1.751l-.006-.003-12.667-5.383a1 1 0 0 0-1.331 1.257l-.002-.007 4.87 14.003c.131.368.463.633.86.666h.085a.998.998 0 0 0 .876-.518l.003-.005 2.3-4.237 3.863 4.427a1.005 1.005 0 1 0 1.505-1.335l.001.001zM23.4 28.533l-3.38-9.73 8.88 3.773-3.333 2.207a1.01 1.01 0 0 0-.331.348l-.003.005zm-9.067-7.866H5c-2.757 0-5-2.123-5-4.733v-11.2C0 2.124 2.243.001 5 .001h22c2.757 0 5 2.123 5 4.733V15.935c0 .648-.137 1.265-.385 1.821l.011-.029a1 1 0 1 1-1.831-.8l-.002.007c.13-.295.206-.638.207-1v-11.2c0-1.507-1.333-2.733-3-2.733H5c-1.667 0-3 1.227-3 2.733v11.2c0 1.507 1.333 2.733 3 2.733h9.333a1 1 0 0 1 0 2z"/></svg>