<svg version="1.1" xmlns="http://www.w3.org/2000/svg" width="32" height="32" viewBox="0 0 32 32">
<title>button</title>
<path fill="#333" d="M14.63 18.667h-9.297c-2.946 0-5.333-2.388-5.333-5.333v0-5.333c0-2.946 2.388-5.333 5.333-5.333v0h21.333c2.946 0 5.333 2.388 5.333 5.333v0 4.667c0 0.736-0.597 1.333-1.333 1.333s-1.333-0.597-1.333-1.333v0-4.667c0-1.473-1.194-2.667-2.667-2.667v0h-21.333c-1.473 0-2.667 1.194-2.667 2.667v0 5.333c0 1.473 1.194 2.667 2.667 2.667v0h9.297c0.736 0 1.333 0.597 1.333 1.333s-0.597 1.333-1.333 1.333v0zM31.473 19.573l-11.333-8.633c-0.224-0.177-0.511-0.284-0.823-0.284-0.736 0-1.333 0.597-1.333 1.333 0 0.073 0.006 0.145 0.017 0.215l-0.001-0.008 2.057 13.82c0.068 0.442 0.345 0.807 0.726 0.997l0.008 0.003c0.169 0.086 0.368 0.137 0.579 0.137 0.003 0 0.005 0 0.008-0h-0c0.004 0 0.010 0 0.015 0 0.239 0 0.464-0.063 0.658-0.174l-0.007 0.003 3.507-1.96 2.183 3.667c0.223 0.444 0.674 0.743 1.195 0.743 0.736 0 1.333-0.597 1.333-1.333 0-0.287-0.091-0.553-0.245-0.77l0.003 0.004-2.143-3.61 3.457-1.923c0.411-0.232 0.684-0.667 0.684-1.165 0-0.432-0.206-0.816-0.524-1.060l-0.003-0.002z"></path>
</svg>
