<svg xmlns="http://www.w3.org/2000/svg" width="32" height="32"><path d="M31 24H1a1 1 0 0 1-1-1V9a1 1 0 0 1 1-1h30a1 1 0 0 1 1 1v14a1 1 0 0 1-1 1zM2 22h28V10H2zm25-2.333h-4a1 1 0 0 1 0-2h4a1 1 0 0 1 0 2zM18.08 16l1.96-1.96a1 1 0 0 0-1.414-1.413l.001-.001-1.96 1.96-1.96-1.96a1 1 0 0 0-1.413 1.414l-.001-.001 1.96 1.96-1.96 1.96a1 1 0 0 0 0 1.414 1 1 0 0 0 1.414 0l1.96-1.96 1.96 1.96a1 1 0 0 0 1.414 0 1 1 0 0 0 0-1.414zm-9 0l1.96-1.96a1 1 0 1 0-1.413-1.414l-.001.001-1.96 1.96-1.96-1.96a1 1 0 1 0-1.414 1.413l.001.001 1.96 1.96-1.96 1.96a1 1 0 0 0 0 1.414 1 1 0 0 0 1.414 0l1.96-1.96 1.96 1.96a1 1 0 0 0 1.414 0 1 1 0 0 0 0-1.414z"/></svg>