<?xml version="1.0" encoding="utf-8"?>
<!-- Generator: Adobe Illustrator 20.1.0, SVG Export Plug-In . SVG Version: 6.00 Build 0)  -->
<svg version="1.1" id="Layer_1" xmlns="http://www.w3.org/2000/svg" xmlns:xlink="http://www.w3.org/1999/xlink" x="0px" y="0px"
	 viewBox="0 0 72 72" style="enable-background:new 0 0 72 72;" xml:space="preserve">
<g>
	<g>
		<path d="M18,46.3c-0.2,0-0.5-0.1-0.7-0.3c-0.4-0.4-0.4-1,0-1.4L35.2,26c0.2-0.2,0.4-0.3,0.7-0.3c0,0,0,0,0,0
			c0.3,0,0.5,0.1,0.7,0.3l18.1,18.6c0.4,0.4,0.4,1,0,1.4c-0.4,0.4-1,0.4-1.4,0L35.9,28.1L18.7,46C18.5,46.2,18.3,46.3,18,46.3z"/>
	</g>
</g>
</svg>
