<svg version="1.1" xmlns="http://www.w3.org/2000/svg" width="32" height="32" viewBox="0 0 32 32">
<title>caret-up</title>
<path fill="#333" d="M9.333 20c-0.736-0-1.333-0.597-1.333-1.333 0-0.324 0.116-0.621 0.308-0.852l-0.002 0.002 6.633-8c0.245-0.294 0.61-0.481 1.020-0.483h0c0.005-0 0.012-0 0.018-0 0.409 0 0.776 0.184 1.020 0.475l0.002 0.002 6.703 8c0.194 0.23 0.311 0.53 0.311 0.857 0 0.737-0.598 1.335-1.335 1.335-0.41 0-0.777-0.185-1.022-0.476l-0.002-0.002-5.667-6.773-5.63 6.767c-0.246 0.296-0.615 0.483-1.027 0.483h-0z"></path>
</svg>
