<svg version="1.1" xmlns="http://www.w3.org/2000/svg" width="32" height="32" viewBox="0 0 32 32">
<title>caret-down</title>
<path fill="#333" d="M15.967 22.667c-0.41-0.002-0.775-0.189-1.018-0.481l-0.002-0.002-6.633-8c-0.177-0.224-0.284-0.511-0.284-0.823 0-0.736 0.597-1.333 1.333-1.333 0.4 0 0.759 0.176 1.003 0.455l0.001 0.002 5.61 6.767 5.667-6.773c0.246-0.293 0.613-0.478 1.023-0.478 0.737 0 1.335 0.598 1.335 1.335 0 0.327-0.118 0.627-0.313 0.859l0.002-0.002-6.69 8c-0.246 0.292-0.612 0.477-1.022 0.477-0.004 0-0.008-0-0.012-0h0.001z"></path>
</svg>
