<svg version="1.1" xmlns="http://www.w3.org/2000/svg" width="32" height="32" viewBox="0 0 32 32">
<title>caret-next</title>
<path fill="#333" d="M13.333 24c-0.001 0-0.001 0-0.002 0-0.736 0-1.333-0.597-1.333-1.333 0-0.41 0.185-0.777 0.477-1.022l0.002-0.002 6.773-5.667-6.767-5.617c-0.28-0.246-0.456-0.604-0.456-1.004 0-0.736 0.597-1.333 1.333-1.333 0.312 0 0.599 0.107 0.826 0.286l-0.003-0.002 8 6.633c0.295 0.245 0.482 0.612 0.483 1.023v0c0 0.004 0 0.010 0 0.015 0 0.409-0.184 0.776-0.475 1.020l-0.002 0.002-8 6.703c-0.227 0.185-0.52 0.297-0.839 0.297-0.006 0-0.013-0-0.019-0h0.001z"></path>
</svg>
