<svg xmlns="http://www.w3.org/2000/svg" width="32" height="32"><path d="M23.833 24h-.002c-.326 0-.625-.117-.857-.312l.002.002-8-6.69a1.332 1.332 0 0 1-.477-1.022v-.005a1.33 1.33 0 0 1 .497-1.031l.003-.002 8-6.633a1.333 1.333 0 0 1 1.702 2.051l-.003.002-6.783 5.61 6.773 5.667A1.332 1.332 0 0 1 23.842 24h-.011.001zm-6.643-.477a1.33 1.33 0 0 0-.164-1.878l-.002-.002-6.773-5.667 6.767-5.61a1.333 1.333 0 1 0-1.684-2.059l.001-.001-8 6.633c-.294.245-.481.61-.483 1.02v.032c0 .402.178.762.459 1.006l.002.001 8 6.703a1.33 1.33 0 0 0 1.878-.164l.002-.002z"/></svg>
