<svg version="1.1" xmlns="http://www.w3.org/2000/svg" width="32" height="32" viewBox="0 0 32 32">
<title>caret-back</title>
<path fill="#333" d="M18.667 24c-0.001 0-0.001 0-0.002 0-0.326 0-0.625-0.117-0.857-0.312l0.002 0.002-8-6.69c-0.292-0.246-0.477-0.612-0.477-1.022 0-0.005 0-0.010 0-0.016v0.001c0.001-0.411 0.188-0.778 0.481-1.022l0.002-0.002 8-6.633c0.233-0.204 0.541-0.329 0.877-0.329 0.736 0 1.333 0.597 1.333 1.333 0 0.425-0.198 0.803-0.508 1.047l-0.003 0.002-6.767 5.61 6.773 5.667c0.298 0.246 0.487 0.616 0.487 1.030 0 0.736-0.597 1.333-1.333 1.333-0.004 0-0.007 0-0.011-0h0.001z"></path>
</svg>
