<svg xmlns="http://www.w3.org/2000/svg" viewBox="0 0 96 96"><path d="M79 88a8 8 0 1 1-8-8 8 8 0 0 1 8 8zm-47-8a8 8 0 1 0 8 8 8 8 0 0 0-8-8zm47-18a4 4 0 0 0 3.78-2.71l13-38a4 4 0 1 0-7.56-2.58L76.14 54H35.86L23.78 18.71a.14.14 0 0 0 0-.06l-6-16A4 4 0 0 0 14 0H4a4 4 0 0 0 0 8h7.23l5 13.35 12.36 36.11-7.95 12.38A4 4 0 0 0 24 76h55a4 4 0 0 0 0-8H31.33l3.85-6zm-7.16-48.82L60.69 2a6.59 6.59 0 0 0-9.37 0L40.16 13.18a4 4 0 0 0 5.68 5.64l6.16-6.2V40a4 4 0 0 0 8 0V12.61l6.16 6.21a4 4 0 0 0 5.68-5.64z" fill="#333"/></svg>