<svg xmlns="http://www.w3.org/2000/svg" width="32" height="32"><path d="M18.333 32A3.667 3.667 0 1 1 22 28.333 3.667 3.667 0 0 1 18.333 32zm0-5.333A1.667 1.667 0 1 0 20 28.334c0-.92-.746-1.667-1.667-1.667zM8.333 32A3.667 3.667 0 1 1 12 28.333 3.667 3.667 0 0 1 8.333 32zm0-5.333A1.667 1.667 0 1 0 10 28.334c0-.92-.746-1.667-1.667-1.667zm15.03-6.234L27.696 4.16a2.004 2.004 0 0 1 1.919-1.493h1.384a1 1 0 0 0 0-2h-1.383a4.002 4.002 0 0 0-3.86 2.952l-.006.028-4.333 16.273c-.115.429-.497.74-.953.747H6.037a1 1 0 0 1-.972-.767l-.001-.007-3.103-10.56a1 1 0 1 0-1.918.573l-.002-.007 3.1 10.53a3.007 3.007 0 0 0 2.896 2.237h14.427a3.002 3.002 0 0 0 2.895-2.212l.005-.021zM19.03 5.293l-5-5a1.276 1.276 0 0 0-.14-.125l-.003-.002-.07-.037a.708.708 0 0 0-.095-.051l-.005-.002-.1-.03-.087-.027a.932.932 0 0 0-.4.001l.006-.001-.087.027-.1.03a.709.709 0 0 0-.103.055l.003-.002-.07.037c-.057.04-.107.081-.153.127l-5 5a1 1 0 0 0 0 1.414 1 1 0 0 0 1.414 0l3.293-3.293v10.92a1 1 0 0 0 2 0V3.414l3.293 3.293a1 1 0 0 0 1.414 0 1 1 0 0 0 0-1.414z"/></svg>