<svg xmlns="http://www.w3.org/2000/svg" viewBox="0 0 96 96"><path d="M79 88a8 8 0 1 1-8-8 8 8 0 0 1 8 8zm-47-8a8 8 0 1 0 8 8 8 8 0 0 0-8-8zm47-18a4 4 0 0 0 3.79-2.71l1.84-5.4a4 4 0 1 0-7.57-2.59l-.92 2.7H35.86L25.6 24h12.16a4 4 0 0 0 0-8h-15l-5-13.4A4 4 0 0 0 14 0H4a4 4 0 0 0 0 8h7.23l5 13.35 12.36 36.11-7.95 12.38A4 4 0 0 0 24 76h55a4 4 0 0 0 0-8H31.33l3.85-6zm-4.5-18.88c3.59-2.87 21.5-17.77 21.5-29a13.46 13.46 0 0 0-5-10.8A16.14 16.14 0 0 0 80.92 0 14.47 14.47 0 0 0 72 2.8 14.47 14.47 0 0 0 63.08 0a16.14 16.14 0 0 0-10 3.34 13.46 13.46 0 0 0-5 10.8c0 11.21 17.91 26.11 21.5 29a4 4 0 0 0 5 0zM68 10.91a4 4 0 0 0 8 0C76 8.61 79.22 8 80.92 8a8.21 8.21 0 0 1 5 1.61 5.38 5.38 0 0 1 2 4.53C88 19 79.32 28.47 72 34.8c-11-9.37-16-17.59-16-20.66a5.38 5.38 0 0 1 2-4.53A8.21 8.21 0 0 1 63 8c1.78 0 5 .61 5 2.91z" fill="#333"/></svg>