<svg version="1.1" xmlns="http://www.w3.org/2000/svg" width="32" height="32" viewBox="0 0 32 32">
<title>cart</title>
<path fill="#333" d="M26.333 20.667c0.582-0.001 1.076-0.374 1.257-0.894l0.003-0.009 4.333-12.667c0.045-0.128 0.071-0.276 0.071-0.43 0-0.736-0.596-1.332-1.331-1.333h-23.077l-1.667-4.467c-0.195-0.511-0.68-0.867-1.249-0.867-0.003 0-0.005 0-0.008 0h-3.333c-0.736 0-1.333 0.597-1.333 1.333s0.597 1.333 1.333 1.333v0h2.41l1.667 4.45 4.12 12.037-2.65 4.127c-0.132 0.204-0.211 0.453-0.211 0.72 0 0.736 0.596 1.332 1.331 1.333h18.333c0.736 0 1.333-0.597 1.333-1.333s-0.597-1.333-1.333-1.333v0h-15.89l1.283-2zM8.533 8h20.267l-3.42 10h-13.427zM13.333 29.333c0 1.473-1.194 2.667-2.667 2.667s-2.667-1.194-2.667-2.667c0-1.473 1.194-2.667 2.667-2.667v0c1.473 0 2.667 1.194 2.667 2.667v0zM26.333 29.333c0 1.473-1.194 2.667-2.667 2.667s-2.667-1.194-2.667-2.667c0-1.473 1.194-2.667 2.667-2.667v0c1.473 0 2.667 1.194 2.667 2.667v0z"></path>
</svg>
