<svg xmlns="http://www.w3.org/2000/svg" width="32" height="32"><path d="M18.333 32A3.667 3.667 0 1 1 22 28.333 3.667 3.667 0 0 1 18.333 32zm0-5.333A1.667 1.667 0 1 0 20 28.334c0-.92-.746-1.667-1.667-1.667zM8.333 32A3.667 3.667 0 1 1 12 28.333 3.667 3.667 0 0 1 8.333 32zm0-5.333A1.667 1.667 0 1 0 10 28.334c0-.92-.746-1.667-1.667-1.667zm15.03-6.234L27.696 4.16a2.004 2.004 0 0 1 1.919-1.493h1.384a1 1 0 0 0 0-2h-1.383a4.002 4.002 0 0 0-3.86 2.952l-.006.028-4.333 16.273c-.115.429-.497.74-.953.747H6.037a1 1 0 0 1-.972-.767l-.001-.007-3.103-10.56a1 1 0 1 0-1.918.573l-.002-.007 3.1 10.53a3.007 3.007 0 0 0 2.896 2.237h14.427a3.002 3.002 0 0 0 2.895-2.212l.005-.021zm-10.03-5.1a1 1 0 0 1-.72-.306L7.073 9.27A4.226 4.226 0 0 1 5.83 6.271c0-.698.169-1.357.468-1.938l-.011.024a4.296 4.296 0 0 1 5.761-1.895l-.025-.011c.427.216.794.483 1.11.8l.2.197.2-.197c.775-.77 1.844-1.246 3.023-1.246s2.248.476 3.024 1.247c.315.318.582.683.788 1.085l.012.025c.286.557.454 1.214.454 1.911a4.24 4.24 0 0 1-1.253 3.015l-5.533 5.74a1 1 0 0 1-.713.307zM10.113 4h-.002c-.885 0-1.653.504-2.032 1.24l-.006.013a2.252 2.252 0 0 0 .426 2.613l4.833 5.023 4.827-5a2.26 2.26 0 0 0 .434-2.642l.006.013a2.25 2.25 0 0 0-.433-.593c-.413-.411-.983-.665-1.612-.665s-1.198.254-1.612.665l-.903.9a1 1 0 0 1-1.414 0l-.903-.9A2.278 2.278 0 0 0 10.112 4z"/></svg>