<svg version="1.1" xmlns="http://www.w3.org/2000/svg" width="32" height="32" viewBox="0 0 32 32">
<title>cart-wishlist</title>
<path fill="#333" d="M26.333 29.333c0 1.473-1.194 2.667-2.667 2.667s-2.667-1.194-2.667-2.667c0-1.473 1.194-2.667 2.667-2.667v0c1.473 0 2.667 1.194 2.667 2.667v0zM10.667 26.667c-1.473 0-2.667 1.194-2.667 2.667s1.194 2.667 2.667 2.667c1.473 0 2.667-1.194 2.667-2.667v0c0-1.473-1.194-2.667-2.667-2.667v0zM26.333 20.667c0 0 0.001 0 0.001 0 0.582 0 1.078-0.373 1.259-0.894l0.003-0.009 0.613-1.8c0.046-0.129 0.072-0.277 0.072-0.432 0-0.736-0.597-1.333-1.333-1.333-0.582 0-1.077 0.373-1.259 0.892l-0.003 0.009-0.307 0.9h-13.427l-3.42-10h4.053c0.736 0 1.333-0.597 1.333-1.333s-0.597-1.333-1.333-1.333v0h-5l-1.667-4.467c-0.195-0.511-0.68-0.867-1.249-0.867-0.002 0-0.003 0-0.005 0h-3.333c-0.736 0-1.333 0.597-1.333 1.333s0.597 1.333 1.333 1.333v0h2.41l1.667 4.45 4.12 12.037-2.65 4.127c-0.132 0.204-0.211 0.453-0.211 0.72 0 0.736 0.596 1.332 1.331 1.333h18.333c0.736 0 1.333-0.597 1.333-1.333s-0.597-1.333-1.333-1.333v0h-15.89l1.283-2zM24.833 14.373c1.197-0.957 7.167-5.923 7.167-9.667 0.001-0.033 0.001-0.071 0.001-0.109 0-1.406-0.647-2.662-1.66-3.484l-0.008-0.007c-0.896-0.691-2.034-1.107-3.27-1.107-0.032 0-0.064 0-0.095 0.001l0.005-0c-0.036-0.001-0.078-0.001-0.12-0.001-1.074 0-2.065 0.351-2.867 0.944l0.013-0.009c-0.788-0.584-1.78-0.935-2.854-0.935-0.042 0-0.084 0.001-0.126 0.002l0.006-0c-0.017-0-0.036-0-0.056-0-1.239 0-2.38 0.419-3.29 1.123l0.012-0.009c-1.021 0.829-1.668 2.084-1.668 3.491 0 0.038 0 0.077 0.001 0.115l-0-0.006c0 3.737 5.97 8.703 7.167 9.667 0.226 0.182 0.517 0.293 0.833 0.293s0.607-0.11 0.836-0.294l-0.003 0.002zM22.667 3.637c0 0.736 0.597 1.333 1.333 1.333s1.333-0.597 1.333-1.333v0c0-0.767 1.073-0.97 1.64-0.97 0.012-0 0.025-0 0.039-0 0.613 0 1.179 0.202 1.635 0.542l-0.007-0.005c0.41 0.331 0.67 0.834 0.67 1.398 0 0.039-0.001 0.078-0.004 0.117l0-0.005c0.027 1.62-2.867 4.777-5.307 6.887-3.667-3.123-5.333-5.863-5.333-6.887-0.002-0.033-0.003-0.073-0.003-0.112 0-0.564 0.26-1.067 0.667-1.395l0.003-0.003c0.449-0.335 1.015-0.537 1.628-0.537 0.014 0 0.027 0 0.041 0l-0.002-0c0.593 0 1.667 0.203 1.667 0.97z"></path>
</svg>
