<svg version="1.1" xmlns="http://www.w3.org/2000/svg" width="32" height="32" viewBox="0 0 32 32">
<title>cart-upload</title>
<path fill="#333" d="M26.333 29.333c0 1.473-1.194 2.667-2.667 2.667s-2.667-1.194-2.667-2.667c0-1.473 1.194-2.667 2.667-2.667v0c1.473 0 2.667 1.194 2.667 2.667v0zM10.667 26.667c-1.473 0-2.667 1.194-2.667 2.667s1.194 2.667 2.667 2.667c1.473 0 2.667-1.194 2.667-2.667v0c0-1.473-1.194-2.667-2.667-2.667v0zM26.333 20.667c0.582-0.001 1.076-0.374 1.257-0.894l0.003-0.009 4.333-12.667c0.061-0.148 0.097-0.319 0.097-0.499 0-0.736-0.597-1.333-1.333-1.333-0.608 0-1.121 0.407-1.281 0.963l-0.002 0.009-4.027 11.763h-13.427l-4.027-11.763c0.001-0.003 0.001-0.006 0.001-0.010s-0-0.007-0.001-0.010l0 0-2-5.333c-0.19-0.519-0.68-0.883-1.255-0.883-0.002 0-0.003 0-0.005 0h-3.333c-0.736 0-1.333 0.597-1.333 1.333s0.597 1.333 1.333 1.333v0h2.41l1.667 4.45 4.12 12.037-2.65 4.127c-0.132 0.204-0.211 0.453-0.211 0.72 0 0.736 0.596 1.332 1.331 1.333h18.333c0.736 0 1.333-0.597 1.333-1.333s-0.597-1.333-1.333-1.333v0h-15.89l1.283-2zM23.947 4.393l-3.717-3.727c-0.398-0.403-0.951-0.652-1.562-0.652s-1.163 0.249-1.561 0.652l-0 0-3.72 3.727c-0.239 0.241-0.387 0.573-0.387 0.94 0 0.737 0.597 1.334 1.334 1.334 0.37 0 0.705-0.151 0.947-0.394l0-0 2.053-2.067v9.127c0 0.736 0.597 1.333 1.333 1.333s1.333-0.597 1.333-1.333v0-9.13l2.053 2.070c0.242 0.243 0.577 0.394 0.947 0.394 0.737 0 1.334-0.597 1.334-1.334 0-0.367-0.148-0.699-0.387-0.94l0 0z"></path>
</svg>
