<svg xmlns="http://www.w3.org/2000/svg" width="32" height="32"><path d="M20.667 14.833H10a1 1 0 0 1-1-1V7.166a1 1 0 0 1 1-1h10.667a1 1 0 0 1 1 1v6.667a1 1 0 0 1-1 1zm-9.667-2h8.667V8.166H11zM29.133 2h-1.8V1a1 1 0 0 0-1-1H3a1 1 0 0 0-1 1v5.333H1a1 1 0 0 0 0 2h1V15H1a1 1 0 0 0 0 2h1v6.333H1a1 1 0 0 0 0 2h1V31a1 1 0 0 0 1 1h23.333a1 1 0 0 0 1-1v-9h1.8A2.94 2.94 0 0 0 32 19.061l-.001-.064V19 5L32 4.939A2.94 2.94 0 0 0 29.136 2h-.004zm-1.8 8H30v4h-2.667zm1.8-6A.945.945 0 0 1 30 5.002v-.003 3h-2.667v-4zm-3.8 26H4v-4.667h1a1 1 0 0 0 0-2H4V17h1a1 1 0 0 0 0-2H4V8.333h1a1 1 0 0 0 0-2H4V2h21.333v28zm3.8-10h-1.8v-4H30v3l.002.06c0 .495-.381.9-.865.94h-.003z"/></svg>