<svg xmlns="http://www.w3.org/2000/svg" viewBox="0 0 96 96"><path d="M86 0H18a6 6 0 0 0-6 6v5.34a19.46 19.46 0 0 0-6 2.17 4 4 0 0 0 3.92 7 10.68 10.68 0 0 1 2-.9v7.75a19.46 19.46 0 0 0-6 2.17 4 4 0 1 0 3.92 7 10.68 10.68 0 0 1 2-.9v7.75a19.46 19.46 0 0 0-6 2.17 4 4 0 0 0 3.92 7 10.68 10.68 0 0 1 2-.9v7.75a19.46 19.46 0 0 0-6 2.17 4 4 0 0 0 3.92 7 10.68 10.68 0 0 1 2-.9v7.75a19.46 19.46 0 0 0-6 2.17 4 4 0 1 0 3.92 7 10.68 10.68 0 0 1 2-.9V90a6 6 0 0 0 6 6H86a6 6 0 0 0 6-6V6a6 6 0 0 0-6-6zm-2 88H20v-4.33a11.77 11.77 0 0 1 2.06.83 4 4 0 0 0 3.9-7 21.72 21.72 0 0 0-6-2.07v-7.76a11.77 11.77 0 0 1 2.06.83 4 4 0 0 0 3.9-7 21.72 21.72 0 0 0-6-2.07v-7.76a11.77 11.77 0 0 1 2.06.83 4 4 0 0 0 3.9-7 21.72 21.72 0 0 0-6-2.07v-7.76a11.77 11.77 0 0 1 2.06.83 4 4 0 0 0 3.9-7 21.72 21.72 0 0 0-6-2.07v-7.76a11.77 11.77 0 0 1 2.06.83 4 4 0 0 0 3.9-7 21.72 21.72 0 0 0-6-2.07V8H84zM72 48H40a4 4 0 0 1-4-4V20a4 4 0 0 1 4-4h32a4 4 0 0 1 4 4v24a4 4 0 0 1-4 4zm-28-8h24V24H44z" fill="#333"/></svg>