<svg version="1.1" xmlns="http://www.w3.org/2000/svg" width="32" height="32" viewBox="0 0 32 32">
<title>category</title>
<path fill="#333" d="M29.377 8.793c-0.020-0.021-0.042-0.041-0.065-0.059l-0.001-0.001c0.123-0.413 0.203-0.683 0.22-0.743 0.088-0.251 0.139-0.541 0.139-0.842 0-0.693-0.268-1.323-0.707-1.793l0.001 0.002c-0.383-0.417-3.73-4.097-4.113-4.52-0.455-0.516-1.118-0.841-1.856-0.841-0.328 0-0.641 0.064-0.927 0.18l0.017-0.006c-0.333 0.127-6 2.057-9.733 3.333-0.222 0.074-0.411 0.2-0.559 0.362l-0.001 0.001-9.537 10.503c-2.393 2.63-2.587 6.54-0.433 8.927l6.463 7c0.927 1.044 2.271 1.7 3.769 1.703h0.017c1.809-0.053 3.418-0.867 4.524-2.133l0.006-0.007 5.733-6.297c0.213-0.237 0.343-0.551 0.343-0.897 0-0.742-0.601-1.343-1.343-1.343-0.397 0-0.753 0.172-0.999 0.445l-0.001 0.001-5.703 6.293c-0.624 0.736-1.531 1.215-2.551 1.27l-0.009 0c-0.722-0.002-1.368-0.322-1.807-0.827l-0.002-0.003-6.463-7c-1.193-1.333-1-3.767 0.433-5.333l9.303-10.26c2-0.667 8.387-2.85 9.407-3.21 0.6 0.667 3.687 4.057 4.050 4.45-0 0.005-0.001 0.011-0.001 0.017s0 0.012 0.001 0.017l-0-0.001c-0.097 0.3-1.41 4.803-2.267 7.77-0.043 0.125-0.067 0.268-0.067 0.418 0 0.736 0.597 1.333 1.333 1.333 0.622 0 1.144-0.426 1.292-1.002l0.002-0.009 1.070-3.667c0.91 1.86 0.877 4.037-0.23 5.333-0.517 0.598-1.276 0.974-2.124 0.974-0.012 0-0.023-0-0.035-0l0.002 0c-1.167 0-2.39-0.617-3.353-1.693-0.992-1.094-1.599-2.554-1.599-4.155 0-0.265 0.017-0.526 0.049-0.783l-0.003 0.031c0.137 0.055 0.295 0.087 0.461 0.087 0.277 0 0.534-0.089 0.742-0.239l-0.004 0.003c0.728-0.516 1.197-1.354 1.197-2.303 0-0.011-0-0.022-0-0.032v0.002c0-1.473-1.194-2.667-2.667-2.667s-2.667 1.194-2.667 2.667v0c0 0.001 0 0.002 0 0.004 0 0.176 0.015 0.349 0.043 0.518l-0.003-0.018c0.058 0.311 0.217 0.578 0.442 0.772l0.002 0.001c-0.667 2.533 0.023 5.63 2.020 7.863 1.47 1.653 3.417 2.61 5.34 2.61 0.016 0 0.034 0 0.053 0 1.645 0 3.119-0.734 4.111-1.893l0.006-0.007c2.323-2.707 1.99-7.227-0.76-10.307z"></path>
</svg>
