<svg xmlns="http://www.w3.org/2000/svg" width="32" height="32"><path d="M24.333 10a3 3 0 1 1 0-6 3 3 0 1 1 0 6zm0-4a1 1 0 0 0 0 2 1 1 0 0 0 .707-1.707.997.997 0 0 0-.707-.293zm-2 1zm-5.9 25a3.03 3.03 0 0 1-2.003-.76l.003.003L.966 19.493a3.037 3.037 0 0 1-.956-2.215c0-.809.316-1.545.831-2.09l-.001.001L14.21.962a3.064 3.064 0 0 1 2.23-.963h12.507A3.056 3.056 0 0 1 32 3.052v12.537a3.017 3.017 0 0 1-.828 2.078l.001-.001-12.507 13.367a3.063 3.063 0 0 1-2.233.967zm0-30a1.075 1.075 0 0 0-.766.333l-13.38 14.23a1.041 1.041 0 0 0 .046 1.48l.001.001.03.03 13.377 11.667a1.057 1.057 0 0 0 1.47-.073v-.001L29.718 16.31c.176-.188.283-.441.283-.719V3.053c0-.582-.472-1.053-1.053-1.053H16.442z"/></svg>