<?xml version="1.0" encoding="utf-8"?>
<!-- Generator: Adobe Illustrator 20.1.0, SVG Export Plug-In . SVG Version: 6.00 Build 0)  -->
<svg version="1.1" id="Layer_2" xmlns="http://www.w3.org/2000/svg" xmlns:xlink="http://www.w3.org/1999/xlink" x="0px" y="0px"
	 viewBox="0 0 72 72" style="enable-background:new 0 0 72 72;" xml:space="preserve">
<g>
	<g>
		<path d="M60.5,43.8c-4,0-8-1.7-11.1-4.8c-5.8-5.7-6.7-14.4-1.8-19.4c0.4-0.4,1-0.4,1.4,0c0.4,0.4,0.4,1,0,1.4
			c-4.1,4.1-3.3,11.6,1.8,16.5c2.7,2.7,6.3,4.2,9.7,4.2c2.7,0,5.1-1,6.9-2.7c4.1-4.1,3.3-11.6-1.8-16.5c-0.6-0.6-1.3-1.2-2-1.7
			c-0.5-0.3-0.6-0.9-0.3-1.4c0.3-0.5,0.9-0.6,1.4-0.3c0.8,0.6,1.6,1.2,2.3,1.9c5.8,5.7,6.6,14.4,1.8,19.4
			C66.7,42.6,63.8,43.8,60.5,43.8z"/>
	</g>
	<g>
		<path d="M48.5,27.3c-0.5,0-0.9-0.3-1-0.8c-0.1-0.5,0.3-1.1,0.8-1.2c2.3-0.4,3.9-2.4,3.9-4.7c0-2.6-2.1-4.7-4.8-4.7
			c-2.6,0-4.7,2.1-4.7,4.7c0,1,0.3,1.9,0.8,2.7c0.3,0.5,0.2,1.1-0.3,1.4c-0.5,0.3-1.1,0.2-1.4-0.3c-0.8-1.1-1.2-2.4-1.2-3.8
			c0-3.7,3-6.7,6.7-6.7c3.7,0,6.8,3,6.8,6.7c0,3.3-2.3,6.1-5.6,6.6C48.7,27.3,48.6,27.3,48.5,27.3z"/>
	</g>
	<g>
		<path d="M25.5,68.4c-2.7,0-5.3-1-7.3-3L3,50.4c-4.3-4.3-3.8-11.8,1-16.7l22.5-22.5c0.1-0.1,0.3-0.2,0.4-0.2
			c7.7-2.4,22.3-6.9,23-7.1c1.4-0.5,3-0.2,4.1,0.9c0.9,0.9,8.8,8.8,9.7,9.7c1.1,1.1,1.4,2.4,0.9,3.9C64.4,19,61.2,29,59,35.7
			l-1.2,3.7c-0.2,0.5-0.7,0.8-1.3,0.6c-0.5-0.2-0.8-0.7-0.6-1.3l1.2-3.7c2.2-7.1,5.3-16.7,5.6-17.4c0.3-0.7,0.1-1.3-0.4-1.8
			c-0.9-0.9-8.8-8.8-9.7-9.7c-0.6-0.6-1.5-0.6-2-0.4C49.7,6,30.2,12,27.7,12.8L5.4,35.1c-4.1,4.1-4.6,10.3-1,13.9l15.2,15
			c3.5,3.5,9.4,3.1,13.5-0.9l19.7-19.7c0.4-0.4,1-0.4,1.4,0s0.4,1,0,1.4L34.6,64.5C31.9,67.1,28.7,68.4,25.5,68.4z"/>
	</g>
</g>
</svg>
