<svg xmlns="http://www.w3.org/2000/svg" width="32" height="32"><path d="M31 32H1a1 1 0 0 1-1-1V1a1 1 0 0 1 1-1h30a1 1 0 0 1 1 1v30a1 1 0 0 1-1 1zM2 30h28V2H2zm11.77-6.413c.218-.149.405-.326.559-.528l.004-.006L24.79 9.613a1 1 0 0 0-1.578-1.228l-.002.002L12.743 21.84a.427.427 0 0 1-.098.092l-.002.001a.376.376 0 0 1-.289.06h.002a.43.43 0 0 1-.269-.192l-.001-.002-3.267-4.71a.998.998 0 0 0-1.79.613c0 .195.056.378.153.532l-.002-.004 3.25 4.69c.349.528.89.905 1.521 1.031l.015.003c.137.03.294.047.455.047h.012-.001.002c.499 0 .961-.155 1.342-.418l-.008.005z"/></svg>