<svg version="1.1" xmlns="http://www.w3.org/2000/svg" width="32" height="32" viewBox="0 0 32 32">
<title>checkbox-multiple</title>
<path fill="#333" d="M30.667 25h-14.667c-0.736 0-1.333-0.597-1.333-1.333s0.597-1.333 1.333-1.333v0h14.667c0.736 0 1.333 0.597 1.333 1.333s-0.597 1.333-1.333 1.333v0zM12 28v-9.333c0-0.736-0.597-1.333-1.333-1.333v0h-9.333c-0.736 0-1.333 0.597-1.333 1.333v0 9.333c0 0.736 0.597 1.333 1.333 1.333v0h9.333c0.736 0 1.333-0.597 1.333-1.333v0zM2.667 20h6.667v6.667h-6.667zM30.667 10h-14.667c-0.736 0-1.333-0.597-1.333-1.333s0.597-1.333 1.333-1.333v0h14.667c0.736 0 1.333 0.597 1.333 1.333s-0.597 1.333-1.333 1.333v0zM12 13.333v-9.333c0-0.736-0.597-1.333-1.333-1.333v0h-9.333c-0.736 0-1.333 0.597-1.333 1.333v0 9.333c0 0.736 0.597 1.333 1.333 1.333v0h9.333c0.736 0 1.333-0.597 1.333-1.333v0zM2.667 5.333h6.667v6.667h-6.667zM5.543 11c0.231-0.003 0.434-0.123 0.552-0.304l0.002-0.003 2.133-3.333c0.066-0.102 0.105-0.226 0.105-0.36 0-0.369-0.299-0.669-0.669-0.669-0.236 0-0.443 0.122-0.562 0.306l-0.002 0.003-1.583 2.48-0.633-0.937c-0.122-0.178-0.324-0.294-0.553-0.294-0.369 0-0.667 0.299-0.667 0.668 0 0.139 0.043 0.269 0.116 0.376l-0.002-0.002 1.22 1.777c0.122 0.178 0.323 0.293 0.552 0.293 0 0 0.001 0 0.001 0h-0z"></path>
</svg>
