<svg version="1.1" xmlns="http://www.w3.org/2000/svg" width="32" height="32" viewBox="0 0 32 32">
<title>checkmark</title>
<path fill="#333" d="M11.913 27.333c-0.369-0.001-0.702-0.151-0.943-0.393l-0-0-10.583-10.667c-0.225-0.238-0.363-0.56-0.363-0.914 0-0.736 0.597-1.333 1.333-1.333 0.358 0 0.684 0.141 0.923 0.372l-0-0 9.607 9.667 17.807-19c0.244-0.26 0.59-0.421 0.973-0.421 0.737 0 1.335 0.598 1.335 1.335 0 0.354-0.138 0.675-0.362 0.914l0.001-0.001-18.753 20c-0.236 0.263-0.574 0.432-0.951 0.443l-0.002 0z"></path>
</svg>
