<svg version="1.1" xmlns="http://www.w3.org/2000/svg" width="32" height="32" viewBox="0 0 32 32">
<title>checkbox</title>
<path fill="#333" d="M25.333 26.667h-18.667c-0.736 0-1.333-0.597-1.333-1.333v0-18.667c0-0.736 0.597-1.333 1.333-1.333v0h18.667c0.736 0 1.333 0.597 1.333 1.333v0 18.667c0 0.736-0.597 1.333-1.333 1.333v0zM8 24h16v-16h-16zM14.533 21.333c0.4-0.005 0.757-0.186 0.998-0.468l0.002-0.002 6.8-8c0.135-0.205 0.216-0.457 0.216-0.727 0-0.736-0.597-1.333-1.333-1.333-0.339 0-0.648 0.127-0.884 0.335l0.001-0.001-5.847 6.843-2.82-3.137c-0.247-0.275-0.603-0.448-1-0.448-0.741 0-1.341 0.6-1.341 1.341 0 0.344 0.129 0.657 0.342 0.895l-0.001-0.001 3.857 4.263c0.245 0.271 0.598 0.44 0.99 0.44 0.004 0 0.007 0 0.011-0h-0.001z"></path>
</svg>
