<svg xmlns="http://www.w3.org/2000/svg" width="32" height="32"><path d="M25 23h-6a1 1 0 0 1 0-2h6a1 1 0 0 1 0 2zm-14.873 3a.997.997 0 0 0 .741-.414l.002-.003 4.277-6a1 1 0 0 0-1.625-1.164l-.002.004-3.577 5-2.22-2.333a1 1 0 1 0-1.447 1.376l3.057 3.223c.182.191.439.31.724.31h.003zM25 11h-6a1 1 0 0 1 0-2h6a1 1 0 0 1 0 2zm-14.873 3a.997.997 0 0 0 .741-.414l.002-.003 4.277-6a1 1 0 0 0-1.625-1.162l-.002.002-3.577 5-2.22-2.333a1 1 0 1 0-1.447 1.376l3.057 3.223c.182.191.439.31.724.31h.003zM31 32H1a1 1 0 0 1-1-1V1a1 1 0 0 1 1-1h30a1 1 0 0 1 1 1v30a1 1 0 0 1-1 1zM2 30h28V2H2z"/></svg>