<svg version="1.1" xmlns="http://www.w3.org/2000/svg" width="32" height="32" viewBox="0 0 32 32">
<title>circle-caret-up</title>
<path fill="#333" d="M16 32c-8.837 0-16-7.163-16-16s7.163-16 16-16c8.837 0 16 7.163 16 16v0c-0.009 8.833-7.167 15.991-15.999 16h-0.001zM16 2.667c-7.364 0-13.333 5.97-13.333 13.333s5.97 13.333 13.333 13.333c7.364 0 13.333-5.97 13.333-13.333v0c0-7.364-5.97-13.333-13.333-13.333v0zM10.36 19.517l5.61-6.767 5.667 6.773c0.246 0.293 0.613 0.478 1.023 0.478 0.737 0 1.335-0.598 1.335-1.335 0-0.327-0.118-0.627-0.313-0.859l0.002 0.002-6.683-8c-0.246-0.292-0.612-0.477-1.022-0.477-0.004 0-0.008 0-0.012 0h0.001c-0.41 0.002-0.775 0.189-1.018 0.481l-0.002 0.002-6.633 8c-0.204 0.233-0.329 0.541-0.329 0.877 0 0.736 0.597 1.333 1.333 1.333 0.425 0 0.803-0.198 1.047-0.508l0.002-0.003z"></path>
</svg>
