<svg version="1.1" xmlns="http://www.w3.org/2000/svg" width="32" height="32" viewBox="0 0 32 32">
<title>circle-caret-right</title>
<path fill="#333" d="M16 32c-8.837 0-16-7.163-16-16s7.163-16 16-16c8.837 0 16 7.163 16 16v0c-0.009 8.833-7.167 15.991-15.999 16h-0.001zM16 2.667c-7.364 0-13.333 5.97-13.333 13.333s5.97 13.333 13.333 13.333c7.364 0 13.333-5.97 13.333-13.333v0c0-7.364-5.97-13.333-13.333-13.333v0zM14.19 23.69l8-6.69c0.292-0.246 0.477-0.612 0.477-1.022 0-0.005-0-0.010-0-0.016v0.001c-0.001-0.411-0.188-0.778-0.481-1.022l-0.002-0.002-8-6.633c-0.224-0.177-0.511-0.284-0.823-0.284-0.736 0-1.333 0.597-1.333 1.333 0 0.4 0.176 0.759 0.455 1.003l0.002 0.001 6.767 5.61-6.773 5.667c-0.293 0.246-0.478 0.613-0.478 1.023 0 0.737 0.598 1.335 1.335 1.335 0.327 0 0.627-0.118 0.859-0.313l-0.002 0.002z"></path>
</svg>
