<svg version="1.1" xmlns="http://www.w3.org/2000/svg" width="32" height="32" viewBox="0 0 32 32">
<title>circle-close</title>
<path fill="#333" d="M16 32c-8.837 0-16-7.163-16-16s7.163-16 16-16c8.837 0 16 7.163 16 16v0c-0.009 8.833-7.167 15.991-15.999 16h-0.001zM16 2.667c-7.364 0-13.333 5.97-13.333 13.333s5.97 13.333 13.333 13.333c7.364 0 13.333-5.97 13.333-13.333v0c0-7.364-5.97-13.333-13.333-13.333v0zM17.887 16l4.39-4.39c0.241-0.241 0.391-0.575 0.391-0.943 0-0.737-0.597-1.334-1.334-1.334-0.368 0-0.702 0.149-0.943 0.391v0l-4.39 4.39-4.39-4.39c-0.241-0.241-0.575-0.391-0.943-0.391-0.737 0-1.334 0.597-1.334 1.334 0 0.368 0.149 0.702 0.391 0.943v0l4.39 4.39-4.39 4.39c-0.241 0.241-0.391 0.575-0.391 0.943 0 0.737 0.597 1.334 1.334 1.334 0.368 0 0.702-0.149 0.943-0.391l4.39-4.39 4.39 4.39c0.241 0.241 0.575 0.391 0.943 0.391 0.737 0 1.334-0.597 1.334-1.334 0-0.368-0.149-0.702-0.391-0.943v0z"></path>
</svg>
