<svg version="1.1" xmlns="http://www.w3.org/2000/svg" width="32" height="32" viewBox="0 0 32 32">
<title>circle-caret-down</title>
<path fill="#333" d="M16 32c-8.837 0-16-7.163-16-16s7.163-16 16-16c8.837 0 16 7.163 16 16v0c-0.009 8.833-7.167 15.991-15.999 16h-0.001zM16 2.667c-7.364 0-13.333 5.97-13.333 13.333s5.97 13.333 13.333 13.333c7.364 0 13.333-5.97 13.333-13.333v0c0-7.364-5.97-13.333-13.333-13.333v0zM17 22.19l6.703-8c0.194-0.23 0.311-0.53 0.311-0.857 0-0.737-0.598-1.335-1.335-1.335-0.41 0-0.777 0.185-1.022 0.476l-0.002 0.002-5.667 6.773-5.63-6.767c-0.246-0.28-0.604-0.456-1.004-0.456-0.736 0-1.333 0.597-1.333 1.333 0 0.312 0.107 0.599 0.286 0.826l-0.002-0.003 6.633 8c0.245 0.294 0.61 0.481 1.020 0.483h0c0.005 0 0.012 0 0.018 0 0.409 0 0.776-0.184 1.020-0.475l0.002-0.002z"></path>
</svg>
