<?xml version="1.0" encoding="utf-8"?>
<!-- Generator: Adobe Illustrator 20.1.0, SVG Export Plug-In . SVG Version: 6.00 Build 0)  -->
<svg version="1.1" id="Layer_1" xmlns="http://www.w3.org/2000/svg" xmlns:xlink="http://www.w3.org/1999/xlink" x="0px" y="0px"
	 viewBox="0 0 72 72" style="enable-background:new 0 0 72 72;" xml:space="preserve">
<g>
	<g>
		<path d="M18,42c-0.2,0-0.5-0.1-0.7-0.3c-0.4-0.4-0.4-1,0-1.4l17.9-18.6c0.2-0.2,0.4-0.3,0.7-0.3c0,0,0,0,0,0
			c0.3,0,0.5,0.1,0.7,0.3l18.1,18.6c0.4,0.4,0.4,1,0,1.4s-1,0.4-1.4,0L35.9,23.8L18.7,41.7C18.5,41.9,18.3,42,18,42z"/>
	</g>
	<g>
		<path d="M36,72C16.1,72,0,55.9,0,36S16.1,0,36,0s36,16.1,36,36S55.9,72,36,72z M36,2C17.3,2,2,17.3,2,36c0,18.7,15.3,34,34,34
			c18.7,0,34-15.3,34-34C70,17.3,54.7,2,36,2z"/>
	</g>
</g>
</svg>
