<svg version="1.1" xmlns="http://www.w3.org/2000/svg" width="32" height="32" viewBox="0 0 32 32">
<title>circle-caret-left</title>
<path fill="#333" d="M16 32c-8.837 0-16-7.163-16-16s7.163-16 16-16c8.837 0 16 7.163 16 16v0c-0.009 8.833-7.167 15.991-15.999 16h-0.001zM16 2.667c-7.364 0-13.333 5.97-13.333 13.333s5.97 13.333 13.333 13.333c7.364 0 13.333-5.97 13.333-13.333v0c0-7.364-5.97-13.333-13.333-13.333v0zM19.69 23.523c0.194-0.23 0.312-0.53 0.312-0.857 0-0.41-0.185-0.777-0.476-1.021l-0.002-0.002-6.773-5.667 6.767-5.61c0.312-0.246 0.51-0.625 0.51-1.049 0-0.736-0.597-1.333-1.333-1.333-0.337 0-0.644 0.125-0.879 0.33l0.002-0.001-8 6.633c-0.294 0.244-0.48 0.608-0.483 1.016v0.001c-0 0.004-0 0.010-0 0.015 0 0.409 0.184 0.776 0.475 1.020l0.002 0.002 8 6.703c0.23 0.194 0.53 0.312 0.857 0.312 0.41 0 0.777-0.185 1.021-0.476l0.002-0.002z"></path>
</svg>
