<?xml version="1.0" encoding="utf-8"?>
<!-- Generator: Adobe Illustrator 20.1.0, SVG Export Plug-In . SVG Version: 6.00 Build 0)  -->
<svg version="1.1" id="Layer_1" xmlns="http://www.w3.org/2000/svg" xmlns:xlink="http://www.w3.org/1999/xlink" x="0px" y="0px"
	 viewBox="0 0 72 72" style="enable-background:new 0 0 72 72;" xml:space="preserve">
<g>
	<path d="M36,72C16.1,72,0,55.9,0,36S16.1,0,36,0s36,16.1,36,36S55.9,72,36,72z M36,2C17.3,2,2,17.3,2,36c0,18.7,15.3,34,34,34
		c18.7,0,34-15.3,34-34C70,17.3,54.7,2,36,2z M49,50c-0.3,0-0.5-0.1-0.7-0.3L36,37.4L23.7,49.7c-0.4,0.4-1,0.4-1.4,0s-0.4-1,0-1.4
		L34.6,36L22.3,23.7c-0.4-0.4-0.4-1,0-1.4s1-0.4,1.4,0L36,34.6l12.3-12.3c0.4-0.4,1-0.4,1.4,0s0.4,1,0,1.4L37.4,36l12.3,12.3
		c0.4,0.4,0.4,1,0,1.4C49.5,49.9,49.3,50,49,50z"/>
</g>
</svg>
