<svg version="1.1" xmlns="http://www.w3.org/2000/svg" width="32" height="32" viewBox="0 0 32 32">
<title>clicked-recommendations</title>
    <path d="M14.1866667,18.5861818 L5.17139389,18.5861818 C2.31466661,18.5861818 -6.66666674e-08,16.2705455 -6.66666674e-08,13.4147879 L-6.66666674e-08,13.4147879 L-6.66666674e-08,8.24339391 C-6.66666674e-08,5.38666662 2.31563631,3.07199995 5.17139389,3.07199995 L5.17139389,3.07199995 L25.8579394,3.07199995 C28.7146667,3.07199995 31.0293334,5.38763632 31.0293334,8.24339391 L31.0293334,8.24339391 L31.0293334,12.7689697 C31.0293334,13.4826667 30.4504243,14.0615757 29.7367273,14.0615757 C29.0230304,14.0615757 28.4441213,13.4826667 28.4441213,12.7689697 L28.4441213,12.7689697 L28.4441213,8.24339391 C28.4441213,6.81503026 27.2863031,5.65721208 25.8579394,5.65721208 L25.8579394,5.65721208 L5.17139389,5.65721208 C3.74303025,5.65721208 2.58521207,6.81503026 2.58521207,8.24339391 L2.58521207,8.24339391 L2.58521207,13.4147879 C2.58521207,14.8431515 3.74303025,16.0009697 5.17139389,16.0009697 L5.17139389,16.0009697 L14.1866667,16.0009697 C14.9003636,16.0009697 15.4792727,16.5798788 15.4792727,17.2935758 C15.4792727,18.0072727 14.9003636,18.5861818 14.1866667,18.5861818 L14.1866667,18.5861818 L14.1866667,18.5861818 Z M30.5192728,19.4647273 L19.529697,11.0933333 C19.3124849,10.9216969 19.0341818,10.8179394 18.7316364,10.8179394 C18.0179394,10.8179394 17.4390303,11.3968485 17.4390303,12.1105454 C17.4390303,12.1813333 17.4448485,12.2511515 17.4555152,12.3190303 L17.4545455,12.3112727 L19.4492121,25.7124849 C19.5151515,26.141091 19.7837576,26.4950303 20.1532121,26.6792728 L20.1609697,26.6821819 C20.3248485,26.7655758 20.5178182,26.8150303 20.7224243,26.8150303 C20.7253334,26.8150303 20.7272727,26.8150303 20.7301818,26.8150303 L20.7301818,26.8150303 C20.7340606,26.8150303 20.7398788,26.8150303 20.7447273,26.8150303 C20.9764849,26.8150303 21.1946667,26.7539394 21.3827879,26.6463031 L21.376,26.6492122 L24.7767273,24.7486061 L26.8935758,28.3044849 C27.1098182,28.7350304 27.5471516,29.0249698 28.0523637,29.0249698 C28.7660607,29.0249698 29.3449698,28.4460607 29.3449698,27.7323637 C29.3449698,27.4540607 29.2567273,27.1961213 29.107394,26.985697 L29.1103031,26.9895758 L27.0322425,23.4889697 L30.3844849,21.6242424 C30.7830304,21.3992727 31.0477576,20.9774546 31.0477576,20.4945455 C31.0477576,20.0756364 30.8480001,19.7032727 30.5396364,19.4666667 L30.5367273,19.4647273 L30.5192728,19.4647273 Z"></path>
</svg>