<svg version="1.1" xmlns="http://www.w3.org/2000/svg" width="32" height="32" viewBox="0 0 32 32">
<title>clipboard</title>
<path fill="#333" d="M26 0h-20c-1.473 0-2.667 1.194-2.667 2.667v0 26.667c0 1.473 1.194 2.667 2.667 2.667v0h20c1.473 0 2.667-1.194 2.667-2.667v0-26.667c0-1.473-1.194-2.667-2.667-2.667v0zM20.917 2.667l-0.77 2.667h-8.277l-0.75-2.667zM6 29.333v-26.667h2.35l1.227 4.36c0.162 0.566 0.675 0.973 1.283 0.973h10.287c0.001 0 0.002 0 0.002 0 0.605 0 1.115-0.402 1.279-0.954l0.002-0.009 1.263-4.37h2.307v26.667zM14.333 22.667c-0.323 0-0.618-0.115-0.849-0.305l0.002 0.002-4.333-3.55c-0.299-0.247-0.488-0.617-0.488-1.032 0-0.737 0.598-1.335 1.335-1.335 0.322 0 0.618 0.114 0.849 0.305l-0.002-0.002 3.457 2.84 6.823-5.923c0.216-0.158 0.488-0.253 0.781-0.253 0.736 0 1.333 0.597 1.333 1.333 0 0.357-0.14 0.681-0.368 0.92l0-0.001-7.667 6.667c-0.232 0.205-0.538 0.331-0.873 0.333h-0z"></path>
</svg>
