<svg xmlns="http://www.w3.org/2000/svg" width="32" height="32"><path d="M26 32H6a3 3 0 0 1-3-3V8a3 3 0 0 1 3-3h4.083C10.577 2.142 13.038-.003 16-.003s5.422 2.146 5.912 4.968l.005.036H26a3 3 0 0 1 3 3v21a3 3 0 0 1-3 3zM6 7a1 1 0 0 0-1 1v21a1 1 0 0 0 1 1h20a1 1 0 0 0 1-1V8a1 1 0 0 0-1-1h-5a1 1 0 0 1-1-1 4 4 0 0 0-8 0 1 1 0 0 1-1 1zm16-1zm-8.477 17.777h-.005c-.57 0-1.086-.229-1.462-.6l-2.513-2.51a1 1 0 0 1 1.414-1.413l-.001-.001 2.493 2.493a.09.09 0 0 0 .063.027h.001c.025 0 .047-.01.063-.027l7.467-7.453a1 1 0 0 1 1.413 1.414l.001-.001L15 23.163a2.07 2.07 0 0 1-1.473.613h-.003zm3.687-19.16a1.487 1.487 0 0 0-.972-.596l-.008-.001a1.497 1.497 0 0 0-1.438 2.371l-.003-.004c.227.321.572.546.971.612l.009.001a1.354 1.354 0 0 0 .235 0h-.005c.332 0 .639-.109.887-.293l-.004.003c.313-.232.531-.576.596-.971l.001-.009a1.485 1.485 0 0 0-.273-1.117l.003.004z"/></svg>