<svg version="1.1" xmlns="http://www.w3.org/2000/svg" width="32" height="32" viewBox="0 0 32 32">
<title>align-justify</title>
<path fill="#333" d="M11.393 30.667H4.606a3.273 3.273 0 0 1-3.273-3.273v-6.787a3.273 3.273 0 0 1 3.273-3.273h6.787a3.273 3.273 0 0 1 3.273 3.273v6.787a3.273 3.273 0 0 1-3.273 3.273zM4.607 20a.61.61 0 0 0-.607.607v6.787a.61.61 0 0 0 .607.607h6.787a.61.61 0 0 0 .607-.607v-6.787a.61.61 0 0 0-.607-.607zm22.786-5.333h-6.787a3.273 3.273 0 0 1-3.273-3.273V4.607a3.273 3.273 0 0 1 3.273-3.273h6.787a3.273 3.273 0 0 1 3.273 3.273v6.787a3.273 3.273 0 0 1-3.273 3.273zM20.607 4a.61.61 0 0 0-.607.607v6.787a.61.61 0 0 0 .607.607h6.787a.61.61 0 0 0 .607-.607V4.607A.61.61 0 0 0 27.394 4zM12 14.667H4A2.667 2.667 0 0 1 1.333 12V4A2.667 2.667 0 0 1 4 1.333h8A2.667 2.667 0 0 1 14.667 4v8A2.667 2.667 0 0 1 12 14.667zM4 4v8h8V4zm25.333 18.667h-4v-4a1.333 1.333 0 0 0-2.666 0v4h-4a1.333 1.333 0 0 0 0 2.666h4v4a1.333 1.333 0 0 0 2.666 0v-4h4a1.333 1.333 0 0 0 0-2.666z"></path>
</svg>
