<svg xmlns="http://www.w3.org/2000/svg" width="32" height="32"><path d="M24.667 32A7.333 7.333 0 1 1 32 24.667 7.333 7.333 0 0 1 24.667 32zm0-12.667A5.333 5.333 0 1 0 30 24.666a5.333 5.333 0 0 0-5.333-5.333zm3 4.334h-2v-2a1 1 0 0 0-2 0v2h-2a1 1 0 0 0 0 2h2v2a1 1 0 0 0 2 0v-2h2a1 1 0 0 0 0-2zm-14 8.333H1a1 1 0 0 1-1-1V18.333a1 1 0 0 1 1-1h12.667a1 1 0 0 1 1 1V31a1 1 0 0 1-1 1zM2 30h10.667V19.333H2zm29-15.333H18.333a1 1 0 0 1-1-1V1a1 1 0 0 1 1-1H31a1 1 0 0 1 1 1v12.667a1 1 0 0 1-1 1zm-11.667-2H30V2H19.333zm-5.666 2H1a1 1 0 0 1-1-1V1a1 1 0 0 1 1-1h12.667a1 1 0 0 1 1 1v12.667a1 1 0 0 1-1 1zM2 12.667h10.667V2H2z"/></svg>