<svg xmlns="http://www.w3.org/2000/svg" width="32" height="32"><path d="M7 32h-.007a.951.951 0 0 1-.445-.109l.005.003A1 1 0 0 1 6 31.001v-5H3a3 3 0 0 1-3-3v-20a3 3 0 0 1 3-3h26a3 3 0 0 1 3 3v20a3 3 0 0 1-3 3H15.333l-7.733 5.8a.992.992 0 0 1-.6.2zM3 2a1 1 0 0 0-1 1v20a1 1 0 0 0 1 1h4a1 1 0 0 1 1 1v4l6.4-4.8a.992.992 0 0 1 .6-.2h14a1 1 0 0 0 1-1V3a1 1 0 0 0-1-1zm20.667 11A1.667 1.667 0 1 1 22 11.333c.92 0 1.667.746 1.667 1.667zM16 11.333A1.667 1.667 0 1 0 17.667 13c0-.92-.746-1.667-1.667-1.667zm-6 0A1.667 1.667 0 1 0 11.667 13c0-.92-.746-1.667-1.667-1.667z"/></svg>