<?xml version="1.0" encoding="utf-8"?>
<!-- Generator: Adobe Illustrator 20.1.0, SVG Export Plug-In . SVG Version: 6.00 Build 0)  -->
<svg version="1.1" id="Layer_2" xmlns="http://www.w3.org/2000/svg" xmlns:xlink="http://www.w3.org/1999/xlink" x="0px" y="0px"
	 viewBox="0 0 72 72" style="enable-background:new 0 0 72 72;" xml:space="preserve">
<g>
	<g>
		<path d="M14.3,72c-0.1,0-0.3,0-0.4-0.1c-0.4-0.2-0.6-0.5-0.6-0.9V51.1H5.2c-2.7-0.1-4.8-2.2-4.8-4.8V4.8c0-2.6,2.1-4.8,4.7-4.8
			l61.5,0l0,0c2.7,0,4.9,2.2,4.9,4.8v41.4c0,2.7-2.2,4.8-4.9,4.8l-28.4,0L15,71.7C14.8,71.9,14.6,72,14.3,72z M14.3,49.1
			c0.6,0,1,0.4,1,1v18.7l21.9-19.4c0.2-0.2,0.4-0.3,0.7-0.3l28.8,0c1.6,0,2.9-1.3,2.9-2.8V4.8c0-1.6-1.3-2.8-2.9-2.8L5.2,2
			c-1.5,0-2.8,1.3-2.8,2.8v41.4c0,1.5,1.2,2.8,2.8,2.8H14.3z"/>
	</g>
	<g>
		<g>
			<circle cx="19.8" cy="27.5" r="5.3"/>
			<path d="M19.8,33.3c-3.2,0-5.8-2.6-5.8-5.8s2.6-5.8,5.8-5.8s5.8,2.6,5.8,5.8S23,33.3,19.8,33.3z M19.8,22.7
				c-2.7,0-4.8,2.2-4.8,4.8s2.2,4.8,4.8,4.8s4.8-2.2,4.8-4.8S22.5,22.7,19.8,22.7z"/>
		</g>
		<g>
			<circle cx="36.5" cy="27.5" r="5.3"/>
			<path d="M36.5,33.3c-3.2,0-5.8-2.6-5.8-5.8s2.6-5.8,5.8-5.8c3.2,0,5.8,2.6,5.8,5.8S39.7,33.3,36.5,33.3z M36.5,22.7
				c-2.7,0-4.8,2.2-4.8,4.8s2.2,4.8,4.8,4.8s4.8-2.2,4.8-4.8S39.1,22.7,36.5,22.7z"/>
		</g>
		<g>
			<circle cx="53.1" cy="27.5" r="5.3"/>
			<path d="M53.1,33.3c-3.2,0-5.8-2.6-5.8-5.8s2.6-5.8,5.8-5.8s5.8,2.6,5.8,5.8S56.3,33.3,53.1,33.3z M53.1,22.7
				c-2.7,0-4.8,2.2-4.8,4.8s2.2,4.8,4.8,4.8s4.8-2.2,4.8-4.8S55.8,22.7,53.1,22.7z"/>
		</g>
	</g>
</g>
</svg>
