<svg version="1.1" xmlns="http://www.w3.org/2000/svg" width="32" height="32" viewBox="0 0 32 32">
<title>comment</title>
<path fill="#333" d="M26 11.667c0 1.473-1.194 2.667-2.667 2.667s-2.667-1.194-2.667-2.667c0-1.473 1.194-2.667 2.667-2.667v0c1.473 0 2.667 1.194 2.667 2.667v0zM16 9c-1.473 0-2.667 1.194-2.667 2.667s1.194 2.667 2.667 2.667c1.473 0 2.667-1.194 2.667-2.667v0c0-1.473-1.194-2.667-2.667-2.667v0zM8.667 9c-1.473 0-2.667 1.194-2.667 2.667s1.194 2.667 2.667 2.667c1.473 0 2.667-1.194 2.667-2.667v0c0-1.473-1.194-2.667-2.667-2.667v0zM32 3v17.293c0.001 0.026 0.001 0.056 0.001 0.087 0 1.631-1.322 2.953-2.953 2.953-0.017 0-0.034-0-0.050-0l0.003 0h-11.503l-9.623 8.333c-0.232 0.205-0.538 0.331-0.873 0.333h-0c-0 0-0 0-0.001 0-0.2 0-0.391-0.044-0.561-0.123l0.008 0.003c-0.464-0.215-0.78-0.677-0.78-1.213 0-0 0-0 0-0v0-7.333h-2.667c-0.025 0.001-0.054 0.001-0.083 0.001-1.613 0-2.92-1.307-2.92-2.92 0-0.043 0.001-0.085 0.003-0.127l-0 0.006v-17.293c-0-0.017-0.001-0.037-0.001-0.057 0-0.813 0.323-1.55 0.848-2.090l-0.001 0.001c0.55-0.528 1.299-0.854 2.123-0.854 0.020 0 0.040 0 0.060 0.001l-0.003-0h26.277c1.637 0 2.697 1.177 2.697 3zM29.333 3c0-0.008 0-0.018 0-0.027 0-0.109-0.012-0.214-0.035-0.316l0.002 0.009h-26.277c-0.014-0.002-0.030-0.002-0.047-0.002-0.090 0-0.175 0.027-0.245 0.074l0.002-0.001c-0.043 0.063-0.068 0.142-0.068 0.226 0 0.013 0.001 0.026 0.002 0.039l-0-0.002v17.293c0 0.373 0.12 0.373 0.333 0.373h4c0.736 0 1.333 0.597 1.333 1.333v0 5.747l7.793-6.747c0.232-0.205 0.538-0.331 0.873-0.333h12c0.001 0 0.002 0 0.002 0 0.184 0 0.333-0.149 0.333-0.333 0-0.014-0.001-0.028-0.003-0.042l0 0.002z"></path>
</svg>
