<svg xmlns="http://www.w3.org/2000/svg" width="32" height="32"><path d="M31.967 19.76a.386.386 0 0 0-.018-.063l.001.003a1.316 1.316 0 0 0-.074-.175l.004.008-.03-.057a.974.974 0 0 0-.143-.183 1.042 1.042 0 0 0-.182-.141l-.005-.003h-.02l-7-4a.994.994 0 0 0-1.005.003l.005-.003-7 4h-.02a.975.975 0 0 0-.328.323l-.002.004-.03.057c-.023.045-.047.1-.067.156l-.003.01-.001.03.001.031v-.001a.947.947 0 0 0-.05.237v7.003c0 .369.201.691.499.864l.005.003 7.037 4.017a.891.891 0 0 0 .16.065l.006.002.06.02a.9.9 0 0 0 .473-.001l-.006.001.06-.02a.921.921 0 0 0 .172-.069l-.005.002.037-.017 7-4a.999.999 0 0 0 .503-.867v-7a.957.957 0 0 0-.035-.247l.002.007zM24 17.153L29 20l-5 2.847L19.017 20zm-6 4.57l5 2.857v4.697l-5-2.857zm7 7.554V24.58l5-2.857v4.697zm-12.497-2l-3.503 2V24.58l3.497-2a1.003 1.003 0 1 0-1.005-1.734l.005-.003L8 22.846l-4.983-2.847 5-2.847 4.503 2.573a1.002 1.002 0 0 0 1.005-1.734l-.005-.003-5-2.857a.994.994 0 0 0-1.005.003l.005-.003-7 4H.5a.975.975 0 0 0-.328.323l-.002.004-.03.057c-.023.045-.047.1-.067.156l-.003.01-.001.03.001.031v-.001a.934.934 0 0 0-.07.252l-.001.005v7a1 1 0 0 0 .499.864l.005.003 7.037 4.017a.891.891 0 0 0 .16.065l.006.002.06.02a.9.9 0 0 0 .473-.001l-.006.001.06-.02a.921.921 0 0 0 .172-.069l-.005.002.037-.017 5-2.857a1.003 1.003 0 1 0-1.005-1.734l.005-.003zM2 21.723l5 2.857v4.697L2 26.42zM23.967 4.76a.386.386 0 0 0-.018-.063l.001.003a1.316 1.316 0 0 0-.074-.175l.004.008-.03-.057a.974.974 0 0 0-.143-.183 1.042 1.042 0 0 0-.182-.141l-.005-.003h-.02l-7-4a.994.994 0 0 0-1.005.003L15.5.149l-7 4h-.02a.975.975 0 0 0-.328.323l-.002.004-.03.057c-.023.045-.047.1-.067.156l-.003.01-.001.03.001.031v-.001a.947.947 0 0 0-.05.237v7.003a1 1 0 0 0 .499.864l.005.003 7 4h.037a.891.891 0 0 0 .16.065l.007.002.06.02a.9.9 0 0 0 .473-.001l-.006.001.06-.02a.921.921 0 0 0 .172-.069l-.005.002h.037l7-4a.999.999 0 0 0 .503-.867v-7a.957.957 0 0 0-.035-.247l.002.007zM16 2.153L21 5l-5 2.847L11.017 5zm-6 4.57l5 2.857v4.697l-5-2.857zm7 7.554V9.58l5-2.857v4.697z"/></svg>