<svg version="1.1" xmlns="http://www.w3.org/2000/svg" width="32" height="32" viewBox="0 0 32 32">
<title>components</title>
<path fill="#333" d="M21.447 32h-7.113c-0.001 0-0.003 0-0.005 0-0.736 0-1.333-0.597-1.333-1.333 0-0.443 0.216-0.835 0.548-1.077l0.004-0.003c0.942-0.696 1.547-1.803 1.547-3.051 0-0.001 0-0.001 0-0.002v0c0.001-0.033 0.002-0.072 0.002-0.111 0-2.042-1.655-3.697-3.697-3.697s-3.697 1.655-3.697 3.697c0 0.039 0.001 0.078 0.002 0.117l-0-0.006c0 0.001 0 0.003 0 0.004 0 1.248 0.603 2.354 1.533 3.045l0.010 0.007c0.333 0.245 0.547 0.636 0.547 1.077 0 0.736-0.597 1.333-1.333 1.333-0.001 0-0.002 0-0.004 0h-7.123c-0.736 0-1.333-0.597-1.333-1.333v0-20.113c0-0.736 0.597-1.333 1.333-1.333v0h4.333c-0.401-0.819-0.636-1.782-0.637-2.8v-0c-0.001-0.043-0.002-0.094-0.002-0.146 0-3.514 2.849-6.363 6.363-6.363s6.363 2.849 6.363 6.363c0 0.051-0.001 0.102-0.002 0.153l0-0.008c-0.002 1.018-0.238 1.981-0.657 2.838l0.017-0.038h4.333c0.736 0 1.333 0.597 1.333 1.333v0 3.493c0.819-0.401 1.782-0.636 2.8-0.637h0c3.509 0.007 6.351 2.853 6.351 6.363 0 3.514-2.849 6.363-6.363 6.363-1.015 0-1.974-0.238-2.825-0.66l0.037 0.017v5.173c0 0.736-0.597 1.333-1.333 1.333v0zM2.667 29.333h3c-0.402-0.819-0.637-1.782-0.637-2.8v-0c-0.001-0.043-0.002-0.094-0.002-0.146 0-3.514 2.849-6.363 6.363-6.363s6.363 2.849 6.363 6.363c0 0.051-0.001 0.102-0.002 0.153l0-0.008c-0.002 1.018-0.238 1.981-0.657 2.838l0.017-0.038h3v-6.627c0-0.001 0-0.003 0-0.005 0-0.736 0.597-1.333 1.333-1.333 0.443 0 0.835 0.216 1.077 0.548l0.003 0.004c0.696 0.942 1.802 1.547 3.050 1.547 0.001 0 0.003 0 0.004 0h-0c0.033 0.001 0.072 0.002 0.111 0.002 2.042 0 3.697-1.655 3.697-3.697s-1.655-3.697-3.697-3.697c-0.039 0-0.078 0.001-0.117 0.002l0.006-0c-0.001 0-0.002 0-0.004 0-1.248 0-2.354 0.604-3.042 1.536l-0.007 0.010c-0.245 0.336-0.637 0.551-1.080 0.551-0.736 0-1.333-0.597-1.333-1.333 0-0.002 0-0.003 0-0.005v0-4.95h-5.78c-0.004 0-0.009 0-0.014 0-0.669 0-1.224-0.493-1.319-1.136l-0.001-0.007c-0.006-0.046-0.010-0.098-0.010-0.152s0.004-0.106 0.011-0.158l-0.001 0.006c0.011-0.129 0.039-0.248 0.080-0.36l-0.003 0.010c0.096-0.252 0.257-0.462 0.463-0.614l0.004-0.003c0.942-0.697 1.547-1.804 1.547-3.053 0-0 0-0 0-0v0c0.001-0.033 0.002-0.072 0.002-0.111 0-2.042-1.655-3.697-3.697-3.697s-3.697 1.655-3.697 3.697c0 0.039 0.001 0.078 0.002 0.117l-0-0.006c0 0 0 0.001 0 0.002 0 1.243 0.599 2.347 1.523 3.038l0.010 0.007 0.073 0.053c0.137 0.117 0.249 0.259 0.33 0.419l0.004 0.008c0.079 0.154 0.13 0.335 0.14 0.527l0 0.003c0.002 0.024 0.002 0.052 0.002 0.080 0 0.144-0.023 0.283-0.065 0.413l0.003-0.009c-0.056 0.168-0.138 0.313-0.242 0.439l0.002-0.002c-0.116 0.135-0.256 0.247-0.412 0.33l-0.008 0.004c-0.155 0.081-0.337 0.132-0.53 0.143l-0.003 0h-5.86z"></path>
</svg>
