<svg xmlns="http://www.w3.org/2000/svg" viewBox="0 0 96 96"><path d="M64.34 96H43a4 4 0 0 1-2.36-7.24 11.35 11.35 0 0 0 4.64-9.16 11.09 11.09 0 1 0-22.17 0 11.37 11.37 0 0 0 4.63 9.17A4 4 0 0 1 25.37 96H4a4 4 0 0 1-4-4V31.66a4 4 0 0 1 4-4h13a19.46 19.46 0 0 1-1.91-8.4 19.09 19.09 0 1 1 38.17 0 19.47 19.47 0 0 1-1.92 8.4h13a4 4 0 0 1 4 4v10.48a19.46 19.46 0 0 1 8.4-1.91 19.09 19.09 0 1 1-8.4 36.25V92a4 4 0 0 1-4 4zM8 88h9a19.43 19.43 0 0 1-1.91-8.4 19.09 19.09 0 1 1 38.17 0 19.47 19.47 0 0 1-1.92 8.4h9V68.12a4 4 0 0 1 7.24-2.36 11.34 11.34 0 0 0 9.16 4.64 11.09 11.09 0 1 0 0-22.17 11.34 11.34 0 0 0-9.16 4.64 4 4 0 0 1-7.24-2.36V35.66H43a4 4 0 0 1-4-3.43 3.47 3.47 0 0 1 0-.91 4.19 4.19 0 0 1 .23-1.05 4.05 4.05 0 0 1 1.4-1.85 11.36 11.36 0 0 0 4.64-9.16 11.09 11.09 0 1 0-22.17 0 11.37 11.37 0 0 0 4.6 9.14l.22.16a4.07 4.07 0 0 1 1 1.28 4 4 0 0 1 .42 1.59 4 4 0 0 1-.18 1.45 4.09 4.09 0 0 1-.72 1.31 4.23 4.23 0 0 1-1.26 1 4 4 0 0 1-1.6.43H8z" fill="#333"/></svg>