<svg version="1.1" xmlns="http://www.w3.org/2000/svg" width="32" height="32" viewBox="0 0 32 32">
<title>content-type</title>
<path fill="#333" d="M16.25 13.3c-0.238 0.226-0.561 0.365-0.917 0.365-0.38 0-0.723-0.159-0.966-0.415l-0.001-0.001-3.87-4.073c-0.227-0.239-0.366-0.562-0.366-0.918 0-0.191 0.040-0.373 0.113-0.537l-0.003 0.009c0.667-1.5 0.423-3.12-0.577-4.12-0.48-0.475-1.108-0.799-1.81-0.898l-0.017-0.002 1.333 1.333c0.242 0.241 0.392 0.575 0.392 0.944 0 0.165-0.030 0.323-0.085 0.469l0.003-0.009-0.877 2.37c-0.137 0.367-0.421 0.651-0.777 0.787l-0.009 0.003-2.383 0.877c-0.138 0.053-0.298 0.083-0.464 0.083-0.368 0-0.701-0.149-0.942-0.39v0l-1.317-1.333c0.103 0.717 0.426 1.345 0.897 1.827l-0.001-0.001c1 1 2.613 1.227 4.11 0.577 0.156-0.069 0.338-0.109 0.529-0.109 0.354 0 0.676 0.138 0.915 0.363l-0.001-0.001 4.087 3.863c0.281 0.246 0.458 0.605 0.458 1.006 0 0.736-0.597 1.333-1.333 1.333-0.372 0-0.709-0.153-0.951-0.399l-0-0-3.493-3.303c-0.568 0.188-1.221 0.297-1.9 0.297-1.672 0-3.19-0.659-4.309-1.733l0.002 0.002c-1.763-1.767-2.213-4.527-1.15-7.030 0.208-0.482 0.679-0.813 1.228-0.813 0.368 0 0.701 0.149 0.942 0.39v0l2.57 2.573 1-0.37 0.357-0.983-2.563-2.593c-0.24-0.241-0.389-0.574-0.389-0.941 0-0.547 0.329-1.017 0.8-1.222l0.009-0.003c2.503-1.073 5.26-0.62 7.030 1.153 1.077 1.119 1.74 2.642 1.74 4.32 0 0.675-0.107 1.325-0.306 1.934l0.012-0.044 3.3 3.48c0.226 0.238 0.365 0.561 0.365 0.917 0 0.38-0.159 0.723-0.415 0.966l-0.001 0.001zM30.28 20.433c-1.116-1.071-2.634-1.731-4.306-1.731-0.679 0-1.333 0.109-1.944 0.31l0.044-0.012-3.493-3.303c-0.242-0.246-0.579-0.399-0.951-0.399-0.736 0-1.333 0.597-1.333 1.333 0 0.401 0.177 0.76 0.456 1.004l0.002 0.001 4.087 3.85c0.238 0.225 0.56 0.363 0.914 0.363 0.191 0 0.373-0.040 0.538-0.113l-0.009 0.003c1.497-0.65 3.11-0.407 4.11 0.593 0.471 0.482 0.794 1.11 0.895 1.809l0.002 0.018-1.333-1.333c-0.241-0.241-0.574-0.39-0.942-0.39-0.167 0-0.326 0.031-0.473 0.087l0.009-0.003-2.377 0.88c-0.366 0.139-0.649 0.423-0.784 0.781l-0.003 0.009-0.877 2.37c-0.052 0.137-0.082 0.294-0.082 0.459 0 0.369 0.15 0.703 0.392 0.944l1.333 1.333c-0.716-0.104-1.343-0.431-1.82-0.907l0 0c-1-1-1.227-2.62-0.577-4.12 0.069-0.156 0.109-0.338 0.109-0.529 0-0.356-0.139-0.679-0.367-0.918l0.001 0.001-3.867-4.073c-0.24-0.233-0.567-0.377-0.929-0.377-0.736 0-1.333 0.597-1.333 1.333 0 0.336 0.124 0.644 0.33 0.878l-0.001-0.002 3.3 3.48c-0.187 0.565-0.294 1.216-0.294 1.892 0 1.677 0.662 3.199 1.739 4.32l-0.002-0.002c1.083 1.068 2.57 1.727 4.212 1.727 0.026 0 0.052-0 0.078-0.001l-0.004 0c0.994-0.003 1.937-0.214 2.791-0.591l-0.045 0.018c0.48-0.209 0.809-0.679 0.809-1.226 0-0.367-0.148-0.7-0.389-0.941l0 0-2.563-2.593 0.367-1 1-0.37 2.57 2.573c0.241 0.241 0.574 0.39 0.942 0.39 0.549 0 1.020-0.331 1.224-0.805l0.003-0.009c1.053-2.487 0.603-5.247-1.16-7.013zM31.613 1.7l-1.313-1.303c-0.241-0.241-0.575-0.39-0.943-0.39-0.346 0-0.661 0.132-0.898 0.348l0.001-0.001-3.363 3.063c-0.266 0.245-0.433 0.594-0.433 0.983 0 0.297 0.097 0.572 0.262 0.794l-0.003-0.004-13.923 13.923-1.39-1.39c-0.241-0.241-0.574-0.389-0.942-0.389s-0.7 0.149-0.942 0.389l0-0-6.627 6.637c-0.682 0.683-1.104 1.625-1.104 2.667s0.422 1.984 1.104 2.667l1.213 1.213c0.679 0.682 1.618 1.103 2.655 1.103 0.004 0 0.008 0 0.012-0h-0.001c0.004 0 0.008 0 0.013 0 1.037 0 1.976-0.422 2.654-1.103l6.633-6.634c0.242-0.241 0.391-0.575 0.391-0.943s-0.149-0.702-0.391-0.943v0l-1.39-1.387 13.92-13.927c0.217 0.165 0.492 0.264 0.789 0.267h0.034c0.378-0.010 0.716-0.176 0.952-0.436l0.001-0.001 3.080-3.363c0.211-0.235 0.339-0.547 0.339-0.889 0-0.373-0.153-0.709-0.399-0.951l-0-0zM5.763 29.033c-0.198 0.204-0.474 0.332-0.78 0.333h-0c-0.306-0-0.583-0.128-0.78-0.333l-0-0-1.203-1.227c-0.204-0.198-0.332-0.474-0.333-0.78v-0c0.002-0.307 0.13-0.584 0.333-0.783l0-0 5.667-5.69 1.19 1.19c0.103 0.16 0.235 0.292 0.388 0.394l0.005 0.003 1.197 1.193z"></path>
</svg>
