<svg xmlns="http://www.w3.org/2000/svg" width="32" height="32"><path d="M24.95 31.903h-.016a7.057 7.057 0 0 1-6.635-9.466l-.016.049-1.417-1.417a1 1 0 1 1 1.408-1.405l.001.002 1.897 1.89a.995.995 0 0 1 .198 1.143l.003-.006c-.31.634-.492 1.379-.492 2.167s.181 1.533.505 2.196l-.013-.03c.838 1.715 2.57 2.875 4.572 2.875.254 0 .504-.019.749-.055l-.028.003-.723-.723a3.02 3.02 0 1 1 4.27-4.274l.737.733a5.06 5.06 0 0 0-7.224-5.27l.03-.013a.996.996 0 0 1-1.14-.193l-1.893-1.89a1 1 0 0 1 1.411-1.416l-.001-.001 1.423 1.42a6.912 6.912 0 0 1 2.405-.422 7.057 7.057 0 0 1 6.354 10.131l.018-.042a1.003 1.003 0 0 1-.724.556l-.006.001a.999.999 0 0 1-.877-.276l-1.903-1.893a1.016 1.016 0 0 0-1.736.721c0 .282.115.537.3.722l1.89 1.883a1 1 0 0 1-.271 1.607l-.006.003c-.892.435-1.94.69-3.048.69h-.002zM32 11.25v.01c0 .821-.332 1.565-.87 2.103l-2.833 2.827c-.543.541-1.291.876-2.118.876s-1.576-.335-2.118-.876l-3.367-3.353-8.39 8.107.823.82c.36.362.583.861.583 1.412s-.223 1.05-.583 1.412l-6.26 6.247c-.723.721-1.721 1.166-2.823 1.166s-2.1-.446-2.823-1.167a3.954 3.954 0 0 1-1.177-2.82 3.95 3.95 0 0 1 1.16-2.803l.017-.02 6.26-6.24c.362-.36.861-.583 1.412-.583s1.05.223 1.412.583l.583.583 8.39-8.11-3.513-3.497c-.541-.54-.876-1.286-.876-2.11s.335-1.57.876-2.11l2.82-2.813c.543-.541 1.291-.876 2.118-.876s1.576.335 2.118.876l8.3 8.25c.542.538.879 1.283.88 2.106zM11.717 23.173l-1.533-1.507-.027-.02.001-.01-.001-.01-1.263-1.26-6.263 6.247a1.94 1.94 0 0 0-.586 1.392v.014-.001c.002.546.224 1.04.583 1.397.362.36.861.583 1.412.583s1.05-.223 1.412-.583l6.263-6.24zM30 11.257v-.001a.978.978 0 0 0-.29-.696l-8.3-8.263a.996.996 0 0 0-1.41 0l-2.823 2.817a.996.996 0 0 0-.283.693v.003c0 .27.111.515.29.69l8.3 8.267a1 1 0 0 0 1.414 0l2.817-2.813a.977.977 0 0 0 .287-.693v-.004zM11.783 14.59a1 1 0 0 0 0-1.414l-1.397-1.393a.996.996 0 0 0-1.142-.191l.006-.003a4.985 4.985 0 0 1-2.188.497 5.06 5.06 0 0 1-5.009-5.781l-.003.027.723.7c.549.562 1.315.91 2.162.91.82 0 1.564-.327 2.109-.857l-.001.001c.56-.55.907-1.314.907-2.16a3.02 3.02 0 0 0-.857-2.111l.001.001-.04-.04-.72-.723a5.057 5.057 0 0 1 5.283 7.2l.013-.03a1 1 0 0 0 .196 1.14l1.293 1.303a1.004 1.004 0 0 0 1.713-.716c0-.28-.115-.534-.3-.717l-.82-.817a6.922 6.922 0 0 0 .405-2.358A7.057 7.057 0 0 0 3.973.71l.042-.018a1.003 1.003 0 0 0-.273 1.61l1.923 1.913a.998.998 0 0 1-.022 1.449l-.001.001a1.017 1.017 0 0 1-1.45-.027l-1.9-1.907a1 1 0 0 0-1.608.261l-.003.006a6.962 6.962 0 0 0-.682 3.027 7.057 7.057 0 0 0 9.495 6.625l-.049.016.923.92c.181.179.429.29.704.29h.019a.996.996 0 0 0 .691-.277z"/></svg>