<svg xmlns="http://www.w3.org/2000/svg" width="32" height="32"><path d="M31.067 7.803l-5.827-5.05A3.128 3.128 0 0 0 23.198 2H3.952a4.206 4.206 0 0 0-2.735 1.005L1.223 3A3.452 3.452 0 0 0 0 5.598v20.805a3.456 3.456 0 0 0 1.218 2.593l.005.004a4.22 4.22 0 0 0 2.736 1h.042-.002 24c2.207 0 4-1.617 4-3.6V9.787a2.63 2.63 0 0 0-.93-1.98l-.004-.003zm-1.307 1.53v.017h-5.12c-.61 0-1.123-.383-1.123-.833V4.05c.159.045.297.118.415.215l-.002-.002zM28 28H3.969a2.245 2.245 0 0 1-1.44-.52l.004.003A1.437 1.437 0 0 1 2 26.402V5.6c.012-.437.216-.824.531-1.081l.003-.002A2.257 2.257 0 0 1 3.976 4h17.541v4.5c0 1.563 1.4 2.833 3.123 2.833H30V26.4c0 .883-.897 1.6-2 1.6zm-2.333-4H13a1 1 0 0 1 0-2h12.667a1 1 0 0 1 0 2zM7.333 21a2 2 0 1 0 2 2 2 2 0 0 0-2-2zm18.334-4H13a1 1 0 0 1 0-2h12.667a1 1 0 0 1 0 2zM7.333 14a2 2 0 1 0 2 2 2 2 0 0 0-2-2z"/></svg>