<svg xmlns="http://www.w3.org/2000/svg" viewBox="0 0 96 96"><g id="Warstwa_2" data-name="Warstwa 2"><g id="_191_create-location" data-name="191 create-location"><path d="M27.3,73.22a2.93,2.93,0,0,1-2.81-3.72l3.89-13.6a2.89,2.89,0,0,1,.74-1.26L56.88,26.88a4.85,4.85,0,0,1,6.88,0l7,7a4.87,4.87,0,0,1,0,6.87l0,0L43,68.48a3,3,0,0,1-1.27.74L28.1,73.1A2.77,2.77,0,0,1,27.3,73.22Zm13.59-6.81h0Zm-7.11-8.18-2.24,7.82,7.82-2.23L65.91,37.27l-5.59-5.58Z"/><path d="M62.26,48a2.89,2.89,0,0,1-2.06-.85L50.49,37.4a2.92,2.92,0,1,1,4.12-4.13L64.32,43a2.92,2.92,0,0,1,0,4.13A2.89,2.89,0,0,1,62.26,48Z"/><path d="M40.89,69.33a2.91,2.91,0,0,1-2.06-.85l-9.71-9.71a2.91,2.91,0,1,1,4.12-4.12L43,64.36a2.91,2.91,0,0,1-2.07,5Z"/></g><g id="_86_file" data-name="86 file"><g id="Path"><path d="M12,96A12,12,0,0,1,0,84V12a11.94,11.94,0,0,1,3.52-8.5A12.07,12.07,0,0,1,12,0H69.52a9,9,0,0,1,6.36,2.63L93.37,20.12A9,9,0,0,1,96,26.48V84A12,12,0,0,1,84,96H12ZM12,6A6.06,6.06,0,0,0,7.76,7.75,6,6,0,0,0,6,12V84a6,6,0,0,0,6,6H84a6,6,0,0,0,6-6V26.48a3,3,0,0,0-.88-2.11h0L71.64,6.88A3,3,0,0,0,69.52,6H12Z"/></g><g id="Path-2" data-name="Path"><path d="M93,30H75a9,9,0,0,1-9-9V3a3,3,0,0,1,6,0V21a3,3,0,0,0,3,3H93a3,3,0,0,1,0,6Z"/></g><polygon points="82.47 82.6 77.37 82.6 77.37 78.4 77.37 77.5 78.27 77.5 82.47 77.5 82.47 82.6"/><path d="M70.84,82.6H64.32V78.4h6.52Zm-13.05,0H51.26V78.4h6.53Zm-13,0H38.21V78.4h6.53Zm-13.06,0H25.16V78.4h6.52Z"/><polygon points="18.73 82.6 13.53 82.6 13.53 77.5 17.83 77.5 18.73 77.5 18.73 78.4 18.73 82.6"/><path d="M18.73,70.94h-5.2V64.39h5.2Zm0-13.11h-5.2V51.28h5.2Zm0-13.11h-5.2V38.17h5.2Zm0-13.11h-5.2V25.06h5.2Z"/><polygon points="17.73 18.5 13.53 18.5 13.53 13.4 18.63 13.4 18.63 18.5 17.73 18.5"/><path d="M70.84,17.6H64.32V13.4h6.52Zm-13.05,0H51.26V13.4h6.53Zm-13,0H38.21V13.4h6.53Zm-13.06,0H25.16V13.4h6.52Z"/><path d="M82.47,70.94h-4.2V64.39h4.2Zm0-13.11h-4.2V51.28h4.2Zm0-13.11h-4.2V38.17h4.2Zm0-13.11h-4.2V25.06h4.2Z"/></g></g></svg>