<svg xmlns="http://www.w3.org/2000/svg" width="32" height="32"><path d="M28 19v-.027A5 5 0 0 0 23 14a4.993 4.993 0 0 0-3.971 1.987L19.02 16H13a5 5 0 1 0-.009 6.013L13 22h6.02a5.002 5.002 0 0 0 8.805-1.695l.008-.035c.102-.37.162-.794.163-1.232v-.001l.003-.037zm-3.49 2.58a2.999 2.999 0 0 1-4.082-1.07l-.008-.014a1.002 1.002 0 0 0-.864-.497h-7.11-.001a.999.999 0 0 0-.863.495l-.003.005a3 3 0 0 1-5.189.014l-.008-.014a2.834 2.834 0 0 1-.224-.48l-.006-.02h2.847a1 1 0 0 0 0-2H6.156a3.007 3.007 0 0 1 2.827-1.997c1.103 0 2.067.595 2.588 1.482l.008.014c.176.301.498.5.866.5h7.11c.37 0 .692-.2.865-.499l.003-.005a3.005 3.005 0 0 1 2.576-1.497H23c1.1.001 2.061.593 2.582 1.476l.008.014c.084.144.163.312.226.488l.007.022H23a1 1 0 0 0 0 2h2.823a2.965 2.965 0 0 1-1.299 1.572l-.014.008zM31 8h-7V5a3 3 0 0 0-3-3H11a3 3 0 0 0-3 3v3H1a1 1 0 0 0-1 1v20a1 1 0 0 0 1 1h30a1 1 0 0 0 1-1V9a1 1 0 0 0-1-1zM10 5a1 1 0 0 1 1-1h10a1 1 0 0 1 1 1v3H10zm20 23H2V10h28z"/></svg>