<svg version="1.1" xmlns="http://www.w3.org/2000/svg" width="32" height="32" viewBox="0 0 32 32">
<title>content-tree</title>
<path fill="#333" d="M18 20h12c1.105 0 2-0.895 2-2v0-4c0-1.105-0.895-2-2-2v0h-12c-1.105 0-2 0.895-2 2v0 0.667h-5.333v-5.333h6c1.105 0 2-0.895 2-2v0-5.333c0-1.105-0.895-2-2-2v0h-14.667c-1.105 0-2 0.895-2 2v0 5.333c0 1.105 0.895 2 2 2v0h6v18.667c0 0.736 0.597 1.333 1.333 1.333v0h6.667v0.667c0 1.105 0.895 2 2 2v0h12c1.105 0 2-0.895 2-2v0-4c0-1.105-0.895-2-2-2v0h-12c-1.105 0-2 0.895-2 2v0 0.667h-5.333v-9.333h5.333v0.667c0 1.105 0.895 2 2 2v0zM18.667 14.667h10.667v2.667h-10.667zM18.667 26.667h10.667v2.667h-10.667zM2.667 6.667v-4h13.333v4z"></path>
</svg>
