<svg version="1.1" xmlns="http://www.w3.org/2000/svg" width="32" height="32" viewBox="0 0 32 32">
<title>content_list</title>
<path fill="#333" d="M22 25.333h-8c-0.736 0-1.333-0.597-1.333-1.333s0.597-1.333 1.333-1.333v0h8c0.736 0 1.333 0.597 1.333 1.333s-0.597 1.333-1.333 1.333v0zM23.333 18.667c0-0.736-0.597-1.333-1.333-1.333v0h-8c-0.736 0-1.333 0.597-1.333 1.333s0.597 1.333 1.333 1.333v0h8c0.736 0 1.333-0.597 1.333-1.333v0zM10 22.667c-0.736 0-1.333 0.597-1.333 1.333s0.597 1.333 1.333 1.333c0.736 0 1.333-0.597 1.333-1.333v0c0-0.736-0.597-1.333-1.333-1.333v0zM10 17.333c-0.736 0-1.333 0.597-1.333 1.333s0.597 1.333 1.333 1.333c0.736 0 1.333-0.597 1.333-1.333v0c0-0.736-0.597-1.333-1.333-1.333v0zM28 10.617v20.050c0 0.736-0.597 1.333-1.333 1.333v0h-21.333c-0.736 0-1.333-0.597-1.333-1.333v0-29.333c0-0.736 0.597-1.333 1.333-1.333v0h13.127c0 0 0.001 0 0.001 0 0.397 0 0.753 0.173 0.998 0.449l0.001 0.001 8.207 9.283c0.207 0.234 0.333 0.543 0.333 0.882 0 0.001 0 0.001 0 0.002v-0zM18.667 3.583v4.397c0 1.933 0.75 2.687 2.667 2.687h3.597zM25.333 29.333v-16h-4c-3.39 0-5.333-1.95-5.333-5.353v-5.313h-9.333v26.667z"></path>
</svg>
