<svg version="1.1" xmlns="http://www.w3.org/2000/svg" width="32" height="32" viewBox="0 0 32 32">
<title>content-type-group</title>
<path fill="#333" d="M30.667 17v-3c0-1.105-0.895-2-2-2v0h-3.667v-6.667h5c0.368 0 0.667-0.298 0.667-0.667v0-1.333c0-0.368-0.298-0.667-0.667-0.667v0c-1.333 0-2.603-1.667-2.977-2.333-0.117-0.201-0.332-0.333-0.577-0.333-0.001 0-0.002 0-0.003 0h-7.11c-0.368 0-0.667 0.298-0.667 0.667v0 4c0 0.368 0.298 0.667 0.667 0.667v0h1.667v6.667h-7.287l1.537-5.77 1.697-0.98 0.387-4.617-2.37-0.633-1.963 4.187 0.98 1.697-1.647 6.117h-1.38l-1.78-4.913c0.565-0.713 0.907-1.626 0.907-2.618 0-0.57-0.113-1.114-0.317-1.61l0.010 0.028c-0.607-1.667-2-2.78-3.603-2.887-0.013-0.001-0.027-0.001-0.042-0.001-0.218 0-0.411 0.105-0.533 0.266l-0.001 0.002c-0.083 0.11-0.133 0.249-0.133 0.4 0 0.081 0.015 0.159 0.041 0.232l-0.002-0.005 1 2.71-0.817 0.73-1.077-0.033-1-2.707c-0.097-0.257-0.34-0.436-0.625-0.436-0.174 0-0.333 0.067-0.452 0.176l0-0c-1.16 1.113-1.507 2.847-0.903 4.517 0.477 1.437 1.665 2.515 3.136 2.828l0.028 0.005 1.21 3.317h-2.667c-1.105 0-2 0.895-2 2v0 3c-0.736 0-1.333 0.597-1.333 1.333v0 2.667c0 0.736 0.597 1.333 1.333 1.333v0 7.667c0 1.105 0.895 2 2 2v0h25.333c1.105 0 2-0.895 2-2v0-7.667c0.736 0 1.333-0.597 1.333-1.333v0-2.667c0-0.736-0.597-1.333-1.333-1.333v0zM20 4v-2.667h6.077c0.467 0.693 1.667 2.237 3.257 2.593v0.073zM22.333 5.333h1.333v6.667h-1.333zM5.9 7.843c-0.092-0.245-0.317-0.42-0.585-0.437l-0.002-0c-1.087-0.067-2-0.817-2.433-2-0.136-0.339-0.215-0.732-0.215-1.144 0-0.349 0.057-0.685 0.162-0.998l-0.006 0.022 0.687 1.89c0.093 0.253 0.328 0.431 0.606 0.44l0.001 0 1.793 0.057c0.005 0 0.010 0 0.015 0 0.173 0 0.332-0.064 0.452-0.171l-0.001 0.001 1.333-1.197c0.138-0.123 0.224-0.3 0.224-0.498 0-0.082-0.015-0.16-0.042-0.233l0.002 0.005-0.683-1.897c0.61 0.388 1.071 0.964 1.307 1.644l0.007 0.022c0.433 1.193 0.22 2.353-0.573 3.103-0.128 0.122-0.208 0.293-0.208 0.483 0 0.083 0.015 0.162 0.042 0.235l-0.002-0.005 1.753 4.833h-2.107zM28 29.333h-24v-8.333h8v0.667c0 0.736 0.597 1.333 1.333 1.333v0h5.333c0.736 0 1.333-0.597 1.333-1.333v0-0.667h8zM14.667 20.333v-1.333h2.667v1.333zM28 18.333h-8v-0.667c0-0.736-0.597-1.333-1.333-1.333v0h-5.333c-0.736 0-1.333 0.597-1.333 1.333v0 0.667h-8v-3.667h24z"></path>
</svg>
