<?xml version="1.0" encoding="utf-8"?>
<!-- Generator: Adobe Illustrator 20.1.0, SVG Export Plug-In . SVG Version: 6.00 Build 0)  -->
<svg version="1.1" id="Layer_2" xmlns="http://www.w3.org/2000/svg" xmlns:xlink="http://www.w3.org/1999/xlink" x="0px" y="0px"
	 viewBox="0 0 72 72" style="enable-background:new 0 0 72 72;" xml:space="preserve">
<g>
	<g>
		<g>
			<g>
				<g>
					<path d="M49.9,72H11.1c-2,0-3.5-1.6-3.5-3.5v-54c0-1.9,1.6-3.5,3.5-3.5h24.4c0.3,0,0.5,0.1,0.7,0.3l17.1,18
						c0.2,0.2,0.3,0.4,0.3,0.7v38.5C53.5,70.4,51.9,72,49.9,72z M11.1,13c-0.9,0-1.5,0.7-1.5,1.5v54c0,0.8,0.7,1.5,1.5,1.5h38.9
						c0.8,0,1.5-0.7,1.5-1.5V30.3L35,13H11.1z"/>
				</g>
			</g>
		</g>
		<g>
			<g>
				<path d="M52,31.3h-11c-3.3,0-7-2.5-7-6l-0.1-13c0-0.6,0.4-1,1-1c0,0,0,0,0,0c0.5,0,1,0.4,1,1l0.1,13c0,2.3,2.7,4,5,4h11
					c0.6,0,1,0.4,1,1S52.5,31.3,52,31.3z"/>
			</g>
		</g>
	</g>
	<g>
		<g>
			<g>
				<g>
					<path d="M60.9,61h-2.9c-0.6,0-1-0.4-1-1s0.4-1,1-1h2.9c0.8,0,1.5-0.7,1.5-1.5V19.4L46,2H22.1c-0.9,0-1.5,0.7-1.5,1.5v3
						c0,0.6-0.4,1-1,1s-1-0.4-1-1v-3c0-1.9,1.6-3.5,3.5-3.5h24.4c0.3,0,0.5,0.1,0.7,0.3l17.1,18c0.2,0.2,0.3,0.4,0.3,0.7v38.5
						C64.5,59.4,62.9,61,60.9,61z"/>
				</g>
			</g>
		</g>
		<g>
			<g>
				<path d="M63,20.4h-11c-3.3,0-7-2.5-7-6l-0.1-13c0-0.6,0.4-1,1-1c0,0,0,0,0,0c0.5,0,1,0.4,1,1l0.1,13c0,2.3,2.7,4,5,4h11
					c0.6,0,1,0.4,1,1S63.5,20.4,63,20.4z"/>
			</g>
		</g>
	</g>
</g>
</svg>
