<svg version="1.1" xmlns="http://www.w3.org/2000/svg" width="32" height="32" viewBox="0 0 32 32">
<title>copy-subtree</title>
<path fill="#333" d="M25.333 22h4.667c0.736 0 1.333-0.597 1.333-1.333v0-4.667c0-0.736-0.597-1.333-1.333-1.333v0h-4.667c-0.736 0-1.333 0.597-1.333 1.333v0 1h-6.667v-2.333h1c0.736 0 1.333-0.597 1.333-1.333v0-4.667c0-0.736-0.597-1.333-1.333-1.333v0h-4.667c-0.736 0-1.333 0.597-1.333 1.333v0 1h-6.667v-2.333h1.667c0.368 0 0.667-0.298 0.667-0.667v0-6c0-0.368-0.298-0.667-0.667-0.667v0h-6c-0.368 0-0.667 0.298-0.667 0.667v0 6c0 0.368 0.298 0.667 0.667 0.667v0h1.667v24.667h2.667v-19.667h6.667v1c0 0.736 0.597 1.333 1.333 1.333v0h1v13.667c0 0.736 0.597 1.333 1.333 1.333v0h8v1c0 0.736 0.597 1.333 1.333 1.333v0h4.667c0.736 0 1.333-0.597 1.333-1.333v0-4.667c0-0.736-0.597-1.333-1.333-1.333v0h-4.667c-0.736 0-1.333 0.597-1.333 1.333v0 1h-6.667v-7.333h6.667v1c0 0.736 0.597 1.333 1.333 1.333v0zM3 6h-1v-4.667h4.667v4.667h-3.667z"></path>
</svg>
