<svg xmlns="http://www.w3.org/2000/svg" width="32" height="32"><path d="M5.667 28H3.334C1.621 28 .001 26.543.001 25v-2a1 1 0 0 1 2 0v2c0 .367.667 1 1.333 1h2.333a1 1 0 0 1 0 2zM2 19v-4a1 1 0 0 0-2 0v4a1 1 0 0 0 2 0zm10.667 8a1 1 0 0 0-1-1h-2a1 1 0 0 0 0 2h2a1 1 0 0 0 1-1zM32 30v-8a2.077 2.077 0 0 0-2.147-2h.003-6.48l-1.667-1.46a2.222 2.222 0 0 0-1.457-.54H16.142l-.068-.001c-1.12 0-2.033.887-2.075 1.997V30a2.077 2.077 0 0 0 2.075 2.001l.072-.001h-.003 13.713l.068.001c1.12 0 2.033-.887 2.075-1.997V30zm-16-9.96a.243.243 0 0 1 .134-.04H20.256c.051 0 .098.018.135.047l1.943 1.707a.996.996 0 0 0 .658.247H29.866c.05 0 .096.015.135.041L30 22.041v7.92a.243.243 0 0 1-.134.04H16.134a.242.242 0 0 1-.135-.041l.001.001zm14 2zM32 4v8a2.077 2.077 0 0 1-2.075 2.001L29.853 14h.003-13.713l-.068.001A2.077 2.077 0 0 1 14 12.004V10H2v1a1 1 0 0 1-2 0V1a1 1 0 0 1 2 0v7h12V2a2.077 2.077 0 0 1 2.147-2h-.003 4.109c.558 0 1.068.204 1.46.542L21.71.54 23.377 2h6.48l.068-.001c1.12 0 2.033.887 2.075 1.997V4zm-2 .04a.243.243 0 0 0-.134-.04h-6.875a.994.994 0 0 1-.659-.248l.001.001-1.943-1.707a.219.219 0 0 0-.135-.047h-.012.001-4.109A.242.242 0 0 0 16 2.04l.001-.001v9.92c.038.025.084.04.134.04h13.732c.05 0 .096-.015.135-.041l-.001.001z"/></svg>