<svg version="1.1" xmlns="http://www.w3.org/2000/svg" width="32" height="32" viewBox="0 0 32 32">
<title>copy</title>
<path fill="#333" d="M22 13.383l-6.667-7.597c-0.245-0.278-0.602-0.453-1-0.453h-10.667c-0.736 0-1.333 0.597-1.333 1.333v0 24c0 0.736 0.597 1.333 1.333 1.333v0h17.333c0.736 0 1.333-0.597 1.333-1.333v0-16.403c-0-0.338-0.127-0.647-0.335-0.881l0.001 0.001zM19.020 14.030h-2.433c-1.173 0-1.81-0.307-1.81-1.933v-2.903zM5 29.333v-21.333h7.107v4.1c0 2.92 1.63 4.597 4.477 4.597h3.083v12.637zM29.333 8.050l-6.667-7.597c-0.245-0.278-0.602-0.453-1-0.453h-10.667c-0.736 0-1.333 0.597-1.333 1.333v0 1.333c0 0.736 0.597 1.333 1.333 1.333s1.333-0.597 1.333-1.333v0h7.107v4.1c0 2.92 1.63 4.597 4.477 4.597h3.083v12.637h-1.667c-0.736 0-1.333 0.597-1.333 1.333s0.597 1.333 1.333 1.333v0h3c0.736 0 1.333-0.597 1.333-1.333v0-16.403c-0-0.338-0.127-0.647-0.335-0.881l0.001 0.001zM22.113 6.763v-2.903l4.243 4.837h-2.433c-1.173 0-1.81-0.307-1.81-1.933z"></path>
</svg>
