<svg xmlns="http://www.w3.org/2000/svg" width="32" height="32"><path d="M19.333 20H16a1 1 0 0 1 0-2h3.333a1 1 0 0 1 0 2zm5.334 3.667V8.334a1 1 0 0 0-1-1H8.334a1 1 0 0 0-1 1v15.333a1 1 0 0 0 1 1h15.333a1 1 0 0 0 1-1zM9.333 9.333h13.333v13.333H9.333zM31 17a1 1 0 0 0 0-2h-2.333V9.333H31a1 1 0 0 0 0-2h-2.333v-3a1 1 0 0 0-1-1h-3V1a1 1 0 0 0-2 0v2.333H17V1a1 1 0 0 0-2 0v2.333H9.333V1a1 1 0 0 0-2 0v2.333h-3a1 1 0 0 0-1 1v3H1a1 1 0 0 0 0 2h2.333V15H1a1 1 0 0 0 0 2h2.333v5.667H1a1 1 0 0 0 0 2h2.333v3a1 1 0 0 0 1 1h3V31a1 1 0 0 0 2 0v-2.333H15V31a1 1 0 0 0 2 0v-2.333h5.667V31a1 1 0 0 0 2 0v-2.333h3a1 1 0 0 0 1-1v-3H31a1 1 0 0 0 0-2h-2.333V17zm-4.333 9.667H5.334V5.334h21.333z"/></svg>