<svg xmlns="http://www.w3.org/2000/svg" viewBox="0 0 96 96"><path d="M60 64H36a4 4 0 0 1-4-4V36a4 4 0 0 1 4-4h24a4 4 0 0 1 4 4v24a4 4 0 0 1-4 4zm-20-8h16V40H40zm52-12a4 4 0 0 0 0-8h-8v-8h8a4 4 0 0 0 0-8h-8a8 8 0 0 0-7-7.93V4a4 4 0 0 0-8 0v8h-9V4a4 4 0 0 0-8 0v8h-8V4a4 4 0 0 0-8 0v8h-8V4a4 4 0 0 0-8 0v8a8 8 0 0 0-8 8H4a4 4 0 0 0 0 8h8v8H4a4 4 0 0 0 0 8h8v8H4a4 4 0 0 0 0 8h8v8H4a4 4 0 0 0 0 8h8a8 8 0 0 0 8 8v8a4 4 0 0 0 8 0v-8h8v8a4 4 0 0 0 8 0v-8h8v8a4 4 0 0 0 8 0v-8h8v8a4 4 0 0 0 8 0v-8a8 8 0 0 0 8-8h8a4 4 0 0 0 0-8h-8v-8h8a4 4 0 0 0 0-8h-8v-8zM20 76V20h56v56z" fill="#333"/></svg>