<?xml version="1.0" encoding="utf-8"?>
<!-- Generator: Adobe Illustrator 20.1.0, SVG Export Plug-In . SVG Version: 6.00 Build 0)  -->
<svg version="1.1" id="Layer_1" xmlns="http://www.w3.org/2000/svg" xmlns:xlink="http://www.w3.org/1999/xlink" x="0px" y="0px"
	 viewBox="0 0 72 72" style="enable-background:new 0 0 72 72;" xml:space="preserve">
<g>
	<g>
		<g>
			<g>
				<g>
					<path d="M36,72H8.1C5.9,72,4,70.1,4,67.9v-64C4,1.7,5.9,0,8.1,0H37c0.3,0,0.5,0.1,0.7,0.3l20,21.2c0.2,0.2,0.3,0.4,0.3,0.7V36
						c0,0.6-0.4,1-1,1s-1-0.4-1-1V22.6L36.6,2H8.1C7,2,6,2.8,6,3.9v64C6,69,7,70,8.1,70H36c0.6,0,1,0.4,1,1S36.6,72,36,72z"/>
				</g>
			</g>
		</g>
		<g>
			<g>
				<path d="M57,24H43.5c-3.8,0-8.1-2.9-8.1-7l0-15.5c0-0.6,0.4-1,1-1c0,0,0,0,0,0c0.6,0,1,0.4,1,1l0,15.5c0,2.9,3.2,5,6.1,5H57
					c0.6,0,1,0.4,1,1S57.6,24,57,24z"/>
			</g>
		</g>
	</g>
	<g>
		<g>
			<path d="M52.9,72c-8.3,0-15-6.7-15-15s6.7-15,15-15c8.3,0,15,6.7,15,15S61.1,72,52.9,72z M52.9,44c-7.2,0-13,5.8-13,13
				s5.8,13,13,13c7.2,0,13-5.8,13-13S60,44,52.9,44z"/>
		</g>
		<g>
			<g>
				<path d="M53.2,63.8c-0.6,0-1-0.4-1-1v-12c0-0.6,0.4-1,1-1s1,0.4,1,1v12C54.2,63.3,53.7,63.8,53.2,63.8z"/>
			</g>
			<g>
				<path d="M59.1,58h-12c-0.6,0-1-0.4-1-1s0.4-1,1-1h12c0.6,0,1,0.4,1,1S59.7,58,59.1,58z"/>
			</g>
		</g>
	</g>
</g>
</svg>
