<svg xmlns="http://www.w3.org/2000/svg" viewBox="0 0 95.83 96.13"><g id="Warstwa_2" data-name="Warstwa 2"><g id="_191_create-location" data-name="191 create-location"><path d="M45.38,19.1H2.92A2.92,2.92,0,0,1,0,16.18V2.92A2.92,2.92,0,0,1,2.92,0H45.38a2.91,2.91,0,0,1,2.91,2.92V16.18A2.91,2.91,0,0,1,45.38,19.1ZM5.83,13.27H42.46V5.83H5.83Z"/><path d="M92.92,96.13H50.46a2.92,2.92,0,0,1-2.92-2.92V79.94A2.91,2.91,0,0,1,50.46,77H92.92a2.91,2.91,0,0,1,2.91,2.91V93.21A2.91,2.91,0,0,1,92.92,96.13ZM53.37,90.29H90V82.86H53.37Z"/><path d="M49.64,88.49h-21c-3.93,0-7.13-2.78-7.13-6.21V19.72a2.92,2.92,0,1,1,5.83,0V82.21a1.79,1.79,0,0,0,1.3.45h21a2.92,2.92,0,1,1,0,5.83Z"/><path d="M41.08,46.83H24.39a2.92,2.92,0,1,1,0-5.84H41.08a2.92,2.92,0,1,1,0,5.84Z"/></g><g id="_86_file" data-name="86 file"><path d="M61.92,61a3,3,0,0,1-3-3V33.33a3,3,0,0,1,6,0V58A3,3,0,0,1,61.92,61Z"/><path d="M74.05,48.64H49.78a3,3,0,0,1,0-6H74.05a3,3,0,0,1,0,6Z"/></g></g></svg>