<svg version="1.1" xmlns="http://www.w3.org/2000/svg" width="32" height="32" viewBox="0 0 32 32">
<title>create-content</title>
<path fill="#333" d="M26.35 8.91l-7.183-8.44c-0.243-0.284-0.6-0.465-0.999-0.47h-11.501c-0.736 0-1.333 0.597-1.333 1.333v0 26.667c0 0.736 0.597 1.333 1.333 1.333v0h8.667c0.736 0 1.333-0.597 1.333-1.333s-0.597-1.333-1.333-1.333v0h-7.333v-24h7.833v4.71c0 3.17 1.763 5 4.837 5h3.33v5.623c0 0.736 0.597 1.333 1.333 1.333s1.333-0.597 1.333-1.333v0-8.227c0-0 0-0 0-0.001 0-0.33-0.12-0.632-0.318-0.865l0.002 0.002zM18.507 7.377v-3.573l5 5.893h-2.84c-1.803 0-2.16-0.85-2.16-2.32zM29.333 26.667c0 0.736-0.597 1.333-1.333 1.333v0h-2.667v2.667c0 0.736-0.597 1.333-1.333 1.333s-1.333-0.597-1.333-1.333v0-2.667h-2.667c-0.736 0-1.333-0.597-1.333-1.333s0.597-1.333 1.333-1.333v0h2.667v-2.667c0-0.736 0.597-1.333 1.333-1.333s1.333 0.597 1.333 1.333v0 2.667h2.667c0.736 0 1.333 0.597 1.333 1.333v0z"></path>
</svg>
