<svg xmlns="http://www.w3.org/2000/svg" width="32" height="32"><path d="M32 27a1 1 0 0 1-1 1h-3v3a1 1 0 0 1-2 0v-3h-3a1 1 0 0 1 0-2h3v-3a1 1 0 0 1 2 0v3h3a1 1 0 0 1 1 1zM28 7.783V19a1 1 0 0 1-2 0V8.933h-4.2A2.737 2.737 0 0 1 19.067 6.2V2H3.601a1.6 1.6 0 0 0-1.6 1.6v20.806A1.603 1.603 0 0 0 3.601 26h15.71a1 1 0 0 1 0 2H3.598a3.597 3.597 0 0 1-3.597-3.597v-20.8a3.607 3.607 0 0 1 1.057-2.55A3.56 3.56 0 0 1 3.591 0h16.634c.752 0 1.433.306 1.925.8l5.05 5.053a2.7 2.7 0 0 1 .8 1.921v.009zm-6.2-.85h3.667l-4.4-4.387v3.667a.737.737 0 0 0 .733.72z"/></svg>