<svg xmlns="http://www.w3.org/2000/svg" width="32" height="32"><path d="M27 32h-6.005a1 1 0 0 1-.995-.896V31.1l-.903-9.1H17a1 1 0 0 1-1-1v-3a8 8 0 0 1 16 0v3a1 1 0 0 1-1 1h-2.097L28 31.1a1 1 0 0 1-.995.9H27zm-5.097-2h4.193l.903-9.1a1 1 0 0 1 .995-.9h2.005v-2a6 6 0 1 0-12 0v2h2.005a1 1 0 0 1 .995.896v.004zM24 10a5 5 0 1 1 5-5 5 5 0 0 1-5 5zm0-8a3 3 0 1 0 3 3 3 3 0 0 0-3-3zm-9.923 20.193A2.868 2.868 0 0 0 13.034 22H13l-1.747-4.06a1 1 0 1 0-1.838.794l-.002-.006 1.403 3.273H5.183l1.403-3.273a1 1 0 0 0-1.838-.793l-.003.006-1.747 4.06h-.04a3 3 0 0 0-2.766 4.067l-.007-.021 1.717 4.667a2.004 2.004 0 0 0 1.856 1.287h8.481a2 2 0 0 0 1.852-1.29l.005-.014 1.717-4.667a3 3 0 0 0-1.716-3.829l-.02-.007zm-.14 3.16L12.24 30H3.78l-1.717-4.643A1.043 1.043 0 0 1 2 25.001v-.02a.98.98 0 0 1 .963-.98h10.07c.119 0 .233.023.338.066l-.006-.002a1.002 1.002 0 0 1 .571 1.297l.002-.007z"/></svg>