<svg version="1.1" xmlns="http://www.w3.org/2000/svg" width="32" height="32" viewBox="0 0 32 32">
<title>customer</title>
<path fill="#333" d="M30.333 24.833c0 1.193-0.76 4.083-4 4.71v1.123c0 0.736-0.597 1.333-1.333 1.333s-1.333-0.597-1.333-1.333v0-1.093c-3.95-0.6-4-3.83-4-3.867h2.667v-0.040c0 0.223 0.217 1.333 2.667 1.333s2.667-1.667 2.667-2.183-0.243-2.15-2.667-2.15c-4.377 0-5.333-3.49-5.333-4.833 0-1.193 0.76-4.083 4-4.71v-1.123c0-0.736 0.597-1.333 1.333-1.333s1.333 0.597 1.333 1.333v0 1.093c3.95 0.6 4 3.83 4 3.867h-2.667v0.040c0-0.223-0.217-1.333-2.667-1.333s-2.667 1.667-2.667 2.183 0.243 2.15 2.667 2.15c4.377 0 5.333 3.49 5.333 4.833zM20.333 8c0-4.418-3.582-8-8-8s-8 3.582-8 8c0 4.418 3.582 8 8 8v0c4.418 0 8-3.582 8-8v0zM17.667 8c0 2.946-2.388 5.333-5.333 5.333s-5.333-2.388-5.333-5.333c0-2.946 2.388-5.333 5.333-5.333v0c2.946 0 5.333 2.388 5.333 5.333v0zM15.667 32h-11.363c-0.001 0-0.001 0-0.002 0-0.837 0-1.581-0.397-2.054-1.014l-0.005-0.006c-0.361-0.469-0.578-1.065-0.578-1.712 0-0.213 0.024-0.421 0.068-0.62l-0.004 0.019c0.033-0.352 0.089-0.672 0.169-0.982l-0.009 0.042c0.1-0.4 1.69-6.667 2.973-8.437 1.917-2.623 5.107-2.623 5.52-2.623h3c0.516 0.005 1.018 0.044 1.509 0.117l-0.059-0.007c0.65 0.097 1.142 0.651 1.142 1.32 0 0.737-0.597 1.334-1.334 1.334-0.068 0-0.134-0.005-0.199-0.015l0.007 0.001c-0.309-0.049-0.669-0.079-1.035-0.083l-0.005-0h-3.103s-2.133-0.043-3.29 1.537c-0.6 0.82-1.837 4.643-2.54 7.517v0.040c-0.041 0.16-0.072 0.349-0.086 0.542l-0.001 0.011c-0.007 0.092-0.022 0.177-0.046 0.259l0.002-0.009c-0.010 0.021-0.016 0.046-0.016 0.073 0 0.011 0.001 0.021 0.003 0.032l-0-0.001h11.333c0.736 0 1.333 0.597 1.333 1.333s-0.597 1.333-1.333 1.333v0z"></path>
</svg>
