<svg xmlns="http://www.w3.org/2000/svg" viewBox="0 0 96 96"><path d="M91 74.5c0 3.58-2.28 12.25-12 14.13V92a4 4 0 0 1-8 0v-3.28c-11.85-1.8-12-11.49-12-11.6h8V77c0 .67.65 4 8 4s8-5 8-6.55S82.27 68 75 68c-13.13 0-16-10.47-16-14.5 0-3.58 2.28-12.25 12-14.13V36a4 4 0 0 1 8 0v3.28c11.85 1.8 12 11.49 12 11.6h-8V51c0-.67-.65-4-8-4s-8 5-8 6.55.73 6.45 8 6.45c13.13 0 16 10.47 16 14.5zM61 24a24 24 0 1 0-24 24 24 24 0 0 0 24-24zm-8 0A16 16 0 1 1 37 8a16 16 0 0 1 16 16zm-6 72H12.91a7.76 7.76 0 0 1-6.18-3.06A8.47 8.47 0 0 1 5.19 86a18.35 18.35 0 0 1 .48-2.82c.3-1.2 5.07-20 8.92-25.31C20.34 50 29.91 50 31.15 50h9a32.56 32.56 0 0 1 4.35.33 4 4 0 0 1-1.15 7.92 22.87 22.87 0 0 0-3.12-.25h-9.31s-6.4-.13-9.87 4.61c-1.8 2.46-5.51 13.93-7.62 22.55v.12a10.15 10.15 0 0 0-.26 1.66 3.8 3.8 0 0 1-.13.75.52.52 0 0 0-.04.31h34a4 4 0 0 1 0 8z" fill="#333"/></svg>