<svg version="1.1" xmlns="http://www.w3.org/2000/svg" width="32" height="32" viewBox="0 0 32 32">
<title>custom_tags</title>
<path fill="#333" d="M4 25.333c-0 0-0.001 0-0.001 0-0.736 0-1.333-0.597-1.333-1.333 0-0.367 0.148-0.699 0.388-0.94l-0 0 7.060-7.097-7.053-7c-0.243-0.242-0.394-0.577-0.394-0.947 0-0.737 0.597-1.334 1.334-1.334 0.367 0 0.699 0.148 0.94 0.388l8 7.93c0.243 0.242 0.393 0.576 0.393 0.946 0 0.003 0 0.005-0 0.008v-0c-0 0.369-0.148 0.703-0.387 0.947l0-0-8 8.040c-0.242 0.243-0.576 0.393-0.946 0.393-0 0-0.001 0-0.001 0h0zM29.333 24c0-0.736-0.597-1.333-1.333-1.333v0h-13.333c-0.736 0-1.333 0.597-1.333 1.333s0.597 1.333 1.333 1.333v0h13.333c0.736 0 1.333-0.597 1.333-1.333v0z"></path>
</svg>
