<?xml version="1.0" encoding="utf-8"?>
<!-- Generator: Adobe Illustrator 20.1.0, SVG Export Plug-In . SVG Version: 6.00 Build 0)  -->
<svg version="1.1" id="Layer_2" xmlns="http://www.w3.org/2000/svg" xmlns:xlink="http://www.w3.org/1999/xlink" x="0px" y="0px"
	 viewBox="0 0 72 72" style="enable-background:new 0 0 72 72;" xml:space="preserve">
<g>
	<g>
		<path d="M36,72C16.1,72,0,55.9,0,36S16.1,0,36,0s36,16.1,36,36S55.9,72,36,72z M36,2C17.3,2,2,17.3,2,36c0,18.7,15.3,34,34,34
			c18.7,0,34-15.3,34-34C70,17.3,54.7,2,36,2z M9,37c-0.6,0-1-0.4-1-1C8,35.7,8.3,8,36,8s28,27.7,28,28c0,0.6-0.4,1-1,1h0
			c-0.6,0-1-0.4-1-1c0-0.1,0-6.7-3.3-13.1C54.4,14.3,46.8,10,36,10c-25.7,0-26,24.9-26,26C10,36.6,9.6,37,9,37z M38.8,34.5
			c-0.3,0-0.5-0.1-0.7-0.3c-0.4-0.4-0.4-1,0-1.4l11.2-11.5c0.4-0.4,1-0.4,1.4,0c0.4,0.4,0.4,1,0,1.4L39.5,34.2
			C39.3,34.4,39.1,34.5,38.8,34.5z"/>
	</g>
	<path d="M40,36c0,2.2-1.8,4-4,4s-4-1.8-4-4s1.8-4,4-4S40,33.8,40,36z"/>
</g>
</svg>
