<svg version="1.1" xmlns="http://www.w3.org/2000/svg" width="32" height="32" viewBox="0 0 32 32">
    <title>+icon/+oss/dashboard</title>
    <g id="+icon/+oss/dashboard" stroke="none" stroke-width="1" fill="none" fill-rule="evenodd">
        <path d="M25.9999999,16.667 C25.264,16.667 24.667,16.0699999 24.667,15.3339999 L24.667,15.3339999 C24.667,10.9239999 20.78,7.33399995 15.9999999,7.33399995 C11.2199999,7.33399995 7.33299995,10.9239999 7.33299995,15.3339999 C7.33299995,16.0699999 6.73599995,16.667 5.99999995,16.667 C5.26399995,16.667 4.66699995,16.0699999 4.66699995,15.3339999 L4.66699995,15.3339999 C4.66699995,9.45099995 9.74999995,4.66699995 15.9999999,4.66699995 C22.2499999,4.66699995 27.3329999,9.44999995 27.3329999,15.3339999 C27.3329999,16.0699999 26.7359999,16.667 25.9999999,16.667 L25.9999999,16.667 Z M31.9999999,15.9999999 C31.9999999,7.16299995 24.8369999,-5.00000006e-08 15.9999999,-5.00000006e-08 C7.16299995,-5.00000006e-08 -5.00000006e-08,7.16299995 -5.00000006e-08,15.9999999 C-5.00000006e-08,24.8369999 7.16299995,31.9999999 15.9999999,31.9999999 L15.9999999,31.9999999 C24.8329999,31.9909999 31.9909999,24.8329999 31.9999999,16.0009999 L31.9999999,15.9999999 Z M29.3329999,15.9999999 C29.3329999,23.3639999 23.3629999,29.3329999 15.9999999,29.3329999 C8.63699995,29.3329999 2.66699995,23.3629999 2.66699995,15.9999999 C2.66699995,8.63599995 8.63699995,2.66699995 15.9999999,2.66699995 L15.9999999,2.66699995 C23.3639999,2.66699995 29.3329999,8.63699995 29.3329999,15.9999999 L29.3329999,15.9999999 Z M20.943,11.0569999 C20.702,10.8149999 20.368,10.6659999 20,10.6659999 C19.632,10.6659999 19.298,10.8149999 19.057,11.0569999 L19.057,11.0569999 L16.687,13.4269999 C16.481,13.3679999 16.245,13.3339999 16.001,13.3339999 L16.001,13.3339999 C14.5279999,13.3339999 13.3339999,14.5279999 13.3339999,16.0009999 C13.3339999,17.4739999 14.5279999,18.6679999 16.001,18.6679999 C17.4739999,18.6679999 18.668,17.4739999 18.668,16.0009999 L18.668,16.0009999 C18.668,15.7559999 18.633,15.5199999 18.57,15.2959999 L18.574,15.3139999 L20.944,12.9439999 C21.186,12.7029999 21.335,12.3689999 21.335,12.0009999 C21.335,11.6329999 21.186,11.2989999 20.944,11.0579999 L20.944,11.0579999 L20.943,11.0569999 Z" id="dashboard" fill="#131C26"></path>
    </g>
</svg>