<svg version="1.1" xmlns="http://www.w3.org/2000/svg" width="32" height="32" viewBox="0 0 32 32">
<title>dashboard</title>
<path fill="#333" d="M26 16.667c-0.736 0-1.333-0.597-1.333-1.333v0c0-4.41-3.887-8-8.667-8s-8.667 3.59-8.667 8c0 0.736-0.597 1.333-1.333 1.333s-1.333-0.597-1.333-1.333v0c0-5.883 5.083-10.667 11.333-10.667s11.333 4.783 11.333 10.667c0 0.736-0.597 1.333-1.333 1.333v0zM32 16c0-8.837-7.163-16-16-16s-16 7.163-16 16c0 8.837 7.163 16 16 16v0c8.833-0.009 15.991-7.167 16-15.999v-0.001zM29.333 16c0 7.364-5.97 13.333-13.333 13.333s-13.333-5.97-13.333-13.333c0-7.364 5.97-13.333 13.333-13.333v0c7.364 0 13.333 5.97 13.333 13.333v0zM20.943 11.057c-0.241-0.242-0.575-0.391-0.943-0.391s-0.702 0.149-0.943 0.391v0l-2.37 2.37c-0.206-0.059-0.442-0.093-0.686-0.093h-0c-1.473 0-2.667 1.194-2.667 2.667s1.194 2.667 2.667 2.667c1.473 0 2.667-1.194 2.667-2.667v0c-0-0.245-0.035-0.481-0.098-0.705l0.004 0.018 2.37-2.37c0.242-0.241 0.391-0.575 0.391-0.943s-0.149-0.702-0.391-0.943v0z"></path>
</svg>
