<svg xmlns="http://www.w3.org/2000/svg" width="32" height="32"><path d="M16 0C7.163 0 0 7.163 0 16s7.163 16 16 16 16-7.163 16-16C31.991 7.167 24.833.009 16.001 0H16zm0 30a13.98 13.98 0 0 1-11.256-5.685l-.027-.038c3.2-2.039 7.1-3.25 11.283-3.25s8.083 1.211 11.369 3.301l-.086-.051C24.708 27.762 20.615 29.998 16 30zm-.487-13.29a2.784 2.784 0 0 1 2.311.627l-.004-.003a3.334 3.334 0 0 1 1.1 1.852l.004.022a23.65 23.65 0 0 0-5.941.013l.117-.012c.3-1.28 1.233-2.297 2.413-2.497zm5.467 2.857a5.385 5.385 0 0 0-1.863-3.744l-.007-.006a4.884 4.884 0 0 0-1.41-.832l-.034-.011 2.933-7.613a1 1 0 0 0-1.864-.726l-.002.007-3.093 8.043c-.174.011-.333.03-.49.057l.026-.004c-2.22.38-3.93 2.41-4.15 4.83-2.786.611-5.249 1.656-7.449 3.074l.089-.054c-1.049-1.916-1.667-4.198-1.667-6.625 0-7.732 6.268-14 14-14s14 6.268 14 14v.04-.002a13.832 13.832 0 0 1-1.703 6.659l.036-.072a22.241 22.241 0 0 0-7.203-2.992l-.15-.028zm6.353-3.9A1.667 1.667 0 1 1 25.666 14c.92 0 1.667.746 1.667 1.667zm-1.666-5.334A1.667 1.667 0 1 1 24 8.666c.92 0 1.667.746 1.667 1.667zm-11.334-4a1.667 1.667 0 1 1-1.667-1.667c.92 0 1.667.746 1.667 1.667zm-4.666 4A1.667 1.667 0 1 1 8 8.666c.92 0 1.667.746 1.667 1.667zM8 15.667A1.667 1.667 0 1 1 6.333 14C7.253 14 8 14.746 8 15.667z"/></svg>