<svg version="1.1" xmlns="http://www.w3.org/2000/svg" width="32" height="32" viewBox="0 0 32 32">
    <title>+icon/+oss/autosave copy 5</title>
    <g id="+Main-menu" stroke="none" stroke-width="1" fill="none" fill-rule="evenodd">
        <g id="Main-menu" transform="translate(-491.000000, -3582.000000)" fill="#131C26">
            <g id="Group" transform="translate(491.500000, 3582.000000)">
                <g id="_x37_0_dashboard" transform="translate(-0.000000, -0.000000)">
                    <path d="M6.33333336,14.0000001 C5.41333336,14.0000001 4.66666669,14.7466667 4.66666669,15.6666667 C4.66666669,16.5866667 5.41333336,17.3333334 6.33333336,17.3333334 C7.25333336,17.3333334 8.00000003,16.5866667 8.00000003,15.6666667 C8.00000003,14.7466667 7.25333336,14.0000001 6.33333336,14.0000001 Z M6.33333336,16.0000001 C6.15000003,16.0000001 6.00000002,15.8500001 6.00000002,15.6666667 C6.00000002,15.4833334 6.15000003,15.3333334 6.33333336,15.3333334 C6.51666669,15.3333334 6.66666669,15.4833334 6.66666669,15.6666667 C6.66666669,15.8500001 6.51666669,16.0000001 6.33333336,16.0000001 Z M16,0 C7.1766667,0 0,7.1766667 0,16 C0,24.8233334 7.1766667,32 16,32 C24.8233334,32 32,24.8233334 32,16 C32,7.1766667 24.8233334,0 16,0 Z M16.0000001,30.0000001 C11.3733334,30.0000001 7.2666667,27.7433334 4.71666669,24.2766668 C11.4933334,19.9466667 20.5066668,19.9466667 27.2833334,24.2766668 C24.7333334,27.7433334 20.6266668,30.0000001 16.0000001,30.0000001 Z M13.1033334,19.2133334 C13.4033334,17.9266667 14.3400001,16.9100001 15.5133334,16.7100001 C16.3466667,16.5666667 17.1633334,16.7933334 17.8200001,17.3466667 C18.3833334,17.8200001 18.7666667,18.4800001 18.9233334,19.2166667 C16.9900001,18.9766667 15.0333334,18.9733334 13.1033334,19.2133334 Z M20.9800001,19.5666667 C20.8733334,18.0966667 20.2100001,16.7433334 19.1100001,15.8166667 C18.6700001,15.4466667 18.1866667,15.1666667 17.6733334,14.9733334 L20.6000001,7.36000003 C20.8000001,6.84333336 20.5400001,6.26666669 20.0266668,6.06666669 C19.5100001,5.86666669 18.9333334,6.12666669 18.7333334,6.64000003 L15.6400001,14.6833334 C15.4866667,14.6966667 15.3300001,14.7100001 15.1733334,14.7366667 C12.9533334,15.1166667 11.2433334,17.1466667 11.0233334,19.5633334 C8.43000004,20.1233334 5.92333336,21.1300001 3.64666668,22.5833334 C2.59666668,20.6200001 2.00000001,18.3800001 2.00000001,16 C2.00000001,8.28000003 8.28000003,2.00000001 16,2.00000001 C23.7200001,2.00000001 30,8.28000003 30,16 C30,18.3800001 29.4033335,20.6200001 28.3500001,22.5866668 C26.0766668,21.1333334 23.5733334,20.1266668 20.9800001,19.5666667 Z M8.00000003,8.6666667 C7.08000003,8.6666667 6.33333336,9.41333337 6.33333336,10.3333334 C6.33333336,11.2533334 7.08000003,12 8.00000003,12 C8.92000004,12 9.66666671,11.2533334 9.66666671,10.3333334 C9.66666671,9.41333337 8.92000004,8.6666667 8.00000003,8.6666667 Z M8.00000003,10.6666667 C7.8166667,10.6666667 7.6666667,10.5166667 7.6666667,10.3333334 C7.6666667,10.15 7.8166667,10 8.00000003,10 C8.18333337,10 8.33333337,10.15 8.33333337,10.3333334 C8.33333337,10.5166667 8.18333337,10.6666667 8.00000003,10.6666667 Z M24.0000001,12 C23.9966668,12 23.9933334,12 23.9900001,12 C23.0700001,11.9966667 22.3266668,11.2433334 22.3333334,10.3233334 C22.3366668,9.40666671 23.0833334,8.6666667 24.0000001,8.6666667 C24.0066668,8.6666667 24.0100001,8.6666667 24.0166668,8.6666667 C24.9266668,8.6766667 25.6666668,9.42000004 25.6666668,10.3333334 C25.6633334,11.2566667 24.9166668,12 24.0000001,12 Z M25.6666668,14.0000001 C24.7466668,14.0000001 24.0000001,14.7466667 24.0000001,15.6666667 C24.0000001,16.5866667 24.7466668,17.3333334 25.6666668,17.3333334 C26.5866668,17.3333334 27.3333334,16.5866667 27.3333334,15.6666667 C27.3333334,14.7466667 26.5866668,14.0000001 25.6666668,14.0000001 Z M25.6666668,16.0000001 C25.4833334,16.0000001 25.3333334,15.8500001 25.3333334,15.6666667 C25.3333334,15.4833334 25.4833334,15.3333334 25.6666668,15.3333334 C25.8500001,15.3333334 26.0000001,15.4833334 26.0000001,15.6666667 C26.0000001,15.8500001 25.8500001,16.0000001 25.6666668,16.0000001 Z M12.6666667,4.66666669 C11.7466667,4.66666669 11,5.41333336 11,6.33333336 C11,7.25333336 11.7466667,8.00000003 12.6666667,8.00000003 C13.5866667,8.00000003 14.3333334,7.25333336 14.3333334,6.33333336 C14.3333334,5.41333336 13.5866667,4.66666669 12.6666667,4.66666669 Z M12.6666667,6.66666669 C12.4833334,6.66666669 12.3333334,6.51666669 12.3333334,6.33333336 C12.3333334,6.15000003 12.4833334,6.00000002 12.6666667,6.00000002 C12.8500001,6.00000002 13.0000001,6.15000003 13.0000001,6.33333336 C13.0000001,6.51666669 12.8500001,6.66666669 12.6666667,6.66666669 Z" id="Shape"></path>
                </g>
            </g>
        </g>
    </g>
</svg>