<svg version="1.1" xmlns="http://www.w3.org/2000/svg" width="32" height="32" viewBox="0 0 32 32">
<title>date</title>
<path fill="#333" d="M19.667 4h-7.333c-0.736 0-1.333-0.597-1.333-1.333s0.597-1.333 1.333-1.333v0h7.333c0.736 0 1.333 0.597 1.333 1.333s-0.597 1.333-1.333 1.333v0zM32 4.223v24.887c0 0.001 0 0.002 0 0.003 0 1.591-1.287 2.881-2.876 2.887h-26.247c-1.59-0.006-2.877-1.296-2.877-2.887 0-0.001 0-0.002 0-0.004v0-24.897c0 0 0 0 0-0 0-1.587 1.284-2.874 2.869-2.88h1.464c0.736 0 1.333 0.597 1.333 1.333s-0.597 1.333-1.333 1.333v0h-1.463c-0.113 0.004-0.203 0.096-0.203 0.21 0 0.001 0 0.002 0 0.004v-0 7.12h26.667v-7.11c0-0.001 0-0.002 0-0.003 0-0.119-0.095-0.216-0.213-0.22h-1.454c-0.736 0-1.333-0.597-1.333-1.333s0.597-1.333 1.333-1.333v0h1.453c1.591 0.004 2.88 1.295 2.88 2.887 0 0.001 0 0.002 0 0.004v-0zM29.333 29.11v-15.11h-26.667v15.11c-0 0.001-0 0.002-0 0.004 0 0.118 0.093 0.214 0.21 0.22l0.001 0h26.247c0.117-0.004 0.21-0.099 0.21-0.217 0-0.002-0-0.005-0-0.007v0zM9.667 5.027s0-0.027 0-0.027v-3.667c0-0.736-0.597-1.333-1.333-1.333s-1.333 0.597-1.333 1.333v0 3.667s0 0.017 0 0.027c-0.803 0.47-1.333 1.328-1.333 2.309 0 1.473 1.194 2.667 2.667 2.667s2.667-1.194 2.667-2.667c0-0.982-0.531-1.84-1.321-2.303l-0.013-0.007zM25 5.027s0-0.027 0-0.027v-3.667c0-0.736-0.597-1.333-1.333-1.333s-1.333 0.597-1.333 1.333v0 3.667s0 0.017 0 0.027c-0.803 0.47-1.333 1.328-1.333 2.309 0 1.473 1.194 2.667 2.667 2.667s2.667-1.194 2.667-2.667c0-0.982-0.531-1.84-1.321-2.303l-0.013-0.007z"></path>
</svg>
