<?xml version="1.0" encoding="utf-8"?>
<!-- Generator: Adobe Illustrator 20.1.0, SVG Export Plug-In . SVG Version: 6.00 Build 0)  -->
<svg version="1.1" id="Layer_2" xmlns="http://www.w3.org/2000/svg" xmlns:xlink="http://www.w3.org/1999/xlink" x="0px" y="0px"
	 viewBox="0 0 72 72" style="enable-background:new 0 0 72 72;" xml:space="preserve">
<g>
	<g>
		<path d="M71,72c-0.3,0-0.5-0.1-0.7-0.3l-70-70c-0.4-0.4-0.4-1,0-1.4s1-0.4,1.4,0l70,70c0.4,0.4,0.4,1,0,1.4
			C71.5,71.9,71.3,72,71,72z"/>
	</g>
	<g>
		<path d="M1,72c-0.3,0-0.5-0.1-0.7-0.3c-0.4-0.4-0.4-1,0-1.4l70-70c0.4-0.4,1-0.4,1.4,0s0.4,1,0,1.4l-70,70C1.5,71.9,1.3,72,1,72z"
			/>
	</g>
</g>
</svg>
