<svg version="1.1" xmlns="http://www.w3.org/2000/svg" width="32" height="32" viewBox="0 0 32 32">
<title>discard</title>
<path fill="#333" d="M17.887 16l10.39-10.39c0.241-0.241 0.391-0.575 0.391-0.943 0-0.737-0.597-1.334-1.334-1.334-0.368 0-0.702 0.149-0.943 0.391v0l-10.39 10.39-10.39-10.39c-0.241-0.241-0.575-0.391-0.943-0.391-0.737 0-1.334 0.597-1.334 1.334 0 0.368 0.149 0.702 0.391 0.943l10.39 10.39-10.39 10.39c-0.241 0.241-0.391 0.575-0.391 0.943 0 0.737 0.597 1.334 1.334 1.334 0.368 0 0.702-0.149 0.943-0.391l10.39-10.39 10.39 10.39c0.241 0.241 0.575 0.391 0.943 0.391 0.737 0 1.334-0.597 1.334-1.334 0-0.368-0.149-0.702-0.391-0.943v0z"></path>
</svg>
