<svg version="1.1" xmlns="http://www.w3.org/2000/svg" width="32" height="32" viewBox="0 0 32 32">
<title>download</title>
<path fill="#333" d="M22.18 21.027l-4.573 3.747c-0.436 0.35-0.997 0.561-1.607 0.561s-1.17-0.212-1.612-0.565l0.005 0.004-4.57-3.747c-0.279-0.246-0.453-0.603-0.453-1.002 0-0.736 0.597-1.333 1.333-1.333 0.305 0 0.585 0.102 0.81 0.274l-0.003-0.002 3.157 2.583v-20.213c0-0.736 0.597-1.333 1.333-1.333s1.333 0.597 1.333 1.333v0 20.213l3.153-2.583c0.228-0.189 0.524-0.303 0.847-0.303 0.737 0 1.335 0.598 1.335 1.335 0 0.415-0.189 0.785-0.486 1.030l-0.002 0.002zM28 30.667c0-0.736-0.597-1.333-1.333-1.333v0h-21.333c-0.736 0-1.333 0.597-1.333 1.333s0.597 1.333 1.333 1.333v0h21.333c0.736 0 1.333-0.597 1.333-1.333v0z"></path>
</svg>
