<?xml version="1.0" encoding="utf-8"?>
<!-- Generator: Adobe Illustrator 20.1.0, SVG Export Plug-In . SVG Version: 6.00 Build 0)  -->
<svg version="1.1" xmlns="http://www.w3.org/2000/svg" xmlns:xlink="http://www.w3.org/1999/xlink" x="0px" y="0px"
	 viewBox="0 0 72 72" style="enable-background:new 0 0 72 72;" xml:space="preserve">
<style type="text/css">
	.st0{display:none;}
	.st1{display:inline;}
	.st2{clip-path:url(#SVGID_3_);}
	.st3{clip-path:url(#SVGID_4_);}
</style>
<g id="Layer_1" class="st0">
	<g class="st1">
		<g>
			<defs>
				<rect id="SVGID_1_" x="-1.5" y="1.8" width="75" height="71.2"/>
			</defs>
			<defs>
				<path id="SVGID_2_" d="M71.7,41.5v28.7c0,0.8-0.6,1.4-1.4,1.4H1.7c-0.8,0-1.4-0.6-1.4-1.4V41.5c0-0.8,0.6-1.4,1.4-1.4
					c0.8,0,1.4,0.6,1.4,1.4v27.3h65.8V41.5c0-0.8,0.6-1.4,1.4-1.4C71.1,40.1,71.7,40.7,71.7,41.5L71.7,41.5z M25.1,38.2
					c-0.8,0-1.4,0.6-1.4,1.4c0,0.4,0.2,0.7,0.4,1l11.2,11.2c0.3,0.3,0.6,0.4,1,0.4c0.4,0,0.7-0.2,1-0.4l11.2-11.2
					c0.3-0.3,0.4-0.6,0.4-1c0-0.8-0.6-1.4-1.4-1.4c-0.4,0-0.7,0.2-1,0.4l-8.8,8.8V3.2c0-0.8-0.6-1.4-1.4-1.4c-0.8,0-1.4,0.6-1.4,1.4
					v44.2l-8.8-8.8C25.8,38.4,25.5,38.2,25.1,38.2L25.1,38.2z"/>
			</defs>
			<clipPath id="SVGID_3_">
				<use xlink:href="#SVGID_1_"  style="overflow:visible;"/>
			</clipPath>
			<clipPath id="SVGID_4_" class="st2">
				<use xlink:href="#SVGID_2_"  style="overflow:visible;"/>
			</clipPath>
			<rect x="-9.3" y="-7.8" class="st3" width="90.7" height="89"/>
		</g>
	</g>
</g>
<g id="Layer_2">
	<g>
		<g>
			<g>
				<path d="M36,52.5c-0.9,0-1.8-0.4-2.4-1L23.3,41.3c-0.4-0.4-0.4-1,0-1.4c0.4-0.4,1-0.4,1.4,0L35,50.1c0.5,0.5,1.5,0.5,2,0
					l10.3-10.2c0.4-0.4,1-0.4,1.4,0c0.4,0.4,0.4,1,0,1.4L38.4,51.5C37.8,52.2,36.9,52.5,36,52.5z"/>
			</g>
			<g>
				<path d="M36,52.1c-0.6,0-1-0.4-1-1V1c0-0.6,0.4-1,1-1c0.6,0,1,0.4,1,1v50.1C37,51.7,36.6,52.1,36,52.1z"/>
			</g>
		</g>
		<g>
			<path d="M67,72.1H5c-2.8,0-5-2.2-5-5V40.5c0-0.6,0.4-1,1-1s1,0.4,1,1v26.6c0,1.7,1.3,3,3,3h62c1.7,0,3-1.3,3-3V40.5
				c0-0.6,0.4-1,1-1s1,0.4,1,1v26.6C72,69.9,69.8,72.1,67,72.1z"/>
		</g>
	</g>
</g>
</svg>
