<svg xmlns="http://www.w3.org/2000/svg" width="32" height="32"><path d="M23.61 32h-4.49a1 1 0 0 1 0-2h4.508c.272 0 .519-.103.707-.271l-.001.001a1 1 0 1 1 1.336 1.482l-.002.002a3.03 3.03 0 0 1-2.042.787h-.016.001zm-10.49 0h-6a1 1 0 0 1 0-2h6a1 1 0 0 1 0 2zm-11.727-.847a.998.998 0 0 1-.805-.407l-.002-.003a3.01 3.01 0 0 1-.587-1.794v-4.713a1 1 0 0 1 2 0V28.947c0 .232.075.446.202.619l-.002-.003a.998.998 0 0 1-.197 1.398L2 30.963c-.165.119-.372.19-.595.19h-.012.001zm24.274-5.486a1 1 0 0 1-1-1v-6a1 1 0 0 1 2 0v6a1 1 0 0 1-1 1zM1 19.237a1 1 0 0 1-1-1v-6a1 1 0 0 1 2 0v6a1 1 0 0 1-1 1zM2.027 7.61h-.004a1 1 0 0 1-.504-1.864l.005-.003c.44-.257.969-.41 1.533-.41h4.92a1 1 0 0 1 0 2H3.051c-.193 0-.374.052-.529.143l.005-.003a.962.962 0 0 1-.497.137h-.003zm10.306 13.057h-.01a1 1 0 0 1-.989-1.145l-.001.005.71-4.98a1.01 1.01 0 0 1 .283-.567L25.139 1.177a4.02 4.02 0 0 1 5.662 5.672l.005-.006-12.787 12.823a.993.993 0 0 1-.561.283l-.005.001-4.98.717c-.021.002-.045.002-.07.002s-.049-.001-.073-.003h.003zm4.98-1.714zM14 15.157l-.473 3.333 3.333-.473L29.41 5.444a2.018 2.018 0 0 0-2.854-2.854z"/></svg>