<svg xmlns="http://www.w3.org/2000/svg" viewBox="0 0 96 96"><path d="M41.5 31h-12a2 2 0 0 1-2-2V17a2 2 0 0 1 2-2h12a2 2 0 0 1 2 2v12a2 2 0 0 1-2 2zm27-2V17a2 2 0 0 0-2-2h-12a2 2 0 0 0-2 2v12a2 2 0 0 0 2 2h12a2 2 0 0 0 2-2zm-25 25V42a2 2 0 0 0-2-2h-12a2 2 0 0 0-2 2v12a2 2 0 0 0 2 2h12a2 2 0 0 0 2-2zm25 0V42a2 2 0 0 0-2-2h-12a2 2 0 0 0-2 2v12a2 2 0 0 0 2 2h12a2 2 0 0 0 2-2zm-25 25V67a2 2 0 0 0-2-2h-12a2 2 0 0 0-2 2v12a2 2 0 0 0 2 2h12a2 2 0 0 0 2-2zm25 0V67a2 2 0 0 0-2-2h-12a2 2 0 0 0-2 2v12a2 2 0 0 0 2 2h12a2 2 0 0 0 2-2z" fill="#333"/></svg>