<?xml version="1.0" encoding="utf-8"?>
<!-- Generator: Adobe Illustrator 20.1.0, SVG Export Plug-In . SVG Version: 6.00 Build 0)  -->
<svg version="1.1" id="Layer_2" xmlns="http://www.w3.org/2000/svg" xmlns:xlink="http://www.w3.org/1999/xlink" x="0px" y="0px"
	 viewBox="0 0 72 72" style="enable-background:new 0 0 72 72;" xml:space="preserve">
<g>
	<path d="M14,18H4c-2.2,0-4-1.8-4-4L0,4c0-2.2,1.8-4,4-4l10,0c2.2,0,4,1.8,4,4v10C18,16.2,16.2,18,14,18z"/>
	<path d="M41,18H31c-2.2,0-4-1.8-4-4V4c0-2.2,1.8-4,4-4l10,0c2.2,0,4,1.8,4,4v10C45,16.2,43.2,18,41,18z"/>
	<path d="M68,18H58c-2.2,0-4-1.8-4-4V4c0-2.2,1.8-4,4-4l10,0c2.2,0,4,1.8,4,4v10C72,16.2,70.2,18,68,18z"/>
	<path d="M14,45H4c-2.2,0-4-1.8-4-4l0-10c0-2.2,1.8-4,4-4h10c2.2,0,4,1.8,4,4v10C18,43.2,16.2,45,14,45z"/>
	<path d="M41,45H31c-2.2,0-4-1.8-4-4V31c0-2.2,1.8-4,4-4h10c2.2,0,4,1.8,4,4v10C45,43.2,43.2,45,41,45z"/>
	<path d="M68,45H58c-2.2,0-4-1.8-4-4V31c0-2.2,1.8-4,4-4h10c2.2,0,4,1.8,4,4v10C72,43.2,70.2,45,68,45z"/>
	<path d="M14,72H4c-2.2,0-4-1.8-4-4l0-10c0-2.2,1.8-4,4-4h10c2.2,0,4,1.8,4,4v10C18,70.2,16.2,72,14,72z"/>
	<path d="M41,72H31c-2.2,0-4-1.8-4-4V58c0-2.2,1.8-4,4-4h10c2.2,0,4,1.8,4,4v10C45,70.2,43.2,72,41,72z"/>
	<path d="M68,72H58c-2.2,0-4-1.8-4-4V58c0-2.2,1.8-4,4-4h10c2.2,0,4,1.8,4,4v10C72,70.2,70.2,72,68,72z"/>
</g>
</svg>
