<svg xmlns="http://www.w3.org/2000/svg" width="32" height="32"><path d="M26 24.333v7.333a.333.333 0 0 1-.333.333h-7.333a.333.333 0 0 1-.333-.333v-7.333c0-.184.149-.333.333-.333h7.333c.184 0 .333.149.333.333zM25.667 12h-7.333a.333.333 0 0 0-.333.333v7.333c0 .184.149.333.333.333h7.333a.333.333 0 0 0 .333-.333v-7.333a.333.333 0 0 0-.333-.333zm0-12h-7.333a.333.333 0 0 0-.333.333v7.333c0 .184.149.333.333.333h7.333A.333.333 0 0 0 26 7.666V.333A.333.333 0 0 0 25.667 0zM14 24.333v7.333a.333.333 0 0 1-.333.333H6.334a.333.333 0 0 1-.333-.333v-7.333c0-.184.149-.333.333-.333h7.333c.184 0 .333.149.333.333zM13.667 12H6.334a.333.333 0 0 0-.333.333v7.333c0 .184.149.333.333.333h7.333a.333.333 0 0 0 .333-.333v-7.333a.333.333 0 0 0-.333-.333zm0-12H6.334a.333.333 0 0 0-.333.333v7.333c0 .184.149.333.333.333h7.333A.333.333 0 0 0 14 7.666V.333A.333.333 0 0 0 13.667 0z"/></svg>