<svg version="1.1" xmlns="http://www.w3.org/2000/svg" width="32" height="32" viewBox="0 0 32 32">
<title>dropdown</title>
<path fill="#333" d="M20 27.667h-10.667c-0.736 0-1.333-0.597-1.333-1.333s0.597-1.333 1.333-1.333v0h10.667c0.736 0 1.333 0.597 1.333 1.333s-0.597 1.333-1.333 1.333v0zM28 21.667c0-0.736-0.597-1.333-1.333-1.333v0h-17.333c-0.736 0-1.333 0.597-1.333 1.333s0.597 1.333 1.333 1.333v0h17.333c0.736 0 1.333-0.597 1.333-1.333v0zM5.593 27.64c0.095-0.019 0.179-0.046 0.258-0.080l-0.008 0.003c0.089-0.037 0.165-0.078 0.236-0.124l-0.006 0.004c0.148-0.099 0.271-0.222 0.367-0.365l0.003-0.005c0.042-0.066 0.083-0.141 0.116-0.22l0.004-0.010c0.031-0.071 0.058-0.155 0.075-0.242l0.001-0.008c0.016-0.078 0.026-0.168 0.027-0.259v-0.001c-0.002-0.368-0.151-0.701-0.39-0.943l0 0c-0.061-0.059-0.128-0.114-0.198-0.163l-0.005-0.003c-0.066-0.042-0.141-0.083-0.22-0.116l-0.010-0.004c-0.071-0.031-0.155-0.058-0.242-0.075l-0.008-0.001c-0.078-0.016-0.168-0.025-0.26-0.025s-0.182 0.009-0.269 0.026l0.009-0.001c-0.095 0.019-0.179 0.046-0.258 0.080l0.008-0.003c-0.089 0.037-0.165 0.078-0.236 0.124l0.006-0.004c-0.076 0.053-0.142 0.108-0.204 0.167l0-0c-0.241 0.241-0.39 0.574-0.39 0.942 0 0 0 0.001 0 0.001v-0c0.001 0.092 0.010 0.182 0.028 0.269l-0.002-0.009c0.019 0.095 0.046 0.179 0.080 0.258l-0.003-0.008c0.037 0.089 0.078 0.165 0.124 0.236l-0.004-0.006c0.099 0.148 0.222 0.271 0.365 0.367l0.005 0.003c0.066 0.042 0.141 0.083 0.22 0.116l0.010 0.004c0.071 0.031 0.155 0.058 0.242 0.075l0.008 0.001c0.078 0.017 0.168 0.027 0.26 0.027s0.182-0.010 0.268-0.028l-0.008 0.002zM5.593 22.973c0.095-0.019 0.179-0.046 0.258-0.080l-0.008 0.003c0.089-0.037 0.165-0.078 0.236-0.124l-0.006 0.004c0.148-0.099 0.271-0.222 0.367-0.365l0.003-0.005c0.042-0.066 0.083-0.141 0.116-0.22l0.004-0.010c0.031-0.071 0.058-0.155 0.075-0.242l0.001-0.008c0.017-0.078 0.027-0.168 0.027-0.26s-0.010-0.182-0.028-0.268l0.002 0.008c-0.019-0.095-0.046-0.179-0.080-0.258l0.003 0.008c-0.037-0.089-0.078-0.165-0.124-0.236l0.004 0.006c-0.099-0.148-0.222-0.271-0.365-0.367l-0.005-0.003c-0.066-0.042-0.141-0.083-0.22-0.116l-0.010-0.004c-0.071-0.031-0.155-0.058-0.242-0.075l-0.008-0.001c-0.078-0.017-0.168-0.027-0.26-0.027s-0.182 0.010-0.268 0.029l0.008-0.002c-0.095 0.019-0.179 0.046-0.258 0.080l0.008-0.003c-0.089 0.037-0.165 0.078-0.236 0.124l0.006-0.004c-0.148 0.099-0.271 0.222-0.367 0.365l-0.003 0.005c-0.042 0.066-0.083 0.141-0.116 0.22l-0.004 0.010c-0.031 0.071-0.058 0.155-0.075 0.242l-0.001 0.008c-0.017 0.078-0.027 0.168-0.027 0.26s0.010 0.182 0.028 0.268l-0.002-0.008c0.019 0.095 0.046 0.179 0.080 0.258l-0.003-0.008c0.037 0.089 0.078 0.165 0.124 0.236l-0.004-0.006c0.099 0.148 0.222 0.271 0.365 0.367l0.005 0.003c0.066 0.042 0.141 0.083 0.22 0.116l0.010 0.004c0.071 0.031 0.155 0.058 0.242 0.075l0.008 0.001c0.078 0.017 0.168 0.027 0.26 0.027s0.182-0.010 0.268-0.028l-0.008 0.002zM27.777 12.403c0.139-0.207 0.222-0.462 0.222-0.736 0-0.461-0.234-0.868-0.59-1.107l-0.005-0.003-2-1.333c-0.208-0.14-0.464-0.224-0.74-0.224s-0.532 0.084-0.745 0.227l0.005-0.003-2 1.333c-0.347 0.244-0.571 0.643-0.571 1.094 0 0.736 0.597 1.333 1.333 1.333 0.269 0 0.52-0.080 0.729-0.217l-0.005 0.003 1.257-0.833 1.27 0.84c0.207 0.139 0.462 0.222 0.736 0.222 0.461 0 0.868-0.234 1.107-0.59l0.003-0.005zM30.667 4.333h-29.333c-0.736 0-1.333 0.597-1.333 1.333v0 10.667c0 0.736 0.597 1.333 1.333 1.333v0h29.333c0.736 0 1.333-0.597 1.333-1.333v0-10.667c0-0.736-0.597-1.333-1.333-1.333v0zM2.667 7h14.667v8h-14.667zM29.333 15h-9.333v-8h9.333z"></path>
</svg>
