<svg version="1.1" xmlns="http://www.w3.org/2000/svg" width="32" height="32" viewBox="0 0 32 32">
<title>edit</title>
<path fill="#333" d="M6.703 32c-0 0-0.001 0-0.001 0-0.715 0-1.299-0.563-1.332-1.27l-0-0.003-0.37-8.44c-0.001-0.016-0.001-0.036-0.001-0.055 0-0.235 0.061-0.456 0.168-0.648l-0.003 0.007 7.42-13.59c0.218-0.457 0.676-0.767 1.207-0.767 0.736 0 1.333 0.597 1.333 1.333 0 0.265-0.077 0.512-0.21 0.719l0.003-0.005-7.25 13.26 0.273 6.21 6-2.333 7.21-13.147c0.24-0.375 0.655-0.62 1.126-0.62 0.736 0 1.333 0.597 1.333 1.333 0 0.206-0.047 0.4-0.13 0.574l0.003-0.008-7.413 13.577c-0.152 0.275-0.39 0.486-0.678 0.6l-0.009 0.003-8.197 3.18c-0.143 0.057-0.308 0.090-0.482 0.090-0.001 0-0.001 0-0.002 0h0zM11.333 24.397c-0.736-0.001-1.332-0.597-1.332-1.333 0-0.245 0.066-0.475 0.182-0.673l-0.003 0.006 7.333-12.667c0.235-0.402 0.664-0.667 1.155-0.667 0.737 0 1.334 0.597 1.334 1.334 0 0.245-0.066 0.475-0.182 0.673l0.003-0.006-7.333 12.667c-0.235 0.401-0.664 0.667-1.155 0.667-0.001 0-0.001 0-0.002 0h0zM25.427 10.667c-0.003 0-0.006 0-0.009 0-0.242 0-0.468-0.064-0.664-0.177l0.006 0.003-9.073-5.11c-0.408-0.233-0.678-0.666-0.678-1.161 0-0.261 0.075-0.505 0.205-0.711l-0.003 0.006 1.363-2.183c0.534-0.806 1.437-1.331 2.462-1.331 0.532 0 1.031 0.141 1.462 0.388l-0.014-0.008 6.393 3.617c0.671 0.381 1.166 1.005 1.369 1.75l0.005 0.020c0.053 0.199 0.083 0.428 0.083 0.665 0 0.535-0.155 1.033-0.423 1.453l0.007-0.011-1.363 2.183c-0.241 0.367-0.652 0.607-1.118 0.607-0.003 0-0.006 0-0.009-0h0zM18.21 3.743l6.76 3.807 0.697-1.103c0.003-0.005 0.005-0.010 0.005-0.017s-0.002-0.012-0.005-0.017l0 0c0-0.020-0.020-0.063-0.093-0.107l-6.397-3.6c-0.041-0.025-0.090-0.040-0.143-0.040-0.074 0-0.141 0.029-0.19 0.077l0-0z"></path>
</svg>
