<svg version="1.1" xmlns="http://www.w3.org/2000/svg" width="32" height="32" viewBox="0 0 32 32">
<title>edit</title>
<path fill="#333" d="M27.253 7.857l-1.36 2.183c-0.239 0.38-0.657 0.629-1.132 0.629-0.241 0-0.466-0.064-0.661-0.175l0.007 0.003-9.087-5.117c-0.408-0.233-0.678-0.666-0.678-1.161 0-0.261 0.075-0.505 0.205-0.711l-0.003 0.006 1.363-2.18c0.533-0.808 1.436-1.334 2.463-1.334 0.532 0 1.031 0.141 1.462 0.388l-0.014-0.008 6.393 3.6c0.671 0.379 1.166 1.004 1.365 1.75l0.005 0.020c0.056 0.204 0.088 0.437 0.088 0.679 0 0.53-0.154 1.024-0.421 1.439l0.006-0.011zM6.52 31.91l8.197-3.18c0.296-0.117 0.535-0.329 0.683-0.596l0.003-0.007 7.42-13.58c0.13-0.202 0.207-0.449 0.207-0.714 0-0.736-0.597-1.333-1.333-1.333-0.531 0-0.989 0.31-1.204 0.759l-0.003 0.008-7.193 13.153-6 2.333-0.297-6.213 7.257-13.25c0.13-0.202 0.207-0.449 0.207-0.714 0-0.736-0.597-1.333-1.333-1.333-0.531 0-0.989 0.31-1.204 0.759l-0.003 0.008-7.427 13.577c-0.104 0.185-0.165 0.406-0.165 0.642 0 0.020 0 0.041 0.001 0.061l-0-0.003 0.37 8.44c0.032 0.711 0.616 1.275 1.332 1.275 0.174 0 0.341-0.033 0.494-0.094l-0.009 0.003zM11.82 23.73l7.333-12.667c0.096-0.179 0.152-0.392 0.152-0.618 0-0.736-0.597-1.333-1.333-1.333-0.471 0-0.885 0.244-1.122 0.613l-0.003 0.005-7.333 12.667c-0.112 0.191-0.178 0.421-0.178 0.666 0 0.49 0.265 0.919 0.659 1.15l0.006 0.003c0.189 0.113 0.417 0.18 0.66 0.18 0.002 0 0.005 0 0.007-0h-0c0.49-0.001 0.919-0.266 1.15-0.66l0.003-0.006z"></path>
</svg>
