<svg xmlns="http://www.w3.org/2000/svg" viewBox="0 0 96 96"><path d="M81.76 23.57l-4.08 6.55a4 4 0 0 1-5.36 1.37L45.06 16.14a4 4 0 0 1-1.43-5.6L47.72 4a8.82 8.82 0 0 1 11.73-2.86l19.18 10.8a8.54 8.54 0 0 1 4.11 5.31 8 8 0 0 1-.98 6.32zm-62.2 72.16l24.59-9.54a4 4 0 0 0 2.06-1.81l22.26-40.74a4 4 0 1 0-7-3.84L39.89 79.26l-18 7L21 67.62l21.77-39.75a4 4 0 1 0-7-3.84L13.49 64.76a4 4 0 0 0-.49 2.1l1.11 25.32a4 4 0 0 0 5.45 3.55zm15.9-24.54l22-38a4 4 0 0 0-6.92-4l-22 38A4 4 0 0 0 30 72.65a3.9 3.9 0 0 0 2 .54 4 4 0 0 0 3.46-2z" fill="#333"/></svg>