<svg xmlns="http://www.w3.org/2000/svg" width="32" height="32"><path d="M23.61 32H3.057A3.06 3.06 0 0 1 0 28.944V8.39a3.06 3.06 0 0 1 3.056-3.057h10.277a1 1 0 0 1 0 2H3.056c-.584 0-1.057.473-1.057 1.057v20.553c0 .584.473 1.057 1.057 1.057h20.553c.584 0 1.057-.473 1.057-1.057V18.666a1 1 0 0 1 2 0v10.277A3.06 3.06 0 0 1 23.61 32zM12.473 20.667l4.98-.713a1.01 1.01 0 0 0 .567-.283l12.803-12.8a4.02 4.02 0 0 0-5.672-5.662l.006-.005-12.823 12.777a.993.993 0 0 0-.283.561l-.001.005-.717 4.98a1 1 0 0 0 .99 1.14h.01-.001a.772.772 0 0 0 .143-.001h-.003zm4.84-1.704zM26.557 2.59a2.018 2.018 0 0 1 2.854 2.854l-12.57 12.557-3.333.473.473-3.333z"/></svg>