<?xml version="1.0" encoding="utf-8"?>
<!-- Generator: Adobe Illustrator 20.1.0, SVG Export Plug-In . SVG Version: 6.00 Build 0)  -->
<svg version="1.1" id="Layer_1" xmlns="http://www.w3.org/2000/svg" xmlns:xlink="http://www.w3.org/1999/xlink" x="0px" y="0px"
	 viewBox="0 0 72 72" style="enable-background:new 0 0 72 72;" xml:space="preserve">
<g>
	<g>
		<g>
			<path d="M9.2,72c-0.2,0-0.4-0.1-0.6-0.2c-0.3-0.2-0.4-0.5-0.4-0.8V53.3c0-0.2,0.1-0.4,0.2-0.6L34.7,15c0.3-0.5,0.9-0.6,1.4-0.2
				c0.5,0.3,0.6,0.9,0.2,1.4L10.2,53.6v16l16-5.9l25.6-36.8c0.3-0.5,0.9-0.6,1.4-0.3c0.5,0.3,0.6,0.9,0.3,1.4L27.7,65.1
				c-0.1,0.2-0.3,0.3-0.5,0.4L9.5,71.9C9.4,72,9.3,72,9.2,72z"/>
		</g>
		<g>
			<path d="M18.6,58.8c-0.2,0-0.4-0.1-0.6-0.2c-0.4-0.3-0.6-0.9-0.2-1.4l25.8-36.1c0.3-0.4,0.9-0.6,1.4-0.2c0.4,0.3,0.6,0.9,0.2,1.4
				L19.4,58.4C19.2,58.7,18.9,58.8,18.6,58.8z"/>
		</g>
		<g>
			<path d="M57.5,21.8c-0.2,0-0.4-0.1-0.6-0.2L40.1,9.9c-0.2-0.2-0.4-0.4-0.4-0.7c0-0.3,0-0.5,0.2-0.8c0,0,1.1-1.5,4.5-6.4
				c1.3-1.9,3.4-2.5,6-1.8c1.8,0.5,3.2,1.5,3.3,1.5c0,0,1.3,0.8,6.9,4.7c5.4,3.8,2.5,8.2,2.4,8.3l-4.6,6.5
				C58.1,21.6,57.8,21.8,57.5,21.8z M42.1,8.8l15.2,10.6l4.1-5.7c0.2-0.3,1.8-2.9-1.9-5.5c-5.6-3.9-6.9-4.7-6.9-4.7
				c-0.1-0.1-4.6-3.1-6.5-0.3C43.9,6.2,42.7,7.9,42.1,8.8z"/>
		</g>
	</g>
</g>
</svg>
