<?xml version="1.0" encoding="utf-8"?>
<!-- Generator: Adobe Illustrator 20.1.0, SVG Export Plug-In . SVG Version: 6.00 Build 0)  -->
<svg version="1.1" id="Layer_2" xmlns="http://www.w3.org/2000/svg" xmlns:xlink="http://www.w3.org/1999/xlink" x="0px" y="0px"
	 viewBox="0 0 72 72" style="enable-background:new 0 0 72 72;" xml:space="preserve">
<path d="M29.8,52c-0.3,0-0.5-0.1-0.7-0.3c-0.4-0.4-0.4-1,0-1.4l8.5-8.6c0.2-0.2,0.3-0.4,0.3-0.7c0-0.3-0.1-0.5-0.3-0.7l-8.5-8.6
	c-0.4-0.4-0.4-1,0-1.4c0.4-0.4,1-0.4,1.4,0l8.5,8.6c0.6,0.6,0.9,1.3,0.9,2.1c0,0.8-0.3,1.6-0.9,2.1l-8.5,8.6
	C30.4,51.9,30.1,52,29.8,52z M38,42H5c-0.6,0-1-0.4-1-1s0.4-1,1-1h33c0.6,0,1,0.4,1,1S38.6,42,38,42z M59.1,72H12.9
	C10.8,72,9,70.2,9,68V54c0-0.6,0.4-1,1-1s1,0.4,1,1v14c0,1.1,0.9,2,1.9,2h46.1c1.1,0,1.9-0.9,1.9-2V22.7L41.4,2H12.9
	C11.9,2,11,2.9,11,4v23c0,0.6-0.4,1-1,1s-1-0.4-1-1V4c0-2.2,1.8-4,3.9-4h28.9c0.3,0,0.5,0.1,0.7,0.3l20.2,21.3
	c0.2,0.2,0.3,0.4,0.3,0.7V68C63,70.2,61.3,72,59.1,72z M61,24H48.3c-3.9,0-8.3-2.9-8.3-7L39.9,1.8c0-0.6,0.4-0.8,1-0.8c0,0,0,0,0,0
	c0.5,0,1,0.2,1,0.8l0.2,15.3c0,2.8,3.4,4.9,6.3,4.9H61c0.6,0,1,0.4,1,1S61.6,24,61,24z"/>
</svg>
