<svg xmlns="http://www.w3.org/2000/svg" width="32" height="32"><path d="M23 32c-4.971 0-9-4.029-9-9s4.029-9 9-9a9 9 0 0 1 9 9 9 9 0 0 1-9 9zm0-16a7 7 0 1 0 7 7 7 7 0 0 0-7-7zm4 6h-5.587l.96-.96a1 1 0 0 0-1.414-1.413l.001-.001-2.667 2.667a.995.995 0 0 0-.125.15l-.002.003c0 .023-.023.047-.037.073a.557.557 0 0 0-.052.093l-.001.004c0 .033-.02.067-.03.1a.56.56 0 0 0-.025.081l-.001.006a.932.932 0 0 0 .001.4l-.001-.006a.855.855 0 0 0 .029.093l-.002-.006c0 .033 0 .067.03.1a.51.51 0 0 0 .055.098l-.001-.002c0 .027.023.05.037.073.038.058.08.108.127.153l2.667 2.667a1 1 0 0 0 1.414 0 1 1 0 0 0 0-1.414l-.96-.96h5.587a1 1 0 0 0 0-2zm.2-16.147L22.15.8a2.709 2.709 0 0 0-1.925-.8H3.59C2.6 0 1.704.403 1.057 1.053A3.607 3.607 0 0 0 0 3.603v20.8A3.597 3.597 0 0 0 3.597 28H11a1 1 0 0 0 0-2H3.6A1.6 1.6 0 0 1 2 24.404V3.6c.001-.442.181-.843.47-1.133A1.59 1.59 0 0 1 3.597 2H19.067v4.2A2.737 2.737 0 0 0 21.8 8.933H26V11a1 1 0 0 0 2 0V7.783v-.009c0-.751-.306-1.431-.8-1.921zm-6.133.334V2.52l4.387 4.413h-3.667a.737.737 0 0 1-.72-.733z"/></svg>