<svg version="1.1" xmlns="http://www.w3.org/2000/svg" width="32" height="32" viewBox="0 0 32 32">
<title>file</title>
<path fill="#333" d="M29 9.733L20.79.45a1.33 1.33 0 0 0-.999-.45H6.667c-.736 0-1.333.597-1.333 1.333v13a1.333 1.333 0 0 0 2.666 0V2.666h9.333v5.313c0 3.403 1.953 5.353 5.333 5.353h4v16H7.999v-1a1.333 1.333 0 0 0-2.666 0v2.333c0 .736.597 1.333 1.333 1.333h21.333c.736 0 1.333-.597 1.333-1.333v-20.05-.001c0-.339-.126-.648-.335-.883l.001.001zM20 7.98V3.583l6.263 7.083h-3.597c-1.91 0-2.667-.753-2.667-2.687zm-2.667 13.353a2.161 2.161 0 0 1-.666 1.559l-.001.001-3.727 3.72a1.334 1.334 0 0 1-1.88-1.894l2.07-2.053h-9.13a1.333 1.333 0 0 1 0-2.666h9.127l-2.067-2.053a1.333 1.333 0 0 1 .94-2.281c.367 0 .699.148.94.387l3.743 3.72c.401.397.65.948.65 1.557v.003z"></path>
</svg>
