<svg version="1.1" xmlns="http://www.w3.org/2000/svg" width="32" height="32" viewBox="0 0 32 32">
<title>file</title>
<path fill="#333" d="M26.667 32h-21.333c-0.736 0-1.333-0.597-1.333-1.333v0-29.333c0-0.736 0.597-1.333 1.333-1.333v0h13.127c0 0 0.001 0 0.001 0 0.397 0 0.753 0.173 0.998 0.449l0.001 0.001 8.207 9.283c0.207 0.234 0.333 0.543 0.333 0.882 0 0.001 0 0.001 0 0.002v-0 20.050c0 0.736-0.597 1.333-1.333 1.333v0zM6.667 29.333h18.667v-16h-4c-3.39 0-5.333-1.95-5.333-5.353v-5.313h-9.333zM18.667 3.583v4.397c0 1.933 0.75 2.687 2.667 2.687h3.597z"></path>
</svg>
