<svg version="1.1" xmlns="http://www.w3.org/2000/svg" width="32" height="32" viewBox="0 0 32 32">
<title>erp</title>
<path fill="#333" d="M28 8c2.209 0 4-1.791 4-4s-1.791-4-4-4c-2.209 0-4 1.791-4 4v0c0 0.003 0 0.006 0 0.009 0 0.279 0.029 0.551 0.085 0.813l-0.005-0.026-10 6c-1.476-1.718-3.651-2.799-6.079-2.799-4.418 0-8 3.582-8 8s3.582 8 8 8c2.49 0 4.714-1.137 6.181-2.921l0.011-0.014 6.080 3.937c-0.169 0.498-0.267 1.071-0.267 1.667 0 2.946 2.388 5.333 5.333 5.333s5.333-2.388 5.333-5.333c0-2.946-2.388-5.333-5.333-5.333-0.002 0-0.004 0-0.007 0h0c-0.001 0-0.001 0-0.002 0-1.396 0-2.665 0.54-3.611 1.423l0.003-0.003-6.21-4c0.309-0.816 0.487-1.76 0.487-2.746 0-1.052-0.203-2.055-0.573-2.975l0.019 0.054 10-6c0.683 0.568 1.57 0.913 2.537 0.913 0.006 0 0.012 0 0.017-0h-0.001zM8 21.333c-2.946 0-5.333-2.388-5.333-5.333s2.388-5.333 5.333-5.333c2.946 0 5.333 2.388 5.333 5.333v0c0 2.946-2.388 5.333-5.333 5.333v0zM25.333 24c1.473 0 2.667 1.194 2.667 2.667s-1.194 2.667-2.667 2.667c-1.473 0-2.667-1.194-2.667-2.667v0c0-1.473 1.194-2.667 2.667-2.667v0z"></path>
</svg>
