<svg xmlns="http://www.w3.org/2000/svg" width="32" height="32"><path d="M28 17h-.033a3.949 3.949 0 0 0-2.637 1.004l.004-.003-1.933-1.45a5.863 5.863 0 0 0 .583-2.569c0-1.3-.417-2.503-1.125-3.482l.012.017 3.087-3.087a4 4 0 1 0-1.406-1.399l-.01-.018L21.455 9.1a5.936 5.936 0 0 0-3.476-1.113 5.975 5.975 0 0 0-4.944 2.613l-.013.021-4.16-2.593a3.82 3.82 0 0 0 .14-1.026v-.006a4 4 0 1 0-1.121 2.777l.001-.001 4.333 2.703a5.913 5.913 0 0 0-.213 1.523v.004a5.978 5.978 0 0 0 1.411 3.859l-.007-.009-6.977 6.977a4 4 0 1 0 1.573 3.18v-.007a4.03 4.03 0 0 0-.343-1.616l.01.026 7.267-7.263a5.89 5.89 0 0 0 2.031.758l.036.005v4.22c-1.739.46-3 2.019-3 3.873a4 4 0 1 0 5.028-3.867l-.028-.006v-4.22a5.969 5.969 0 0 0 3.272-1.706l.001-.001 1.957 1.463a4 4 0 1 0 3.771-2.667h-.001zm0-15a2 2 0 1 1-2 2 2 2 0 0 1 2-2zM5 9a2 2 0 1 1 2-2 2 2 0 0 1-2 2zM4 30a2 2 0 1 1 2-2 2 2 0 0 1-2 2zm16-2a2 2 0 1 1-2-2 2 2 0 0 1 2 2zm-2-10a4 4 0 1 1 4-4 4 4 0 0 1-4 4zm10 5a2 2 0 1 1 2-2 2 2 0 0 1-2 2z"/></svg>