<svg version="1.1" xmlns="http://www.w3.org/2000/svg" width="32" height="32" viewBox="0 0 32 32">
<title>events-collected</title>
    <path d="M29.9999999,2.66699994 L1.99999993,2.66699994 C0.894999937,2.66699994 -6.66666674e-08,3.56199995 -6.66666674e-08,4.66699994 L-6.66666674e-08,4.66699994 L-6.66666674e-08,22 C-6.66666674e-08,23.105 0.894999937,24 1.99999993,24 L1.99999993,24 L11.9999999,24 L11.9999999,26.6669999 L11.333,26.6669999 C10.597,26.6669999 9.99999993,27.264 9.99999993,28 C9.99999993,28.7360001 10.597,29.3330001 11.333,29.3330001 L11.333,29.3330001 L20.666,29.3330001 C21.402,29.3330001 21.999,28.7360001 21.999,28 C21.999,27.264 21.402,26.6669999 20.666,26.6669999 L20.666,26.6669999 L19.999,26.6669999 L19.999,24 L29.9990001,24 C31.1040001,24 31.9990001,23.105 31.9990001,22 L31.9990001,22 L31.9990001,4.66699994 C31.9990001,3.56199995 31.1040001,2.66699994 29.9990001,2.66699994 L29.9990001,2.66699994 L29.9999999,2.66699994 Z M17.333,26.667 L14.666,26.667 L14.666,24 L17.333,24 L17.333,26.667 Z M29.3330001,21.333 L2.66599994,21.333 L2.66599994,5.33299996 L29.3330001,5.33299996 L29.3330001,21.333 Z"></path>
</svg>