<svg xmlns="http://www.w3.org/2000/svg" width="32" height="32"><path d="M29.667 0H2a2 2 0 0 0-2 2v28a2 2 0 0 0 2 2h6.62l.045.001.047-.001H8.71l.045.001.047-.001H8.8a1 1 0 0 0 1-1V18.393a1 1 0 0 0-1-1H6.667V15H8.8a1 1 0 0 0 1-1v-2.333c0-3.577 2.107-4.333 3.873-4.333h3.523v2.387h-2.127a1.858 1.858 0 0 0-.229 0h.005a2.083 2.083 0 0 0-1.826 2.237l-.001-.007v2.05a1 1 0 0 0 1 1h3.333l-.233 2.387h-3.1a1 1 0 0 0-1 1v12.377a.918.918 0 0 0-.02.238v-.002a1 1 0 0 0 1 1h16a2 2 0 0 0 2-2V2.334A2.333 2.333 0 0 0 29.665.001zM30 30H15.02V19.393h3.025a1 1 0 0 0 .995-.899v-.004l.43-4.387a1 1 0 0 0-.995-1.097H15.02v-1.087l.001-.047-.001-.049v.002a.078.078 0 0 1-.003-.022c0-.036.02-.067.049-.084h3.137a1 1 0 0 0 1-1V6.332a1 1 0 0 0-1-1h-4.537c-4.333 0-5.867 3.27-5.867 6.333v1.333H5.666a1 1 0 0 0-1 1v4.393a1 1 0 0 0 1 1h2.133v10.607h-5.8v-28h27.667c.184 0 .333.149.333.333z"/></svg>