<?xml version="1.0" encoding="utf-8"?>
<!-- Generator: Adobe Illustrator 20.1.0, SVG Export Plug-In . SVG Version: 6.00 Build 0)  -->
<svg version="1.1" id="Layer_1" xmlns="http://www.w3.org/2000/svg" xmlns:xlink="http://www.w3.org/1999/xlink" x="0px" y="0px"
	 viewBox="0 0 72 72" style="enable-background:new 0 0 72 72;" xml:space="preserve">
<g>
	<path d="M27,67c-0.6,0-1-0.4-1-1V6c0-0.6,0.4-1,1-1s1,0.4,1,1v60C28,66.6,27.6,67,27,67z M39,7H15c-0.6,0-1-0.4-1-1s0.4-1,1-1h24
		c0.6,0,1,0.4,1,1S39.6,7,39,7z M39,67H15c-0.6,0-1-0.4-1-1s0.4-1,1-1h24c0.6,0,1,0.4,1,1S39.6,67,39,67z"/>
	<path d="M18,54.9H3.4c-1.9,0-3.4-1.5-3.4-3.3V20.4c0-1.8,1.5-3.3,3.4-3.3H18c0.6,0,1,0.4,1,1s-0.4,1-1,1H3.4
		c-0.8,0-1.4,0.6-1.4,1.3v31.3c0,0.7,0.6,1.3,1.4,1.3H18c0.6,0,1,0.4,1,1S18.5,54.9,18,54.9z M69.3,54.9H36c-0.6,0-1-0.4-1-1
		s0.4-1,1-1h33.3c0.3,0,0.7-0.5,0.7-1.3V20.4c0-0.8-0.4-1.3-0.7-1.3H36c-0.6,0-1-0.4-1-1s0.4-1,1-1h33.3c1.5,0,2.7,1.4,2.7,3.3v31.3
		C72,53.5,70.8,54.9,69.3,54.9z"/>
</g>
</svg>
