<svg xmlns="http://www.w3.org/2000/svg" width="32" height="32"><path d="M22.143 32a2.192 2.192 0 0 1-.682-.114l.015.005a2.155 2.155 0 0 1-1.477-2.029v-7.721a2.144 2.144 0 0 1 2.14-2.14h.004c.348 0 .676.084.965.232l-.012-.006 7.72 3.86a2.143 2.143 0 0 1 .012 3.821l-.012.006-7.72 3.86a2.116 2.116 0 0 1-.953.227zm.524-1.12zM22.14 22a.14.14 0 0 0-.14.14v7.72a.155.155 0 0 0 0 .061v-.001c.018.034.047.06.082.073h.001a.151.151 0 0 0 .107 0h-.001l7.73-3.867a.147.147 0 0 0 .063-.063v-.001a.145.145 0 0 0-.059-.19h-.001l-7.72-3.873a.158.158 0 0 0-.065 0h.001zm5-13.293L19.293.877A2.99 2.99 0 0 0 17.174 0H3a3 3 0 0 0-3 3v26a3 3 0 0 0 3 3h14a1 1 0 0 0 0-2H3a1 1 0 0 1-1-1V3a1 1 0 0 1 1-1h13v7a3 3 0 0 0 3 3h7v5a1 1 0 0 0 2 0v-6.173-.001c0-.827-.335-1.577-.877-2.119zM18 9V2.413L25.587 10H19a1 1 0 0 1-1-1z"/></svg>