<?xml version="1.0" encoding="utf-8"?>
<!-- Generator: Adobe Illustrator 20.1.0, SVG Export Plug-In . SVG Version: 6.00 Build 0)  -->
<svg version="1.1" id="Layer_2" xmlns="http://www.w3.org/2000/svg" xmlns:xlink="http://www.w3.org/1999/xlink" x="0px" y="0px"
	 viewBox="0 0 72 72" style="enable-background:new 0 0 72 72;" xml:space="preserve">
<g>
	<g>
		<path d="M59.1,72H12.9c-2.2,0-4-1.8-4-4V4c0-2.2,1.8-4,4-4h28.9c0.3,0,0.5,0.1,0.7,0.3l20.2,21.3c0.2,0.2,0.3,0.4,0.3,0.7V68
			C63.1,70.2,61.3,72,59.1,72z M12.9,2c-1.1,0-2,0.9-2,2v64c0,1.1,0.9,2,2,2h46.1c1.1,0,2-0.9,2-2V22.7L41.4,2H12.9z"/>
	</g>
	<g>
		<path d="M61.4,23.8H48.3c-3.9,0-8.1-2.9-8.1-7L40.1,1.4c0-0.6,0.4-1,1-1c0,0,0,0,0,0c0.5,0,1,0.4,1,1l0.1,15.4c0,2.8,3.2,5,6.1,5
			h13.1c0.6,0,1,0.4,1,1S62,23.8,61.4,23.8z"/>
	</g>
</g>
</svg>
