<svg xmlns="http://www.w3.org/2000/svg" width="32" height="32"><path d="M32 21a1 1 0 0 1-1 1h-1v9a1 1 0 0 1-2 0v-9h-1a1 1 0 0 1 0-2h4a1 1 0 0 1 1 1zm-9.923 5l1.853-4.63a1 1 0 0 0-1.858-.747l-.002.007L21 23.297l-1.07-2.667a1.002 1.002 0 1 0-1.858.747l-.002-.007L19.923 26l-1.853 4.63a1 1 0 0 0 .553 1.297l.007.002c.11.044.237.07.37.07h.001c.419 0 .778-.258.927-.623l.002-.007L21 28.702l1.07 2.667c.151.372.51.63.929.63H23c.133 0 .26-.026.377-.072l-.007.002a1.002 1.002 0 0 0 .557-1.307l.002.007zM15 20h-4a1 1 0 0 0 0 2h1v9a1 1 0 0 0 2 0v-9h1a1 1 0 0 0 0-2zM27.123 8.707l-7.83-7.83A2.99 2.99 0 0 0 17.174 0H3a3 3 0 0 0-3 3v26a3 3 0 0 0 3 3h4a1 1 0 0 0 0-2H3a1 1 0 0 1-1-1V3a1 1 0 0 1 1-1h13v7a3 3 0 0 0 3 3h7v5a1 1 0 0 0 2 0v-6.173-.001c0-.827-.335-1.577-.877-2.119zM18 9V2.413L25.587 10H19a1 1 0 0 1-1-1z"/></svg>