<?xml version="1.0" encoding="utf-8"?>
<!-- Generator: Adobe Illustrator 19.2.1, SVG Export Plug-In . SVG Version: 6.00 Build 0)  -->
<svg version="1.1" id="Layer_1" xmlns="http://www.w3.org/2000/svg" xmlns:xlink="http://www.w3.org/1999/xlink" x="0px" y="0px"
	 viewBox="0 0 72 72" style="enable-background:new 0 0 72 72;" xml:space="preserve">
<metadata><?xpacket begin="﻿" id="W5M0MpCehiHzreSzNTczkc9d"?>
<x:xmpmeta xmlns:x="adobe:ns:meta/" x:xmptk="Adobe XMP Core 5.6-c111 79.158366, 2015/09/25-01:12:00        ">
   <rdf:RDF xmlns:rdf="http://www.w3.org/1999/02/22-rdf-syntax-ns#">
      <rdf:Description rdf:about=""/>
   </rdf:RDF>
</x:xmpmeta>
                                                                                                    
                                                                                                    
                                                                                                    
                                                                                                    
                                                                                                    
                                                                                                    
                                                                                                    
                                                                                                    
                                                                                                    
                                                                                                    
                                                                                                    
                                                                                                    
                                                                                                    
                                                                                                    
                                                                                                    
                                                                                                    
                                                                                                    
                                                                                                    
                                                                                                    
                                                                                                    
                           
<?xpacket end="w"?></metadata>
<path d="M62.6,21.6L42.5,0.3C42.3,0.1,42.1,0,41.8,0H12.9C10.8,0,9,1.8,9,4v64c0,2.2,1.7,4,3.9,4H59c2.2,0,3.9-1.8,3.9-4V22.3
	C62.9,22,62.8,21.8,62.6,21.6z M60.2,22H48.4c-2.9,0-6.3-2.2-6.3-5L41.9,2.6L60.2,22z M59,70H12.9c-1.1,0-1.9-0.9-1.9-2V4
	c0-1.1,0.9-2,1.9-2h27l0.2,15c0,4.1,4.4,7,8.3,7h12.5v44C60.9,69,60.2,70,59,70z"/>
<path d="M42.7,44.3H19.1c-0.5,0-1,0.4-1,1v14.9c0,0.5,0.4,1,1,1h23.6c0.5,0,1-0.4,1-1V45.3C43.7,44.8,43.3,44.3,42.7,44.3z"/>
<path d="M25.5,33.9c-2.4,0-4.3,1.9-4.3,4.2c0,2.3,1.9,4.2,4.3,4.2c2.3,0,4.2-1.9,4.2-4.2C29.7,35.8,27.8,33.9,25.5,33.9z M36.5,33.9
	c-2.3,0-4.2,1.9-4.2,4.2c0,2.3,1.9,4.2,4.2,4.2c2.4,0,4.3-1.9,4.3-4.2C40.7,35.8,38.8,33.9,36.5,33.9z"/>
<path d="M52.8,44.8l-4.4,1.1c-0.9,0.2-1.6,1.2-1.6,2v4.6c0,0.9,0.7,1.8,1.6,2l4.4,1.1c0.9,0.2,1.6-0.3,1.6-1.2v-8.5
	C54.4,45.2,53.7,44.6,52.8,44.8z"/>
</svg>
