<svg version="1.1" xmlns="http://www.w3.org/2000/svg" width="32" height="32" viewBox="0 0 32 32">
<title>file-text</title>
<path fill="#333" d="M17.31 27.333h-2.62v-9.883h-3.357v-2.117h9.333v2.117h-3.357zM27.667 9.733l-8.21-9.283c-0.245-0.277-0.602-0.45-0.999-0.45-0 0-0.001 0-0.001 0h-13.123c-0.736 0-1.333 0.597-1.333 1.333v0 29.333c0 0.736 0.597 1.333 1.333 1.333v0h21.333c0.736 0 1.333-0.597 1.333-1.333v0-20.050c0-0 0-0.001 0-0.001 0-0.339-0.126-0.648-0.335-0.883l0.001 0.001zM24.93 10.667h-3.597c-1.92 0-2.667-0.753-2.667-2.687v-4.397zM6.667 29.333v-26.667h9.333v5.313c0 3.403 1.953 5.353 5.333 5.353h4v16z"></path>
</svg>
