<svg version="1.1" xmlns="http://www.w3.org/2000/svg" width="32" height="32" viewBox="0 0 32 32">
<title>file-video</title>
<path fill="#333" d="M27.667 9.733l-8.21-9.283c-0.245-0.277-0.602-0.45-0.999-0.45-0 0-0.001 0-0.001 0h-13.123c-0.736 0-1.333 0.597-1.333 1.333v0 29.333c0 0.736 0.597 1.333 1.333 1.333v0h21.333c0.736 0 1.333-0.597 1.333-1.333v0-20.050c0-0 0-0.001 0-0.001 0-0.339-0.126-0.648-0.335-0.883l0.001 0.001zM24.93 10.667h-3.597c-1.92 0-2.667-0.753-2.667-2.687v-4.397zM6.667 29.333v-26.667h9.333v5.313c0 3.403 1.953 5.353 5.333 5.353h4v16zM23.333 20.543v3.583c0 1.063-0.527 1.517-0.843 1.69-0.199 0.115-0.438 0.183-0.694 0.183-0.001 0-0.002 0-0.003 0h0c-0.283-0-0.546-0.081-0.769-0.22l0.006 0.004-0.753-0.48c-0.667-0.423-0.943-1.303-0.943-2v1.363c0 0.013 0 0.028 0 0.044 0 1.067-0.854 1.934-1.915 1.956l-0.002 0h-6.83c-1.065-0.022-1.92-0.891-1.92-1.96 0-0.014 0-0.028 0-0.043l-0 0.002v-4.667c-0-0.008-0-0.018-0-0.027 0-1.076 0.861-1.951 1.931-1.973l0.002-0h6.793c1.076 0.022 1.94 0.9 1.94 1.98 0 0.007-0 0.014-0 0.021v-0.001 1.333c0-0.69 0.287-1.573 0.923-1.983l0.037-0.027 0.77-0.457c0.215-0.135 0.476-0.215 0.756-0.215 0.249 0 0.484 0.064 0.688 0.175l-0.008-0.004c0.38 0.223 0.833 0.69 0.833 1.72z"></path>
</svg>
