<svg version="1.1" xmlns="http://www.w3.org/2000/svg" width="32" height="32" viewBox="0 0 32 32">
<title>filters-funnel</title>
<path fill="#333" d="M18.667 32c-0.32-0.001-0.613-0.114-0.842-0.302l0.002 0.002-5.333-4.333c-0.301-0.246-0.493-0.617-0.493-1.033v-9.85l-9.527-11.443c-0.292-0.344-0.471-0.793-0.473-1.283v-0.13c0-2.843 0-2.843 0.39-3.237 0.241-0.241 0.574-0.39 0.942-0.39 0 0 0.001 0 0.001 0h25.333c0 0 0.001 0 0.001 0 0.368 0 0.701 0.149 0.942 0.39v0c0.39 0.397 0.39 0.397 0.39 3.367-0.002 0.498-0.186 0.953-0.489 1.302l0.002-0.002-9.513 11.427v14.183c0 0.736-0.597 1.333-1.333 1.333v0zM14.667 25.7l2.667 2.167v-11.867c0-0.326 0.117-0.624 0.312-0.855l-0.002 0.002 9.69-11.637v-0.843h-22.667v0.843l9.69 11.637c0.193 0.229 0.31 0.528 0.31 0.853v0zM27.48 3.333v0zM4.507 3.333v0.017z"></path>
</svg>
