<svg version="1.1" xmlns="http://www.w3.org/2000/svg" width="32" height="32" viewBox="0 0 32 32">
<title>filters</title>
<path fill="#333" d="M5.333 21.333c-2.946 0-5.333-2.388-5.333-5.333s2.388-5.333 5.333-5.333c2.946 0 5.333 2.388 5.333 5.333v0c0 2.946-2.388 5.333-5.333 5.333v0zM5.333 13.333c-1.473 0-2.667 1.194-2.667 2.667s1.194 2.667 2.667 2.667c1.473 0 2.667-1.194 2.667-2.667v0c0-1.473-1.194-2.667-2.667-2.667v0zM6.667 8v-6.667c0-0.736-0.597-1.333-1.333-1.333s-1.333 0.597-1.333 1.333v0 6.667c0 0.736 0.597 1.333 1.333 1.333s1.333-0.597 1.333-1.333v0zM6.667 30.667v-6.667c0-0.736-0.597-1.333-1.333-1.333s-1.333 0.597-1.333 1.333v0 6.667c0 0.736 0.597 1.333 1.333 1.333s1.333-0.597 1.333-1.333v0zM16 16.703c-2.946 0-5.333-2.388-5.333-5.333s2.388-5.333 5.333-5.333c2.946 0 5.333 2.388 5.333 5.333v0c0 2.946-2.388 5.333-5.333 5.333v0zM16 8.703c-1.473 0-2.667 1.194-2.667 2.667s1.194 2.667 2.667 2.667c1.473 0 2.667-1.194 2.667-2.667v0c0-1.473-1.194-2.667-2.667-2.667v0zM17.333 3.333v-2c0-0.736-0.597-1.333-1.333-1.333s-1.333 0.597-1.333 1.333v0 2c0 0.736 0.597 1.333 1.333 1.333s1.333-0.597 1.333-1.333v0zM17.333 30.667v-11.333c0-0.736-0.597-1.333-1.333-1.333s-1.333 0.597-1.333 1.333v0 11.333c0 0.736 0.597 1.333 1.333 1.333s1.333-0.597 1.333-1.333v0zM26.667 25.963c-2.946 0-5.333-2.388-5.333-5.333s2.388-5.333 5.333-5.333c2.946 0 5.333 2.388 5.333 5.333v0c0 2.946-2.388 5.333-5.333 5.333v0zM26.667 17.963c-1.473 0-2.667 1.194-2.667 2.667s1.194 2.667 2.667 2.667c1.473 0 2.667-1.194 2.667-2.667v0c0-1.473-1.194-2.667-2.667-2.667v0zM28 12.667v-11.333c0-0.736-0.597-1.333-1.333-1.333s-1.333 0.597-1.333 1.333v0 11.333c0 0.736 0.597 1.333 1.333 1.333s1.333-0.597 1.333-1.333v0zM28 30.667v-2c0-0.736-0.597-1.333-1.333-1.333s-1.333 0.597-1.333 1.333v0 2c0 0.736 0.597 1.333 1.333 1.333s1.333-0.597 1.333-1.333v0z"></path>
</svg>
