<?xml version="1.0" encoding="utf-8"?>
<!-- Generator: Adobe Illustrator 20.1.0, SVG Export Plug-In . SVG Version: 6.00 Build 0)  -->
<svg version="1.1" id="Layer_1" xmlns="http://www.w3.org/2000/svg" xmlns:xlink="http://www.w3.org/1999/xlink" x="0px" y="0px"
	 viewBox="0 0 72 72" style="enable-background:new 0 0 72 72;" xml:space="preserve">
<g>
	<g>
		<g>
			<path d="M61.7,52.2c-5.7,0-10.2-4.6-10.2-10.2c0-5.6,4.6-10.2,10.2-10.2C67.4,31.8,72,36.4,72,42C72,47.6,67.4,52.2,61.7,52.2z
				 M61.7,33.8c-4.5,0-8.2,3.7-8.2,8.2c0,4.5,3.7,8.2,8.2,8.2c4.6,0,8.3-3.7,8.3-8.2C70,37.5,66.3,33.8,61.7,33.8z"/>
		</g>
		<g>
			<g>
				<path d="M61.7,29.4c-0.6,0-1-0.4-1-1V4.5c0-0.6,0.4-1,1-1s1,0.4,1,1v23.9C62.7,29,62.3,29.4,61.7,29.4z"/>
			</g>
			<g>
				<path d="M61.7,68.6c-0.6,0-1-0.4-1-1v-12c0-0.6,0.4-1,1-1s1,0.4,1,1v12C62.7,68.2,62.3,68.6,61.7,68.6z"/>
			</g>
		</g>
	</g>
	<g>
		<g>
			<path d="M35.8,38.5c-5.7,0-10.3-4.6-10.3-10.2c0-5.6,4.6-10.2,10.3-10.2c5.7,0,10.2,4.6,10.2,10.2C46.1,33.9,41.5,38.5,35.8,38.5
				z M35.8,20c-4.6,0-8.3,3.7-8.3,8.2c0,4.5,3.7,8.2,8.3,8.2c4.5,0,8.2-3.7,8.2-8.2C44.1,23.7,40.4,20,35.8,20z"/>
		</g>
		<g>
			<g>
				<path d="M35.8,15.7c-0.6,0-1-0.4-1-1V4.4c0-0.6,0.4-1,1-1s1,0.4,1,1v10.3C36.8,15.2,36.4,15.7,35.8,15.7z"/>
			</g>
			<g>
				<path d="M35.8,68.6c-0.6,0-1-0.4-1-1V41.9c0-0.6,0.4-1,1-1s1,0.4,1,1v25.8C36.8,68.2,36.4,68.6,35.8,68.6z"/>
			</g>
		</g>
	</g>
	<g>
		<g>
			<path d="M10.3,44C4.6,44,0,39.4,0,33.7c0-5.6,4.6-10.2,10.3-10.2c5.7,0,10.2,4.6,10.2,10.2C20.5,39.4,15.9,44,10.3,44z
				 M10.3,25.5c-4.5,0-8.3,3.7-8.3,8.2c0,4.5,3.7,8.2,8.3,8.2c4.5,0,8.2-3.7,8.2-8.2C18.5,29.2,14.8,25.5,10.3,25.5z"/>
		</g>
		<g>
			<g>
				<path d="M10.3,21.1c-0.6,0-1-0.4-1-1V4.5c0-0.6,0.4-1,1-1s1,0.4,1,1v15.7C11.3,20.7,10.8,21.1,10.3,21.1z"/>
			</g>
			<g>
				<path d="M10.3,68.6c-0.6,0-1-0.4-1-1V47.3c0-0.6,0.4-1,1-1s1,0.4,1,1v20.3C11.3,68.2,10.9,68.6,10.3,68.6z"/>
			</g>
		</g>
	</g>
</g>
</svg>
