<svg xmlns="http://www.w3.org/2000/svg" width="32" height="32"><path d="M31 22.333H18.583c-.503-3.224-3.258-5.663-6.583-5.667a6.669 6.669 0 0 0-6.582 5.629l-.005.038H1a1 1 0 0 0 0 2h4.413c.503 3.225 3.26 5.664 6.586 5.667a6.67 6.67 0 0 0 6.575-5.629l.005-.038h12.42a1 1 0 0 0 0-2zM12 28a4.667 4.667 0 0 1 0-9.334A4.667 4.667 0 0 1 12 28zM25.333 2a6.669 6.669 0 0 0-6.579 5.629l-.005.038H.999a1 1 0 0 0 0 2h17.75c.525 3.203 3.272 5.617 6.584 5.617a6.667 6.667 0 0 0 6.666-6.614v-.003A6.667 6.667 0 0 0 25.332 2zm0 11.333a4.667 4.667 0 0 1 0-9.334 4.667 4.667 0 0 1 0 9.334z"/></svg>