<svg xmlns="http://www.w3.org/2000/svg" width="32" height="32"><path d="M14 32h-.005c-.56 0-1.066-.234-1.425-.609l-.001-.001a2.036 2.036 0 0 1-.57-1.416v-.015.001-12.897C5.376 15.293.496 9.286-.001 2.176v-.137-.017c0-1.109.893-2.01 1.999-2.023h28.131a2.035 2.035 0 0 1 1.869 2.18v-.007c-.497 7.117-5.38 13.123-12 14.89v9.44c0 .618-.273 1.172-.704 1.548l-.002.002-4 3.463a1.987 1.987 0 0 1-1.293.483h-.001zM2 2v.04C2.45 8.543 7.057 14 13.197 15.297c.46.095.801.496.803.976V29.96c0 .033.017.043.017.043L18 26.536c.003-.006.004-.013.004-.02s-.002-.014-.004-.02V16.273a1 1 0 0 1 .787-.975l.007-.001C24.941 14 29.547 8.547 30.001 2.044c.003-.006.004-.014.004-.022s-.002-.015-.004-.022zm29 .11z"/></svg>