<svg width="32px" height="32px" viewBox="0 0 32 32" version="1.1" xmlns="http://www.w3.org/2000/svg" xmlns:xlink="http://www.w3.org/1999/xlink">
    <g id="+oos/flag" stroke="none" stroke-width="1" fill="none" fill-rule="evenodd">
        <path d="M9.49899533,15.5499997 L9.5,31.2126428 C9.5,31.6276428 9.165,31.9626428 8.75,31.9626428 C8.335,31.9626428 8,31.6276428 8,31.2126428 L8,31.2126428 L7.99857646,14.3865067 C7.96686377,14.2629531 7.95,14.1334459 7.95,14 L7.95,14 L7.95,2 C7.95,1.86584426 7.96704365,1.73566929 7.99908378,1.61152223 L8,0.750000003 C8,0.335000001 8.335,0 8.75,0 C9.05923935,0 9.3240582,0.186010771 9.43894986,0.452525597 L9.5,0.45 L26.4352967,0.45 C27.2913381,0.45 27.9852967,1.14395864 27.9852967,2 C27.9852967,2.49480314 27.7490607,2.95987202 27.3494816,3.25170527 L27.3494816,3.25170527 L21.49,7.53 L27.7606388,12.814791 C28.3767073,13.3340111 28.4868396,14.2307494 28.0377326,14.8801731 L28.0377326,14.8801731 L27.9469585,14.9988893 C27.6524502,15.3483313 27.218745,15.55 26.7617495,15.55 L26.7617495,15.55 L9.49899533,15.5499997 L9.49899533,15.5499997 Z M9.49897752,1.55000114 L9.499,14.449 L26.7617495,14.45 C26.8678904,14.45 26.9697038,14.4125287 27.0499608,14.3455972 L27.1058425,14.2900001 C27.2660051,14.0999628 27.2417869,13.8160697 27.0517497,13.6559071 L27.0517497,13.6559071 L20.2461988,7.92021665 C19.9735127,7.69039798 19.9882701,7.26583552 20.2762552,7.05550515 L20.2762552,7.05550515 L26.7007052,2.3633983 C26.8167121,2.27867252 26.8852967,2.14365252 26.8852967,2 C26.8852967,1.75147186 26.6838249,1.55 26.4352967,1.55 L26.4352967,1.55 L9.49897752,1.55000114 L9.49897752,1.55000114 Z" id="Shape-Copy" fill="#131C26"></path>
    </g>
</svg>