<svg xmlns="http://www.w3.org/2000/svg" width="32" height="32"><path d="M19.853 30.577A2.094 2.094 0 0 1 17.901 32H3.43a2.09 2.09 0 0 1-1.946-1.409l-.004-.015a2.359 2.359 0 0 1 .43-2.363l-.003.003 7.233-8.183a1.998 1.998 0 0 1 3.051-.003l.002.003 7.233 8.183c.356.412.572.952.572 1.543 0 .293-.053.574-.151.833l.005-.016zM21.333 16a1 1 0 0 0-1-1H1a1 1 0 0 0 0 2h19.333a1 1 0 0 0 1-1zm-9.14-4.033l7.233-8.183c.356-.412.572-.952.572-1.543a2.35 2.35 0 0 0-.151-.833l.005.016A2.09 2.09 0 0 0 17.904.001H3.432A2.09 2.09 0 0 0 1.483 1.41l-.004.015a2.359 2.359 0 0 0 .43 2.363l-.003-.003 7.233 8.183a1.998 1.998 0 0 0 3.051.003l.002-.003zm-1.526-1.3zm7.31-8.557a.363.363 0 0 1-.048.334l.001-.001-7.237 8.197c0 .015-.012.027-.027.027s-.027-.012-.027-.027L3.402 2.457a.364.364 0 0 1-.046-.336l-.001.003a.229.229 0 0 1 .076-.123h14.463a.205.205 0 0 1 .08.109v.001zm11.83 23.223l-3.473-.477c3.403-1.896 5.667-5.472 5.667-9.577v-.02.001a10.977 10.977 0 0 0-8.732-10.561l-.071-.012a1 1 0 0 0-.4 1.959l.007.001c4.138.794 7.222 4.385 7.222 8.696a8.85 8.85 0 0 1-5.734 8.284l-.061.02.647-5.177a1 1 0 0 0-1.983-.25v.004l-.893 7.05a1.001 1.001 0 0 0 .848 1.113l.005.001 6.667.937a1 1 0 0 0 1.146-.845l.001-.005a1 1 0 0 0-.855-1.139l-.005-.001z"/></svg>