<svg xmlns="http://www.w3.org/2000/svg" width="32" height="32"><path d="M29.753 26.667a2.226 2.226 0 0 1-1.59-.666L20 17.601c-.402-.413-.65-.977-.65-1.6s.248-1.187.651-1.601v.001l8.163-8.4a2.216 2.216 0 0 1 2.478-.491l-.014-.006a2.28 2.28 0 0 1 1.373 2.09v.018-.001 16.792c0 .93-.559 1.73-1.359 2.082l-.015.006a2.197 2.197 0 0 1-.872.177h-.002zm0-19.334a.218.218 0 0 0-.16.07l-8.18 8.393a.3.3 0 0 0 .001.407l8.183 8.393a.221.221 0 0 0 .248.053l-.001.001a.278.278 0 0 0 .157-.249V7.606v-.007a.277.277 0 0 0-.155-.249l-.002-.001a.263.263 0 0 0-.086-.017zM17 28.333V3.666a1 1 0 0 0-2 0v24.667a1 1 0 0 0 2 0zM2.247 26.667h-.003a2.23 2.23 0 0 1-.885-.182l.014.006A2.28 2.28 0 0 1 0 24.401v-.011.001V7.608v-.009c0-.93.559-1.73 1.359-2.082l.015-.006A2.21 2.21 0 0 1 3.837 6h.001l8.183 8.4c.401.413.648.978.648 1.6s-.247 1.187-.648 1.601l.001-.001L3.839 26a2.223 2.223 0 0 1-1.59.667zm0-19.334a.28.28 0 0 0-.088.017l.002-.001a.277.277 0 0 0-.157.249V24.4c0 .109.063.204.155.249l.002.001a.219.219 0 0 0 .246-.053l8.18-8.393a.3.3 0 0 0-.001-.407L2.403 7.404a.218.218 0 0 0-.16-.07z"/></svg>