<svg version="1.1" xmlns="http://www.w3.org/2000/svg" width="32" height="32" viewBox="0 0 32 32">
<title>focus</title>
<path fill="#333" d="M31.61 31.61c-0.061 0.059-0.128 0.114-0.198 0.163l-0.005 0.003-0.103 0.057c-0.043 0.020-0.083 0.047-0.127 0.063-0.038 0.016-0.083 0.031-0.13 0.042l-0.006 0.001c-0.029 0.011-0.067 0.022-0.106 0.032l-0.008 0.002c-0.078 0.017-0.168 0.026-0.26 0.027h-6.667c-0.736 0-1.333-0.597-1.333-1.333s0.597-1.333 1.333-1.333v0h3.447l-8.39-8.39c-0.241-0.241-0.391-0.575-0.391-0.943 0-0.737 0.597-1.334 1.334-1.334 0.368 0 0.702 0.149 0.943 0.391l8.39 8.39v-3.447c0-0.736 0.597-1.333 1.333-1.333s1.333 0.597 1.333 1.333v0 6.667c-0.001 0.092-0.010 0.182-0.028 0.269l0.002-0.009c-0.009 0.042-0.020 0.079-0.035 0.114l0.001-0.004c-0.013 0.056-0.028 0.102-0.046 0.148l0.003-0.008c-0.020 0.048-0.041 0.088-0.065 0.127l0.002-0.004c-0.020 0.037-0.037 0.073-0.057 0.107-0.050 0.075-0.105 0.141-0.166 0.2l-0 0zM31.973 1.073c-0.009-0.042-0.020-0.079-0.035-0.114l0.001 0.004c-0.013-0.056-0.028-0.102-0.046-0.148l0.003 0.008c-0.020-0.048-0.041-0.088-0.065-0.127l0.002 0.004c-0.020-0.037-0.037-0.073-0.057-0.107-0.050-0.075-0.105-0.141-0.166-0.2l-0-0c-0.061-0.059-0.128-0.114-0.198-0.163l-0.005-0.004-0.103-0.057c-0.036-0.023-0.077-0.045-0.121-0.064l-0.006-0.002c-0.038-0.016-0.083-0.031-0.13-0.042l-0.006-0.001c-0.029-0.011-0.067-0.022-0.106-0.032l-0.008-0.002c-0.078-0.016-0.168-0.026-0.259-0.027h-6.667c-0.736 0-1.333 0.597-1.333 1.333s0.597 1.333 1.333 1.333v0h3.447l-8.39 8.39c-0.241 0.241-0.391 0.575-0.391 0.943 0 0.737 0.597 1.334 1.334 1.334 0.368 0 0.702-0.149 0.943-0.391l8.39-8.39v3.447c0 0.736 0.597 1.333 1.333 1.333s1.333-0.597 1.333-1.333v0-6.667c-0.001-0.092-0.010-0.182-0.028-0.269l0.002 0.009zM12.943 19.073c-0.241-0.242-0.575-0.391-0.943-0.391s-0.702 0.149-0.943 0.391v0l-8.39 8.373v-3.447c0-0.736-0.597-1.333-1.333-1.333s-1.333 0.597-1.333 1.333v0 6.667c0.001 0.092 0.010 0.182 0.028 0.269l-0.002-0.009c0.009 0.042 0.020 0.079 0.035 0.114l-0.001-0.004c0.013 0.056 0.028 0.102 0.046 0.148l-0.003-0.008c0.020 0.048 0.041 0.088 0.065 0.127l-0.002-0.004c0.020 0.037 0.037 0.073 0.057 0.107 0.050 0.075 0.105 0.141 0.166 0.2l0 0c0.061 0.059 0.128 0.114 0.198 0.163l0.005 0.003 0.103 0.057c0.043 0.020 0.083 0.047 0.127 0.063 0.038 0.016 0.083 0.031 0.13 0.042l0.006 0.001c0.029 0.011 0.067 0.022 0.106 0.032l0.008 0.002c0.077 0.018 0.167 0.028 0.259 0.030l0.001 0h6.667c0.736 0 1.333-0.597 1.333-1.333s-0.597-1.333-1.333-1.333v0h-3.447l8.39-8.39c0.242-0.241 0.391-0.575 0.391-0.943s-0.149-0.702-0.391-0.943v0zM12.943 11.073l-8.39-8.407h3.447c0.736 0 1.333-0.597 1.333-1.333s-0.597-1.333-1.333-1.333v0h-6.667c-0.092 0.001-0.182 0.010-0.269 0.028l0.009-0.002c-0.046 0.011-0.084 0.022-0.121 0.036l0.008-0.002c-0.053 0.013-0.099 0.027-0.143 0.046l0.006-0.002c-0.049 0.021-0.091 0.044-0.13 0.069l0.004-0.002-0.103 0.053c-0.076 0.053-0.142 0.108-0.204 0.167l0.001-0c-0.061 0.059-0.116 0.125-0.164 0.196l-0.003 0.004c-0.020 0.037-0.037 0.077-0.057 0.11-0.022 0.035-0.043 0.075-0.061 0.118l-0.002 0.006c-0.015 0.038-0.030 0.084-0.042 0.132l-0.002 0.008c-0.013 0.031-0.025 0.068-0.033 0.106l-0.001 0.004c-0.016 0.078-0.026 0.168-0.027 0.259v6.667c0 0.736 0.597 1.333 1.333 1.333s1.333-0.597 1.333-1.333v0-3.447l8.39 8.39c0.241 0.241 0.575 0.391 0.943 0.391 0.737 0 1.334-0.597 1.334-1.334 0-0.368-0.149-0.702-0.391-0.943v0z"></path>
</svg>
