<svg xmlns="http://www.w3.org/2000/svg" width="32" height="32"><path d="M16 22a6 6 0 1 1 6-6 6 6 0 0 1-6 6zm0-10a4 4 0 1 0 4 4 4 4 0 0 0-4-4zM2 6.333v-3.21C2 2.503 2.503 2 3.123 2h3.21a1 1 0 0 0 0-2h-3.21A3.127 3.127 0 0 0 0 3.123v3.21a1 1 0 0 0 2 0zm30 0v-3.21A3.127 3.127 0 0 0 28.877 0h-3.21a1 1 0 0 0 0 2h3.21C29.497 2 30 2.503 30 3.123v3.21a1 1 0 0 0 2 0zM7.333 31a1 1 0 0 0-1-1h-3.21C2.503 30 2 29.497 2 28.877v-3.21a1 1 0 0 0-2 0v3.21A3.127 3.127 0 0 0 3.123 32h3.21a1 1 0 0 0 1-1zM32 28.877v-3.21a1 1 0 0 0-2 0v3.21c0 .62-.503 1.123-1.123 1.123h-3.21a1 1 0 0 0 0 2h3.21A3.127 3.127 0 0 0 32 28.877z"/></svg>