<?xml version="1.0" encoding="utf-8"?>
<!-- Generator: Adobe Illustrator 20.1.0, SVG Export Plug-In . SVG Version: 6.00 Build 0)  -->
<svg version="1.1" id="Layer_1" xmlns="http://www.w3.org/2000/svg" xmlns:xlink="http://www.w3.org/1999/xlink" x="0px" y="0px"
	 viewBox="0 0 72 72" style="enable-background:new 0 0 72 72;" xml:space="preserve">
<g>
	<g>
		<g>
			<path d="M1,21.6c-0.6,0-1-0.4-1-1V1c0-0.6,0.4-1,1-1h19.6c0.6,0,1,0.4,1,1s-0.4,1-1,1H2v18.6C2,21.1,1.6,21.6,1,21.6z"/>
		</g>
		<g>
			<path d="M27.2,27.8c-0.3,0-0.5-0.1-0.7-0.3L0.3,1.7c-0.4-0.4-0.4-1,0-1.4c0.4-0.4,1-0.4,1.4,0l26.2,25.8c0.4,0.4,0.4,1,0,1.4
				C27.7,27.7,27.5,27.8,27.2,27.8z"/>
		</g>
	</g>
	<g>
		<g>
			<path d="M20.6,72H1c-0.6,0-1-0.4-1-1V51.4c0-0.6,0.4-1,1-1s1,0.4,1,1V70h18.6c0.6,0,1,0.4,1,1S21.1,72,20.6,72z"/>
		</g>
		<g>
			<path d="M1,72c-0.3,0-0.5-0.1-0.7-0.3c-0.4-0.4-0.4-1,0-1.4l26.2-25.8c0.4-0.4,1-0.4,1.4,0c0.4,0.4,0.4,1,0,1.4L1.7,71.7
				C1.5,71.9,1.3,72,1,72z"/>
		</g>
	</g>
	<g>
		<g>
			<path d="M71,21.6c-0.6,0-1-0.4-1-1V2H51.4c-0.6,0-1-0.4-1-1s0.4-1,1-1H71c0.6,0,1,0.4,1,1v19.6C72,21.1,71.6,21.6,71,21.6z"/>
		</g>
		<g>
			<path d="M44.8,27.8c-0.3,0-0.5-0.1-0.7-0.3c-0.4-0.4-0.4-1,0-1.4L70.3,0.3c0.4-0.4,1-0.4,1.4,0c0.4,0.4,0.4,1,0,1.4L45.5,27.5
				C45.3,27.7,45,27.8,44.8,27.8z"/>
		</g>
	</g>
	<g>
		<g>
			<path d="M71,72H51.4c-0.6,0-1-0.4-1-1s0.4-1,1-1H70V51.4c0-0.6,0.4-1,1-1s1,0.4,1,1V71C72,71.6,71.6,72,71,72z"/>
		</g>
		<g>
			<path d="M71,72c-0.3,0-0.5-0.1-0.7-0.3L44.1,45.9c-0.4-0.4-0.4-1,0-1.4c0.4-0.4,1-0.4,1.4,0l26.2,25.8c0.4,0.4,0.4,1,0,1.4
				C71.5,71.9,71.3,72,71,72z"/>
		</g>
	</g>
</g>
</svg>
