<svg xmlns="http://www.w3.org/2000/svg" width="32" height="32"><path d="M13.707 19.707L3.414 30h6.92a1 1 0 0 1 0 2H1.001a.964.964 0 0 1-.203-.021l.006.001-.087-.027c-.033 0-.067 0-.1-.03a.709.709 0 0 1-.103-.055l.003.002-.07-.037a1.015 1.015 0 0 1-.278-.276l-.002-.004c0-.023-.023-.047-.037-.073a.557.557 0 0 1-.052-.093l-.001-.004c0-.033-.02-.067-.03-.1a.56.56 0 0 1-.025-.081l-.001-.006a.932.932 0 0 1-.02-.197v-9.333a1 1 0 0 1 2 0v6.92l10.293-10.293a1 1 0 0 1 1.413 1.414l.001-.001zm18.216 11.666c0-.033.02-.067.03-.1a.56.56 0 0 0 .025-.081l.001-.006a.973.973 0 0 0 .02-.186v-9.334a1 1 0 0 0-2 0v6.92L19.706 18.293a1 1 0 0 0-1.413 1.414l-.001-.001 10.293 10.293h-6.92a1 1 0 0 0 0 2h9.333c.07 0 .138-.007.203-.021l-.006.001.087-.027c.033 0 .067 0 .1-.03a.709.709 0 0 0 .103-.055l-.003.002.07-.037c.112-.075.205-.168.278-.276l.002-.004c0-.023.023-.047.037-.073a.557.557 0 0 0 .052-.093l.001-.004zM31.98.793A.855.855 0 0 0 31.951.7l.002.006c0-.033 0-.067-.03-.1a.51.51 0 0 0-.055-.098l.001.002c0-.027-.023-.05-.037-.073a1.034 1.034 0 0 0-.276-.268l-.004-.002-.07-.037a.708.708 0 0 0-.095-.051l-.005-.002-.1-.03-.087-.027a.932.932 0 0 0-.197-.02h-9.333a1 1 0 0 0 0 2h6.92L18.292 12.293a1 1 0 0 0 0 1.414 1 1 0 0 0 1.414 0L29.999 3.414v6.92a1 1 0 0 0 2 0V1.001a.964.964 0 0 0-.021-.203l.001.006zm-18.273 11.5L3.414 2h6.92a1 1 0 0 0 0-2H1.001a.964.964 0 0 0-.203.021L.804.02.717.047c-.033 0-.067 0-.1.03a.709.709 0 0 0-.103.055L.517.13l-.07.037a1.015 1.015 0 0 0-.278.276L.167.447C.167.47.144.494.13.52a.557.557 0 0 0-.052.093L.077.617c0 .033-.02.067-.03.1a.56.56 0 0 0-.025.081L.021.804a.932.932 0 0 0-.02.197v9.333a1 1 0 0 0 2 0v-6.92l10.293 10.293a1 1 0 0 0 1.414 0 1 1 0 0 0 0-1.414z"/></svg>