<?xml version="1.0" encoding="utf-8"?>
<!-- Generator: Adobe Illustrator 20.1.0, SVG Export Plug-In . SVG Version: 6.00 Build 0)  -->
<svg version="1.1" id="Layer_2" xmlns="http://www.w3.org/2000/svg" xmlns:xlink="http://www.w3.org/1999/xlink" x="0px" y="0px"
	 viewBox="0 0 72 72" style="enable-background:new 0 0 72 72;" xml:space="preserve">
<g>
	<g>
		<path d="M68.2,66.8H3.8c-2.1,0-3.8-1.7-3.8-3.9V25.4c0-0.6,0.4-1,1-1h70c0.6,0,1,0.4,1,1v37.5C72,65.1,70.3,66.8,68.2,66.8z
			 M2,26.4v36.5c0,1,0.8,1.9,1.8,1.9h64.3c1,0,1.8-0.8,1.8-1.9V26.4H2z"/>
	</g>
	<g>
		<path d="M71,21.9c-0.6,0-1-0.4-1-1v-4.6c0-1-0.8-1.8-1.8-1.8h-42c-2.3,0-3-2.2-3.5-4c-0.7-2.3-1.2-3.4-2.7-3.4H3.8
			C2.8,7.2,2,7.9,2,8.9l0,12c0,0.6-0.4,1-1,1s-1-0.4-1-1v-12c0.1-2.1,1.8-3.7,3.8-3.7h16.1c3.1,0,4,2.7,4.6,4.8
			c0.6,1.7,0.9,2.6,1.6,2.6h42c2.1,0,3.8,1.7,3.8,3.8v4.6C72,21.4,71.6,21.9,71,21.9z"/>
	</g>
</g>
</svg>
