<svg version="1.1" xmlns="http://www.w3.org/2000/svg" width="32" height="32" viewBox="0 0 32 32">
<title>folder</title>
<path fill="#333" d="M29.167 30.667h-26.333c-0.009 0-0.019 0-0.030 0-1.541 0-2.792-1.244-2.803-2.782v-15.884c0-0.736 0.597-1.333 1.333-1.333v0h29.333c0.736 0 1.333 0.597 1.333 1.333v0 15.867c0 0.002 0 0.004 0 0.005 0 0.77-0.315 1.466-0.823 1.968l-0 0c-0.512 0.511-1.219 0.827-1.999 0.827-0.004 0-0.008 0-0.012-0h0.001zM2.667 13.333v14.55c0.010 0.067 0.067 0.117 0.135 0.117 0.005 0 0.010-0 0.015-0.001l-0.001 0h26.333c0.003 0 0.006 0 0.009 0 0.049 0 0.094-0.019 0.128-0.050l-0 0c0.027-0.019 0.044-0.049 0.047-0.083l0-0v-14.533zM32 8.667v-1.467c-0.015-1.586-1.305-2.867-2.893-2.867-0.007 0-0.014 0-0.021 0h-16.349l-1.18-1.743c-0.524-0.763-1.392-1.257-2.375-1.257-0.003 0-0.006 0-0.008 0h-6.29c-0.006-0-0.013-0-0.020-0-1.573 0-2.85 1.269-2.863 2.839v4.495c0 0.736 0.597 1.333 1.333 1.333s1.333-0.597 1.333-1.333v0-4.493c0.015-0.099 0.099-0.174 0.201-0.174 0.005 0 0.011 0 0.016 0.001l-0.001-0h6.29c0.002-0 0.004-0 0.006-0 0.068 0 0.129 0.033 0.167 0.083l0 0 1.577 2.333c0.243 0.354 0.646 0.583 1.102 0.583 0.002 0 0.003 0 0.005 0h17.056c0.005-0 0.010-0.001 0.016-0.001 0.117 0 0.214 0.087 0.231 0.199l0 0.001v1.467c0 0.736 0.597 1.333 1.333 1.333s1.333-0.597 1.333-1.333v0z"></path>
</svg>
