<svg xmlns="http://www.w3.org/2000/svg" width="32" height="32"><path d="M26.067 30H3.334c-.097 0-.191-.014-.281-.038l.007.002A3.276 3.276 0 0 1 0 26.75V5a3 3 0 0 1 3-3h6a3 3 0 0 1 3 3v1h13a3 3 0 0 1 3 3v3h1a3 3 0 0 1 3 3c0 .275-.037.541-.105.795l.005-.021-2.93 11.98a3.007 3.007 0 0 1-2.903 2.247zM6.263 28h19.803c.461 0 .849-.312.965-.736l.002-.007 2.927-11.98a.949.949 0 0 0 .04-.274V15a1 1 0 0 0-1-1H10.501a1 1 0 0 0-.953.696l-.002.007-3.127 12.85v.037c-.052.165-.105.3-.166.432L6.262 28zM3 4a1 1 0 0 0-1 1v21.733c.007.345.152.655.383.876a1.265 1.265 0 0 0 2.095-.541l.002-.009 3.13-12.857-.001-.02.001-.021v.001a3.005 3.005 0 0 1 2.881-2.163H26v-3a1 1 0 0 0-1-1H11a1 1 0 0 1-1-1v-2a1 1 0 0 0-1-1z"/></svg>