<svg version="1.1" xmlns="http://www.w3.org/2000/svg" width="32" height="32" viewBox="0 0 32 32">
<title>folder-empty</title>
<path fill="#333" d="M26.667 28h-21.333c-0.6-0-1.107-0.396-1.274-0.941l-0.003-0.009-4-13.333c-0.036-0.115-0.056-0.247-0.056-0.383 0-0.736 0.597-1.333 1.333-1.333h29.333c0.736 0 1.333 0.597 1.333 1.333 0 0.137-0.021 0.269-0.059 0.393l0.003-0.009-4 13.333c-0.17 0.554-0.677 0.95-1.277 0.95h-0zM6.333 25.333h19.333l3.2-10.667h-25.74zM27.333 9.333v-0.977c-0.017-1.305-1.079-2.357-2.386-2.357-0.008 0-0.017 0-0.025 0h-10.922l-0.667-0.98c-0.438-0.62-1.153-1.020-1.96-1.020-0.014 0-0.028 0-0.042 0l0.002-0h-4.277c-0.006-0-0.013-0-0.020-0-1.296 0-2.349 1.040-2.37 2.332l-0 0.002v3c0 0.736 0.597 1.333 1.333 1.333s1.333-0.597 1.333-1.333v0-2.667h3.877l1 1.427c0.242 0.345 0.636 0.569 1.083 0.573h11.374v0.667c0 0.736 0.597 1.333 1.333 1.333s1.333-0.597 1.333-1.333v0z"></path>
</svg>
