<?xml version="1.0" encoding="utf-8"?>
<!-- Generator: Adobe Illustrator 20.1.0, SVG Export Plug-In . SVG Version: 6.00 Build 0)  -->
<svg version="1.1" id="Layer_1" xmlns="http://www.w3.org/2000/svg" xmlns:xlink="http://www.w3.org/1999/xlink" x="0px" y="0px"
	 viewBox="0 0 72 72" style="enable-background:new 0 0 72 72;" xml:space="preserve">
<path d="M60.7,61.9H11.3c-1.6,0-2.9-1.2-3.2-3L0,30.8c-0.1-0.3,0-0.6,0.2-0.9s0.5-0.4,0.8-0.4h70c0.3,0,0.6,0.1,0.8,0.4
	c0.2,0.3,0.2,0.6,0.2,0.9l-8.1,28.1C63.3,61.5,61.7,61.9,60.7,61.9z M2.3,31.6l7.7,26.8c0,0,0,0.1,0,0.1c0.1,0.7,0.6,1.4,1.2,1.4
	h49.4c0.3,0,0.9,0,1.2-1.4l7.8-26.9H2.3z M59.7,25c-0.6,0-1-0.4-1-1v-4c0-0.5-0.4-1-0.9-1H28.9c-1.8,0-2.3-1.7-2.7-3
	c-0.5-1.6-0.8-2.2-1.6-2.2H13.6c-0.5,0-0.9,0.4-0.9,0.9l0,9.3c0,0.6-0.4,1-1,1s-1-0.4-1-1v-9.3c0-1.6,1.3-2.9,2.9-2.9h11.1
	c2.4,0,3,2.2,3.5,3.6c0.3,0.9,0.5,1.6,0.8,1.6h28.9c1.6,0,2.9,1.3,2.9,3v4C60.7,24.6,60.3,25,59.7,25z"/>
</svg>
