<svg version="1.1" xmlns="http://www.w3.org/2000/svg" width="32" height="32" viewBox="0 0 32 32">
<title>form</title>
<path fill="#333" d="M15.333 20c-0.364-0.001-0.693-0.147-0.934-0.384l-8.666-8.523c-0.245-0.242-0.397-0.578-0.397-0.95 0-0.737 0.597-1.334 1.334-1.334 0.365 0 0.696 0.147 0.937 0.384l7.69 7.577 14.407-15.027c0.243-0.254 0.585-0.411 0.963-0.411 0.737 0 1.334 0.597 1.334 1.334 0 0.359-0.141 0.684-0.371 0.924l0-0-15.333 16c-0.243 0.253-0.584 0.41-0.962 0.41-0.001 0-0.001 0-0.002 0h0zM29.333 27.763v-13.333c0-0.736-0.597-1.333-1.333-1.333s-1.333 0.597-1.333 1.333v0 13.333c0 0.131-0.106 0.237-0.237 0.237v0h-23.527c-0.131 0-0.237-0.106-0.237-0.237v0-23.527c0-0.131 0.106-0.237 0.237-0.237v0h13.253c0.736 0 1.333-0.597 1.333-1.333s-0.597-1.333-1.333-1.333v0h-13.253c-1.603 0.002-2.901 1.301-2.903 2.903v23.527c0.002 1.603 1.301 2.901 2.903 2.903h23.527c1.603-0.002 2.901-1.301 2.903-2.903v-0z"></path>
</svg>
