<?xml version="1.0" encoding="utf-8"?>
<!-- Generator: Adobe Illustrator 20.1.0, SVG Export Plug-In . SVG Version: 6.00 Build 0)  -->
<svg version="1.1" id="Layer_2" xmlns="http://www.w3.org/2000/svg" xmlns:xlink="http://www.w3.org/1999/xlink" x="0px" y="0px"
	 viewBox="0 0 72 72" style="enable-background:new 0 0 72 72;" xml:space="preserve">
<path d="M71,27H1c-0.6,0-1-0.4-1-1s0.4-1,1-1h70c0.6,0,1,0.4,1,1S71.6,27,71,27z M71,54H1c-0.6,0-1-0.4-1-1s0.4-1,1-1h70
	c0.6,0,1,0.4,1,1S71.6,54,71,54z M49,68c-0.6,0-1-0.4-1-1V26c0-0.6,0.4-1,1-1s1,0.4,1,1v41C50,67.6,49.6,68,49,68z M23,68
	c-0.6,0-1-0.4-1-1V26c0-0.6,0.4-1,1-1s1,0.4,1,1v41C24,67.6,23.6,68,23,68z M71,41H1c-0.6,0-1-0.4-1-1s0.4-1,1-1h70c0.6,0,1,0.4,1,1
	S71.6,41,71,41z M67,68H5c-2.8,0-5-2.2-5-5V9c0-2.8,2.2-5,5-5h62c2.8,0,5,2.2,5,5v54C72,65.8,69.8,68,67,68z M5,6C3.3,6,2,7.3,2,9
	v54c0,1.7,1.3,3,3,3h62c1.7,0,3-1.3,3-3V9c0-1.7-1.3-3-3-3H5z"/>
</svg>
