<?xml version="1.0" encoding="utf-8"?>
<!-- Generator: Adobe Illustrator 20.1.0, SVG Export Plug-In . SVG Version: 6.00 Build 0)  -->
<svg version="1.1" xmlns="http://www.w3.org/2000/svg" xmlns:xlink="http://www.w3.org/1999/xlink" x="0px" y="0px"
	 viewBox="0 0 72 72" style="enable-background:new 0 0 72 72;" xml:space="preserve">
<style type="text/css">
	.st0{display:none;}
	.st1{display:inline;}
	.st2{clip-path:url(#SVGID_3_);}
	.st3{clip-path:url(#SVGID_4_);}
</style>
<g id="Layer_1" class="st0">
	<g class="st1">
		<g>
			<defs>
				<rect id="SVGID_1_" x="0" y="3.2" width="72" height="65.6"/>
			</defs>
			<defs>
				<path id="SVGID_2_" d="M60.6,63.8H3.4V6.5h48.9V3.2H3.4C1.5,3.2,0,4.7,0,6.5v57.3c0,1.9,1.5,3.4,3.4,3.4h57.3
					c1.9,0,3.4-1.5,3.4-3.4V28.4h-3.4V63.8L60.6,63.8z M72,6.7c0-0.8-0.6-1.4-1.4-1.4c-0.4,0-0.8,0.2-1,0.5l0,0l-38,39.4L10.9,24.5
					c-0.3-0.3-0.6-0.4-1-0.4c-0.8,0-1.4,0.6-1.4,1.4c0,0.4,0.2,0.8,0.4,1l21.7,21.7c0.3,0.3,0.6,0.4,1,0.4c0.4,0,0.8-0.2,1-0.5l0,0
					l39-40.4l0,0C71.8,7.5,72,7.1,72,6.7L72,6.7z"/>
			</defs>
			<clipPath id="SVGID_3_">
				<use xlink:href="#SVGID_1_"  style="overflow:visible;"/>
			</clipPath>
			<clipPath id="SVGID_4_" class="st2">
				<use xlink:href="#SVGID_2_"  style="overflow:visible;"/>
			</clipPath>
			<rect x="-10.6" y="-7.4" class="st3" width="93.2" height="85.2"/>
		</g>
	</g>
</g>
<g id="Layer_2">
	<g>
		<g>
			<path d="M59.6,68.1H4.8c-2.5,0-4.6-2.1-4.6-4.6V8.5c0-2.5,2.1-4.6,4.6-4.6h46.1c0.6,0,1,0.4,1,1s-0.4,1-1,1H4.8
				C3.4,5.9,2.2,7,2.2,8.5v55.1c0,1.4,1.2,2.6,2.6,2.6h54.8c1.4,0,2.6-1.2,2.6-2.6V35c0-0.6,0.4-1,1-1s1,0.4,1,1v28.5
				C64.2,66.1,62.1,68.1,59.6,68.1z"/>
		</g>
		<g>
			<path d="M31.8,48.1c-0.3,0-0.5-0.1-0.7-0.3L9.2,26.1c-0.4-0.4-0.4-1,0-1.4s1-0.4,1.4,0l21.1,21L70.1,5.9c0.4-0.4,1-0.4,1.4,0
				c0.4,0.4,0.4,1,0,1.4L32.5,47.8C32.3,48,32,48.1,31.8,48.1C31.8,48.1,31.8,48.1,31.8,48.1z"/>
		</g>
	</g>
</g>
</svg>
