<svg xmlns="http://www.w3.org/2000/svg" width="32" height="32"><path d="M15.053 20h-.005a3.029 3.029 0 0 1-2.462-1.261l-.006-.009-4.393-6.147a1 1 0 0 1 1.624-1.167l.002.003 4.393 6.147a1.033 1.033 0 0 0 1.446.237l-.003.002a1.02 1.02 0 0 0 .192-.178l.001-.002L30.232.358a1 1 0 1 1 1.532 1.281l.001-.001-14.387 17.267a3.03 3.03 0 0 1-2.332 1.093h-.002zM30 27.02V14a1 1 0 0 0-2 0v13.02A3 3 0 0 1 25.021 30H4.98A3 3 0 0 1 2 27.021V6.98A3 3 0 0 1 4.979 4H22a1 1 0 0 0 0-2H4.98A5 5 0 0 0 0 6.979V27.02A5 5 0 0 0 4.979 32H25.02A5 5 0 0 0 30 27.021v-.001z"/></svg>