<svg version="1.1" xmlns="http://www.w3.org/2000/svg" width="32" height="32" viewBox="0 0 32 32">
<title>form-data</title>
<path fill="#333" d="M30.667 2.667h-29.333c-0.736 0-1.333 0.597-1.333 1.333v0 24c0 0.736 0.597 1.333 1.333 1.333v0h29.333c0.736 0 1.333-0.597 1.333-1.333v0-24c0-0.736-0.597-1.333-1.333-1.333v0zM12.333 21.333v-2.667h7.333v2.667zM19.667 24v2.667h-7.333v-2.667zM19.667 13.333v2.667h-7.333v-2.667zM29.333 13.333v2.667h-7v-2.667zM9.667 16h-7v-2.667h7zM2.667 18.667h7v2.667h-7zM22.333 18.667h7v2.667h-7zM29.333 5.333v5.333h-26.667v-5.333zM2.667 24h7v2.667h-7zM22.333 26.667v-2.667h7v2.667z"></path>
</svg>
