<svg version="1.1" xmlns="http://www.w3.org/2000/svg" width="32" height="32" viewBox="0 0 32 32">
<title>future-publication</title>
<path fill="#333" d="M23.333 32c-4.786 0-8.667-3.88-8.667-8.667s3.88-8.667 8.667-8.667c4.786 0 8.667 3.88 8.667 8.667v0c0 4.786-3.88 8.667-8.667 8.667v0zM23.333 17.333c-3.314 0-6 2.686-6 6s2.686 6 6 6c3.314 0 6-2.686 6-6v0c0-3.314-2.686-6-6-6v0zM26.277 24.723l-1.61-1.607v-3.117c0-0.736-0.597-1.333-1.333-1.333s-1.333 0.597-1.333 1.333v0 3.48c-0.008 0.056-0.013 0.122-0.013 0.188 0 0.368 0.149 0.701 0.39 0.942v0l2 2c0.241 0.241 0.575 0.391 0.943 0.391 0.737 0 1.334-0.597 1.334-1.334 0-0.368-0.149-0.702-0.391-0.943v0zM19.333 2.547c0-0.736-0.597-1.333-1.333-1.333v0h-6.667c-0.736 0-1.333 0.597-1.333 1.333s0.597 1.333 1.333 1.333v0h6.667c0.736 0 1.333-0.597 1.333-1.333v0zM26.597 1.213h-1.333c-0.736 0-1.333 0.597-1.333 1.333s0.597 1.333 1.333 1.333v0h1.333c0.039 0.003 0.070 0.036 0.070 0.076 0 0.001-0 0.003-0 0.004v-0 6.333h-24v-6.333c-0-0.002-0-0.004-0-0.007 0-0.036 0.028-0.065 0.064-0.067h1.334c0.736 0 1.333-0.597 1.333-1.333s-0.597-1.333-1.333-1.333v0h-1.333c-1.507 0.004-2.728 1.226-2.73 2.733v22.63c0 0.001 0 0.002 0 0.003 0 1.513 1.224 2.741 2.736 2.747h10.264c0.736 0 1.333-0.597 1.333-1.333s-0.597-1.333-1.333-1.333v0h-10.263c-0.040-0.005-0.070-0.039-0.070-0.079 0-0.001 0-0.003 0-0.004v0-13.613h24v0.030c0 0.736 0.597 1.333 1.333 1.333s1.333-0.597 1.333-1.333v0-9.040c0 0 0 0 0-0 0-1.513-1.224-2.741-2.736-2.747h-0.001zM9.030 4.623v-3.29c0-0.736-0.597-1.333-1.333-1.333s-1.333 0.597-1.333 1.333v0 3.29c-0.733 0.456-1.213 1.257-1.213 2.17 0 1.406 1.14 2.547 2.547 2.547s2.547-1.14 2.547-2.547c0-0.913-0.481-1.714-1.203-2.163l-0.011-0.006zM22.97 4.623v-3.29c0-0.736-0.597-1.333-1.333-1.333s-1.333 0.597-1.333 1.333v0 3.29c-0.733 0.456-1.213 1.257-1.213 2.17 0 1.406 1.14 2.547 2.547 2.547s2.547-1.14 2.547-2.547c0-0.913-0.481-1.714-1.203-2.163l-0.011-0.006z"></path>
</svg>
