<?xml version="1.0" encoding="utf-8"?>
<!-- Generator: Adobe Illustrator 20.1.0, SVG Export Plug-In . SVG Version: 6.00 Build 0)  -->
<svg version="1.1" id="Layer_3" xmlns="http://www.w3.org/2000/svg" xmlns:xlink="http://www.w3.org/1999/xlink" x="0px" y="0px"
	 viewBox="0 0 72 72" style="enable-background:new 0 0 72 72;" xml:space="preserve">
<g>
	<g>
		<g>
			<g>
				<path d="M31.5,62h-27C2,62,0,60,0,57.6V7.9c0-2.4,2-4.4,4.4-4.4h3.3c0.6,0,1,0.4,1,1s-0.4,1-1,1H4.4C3.1,5.4,2,6.5,2,7.9v49.7
					C2,58.9,3.1,60,4.4,60h27c0.6,0,1,0.4,1,1S32,62,31.5,62z"/>
			</g>
			<g>
				<path d="M61,32.4c-0.6,0-1-0.4-1-1V7.9c0-1.3-1.1-2.4-2.4-2.4H54c-0.6,0-1-0.4-1-1s0.4-1,1-1h3.6c2.4,0,4.4,2,4.4,4.4v23.6
					C62,32,61.6,32.4,61,32.4z"/>
			</g>
			<g>
				<path d="M38.6,5.4H23.3c-0.6,0-1-0.4-1-1s0.4-1,1-1h15.4c0.6,0,1,0.4,1,1S39.2,5.4,38.6,5.4z"/>
			</g>
			<g>
				<path d="M61,24.1H1c-0.6,0-1-0.4-1-1s0.4-1,1-1h60c0.6,0,1,0.4,1,1S61.6,24.1,61,24.1z"/>
			</g>
			<g>
				<g>
					<path d="M15.6,10c-0.6,0-1-0.4-1-1V1c0-0.6,0.4-1,1-1s1,0.4,1,1v8C16.6,9.6,16.1,10,15.6,10z"/>
				</g>
				<g>
					<path d="M15.6,17.3c-2.4,0-4.4-2-4.4-4.4s2-4.4,4.4-4.4s4.4,2,4.4,4.4S18,17.3,15.6,17.3z M15.6,10.4c-1.3,0-2.4,1.1-2.4,2.4
						c0,1.3,1.1,2.4,2.4,2.4c1.3,0,2.4-1.1,2.4-2.4C18,11.5,16.9,10.4,15.6,10.4z"/>
				</g>
			</g>
			<g>
				<g>
					<path d="M46.5,10c-0.6,0-1-0.4-1-1V1c0-0.6,0.4-1,1-1s1,0.4,1,1v8C47.5,9.6,47,10,46.5,10z"/>
				</g>
				<g>
					<path d="M46.5,17.3c-2.4,0-4.4-2-4.4-4.4s2-4.4,4.4-4.4s4.4,2,4.4,4.4S48.9,17.3,46.5,17.3z M46.5,10.4c-1.3,0-2.4,1.1-2.4,2.4
						c0,1.3,1.1,2.4,2.4,2.4s2.4-1.1,2.4-2.4C48.9,11.5,47.8,10.4,46.5,10.4z"/>
				</g>
			</g>
		</g>
		<g>
			<circle cx="10.4" cy="31.4" r="3.4"/>
			<circle cx="20.7" cy="31.4" r="3.4"/>
			<circle cx="31" cy="31.4" r="3.4"/>
			<circle cx="41.3" cy="31.4" r="3.4"/>
			<circle cx="10.4" cy="41.7" r="3.4"/>
			<circle cx="20.7" cy="41.7" r="3.4"/>
			<circle cx="31" cy="41.7" r="3.4"/>
			<circle cx="10.4" cy="52" r="3.4"/>
			<circle cx="20.7" cy="52" r="3.4"/>
		</g>
	</g>
	<g>
		<g>
			<path d="M55,72c-9.4,0-17-7.6-17-17s7.6-17,17-17s17,7.6,17,17S64.4,72,55,72z M55,40c-8.3,0-15,6.7-15,15s6.7,15,15,15
				s15-6.7,15-15S63.3,40,55,40z"/>
		</g>
		<g>
			<circle cx="55" cy="55" r="2.5"/>
			<g>
				<path d="M55,56c-0.6,0-1-0.4-1-1v-8c0-0.6,0.4-1,1-1s1,0.4,1,1v8C56,55.6,55.6,56,55,56z"/>
			</g>
			<g>
				<path d="M61,56h-6c-0.6,0-1-0.4-1-1s0.4-1,1-1h6c0.6,0,1,0.4,1,1S61.6,56,61,56z"/>
			</g>
		</g>
	</g>
</g>
</svg>
