<?xml version="1.0" encoding="utf-8"?>
<!-- Generator: Adobe Illustrator 20.1.0, SVG Export Plug-In . SVG Version: 6.00 Build 0)  -->
<svg version="1.1" id="Layer_2" xmlns="http://www.w3.org/2000/svg" xmlns:xlink="http://www.w3.org/1999/xlink" x="0px" y="0px"
	 viewBox="0 0 72 72" style="enable-background:new 0 0 72 72;" xml:space="preserve">
<g>
	<g>
		<path d="M51.9,64.7H3c-1.7,0-3-1.3-3-3V27.5c0-1.7,1.3-3,3-3h48.9c1.7,0,3,1.3,3,3v34.2C54.9,63.4,53.5,64.7,51.9,64.7z M3,26.5
			c-0.6,0-1,0.4-1,1v34.2c0,0.6,0.4,1,1,1h48.9c0.6,0,1-0.4,1-1V27.5c0-0.6-0.4-1-1-1H3z"/>
	</g>
	<g>
		<circle cx="33.4" cy="33.7" r="3.3"/>
		<path d="M33.4,37.9c-2.4,0-4.3-1.9-4.3-4.3c0-2.4,1.9-4.3,4.3-4.3c2.4,0,4.3,1.9,4.3,4.3C37.7,36,35.8,37.9,33.4,37.9z M33.4,31.4
			c-1.2,0-2.3,1-2.3,2.3c0,1.3,1,2.3,2.3,2.3s2.3-1,2.3-2.3C35.7,32.4,34.7,31.4,33.4,31.4z"/>
	</g>
	<g>
		<path d="M39.3,59.8c-0.3,0-0.5-0.1-0.7-0.3L21.3,42.4l-15,14.8c-0.4,0.4-1,0.4-1.4,0c-0.4-0.4-0.4-1,0-1.4l15.7-15.5
			c0.4-0.4,1-0.4,1.4,0l18,17.8c0.4,0.4,0.4,1,0,1.4C39.8,59.7,39.6,59.8,39.3,59.8z"/>
	</g>
	<g>
		<path d="M49,57.6c-0.3,0-0.5-0.1-0.7-0.3l-7.7-7.6l-5.2,5.3c-0.4,0.4-1,0.4-1.4,0c-0.4-0.4-0.4-1,0-1.4l5.9-6
			c0.2-0.2,0.4-0.3,0.7-0.3c0.3,0,0.5,0.1,0.7,0.3l8.4,8.3c0.4,0.4,0.4,1,0,1.4C49.5,57.5,49.3,57.6,49,57.6z"/>
	</g>
	<g>
		<path d="M62.2,52.4C62.2,52.4,62.2,52.4,62.2,52.4c-0.6,0-1-0.5-1-1c0-0.2,0.2-22.8,0-28.8C61,18,57,18,56.8,18c0,0,0,0,0,0h-44
			c-0.6,0-1-0.4-1-1s0.4-1,1-1h44c0,0,0,0,0,0c2.1,0,6.2,1.4,6.4,6.5c0.2,6,0,28.6,0,28.9C63.2,51.9,62.7,52.4,62.2,52.4z"/>
	</g>
	<g>
		<path d="M70.9,43.7C70.9,43.7,70.9,43.7,70.9,43.7c-0.6,0-1-0.5-1-1c0-0.2,0.2-22.8,0-28.8c-0.2-4.6-4.2-4.6-4.4-4.6c0,0,0,0,0,0
			h-44c-0.6,0-1-0.4-1-1s0.4-1,1-1h44c0,0,0,0,0,0c2.1,0,6.2,1.4,6.4,6.5c0.2,6,0,28.6,0,28.9C71.9,43.2,71.4,43.7,70.9,43.7z"/>
	</g>
</g>
</svg>
