<svg xmlns="http://www.w3.org/2000/svg" width="32" height="32"><path d="M30 32H11a1 1 0 0 1 0-2h19V9a1 1 0 0 1 2 0v21a2 2 0 0 1-2 2zm-3-6V5a1 1 0 0 0-2 0v21H6a1 1 0 0 0 0 2h19a2 2 0 0 0 2-2zM22 1v22a1 1 0 0 1-1 1H1a1 1 0 0 1-1-1V1a1 1 0 0 1 1-1h20a1 1 0 0 1 1 1zM2 16h4.48l5.237-7.483a3.001 3.001 0 0 1 4.189-.73l-.009-.006c.201.142.376.3.53.476l.003.004L20 12.334V2.001H2zm18 2H2v4h18zm0-2v-.623L14.927 9.58a1 1 0 0 0-1.568.08l-.002.003L8.92 16zM6 4.5A1.5 1.5 0 1 0 7.5 6 1.503 1.503 0 0 0 6 4.5z"/></svg>