<svg version="1.1" xmlns="http://www.w3.org/2000/svg" width="32" height="32" viewBox="0 0 32 32">
<title>gallery</title>
<path fill="#333" d="M26.667 23c-0.736 0-1.333-0.597-1.333-1.333v0-12h-18.667c-0.736 0-1.333-0.597-1.333-1.333s0.597-1.333 1.333-1.333v0h18.667c1.473 0 2.667 1.194 2.667 2.667v0 12c0 0.736-0.597 1.333-1.333 1.333v0zM32 17.333v-12c0-1.473-1.194-2.667-2.667-2.667v0h-18.667c-0.736 0-1.333 0.597-1.333 1.333s0.597 1.333 1.333 1.333v0h18.667v12c0 0.736 0.597 1.333 1.333 1.333s1.333-0.597 1.333-1.333v0zM21.333 28.667h-18.667c-1.473 0-2.667-1.194-2.667-2.667v0-12c0-1.473 1.194-2.667 2.667-2.667v0h18.667c1.473 0 2.667 1.194 2.667 2.667v0 12c0 1.473-1.194 2.667-2.667 2.667v0zM2.667 14v12h18.667v-12zM14.667 17c0 0.736-0.597 1.333-1.333 1.333s-1.333-0.597-1.333-1.333c0-0.736 0.597-1.333 1.333-1.333v0c0.736 0 1.333 0.597 1.333 1.333v0zM19.53 21.667l-3.14-2.667c-0.232-0.202-0.538-0.324-0.872-0.324s-0.639 0.123-0.873 0.326l0.002-0.001-1.647 1.44-2.667-2.713c-0.242-0.243-0.576-0.393-0.946-0.393-0.004 0-0.008 0-0.012 0h0.001c-0.369 0.001-0.702 0.151-0.943 0.393l-4.047 4.073c-0.196 0.231-0.315 0.532-0.315 0.86 0 0.736 0.597 1.333 1.333 1.333 0.335 0 0.642-0.124 0.876-0.328l-0.002 0.001 3.093-3.117 3.667 3.713c0.242 0.243 0.577 0.394 0.947 0.394 0.737 0 1.334-0.597 1.334-1.334 0-0.367-0.148-0.699-0.387-0.94l0 0-0.043-0.050 0.667-0.573 2.26 1.92c0.204 0.134 0.455 0.213 0.724 0.213 0.736 0 1.333-0.597 1.333-1.333 0-0.344-0.13-0.658-0.345-0.895l0.001 0.001z"></path>
</svg>
