<?xml version="1.0" encoding="utf-8"?>
<!-- Generator: Adobe Illustrator 20.1.0, SVG Export Plug-In . SVG Version: 6.00 Build 0)  -->
<svg version="1.1" id="Layer_2" xmlns="http://www.w3.org/2000/svg" xmlns:xlink="http://www.w3.org/1999/xlink" x="0px" y="0px"
	 viewBox="0 0 72 72" style="enable-background:new 0 0 72 72;" xml:space="preserve">
<g>
	<g>
		<path d="M67,72H5c-2.8,0-5-2.2-5-5V5c0-2.8,2.2-5,5-5h62c2.8,0,5,2.2,5,5v62C72,69.8,69.8,72,67,72z M5,2C3.3,2,2,3.3,2,5v62
			c0,1.7,1.3,3,3,3h62c1.7,0,3-1.3,3-3V5c0-1.7-1.3-3-3-3H5z"/>
	</g>
	<g>
		<path d="M61,26H11c-1.6,0-3-1.3-3-3v0c0-1.6,1.3-3,3-3h50c1.6,0,3,1.3,3,3v0C64,24.7,62.7,26,61,26z"/>
		<path d="M61,39H11c-1.6,0-3-1.3-3-3v0c0-1.6,1.3-3,3-3h50c1.6,0,3,1.3,3,3v0C64,37.7,62.7,39,61,39z"/>
		<path d="M61,52H11c-1.6,0-3-1.3-3-3v0c0-1.6,1.3-3,3-3h50c1.6,0,3,1.3,3,3v0C64,50.7,62.7,52,61,52z"/>
		<path d="M35,14H11c-1.6,0-3-1.3-3-3v0c0-1.6,1.3-3,3-3h24c1.6,0,3,1.3,3,3v0C38,12.7,36.6,14,35,14z"/>
		<path d="M45.3,64H11c-1.6,0-3-1.3-3-3v0c0-1.6,1.3-3,3-3h34.3c1.6,0,3,1.3,3,3v0C48.3,62.7,47,64,45.3,64z"/>
	</g>
</g>
</svg>
