<?xml version="1.0" encoding="utf-8"?>
<!-- Generator: Adobe Illustrator 20.1.0, SVG Export Plug-In . SVG Version: 6.00 Build 0)  -->
<svg version="1.1" id="Layer_8" xmlns="http://www.w3.org/2000/svg" xmlns:xlink="http://www.w3.org/1999/xlink" x="0px" y="0px"
	 viewBox="0 0 72 72" style="enable-background:new 0 0 72 72;" xml:space="preserve">
<g>
	<g>
		<path d="M67,72H5c-2.8,0-5-2.2-5-5V5c0-2.8,2.2-5,5-5h62c2.8,0,5,2.2,5,5v62C72,69.8,69.8,72,67,72z M5,2C3.3,2,2,3.3,2,5v62
			c0,1.7,1.3,3,3,3h62c1.7,0,3-1.3,3-3V5c0-1.7-1.3-3-3-3H5z"/>
	</g>
	<g>
		<g>
			<path d="M37.5,64c-1.2,0-2.5-0.5-3.4-1.6h0L10.5,34.8c-0.2-0.2-0.2-0.4-0.2-0.6l-0.2-22.1c0-1.2,0.5-2.4,1.4-3.1
				c0.9-0.8,2.1-1.1,3.3-0.9l21.8,3.6c0.2,0,0.4,0.2,0.6,0.3l23.6,27.6c1.6,1.8,1.4,4.6-0.4,6.1L40.3,63C39.5,63.7,38.5,64,37.5,64z
				 M12.2,33.8l23.4,27.4c0,0,0,0,0,0c0.9,1,2.3,1.2,3.3,0.3l20.2-17.3c1-0.8,1-2.3,0.2-3.3L35.9,13.5L14.5,10
				c-0.6-0.1-1.2,0.1-1.7,0.5c-0.5,0.4-0.7,1-0.7,1.6L12.2,33.8z"/>
		</g>
		<g>
			<path d="M21.3,25.6c-1.4,0-2.8-0.6-3.8-1.8c-1.8-2.1-1.6-5.3,0.6-7.1c2.1-1.8,5.3-1.6,7.1,0.6c1.8,2.1,1.6,5.3-0.6,7.1
				C23.6,25.3,22.4,25.6,21.3,25.6z M21.3,17.6c-0.7,0-1.4,0.2-2,0.7c-1.3,1.1-1.4,3-0.3,4.3c1.1,1.3,3,1.4,4.3,0.3
				c1.3-1.1,1.4-3,0.3-4.3C23,17.9,22.1,17.6,21.3,17.6z"/>
		</g>
	</g>
	<g>
		<path d="M53.2,42.5l-3.1,1.7l-3.8-4.4L32,47.7l-2.7-3.1l14.3-7.9l-3.8-4.4l3.1-1.7L53.2,42.5z"/>
		<path d="M32,48.7c-0.3,0-0.6-0.1-0.8-0.3l-2.7-3.1c-0.2-0.2-0.3-0.5-0.2-0.8c0.1-0.3,0.2-0.6,0.5-0.7l13.2-7.3l-3-3.5
			c-0.2-0.2-0.3-0.5-0.2-0.8c0.1-0.3,0.2-0.6,0.5-0.7l3.1-1.7c0.4-0.2,0.9-0.1,1.2,0.2L54,41.8c0.2,0.2,0.3,0.5,0.2,0.8
			c-0.1,0.3-0.2,0.6-0.5,0.7L50.6,45c-0.4,0.2-0.9,0.1-1.2-0.2L46.1,41l-13.6,7.5C32.4,48.7,32.2,48.7,32,48.7z M30.9,44.9l1.3,1.5
			l13.6-7.5c0.4-0.2,0.9-0.1,1.2,0.2l3.3,3.8l1.3-0.7l-9-10.3l-1.3,0.7l3,3.5c0.2,0.2,0.3,0.5,0.2,0.8c-0.1,0.3-0.2,0.6-0.5,0.7
			L30.9,44.9z"/>
	</g>
</g>
</svg>
