<?xml version="1.0" encoding="utf-8"?>
<!-- Generator: Adobe Illustrator 20.1.0, SVG Export Plug-In . SVG Version: 6.00 Build 0)  -->
<svg version="1.1" id="Layer_1" xmlns="http://www.w3.org/2000/svg" xmlns:xlink="http://www.w3.org/1999/xlink" x="0px" y="0px"
	 viewBox="0 0 72 72" style="enable-background:new 0 0 72 72;" xml:space="preserve">
<path d="M22,62c0,1.1-0.9,2-2,2H10c-1.1,0-2-0.9-2-2V50c0-1.1,0.9-2,2-2h10c1.1,0,2,0.9,2,2V62z M43,62c0,1.1-0.9,2-2,2H31
	c-1.1,0-2-0.9-2-2V41c0-1.1,0.9-2,2-2h10c1.1,0,2,0.9,2,2V62z M64,62c0,1.1-0.9,2-2,2H52c-1.1,0-2-0.9-2-2V30c0-1.1,0.9-2,2-2h10
	c1.1,0,2,0.9,2,2V62z M64,19c0,1.1-0.9,2-2,2s-2-0.9-2-2v-4.4C33.6,38.2,11.2,41.3,10.3,41.5c-0.1,0-0.2,0-0.3,0c-1,0-1.8-0.7-2-1.7
	c-0.1-1.1,0.6-2.1,1.7-2.2c0.2,0,21.9-3.2,47.2-25.5H52c-1.1,0-2-0.9-2-2s0.9-2,2-2h8.5c0.8,0,1.6,0.3,2.1,0.7
	C62.7,8.9,62.9,9,63,9.1c0.1,0.1,0.2,0.2,0.3,0.4c0.4,0.6,0.7,1.3,0.7,2.1V19z M67,72H5c-2.8,0-5-2.2-5-5V5c0-2.8,2.2-5,5-5h62
	c2.8,0,5,2.2,5,5v62C72,69.8,69.8,72,67,72z M5,2C3.3,2,2,3.3,2,5v62c0,1.7,1.3,3,3,3h62c1.7,0,3-1.3,3-3V5c0-1.7-1.3-3-3-3H5z"/>
</svg>
