<?xml version="1.0" encoding="utf-8"?>
<!-- Generator: Adobe Illustrator 20.1.0, SVG Export Plug-In . SVG Version: 6.00 Build 0)  -->
<svg version="1.1" id="Layer_1" xmlns="http://www.w3.org/2000/svg" xmlns:xlink="http://www.w3.org/1999/xlink" x="0px" y="0px"
	 viewBox="0 0 72 72" style="enable-background:new 0 0 72 72;" xml:space="preserve">
<g>
	<g>
		<g>
			<circle cx="10" cy="10" r="2"/>
			<circle cx="17" cy="10" r="2"/>
			<circle cx="24" cy="10" r="2"/>
		</g>
		<g>
			<path d="M62,24.7H10c-1.1,0-2-0.7-2-1.7v-3.3c0-0.9,0.9-1.7,2-1.7h52c1.1,0,2,0.8,2,1.7V23C64,23.9,63.1,24.7,62,24.7z"/>
			<path d="M62,64.4H32.6c-1.1,0-2-0.9-2-2V50.9c0-1.1,0.9-2,2-2H62c1.1,0,2,0.9,2,2v11.5C64,63.5,63.1,64.4,62,64.4z"/>
			<path d="M62,42.4H32c-1.1,0-2-0.6-2-1.3v-8.7c0-0.7,0.9-1.3,2-1.3h30c1.1,0,2,0.6,2,1.3v8.7C64,41.8,63.1,42.4,62,42.4z"/>
			<path d="M20.4,64.4H10c-1.1,0-2-0.8-2-1.8V33c0-1,0.9-1.8,2-1.8h10.4c1.1,0,2,0.8,2,1.8v29.7C22.4,63.6,21.5,64.4,20.4,64.4z"/>
		</g>
	</g>
	<g>
		<path d="M67,72H5c-2.8,0-5-2.2-5-5V5c0-2.8,2.2-5,5-5h62c2.8,0,5,2.2,5,5v62C72,69.8,69.8,72,67,72z M5,2C3.3,2,2,3.3,2,5v62
			c0,1.7,1.3,3,3,3h62c1.7,0,3-1.3,3-3V5c0-1.7-1.3-3-3-3H5z"/>
	</g>
</g>
</svg>
