<svg xmlns="http://www.w3.org/2000/svg" width="32" height="32"><path d="M14.667 28.333a1 1 0 0 1-1 1h-2.413c-2.897 0-4.92-1.78-4.92-4.333V3.073l-4.58 5.26A1.005 1.005 0 1 1 .249 6.998l-.001.001L5.711.746c.39-.448.957-.734 1.591-.747H7.361a2.161 2.161 0 0 1 1.614.79l.003.004L14.421 7a1.005 1.005 0 0 1-1.505 1.335l-.001-.001-4.58-5.237V15h5.333a1 1 0 0 1 0 2H8.335v8c0 1.413 1.147 2.333 2.92 2.333h2.413a1 1 0 0 1 1 1zm17.333 2v-4c0-.92-.746-1.667-1.667-1.667h-12c-.92 0-1.667.746-1.667 1.667v4c0 .92.746 1.667 1.667 1.667h12c.92 0 1.667-.746 1.667-1.667zm-13.333-3.666H30V30H18.667zM32 18v-4c0-.92-.746-1.667-1.667-1.667h-12c-.92 0-1.667.746-1.667 1.667v4c0 .92.746 1.667 1.667 1.667h12c.92 0 1.667-.746 1.667-1.667zm-13.333-3.667H30v3.333H18.667z"/></svg>