<svg version="1.1" xmlns="http://www.w3.org/2000/svg" width="32" height="32" viewBox="0 0 32 32">
<title>go-up</title>
<path fill="#333" d="M30.667 22.667h-19.62c-1.3 0-2.047-0.73-2.047-2v-9.687l4 4.567c0.246 0.304 0.62 0.497 1.038 0.497 0.736 0 1.333-0.597 1.333-1.333 0-0.359-0.142-0.684-0.372-0.924l0 0-5.437-6.21c-0.453-0.557-1.138-0.91-1.906-0.91-0.745 0-1.412 0.332-1.861 0.857l-0.003 0.003-5.46 6.263c-0.169 0.221-0.27 0.501-0.27 0.804 0 0.736 0.597 1.333 1.333 1.333 0.365 0 0.696-0.147 0.937-0.385l-0 0 4-4.58v9.703c0 2.747 1.94 4.667 4.713 4.667h19.62c0.736 0 1.333-0.597 1.333-1.333s-0.597-1.333-1.333-1.333v0z"></path>
</svg>
