<svg version="1.1" xmlns="http://www.w3.org/2000/svg" width="32" height="32" viewBox="0 0 32 32">
<title>h1</title>
<path fill="#333" d="M25.333 29.333c-0.736 0-1.333-0.597-1.333-1.333v0-20.493l-3 3.38c-0.246 0.277-0.603 0.45-1 0.45-0.738 0-1.336-0.598-1.336-1.336 0-0.341 0.128-0.652 0.338-0.888l-0.001 0.001 5.333-6c0.245-0.277 0.602-0.451 1-0.451 0.736 0 1.333 0.597 1.333 1.333 0 0.002 0 0.003 0 0.005v-0 24c0 0.736-0.597 1.333-1.333 1.333v0zM7.333 13.167c-2.1 0-3.597 0.48-4.667 1.16v-10.327c0-0.736-0.597-1.333-1.333-1.333s-1.333 0.597-1.333 1.333v0 24c0 0.736 0.597 1.333 1.333 1.333s1.333-0.597 1.333-1.333v0-9.060c0-0.517 0.303-3.107 4.667-3.107s4.667 2.667 4.667 3.167v9c0 0.736 0.597 1.333 1.333 1.333s1.333-0.597 1.333-1.333v0-9c0-0.057-0.083-5.833-7.333-5.833z"></path>
</svg>
