<svg version="1.1" xmlns="http://www.w3.org/2000/svg" width="32" height="32" viewBox="0 0 32 32">
<title>h1</title>
<path fill="#333" d="M17.333 16.073l-0.033 14.567c0 0.736-0.597 1.333-1.333 1.333v0c-0.736 0-1.333-0.597-1.333-1.333v0l0.033-14.583v-0.040s0.033-2.24-1.227-3.54c-0.62-0.637-1.463-0.95-2.573-0.96h-0.037c-3.83 0-6.3 5.117-6.79 6.23l-0.040 12.893c0 0.736-0.597 1.333-1.333 1.333v0c-0.736 0-1.333-0.597-1.333-1.333v0l0.040-13.16-0.040-16.117c0-0.736 0.597-1.333 1.333-1.333v0c0.736 0 1.333 0.597 1.333 1.333v0l0.030 11.287c1.557-1.937 3.823-3.787 6.797-3.787h0.060c1.847 0 3.357 0.617 4.483 1.787 1.963 2.033 1.963 5.093 1.963 5.423zM30.667 30.697v-29.277c-0-0.736-0.597-1.333-1.333-1.333-0.324 0-0.621 0.116-0.852 0.308l0.002-0.002-9.333 7.697c-0.327 0.246-0.536 0.633-0.536 1.069 0 0.736 0.597 1.333 1.333 1.333 0.349 0 0.666-0.134 0.903-0.353l-0.001 0.001 7.15-5.893v26.45c0 0.736 0.597 1.333 1.333 1.333s1.333-0.597 1.333-1.333v0z"></path>
</svg>
