<?xml version="1.0" encoding="utf-8"?>
<!-- Generator: Adobe Illustrator 20.1.0, SVG Export Plug-In . SVG Version: 6.00 Build 0)  -->
<svg version="1.1" id="Layer_2" xmlns="http://www.w3.org/2000/svg" xmlns:xlink="http://www.w3.org/1999/xlink" x="0px" y="0px"
	 viewBox="0 0 72 72" style="enable-background:new 0 0 72 72;" xml:space="preserve">
<g>
	<path d="M43.7,68.3H31.3c-0.3,0-0.5-0.1-0.7-0.3c-0.2-0.2-0.3-0.4-0.3-0.7c0-0.2,0.3-24.2,0-27.6c0-0.3,0-0.6-0.1-1
		c-0.2-3.6-0.4-8.1-7.5-7.9c-8,0.2-8.1,8.8-8.1,9.2v27.2c0,0.6-0.4,1-1,1H1c-0.6,0-1-0.4-1-1V4.7c0-0.6,0.4-1,1-1h12.7
		c0.6,0,1,0.4,1,1v20.1c1-1.3,2.4-2.7,3.9-4c1.8-1.4,8.4-5.5,18-1c6.7,3.1,7.8,11.7,8,15.3c0,0.7,0,3.7,0,4.1v28.1
		C44.7,67.8,44.2,68.3,43.7,68.3z M32.3,66.3h10.4V39.2c0-0.9,0-3.4,0-3.9c-0.2-3.2-1.2-10.9-6.9-13.6c-8.6-4-14.4-0.4-15.9,0.8
		c-3.1,2.3-5.3,6-5.3,6c-0.2,0.4-0.7,0.6-1.1,0.4c-0.4-0.1-0.7-0.5-0.7-1V5.7H2v60.6h10.7V40.1c0-3.8,2-11.1,10-11.2
		c9-0.2,9.3,6.3,9.5,9.8c0,0.3,0,0.6,0.1,0.9C32.5,42.6,32.4,61.6,32.3,66.3z"/>
</g>
<g>
	<path d="M71,68.3H58.6c-0.5,0-1-0.4-1-1l-0.3-41.6H44c-0.6,0-1-0.4-1-1v-8.1c0-0.5,0.4-1,1-1c6.7-0.1,11.5-1.6,14-4.5
		c2.2-2.6,1.9-5.4,1.9-5.4c0-0.3,0-0.6,0.2-0.8c0.2-0.2,0.5-0.3,0.8-0.3H71c0.6,0,1,0.4,1,1v61.8C72,67.8,71.6,68.3,71,68.3z
		 M59.6,66.3H70V6.5h-8.1c-0.1,1.3-0.5,3.7-2.4,5.9c-2.8,3.2-7.7,5-14.5,5.2v6.1h13.3c0.5,0,1,0.4,1,1L59.6,66.3z"/>
</g>
</svg>
