<svg xmlns="http://www.w3.org/2000/svg" width="32" height="32"><path d="M31 29.333H18.333a1 1 0 0 1-.824-1.567l-.002.003L28.84 11.202a4.037 4.037 0 0 0 .755-2.361 4.056 4.056 0 0 0-1.364-3.039l-.004-.004c-.877-.75-2.077-1.133-3.56-1.133-5.147 0-5.333 4.64-5.333 5.17a1 1 0 0 1-2 0c0-.073.083-7.17 7.333-7.17 1.977 0 3.61.543 4.863 1.617a6.052 6.052 0 0 1 2.073 4.564 6.032 6.032 0 0 1-1.116 3.505l.013-.019-10.27 15H31a1 1 0 0 1 0 2zm-23.667-16c-2.58 0-4.25.703-5.333 1.607V3.667a1 1 0 0 0-2 0v24.667a1 1 0 0 0 2 0v-9.403c0-.367.217-3.597 5.333-3.597s5.333 3.3 5.333 3.667v9.333a1 1 0 0 0 2 0v-9.333c0-.057-.083-5.667-7.333-5.667z"/></svg>