<svg xmlns="http://www.w3.org/2000/svg" width="32" height="32"><path d="M24.26 29.333c-4 0-5.917-2-6.81-3.667a1 1 0 0 1 1.765-.946l.003.005c.923 1.727 2.62 2.607 5.043 2.607a8.115 8.115 0 0 0 3.051-.724l-.051.021c1.84-.863 2.733-2.333 2.733-4.463s-.893-3.6-2.733-4.463A7.979 7.979 0 0 0 24.277 17l-.016-.001a1 1 0 0 1 0-2c5.537 0 5.74-4.64 5.74-5.17s-.203-5.163-5.74-5.163c-2.37 0-4.047.84-5 2.5a1 1 0 0 1-1.738-.989l-.003.005c.92-1.603 2.813-3.517 6.74-3.517 7.65 0 7.74 7.097 7.74 7.167s-.053 4.267-3.56 6.207c1.913 1.017 3.56 2.893 3.56 6.127 0 3.717-2.15 5.48-3.953 6.307a9.901 9.901 0 0 1-3.772.86h-.015zm-16.927-16c-2.58 0-4.25.703-5.333 1.607V3.667a1 1 0 0 0-2 0v24.667a1 1 0 0 0 2 0v-9.403c0-.367.217-3.597 5.333-3.597s5.333 3.3 5.333 3.667v9.333a1 1 0 0 0 2 0v-9.333c0-.057-.083-5.667-7.333-5.667z"/></svg>