<svg xmlns="http://www.w3.org/2000/svg" viewBox="0 0 96 96"><path d="M72.85 88c-12 0-17.72-6.16-20.4-11.33a4 4 0 0 1 7.1-3.67c2.45 4.72 6.8 7 13.3 7C74.38 80 88 79.49 88 66c0-13.84-14.53-14-15.15-14a4 4 0 0 1 0-8C87.57 44 88 31.43 88 30s-.58-14-15.15-14c-6.36 0-10.66 2.19-13.14 6.71a4 4 0 0 1-7-3.86C55.42 13.9 61.13 8 72.85 8 91.16 8 96 22.39 96 30c0 5.12-2.19 13.3-9.19 18.11C92.76 52 96 58.21 96 66c0 8.89-4.22 15.77-11.88 19.37A29.28 29.28 0 0 1 72.85 88zM22 39.5c-6.3 0-10.79 1.44-14 3.48V12a4 4 0 0 0-8 0v72a4 4 0 0 0 8 0V56.81c.05-1.58.94-9.31 14-9.31s14 8 14 9.5v27a4 4 0 0 0 8 0V57c0-.17-.25-17.5-22-17.5z" fill="#333"/></svg>