<svg version="1.1" xmlns="http://www.w3.org/2000/svg" width="32" height="32" viewBox="0 0 32 32">
<title>h3</title>
<path fill="#333" d="M24.283 29.333c-4 0-5.907-2.053-6.8-3.777-0.078-0.164-0.123-0.357-0.123-0.56 0-0.736 0.597-1.333 1.333-1.333 0.492 0 0.922 0.267 1.153 0.664l0.003 0.006c0.817 1.573 2.267 2.333 4.433 2.333 0.51 0 5.050-0.17 5.050-4.667 0-4.613-4.843-4.667-5.050-4.667-0.736 0-1.333-0.597-1.333-1.333s0.597-1.333 1.333-1.333v0c4.907 0 5.050-4.19 5.050-4.667s-0.193-4.667-5.050-4.667c-2.12 0-3.553 0.73-4.38 2.237-0.238 0.388-0.66 0.644-1.141 0.644-0.736 0-1.333-0.597-1.333-1.333 0-0.218 0.052-0.423 0.145-0.605l-0.003 0.008c0.903-1.65 2.807-3.617 6.713-3.617 6.103 0 7.717 4.797 7.717 7.333 0 1.707-0.73 4.433-3.063 6.037 1.983 1.297 3.063 3.367 3.063 5.963 0 2.963-1.407 5.257-3.96 6.457-1.101 0.515-2.387 0.834-3.742 0.876l-0.015 0zM7.333 13.167c-2.1 0-3.597 0.48-4.667 1.16v-10.327c0-0.736-0.597-1.333-1.333-1.333s-1.333 0.597-1.333 1.333v0 24c0 0.736 0.597 1.333 1.333 1.333s1.333-0.597 1.333-1.333v0-9.063c0.017-0.527 0.313-3.103 4.667-3.103s4.667 2.667 4.667 3.167v9c0 0.736 0.597 1.333 1.333 1.333s1.333-0.597 1.333-1.333v0-9c0-0.057-0.083-5.833-7.333-5.833z"></path>
</svg>
