<svg version="1.1" xmlns="http://www.w3.org/2000/svg" width="32" height="32" viewBox="0 0 32 32">
<title>h4</title>
<path fill="#333" d="M32 4v24c0 0.736-0.597 1.333-1.333 1.333s-1.333-0.597-1.333-1.333v0-10.667h-10.667c-0.001 0-0.002 0-0.002 0-0.736 0-1.333-0.597-1.333-1.333 0-0.118 0.015-0.233 0.044-0.343l-0.002 0.009 3-12c0.153-0.581 0.674-1.002 1.293-1.002 0.738 0 1.336 0.598 1.336 1.336 0 0.118-0.015 0.233-0.044 0.343l0.002-0.009-2.587 10.333h8.96v-10.667c0-0.736 0.597-1.333 1.333-1.333s1.333 0.597 1.333 1.333v0zM7.333 13.167c-2.1 0-3.597 0.48-4.667 1.16v-10.327c0-0.736-0.597-1.333-1.333-1.333s-1.333 0.597-1.333 1.333v0 24c0 0.736 0.597 1.333 1.333 1.333s1.333-0.597 1.333-1.333v0-9.063c0.017-0.527 0.313-3.103 4.667-3.103s4.667 2.667 4.667 3.167v9c0 0.736 0.597 1.333 1.333 1.333s1.333-0.597 1.333-1.333v0-9c0-0.057-0.083-5.833-7.333-5.833z"></path>
</svg>
