<svg xmlns="http://www.w3.org/2000/svg" width="32" height="32"><path d="M24.357 29.333a8.062 8.062 0 0 1-6.85-3.858l-.02-.035a1 1 0 0 1 1.691-1.067l.003.004c1.077 1.785 3.006 2.96 5.209 2.96l.198-.003h-.01c.247 0 5.423-.453 5.423-6.97 0-6.333-4.793-6.58-5.333-6.587-4.03 0-5.393 2.403-5.447 2.507a1.001 1.001 0 0 1-1.137.492l.007.002a1.003 1.003 0 0 1-.757-.97V3.668a1 1 0 0 1 1-1h9.5a1 1 0 0 1 0 2h-8.5v8.667c1.14-.813 2.86-1.56 5.333-1.56.073 0 7.333.1 7.333 8.587 0 8.12-6.687 8.907-7.237 8.973h-.407zm-17.024-16c-2.58 0-4.25.703-5.333 1.607V3.667a1 1 0 0 0-2 0v24.667a1 1 0 0 0 2 0v-9.403c0-.367.217-3.597 5.333-3.597s5.333 3.3 5.333 3.667v9.333a1 1 0 0 0 2 0v-9.333c0-.057-.083-5.667-7.333-5.667z"/></svg>