<svg xmlns="http://www.w3.org/2000/svg" viewBox="0 0 96 96"><path d="M73.16 88a24 24 0 0 1-20.58-11.91 4 4 0 0 1 6.84-4.17A15.93 15.93 0 0 0 73.64 80h.11C75.19 79.87 88 78.37 88 60.72c0-17.43-12.59-18.12-14-18.15-10.72 0-14.37 6.61-14.4 6.67a4 4 0 0 1-7.6-1.81V12a4 4 0 0 1 4-4h27a4 4 0 0 1 0 8H60v22.13a27 27 0 0 1 14-3.56c.22 0 22 .3 22 26.15 0 24.49-19.71 27-21.61 27.23-.09.05-.53.05-1.23.05zM22 39.5c-6.3 0-10.79 1.44-14 3.48V12a4 4 0 0 0-8 0v72a4 4 0 0 0 8 0V56.81c.05-1.58.94-9.31 14-9.31s14 8 14 9.5v27a4 4 0 0 0 8 0V57c0-.17-.25-17.5-22-17.5z" fill="#333"/></svg>