<svg version="1.1" xmlns="http://www.w3.org/2000/svg" width="32" height="32" viewBox="0 0 32 32">
<title>h5</title>
<path fill="#333" d="M24.387 29.333c-2.914-0.019-5.456-1.593-6.84-3.933l-0.020-0.037c-0.123-0.198-0.195-0.438-0.195-0.695 0-0.737 0.598-1.335 1.335-1.335 0.48 0 0.901 0.254 1.137 0.634l0.003 0.006c0.93 1.621 2.65 2.695 4.621 2.695 0.042 0 0.083-0 0.125-0.001l-0.006 0h0.037c0.48-0.043 4.75-0.543 4.75-6.427 0-5.81-4.197-6.040-4.667-6.050-3.573 0-4.79 2.203-4.8 2.223-0.221 0.449-0.675 0.753-1.2 0.753-0.736 0-1.333-0.597-1.333-1.333 0-0.008 0-0.016 0-0.024l-0 0.001v-11.81c0-0.736 0.597-1.333 1.333-1.333v0h9c0.736 0 1.333 0.597 1.333 1.333s-0.597 1.333-1.333 1.333v0h-7.667v7.377c1.284-0.748 2.826-1.189 4.471-1.189 0.069 0 0.138 0.001 0.206 0.002l-0.010-0c0.073 0 7.333 0.1 7.333 8.717 0 8.163-6.57 9-7.203 9.077-0.030 0.017-0.177 0.017-0.41 0.017zM7.333 13.167c-2.1 0-3.597 0.48-4.667 1.16v-10.327c0-0.736-0.597-1.333-1.333-1.333s-1.333 0.597-1.333 1.333v0 24c0 0.736 0.597 1.333 1.333 1.333s1.333-0.597 1.333-1.333v0-9.063c0.017-0.527 0.313-3.103 4.667-3.103s4.667 2.667 4.667 3.167v9c0 0.736 0.597 1.333 1.333 1.333s1.333-0.597 1.333-1.333v0-9c0-0.057-0.083-5.833-7.333-5.833z"></path>
</svg>
