<svg xmlns="http://www.w3.org/2000/svg" width="32" height="32"><path d="M29.757 15.423c-2-1.83-4.63-1.76-5.11-1.73s-3.147 0-5.147 1.907c-.057.057-.11.12-.167.18v-2.817c0-3.067.817-5.333 2.423-6.697 2.397-2.05 5.857-1.547 5.92-1.537a1 1 0 0 0 .34-1.973l-.006-.001c-.177-.03-4.403-.667-7.52 1.977-2.1 1.773-3.157 4.543-3.157 8.23v9.217c.001.12.023.234.062.34l-.002-.007c.22 2.217 1.123 3.98 2.697 5.24 1.246.989 2.842 1.587 4.577 1.587s3.331-.598 4.592-1.599l-.015.012c1.803-1.443 2.757-3.627 2.757-6.333 0-2.613-.757-4.637-2.243-5.997zM28 26.19c-.911.711-2.072 1.14-3.333 1.14s-2.422-.429-3.345-1.149l.012.009c-1.193-.953-1.863-2.333-2-4.127 0-.2-.02-.413-.02-.627 0-1.93.517-3.4 1.53-4.373 1.363-1.303 3.28-1.373 3.667-1.373h.217c.023 0 2.153-.157 3.667 1.21 1.07.963 1.607 2.49 1.607 4.537s-.667 3.69-2 4.753zM14.667 19v9.333a1 1 0 0 1-2 0V19c0-.367-.213-3.667-5.333-3.667s-5.333 3.23-5.333 3.597v9.403a1 1 0 0 1-2 0V3.666a1 1 0 0 1 2 0v11.273c1.083-.903 2.753-1.607 5.333-1.607 7.25 0 7.333 5.61 7.333 5.667z"/></svg>