<svg xmlns="http://www.w3.org/2000/svg" viewBox="0 0 96 96"><path d="M89.08 45.36c-5.91-5.36-13.54-5.27-15.16-5.19A23.13 23.13 0 0 0 60 44.76v-5.64c0-8.74 2.25-15.09 6.68-18.88 6.39-5.46 15.59-4.09 15.68-4.07a4 4 0 0 0 1.3-7.89c-.52-.09-12.85-2-22.1 5.81-6.34 5.38-9.56 13.8-9.56 25V66a4 4 0 0 0 .19 1.15c.67 6.63 3.42 12.12 8 15.91a21.76 21.76 0 0 0 27.54 0C91.52 80 96 74.17 96 63.86c0-8.1-2.33-14.32-6.92-18.5zm-6.39 31.55a13.92 13.92 0 0 1-17.38 0c-3.16-2.59-4.92-6.39-5.25-11.29 0-.57-.06-1.16-.06-1.76 0-5.41 1.39-9.49 4.13-12.11 3.56-3.42 8.57-3.58 9.5-3.58h.15a5.42 5.42 0 0 0 .57 0c.05 0 5.55-.4 9.4 3.16 2.82 2.6 4.25 6.81 4.25 12.53S86.21 74 82.69 76.91zM44 57v27a4 4 0 0 1-8 0V57c0-1.55-.91-9.5-14-9.5S8 55.25 8 56.81V84a4 4 0 0 1-8 0V12a4 4 0 0 1 8 0v31c3.21-2 7.7-3.48 14-3.48C43.75 39.49 44 56.81 44 57z" fill="#333"/></svg>