<svg version="1.1" xmlns="http://www.w3.org/2000/svg" width="32" height="32" viewBox="0 0 32 32">
<title>h6</title>
<path fill="#333" d="M29.693 15.12c-1.97-1.787-4.513-1.757-5.053-1.73-0.009-0-0.019-0-0.030-0-1.737 0-3.341 0.575-4.63 1.544l0.020-0.014v-1.88c0-2.913 0.75-5.030 2.227-6.293 2.13-1.82 5.197-1.363 5.227-1.357 0.053 0.008 0.115 0.012 0.177 0.012 0.736 0 1.333-0.597 1.333-1.333 0-0.646-0.459-1.184-1.069-1.307l-0.009-0.001c-0.173-0.030-4.283-0.667-7.367 1.937-2.113 1.793-3.187 4.6-3.187 8.333v8.97c0.003 0.138 0.025 0.269 0.066 0.393l-0.003-0.009c0.223 2.21 1.14 4.040 2.667 5.303 1.24 1.019 2.843 1.637 4.59 1.637s3.35-0.618 4.603-1.647l-0.013 0.010c1.263-1.020 2.757-2.963 2.757-6.4 0-2.7-0.777-4.773-2.307-6.167zM27.563 25.637c-0.786 0.633-1.797 1.015-2.897 1.015s-2.11-0.383-2.906-1.022l0.009 0.007c-1.053-0.863-1.64-2.13-1.75-3.763 0-0.19-0.020-0.387-0.020-0.587 0-1.803 0.463-3.163 1.377-4.037 1.187-1.14 2.857-1.193 3.167-1.193h0.050c0.028 0.002 0.062 0.003 0.095 0.003s0.067-0.001 0.1-0.003l-0.005 0c0.017 0 1.85-0.133 3.133 1.053 0.94 0.867 1.417 2.27 1.417 4.177s-0.597 3.38-1.77 4.35zM14.667 19v9c0 0.736-0.597 1.333-1.333 1.333s-1.333-0.597-1.333-1.333v0-9c0-0.517-0.303-3.167-4.667-3.167s-4.667 2.583-4.667 3.103v9.063c0 0.736-0.597 1.333-1.333 1.333s-1.333-0.597-1.333-1.333v0-24c0-0.736 0.597-1.333 1.333-1.333s1.333 0.597 1.333 1.333v0 10.333c1.070-0.667 2.567-1.16 4.667-1.16 7.25-0.010 7.333 5.763 7.333 5.827z"></path>
</svg>
