<svg xmlns="http://www.w3.org/2000/svg" width="32" height="32"><path d="M16.06 26a13.693 13.693 0 0 1-3.395-.445l.095.021a1 1 0 0 1 .487-1.939l-.007-.001a11.27 11.27 0 0 0 2.875.364l.132-.001h-.007l.017-.001.017.001h-.001c3.333.047 8.63-1.783 13.437-7.117.19-.212.306-.493.306-.802s-.116-.59-.307-.803l.001.001a26.277 26.277 0 0 0-3.765-3.428l-.069-.049a1 1 0 1 1 1.192-1.605l-.002-.002a28.562 28.562 0 0 1 4.112 3.723l.021.023c.507.565.817 1.315.817 2.138s-.31 1.574-.82 2.141l.003-.003c-3.423 3.78-9.07 7.78-14.77 7.78h-.37zM22 16.333a1 1 0 0 0-2 0A3.667 3.667 0 0 1 16.333 20a1 1 0 0 0 0 2A5.667 5.667 0 0 0 22 16.333zM1.707 31.707l30-30A1 1 0 0 0 30.293.294l.001-.001-30 30a1 1 0 0 0 0 1.414 1 1 0 0 0 1.414 0zM12 15.667A3.667 3.667 0 0 1 15.667 12a1 1 0 0 0 0-2A5.667 5.667 0 0 0 10 15.667a1 1 0 0 0 2 0zm-5.65 5.926a1 1 0 0 0-.207-1.395l-.003-.002a26.313 26.313 0 0 1-3.814-3.455l-.02-.022c-.19-.212-.306-.493-.306-.802s.116-.59.307-.803l-.001.001c4.803-5.333 10.083-7.18 13.433-7.117.005.002.011.002.017.002s.012-.001.017-.003l.125-.001c1.022 0 2.012.133 2.956.382l-.08-.018a1 1 0 0 0 .487-1.939l-.007-.001a13.303 13.303 0 0 0-3.371-.424l-.133.001h.007C10 5.907 4.264 9.954.817 13.777.31 14.342 0 15.092 0 15.915s.31 1.574.82 2.141l-.003-.003a28.552 28.552 0 0 0 4.059 3.694l.074.053a.998.998 0 0 0 1.398-.208l.002-.003z"/></svg>