<svg version="1.1" xmlns="http://www.w3.org/2000/svg" width="32" height="32" viewBox="0 0 32 32">
<title>hide</title>
<path fill="#333" d="M18.333 2.667h-4.667c-0.736 0-1.333-0.597-1.333-1.333s0.597-1.333 1.333-1.333v0h4.667c0.736 0 1.333 0.597 1.333 1.333s-0.597 1.333-1.333 1.333v0zM2.667 7.667v-4.75c0-0.153 0.097-0.25 0.167-0.25h4.5c0.736 0 1.333-0.597 1.333-1.333s-0.597-1.333-1.333-1.333v0h-4.5c-1.57 0.026-2.834 1.305-2.834 2.88 0 0.013 0 0.026 0 0.039l-0-0.002v4.75c0 0.736 0.597 1.333 1.333 1.333s1.333-0.597 1.333-1.333v0zM2.667 18.333v-4.667c0-0.736-0.597-1.333-1.333-1.333s-1.333 0.597-1.333 1.333v0 4.667c0 0.736 0.597 1.333 1.333 1.333s1.333-0.597 1.333-1.333v0zM8.667 30.667c0-0.736-0.597-1.333-1.333-1.333v0h-4.5c-0.092 0-0.167-0.075-0.167-0.167v0-4.5c0-0.736-0.597-1.333-1.333-1.333s-1.333 0.597-1.333 1.333v0 4.5c0.002 1.564 1.269 2.831 2.833 2.833h4.5c0.736 0 1.333-0.597 1.333-1.333v0zM19.667 30.667c0-0.736-0.597-1.333-1.333-1.333v0h-4.667c-0.736 0-1.333 0.597-1.333 1.333s0.597 1.333 1.333 1.333v0h4.667c0.736 0 1.333-0.597 1.333-1.333v0zM32 29.167v-4.5c0-0.736-0.597-1.333-1.333-1.333s-1.333 0.597-1.333 1.333v0 4.5c0 0.092-0.075 0.167-0.167 0.167v0h-4.5c-0.736 0-1.333 0.597-1.333 1.333s0.597 1.333 1.333 1.333v0h4.5c1.564-0.002 2.831-1.269 2.833-2.833v-0zM32 18.333v-4.667c0-0.736-0.597-1.333-1.333-1.333s-1.333 0.597-1.333 1.333v0 4.667c0 0.736 0.597 1.333 1.333 1.333s1.333-0.597 1.333-1.333v0zM32 7.333v-4.5c-0.002-1.564-1.269-2.831-2.833-2.833h-4.5c-0.736 0-1.333 0.597-1.333 1.333s0.597 1.333 1.333 1.333v0h4.5c0.092 0 0.167 0.075 0.167 0.167v0 4.5c0 0.736 0.597 1.333 1.333 1.333s1.333-0.597 1.333-1.333v0zM27 16c0 0.012 0.001 0.026 0.001 0.041 0 0.284-0.089 0.547-0.24 0.764l0.003-0.004c-3.333 4.787-6.92 7.2-10.687 7.2-0.003 0-0.006 0-0.009 0-0.586 0-1.159-0.056-1.715-0.162l0.057 0.009c-0.625-0.119-1.091-0.661-1.091-1.312 0-0.737 0.597-1.334 1.334-1.334 0.086 0 0.17 0.008 0.252 0.024l-0.008-0.001c3.077 0.573 6.153-1.19 9.153-5.223-0.433-0.583-0.87-1.12-1.303-1.607-0.21-0.235-0.339-0.548-0.339-0.89 0-0.739 0.599-1.339 1.339-1.339 0.397 0 0.754 0.173 0.999 0.447l0.001 0.001c0.687 0.773 1.352 1.616 1.967 2.497l0.059 0.089c0.143 0.209 0.228 0.467 0.228 0.745 0 0.019-0 0.038-0.001 0.057l0-0.003zM17.47 8.117c-7.183-1.183-12.073 6.817-12.28 7.16-0.115 0.19-0.183 0.419-0.183 0.664 0 0.001 0 0.002 0 0.003v-0c-0.003 0.017-0.006 0.036-0.007 0.056l-0 0.001c-0.001 0.008-0.001 0.018-0.001 0.028s0 0.020 0.001 0.030l-0-0.001c0 0.002 0 0.004 0 0.006 0 0.244 0.068 0.472 0.187 0.667l-0.003-0.006c0.682 1.071 1.407 2.003 2.21 2.861l-0.010-0.011c0.24 0.232 0.566 0.374 0.926 0.374 0.736 0 1.333-0.597 1.333-1.333 0-0.326-0.117-0.625-0.311-0.856l0.002 0.002c-0.487-0.53-0.953-1.104-1.383-1.706l-0.037-0.054c1.2-1.667 4.753-5.97 9.127-5.25 0.065 0.011 0.139 0.017 0.215 0.017 0.737 0 1.334-0.597 1.334-1.334 0-0.661-0.481-1.21-1.111-1.316l-0.008-0.001zM24.277 7.723c-0.241-0.242-0.575-0.391-0.943-0.391s-0.702 0.149-0.943 0.391l-5.433 5.437c-0.285-0.101-0.614-0.16-0.957-0.16h-0c-1.657 0-3 1.343-3 3v0c0 0.343 0.059 0.672 0.166 0.977l-0.006-0.021-5.437 5.433c-0.241 0.241-0.391 0.575-0.391 0.943 0 0.737 0.597 1.334 1.334 1.334 0.368 0 0.702-0.149 0.943-0.391v0l5.433-5.437c0.285 0.101 0.614 0.16 0.957 0.16h0c1.657 0 3-1.343 3-3v0c-0-0.343-0.059-0.672-0.166-0.977l0.006 0.021 5.437-5.433c0.242-0.241 0.391-0.575 0.391-0.943s-0.149-0.702-0.391-0.943v0z"></path>
</svg>
