<svg version="1.1" xmlns="http://www.w3.org/2000/svg" width="32" height="32" viewBox="0 0 32 32">
    <title>+icon/+oss/relations</title>
    <g id="+icon/+oss/relations" stroke="none" stroke-width="1" fill="none" fill-rule="evenodd">
        <path d="M20.0477662,6.85705868 C20.0477662,7.27762494 19.7071989,7.61933503 19.2854898,7.61933503 L19.2854898,7.61933503 L13.1907075,7.61933503 C12.7701412,7.61933503 12.4284311,7.27876779 12.4284311,6.85705868 L12.4284311,6.85705868 L12.4284311,0.762276356 C12.4284311,0.341710091 12.7689984,0 13.1907075,0 L13.1907075,0 L19.2854898,0 C19.7060561,0 20.0477662,0.340567248 20.0477662,0.762276356 L20.0477662,0.762276356 L20.0477662,6.85705868 Z M7.85820152,25.9048248 C7.85820152,25.4842586 7.51763427,25.1425485 7.09592516,25.1425485 L7.09592516,25.1425485 L1.76227636,25.1425485 C1.34171009,25.1425485 1,25.4831157 1,25.9048248 L1,25.9048248 L1,31.2384736 C1,31.6590399 1.34056725,32.00075 1.76227636,32.00075 L1.76227636,32.00075 L7.09592516,32.00075 C7.51649143,32.00075 7.85820152,31.6601828 7.85820152,31.2384736 L7.85820152,31.2384736 L7.85820152,25.9048248 Z M19.6671994,25.9048248 C19.6671994,25.4842586 19.3266322,25.1425485 18.904923,25.1425485 L18.904923,25.1425485 L13.5712742,25.1425485 C13.150708,25.1425485 12.8089979,25.4831157 12.8089979,25.9048248 L12.8089979,25.9048248 L12.8089979,31.2384736 C12.8089979,31.6590399 13.1495651,32.00075 13.5712742,32.00075 L13.5712742,32.00075 L18.904923,32.00075 C19.3254893,32.00075 19.6671994,31.6601828 19.6671994,31.2384736 L19.6671994,31.2384736 L19.6671994,25.9048248 Z M31.4761973,25.9048248 C31.4761973,25.4842586 31.13563,25.1425485 30.7139209,25.1425485 L30.7139209,25.1425485 L25.3802721,25.1425485 C24.9597059,25.1425485 24.6179958,25.4831157 24.6179958,25.9048248 L24.6179958,25.9048248 L24.6179958,31.2384736 C24.6179958,31.6590399 24.958563,32.00075 25.3802721,32.00075 L25.3802721,32.00075 L30.7139209,32.00075 C31.1344872,32.00075 31.4761973,31.6601828 31.4761973,31.2384736 L31.4761973,31.2384736 L31.4761973,25.9048248 Z M28.4293775,14.8569605 L17.7632228,14.8569605 L17.7632228,11.4284311 C17.7632228,10.5872986 17.0809454,9.90502126 16.2398129,9.90502126 C15.3986804,9.90502126 14.716403,10.5872986 14.716403,11.4284311 L14.716403,11.4284311 L14.716403,14.8569605 L4.05024827,14.8569605 C3.20911574,14.8569605 2.5268384,15.5392378 2.5268384,16.3803703 L2.5268384,16.3803703 L2.5268384,21.3323095 C2.5268384,22.1734421 3.20911574,22.8557194 4.05024827,22.8557194 C4.8913808,22.8557194 5.57365814,22.1734421 5.57365814,21.3323095 L5.57365814,21.3323095 L5.57365814,17.9037802 L14.716403,17.9037802 L14.716403,21.3323095 C14.716403,22.1734421 15.3986804,22.8557194 16.2398129,22.8557194 C17.0809454,22.8557194 17.7632228,22.1734421 17.7632228,21.3323095 L17.7632228,21.3323095 L17.7632228,17.9037802 L26.9059677,17.9037802 L26.9059677,21.3323095 C26.9059677,22.1734421 27.588245,22.8557194 28.4293775,22.8557194 C29.2705101,22.8557194 29.9527874,22.1734421 29.9527874,21.3323095 L29.9527874,21.3323095 L29.9527874,16.3803703 C29.9527874,15.5392378 29.2705101,14.8569605 28.4293775,14.8569605 L28.4293775,14.8569605 Z" id="relations" fill="#131C26"></path>
    </g>
</svg>