<svg xmlns="http://www.w3.org/2000/svg" width="32" height="32"><path d="M28.237 25.55A14.012 14.012 0 0 1 18.001 30H18a1 1 0 0 1 0-2 12.003 12.003 0 0 0 8.767-3.807l.006-.007a11.955 11.955 0 0 0 3.221-8.181c0-6.627-5.373-12-12-12a11.958 11.958 0 0 0-8.188 3.227l.007-.006a12.037 12.037 0 0 0-3.707 7.195l-.007.062 2.193-2.19a1 1 0 0 1 1.413 1.414l.001-.001-3.84 3.84a1 1 0 0 1-1.731.005l-.003-.005-3.84-3.84a1 1 0 0 1 1.414-1.413l-.001-.001 2.36 2.373a14.038 14.038 0 0 1 4.376-8.896l.008-.007a13.837 13.837 0 0 1 10.598-3.727L19 2.032c6.94.524 12.443 6.026 12.964 12.92l.003.047a13.842 13.842 0 0 1-3.736 10.557l.007-.007zM24.667 17a1 1 0 0 0-1-1H18V8.333a1 1 0 0 0-2 0V17a1 1 0 0 0 1 1h6.667a1 1 0 0 0 1-1z"/></svg>