<svg version="1.1" xmlns="http://www.w3.org/2000/svg" width="32" height="32" viewBox="0 0 32 32">
<title>history</title>
<path fill="#333" d="M21.493 20.58c-0.241 0.242-0.575 0.391-0.943 0.391s-0.702-0.149-0.943-0.391v0l-2-2c-0.181 0.051-0.389 0.082-0.604 0.087l-0.003 0c-1.471-0.003-2.662-1.196-2.662-2.667 0-0.98 0.529-1.836 1.316-2.3l0.012-0.007v-6.283c0-0.736 0.597-1.333 1.333-1.333s1.333 0.597 1.333 1.333v0 6.283c0.802 0.469 1.332 1.326 1.333 2.307v0c-0.001 0.27-0.041 0.53-0.115 0.776l0.005-0.019 1.937 1.937c0.242 0.241 0.391 0.575 0.391 0.943s-0.149 0.702-0.391 0.943v0zM16.897 1c-5.874 0.016-10.963 3.362-13.48 8.248l-0.040 0.085-0.78-2.333c-0.152-0.581-0.673-1.002-1.292-1.002-0.736 0-1.333 0.597-1.333 1.333 0 0.181 0.036 0.354 0.102 0.511l-0.003-0.009 1.827 5.467c0.182 0.533 0.679 0.91 1.264 0.91 0.001 0 0.002 0 0.002 0h-0c0.141-0.001 0.276-0.023 0.403-0.063l-0.010 0.003 5.89-1.817c0.552-0.172 0.945-0.679 0.945-1.277 0-0.737-0.598-1.335-1.335-1.335-0.139 0-0.273 0.021-0.399 0.061l0.009-0.003-3 0.927c2.065-4.192 6.307-7.026 11.211-7.026 6.831 0 12.379 5.499 12.456 12.312l0 0.007c-0.073 6.822-5.62 12.324-12.453 12.324-5.63 0-10.387-3.735-11.928-8.863l-0.023-0.088c-0.156-0.575-0.674-0.991-1.289-0.991-0.736 0-1.333 0.597-1.333 1.333 0 0.14 0.021 0.274 0.061 0.401l-0.003-0.009c1.887 6.35 7.67 10.901 14.517 10.901 8.311 0 15.055-6.706 15.116-15.002l0-0.006c-0.040-8.293-6.771-15-15.070-15-0.012 0-0.024 0-0.035 0h0.002z"></path>
</svg>
