<svg version="1.1" xmlns="http://www.w3.org/2000/svg" width="32" height="32" viewBox="0 0 32 32">
<title>home-page</title>
<path fill="#333" d="M23.72 32h-5c-0.736 0-1.333-0.597-1.333-1.333v0-5h-2.72v5c0 0.736-0.597 1.333-1.333 1.333v0h-5c-2.070 0-3.63-1.857-3.63-4.333l-0.037-9c0-0.736 0.597-1.333 1.333-1.333v0c0.736 0 1.333 0.597 1.333 1.333v0l0.017 9c0 0.69 0.3 1.667 0.963 1.667h3.687v-5c0-0.736 0.597-1.333 1.333-1.333v0h5.373c0.736 0 1.333 0.597 1.333 1.333v0 5h3.667c0.71 0 0.96-1 0.96-1.667v-9c0-0.736 0.597-1.333 1.333-1.333v0c0.736 0 1.333 0.597 1.333 1.333v0 9c0 2.517-1.517 4.333-3.613 4.333zM29.963 16.52l0.050-0.057 1.403-1.64 0.083-0.11c0.316-0.442 0.506-0.993 0.506-1.589 0-0.854-0.39-1.617-1.001-2.121l-0.005-0.004-2.847-2.367c-0.386-0.368-0.672-0.838-0.815-1.366l-0.005-0.021v-4.523c0-1.603-0.96-2.723-2.333-2.723h-2c-1.373 0-2.333 1.12-2.333 2.723v0.457l-2.777-2.093-0.843-0.647c-0.269-0.267-0.638-0.434-1.046-0.44h-0.034c-0.316 0.007-0.604 0.123-0.829 0.312l0.002-0.002-0.333 0.257-13.733 10.397c-0.654 0.514-1.070 1.304-1.070 2.192 0 0.583 0.179 1.124 0.486 1.571l-0.006-0.009 0.090 0.117 1.427 1.637 0.047 0.050c0.48 0.502 1.155 0.813 1.903 0.813 0 0 0 0 0 0v0c0.002 0 0.004 0 0.006 0 0.741 0 1.418-0.278 1.93-0.736l-0.003 0.003 10.117-8.010 10.44 8c0.445 0.449 1.059 0.731 1.738 0.743l0.002 0c0.709-0.009 1.343-0.321 1.781-0.811l0.002-0.002zM2.683 13.090l13.317-10.090 0.277 0.213 4.92 3.707c0.221 0.169 0.501 0.27 0.805 0.27 0.22 0 0.427-0.053 0.609-0.147l-0.007 0.003c0.73-0.38 0.73-0.87 0.73-2.070v-2.31h1.333v4.58c0 1.217 0.96 2.797 1.833 3.477l2.803 2.333h0.023c0.006 0.016 0.010 0.035 0.010 0.055s-0.004 0.039-0.010 0.056l0-0.001-1.173 1.37-11.333-8.697c-0.224-0.176-0.509-0.282-0.82-0.282s-0.596 0.106-0.823 0.284l0.003-0.002-11 8.7c-0.034 0.026-0.065 0.053-0.094 0.080l0-0c-0.040 0.020-0.103 0.037-0.117 0.043l-1.303-1.487c-0.002-0.008-0.003-0.017-0.003-0.026 0-0.023 0.007-0.044 0.020-0.061l-0 0z"></path>
</svg>
