<svg xmlns="http://www.w3.org/2000/svg" width="32" height="32"><path d="M27 32h-8a1 1 0 0 1-1-1v-9.213c0-.707-.457-1.303-1-1.303h-2c-.543 0-1 .597-1 1.303V31a1 1 0 0 1-1 1H5a1 1 0 0 1-1-1V18.333a1 1 0 0 1 2 0V30h6v-8.213c0-1.82 1.333-3.303 3-3.303h2c1.667 0 3 1.483 3 3.303V30h6V18.333a1 1 0 0 1 2 0V31a1 1 0 0 1-1 1zm4.667-14.933a.996.996 0 0 0 .066-1.401l.001.001L18.151.957C17.619.368 16.853 0 16.001 0s-1.618.368-2.148.955l-.002.003L.268 15.668a1 1 0 1 0 1.465 1.336l.002-.003 13.6-14.687a.914.914 0 0 1 1.359-.001l.001.001 13.573 14.687a.996.996 0 0 0 1.401.066l-.001.001z"/></svg>