<?xml version="1.0" encoding="utf-8"?>
<!-- Generator: Adobe Illustrator 20.1.0, SVG Export Plug-In . SVG Version: 6.00 Build 0)  -->
<svg version="1.1" id="Layer_2" xmlns="http://www.w3.org/2000/svg" xmlns:xlink="http://www.w3.org/1999/xlink" x="0px" y="0px"
	 viewBox="0 0 72 72" style="enable-background:new 0 0 72 72;" xml:space="preserve">
<g>
	<g>
		<path d="M52.6,69.6H42.4c-0.6,0-1-0.4-1-1V53.1H30.6v15.5c0,0.6-0.4,1-1,1H19.4c-4,0-7.3-3.3-7.3-7.3V35.1c0-0.6,0.4-1,1-1
			s1,0.4,1,1v27.2c0,2.9,2.4,5.3,5.3,5.3h9.2V52.1c0-0.6,0.4-1,1-1h12.7c0.6,0,1,0.4,1,1v15.5h9.2c2.9,0,5.3-2.4,5.3-5.3V35.1
			c0-0.6,0.4-1,1-1s1,0.4,1,1v27.2C59.9,66.3,56.6,69.6,52.6,69.6z"/>
	</g>
	<g>
		<path d="M66.7,36c-0.1,0-0.3,0-0.4,0c-0.2,0-0.3-0.1-0.5-0.2L36,14.3L6.2,35.8C6.1,35.9,5.9,36,5.7,36c-1.5,0.2-2.9-0.5-3.8-1.7
			l-1.2-1.6c-0.6-0.9-0.9-2-0.7-3.1c0.2-1.1,0.8-2.1,1.7-2.7L32.8,4.5c1.3-0.9,2.3-1.7,2.5-1.8c0,0,0,0,0.1-0.1
			c0.3-0.2,0.9-0.3,1.2,0c0,0,0.1,0.1,0.1,0.1l0,0c0.1,0.1,0.8,0.6,1.7,1.2l9.1,6.6c0.4,0.3,0.7,0.3,0.8,0.3c0.1,0,0.2-0.3,0.2-0.8
			V6.7c0-2.3,1.9-4.1,4.1-4.1h3c2.3,0,4.1,1.9,4.1,4.1v10c0,1.4,1,3.3,2.1,4.2l0,0c0,0,0,0,0,0c0,0,0,0,0,0l8.4,6.1c0,0,0,0,0,0
			c1.8,1.3,2.3,3.9,0.9,5.8L70,34.4C69.3,35.4,68.1,36,66.7,36z M36.6,12.3L66.7,34c0.7,0,1.3-0.3,1.7-0.8l1.2-1.6
			c0.7-1,0.5-2.3-0.5-3l-8.6-6.2c0,0-0.1-0.1-0.1-0.1c-1.5-1.3-2.7-3.7-2.7-5.6v-10c0-1.2-1-2.1-2.1-2.1h-3c-1.2,0-2.1,1-2.1,2.1V10
			c0,1.2-0.5,2.1-1.3,2.6c-0.8,0.4-1.8,0.3-2.8-0.4l0,0l-0.1-0.1l-9.1-6.6c-0.5-0.4-0.9-0.7-1.2-0.9c-0.4,0.3-1,0.8-2,1.5L2.9,28.5
			c-0.5,0.3-0.8,0.8-0.9,1.4c-0.1,0.6,0,1.1,0.4,1.6l1.2,1.6C4,33.7,4.6,34,5.3,34l30.1-21.7C35.7,12,36.3,12.1,36.6,12.3L36.6,12.3
			z M36,13.1L36,13.1L36,13.1z"/>
	</g>
</g>
</svg>
