<?xml version="1.0" encoding="utf-8"?>
<!-- Generator: Adobe Illustrator 20.1.0, SVG Export Plug-In . SVG Version: 6.00 Build 0)  -->
<svg version="1.1" id="Layer_3" xmlns="http://www.w3.org/2000/svg" xmlns:xlink="http://www.w3.org/1999/xlink" x="0px" y="0px"
	 viewBox="0 0 72 72" style="enable-background:new 0 0 72 72;" xml:space="preserve">
<path d="M61.4,39H37v-6h12c1.1,0,2-0.9,2-2V15c0-1.1-0.9-2-2-2H37v-2c0-0.6-0.4-1-1-1s-1,0.4-1,1v2H23c-1.1,0-2,0.9-2,2v16
	c0,1.1,0.9,2,2,2h12v6H10.6c-1.7,0-3,1.3-3,3v14c0,1.7,1.3,3,3,3H35v2c0,0.6,0.4,1,1,1s1-0.4,1-1v-2h24.4c1.7,0,3-1.3,3-3V42
	C64.4,40.3,63.1,39,61.4,39z M62.4,56c0,0.6-0.4,1-1,1H10.6c-0.6,0-1-0.4-1-1V42c0-0.6,0.4-1,1-1h50.8c0.6,0,1,0.4,1,1V56z"/>
</svg>
