<svg xmlns="http://www.w3.org/2000/svg" width="32" height="32"><path d="M31 32H1a1 1 0 0 1-1-1V1a1 1 0 0 1 1-1h30a1 1 0 0 1 1 1v30a1 1 0 0 1-1 1zM2 30h28V2H2zm25.793-7.203a1 1 0 0 1-1.403.185l.002.002a4.967 4.967 0 0 0-2.972-.979 4.986 4.986 0 0 0-2.741.817l.019-.012c.177.28.333.563.503.86.251.46.5 1.01.708 1.578l.028.088a1 1 0 0 1-1.879.674l-.002-.007a10.694 10.694 0 0 0-.649-1.455l.029.058c-1.255-2.395-3.403-4.178-5.991-4.923l-.069-.017a8.89 8.89 0 0 0-2.402-.323 9.057 9.057 0 0 0-4.829 1.385l.038-.022a1 1 0 0 1-1.045-1.704l.005-.003a10.962 10.962 0 0 1 5.829-1.659c1.044 0 2.054.145 3.012.415l-.078-.019a11.586 11.586 0 0 1 5.573 3.462l.01.012a6.97 6.97 0 0 1 3.925-1.198c1.578 0 3.034.52 4.207 1.398l-.018-.013a1 1 0 0 1 .185 1.403l.002-.002zM27 10a5 5 0 1 0-5 5 5 5 0 0 0 5-5zm-2 0a3 3 0 1 1-3-3 3 3 0 0 1 3 3z"/></svg>