<svg xmlns="http://www.w3.org/2000/svg" width="32" height="32"><path d="M29 32H3a3.02 3.02 0 0 1-3-3.02v-.011.001V9.697v-.01a3.02 3.02 0 0 1 2.999-3.02H15a1 1 0 0 1 0 2H3a1 1 0 0 0-.999 1.032v-.002V29a1 1 0 0 0 1 1h26a1 1 0 0 0 1-1v-.032.002-16.23a1 1 0 0 1 2 0V28.98A3.02 3.02 0 0 1 29.002 32h-.001zm-5.9-11.23a1.002 1.002 0 0 0-1.968.259c0 .092.012.181.036.265l-.002-.007c.106.378.166.812.167 1.26v.05a4.737 4.737 0 0 1-4.663 4.736h-.004a4.635 4.635 0 0 1-4.141-2.573l-.012-.027c-.9-1.797-.607-3.91.807-5.8a1 1 0 0 0-1.601-1.202l-.002.003a8.42 8.42 0 0 0-1.592 3.547l-.008.053H8.2a.163.163 0 0 1-.106-.06.408.408 0 0 1-.094-.261V21v.001-6.667c0-.2.12-.333.2-.333h3.467a1 1 0 0 0 0-2H8.2A2.274 2.274 0 0 0 6 14.337v-.003V21.016c0 .614.231 1.174.612 1.597l-.002-.002c.391.439.956.717 1.585.723h1.851c.091.852.327 1.629.684 2.335l-.018-.038c1.105 2.211 3.352 3.703 5.947 3.703h.007a6.737 6.737 0 0 0 6.667-6.736v-.057.003a6.925 6.925 0 0 0-.245-1.822l.011.049zm-5.767-.827l4.793-1.713c.19-.066.348-.182.465-.331l.002-.002 8.64-11.667A3.907 3.907 0 0 0 32 3.896a3.932 3.932 0 0 0-1.472-3.07L30.52.82l-.033-.027A3.697 3.697 0 0 0 28.189 0c-.184 0-.365.013-.543.039l.02-.002a3.776 3.776 0 0 0-2.523 1.5l-.007.01-8.637 11.667a.994.994 0 0 0-.197.534v.003l-.303 5.193a.998.998 0 0 0 .397.854l.003.002c.165.125.374.2.6.2.12-.001.234-.022.341-.059l-.008.002zm9.414-17.206a1.79 1.79 0 0 1 1.187-.719l.01-.001a1.72 1.72 0 0 1 1.301.337l-.004-.003.033.027a1.925 1.925 0 0 1 .35 2.672l.004-.005-8.457 11.403-3.083 1.103.197-3.393zm3.686 2.893z"/></svg>