<?xml version="1.0" encoding="utf-8"?>
<!-- Generator: Adobe Illustrator 20.1.0, SVG Export Plug-In . SVG Version: 6.00 Build 0)  -->
<svg version="1.1" id="Layer_2" xmlns="http://www.w3.org/2000/svg" xmlns:xlink="http://www.w3.org/1999/xlink" x="0px" y="0px"
	 viewBox="0 0 72 72" style="enable-background:new 0 0 72 72;" xml:space="preserve">
<g>
	<g>
		<path d="M67,62.7H5c-2.8,0-5-2.2-5-5V14.3c0-2.8,2.2-5,5-5h62c2.8,0,5,2.2,5,5v43.3C72,60.4,69.8,62.7,67,62.7z M5,11.3
			c-1.7,0-3,1.3-3,3v43.3c0,1.7,1.3,3,3,3h62c1.7,0,3-1.3,3-3V14.3c0-1.7-1.3-3-3-3H5z"/>
	</g>
	<g>
		<circle cx="43.9" cy="21.6" r="4.3"/>
		<path d="M43.9,27.2c-3.1,0-5.6-2.5-5.6-5.6s2.5-5.6,5.6-5.6s5.6,2.5,5.6,5.6S47,27.2,43.9,27.2z M43.9,18.7c-1.6,0-3,1.3-3,3
			c0,1.6,1.3,3,3,3s3-1.3,3-3C46.8,20,45.5,18.7,43.9,18.7z"/>
	</g>
	<g>
		<path d="M51.6,56c-0.3,0-0.7-0.1-0.9-0.4L28,33.2L8.3,52.6c-0.5,0.5-1.3,0.5-1.9,0c-0.5-0.5-0.5-1.3,0-1.9L27,30.3
			c0.5-0.5,1.3-0.5,1.8,0l23.6,23.3c0.5,0.5,0.5,1.3,0,1.9C52.3,55.9,51.9,56,51.6,56z"/>
	</g>
	<g>
		<path d="M64.3,53c-0.3,0-0.7-0.1-0.9-0.4l-10.1-10l-6.8,7c-0.5,0.5-1.3,0.5-1.9,0c-0.5-0.5-0.5-1.3,0-1.9l7.7-7.9
			c0.2-0.2,0.6-0.4,0.9-0.4c0.3,0,0.7,0.1,0.9,0.4l11.1,11c0.5,0.5,0.5,1.3,0,1.9C65,52.9,64.7,53,64.3,53z"/>
	</g>
</g>
</svg>
