<svg version="1.1" xmlns="http://www.w3.org/2000/svg" width="32" height="32" viewBox="0 0 32 32">
<title>image</title>
<path fill="#333" d="M29.333 28.333h-26.667c-1.473 0-2.667-1.194-2.667-2.667v0-19.333c0-1.473 1.194-2.667 2.667-2.667v0h26.667c1.473 0 2.667 1.194 2.667 2.667v0 19.333c0 1.473-1.194 2.667-2.667 2.667v0zM2.667 6.333v19.333h26.667v-19.333zM27.547 21.843c-0.236 0.218-0.553 0.351-0.901 0.351-0.386 0-0.734-0.164-0.978-0.427l-0.001-0.001-3.31-3.587-1.227 1.38 1.153 1.17c0.237 0.241 0.384 0.572 0.384 0.937 0 0.737-0.597 1.334-1.334 1.334-0.372 0-0.708-0.152-0.95-0.397l-0-0-7.59-7.703-6.51 6.597c-0.242 0.245-0.578 0.397-0.95 0.397-0.737 0-1.334-0.597-1.334-1.334 0-0.365 0.147-0.696 0.384-0.937l-0 0 7.463-7.56c0.241-0.244 0.576-0.396 0.947-0.397h0c0 0 0.001 0 0.001 0 0.371 0 0.707 0.152 0.949 0.397l0 0 5.51 5.603 2.093-2.333c0.239-0.282 0.591-0.463 0.985-0.473l0.002-0c0.393 0.003 0.747 0.167 1 0.43l0 0 4.303 4.667c0.216 0.236 0.348 0.552 0.348 0.898 0 0.391-0.169 0.743-0.437 0.987l-0.001 0.001zM19.333 9.333c-1.105 0-2 0.895-2 2s0.895 2 2 2c1.105 0 2-0.895 2-2v0c0-1.105-0.895-2-2-2v0z"></path>
</svg>
