<?xml version="1.0" encoding="utf-8"?>
<!-- Generator: Adobe Illustrator 20.1.0, SVG Export Plug-In . SVG Version: 6.00 Build 0)  -->
<svg version="1.1" id="Layer_1" xmlns="http://www.w3.org/2000/svg" xmlns:xlink="http://www.w3.org/1999/xlink" x="0px" y="0px"
	 viewBox="0 0 72 72" style="enable-background:new 0 0 72 72;" xml:space="preserve">
<g>
	<path d="M30.8,15v16c0,1.1,0.9,2,2,2h26c1.1,0,2-0.9,2-2V15c0-1.1-0.9-2-2-2h-26C31.7,13,30.8,13.9,30.8,15z"/>
	<path d="M65.8,11v50c0,0.6,0.4,1,1,1s1-0.4,1-1V11c0-0.6-0.4-1-1-1S65.8,10.4,65.8,11z"/>
	<path d="M4.2,41.9v14.3c0,1.7,1.3,3,3,3h51c1.7,0,3-1.3,3-3V41.9c0-1.7-1.3-3-3-3h-51C5.7,38.9,4.2,40.2,4.2,41.9z M6.2,41.9
		c0-0.6,0.4-1,1-1h51c0.6,0,1,0.4,1,1v14.3c0,0.6-0.4,1-1,1h-51c-0.6,0-1-0.4-1-1V41.9z"/>
</g>
</svg>
