<svg version="1.1" xmlns="http://www.w3.org/2000/svg" width="32" height="32" viewBox="0 0 32 32">
<title>image-right</title>
<path fill="#333" d="M25.303 28.333h-21.333c-1.105 0-2-0.895-2-2v0-8.667c0-1.105 0.895-2 2-2v0h21.333c1.105 0 2 0.895 2 2v0 8.667c0 1.105-0.895 2-2 2v0zM4.637 25.667h20v-7.333h-20zM13.333 13h13.333c0.368 0 0.667-0.298 0.667-0.667v0-8c0-0.368-0.298-0.667-0.667-0.667v0h-13.333c-0.368 0-0.667 0.298-0.667 0.667v0 8c0 0.368 0.298 0.667 0.667 0.667v0zM32 30.667v-29.333c0-0.736-0.597-1.333-1.333-1.333s-1.333 0.597-1.333 1.333v0 29.333c0 0.736 0.597 1.333 1.333 1.333s1.333-0.597 1.333-1.333v0z"></path>
</svg>
