<?xml version="1.0" encoding="utf-8"?>
<!-- Generator: Adobe Illustrator 20.1.0, SVG Export Plug-In . SVG Version: 6.00 Build 0)  -->
<svg version="1.1" id="Layer_2" xmlns="http://www.w3.org/2000/svg" xmlns:xlink="http://www.w3.org/1999/xlink" x="0px" y="0px"
	 viewBox="0 0 72 72" style="enable-background:new 0 0 72 72;" xml:space="preserve">
<g>
	<path d="M39.2,13h-26c-1.1,0-2,0.9-2,2v16c0,1.1,0.9,2,2,2h26c1.1,0,2-0.9,2-2V15C41.2,13.9,40.3,13,39.2,13z"/>
	<path d="M5.2,10c-0.6,0-1,0.4-1,1v50c0,0.6,0.4,1,1,1s1-0.4,1-1V11C6.2,10.4,5.8,10,5.2,10z"/>
	<path d="M64.8,38.9h-51c-1.7,0-3,1.3-3,3v14.3c0,1.7,1.3,3,3,3h51c1.7,0,3-1.3,3-3V41.9C67.8,40.2,66.3,38.9,64.8,38.9z M65.8,56.2
		c0,0.6-0.4,1-1,1h-51c-0.6,0-1-0.4-1-1V41.9c0-0.6,0.4-1,1-1h51c0.6,0,1,0.4,1,1V56.2z"/>
</g>
</svg>
