<svg xmlns="http://www.w3.org/2000/svg" width="32" height="32"><path d="M26 27H6a1 1 0 0 1-1-1V6a1 1 0 0 1 1-1h20a1 1 0 0 1 1 1v20a1 1 0 0 1-1 1zM7 25h18V7H7zm16.857-4.223a1.002 1.002 0 0 1-1.378.331l.004.002a3.65 3.65 0 0 0-1.763-.447c-.485 0-.948.093-1.372.263l.025-.009c.188.284.37.612.525.955l.018.045a1 1 0 0 1-1.831.806l-.003-.006a5.737 5.737 0 0 0-3.533-3.076l-.04-.01a6.613 6.613 0 0 0-2.035-.314 6.724 6.724 0 0 0-3.06.732l.038-.018a1 1 0 0 1-.912-1.777l.005-.003a8.62 8.62 0 0 1 3.931-.935c.943 0 1.85.149 2.701.426l-.062-.017c1.12.36 2.087.914 2.91 1.629l-.01-.009a5.594 5.594 0 0 1 2.711-.691c1.025 0 1.987.272 2.817.748l-.028-.015a1 1 0 0 1 .337 1.394l.002-.004zM23.333 13a3.667 3.667 0 1 0-3.667 3.667A3.667 3.667 0 0 0 23.333 13zm-2 0a1.667 1.667 0 1 1-1.667-1.667c.92 0 1.667.746 1.667 1.667zM1 7.333a1 1 0 0 1-1-1v-3.2A3.137 3.137 0 0 1 3.133 0h3.2a1 1 0 0 1 0 2h-3.2A1.137 1.137 0 0 0 2 3.133v3.2a1 1 0 0 1-1 1zm31-1v-3.2A3.137 3.137 0 0 0 28.867 0h-3.2a1 1 0 0 0 0 2h3.2A1.137 1.137 0 0 1 30 3.133v3.2a1 1 0 0 0 2 0zM7.333 31a1 1 0 0 0-1-1h-3.2A1.137 1.137 0 0 1 2 28.867v-3.2a1 1 0 0 0-2 0v3.2A3.137 3.137 0 0 0 3.133 32h3.2a1 1 0 0 0 1-1zM32 28.867v-3.2a1 1 0 0 0-2 0v3.2A1.137 1.137 0 0 1 28.867 30h-3.2a1 1 0 0 0 0 2h3.2A3.137 3.137 0 0 0 32 28.867z"/></svg>