<svg version="1.1" xmlns="http://www.w3.org/2000/svg" width="32" height="32" viewBox="0 0 32 32">
<title>image-center</title>
<path fill="#333" d="M26.667 15.667h-9.333v-2.667h5.333c0.368 0 0.667-0.298 0.667-0.667v0-8c0-0.368-0.298-0.667-0.667-0.667v0h-5.333v-2.333c0-0.736-0.597-1.333-1.333-1.333s-1.333 0.597-1.333 1.333v0 2.333h-5.333c-0.368 0-0.667 0.298-0.667 0.667v0 8c0 0.368 0.298 0.667 0.667 0.667v0h5.333v2.667h-9.333c-1.105 0-2 0.895-2 2v0 8.667c0 1.105 0.895 2 2 2v0h9.333v2.333c0 0.736 0.597 1.333 1.333 1.333s1.333-0.597 1.333-1.333v0-2.333h9.333c1.105 0 2-0.895 2-2v0-8.667c0-1.105-0.895-2-2-2v0zM26 25.667h-20v-7.333h20z"></path>
</svg>
