<svg version="1.1" xmlns="http://www.w3.org/2000/svg" width="32" height="32" viewBox="0 0 32 32">
<title>imported-items</title>
    <path d="M31.9530001,9.74699997 L32.0000001,4.19399995 L32.0000001,4.01699995 C32.0000001,4.01499995 32.0000001,4.01199995 32.0000001,4.00899995 C32.0000001,3.68899995 31.8850001,3.39599995 31.6950001,3.16899995 L31.6970001,3.17099995 C31.0800001,2.26799994 29.4740001,1.66799994 26.58,1.20799994 C23.585,0.760999937 20.129,0.504999935 16.613,0.504999935 C16.398,0.504999935 16.182,0.505999935 15.967,0.507999935 L16,0.507999935 C15.818,0.505999935 15.603,0.504999935 15.387,0.504999935 C11.871,0.504999935 8.41499997,0.759999936 5.03599995,1.25399994 L5.41999996,1.20799994 C1.56999994,1.82099994 -6.66666677e-08,2.66799994 -6.66666677e-08,4.17499995 L-6.66666677e-08,9.70199997 C-6.66666677e-08,10.262 0.344999935,10.741 0.833999937,10.939 L0.842999937,10.942 C0.915999937,10.972 1.19599994,11.079 1.66299994,11.235 C0.505999935,11.735 -0.00400006668,12.375 -0.00400006668,13.235 L-0.00100006667,13.235 L-0.00100006667,18.958 C-0.00100006667,19.525 0.353999935,20.009 0.852999937,20.202 L0.861999937,20.205 C0.934999937,20.235 1.23899994,20.345 1.74199994,20.5049999 C0.524999936,21.002 -0.00100006667,21.645 -0.00100006667,22.508 L-0.00100006667,28.0210001 C-0.00100006667,28.0220001 -0.00100006667,28.0220001 -0.00100006667,28.0230001 C-0.00100006667,28.5940001 0.357999935,29.0820001 0.862999937,29.2710001 L0.871999937,29.2740001 C1.23899994,29.4070001 7.13199996,31.5070001 15.842,31.5070001 C15.848,31.5070001 15.854,31.5070001 15.861,31.5070001 C21.256,31.5070001 26.466,30.7130001 31.3800001,29.2350001 L30.9990001,29.3330001 C31.5540001,29.1660001 31.9510001,28.6610001 31.9560001,28.0630001 L31.9560001,28.0630001 L31.9990001,22.666 L31.9990001,22.496 C31.9990001,21.629 31.4620001,20.986 30.2290001,20.496 C30.4860001,20.423 30.7460001,20.349 31.0060001,20.269 C31.5560001,20.098 31.9500001,19.595 31.9530001,18.999 L31.9530001,18.999 L32.0000001,13.266 L32.0000001,13.153 C31.9700001,12.34 31.4530001,11.72 30.3330001,11.233 L31.0230001,11 C31.5610001,10.825 31.9450001,10.332 31.9530001,9.74799997 L31.9530001,9.74699997 Z M2.66699994,8.74699997 L2.66699994,6.54399996 C3.42199995,6.77199996 4.35199995,6.97899996 5.30299996,7.12299996 L5.41999996,7.13799996 C8.40599997,7.58499996 11.852,7.84099997 15.358,7.84099997 C15.584,7.84099997 15.809,7.83999997 16.035,7.83799997 L16.001,7.83799997 C16.192,7.83999997 16.418,7.84099997 16.643,7.84099997 C20.149,7.84099997 23.594,7.58599996 26.963,7.09199996 L26.58,7.13799996 C27.641,6.97999996 28.5640001,6.77399996 29.4630001,6.50999996 L29.3140001,6.54799996 L29.2940001,8.74799997 C16.471,12.515 5.69099996,9.70799997 2.66699994,8.74799997 L2.66699994,8.74699997 Z M16,3.17299995 C21.77,3.17299995 25.783,3.67999995 27.897,4.17299995 C25.784,4.66599995 21.77,5.17299995 16,5.17299995 C10.23,5.17299995 6.21699996,4.66599995 4.10299995,4.17299995 C6.21599996,3.66599995 10.23,3.17299995 16,3.17299995 Z M2.66699994,18 L2.66699994,15.577 C3.41899995,15.796 4.35099995,15.996 5.30299996,16.136 L5.42399996,16.151 C8.38199997,16.578 11.798,16.821 15.271,16.821 C15.527,16.821 15.783,16.82 16.039,16.817 L16,16.817 C16.217,16.819 16.473,16.821 16.729,16.821 C20.202,16.821 23.618,16.577 26.961,16.106 L26.576,16.15 C27.642,15.997 28.5670001,15.799 29.4690001,15.546 L29.3120001,15.584 L29.2920001,18.001 C16.482,21.594 5.71499996,18.918 2.66499994,18.001 L2.66699994,18 Z M2.66699994,27.047 L2.66699994,24.83 C3.41699995,25.042 4.35199995,25.238 5.30599996,25.375 L5.43099996,25.39 C8.42799997,25.816 11.889,26.059 15.408,26.059 C15.617,26.059 15.825,26.058 16.033,26.056 L16.001,26.056 C16.177,26.058 16.386,26.058 16.594,26.058 C20.112,26.058 23.574,25.815 26.962,25.344 L26.57,25.389 C27.64,25.239 28.5690001,25.045 29.4750001,24.798 L29.3130001,24.836 L29.3130001,27.043 C16.493,30.5300001 5.73299996,27.946 2.66599994,27.046 L2.66699994,27.047 Z M25.417,22.153 C26.307,22.27 27.017,22.39 27.577,22.506 C25.384,22.953 21.48,23.386 16,23.386 C10.52,23.386 6.61699996,22.953 4.42299995,22.506 C4.94599995,22.396 5.60299996,22.283 6.42299995,22.173 C6.72599996,22.131 6.99099996,21.991 7.18899996,21.787 L7.18899996,21.787 C9.77199997,22.247 12.745,22.51 15.779,22.51 C15.806,22.51 15.833,22.51 15.86,22.51 L15.856,22.51 C18.962,22.509 22.004,22.239 24.96,21.721 L24.646,21.767 C24.846,21.972 25.112,22.112 25.409,22.153 L25.416,22.154 L25.417,22.153 Z M25.417,12.82 C26.417,12.953 27.167,13.093 27.75,13.223 C25.59,13.696 21.63,14.166 16,14.166 C10.37,14.166 6.40999996,13.696 4.25699995,13.226 C4.80699995,13.103 5.51399996,12.973 6.41999996,12.846 C6.66499996,12.811 6.88099996,12.712 7.05899996,12.567 L7.05699996,12.569 C9.68599997,13.065 12.71,13.349 15.801,13.349 C15.816,13.349 15.831,13.349 15.846,13.349 L15.844,13.349 C19.001,13.348 22.089,13.057 25.085,12.501 L24.774,12.549 C24.949,12.691 25.166,12.788 25.404,12.822 L25.411,12.823 L25.417,12.82 Z"></path>
</svg>