<svg version="1.1" xmlns="http://www.w3.org/2000/svg" width="32" height="32" viewBox="0 0 32 32">
<title>information</title>
<path fill="#333" d="M24 29.333h-3.333v-17.333c0-0.736-0.597-1.333-1.333-1.333v0h-10.667c-0.736 0-1.333 0.597-1.333 1.333s0.597 1.333 1.333 1.333v0h2.667v16h-3.333c-0.736 0-1.333 0.597-1.333 1.333s0.597 1.333 1.333 1.333v0h16c0.736 0 1.333-0.597 1.333-1.333s-0.597-1.333-1.333-1.333v0zM14 13.333h4v16h-4zM16 9.333c-2.577 0-4.667-2.089-4.667-4.667s2.089-4.667 4.667-4.667c2.577 0 4.667 2.089 4.667 4.667v0c0 2.577-2.089 4.667-4.667 4.667v0zM16 2.667c-1.105 0-2 0.895-2 2s0.895 2 2 2c1.105 0 2-0.895 2-2v0c0-1.105-0.895-2-2-2v0z"></path>
</svg>
