<?xml version="1.0" encoding="utf-8"?>
<!-- Generator: Adobe Illustrator 20.1.0, SVG Export Plug-In . SVG Version: 6.00 Build 0)  -->
<svg version="1.1" id="Layer_1" xmlns="http://www.w3.org/2000/svg" xmlns:xlink="http://www.w3.org/1999/xlink" x="0px" y="0px"
	 viewBox="0 0 72 72" style="enable-background:new 0 0 72 72;" xml:space="preserve">
<path d="M55,72H17c-0.6,0-1-0.4-1-1s0.4-1,1-1h11V26H17c-0.6,0-1-0.4-1-1s0.4-1,1-1h26c0.6,0,1,0.4,1,1v45h11c0.6,0,1,0.4,1,1
	S55.6,72,55,72z M30,70h12V26H30V70z M36,16.5c-4.5,0-8.2-3.7-8.2-8.2S31.5,0,36,0c4.5,0,8.2,3.7,8.2,8.2S40.5,16.5,36,16.5z M36,2
	c-3.4,0-6.2,2.8-6.2,6.2c0,3.4,2.8,6.2,6.2,6.2s6.2-2.8,6.2-6.2C42.2,4.8,39.4,2,36,2z"/>
</svg>
