<svg xmlns="http://www.w3.org/2000/svg" width="32" height="32"><path d="M11.667 21.333H3.144l-.068.001A3.077 3.077 0 0 1 0 18.337V6.333a3.078 3.078 0 0 1 3.147-3h-.003 25.713l.068-.001a3.078 3.078 0 0 1 3.076 2.997v8.004a1 1 0 0 1-2 0v-8a1.08 1.08 0 0 0-1.077-1.002l-.069.002h.003H3.145a1.08 1.08 0 0 0-1.143.996v12.004a1.08 1.08 0 0 0 1.077 1.002l.069-.002h-.003 8.523a1 1 0 0 1 0 2zm19.786 2.81c-1.94 2.223-5.18 4.567-8.453 4.523h-.103c-3.247 0-6.433-2.333-8.333-4.52-.34-.395-.547-.914-.547-1.48s.207-1.085.549-1.483l-.003.003c1.92-2.22 5.167-4.557 8.437-4.52 3.287-.047 6.513 2.3 8.45 4.517.341.396.548.915.548 1.482 0 .566-.206 1.083-.548 1.481l.003-.003zm-12.526 1.19l6.253-6.263a5.984 5.984 0 0 0-2.162-.403h-.121c-2.563 0-5.29 2.057-6.84 3.833a.268.268 0 0 0 0 .334v-.001a13.94 13.94 0 0 0 2.818 2.468l.052.032zm11-2.83a13.847 13.847 0 0 0-2.824-2.448l-.053-.032-6.24 6.247a5.923 5.923 0 0 0 2.151.397h.142c2.563 0 5.23-1.973 6.84-3.833a.27.27 0 0 0-.004-.337z"/></svg>