<svg version="1.1" xmlns="http://www.w3.org/2000/svg" width="32" height="32" viewBox="0 0 32 32">
<title>input-line</title>
<path fill="#333" d="M19.333 17.333h-13.333c-0.736 0-1.333-0.597-1.333-1.333s0.597-1.333 1.333-1.333v0h13.333c0.736 0 1.333 0.597 1.333 1.333s-0.597 1.333-1.333 1.333v0zM32 24v-16c0-0.736-0.597-1.333-1.333-1.333v0h-29.333c-0.736 0-1.333 0.597-1.333 1.333v0 16c0 0.736 0.597 1.333 1.333 1.333v0h29.333c0.736 0 1.333-0.597 1.333-1.333v0zM2.667 9.333h26.667v13.333h-26.667z"></path>
</svg>
