<svg version="1.1" xmlns="http://www.w3.org/2000/svg" width="32" height="32" viewBox="0 0 32 32">
<title>input-number</title>
<path fill="#333" d="M24 20.667c-0.277-0-0.535-0.085-0.748-0.23l0.005 0.003-2-1.333c-0.347-0.244-0.571-0.643-0.571-1.094 0-0.736 0.597-1.333 1.333-1.333 0.269 0 0.52 0.080 0.729 0.217l-0.005-0.003 1.257 0.837 1.27-0.84c0.217-0.159 0.488-0.254 0.782-0.254 0.736 0 1.333 0.597 1.333 1.333 0 0.481-0.255 0.902-0.637 1.137l-0.006 0.003-2 1.333c-0.208 0.14-0.463 0.223-0.739 0.223-0.002 0-0.003 0-0.005 0h0zM27.12 14.737c0.139-0.207 0.222-0.462 0.222-0.736 0-0.461-0.234-0.868-0.59-1.107l-0.005-0.003-2-1.333c-0.208-0.14-0.464-0.224-0.74-0.224s-0.532 0.084-0.745 0.227l0.005-0.003-2 1.333c-0.347 0.244-0.571 0.643-0.571 1.094 0 0.736 0.597 1.333 1.333 1.333 0.269 0 0.52-0.080 0.729-0.217l-0.005 0.003 1.247-0.833 1.27 0.84c0.207 0.139 0.462 0.222 0.736 0.222 0.461 0 0.868-0.234 1.107-0.59l0.003-0.005zM32 24v-16c0-0.736-0.597-1.333-1.333-1.333v0h-29.333c-0.736 0-1.333 0.597-1.333 1.333v0 16c0 0.736 0.597 1.333 1.333 1.333v0h29.333c0.736 0 1.333-0.597 1.333-1.333v0zM2.667 9.333h26.667v13.333h-26.667z"></path>
</svg>
