<svg xmlns="http://www.w3.org/2000/svg" width="32" height="32"><path d="M31 28H1a1 1 0 0 1-1-1V5a1 1 0 0 1 1-1h30a1 1 0 0 1 1 1v22a1 1 0 0 1-1 1zM2 26h28V6H2zm21.333-3.333a.998.998 0 0 1-.742-.332l-.001-.001-3-3.333a1 1 0 0 1 1.487-1.333l2.257 2.507 2.257-2.507a1 1 0 0 1 1.485 1.336l.002-.002-3 3.333a.996.996 0 0 1-.743.333zM27 14.41a.997.997 0 0 0 .076-1.411l.001.001-3-3.333a1.03 1.03 0 0 0-1.486-.001l-3 3.333a1 1 0 0 0 1.487 1.333l2.257-2.507 2.257 2.507a.997.997 0 0 0 1.414.073l-.001.001z"/></svg>