<svg version="1.1" xmlns="http://www.w3.org/2000/svg" width="32" height="32" viewBox="0 0 32 32">
<title>input-hidden</title>
<path fill="#333" d="M31.88 21.223c-0.030 0.059-0.057 0.107-0.087 0.153l0.004-0.006c0 0.023-0.027 0.053-0.047 0.077-3.14 4.36-6.51 6.553-10.047 6.553-0.71-0.002-1.4-0.085-2.061-0.242l0.061 0.012c-0.57-0.16-0.981-0.675-0.981-1.286 0-0.736 0.597-1.333 1.333-1.333 0.086 0 0.171 0.008 0.252 0.024l-0.008-0.001c2.94 0.667 5.883-0.867 8.757-4.573-0.263-0.403-0.527-0.787-0.79-1.14-0.154-0.215-0.246-0.482-0.246-0.772 0-0.736 0.597-1.333 1.333-1.333 0.427 0 0.806 0.2 1.050 0.512l0.002 0.003c0.473 0.633 0.943 1.333 1.403 2.1v0c0 0.017 0 0.033 0.023 0.047 0.030 0.052 0.059 0.114 0.084 0.178l0.003 0.009c0 0.043 0.023 0.087 0.037 0.13s0.023 0.080 0.030 0.12c0.002 0.020 0.002 0.043 0.002 0.067s-0.001 0.047-0.003 0.070l0-0.003c0 0.043 0 0.083 0 0.127s0 0.077 0 0.113c-0.002 0.052-0.009 0.101-0.021 0.148l0.001-0.005c0 0.037-0.023 0.070-0.033 0.107s-0.033 0.1-0.053 0.147zM22.88 13.457c-7-1.17-11.813 6.177-12 6.49 0 0 0 0.033-0.023 0.047s-0.047 0.083-0.067 0.127-0.033 0.077-0.047 0.117-0.023 0.083-0.033 0.123-0.020 0.083-0.027 0.127 0 0.087 0 0.13 0 0.083 0 0.123 0 0.090 0 0.137 0 0.077 0.023 0.117c0.013 0.051 0.028 0.095 0.046 0.137l-0.002-0.007c0.016 0.048 0.032 0.087 0.050 0.124l-0.003-0.007c0 0.020 0 0.040 0.023 0.057 0.475 0.835 0.955 1.548 1.483 2.223l-0.030-0.039c0.246 0.318 0.628 0.52 1.057 0.52 0.001 0 0.002 0 0.004 0h-0c0 0 0 0 0 0 0.736 0 1.333-0.597 1.333-1.333 0-0.308-0.104-0.591-0.279-0.816l0.002 0.003c-0.333-0.427-0.59-0.81-0.79-1.12 1.213-1.567 4.633-5.35 8.853-4.647 0.074 0.015 0.16 0.023 0.248 0.023 0.736 0 1.333-0.597 1.333-1.333 0-0.67-0.494-1.224-1.137-1.319l-0.007-0.001zM29.66 13.457c-0.252-0.277-0.613-0.45-1.015-0.45-0.34 0-0.651 0.124-0.89 0.328l0.002-0.002-5.27 4.56c-0.341-0.144-0.738-0.227-1.154-0.227-1.666 0-3.019 1.338-3.043 2.998l-0 0.002c0.002 0.275 0.040 0.54 0.108 0.792l-0.005-0.022-5.27 4.563c-0.279 0.246-0.453 0.603-0.453 1.002 0 0.337 0.125 0.645 0.331 0.88l-0.001-0.002c0.252 0.279 0.615 0.453 1.018 0.453 0.341 0 0.654-0.125 0.894-0.332l-0.002 0.002 5.267-4.563c0.341 0.143 0.738 0.227 1.154 0.227 1.666 0 3.020-1.338 3.046-2.998l0-0.002c-0.001-0.275-0.040-0.54-0.112-0.791l0.005 0.021 5.27-4.563c0.28-0.246 0.455-0.604 0.455-1.003 0-0.336-0.125-0.644-0.33-0.878l0.001 0.002zM9.333 20.667c0-0.736-0.597-1.333-1.333-1.333v0h-5.333v-13.333h26.667v4.333c0 0.736 0.597 1.333 1.333 1.333s1.333-0.597 1.333-1.333v0-5.667c0-0.736-0.597-1.333-1.333-1.333v0h-29.333c-0.736 0-1.333 0.597-1.333 1.333v0 16c0 0.736 0.597 1.333 1.333 1.333v0h6.667c0.736 0 1.333-0.597 1.333-1.333v0z"></path>
</svg>
