<svg version="1.1" xmlns="http://www.w3.org/2000/svg" width="32" height="32" viewBox="0 0 32 32">
<title>italic</title>
<path fill="#333" d="M12 32c-0.001 0-0.002 0-0.003 0-0.104 0-0.205-0.012-0.302-0.035l0.009 0.002c-0.597-0.141-1.034-0.669-1.034-1.299 0-0.105 0.012-0.208 0.035-0.306l-0.002 0.009 4.833-21.21c0.14-0.598 0.669-1.037 1.3-1.037 0.736 0 1.333 0.597 1.333 1.333 0 0.105-0.012 0.208-0.035 0.306l0.002-0.009-4.837 21.21c-0.14 0.598-0.669 1.037-1.3 1.037-0 0-0 0-0 0v0zM20.927 1.060c-0.466-0.646-1.217-1.062-2.065-1.062-0.031 0-0.062 0.001-0.092 0.002l0.004-0c-1.626 0.053-3.007 1.047-3.62 2.454l-0.010 0.026c-0.134 0.3-0.211 0.649-0.211 1.017 0 0.51 0.15 0.985 0.407 1.383l-0.006-0.010c0.467 0.646 1.219 1.061 2.067 1.061 0.030 0 0.061-0.001 0.091-0.002l-0.004 0c1.626-0.053 3.007-1.047 3.62-2.454l0.010-0.026c0.134-0.3 0.213-0.649 0.213-1.018 0-0.51-0.15-0.985-0.409-1.382l0.006 0.010z"></path>
</svg>
