<?xml version="1.0" encoding="utf-8"?>
<!-- Generator: Adobe Illustrator 20.1.0, SVG Export Plug-In . SVG Version: 6.00 Build 0)  -->
<svg version="1.1" id="Layer_1" xmlns="http://www.w3.org/2000/svg" xmlns:xlink="http://www.w3.org/1999/xlink" x="0px" y="0px"
	 viewBox="0 0 72 72" style="enable-background:new 0 0 72 72;" xml:space="preserve">
<path d="M32.9,68.3h-8.7c-0.3,0-0.6-0.1-0.8-0.4c-0.2-0.2-0.3-0.6-0.2-0.9L34,21.6c0.1-0.5,0.5-0.8,1-0.8h8.7c0.3,0,0.6,0.1,0.8,0.4
	s0.3,0.6,0.2,0.9L33.9,67.6C33.8,68,33.4,68.3,32.9,68.3z M25.5,66.3h6.7l10.3-43.5h-6.7L25.5,66.3z M45.7,14.3H37
	c-0.3,0-0.6-0.1-0.8-0.4c-0.2-0.2-0.3-0.6-0.2-0.9l2.1-8.7c0.1-0.4,0.5-0.8,1-0.8h8.7c0.3,0,0.6,0.1,0.8,0.4
	c0.2,0.2,0.3,0.6,0.2,0.9l-2.1,8.7C46.6,14,46.1,14.3,45.7,14.3z M38.2,12.3h6.7l1.6-6.7h-6.7L38.2,12.3z"/>
</svg>
