<svg version="1.1" xmlns="http://www.w3.org/2000/svg" width="32" height="32" viewBox="0 0 32 32">
<title>keywords</title>
<path fill="#333" d="M30.667 9.333h-6.027l1.667-6.333c0.036-0.114 0.056-0.246 0.056-0.382 0-0.736-0.597-1.333-1.333-1.333-0.636 0-1.167 0.445-1.301 1.040l-0.002 0.009-1.84 7h-7.963l1.647-6.333c0.011-0.064 0.017-0.138 0.017-0.213 0-0.736-0.597-1.333-1.333-1.333-0.574 0-1.063 0.362-1.251 0.87l-0.003 0.009-1.833 7h-6.747c-0.736 0-1.333 0.597-1.333 1.333s0.597 1.333 1.333 1.333v0h6.050l-2.083 8h-7.053c-0.736 0-1.333 0.597-1.333 1.333s0.597 1.333 1.333 1.333v0h6.36l-1.65 6.333c-0.027 0.1-0.042 0.214-0.042 0.333 0 0.617 0.42 1.137 0.99 1.289l0.009 0.002c0.1 0.027 0.215 0.043 0.333 0.043h0c0.618-0 1.137-0.421 1.288-0.991l0.002-0.009 1.823-7h7.963l-1.647 6.333c-0.027 0.101-0.043 0.217-0.043 0.337 0 0.617 0.419 1.136 0.987 1.288l0.009 0.002c0.1 0.027 0.215 0.043 0.333 0.043h0c0.616-0.004 1.132-0.425 1.281-0.994l0.002-0.009 1.833-7h6.413c0.736 0 1.333-0.597 1.333-1.333s-0.597-1.333-1.333-1.333v0h-5.717l2.083-8h6.72c0.736 0 1.333-0.597 1.333-1.333s-0.597-1.333-1.333-1.333v0zM19.107 20h-7.963l2.083-8h7.963z"></path>
</svg>
