<?xml version="1.0" encoding="utf-8"?>
<!-- Generator: Adobe Illustrator 20.1.0, SVG Export Plug-In . SVG Version: 6.00 Build 0)  -->
<svg version="1.1" id="Layer_1" xmlns="http://www.w3.org/2000/svg" xmlns:xlink="http://www.w3.org/1999/xlink" x="0px" y="0px"
	 viewBox="0 0 72 72" style="enable-background:new 0 0 72 72;" xml:space="preserve">
<path d="M64,51H1c-0.6,0-1-0.4-1-1s0.4-1,1-1h63c0.6,0,1,0.4,1,1S64.6,51,64,51z M71,23H10c-0.6,0-1-0.4-1-1s0.4-1,1-1h61
	c0.6,0,1,0.4,1,1S71.6,23,71,23z M15.2,68c-0.1,0-0.2,0-0.3,0c-0.5-0.1-0.9-0.7-0.7-1.2l16.6-62C31,4.2,31.6,3.9,32.1,4
	c0.5,0.1,0.9,0.7,0.7,1.2l-16.6,62C16.1,67.7,15.7,68,15.2,68z M42.6,68c-0.1,0-0.2,0-0.3,0c-0.5-0.1-0.8-0.7-0.7-1.2l16.6-62
	c0.1-0.5,0.7-0.8,1.2-0.7c0.5,0.1,0.8,0.7,0.7,1.2l-16.6,62C43.5,67.7,43,68,42.6,68z"/>
</svg>
