<svg version="1.1" xmlns="http://www.w3.org/2000/svg" width="32" height="32" viewBox="0 0 32 32">
<title>landingpage-add</title>
<path fill="#333" d="M32 26.667c0 0.736-0.597 1.333-1.333 1.333v0h-2.667v2.667c0 0.736-0.597 1.333-1.333 1.333s-1.333-0.597-1.333-1.333v0-2.667h-2.667c-0.736 0-1.333-0.597-1.333-1.333s0.597-1.333 1.333-1.333v0h2.667v-2.667c0-0.736 0.597-1.333 1.333-1.333s1.333 0.597 1.333 1.333v0 2.667h2.667c0.736 0 1.333 0.597 1.333 1.333v0zM4.667 3.333c-0.736 0-1.333 0.597-1.333 1.333s0.597 1.333 1.333 1.333c0.736 0 1.333-0.597 1.333-1.333v0c0-0.736-0.597-1.333-1.333-1.333v0zM9.333 4.667c0 0.736-0.597 1.333-1.333 1.333s-1.333-0.597-1.333-1.333c0-0.736 0.597-1.333 1.333-1.333v0c0.736 0 1.333 0.597 1.333 1.333v0zM12.667 4.667c0 0.736-0.597 1.333-1.333 1.333s-1.333-0.597-1.333-1.333c0-0.736 0.597-1.333 1.333-1.333v0c0.736 0 1.333 0.597 1.333 1.333v0zM29.333 2v16c0 0.736-0.597 1.333-1.333 1.333s-1.333-0.597-1.333-1.333v0-8.667h-24v17.333h15c0.736 0 1.333 0.597 1.333 1.333s-0.597 1.333-1.333 1.333v0h-15.667c-1.105 0-2-0.895-2-2v0-25.333c0-1.105 0.895-2 2-2v0h25.333c1.105 0 2 0.895 2 2v0zM26.667 6.667v-4h-24v4z"></path>
</svg>
