<svg xmlns="http://www.w3.org/2000/svg" width="32" height="32"><path d="M27 0H3a3 3 0 0 0-3 3v22a3 3 0 0 0 3 3h8a1 1 0 0 0 0-2H3a1 1 0 0 1-1-1V8h26v9a1 1 0 0 0 2 0V3a3 3 0 0 0-3-3zM2 6V3a1 1 0 0 1 1-1h24a1 1 0 0 1 1 1v3zm21 23a3 3 0 1 1 3-3 3 3 0 0 1-3 3zm0-4a1 1 0 0 0 0 2 1 1 0 0 0 1-1 .997.997 0 0 0-1-1zm-.103 7c-3.247 0-6.433-2.333-8.333-4.52-.34-.395-.547-.914-.547-1.48s.207-1.085.549-1.483l-.003.003c1.9-2.187 5.103-4.52 8.333-4.52h.103c3.277-.06 6.513 2.3 8.45 4.517.34.395.547.914.547 1.48s-.207 1.085-.549 1.483l.003-.003C29.517 29.7 26.277 32.057 23 32zm0-10c-2.563 0-5.29 2.057-6.84 3.833a.268.268 0 0 0 0 .334v-.001c1.64 1.88 4.333 3.887 6.92 3.83h.123c2.567.003 5.233-1.97 6.843-3.83a.268.268 0 0 0 0-.334v.001C28.39 24.056 25.666 22 23.1 22h-.203z"/></svg>