<svg version="1.1" xmlns="http://www.w3.org/2000/svg" width="32" height="32" viewBox="0 0 32 32">
<title>landing_page</title>
<path fill="#333" d="M30 32h-28c-1.105 0-2-0.895-2-2v0-28c0-1.105 0.895-2 2-2v0h28c1.105 0 2 0.895 2 2v0 28c0 1.105-0.895 2-2 2v0zM2.667 29.333h26.667v-18.667h-26.667zM2.667 8h26.667v-5.333h-26.667zM6.667 5.333c0 0.736-0.597 1.333-1.333 1.333s-1.333-0.597-1.333-1.333c0-0.736 0.597-1.333 1.333-1.333v0c0.736 0 1.333 0.597 1.333 1.333v0zM9.333 4c-0.736 0-1.333 0.597-1.333 1.333s0.597 1.333 1.333 1.333c0.736 0 1.333-0.597 1.333-1.333v0c0-0.736-0.597-1.333-1.333-1.333v0zM13.333 4c-0.736 0-1.333 0.597-1.333 1.333s0.597 1.333 1.333 1.333c0.736 0 1.333-0.597 1.333-1.333v0c0-0.736-0.597-1.333-1.333-1.333v0z"></path>
</svg>
