<?xml version="1.0" encoding="utf-8"?>
<!-- Generator: Adobe Illustrator 20.1.0, SVG Export Plug-In . SVG Version: 6.00 Build 0)  -->
<svg version="1.1" id="Layer_2" xmlns="http://www.w3.org/2000/svg" xmlns:xlink="http://www.w3.org/1999/xlink" x="0px" y="0px"
	 viewBox="0 0 72 72" style="enable-background:new 0 0 72 72;" xml:space="preserve">
<g>
	<g>
		<g>
			<g>
				<path d="M57,72c-8.3,0-15-6.7-15-15s6.7-15,15-15c8.3,0,15,6.7,15,15S65.3,72,57,72z M57,44c-7.2,0-13,5.8-13,13s5.8,13,13,13
					c7.2,0,13-5.8,13-13S64.2,44,57,44z"/>
			</g>
			<g>
				<g>
					<path d="M57.3,63.8c-0.6,0-1-0.4-1-1v-12c0-0.6,0.4-1,1-1s1,0.4,1,1v12C58.3,63.3,57.8,63.8,57.3,63.8z"/>
				</g>
				<g>
					<path d="M63.2,58h-12c-0.6,0-1-0.4-1-1s0.4-1,1-1h12c0.6,0,1,0.4,1,1S63.8,58,63.2,58z"/>
				</g>
			</g>
		</g>
	</g>
	<g>
		<g>
			<g>
				<path d="M36,65H3.3C1.8,65,0,63.2,0,61.7V2.3C0,0.9,1.3,0,3.3,0h59.4C64.2,0,65,0.8,65,2.3V36c0,0.6-0.4,1-1,1s-1-0.4-1-1V2.3
					c0-0.1,0-0.2,0-0.3c-0.1,0-0.2,0-0.3,0H3.3C2.5,2,2.1,2.2,2,2.3l0,59.4C2,62.1,2.9,63,3.3,63H36c0.6,0,1,0.4,1,1S36.6,65,36,65z
					"/>
			</g>
			<g>
				<path d="M64,13H1c-0.6,0-1-0.4-1-1s0.4-1,1-1h63c0.6,0,1,0.4,1,1S64.6,13,64,13z"/>
			</g>
		</g>
		<g>
			<circle cx="8.2" cy="6.3" r="1.4"/>
			<circle cx="15.4" cy="6.3" r="1.4"/>
			<circle cx="22.6" cy="6.3" r="1.4"/>
		</g>
		<g>
			<g>
				<path d="M24,56H12c-1.7,0-3-1.3-3-3V22c0-1.7,1.3-3,3-3h12c1.7,0,3,1.3,3,3v31C27,54.7,25.7,56,24,56z M12,21c-0.6,0-1,0.4-1,1
					v31c0,0.6,0.4,1,1,1h12c0.6,0,1-0.4,1-1V22c0-0.6-0.4-1-1-1H12z"/>
			</g>
			<g>
				<path d="M54,37H38c-1.7,0-3-1.3-3-3V22c0-1.7,1.3-3,3-3h16c1.7,0,3,1.3,3,3v12C57,35.7,55.7,37,54,37z M38,21c-0.6,0-1,0.4-1,1
					v12c0,0.6,0.4,1,1,1h16c0.6,0,1-0.4,1-1V22c0-0.6-0.4-1-1-1H38z"/>
			</g>
		</g>
	</g>
</g>
</svg>
