<svg version="1.1" xmlns="http://www.w3.org/2000/svg" width="32" height="32" viewBox="0 0 32 32">
<title>landingpage-preview</title>
<path fill="#333" d="M5.667 4.667a1 1 0 1 1-1-1 1 1 0 0 1 1 1zm2-1a1 1 0 1 0 1 1 1 1 0 0 0-1-1zm3 0a1 1 0 1 0 1 1 1 1 0 0 0-1-1zM28 2v11.333a1.333 1.333 0 0 1-2.666 0v-4H2.667v16h4.62a1.333 1.333 0 0 1 0 2.666H2a2 2 0 0 1-2-2v-24a2 2 0 0 1 2-2h24a2 2 0 0 1 2 2zm-2.667 4.667v-4H2.666v4zM32 24.333a1.299 1.299 0 0 1-.24.811l.003-.004c-3.23 4.553-6.72 6.86-10.387 6.86h-.297c-6.047-.207-10.05-6.667-10.217-6.933a1.283 1.283 0 0 1-.19-.666.384.384 0 0 1 .001-.102v.002a1.29 1.29 0 0 1 .193-.672l-.003.006c.167-.3 4.17-6.757 10.217-6.967 3.77-.13 7.367 2.18 10.667 6.857.159.214.254.483.254.774l-.001.038v-.002zm-2.953 0c-2.587-3.407-5.233-5.087-7.87-5-3.65.127-6.51 3.533-7.587 5 1.077 1.463 3.957 4.88 7.59 5 2.64.083 5.277-1.6 7.86-5zm-7.714-3.036a3 3 0 1 0 3 3 3 3 0 0 0-3-3z"></path>
</svg>
