<svg version="1.1" xmlns="http://www.w3.org/2000/svg" width="32" height="32" viewBox="0 0 32 32">
<title>languages</title>
<path fill="#333" d="M27.96 5.387l-0.033-0.050c-0.025-0.029-0.051-0.055-0.079-0.079l-0.001-0.001c-2.935-3.234-7.154-5.257-11.847-5.257s-8.912 2.023-11.835 5.244l-0.012 0.013c-0.029 0.025-0.055 0.051-0.079 0.079l-0.001 0.001s-0.020 0.033-0.033 0.050c-2.507 2.806-4.040 6.53-4.040 10.611 0 3.736 1.284 7.173 3.435 9.892l-0.026-0.033c0.038 0.243 0.136 0.458 0.279 0.636l-0.002-0.003c0.166 0.2 0.386 0.35 0.637 0.427l0.009 0.003c2.905 2.955 6.945 4.786 11.412 4.786 8.837 0 16-7.163 16-16 0-3.943-1.426-7.553-3.791-10.342l0.019 0.023zM26.603 24.070c-0.617-0.42-1.323-0.806-2.066-1.12l-0.081-0.030c0.645-1.636 1.1-3.532 1.274-5.508l0.006-0.078h3.53c-0.264 2.568-1.224 4.871-2.686 6.768l0.023-0.031zM2.733 17.333h3.53c0.169 1.961 0.588 3.772 1.226 5.475l-0.046-0.141c-0.883 0.319-1.64 0.683-2.352 1.113l0.059-0.033c-1.3-1.796-2.169-3.984-2.412-6.357l-0.005-0.056zM5.353 8c0.627 0.394 1.351 0.757 2.109 1.050l0.088 0.030c-0.65 1.636-1.106 3.532-1.281 5.509l-0.006 0.078h-3.53c0.265-2.539 1.208-4.816 2.644-6.699l-0.024 0.032zM14.667 7.69c-1.183-0.042-2.304-0.161-3.399-0.355l0.146 0.021c0.878-1.338 1.96-2.461 3.215-3.358l0.038-0.026zM14.667 10.357v4.31h-5.723c0.177-1.788 0.593-3.43 1.219-4.964l-0.043 0.118c1.342 0.293 2.905 0.487 4.505 0.539l0.042 0.001zM14.667 17.333v4.12c-1.662 0.033-3.261 0.211-4.813 0.522l0.172-0.029c-0.531-1.348-0.914-2.911-1.077-4.539l-0.006-0.074zM14.667 24.123v3.903c-1.359-0.97-2.488-2.165-3.356-3.542l-0.030-0.052c0.997-0.168 2.166-0.28 3.355-0.309l0.031-0.001zM17.333 24.157c1.214 0.062 2.349 0.206 3.456 0.428l-0.149-0.025c-0.887 1.373-1.988 2.524-3.269 3.441l-0.038 0.026zM17.333 21.49v-4.157h5.72c-0.173 1.759-0.577 3.376-1.185 4.889l0.042-0.119c-1.346-0.326-2.915-0.548-4.524-0.618l-0.052-0.002zM17.333 14.667v-4.307c1.64-0.053 3.202-0.247 4.716-0.571l-0.173 0.031c0.585 1.416 1.002 3.058 1.174 4.773l0.006 0.074zM17.333 7.69v-3.717c1.292 0.921 2.373 2.044 3.221 3.333l0.029 0.047c-0.948 0.173-2.068 0.294-3.207 0.335l-0.043 0.001zM21.023 3.667c1.444 0.601 2.686 1.386 3.771 2.346l-0.014-0.012c-0.417 0.232-0.911 0.457-1.423 0.643l-0.074 0.024c-0.668-1.137-1.416-2.12-2.265-3.005l0.005 0.005zM8.717 6.667c-0.588-0.212-1.082-0.437-1.554-0.695l0.058 0.029c1.070-0.947 2.311-1.732 3.665-2.301l0.088-0.033c-0.842 0.874-1.589 1.851-2.216 2.907l-0.040 0.073zM8.57 25.117c0.697 1.223 1.494 2.279 2.407 3.221l-0.004-0.004c-1.552-0.644-2.883-1.508-4.028-2.571l0.008 0.008c0.448-0.236 0.983-0.463 1.536-0.65l0.080-0.023zM23.293 25.333c0.567 0.227 1.047 0.467 1.503 0.742l-0.046-0.026c-1.064 0.925-2.296 1.693-3.638 2.251l-0.089 0.033c0.848-0.88 1.599-1.863 2.23-2.927l0.040-0.073zM25.737 14.667c-0.179-2.060-0.635-3.962-1.335-5.742l0.048 0.139c0.847-0.318 1.571-0.676 2.253-1.095l-0.056 0.032c1.412 1.85 2.355 4.128 2.615 6.609l0.005 0.057z"></path>
</svg>
