<?xml version="1.0" encoding="utf-8"?>
<!-- Generator: Adobe Illustrator 20.1.0, SVG Export Plug-In . SVG Version: 6.00 Build 0)  -->
<svg version="1.1" id="Layer_1" xmlns="http://www.w3.org/2000/svg" xmlns:xlink="http://www.w3.org/1999/xlink" x="0px" y="0px"
	 viewBox="0 0 72 72" style="enable-background:new 0 0 72 72;" xml:space="preserve">
<g>
	<g>
		<g>
			<path d="M36,72C16.2,72,0,55.8,0,36C0,16.1,16.2,0,36,0c19.9,0,36,16.1,36,36C72,55.8,55.9,72,36,72z M36,2C17.3,2,2,17.3,2,36
				s15.3,34,34,34s34-15.3,34-34S54.8,2,36,2z"/>
		</g>
		<g>
			<path d="M36,72c-0.6,0-1-0.4-1-1V37H1c-0.6,0-1-0.4-1-1s0.4-1,1-1h34V1c0-0.6,0.4-1,1-1s1,0.4,1,1v34h34c0.6,0,1,0.4,1,1
				s-0.4,1-1,1H37v34C37,71.6,36.6,72,36,72z"/>
		</g>
		<g>
			<path d="M36,72c-0.1,0-0.3,0-0.4-0.1C34.9,71.6,18,63.3,17,36C18,8.7,34.9,0.4,35.6,0.1c0.5-0.2,1.1,0,1.3,0.5
				c0.2,0.5,0,1.1-0.5,1.3C36.3,2,20,10,19,36c1,26,17.3,34,17.4,34.1c0.5,0.2,0.7,0.8,0.5,1.3C36.7,71.8,36.4,72,36,72z"/>
		</g>
		<g>
			<path d="M36,72c-0.4,0-0.7-0.2-0.9-0.6c-0.2-0.5,0-1.1,0.5-1.3C35.7,70,52,62,53,36C52,9.9,35.7,2,35.6,1.9
				c-0.5-0.2-0.7-0.8-0.5-1.3c0.2-0.5,0.8-0.7,1.3-0.5C37.1,0.4,54,8.7,55,36c-1,27.4-17.9,35.6-18.6,35.9C36.3,72,36.1,72,36,72z"
				/>
		</g>
		<g>
			<path d="M64,58c-0.4,0-0.8-0.3-1-0.7C63,57.1,60.4,50,36,50c-24.6,0-27,7.2-27,7.2c-0.1,0.5-0.7,0.9-1.2,0.7
				c-0.5-0.1-0.9-0.7-0.7-1.2C7.2,55.9,9.9,48,36,48c26.1,0,28.8,7.9,29,8.8c0.1,0.5-0.2,1.1-0.7,1.2C64.2,58,64.1,58,64,58z"/>
		</g>
		<g>
			<path d="M36,24C9.9,24,7.2,16.1,7,15.2c-0.1-0.5,0.2-1.1,0.7-1.2c0.5-0.1,1.1,0.2,1.2,0.7c0,0,2.4,7.2,27,7.2
				c24.6,0,27-7.2,27-7.2c0.1-0.5,0.7-0.9,1.2-0.7c0.5,0.1,0.9,0.7,0.7,1.2C64.8,16.1,62.1,24,36,24z"/>
		</g>
	</g>
</g>
</svg>
