<svg xmlns="http://www.w3.org/2000/svg" viewBox="0 0 96 96"><path d="M77.9 14.83l-.09-.14-.22-.22a43.94 43.94 0 0 0-65.18 0l-.22.22-.09.14A44 44 0 0 0 45 88a44.49 44.49 0 0 0 9.64-1.06 4 4 0 0 0-1.75-7.81 36.28 36.28 0 0 1-3.89.65V66.31a58.47 58.47 0 0 1 13.07 1.94h.11a2.66 2.66 0 0 0 .39.07 2.3 2.3 0 0 0 .45 0h.66a3.82 3.82 0 0 0 .67-.15l.18-.06a5.11 5.11 0 0 0 .48-.22l.16-.08a4.49 4.49 0 0 0 .57-.4 3.75 3.75 0 0 0 .44-.45 1.83 1.83 0 0 0 .13-.16 3.46 3.46 0 0 0 .29-.45 1.4 1.4 0 0 0 .09-.17.16.16 0 0 0 0-.07A54.3 54.3 0 0 0 71.61 48h9.15a35.18 35.18 0 0 1-1 5.4 4 4 0 0 0 2.82 4.9 3.79 3.79 0 0 0 1 .14 4 4 0 0 0 3.86-3A44.34 44.34 0 0 0 89 44a43.8 43.8 0 0 0-11.1-29.17zm-48-3.49a43.83 43.83 0 0 0-4.9 6.71 31.32 31.32 0 0 1-3.29-1.45 35.72 35.72 0 0 1 8.18-5.26zM16.07 22.6a36 36 0 0 0 5.42 2.69A56 56 0 0 0 18.12 40H9.23a35.82 35.82 0 0 1 6.84-17.4zM9.23 48h8.89a56.75 56.75 0 0 0 3.12 14.08 34.1 34.1 0 0 0-5.53 2.81A35.67 35.67 0 0 1 9.23 48zm11.94 23a28.8 28.8 0 0 1 3.45-1.59 44.49 44.49 0 0 0 5.24 7.29 36.16 36.16 0 0 1-8.69-5.7zM41 76.06a34.36 34.36 0 0 1-8.29-8.88 64.68 64.68 0 0 1 8.29-.87zm0-17.76a71.91 71.91 0 0 0-12 1.45A47.82 47.82 0 0 1 26.16 48H41zM41 40H26.16a47.73 47.73 0 0 1 3-12.44A71.71 71.71 0 0 0 41 29zm0-19a67.55 67.55 0 0 1-7.88-.81A33.49 33.49 0 0 1 41 11.92zm8-8.85a34 34 0 0 1 7.64 8.08A67 67 0 0 1 49 21zM49 29a72.73 72.73 0 0 0 11.57-1.36 47.48 47.48 0 0 1 3 12.39H49zm11.8 30.71A71.85 71.85 0 0 0 49 58.3V48h14.58a48.23 48.23 0 0 1-2.78 11.71zm4-41.58a43.94 43.94 0 0 0-5.12-7 36 36 0 0 1 8.63 5.46 30.18 30.18 0 0 1-3.51 1.54zm3.48 7.25a35.34 35.34 0 0 0 5.65-2.78A35.82 35.82 0 0 1 80.77 40h-9.16a55.94 55.94 0 0 0-3.33-14.62zM95 80a4 4 0 0 1-4 4h-8v8a4 4 0 0 1-8 0v-8h-8a4 4 0 0 1 0-8h8v-8a4 4 0 0 1 8 0v8h8a4 4 0 0 1 4 4z" fill="#333"/></svg>