<svg xmlns="http://www.w3.org/2000/svg" width="32" height="32"><path d="M28.85 25.52C30.817 22.897 32 19.586 32 16s-1.183-6.897-3.18-9.561l.03.041a.786.786 0 0 0-.143-.186C26.023 2.8 21.986.461 17.393.065l-.06-.004a.997.997 0 0 0-.523-.039l.006-.001c-.27-.02-.543-.02-.817-.02s-.547 0-.817.02a1.036 1.036 0 0 0-.524.043l.007-.002A15.98 15.98 0 0 0 3.32 6.258l-.028.038a.784.784 0 0 0-.141.183l-.002.004c-1.967 2.623-3.15 5.934-3.15 9.52s1.183 6.897 3.18 9.561l-.03-.041c.04.072.088.133.143.186 2.685 3.492 6.722 5.83 11.313 6.229l.06.004a.981.981 0 0 0 .333.06c.066-.002.129-.009.191-.021l-.007.001c.27 0 .543.02.817.02s.547 0 .817-.02c.054.011.117.018.182.02H17c.12-.001.234-.023.34-.062l-.007.002a16.006 16.006 0 0 0 11.342-6.196l.028-.038a.801.801 0 0 0 .145-.183l.002-.004zM23.233 24c.8-2.068 1.307-4.46 1.405-6.957l.001-.043h5.333a13.87 13.87 0 0 1-2.509 7.044l.029-.044zm2.55 2a14.03 14.03 0 0 1-5.567 3.359l-.099.027a18.042 18.042 0 0 0 2.169-3.285l.048-.102zM4.52 24a13.768 13.768 0 0 1-2.477-6.955L2.04 17h5.333a22.353 22.353 0 0 0 1.445 7.154L8.767 24zm5.147 2a18.224 18.224 0 0 0 2.263 3.415l-.023-.028a14.072 14.072 0 0 1-5.692-3.389l.002.002zM4.52 8h4.247c-.8 2.068-1.307 4.46-1.405 6.957L7.361 15H2.028A13.866 13.866 0 0 1 4.55 7.957L4.521 8zm1.697-2a14.03 14.03 0 0 1 5.567-3.359l.099-.027a18.042 18.042 0 0 0-2.169 3.285l-.048.102zM27.48 8a13.768 13.768 0 0 1 2.477 6.955l.003.045h-5.333a22.353 22.353 0 0 0-1.445-7.154l.051.154zm-5.147-2a18.24 18.24 0 0 0-2.253-3.415l.023.029c2.224.7 4.129 1.866 5.682 3.389l-.002-.002zm.297 9H9.36a20.174 20.174 0 0 1 1.644-7.131L10.953 8h10.093c.9 2.057 1.474 4.446 1.592 6.955l.002.045zM9.36 17h13.28a20.153 20.153 0 0 1-1.644 7.131l.05-.131H10.953c-.9-2.057-1.475-4.446-1.592-6.955L9.359 17zm7.307-14.983a14.884 14.884 0 0 1 3.332 3.914l.038.069h-8.073a14.92 14.92 0 0 1 3.346-3.964l.024-.019h.667c.23 0 .443-.017.667 0zM15.333 30a14.88 14.88 0 0 1-3.332-3.93l-.038-.07h8.073a14.913 14.913 0 0 1-3.346 3.981l-.024.019h-1.334z"/></svg>