<svg xmlns="http://www.w3.org/2000/svg" width="32" height="32"><path d="M26.887 4.233a15.894 15.894 0 0 0-9.52-4.176L17.31.053a.984.984 0 0 0-.506-.033l.006-.001q-.39-.02-.78-.02c-.283 0-.563 0-.84.023a1.008 1.008 0 0 0-.53.042l.007-.002A16.009 16.009 0 0 0 3.361 6.228l-.027.037a.987.987 0 0 0-.204.268l-.003.005A15.82 15.82 0 0 0 0 15.997v.016c0 3.591 1.188 6.905 3.193 9.57l-.029-.041a.27.27 0 0 0 .037.05c2.713 3.619 6.86 6.036 11.582 6.403l.055.003h.193a1 1 0 0 0 .495-1.864l-.005-.003c-3.597-2.8-5.903-7.767-6.16-13.133h4.307a1 1 0 0 0 0-2H9.361a20.174 20.174 0 0 1 1.644-7.131l-.051.131h10.477c.523 1.108.957 2.4 1.237 3.749l.02.115a1 1 0 1 0 1.959-.399l.001.006a19.427 19.427 0 0 0-1.087-3.6l.047.13h3.9a13.657 13.657 0 0 1 2.489 6.73l.004.053a1.004 1.004 0 1 0 2-.178v.004a15.959 15.959 0 0 0-5.102-10.366l-.011-.01zm-15-1.61a18.15 18.15 0 0 0-2.172 3.275L9.667 6H6.23a14.057 14.057 0 0 1 5.56-3.349l.1-.027zM6.197 26h3.47a18.257 18.257 0 0 0 2.289 3.447l-.022-.027a14.074 14.074 0 0 1-5.738-3.422l.002.002zm2.57-2H4.51a13.783 13.783 0 0 1-2.467-6.955L2.04 17h5.333a22.353 22.353 0 0 0 1.445 7.154L8.767 24zM7.36 15H2.027a13.88 13.88 0 0 1 2.519-7.043L4.517 8h4.25c-.8 2.068-1.307 4.46-1.405 6.957L7.361 15zm4.603-9a14.974 14.974 0 0 1 3.346-3.964l.024-.019H16.693a14.943 14.943 0 0 1 3.604 3.922l.036.061zm8.397-3.3a14.24 14.24 0 0 1 5.44 3.303L25.797 6h-3.13a18.106 18.106 0 0 0-2.324-3.319l.017.019zM23 14c-4.971 0-9 4.029-9 9s4.029 9 9 9a9 9 0 0 0 9-9 9 9 0 0 0-9-9zm0 16a7 7 0 1 1 7-7 7 7 0 0 1-7 7zm5-7a1 1 0 0 1-1 1h-3v3a1 1 0 0 1-2 0v-3h-3a1 1 0 0 1 0-2h3v-3a1 1 0 0 1 2 0v3h3a1 1 0 0 1 1 1z"/></svg>