<svg version="1.1" xmlns="http://www.w3.org/2000/svg" width="32" height="32" viewBox="0 0 32 32">
<title>languages-add</title>
<path fill="#333" d="M25.967 4.943l-0.030-0.047-0.073-0.073c-2.691-2.967-6.56-4.823-10.863-4.823s-8.173 1.856-10.852 4.81l-0.011 0.012-0.073 0.073-0.030 0.047c-2.288 2.575-3.686 5.986-3.686 9.723 0 8.095 6.559 14.659 14.652 14.667h0.001c1.139-0 2.248-0.129 3.313-0.372l-0.1 0.019c0.601-0.138 1.042-0.668 1.042-1.302 0-0.737-0.597-1.334-1.334-1.334-0.103 0-0.204 0.012-0.301 0.034l0.009-0.002c-0.351 0.084-0.792 0.16-1.241 0.211l-0.056 0.005v-4.49c1.572 0.055 3.066 0.288 4.493 0.679l-0.137-0.032h0.037c0.037 0.010 0.081 0.018 0.126 0.023l0.004 0c0.023 0.002 0.049 0.004 0.075 0.004s0.052-0.001 0.078-0.004l-0.003 0h0.22c0.084-0.011 0.16-0.029 0.232-0.053l-0.009 0.003 0.060-0.020c0.065-0.026 0.118-0.051 0.169-0.078l-0.009 0.004 0.053-0.027c0.072-0.043 0.134-0.087 0.192-0.135l-0.002 0.002c0.053-0.046 0.101-0.095 0.145-0.148l0.002-0.002c0.015-0.016 0.029-0.033 0.042-0.052l0.001-0.002c0.033-0.044 0.065-0.093 0.094-0.144l0.003-0.006c0.010-0.016 0.020-0.034 0.029-0.054l0.001-0.003c0.001-0.003 0.001-0.008 0.001-0.012s-0-0.008-0.001-0.012l0 0c0.847-1.76 1.43-3.807 1.634-5.964l0.006-0.073h3.050c-0.073 0.678-0.19 1.29-0.353 1.882l0.019-0.082c-0.029 0.104-0.046 0.223-0.046 0.346 0 0.613 0.413 1.129 0.976 1.285l0.009 0.002c0.1 0.029 0.214 0.046 0.333 0.047h0c0.616-0.002 1.134-0.422 1.285-0.991l0.002-0.009c0.324-1.142 0.513-2.454 0.52-3.809l0-0.004c0-0.003 0-0.006 0-0.010 0-3.736-1.404-7.145-3.712-9.727l0.012 0.014zM9.967 3.78c-0.588 0.661-1.128 1.392-1.597 2.171l-0.037 0.066c-0.443-0.166-0.805-0.329-1.155-0.511l0.058 0.027c0.788-0.678 1.685-1.264 2.654-1.723l0.072-0.031zM5.357 7.533c0.511 0.316 1.106 0.617 1.726 0.868l0.081 0.029c-0.559 1.434-0.957 3.098-1.118 4.829l-0.006 0.074h-2.963c0.251-2.206 1.069-4.183 2.302-5.831l-0.022 0.031zM3.077 16h2.963c0.161 1.73 0.529 3.322 1.082 4.825l-0.042-0.131c-0.711 0.286-1.318 0.6-1.889 0.964l0.046-0.027c-1.145-1.578-1.918-3.495-2.155-5.575l-0.005-0.055zM7.057 23.667c0.315-0.176 0.694-0.354 1.085-0.508l0.065-0.023c0.534 0.919 1.111 1.715 1.76 2.445l-0.013-0.015c-1.108-0.523-2.062-1.158-2.909-1.911l0.012 0.011zM13.667 25.353c-1.090-0.821-2.008-1.801-2.736-2.916l-0.027-0.044c0.801-0.145 1.753-0.249 2.72-0.289l0.043-0.001zM13.667 19.433c-1.449 0.054-2.824 0.227-4.157 0.511l0.157-0.028c-0.449-1.14-0.782-2.465-0.94-3.843l-0.007-0.073h4.947zM13.667 13.333h-4.947c0.161-1.533 0.514-2.937 1.038-4.254l-0.038 0.107c1.159 0.252 2.515 0.425 3.901 0.479l0.045 0.001zM13.667 7c-0.967-0.043-1.872-0.14-2.758-0.288l0.132 0.018c0.726-1.075 1.597-1.988 2.597-2.736l0.029-0.021zM16.333 4.050c0.993 0.758 1.836 1.648 2.521 2.654l0.025 0.039c-0.731 0.124-1.608 0.215-2.499 0.255l-0.048 0.002zM16.333 9.667c1.399-0.053 2.725-0.215 4.013-0.48l-0.157 0.027c0.486 1.205 0.839 2.603 0.994 4.061l0.006 0.069h-4.857zM20.267 19.903c-1.156-0.249-2.508-0.417-3.89-0.469l-0.044-0.001v-3.433h4.86c-0.16 1.446-0.487 2.767-0.964 4.013l0.037-0.11zM21.6 6.043c-0.524-0.881-1.088-1.645-1.719-2.347l0.012 0.014c1.1 0.5 2.047 1.109 2.893 1.834l-0.016-0.014c-0.317 0.169-0.703 0.342-1.101 0.491l-0.069 0.023zM22.76 8.46c0.728-0.283 1.348-0.595 1.934-0.956l-0.051 0.029c1.211 1.617 2.029 3.594 2.275 5.745l0.005 0.055h-3.053c-0.165-1.795-0.558-3.448-1.153-5.001l0.043 0.128zM31.667 26.667c0 0.736-0.597 1.333-1.333 1.333v0h-2.667v2.667c0 0.736-0.597 1.333-1.333 1.333s-1.333-0.597-1.333-1.333v0-2.667h-2.667c-0.736 0-1.333-0.597-1.333-1.333s0.597-1.333 1.333-1.333v0h2.667v-2.667c0-0.736 0.597-1.333 1.333-1.333s1.333 0.597 1.333 1.333v0 2.667h2.667c0.736 0 1.333 0.597 1.333 1.333v0z"></path>
</svg>
