<svg version="1.1" xmlns="http://www.w3.org/2000/svg" width="32" height="32" viewBox="0 0 32 32">
<title>layout-switch</title>
<path fill="#333" d="M23.333 26.667c0 0.736-0.597 1.333-1.333 1.333v0h-7.070l1.753 1.713c0.261 0.244 0.423 0.59 0.423 0.975 0 0.736-0.597 1.333-1.333 1.333-0.374 0-0.711-0.154-0.953-0.401l-0-0-3.51-3.43c-0.397-0.385-0.643-0.923-0.643-1.518 0-0.002 0-0.004 0-0.005v0c0-0.002 0-0.004 0-0.006 0-0.596 0.248-1.134 0.646-1.517l0.001-0.001 3.507-3.43c0.238-0.222 0.558-0.359 0.91-0.359 0.736 0 1.333 0.597 1.333 1.333 0 0.363-0.145 0.692-0.38 0.932l0-0-1.75 1.713h7.067c0.736 0 1.333 0.597 1.333 1.333v0zM32 22.667c0-0.001 0-0.002 0-0.003 0-0.582-0.237-1.109-0.62-1.49l-3.45-3.45c-0.243-0.255-0.586-0.414-0.966-0.414-0.736 0-1.333 0.597-1.333 1.333 0 0.381 0.159 0.724 0.415 0.967l0.001 0.001 1.73 1.723h-7.11c-0.736 0-1.333 0.597-1.333 1.333s0.597 1.333 1.333 1.333v0h7.033l-1.773 1.703c-0.253 0.243-0.411 0.585-0.411 0.963 0 0.737 0.597 1.334 1.334 1.334 0.359 0 0.684-0.141 0.924-0.371l-0 0 3.56-3.43c0.401-0.38 0.654-0.913 0.667-1.504l0-0.002v-0.027zM26 0h-24c-1.105 0-2 0.895-2 2v0 24c0 1.105 0.895 2 2 2v0h5.287c0.736 0 1.333-0.597 1.333-1.333s-0.597-1.333-1.333-1.333v0h-4.62v-16h22.667v4.667c0 0.736 0.597 1.333 1.333 1.333s1.333-0.597 1.333-1.333v0-12c0-1.105-0.895-2-2-2v0zM2.667 6.667v-4h22.667v4zM4.667 3.667c-0.552 0-1 0.448-1 1s0.448 1 1 1c0.552 0 1-0.448 1-1v0c0-0.552-0.448-1-1-1v0zM7.667 3.667c-0.552 0-1 0.448-1 1s0.448 1 1 1c0.552 0 1-0.448 1-1v0c0-0.552-0.448-1-1-1v0zM10.667 3.667c-0.552 0-1 0.448-1 1s0.448 1 1 1c0.552 0 1-0.448 1-1v0c0-0.552-0.448-1-1-1v0z"></path>
</svg>
