<svg xmlns="http://www.w3.org/2000/svg" width="32" height="32"><path d="M31.707 27.707l-4 4a1 1 0 0 1-1.414 0 1 1 0 0 1 0-1.414L28.586 28h-5.587a1 1 0 0 1 0-2h5.587l-2.293-2.293a1 1 0 0 1 1.414-1.413l-.001-.001 4 4c.045.046.087.096.124.15l.002.004.04.073c0 .033.037.063.05.097s.02.067.03.1a.56.56 0 0 1 .025.081l.001.006a.932.932 0 0 1-.001.4l.001-.006a.855.855 0 0 1-.029.093l.002-.006c0 .033 0 .067-.03.1s-.033.063-.05.097l-.04.073c-.04.057-.081.107-.127.153zM21 22h-5.587l2.293-2.293a1 1 0 0 0-1.414-1.413l.001-.001-4 4a1.123 1.123 0 0 0-.124.15l-.002.004-.04.073c-.017.033-.037.063-.05.097s-.02.067-.03.1a.56.56 0 0 0-.025.081l-.001.006a.932.932 0 0 0 .001.4l-.001-.006a.855.855 0 0 0 .029.093l-.002-.006c0 .033 0 .067.03.1s.033.063.05.097l.04.073c.04.057.081.107.127.153l4 4a1 1 0 0 0 1.414 0 1 1 0 0 0 0-1.414l-2.293-2.293h5.587a1 1 0 0 0 0-2zm9-21v14a1 1 0 0 1-2 0V8.667H2V26h6.667a1 1 0 0 1 0 2H1a1 1 0 0 1-1-1V1a1 1 0 0 1 1-1h28a1 1 0 0 1 1 1zm-2 5.667V2H2v4.667z"/></svg>