<svg xmlns="http://www.w3.org/2000/svg" viewBox="0 0 96 96"><path d="M70 80a4 4 0 0 1-4 4H44.79l5.26 5.14a4 4 0 1 1-5.59 5.72L33.93 84.57A6.34 6.34 0 0 1 32 80a6.31 6.31 0 0 1 1.94-4.57l10.52-10.29a4 4 0 0 1 5.59 5.72L44.8 76H66a4 4 0 0 1 4 4zm26-12a6.3 6.3 0 0 0-1.86-4.48L83.79 53.17a4 4 0 1 0-5.65 5.66L83.33 64H62a4 4 0 1 0 0 8h21.1l-5.32 5.11a4 4 0 0 0 5.54 5.78L94 72.6a6.4 6.4 0 0 0 2-4.52V68zM78 0H6a6 6 0 0 0-6 6v72a6 6 0 0 0 6 6h15.86a4 4 0 0 0 0-8H8V28h68v14a4 4 0 0 0 8 0V6a6 6 0 0 0-6-6zM8 20V8h68v12zm6-9a3 3 0 1 0 3 3 3 3 0 0 0-3-3zm9 0a3 3 0 1 0 3 3 3 3 0 0 0-3-3zm9 0a3 3 0 1 0 3 3 3 3 0 0 0-3-3z" fill="#333"/></svg>