<svg version="1.1" xmlns="http://www.w3.org/2000/svg" width="32" height="32" viewBox="0 0 32 32">
<title>link-remove</title>
<path fill="#333" d="M7.523 32c-0.003 0-0.007 0-0.011 0-1.467 0-2.795-0.595-3.756-1.557l-2.2-2.2c-0.961-0.965-1.556-2.295-1.556-3.765s0.594-2.8 1.556-3.765l5.83-5.83c0.243-0.256 0.587-0.416 0.967-0.416 0.736 0 1.333 0.597 1.333 1.333 0 0.38-0.159 0.722-0.414 0.965l-0.001 0-5.83 5.83c-0.479 0.482-0.775 1.146-0.775 1.88s0.296 1.398 0.776 1.88l2.2 2.2c0.482 0.48 1.147 0.777 1.882 0.777s1.399-0.297 1.882-0.777l-0 0 5.823-5.83c0.241-0.241 0.575-0.391 0.943-0.391 0.737 0 1.334 0.597 1.334 1.334 0 0.368-0.149 0.702-0.391 0.943l-5.827 5.83c-0.965 0.962-2.296 1.557-3.766 1.557-0 0-0.001 0-0.001 0h0zM24.613 17.117l5.83-5.83c0.961-0.965 1.556-2.295 1.556-3.765s-0.594-2.8-1.556-3.765l-2.2-2.2c-0.965-0.962-2.296-1.558-3.767-1.558s-2.802 0.595-3.767 1.558l-5.827 5.83c-0.241 0.241-0.391 0.575-0.391 0.943 0 0.737 0.597 1.334 1.334 1.334 0.368 0 0.702-0.149 0.943-0.391v0l5.827-5.83c0.482-0.48 1.147-0.777 1.882-0.777s1.399 0.297 1.882 0.777l2.2 2.2c0.479 0.482 0.775 1.146 0.775 1.88s-0.296 1.398-0.776 1.88l-5.833 5.83c-0.242 0.241-0.391 0.575-0.391 0.943 0 0.736 0.596 1.332 1.331 1.333h0c0 0 0.001 0 0.001 0 0.37 0 0.704-0.15 0.946-0.393l0-0zM8 11.667c0-0.736-0.597-1.333-1.333-1.333v0h-5.333c-0.736 0-1.333 0.597-1.333 1.333s0.597 1.333 1.333 1.333v0h5.333c0.736 0 1.333-0.597 1.333-1.333v0zM13 6.667v-5.333c0-0.736-0.597-1.333-1.333-1.333s-1.333 0.597-1.333 1.333v0 5.333c0 0.736 0.597 1.333 1.333 1.333s1.333-0.597 1.333-1.333v0zM32 20.333c0-0.736-0.597-1.333-1.333-1.333v0h-5.333c-0.736 0-1.333 0.597-1.333 1.333s0.597 1.333 1.333 1.333v0h5.333c0.736 0 1.333-0.597 1.333-1.333v0zM21.667 30.667v-5.333c0-0.736-0.597-1.333-1.333-1.333s-1.333 0.597-1.333 1.333v0 5.333c0 0.736 0.597 1.333 1.333 1.333s1.333-0.597 1.333-1.333v0z"></path>
</svg>
