<svg xmlns="http://www.w3.org/2000/svg" width="32" height="32"><path d="M11.743 32h-.015a3.73 3.73 0 0 1-2.632-6.373l1.373-1.367a3.71 3.71 0 0 1 1.338-.855l.026-.008a1 1 0 0 1 .674 1.879l-.007.002a1.745 1.745 0 0 0-.633.4l-1.37 1.367c-.315.313-.51.746-.51 1.225s.195.912.51 1.225a1.742 1.742 0 0 0 2.466 0l1.37-1.37c.165-.163.297-.36.386-.578l.004-.012a1.001 1.001 0 0 1 1.95.312.987.987 0 0 1-.093.421l.003-.006c-.196.5-.48.926-.836 1.28l-1.37 1.367a3.733 3.733 0 0 1-2.633 1.093h-.001zm1.63-3.957l6.667-6.667a1 1 0 1 0-1.413-1.414l-.001.001-6.667 6.667a1 1 0 0 0 0 1.414 1 1 0 0 0 1.414 0zm6.807-3.433c.528-.197.979-.49 1.354-.86l1.37-1.37c.677-.675 1.097-1.61 1.097-2.642s-.419-1.966-1.097-2.642c-.678-.675-1.613-1.092-2.645-1.092s-1.967.417-2.645 1.092l-1.37 1.37a3.672 3.672 0 0 0-.835 1.282l-.008.025a1 1 0 0 0 1.864.713l.003-.006a1.73 1.73 0 0 1 .4-.603l1.37-1.367c.316-.314.751-.508 1.232-.508s.916.194 1.232.508c.315.313.51.746.51 1.225s-.195.912-.51 1.225l-1.38 1.373a1.742 1.742 0 0 1-.615.393l-.012.004a1 1 0 0 0 .333 1.94c.127 0 .248-.024.36-.066l-.007.002zm10.943-17.9L25.293.877A2.99 2.99 0 0 0 23.174 0H4a4.012 4.012 0 0 0-2.827 1.17A3.967 3.967 0 0 0 0 3.992v24.009a4 4 0 0 0 4 4h1a1 1 0 0 0 0-2H4a2 2 0 0 1-2-2v-24-.008c0-.55.224-1.047.586-1.405a1.996 1.996 0 0 1 1.413-.587h18v5a3 3 0 0 0 3 3h5v18a2 2 0 0 1-2 2h-1a1 1 0 0 0 0 2h1a4 4 0 0 0 4-4V8.828v-.001c0-.827-.335-1.577-.877-2.119zM24 7V2.413L29.587 8H25a1 1 0 0 1-1-1z"/></svg>