<svg version="1.1" xmlns="http://www.w3.org/2000/svg" width="32" height="32" viewBox="0 0 32 32">
<title>link-content</title>
<path fill="#333" d="M29.307 15.56l-1.2-1.2c-0.636-0.635-1.514-1.028-2.483-1.028s-1.848 0.393-2.483 1.028l0-0-3.177 3.18c-0.633 0.633-1.025 1.508-1.025 2.474 0 0.231 0.022 0.456 0.065 0.674l-0.004-0.022c-0.201-0.041-0.431-0.064-0.667-0.064-0.961 0-1.831 0.387-2.463 1.015l0-0-3.18 3.183c-0.633 0.636-1.025 1.513-1.025 2.482s0.392 1.846 1.025 2.482l1.2 1.2c0.636 0.634 1.514 1.027 2.483 1.027s1.847-0.392 2.483-1.027l-0 0 3.177-3.18c0.634-0.632 1.027-1.506 1.027-2.471 0-0.228-0.022-0.451-0.064-0.667l0.004 0.022c0.2 0.040 0.431 0.063 0.666 0.063h0c0.001 0 0.002 0 0.004 0 0.964 0 1.837-0.39 2.47-1.020l-0 0 3.18-3.183c0.63-0.635 1.020-1.511 1.020-2.477 0-0.973-0.395-1.853-1.033-2.49l-0-0zM20.153 25.893l-3.18 3.18c-0.155 0.148-0.365 0.239-0.597 0.239s-0.442-0.091-0.597-0.24l0 0-1.203-1.2c-0.152-0.153-0.246-0.364-0.246-0.597s0.094-0.444 0.246-0.597l3.18-3.18c0.149-0.142 0.351-0.23 0.573-0.23 0.114 0 0.223 0.023 0.322 0.065l-0.005-0.002c0.062 0.023 0.136 0.042 0.212 0.056l0.008 0.001-2.2 2.207c-0.181 0.181-0.292 0.431-0.292 0.707 0 0.552 0.447 1 0.999 1h0c0.274-0.006 0.519-0.121 0.696-0.303l0-0 2.207-2.203c0.014 0.078 0.034 0.146 0.059 0.211l-0.003-0.008c0.040 0.094 0.063 0.203 0.063 0.318 0 0.23-0.093 0.438-0.243 0.589l0-0zM27.42 18.627l-3.18 3.18c-0.15 0.149-0.356 0.24-0.584 0.24-0.109 0-0.213-0.021-0.308-0.059l0.006 0.002c-0.062-0.023-0.136-0.042-0.212-0.056l-0.008-0.001 2.2-2.197c0.131-0.168 0.211-0.382 0.211-0.614 0-0.552-0.448-1-1-1-0.233 0-0.446 0.079-0.616 0.212l0.002-0.002-2.207 2.203c-0.014-0.078-0.034-0.146-0.059-0.211l0.003 0.008c-0.038-0.093-0.061-0.2-0.061-0.313 0-0.229 0.092-0.436 0.241-0.587l3.18-3.18c0.155-0.147 0.365-0.238 0.597-0.238s0.442 0.091 0.597 0.238l-0-0 1.203 1.2c0.149 0.152 0.241 0.361 0.241 0.592 0 0.232-0.093 0.442-0.244 0.595l0-0zM9 29.333h-6c-0.736 0-1.333-0.597-1.333-1.333v0-26.667c0-0.736 0.597-1.333 1.333-1.333v0h18.667c0.736 0 1.333 0.597 1.333 1.333v0 9.333c0 0.736-0.597 1.333-1.333 1.333s-1.333-0.597-1.333-1.333v0-8h-16v24h4.667c0.736 0 1.333 0.597 1.333 1.333s-0.597 1.333-1.333 1.333v0z"></path>
</svg>
