<svg xmlns="http://www.w3.org/2000/svg" width="32" height="32"><path d="M21 30a1 1 0 0 1-1-1v-2.667a1 1 0 0 1 2 0V29a1 1 0 0 1-1 1zm8.333-9a1 1 0 0 0-1-1h-2.667a1 1 0 0 0 0 2h2.667a1 1 0 0 0 1-1zm.374 8.707a1 1 0 0 0 0-1.414l-5.333-5.333a1 1 0 0 0-1.413 1.414l-.001-.001 5.333 5.333a1 1 0 0 0 1.414 0zM6.873 32h-.018a6.87 6.87 0 0 1-4.856-11.73l2.95-2.937a6.828 6.828 0 0 1 5.242-1.999l-.018-.001a1.002 1.002 0 0 1-.059 2.002l-.061-.002h.003a4.81 4.81 0 0 0-3.694 1.407l-2.937 2.937a4.88 4.88 0 0 0 6.906 6.896l2.937-2.937a4.828 4.828 0 0 0 1.396-3.707l.001.013a1 1 0 0 1 .937-1.056h.003l.062-.002a1 1 0 0 1 .998.939v.003a6.821 6.821 0 0 1-2 5.223l-2.937 2.95a6.79 6.79 0 0 1-4.822 2H6.87h.002zM27.05 14.667L30 11.734A6.884 6.884 0 0 0 20.263 2l-2.93 2.95a6.824 6.824 0 0 0-1.999 5.241l-.001-.018a1.002 1.002 0 0 0 2.002-.059l-.002-.061v.003a4.825 4.825 0 0 1 1.397-3.694l2.936-2.936a4.884 4.884 0 0 1 6.907 6.907l-2.937 2.937a4.828 4.828 0 0 1-3.71 1.396l.014.001a1.002 1.002 0 0 0-.119 2h.396a6.835 6.835 0 0 0 4.834-2zm-16.05-8a1 1 0 0 1-1-1V3a1 1 0 0 1 2 0v2.667a1 1 0 0 1-1 1zM7.333 11a1 1 0 0 0-1-1H3.666a1 1 0 0 0 0 2h2.667a1 1 0 0 0 1-1zM9.04 9.04a1 1 0 0 0 0-1.414L3.707 2.293a1 1 0 0 0-1.413 1.414l-.001-.001 5.333 5.333a1 1 0 0 0 1.414 0z"/></svg>