<svg xmlns="http://www.w3.org/2000/svg" width="32" height="32"><path d="M29.303 18.513a2.042 2.042 0 0 0-1.656-.847h-.032.002-2.453a1 1 0 0 0 0 2h2.503c-2.108 3.914-6.037 6.61-10.622 6.957l-.044.003V13.999h4a1 1 0 0 0 0-2h-4v-4.13c1.739-.46 3-2.019 3-3.873a4 4 0 1 0-5.028 3.867l.028.006v4.13h-4a1 1 0 0 0 0 2h4v12.627a13.171 13.171 0 0 1-10.632-6.89l-.034-.07h2.667a1 1 0 0 0 0-2H4.355c-.679 0-1.281.331-1.652.841l-.004.006c-.228.32-.365.72-.365 1.151 0 .349.089.677.246.962l-.005-.01c2.452 4.545 7.039 7.662 12.382 8.011l.045.002v2.37a1 1 0 0 0 2 0v-2.37a15.168 15.168 0 0 0 12.38-7.92l.04-.08a1.996 1.996 0 0 0-.121-2.123l.004.006zM14 4a2 2 0 1 1 2 2 2 2 0 0 1-2-2z"/></svg>