<?xml version="1.0" encoding="utf-8"?>
<!-- Generator: Adobe Illustrator 20.1.0, SVG Export Plug-In . SVG Version: 6.00 Build 0)  -->
<svg version="1.1" id="Layer_2" xmlns="http://www.w3.org/2000/svg" xmlns:xlink="http://www.w3.org/1999/xlink" x="0px" y="0px"
	 viewBox="0 0 72 72" style="enable-background:new 0 0 72 72;" xml:space="preserve">
<g>
	<g>
		<g>
			<path d="M15.9,72c-2.8,0-5.5-1.1-7.5-3.1l-5.3-5.3c-4.1-4.1-4.1-10.8,0-15l14-14c3.8-3.8,9.9-4.1,14.2-0.7c0.4,0.4,0.5,1,0.1,1.4
				c-0.3,0.4-1,0.5-1.4,0.1c-3.4-2.8-8.4-2.6-11.5,0.5l-14,14c-3.3,3.3-3.3,8.8,0,12.1l5.3,5.3c1.6,1.6,3.8,2.5,6.1,2.5
				s4.5-0.9,6.1-2.5l14-14c3.1-3.1,3.4-8.1,0.5-11.5c-0.4-0.4-0.3-1.1,0.1-1.4c0.4-0.4,1.1-0.3,1.4,0.1c3.5,4.2,3.2,10.3-0.7,14.2
				l-14,14C21.4,70.9,18.7,72,15.9,72z"/>
		</g>
		<g>
			<path d="M47.5,40.4c-2.4,0-4.8-0.8-6.7-2.4c-0.4-0.4-0.5-1-0.1-1.4c0.3-0.4,1-0.5,1.4-0.1c3.4,2.8,8.4,2.6,11.5-0.5l14-14
				c3.3-3.3,3.3-8.8,0-12.1l-5.3-5.3c-3.3-3.3-8.8-3.3-12.1,0l-14,14c-3.1,3.1-3.3,8.1-0.5,11.5c0.4,0.4,0.3,1.1-0.1,1.4
				c-0.4,0.4-1.1,0.3-1.4-0.1c-3.5-4.2-3.2-10.3,0.7-14.2l14-14c4.1-4.1,10.8-4.1,15,0l5.3,5.3c4.1,4.1,4.1,10.8,0,15l-14,14
				C52.9,39.4,50.2,40.4,47.5,40.4z"/>
		</g>
	</g>
	<g>
		<path d="M20.6,52.4c-0.3,0-0.5-0.1-0.7-0.3c-0.4-0.4-0.4-1,0-1.4l30.6-30.6c0.4-0.4,1-0.4,1.4,0s0.4,1,0,1.4L21.3,52.1
			C21.1,52.3,20.9,52.4,20.6,52.4z"/>
	</g>
</g>
</svg>
