<svg version="1.1" xmlns="http://www.w3.org/2000/svg" width="32" height="32" viewBox="0 0 32 32">
<title>link-anchor</title>
<path fill="#333" d="M29.467 17.6l-2.667-2c-0.22-0.166-0.498-0.267-0.8-0.267s-0.58 0.1-0.803 0.269l0.003-0.002-2.667 2c-0.325 0.246-0.533 0.632-0.533 1.067 0 0.736 0.597 1.333 1.333 1.333 0.302 0 0.58-0.1 0.803-0.269l-0.003 0.002 0.533-0.4c-0 4.316-3.155 7.895-7.284 8.557l-0.050 0.007v-14.563h2c0.736 0 1.333-0.597 1.333-1.333s-0.597-1.333-1.333-1.333v0h-2v-1.53c1.944-0.593 3.333-2.37 3.333-4.472 0-2.577-2.089-4.667-4.667-4.667s-4.667 2.089-4.667 4.667c0 2.102 1.39 3.879 3.3 4.463l0.033 0.009v1.53h-2c-0.736 0-1.333 0.597-1.333 1.333s0.597 1.333 1.333 1.333v0h2v14.563c-4.179-0.669-7.333-4.248-7.333-8.563v0l0.533 0.4c0.22 0.166 0.498 0.267 0.8 0.267 0.736 0 1.333-0.597 1.333-1.333 0-0.435-0.208-0.821-0.53-1.064l-0.003-0.002-2.667-2c-0.22-0.166-0.498-0.267-0.8-0.267s-0.58 0.1-0.803 0.269l0.003-0.002-2.667 2c-0.325 0.246-0.533 0.632-0.533 1.067 0 0.736 0.597 1.333 1.333 1.333 0.302 0 0.58-0.1 0.803-0.269l-0.003 0.002 0.533-0.4c0.008 5.786 4.345 10.556 9.945 11.248l0.055 0.006v0.080c0 0.736 0.597 1.333 1.333 1.333s1.333-0.597 1.333-1.333v0-0.080c5.655-0.697 9.992-5.467 10-11.252v-0.001l0.533 0.4c0.22 0.166 0.498 0.267 0.8 0.267 0.736 0 1.333-0.597 1.333-1.333 0-0.435-0.208-0.821-0.53-1.064l-0.003-0.002zM14 4.667c0-1.105 0.895-2 2-2s2 0.895 2 2c0 1.105-0.895 2-2 2v0c-1.105 0-2-0.895-2-2v0z"></path>
</svg>
