<svg xmlns="http://www.w3.org/2000/svg" width="32" height="32"><path d="M31 30H11a1 1 0 0 1 0-2h20a1 1 0 0 1 0 2zM6.25 25.067a1.702 1.702 0 0 0-.518-.576l-.005-.004a2.505 2.505 0 0 0-.799-.356l-.018-.004A4.016 4.016 0 0 0 3.893 24h-.042.002-.02a4.68 4.68 0 0 0-.773.064l.027-.004a4.377 4.377 0 0 0-.698.169l.031-.009a3.934 3.934 0 0 0-1.098.555l.012-.008.84 1.097c.087-.06.18-.123.287-.183a2.36 2.36 0 0 1 .334-.164l.016-.006c.114-.047.252-.092.394-.126l.019-.004c.136-.03.293-.047.454-.047h.041-.002a1.215 1.215 0 0 1 .826.236l-.003-.002a.827.827 0 0 1 .262.605l-.002.064v-.003.007c0 .153-.029.3-.083.434l.003-.008a.89.89 0 0 1-.274.332l-.002.002c-.149.107-.324.19-.513.238l-.011.002a3.277 3.277 0 0 1-.784.094h-.041.002-.547v1.157h.557l.08-.001c.285 0 .564.027.835.078l-.028-.004c.219.04.415.113.592.215l-.009-.005a.838.838 0 0 1 .331.329l.002.004a.92.92 0 0 1 .1.421v.014-.001a1.402 1.402 0 0 1-.09.47l.003-.01a.836.836 0 0 1-.255.369l-.001.001c-.136.11-.3.193-.478.238l-.009.002a2.899 2.899 0 0 1-.712.087l-.061-.001h.003-.026c-.167 0-.332-.011-.493-.032l.019.002a4.272 4.272 0 0 1-.556-.103l.03.006c-.18-.047-.36-.1-.54-.163a3.93 3.93 0 0 1-.531-.237l.021.01v1.4c.299.138.648.253 1.012.328l.031.005a6.27 6.27 0 0 0 1.152.103h.043-.002l.08.001c.46 0 .906-.065 1.327-.186l-.034.008c.371-.108.694-.28.972-.504l-.005.004c.245-.2.438-.452.565-.741l.005-.013c.118-.272.187-.589.187-.923v-.039.002a1.586 1.586 0 0 0-.489-1.226l-.001-.001a2.513 2.513 0 0 0-1.432-.573h-.008v-.03c.253-.06.475-.146.681-.257l-.015.007c.207-.109.384-.243.536-.402l.001-.001c.15-.158.272-.345.356-.552l.004-.012c.084-.209.133-.452.133-.706v-.022-.033c0-.275-.068-.534-.188-.761l.004.009zM31 18H11a1 1 0 0 1 0-2h20a1 1 0 0 1 0 2zm-24.333.597H3.44v-.073l.953-.957c.28-.277.547-.55.793-.817.234-.245.453-.509.652-.788l.015-.022c.171-.239.322-.513.438-.804l.009-.026c.101-.261.16-.562.16-.878v-.01-.037c0-.319-.063-.623-.176-.901l.006.016a1.945 1.945 0 0 0-.488-.699L5.8 12.6a2.232 2.232 0 0 0-.784-.439L5 12.157A3.094 3.094 0 0 0 4.019 12h-.02H4h-.047c-.29 0-.571.034-.841.099l.025-.005c-.27.06-.507.142-.73.249l.02-.009a3.524 3.524 0 0 0-.592.363l.009-.006c-.177.137-.333.277-.51.423l.91 1.087c.242-.223.513-.421.805-.586l.021-.011a1.71 1.71 0 0 1 .823-.21l.049-.001c.229 0 .438.084.599.222l-.001-.001a.788.788 0 0 1 .243.623v-.002.003c0 .238-.042.466-.118.678l.004-.014a2.824 2.824 0 0 1-.339.625l.006-.009a6.097 6.097 0 0 1-.498.625l.005-.005c-.19.213-.403.443-.64.697l-1.863 2v1.167h5.327zM31 6H11a1 1 0 0 1 0-2h20a1 1 0 0 1 0 2zM5.333 0h-1.4l-2.6 2.053.827 1.017.927-.737c.057-.043.113-.093.173-.147s.113-.11.17-.16l.15-.147.087-.1v.397c0 .144 0 .293-.017.437s0 .283 0 .417V8h1.683z"/></svg>