<svg version="1.1" xmlns="http://www.w3.org/2000/svg" width="32" height="32" viewBox="0 0 32 32">
<title>list-numbered</title>
<path fill="#333" d="M27.5 28h-16c-0.736 0-1.333-0.597-1.333-1.333s0.597-1.333 1.333-1.333v0h16c0.736 0 1.333 0.597 1.333 1.333s-0.597 1.333-1.333 1.333v0zM28.833 16c0-0.736-0.597-1.333-1.333-1.333v0h-16c-0.736 0-1.333 0.597-1.333 1.333s0.597 1.333 1.333 1.333v0h16c0.736 0 1.333-0.597 1.333-1.333v0zM28.833 5.333c0-0.736-0.597-1.333-1.333-1.333v0h-16c-0.736 0-1.333 0.597-1.333 1.333s0.597 1.333 1.333 1.333v0h16c0.736 0 1.333-0.597 1.333-1.333v0zM8.083 23.733c-0.13-0.235-0.307-0.429-0.518-0.576l-0.005-0.004c-0.234-0.159-0.506-0.283-0.799-0.356l-0.018-0.004c-0.305-0.081-0.655-0.127-1.017-0.127-0.014 0-0.028 0-0.042 0l0.002-0c-0.006-0-0.013-0-0.020-0-0.263 0-0.522 0.022-0.773 0.064l0.027-0.004c-0.256 0.041-0.481 0.097-0.698 0.169l0.031-0.009c-0.411 0.137-0.768 0.322-1.088 0.555l0.012-0.008 0.84 1.097c0.087-0.060 0.18-0.123 0.287-0.183 0.102-0.060 0.222-0.117 0.347-0.164l0.017-0.006c0.114-0.047 0.252-0.092 0.394-0.126l0.019-0.004c0.136-0.030 0.292-0.047 0.453-0.047 0.006 0 0.012 0 0.018 0h-0.001c0.029-0.003 0.064-0.004 0.098-0.004 0.273 0 0.525 0.089 0.728 0.24l-0.003-0.002c0.162 0.152 0.262 0.367 0.262 0.605 0 0.022-0.001 0.043-0.002 0.064l0-0.003c0 0.002 0 0.004 0 0.007 0 0.153-0.029 0.3-0.083 0.434l0.003-0.008c-0.065 0.135-0.159 0.247-0.274 0.332l-0.002 0.002c-0.149 0.107-0.324 0.19-0.513 0.238l-0.011 0.002c-0.228 0.055-0.489 0.087-0.758 0.087-0.023 0-0.046-0-0.069-0.001l0.003 0h-0.547v1.157h0.557c0.024-0 0.052-0.001 0.080-0.001 0.285 0 0.564 0.027 0.835 0.078l-0.028-0.004c0.219 0.040 0.415 0.113 0.592 0.215l-0.009-0.005c0.142 0.078 0.255 0.192 0.331 0.329l0.002 0.004c0.063 0.122 0.1 0.267 0.1 0.421 0 0.005-0 0.009-0 0.014v-0.001c-0.003 0.168-0.034 0.328-0.090 0.476l0.003-0.010c-0.054 0.149-0.145 0.274-0.262 0.369l-0.002 0.001c-0.136 0.11-0.3 0.193-0.478 0.238l-0.009 0.002c-0.214 0.055-0.459 0.087-0.712 0.087-0.020 0-0.040-0-0.061-0.001l0.003 0c-0.174-0-0.345-0.012-0.513-0.036l0.020 0.002c-0.203-0.025-0.382-0.058-0.556-0.103l0.030 0.006c-0.18-0.047-0.36-0.1-0.54-0.163-0.201-0.072-0.37-0.147-0.531-0.234l0.021 0.010v1.4c0.299 0.138 0.648 0.253 1.012 0.328l0.031 0.005c0.346 0.066 0.745 0.103 1.152 0.103 0.014 0 0.029-0 0.043-0h-0.002c0.024 0 0.052 0.001 0.080 0.001 0.46 0 0.906-0.065 1.327-0.186l-0.034 0.008c0.371-0.108 0.694-0.28 0.972-0.504l-0.005 0.004c0.245-0.2 0.438-0.452 0.565-0.741l0.005-0.013c0.118-0.272 0.187-0.589 0.187-0.922 0-0.007-0-0.015-0-0.022v0.001c0.001-0.025 0.002-0.054 0.002-0.084 0-0.457-0.193-0.869-0.501-1.159l-0.001-0.001c-0.391-0.325-0.888-0.535-1.432-0.573l-0.008-0v-0.030c0.253-0.060 0.475-0.146 0.681-0.257l-0.015 0.007c0.207-0.109 0.384-0.243 0.536-0.402l0.001-0.001c0.15-0.158 0.272-0.345 0.356-0.552l0.004-0.012c0.084-0.209 0.133-0.452 0.133-0.706 0-0.007-0-0.015-0-0.022v0.001c0.001-0.016 0.001-0.034 0.001-0.053 0-0.268-0.064-0.52-0.178-0.743l0.004 0.009zM8.5 18.597h-3.227v-0.073l0.953-0.957c0.28-0.277 0.547-0.55 0.793-0.817 0.234-0.245 0.453-0.509 0.652-0.788l0.015-0.022c0.171-0.239 0.322-0.513 0.438-0.804l0.009-0.026c0.101-0.261 0.16-0.562 0.16-0.878 0-0.003 0-0.006-0-0.010v0.001c0-0.011 0-0.025 0-0.038 0-0.319-0.063-0.623-0.176-0.901l0.006 0.016c-0.114-0.276-0.281-0.51-0.488-0.699l-0.002-0.001c-0.216-0.191-0.473-0.342-0.754-0.439l-0.016-0.005c-0.293-0.1-0.631-0.157-0.982-0.157-0.019 0-0.038 0-0.057 0.001l0.003-0c-0.014-0-0.030-0-0.047-0-0.29 0-0.571 0.034-0.841 0.099l0.025-0.005c-0.268 0.065-0.502 0.152-0.723 0.262l0.019-0.009c-0.227 0.108-0.421 0.227-0.602 0.363l0.009-0.006c-0.177 0.137-0.333 0.277-0.51 0.423l0.91 1.073c0.242-0.223 0.513-0.421 0.805-0.586l0.021-0.011c0.238-0.132 0.521-0.209 0.823-0.21h0c0.015-0.001 0.032-0.001 0.049-0.001 0.229 0 0.438 0.084 0.598 0.222l-0.001-0.001c0.151 0.144 0.245 0.347 0.245 0.572 0 0.017-0.001 0.034-0.002 0.051l0-0.002c0 0.001 0 0.002 0 0.003 0 0.238-0.042 0.466-0.118 0.678l0.004-0.014c-0.093 0.236-0.205 0.439-0.339 0.625l0.006-0.009c-0.162 0.232-0.324 0.434-0.498 0.625l0.005-0.005c-0.19 0.213-0.403 0.443-0.64 0.697l-1.863 2v1.167h5.337zM7.5 1.333h-1.4l-2.6 2.053 0.833 1.017 0.92-0.737c0.057-0.043 0.113-0.093 0.173-0.147l0.17-0.16 0.15-0.147 0.093-0.097v0.397c0 0.143 0 0.293-0.017 0.437s0 0.283 0 0.417v4.967h1.677z"></path>
</svg>
