<svg xmlns="http://www.w3.org/2000/svg" viewBox="0 0 96 96"><path d="M82.5 84h-48a4 4 0 0 1 0-8h48a4 4 0 0 1 0 8zm4-36a4 4 0 0 0-4-4h-48a4 4 0 0 0 0 8h48a4 4 0 0 0 4-4zm0-32a4 4 0 0 0-4-4h-48a4 4 0 0 0 0 8h48a4 4 0 0 0 4-4zM24.25 71.2a5.1 5.1 0 0 0-1.57-1.74 7.65 7.65 0 0 0-2.45-1.08 12.41 12.41 0 0 0-3.17-.38 14 14 0 0 0-2.3.18 13.27 13.27 0 0 0-2 .48 11.9 11.9 0 0 0-3.23 1.64l2.52 3.29c.26-.18.54-.37.86-.55a7.31 7.31 0 0 1 1.09-.51 8.58 8.58 0 0 1 1.24-.39 6.65 6.65 0 0 1 1.41-.14 3.68 3.68 0 0 1 2.47.7 2.49 2.49 0 0 1 .78 2 3.53 3.53 0 0 1-.24 1.3 2.59 2.59 0 0 1-.83 1 4.58 4.58 0 0 1-1.57.72 10 10 0 0 1-2.47.26h-1.64v3.47h1.67a13.3 13.3 0 0 1 2.66.22 5.55 5.55 0 0 1 1.75.63 2.48 2.48 0 0 1 1 1 2.8 2.8 0 0 1 .3 1.3 4.25 4.25 0 0 1-.26 1.4 2.5 2.5 0 0 1-.79 1.11 3.76 3.76 0 0 1-1.46.72 8.86 8.86 0 0 1-2.31.26 11.26 11.26 0 0 1-1.48-.1 12.84 12.84 0 0 1-1.58-.29c-.54-.14-1.08-.3-1.62-.49a11.78 11.78 0 0 1-1.53-.67v4.2a14.63 14.63 0 0 0 3.13 1 19.4 19.4 0 0 0 3.58.31 14.41 14.41 0 0 0 4.12-.53 8.28 8.28 0 0 0 2.9-1.5 5.93 5.93 0 0 0 1.71-2.26 7.11 7.11 0 0 0 .56-2.83A4.77 4.77 0 0 0 24 81.2a7.6 7.6 0 0 0-4.32-1.72v-.09a8.33 8.33 0 0 0 2-.75 6.08 6.08 0 0 0 1.61-1.21 5.31 5.31 0 0 0 1.08-1.69 5.8 5.8 0 0 0 .4-2.18 4.9 4.9 0 0 0-.52-2.36zm1.25-15.41h-9.68v-.22l2.86-2.87c.84-.83 1.64-1.65 2.38-2.45a21.18 21.18 0 0 0 2-2.43 11.61 11.61 0 0 0 1.34-2.49 7.46 7.46 0 0 0 .48-2.66 7.16 7.16 0 0 0-.51-2.77 5.78 5.78 0 0 0-1.47-2.1 6.73 6.73 0 0 0-2.31-1.33 9.45 9.45 0 0 0-3.11-.47 10.82 10.82 0 0 0-2.59.28 10.1 10.1 0 0 0-2.11.76A10.48 10.48 0 0 0 11 38.11c-.53.41-1 .83-1.53 1.27l2.73 3.22a12.83 12.83 0 0 1 2.48-1.79 5.21 5.21 0 0 1 2.47-.63 2.75 2.75 0 0 1 1.94.66 2.37 2.37 0 0 1 .73 1.86 6 6 0 0 1-.34 2 8.6 8.6 0 0 1-1 1.85A18.76 18.76 0 0 1 17 48.41c-.57.64-1.21 1.33-1.92 2.09l-5.59 6V60H25.5zM22.5 4h-4.2l-7.8 6.16 2.5 3.05L15.76 11c.17-.13.34-.28.52-.44l.51-.48.45-.44.28-.29v1.19c0 .43 0 .88-.05 1.31s0 .85 0 1.25V28h5.03z" fill="#333"/></svg>