<svg version="1.1" xmlns="http://www.w3.org/2000/svg" width="32" height="32" viewBox="0 0 32 32">
<title>list</title>
<path fill="#333" d="M28.333 6.667h-16c-0.736 0-1.333-0.597-1.333-1.333s0.597-1.333 1.333-1.333v0h16c0.736 0 1.333 0.597 1.333 1.333s-0.597 1.333-1.333 1.333v0zM29.667 16c0-0.736-0.597-1.333-1.333-1.333v0h-16c-0.736 0-1.333 0.597-1.333 1.333s0.597 1.333 1.333 1.333v0h16c0.736 0 1.333-0.597 1.333-1.333v0zM29.667 26.667c0-0.736-0.597-1.333-1.333-1.333v0h-16c-0.736 0-1.333 0.597-1.333 1.333s0.597 1.333 1.333 1.333v0h16c0.736 0 1.333-0.597 1.333-1.333v0zM5.667 23.333c-1.841 0-3.333 1.492-3.333 3.333s1.492 3.333 3.333 3.333c1.841 0 3.333-1.492 3.333-3.333v0c0-1.841-1.492-3.333-3.333-3.333v0zM5.667 12.667c-1.841 0-3.333 1.492-3.333 3.333s1.492 3.333 3.333 3.333c1.841 0 3.333-1.492 3.333-3.333v0c0-1.841-1.492-3.333-3.333-3.333v0zM5.667 2c-1.841 0-3.333 1.492-3.333 3.333s1.492 3.333 3.333 3.333c1.841 0 3.333-1.492 3.333-3.333v0c0-1.841-1.492-3.333-3.333-3.333v0z"></path>
</svg>
