<svg version="1.1" xmlns="http://www.w3.org/2000/svg" width="32" height="32" viewBox="0 0 32 32">
<title>list-numbered</title>
<path fill="#333" d="M7.473 23.61c0 0.006 0 0.014 0 0.021 0 0.204-0.037 0.4-0.104 0.581l0.004-0.012c-0.066 0.181-0.161 0.336-0.281 0.468l0.001-0.001c-0.119 0.134-0.26 0.246-0.419 0.329l-0.008 0.004c-0.162 0.081-0.35 0.143-0.548 0.178l-0.013 0.002v0.027c0.452 0.032 0.857 0.215 1.168 0.498l-0.002-0.001c0.244 0.256 0.394 0.604 0.394 0.987 0 0.015-0 0.030-0.001 0.045l0-0.002c0 0.007 0 0.016 0 0.024 0 0.272-0.051 0.531-0.145 0.77l0.005-0.014c-0.098 0.242-0.243 0.448-0.425 0.612l-0.001 0.001c-0.203 0.175-0.444 0.311-0.709 0.393l-0.014 0.004c-0.288 0.092-0.62 0.144-0.964 0.144-0.028 0-0.056-0-0.083-0.001l0.004 0c-0.005 0-0.011 0-0.018 0-0.308 0-0.61-0.028-0.903-0.081l0.031 0.005c-0.291-0.048-0.552-0.138-0.791-0.263l0.014 0.007v-0.77c0.234 0.128 0.506 0.235 0.792 0.308l0.025 0.005c0.253 0.073 0.545 0.117 0.846 0.123l0.004 0c0.238-0.001 0.467-0.037 0.683-0.104l-0.017 0.004c0.184-0.053 0.343-0.14 0.479-0.255l-0.002 0.002c0.124-0.106 0.219-0.242 0.275-0.397l0.002-0.007c0.057-0.154 0.090-0.331 0.090-0.516 0-0.007-0-0.014-0-0.022v0.001c0-0.010 0-0.022 0-0.033 0-0.176-0.042-0.343-0.117-0.49l0.003 0.006c-0.082-0.146-0.194-0.266-0.33-0.354l-0.004-0.002c-0.148-0.093-0.321-0.165-0.506-0.205l-0.011-0.002c-0.196-0.040-0.422-0.064-0.653-0.064-0.014 0-0.028 0-0.042 0l0.002-0h-0.553v-0.667h0.573c0.010 0 0.021 0 0.032 0 0.211 0 0.414-0.033 0.605-0.094l-0.014 0.004c0.177-0.054 0.329-0.141 0.458-0.255l-0.001 0.001c0.119-0.106 0.214-0.236 0.277-0.383l0.003-0.007c0.063-0.146 0.1-0.316 0.1-0.494 0-0.001 0-0.002 0-0.003v0c0-0.005 0-0.010 0-0.016 0-0.144-0.029-0.28-0.083-0.404l0.003 0.007c-0.051-0.122-0.125-0.224-0.219-0.306l-0.001-0.001c-0.093-0.085-0.204-0.151-0.327-0.191l-0.006-0.002c-0.128-0.042-0.274-0.067-0.427-0.067-0.005 0-0.009 0-0.014 0h0.001c-0.011-0-0.025-0-0.038-0-0.28 0-0.548 0.054-0.793 0.152l0.014-0.005c-0.254 0.112-0.474 0.243-0.675 0.396l0.008-0.006-0.417-0.557c0.108-0.092 0.228-0.178 0.355-0.253l0.012-0.006c0.124-0.075 0.268-0.146 0.418-0.204l0.019-0.006c0.139-0.054 0.308-0.103 0.482-0.14l0.022-0.004c0.166-0.034 0.356-0.053 0.551-0.053 0.010 0 0.021 0 0.031 0h-0.002c0.014-0 0.032-0 0.049-0 0.276 0 0.541 0.044 0.789 0.126l-0.018-0.005c0.228 0.073 0.425 0.187 0.592 0.335l-0.002-0.002c0.155 0.138 0.277 0.308 0.357 0.501l0.003 0.009c0.078 0.189 0.123 0.408 0.123 0.637 0 0.003 0 0.007-0 0.010v-0.001zM7.667 19.333h-4v-0.7l1.537-1.713 0.587-0.667c0.153-0.174 0.298-0.366 0.428-0.568l0.012-0.019c0.107-0.166 0.201-0.358 0.274-0.56l0.006-0.020c0.061-0.184 0.097-0.395 0.097-0.614 0-0.005-0-0.011-0-0.016v0.001c0-0.002 0-0.004 0-0.006 0-0.162-0.028-0.316-0.080-0.46l0.003 0.009c-0.051-0.13-0.123-0.241-0.214-0.334l0 0c-0.092-0.092-0.203-0.165-0.327-0.211l-0.006-0.002c-0.119-0.044-0.257-0.070-0.401-0.070-0.007 0-0.013 0-0.020 0h0.001c-0.007-0-0.016-0-0.025-0-0.266 0-0.517 0.064-0.738 0.178l0.009-0.004c-0.242 0.127-0.451 0.273-0.639 0.442l0.003-0.002-0.447-0.533c0.113-0.104 0.236-0.204 0.365-0.296l0.012-0.008c0.125-0.088 0.267-0.17 0.416-0.24l0.017-0.007c0.138-0.062 0.303-0.118 0.473-0.159l0.020-0.004c0.163-0.047 0.352-0.077 0.546-0.083l0.004-0c0.009-0 0.020-0 0.031-0 0.261 0 0.512 0.044 0.745 0.125l-0.016-0.005c0.223 0.075 0.415 0.189 0.578 0.335l-0.002-0.001c0.157 0.152 0.281 0.337 0.363 0.543l0.004 0.011c0.082 0.209 0.13 0.451 0.13 0.704 0 0.010-0 0.020-0 0.031l0-0.002c0 0.002 0 0.005 0 0.008 0 0.258-0.043 0.507-0.121 0.738l0.005-0.016c-0.094 0.255-0.207 0.475-0.341 0.679l0.008-0.012c-0.16 0.252-0.32 0.47-0.494 0.675l0.007-0.009c-0.19 0.223-0.393 0.457-0.613 0.7l-1.233 1.333v0.037h3.037zM6.667 10h-0.88v-5.81l-0.12 0.143-0.133 0.113-0.143 0.117-0.18 0.143-0.74 0.55-0.47-0.56 1.917-1.363h0.75zM28.333 25.333c0-0.736-0.597-1.333-1.333-1.333v0h-16c-0.736 0-1.333 0.597-1.333 1.333s0.597 1.333 1.333 1.333v0h16c0.736 0 1.333-0.597 1.333-1.333v0zM28.333 16c0-0.736-0.597-1.333-1.333-1.333v0h-16c-0.736 0-1.333 0.597-1.333 1.333s0.597 1.333 1.333 1.333v0h16c0.736 0 1.333-0.597 1.333-1.333v0zM28.333 6.667c0-0.736-0.597-1.333-1.333-1.333v0h-16c-0.736 0-1.333 0.597-1.333 1.333s0.597 1.333 1.333 1.333v0h16c0.736 0 1.333-0.597 1.333-1.333v0z"></path>
</svg>
