<?xml version="1.0" encoding="utf-8"?>
<!-- Generator: Adobe Illustrator 20.1.0, SVG Export Plug-In . SVG Version: 6.00 Build 0)  -->
<svg version="1.1" id="Layer_1" xmlns="http://www.w3.org/2000/svg" xmlns:xlink="http://www.w3.org/1999/xlink" x="0px" y="0px"
	 viewBox="0 0 72 72" style="enable-background:new 0 0 72 72;" xml:space="preserve">
<g>
	<g>
		<g>
			<path d="M68.5,64h-51c-0.6,0-1-0.4-1-1s0.4-1,1-1h51c0.6,0,1,0.4,1,1S69,64,68.5,64z"/>
		</g>
		<g>
			<path d="M68.5,50.1h-51c-0.6,0-1-0.4-1-1s0.4-1,1-1h51c0.6,0,1,0.4,1,1S69,50.1,68.5,50.1z"/>
		</g>
		<g>
			<path d="M68.5,37.1h-51c-0.6,0-1-0.4-1-1s0.4-1,1-1h51c0.6,0,1,0.4,1,1S69,37.1,68.5,37.1z"/>
		</g>
		<g>
			<path d="M68.5,24.1h-51c-0.6,0-1-0.4-1-1s0.4-1,1-1h51c0.6,0,1,0.4,1,1S69,24.1,68.5,24.1z"/>
		</g>
		<g>
			<path d="M68.5,10h-51c-0.6,0-1-0.4-1-1s0.4-1,1-1h51c0.6,0,1,0.4,1,1S69,10,68.5,10z"/>
		</g>
	</g>
	<g>
		<circle cx="6.5" cy="63" r="3"/>
		<circle cx="6.5" cy="49.1" r="3"/>
		<circle cx="6.5" cy="36" r="3"/>
		<circle cx="6.5" cy="23.1" r="3"/>
		<circle cx="6.5" cy="9.1" r="3"/>
	</g>
</g>
</svg>
