<?xml version="1.0" encoding="UTF-8"?>
<svg width="33px" height="33px" viewBox="0 0 33 33" version="1.1" xmlns="http://www.w3.org/2000/svg" xmlns:xlink="http://www.w3.org/1999/xlink">
    <title>Combined-Shape</title>
    <g id="Page-1" stroke="none" stroke-width="1" fill="none" fill-rule="evenodd">
        <g id="localize" transform="translate(0.157455, 0.314182)" fill="#131C26" fill-rule="nonzero">
            <path d="M16,0 C16.5770145,0 17.0450548,0.468040278 17.0450548,1.04505476 L17.0456718,5.10129525 C22.2205852,5.59942401 26.3262194,9.75634138 26.7446698,14.9541428 L30.9549452,14.9549452 C31.5319597,14.9549452 32,15.4229855 32,16 C32,16.5770145 31.5319597,17.0450548 30.9549452,17.0450548 L26.7121666,17.0455528 C26.1471497,22.0848245 22.1080504,26.07351 17.0456718,26.5608063 L17.0450548,30.9549452 C17.0450548,31.5319597 16.5770145,32 16,32 C15.4229855,32 14.9549452,31.5319597 14.9549452,30.9549452 L14.9549452,30.9549452 L14.9543282,26.5608063 C9.8919496,26.07351 5.85285034,22.0848245 5.28783345,17.0455528 L1.04505476,17.0450548 C0.468040278,17.0450548 1.77635684e-15,16.5770145 1.77635684e-15,16 C1.77635684e-15,15.4229855 0.468040278,14.9549452 1.04505476,14.9549452 L1.04505476,14.9549452 L5.25533023,14.9541428 C5.67378058,9.75634138 9.77941476,5.59942401 14.9543282,5.10129525 L14.9549452,1.04505476 C14.9549452,0.468040278 15.4229855,0 16,0 Z M16,7.20719309 C11.2371749,7.20719309 7.37614232,11.0682257 7.37614232,15.8310508 C7.37614232,20.5938759 11.2371749,24.4549085 16,24.4549085 C20.7628251,24.4549085 24.6238577,20.5938759 24.6238577,15.8310508 C24.6238577,11.0682257 20.7628251,7.20719309 16,7.20719309 Z M16,12.5971041 C17.7860594,12.5971041 19.2339466,14.0449914 19.2339466,15.8310508 C19.2339466,17.6171102 17.7860594,19.0649974 16,19.0649974 C14.2139406,19.0649974 12.7660534,17.6171102 12.7660534,15.8310508 C12.7660534,14.0449914 14.2139406,12.5971041 16,12.5971041 Z" id="Combined-Shape"></path>
        </g>
    </g>
</svg>