<svg xmlns="http://www.w3.org/2000/svg" width="32" height="32"><path d="M21.333 14.667a7.333 7.333 0 1 1 7.333-7.333 7.333 7.333 0 0 1-7.333 7.333zm0-12.667a5.333 5.333 0 1 0 5.333 5.333A5.333 5.333 0 0 0 21.333 2zm3 4.333h-2v-2a1 1 0 0 0-2 0v2h-2a1 1 0 0 0 0 2h2v2a1 1 0 0 0 2 0v-2h2a1 1 0 0 0 0-2zM29.857 20h-6.48l-1.667-1.457A2.205 2.205 0 0 0 20.255 18h-4.111l-.068-.001c-1.12 0-2.033.887-2.075 1.997V26h-9.5c-1.667 0-2.5-.693-2.5-.857v-14.81h9a1 1 0 0 0 0-2h-9V1a1 1 0 0 0-2 0v24.143c0 1.63 1.933 2.857 4.5 2.857h9.5v2a2.077 2.077 0 0 0 2.075 2.001l.072-.001h-.003 13.713l.068.001c1.12 0 2.033-.887 2.075-1.997V22a2.077 2.077 0 0 0-2.147-2h.003zM30 29.96a.243.243 0 0 1-.134.04H16.134a.242.242 0 0 1-.135-.041l.001.001v-9.92a.243.243 0 0 1 .134-.04H20.252c.052 0 .101.018.14.047h-.001l1.943 1.707a.996.996 0 0 0 .658.247H29.866c.05 0 .096.015.135.041L30 22.041z"/></svg>