<svg version="1.1" xmlns="http://www.w3.org/2000/svg" width="32" height="32" viewBox="0 0 32 32">
<title>location-add-new</title>
<path fill="#333" d="M30 24h-12c-1.105 0-2 0.895-2 2v0 0.667h-5.333v-9.333h4v-2.667h-4v-5.333h6c1.105 0 2-0.895 2-2v0-5.333c0-1.105-0.895-2-2-2v0h-14.667c-1.105 0-2 0.895-2 2v0 5.333c0 1.105 0.895 2 2 2v0h6v18.667c0 0.736 0.597 1.333 1.333 1.333v0h6.667v0.667c0 1.105 0.895 2 2 2v0h12c1.105 0 2-0.895 2-2v0-4c0-1.105-0.895-2-2-2v0zM2.667 2.667h13.333v4h-13.333zM29.333 29.333h-10.667v-2.667h10.667zM26.667 16c0 0.736-0.597 1.333-1.333 1.333v0h-2.667v2.667c0 0.736-0.597 1.333-1.333 1.333s-1.333-0.597-1.333-1.333v0-2.667h-2.667c-0.736 0-1.333-0.597-1.333-1.333s0.597-1.333 1.333-1.333v0h2.667v-2.667c0-0.736 0.597-1.333 1.333-1.333s1.333 0.597 1.333 1.333v0 2.667h2.667c0.736 0 1.333 0.597 1.333 1.333v0z"></path>
</svg>
