<svg version="1.1" xmlns="http://www.w3.org/2000/svg" width="32" height="32" viewBox="0 0 32 32">
<title>lock</title>
<path fill="#333" d="M26 13.333h-0.667v-7.057c-0.006-3.464-2.812-6.271-6.276-6.277h-6.247c-3.391 0.004-6.14 2.752-6.143 6.143v7.19h-0.667c-1.473 0-2.667 1.194-2.667 2.667v0 13.333c0 1.473 1.194 2.667 2.667 2.667v0h20c1.473 0 2.667-1.194 2.667-2.667v0-13.333c0-1.473-1.194-2.667-2.667-2.667v0zM9.333 6.143c0.002-1.919 1.557-3.475 3.476-3.477h6.247c1.993 0.002 3.608 1.617 3.61 3.61v7.057h-13.333zM6 29.333v-13.333h20v13.333zM17.797 23.42c-0.020 0.013-0.036 0.033-0.043 0.056l-0 0.001c0.134 0.222 0.213 0.49 0.213 0.777 0 0 0 0 0 0v0c-0.010 0.517-0.254 0.975-0.63 1.274l-0.003 0.003c-0.357 0.293-0.818 0.47-1.321 0.47-0.005 0-0.009 0-0.013-0h0.001c-0.153-0-0.303-0.015-0.448-0.042l0.015 0.002c-0.696-0.119-1.254-0.608-1.47-1.253l-0.004-0.013c-0.041-0.131-0.064-0.282-0.064-0.438 0-0.271 0.071-0.526 0.195-0.746l-0.004 0.008c0-0.030 0.023-0.063-0.027-0.103-0.525-0.404-0.86-1.032-0.86-1.738 0-0.18 0.022-0.356 0.063-0.523l-0.003 0.015c0.283-0.932 1.064-1.627 2.025-1.781l0.015-0.002c0.17-0.035 0.365-0.055 0.564-0.055 0.698 0 1.339 0.245 1.841 0.653l-0.005-0.004c0.503 0.404 0.825 1.017 0.833 1.705v0.001c-0.012 0.706-0.348 1.33-0.865 1.733l-0.005 0.004z"></path>
</svg>
