<svg version="1.1" xmlns="http://www.w3.org/2000/svg" width="32" height="32" viewBox="0 0 32 32">
<title>lock</title>
<path fill="#333" d="M20 22.667c0 2.209-1.791 4-4 4s-4-1.791-4-4c0-2.209 1.791-4 4-4v0c2.209 0 4 1.791 4 4v0zM28.667 16v13.333c0 1.473-1.194 2.667-2.667 2.667v0h-20c-1.473 0-2.667-1.194-2.667-2.667v0-13.333c0-1.473 1.194-2.667 2.667-2.667v0h0.667v-7.19c0.004-3.391 2.752-6.14 6.143-6.143h6.247c3.464 0.006 6.271 2.812 6.277 6.276v7.057h0.667c1.473 0 2.667 1.194 2.667 2.667v0zM9.333 13.333h13.333v-7.057c-0.002-1.993-1.617-3.608-3.61-3.61h-6.247c-1.919 0.002-3.475 1.557-3.477 3.477v0zM26 29.333v-13.333h-20v13.333z"></path>
</svg>
