<?xml version="1.0" encoding="utf-8"?>
<!-- Generator: Adobe Illustrator 20.1.0, SVG Export Plug-In . SVG Version: 6.00 Build 0)  -->
<svg version="1.1" id="Layer_1" xmlns="http://www.w3.org/2000/svg" xmlns:xlink="http://www.w3.org/1999/xlink" x="0px" y="0px"
	 viewBox="0 0 72 72" style="enable-background:new 0 0 72 72;" xml:space="preserve">
<g>
	<g>
		<path d="M59,72H13c-2.8,0-5-2.2-5-5V35c0-2.8,2.2-5,5-5h4V17c0-9.4,7.6-17,16.9-17h4.1C47.4,0,55,7.6,55,17v13h4c2.8,0,5,2.2,5,5
			v32C64,69.8,61.8,72,59,72z M13,32c-1.7,0-3,1.3-3,3v32c0,1.7,1.3,3,3,3h46c1.7,0,3-1.3,3-3V35c0-1.7-1.3-3-3-3H13z M19,30h34V17
			c0-8.3-6.7-15-14.9-15h-4.1C25.7,2,19,8.7,19,17V30z"/>
	</g>
	<g>
		<path d="M39.4,51.8c-0.3,0.3-0.5,0.8-0.3,1.2c0.2,0.5,0.4,1,0.4,1.5c0,2.2-2,3.9-4.3,3.4c-1.3-0.3-2.3-1.3-2.6-2.6
			c-0.2-0.8-0.1-1.6,0.2-2.3c0.2-0.4,0.1-1-0.2-1.3c-1.2-1.1-1.9-2.9-1.5-4.7c0.4-1.9,1.9-3.4,3.8-3.8c3.2-0.7,6.1,1.8,6.1,4.9
			C41,49.6,40.4,50.9,39.4,51.8z"/>
		<path d="M36,59.1c-0.3,0-0.7,0-1-0.1c-1.6-0.4-3-1.7-3.4-3.3c-0.2-1-0.2-2,0.3-3c0-0.1,0-0.1,0-0.1c-1.6-1.5-2.2-3.6-1.8-5.7
			c0.5-2.3,2.3-4.1,4.6-4.6c1.8-0.4,3.7,0.1,5.1,1.2c1.4,1.1,2.2,2.8,2.2,4.7c0,1.7-0.7,3.3-1.9,4.4c0,0,0,0.1,0,0.1
			c0.3,0.6,0.5,1.2,0.5,1.9c0,1.4-0.6,2.7-1.7,3.5C38,58.7,37,59.1,36,59.1z M36,44.1c-0.3,0-0.6,0-0.9,0.1c-1.5,0.3-2.7,1.5-3,3
			c-0.3,1.4,0.1,2.8,1.2,3.8c0.7,0.6,0.9,1.6,0.5,2.4c-0.2,0.5-0.3,1.1-0.1,1.6c0.2,0.9,1,1.6,1.9,1.8c0.8,0.2,1.5,0,2.1-0.5
			c0.6-0.5,0.9-1.2,0.9-2c0-0.4-0.1-0.7-0.3-1.1c-0.4-0.8-0.2-1.7,0.5-2.4c0,0,0,0,0,0c0.8-0.8,1.3-1.8,1.3-2.9
			c0-1.2-0.5-2.3-1.5-3.1C37.8,44.5,36.9,44.1,36,44.1z"/>
	</g>
</g>
</svg>
