<svg version="1.1" xmlns="http://www.w3.org/2000/svg" width="32" height="32" viewBox="0 0 32 32">
<title>lock-unlock</title>
<path fill="#333" d="M16 26.667c-2.209 0-4-1.791-4-4s1.791-4 4-4c2.209 0 4 1.791 4 4v0c0 2.209-1.791 4-4 4v0zM16 21.333c-0.736 0-1.333 0.597-1.333 1.333s0.597 1.333 1.333 1.333c0.736 0 1.333-0.597 1.333-1.333v0c0-0.736-0.597-1.333-1.333-1.333v0zM26 13.333h-16.667v-7.19c0.002-1.919 1.557-3.475 3.476-3.477h6.247c1.735 0.002 3.183 1.225 3.532 2.856l0.004 0.024c0.131 0.611 0.666 1.062 1.307 1.062 0.737 0 1.335-0.598 1.335-1.335 0-0.097-0.010-0.191-0.030-0.282l0.002 0.009c-0.62-2.872-3.136-4.994-6.149-5h-6.247c-3.391 0.004-6.14 2.752-6.143 6.143v7.19h-0.667c-1.473 0-2.667 1.194-2.667 2.667v0 13.333c0 1.473 1.194 2.667 2.667 2.667v0h20c1.473 0 2.667-1.194 2.667-2.667v0-13.333c0-1.473-1.194-2.667-2.667-2.667v0zM6 29.333v-13.333h20v13.333z"></path>
</svg>
