<svg xmlns="http://www.w3.org/2000/svg" width="32" height="32"><path d="M25 30h-6a1 1 0 0 1 0-2h6a1 1 0 0 0 1-1v-2a1 1 0 0 1 2 0v2a3 3 0 0 1-3 3zm-9.587 1.417c.362-.362.587-.862.587-1.415V2a1.998 1.998 0 0 0-.906-1.662l-.008-.005a1.986 1.986 0 0 0-1.55-.281l.013-.003-11.97 2.95c-.91.2-1.58 1-1.58 1.955V28.295c.005 1 .744 1.827 1.706 1.969l.011.001 12 1.713c.085.013.183.02.283.02h.002c.551 0 1.05-.223 1.412-.583zM14 30zm0 0L2 28.287l.03-23.333L14 2.001zm17.813-12.423s.023-.03.03-.043a.894.894 0 0 0 .075-.141l.002-.006v-.02a.83.83 0 0 0 .046-.155l.001-.005v-.05c.002-.019.002-.041.002-.063l-.003-.066v.003-.053a.736.736 0 0 0 0-.143v.003l.001-.017-.001-.017v.001a.727.727 0 0 0-.052-.171l.002.005-.02-.043a.792.792 0 0 0-.062-.12l.002.003-.03-.047a.849.849 0 0 0-.1-.12l-4.12-4a1 1 0 1 0-1.394 1.433l.001.001 2.333 2.283h-8.86a1 1 0 0 0 0 2h8.92l-2.293 2.293a1 1 0 0 0 0 1.414 1 1 0 0 0 1.414 0l4.02-4.023a1.21 1.21 0 0 0 .083-.127l.003-.006zM28 9V7a3 3 0 0 0-3-3h-6a1 1 0 0 0 0 2h6a1 1 0 0 1 1 1v2a1 1 0 0 0 2 0zm-16.483 5.823a1.66 1.66 0 0 0-1.18-.49h-.003a1.667 1.667 0 1 0 1.184.49z"/></svg>