<svg version="1.1" xmlns="http://www.w3.org/2000/svg" width="32" height="32" viewBox="0 0 32 32">
<title>logout</title>
<path fill="#333" d="M16 32c-8.087 0-14.667-6.48-14.667-14.443 0.029-5.912 3.608-10.981 8.713-13.187l0.094-0.036c0.155-0.069 0.336-0.108 0.527-0.108 0.736 0 1.333 0.597 1.333 1.333 0 0.546-0.328 1.015-0.798 1.222l-0.009 0.003c-4.24 1.825-7.162 5.954-7.193 10.769l-0 0.004c0 6.493 5.383 11.777 12 11.777s12-5.283 12-11.777c-0.025-4.826-2.948-8.963-7.117-10.761l-0.076-0.029c-0.407-0.234-0.677-0.665-0.677-1.16 0-0.736 0.597-1.333 1.333-1.333 0.142 0 0.278 0.022 0.406 0.063l-0.009-0.003c5.199 2.242 8.778 7.311 8.807 13.22v0.004c0 7.963-6.58 14.443-14.667 14.443zM17.333 14.667v-13.333c0-0.736-0.597-1.333-1.333-1.333s-1.333 0.597-1.333 1.333v0 13.333c0 0.736 0.597 1.333 1.333 1.333s1.333-0.597 1.333-1.333v0z"></path>
</svg>
