<svg xmlns="http://www.w3.org/2000/svg" width="32" height="32"><path d="M31 30h-1V18a2 2 0 0 0-2-2h-4a2 2 0 0 0-2 2v12h-2V14a2 2 0 0 0-2-2h-4a2 2 0 0 0-2 2v16h-2v-6a2 2 0 0 0-2-2H4a2 2 0 0 0-2 2v6H1a1 1 0 0 0 0 2h30a1 1 0 0 0 0-2zM4 30v-6h4v6zm10 0V14h4v16zm10 0V18h4v12zm8-29v6a1 1 0 0 1-2 0V3.413L24.973 8.44a3.99 3.99 0 0 1-4.005.992l.028.008-7.583-2.023a1.99 1.99 0 0 0-1.93.517l-7.777 7.773a1 1 0 0 1-1.414 0 1 1 0 0 1 0-1.414l7.777-7.773a3.988 3.988 0 0 1 3.888-1.03l-.028-.007 7.613 2.033a1.996 1.996 0 0 0 2.017-.493L28.586 2h-3.587a1 1 0 0 1 0-2h6c.066.002.129.009.19.021L31.182.02l.087.027.1.03c.033 0 .063.033.097.05l.073.04c.058.038.108.08.153.127a.995.995 0 0 1 .125.15l.002.003.04.073c0 .033.037.063.05.097.01.027.02.062.029.097l.001.006c.01.023.019.051.026.079l.001.004a.992.992 0 0 1 .033.194V1z"/></svg>