<?xml version="1.0" encoding="utf-8"?>
<!-- Generator: Adobe Illustrator 20.1.0, SVG Export Plug-In . SVG Version: 6.00 Build 0)  -->
<svg version="1.1" id="Layer_2" xmlns="http://www.w3.org/2000/svg" xmlns:xlink="http://www.w3.org/1999/xlink" x="0px" y="0px"
	 viewBox="0 0 72 72" style="enable-background:new 0 0 72 72;" xml:space="preserve">
<g>
	<g>
		<path d="M71,72H1c-0.6,0-1-0.4-1-1V1c0-0.6,0.4-1,1-1s1,0.4,1,1v69h69c0.6,0,1,0.4,1,1S71.6,72,71,72z"/>
	</g>
	<g>
		<path d="M21.3,65H10c-1.7,0-3-1.3-3-3V20.7c0-1.7,1.3-3,3-3h11.3c1.7,0,3,1.3,3,3V62C24.3,63.7,22.9,65,21.3,65z M10,19.7
			c-0.6,0-1,0.4-1,1V62c0,0.6,0.4,1,1,1h11.3c0.6,0,1-0.4,1-1V20.7c0-0.6-0.4-1-1-1H10z"/>
	</g>
	<g>
		<path d="M43.6,65H32.4c-1.7,0-3-1.3-3-3V35.4c0-1.7,1.3-3,3-3h11.3c1.7,0,3,1.3,3,3V62C46.6,63.7,45.3,65,43.6,65z M32.4,34.4
			c-0.6,0-1,0.4-1,1V62c0,0.6,0.4,1,1,1h11.3c0.6,0,1-0.4,1-1V35.4c0-0.6-0.4-1-1-1H32.4z"/>
	</g>
	<g>
		<path d="M66,65H54.7c-1.7,0-3-1.3-3-3V7.2c0-1.7,1.3-3,3-3H66c1.7,0,3,1.3,3,3V62C69,63.7,67.7,65,66,65z M54.7,6.2
			c-0.6,0-1,0.4-1,1V62c0,0.6,0.4,1,1,1H66c0.6,0,1-0.4,1-1V7.2c0-0.6-0.4-1-1-1H54.7z"/>
	</g>
</g>
</svg>
