<svg version="1.1" xmlns="http://www.w3.org/2000/svg" width="32" height="32" viewBox="0 0 32 32">
<title>maform</title>
<path fill="#333" d="M30.667 32h-29.333c-0.736 0-1.333-0.597-1.333-1.333v0-29.333c0-0.736 0.597-1.333 1.333-1.333s1.333 0.597 1.333 1.333v0 28h28c0.736 0 1.333 0.597 1.333 1.333s-0.597 1.333-1.333 1.333v0zM12 26v-17.333c0-1.105-0.895-2-2-2v0h-4c-1.105 0-2 0.895-2 2v0 17.333c0 1.105 0.895 2 2 2v0h4c1.105 0 2-0.895 2-2v0zM6.667 9.333h2.667v16h-2.667zM21.333 26v-12c0-1.105-0.895-2-2-2v0h-4c-1.105 0-2 0.895-2 2v0 12c0 1.105 0.895 2 2 2v0h4c1.105 0 2-0.895 2-2v0zM16 14.667h2.667v10.667h-2.667zM30.703 26v-22.667c0-1.105-0.895-2-2-2v0h-4c-1.105 0-2 0.895-2 2v0 22.667c0 1.105 0.895 2 2 2v0h4c1.105 0 2-0.895 2-2v0zM25.37 4h2.667v21.333h-2.667z"></path>
</svg>
