<svg xmlns="http://www.w3.org/2000/svg" width="32" height="32"><path d="M31 5H1a1 1 0 0 0-1 1v20a1 1 0 0 0 1 1h30a1 1 0 0 0 1-1V6a1 1 0 0 0-1-1zm-13.773 9.943c-.342.242-.767.387-1.227.387s-.885-.145-1.233-.392l.007.004-11.36-7.943h25.173zM2 25V8.453l6.703 4.687L4 17.247a1.005 1.005 0 1 0 1.335 1.505l-.001.001 5.057-4.42 3.237 2.263c.662.467 1.485.746 2.373.746s1.712-.279 2.386-.755l-.013.009 3.237-2.263 5.057 4.42a.996.996 0 0 0 .658.247h.018a1 1 0 0 0 .659-1.752l-.001-.001-4.703-4.107 6.703-4.687V25z"/></svg>