<svg version="1.1" xmlns="http://www.w3.org/2000/svg" width="32" height="32" viewBox="0 0 32 32">
<title>mail</title>
<path fill="#333" d="M32 6c0-0.736-0.597-1.333-1.333-1.333v0h-29.333c-0.736 0-1.333 0.597-1.333 1.333v0 20.020c-0.002 0.023-0.003 0.050-0.003 0.077s0.001 0.054 0.003 0.080l-0-0.004v0.11c0.013 0.051 0.028 0.095 0.046 0.137l-0.002-0.007c0.010 0.045 0.022 0.084 0.038 0.121l-0.002-0.004c0 0.037 0.040 0.073 0.060 0.11 0.022 0.044 0.045 0.081 0.069 0.117l-0.002-0.003c0.022 0.032 0.045 0.061 0.070 0.087l-0-0c0.033 0.040 0.063 0.080 0.1 0.117s0.057 0.043 0.083 0.067c0.031 0.027 0.064 0.053 0.099 0.077l0.004 0.003 0.123 0.067c0.028 0.016 0.062 0.033 0.097 0.048l0.007 0.002c0.040 0.017 0.089 0.033 0.139 0.045l0.007 0.002 0.097 0.027c0.089 0.024 0.193 0.038 0.299 0.040l0.001 0h29.333c0.091-0 0.18-0.010 0.265-0.028l-0.009 0.002 0.097-0.027c0.058-0.014 0.107-0.030 0.154-0.049l-0.007 0.003c0.042-0.017 0.076-0.034 0.108-0.053l-0.005 0.003 0.123-0.067c0.039-0.027 0.073-0.053 0.105-0.081l-0.002 0.001c0.027-0.023 0.057-0.040 0.083-0.067s0.067-0.077 0.1-0.117c0.025-0.026 0.048-0.054 0.069-0.084l0.001-0.002c0.023-0.033 0.046-0.072 0.065-0.112l0.002-0.005c0.020-0.037 0.043-0.070 0.060-0.107 0.014-0.032 0.026-0.071 0.036-0.111l0.001-0.005c0.015-0.035 0.030-0.079 0.042-0.123l0.002-0.007v-0.11c0.002-0.023 0.003-0.050 0.003-0.077s-0.001-0.054-0.003-0.080l0 0.004v-0.020zM2.667 8.3l7.537 6.333-7.537 8.003zM16.053 15.967c-0.050 0.040-0.057 0.040-0.107 0l-10.28-8.633h20.667zM12.25 16.333l1.98 1.667c0.473 0.406 1.093 0.654 1.77 0.654s1.297-0.247 1.774-0.657l-0.004 0.003 1.98-1.667 7.83 8.333h-23.16zM21.797 14.617l7.537-6.317v14.333z"></path>
</svg>
