<svg xmlns="http://www.w3.org/2000/svg" viewBox="0 0 96 96"><path d="M96 18a4 4 0 0 0-4-4H4a4 4 0 0 0-4 4v60.06a3.42 3.42 0 0 0 0 .46v.33a3 3 0 0 0 .13.39 2 2 0 0 0 .11.35c0 .11.12.22.18.33a3 3 0 0 0 .2.34 1.83 1.83 0 0 0 .21.26c.1.12.19.24.3.35s.17.13.25.2a3.65 3.65 0 0 0 .31.24l.37.2a3 3 0 0 0 .31.15 3.22 3.22 0 0 0 .44.14l.29.08A3.94 3.94 0 0 0 4 82h88a3.94 3.94 0 0 0 .77-.08l.29-.08a3.22 3.22 0 0 0 .44-.14 3 3 0 0 0 .31-.15l.37-.2a3.65 3.65 0 0 0 .31-.24c.08-.07.17-.12.25-.2s.2-.23.3-.35a1.83 1.83 0 0 0 .21-.26 2.43 2.43 0 0 0 .2-.35c.06-.11.13-.21.18-.32a2.35 2.35 0 0 0 .11-.35 3 3 0 0 0 .13-.39v-.33a3.42 3.42 0 0 0 0-.46v-.06zM8 24.9l22.61 19L8 67.91zm40.16 23c-.15.12-.17.12-.32 0L17 22h62zM36.75 49l5.94 5a8.17 8.17 0 0 0 10.62 0l5.94-5 23.49 25H13.26zm28.64-5.15L88 24.9v43z" fill="#333"/></svg>