<svg version="1.1" xmlns="http://www.w3.org/2000/svg" width="32" height="32" viewBox="0 0 32 32">
<title>markup</title>
<path fill="#333" d="M27.667 9.733l-8.21-9.283c-0.245-0.277-0.602-0.45-0.999-0.45-0 0-0.001 0-0.001 0h-13.123c-0.736 0-1.333 0.597-1.333 1.333v0 29.333c0 0.736 0.597 1.333 1.333 1.333v0h21.333c0.736 0 1.333-0.597 1.333-1.333v0-20.050c0-0 0-0.001 0-0.001 0-0.339-0.126-0.648-0.335-0.883l0.001 0.001zM24.93 10.667h-3.597c-1.92 0-2.667-0.753-2.667-2.687v-4.397zM6.667 29.333v-26.667h9.333v5.313c0 3.403 1.953 5.353 5.333 5.353h4v16zM18.667 26c-0.001 0-0.001 0-0.002 0-0.736 0-1.333-0.597-1.333-1.333 0-0.41 0.185-0.777 0.477-1.022l0.002-0.002 2.773-2.333-2.767-2.293c-0.312-0.246-0.51-0.625-0.51-1.049 0-0.736 0.597-1.333 1.333-1.333 0.337 0 0.644 0.125 0.879 0.33l-0.002-0.001 4 3.317c0.293 0.246 0.479 0.613 0.479 1.023s-0.185 0.777-0.477 1.022l-0.002 0.002-4 3.353c-0.227 0.195-0.524 0.316-0.849 0.32h-0.001zM14.357 25.523c0.194-0.23 0.312-0.53 0.312-0.857 0-0.41-0.185-0.777-0.476-1.021l-0.002-0.002-2.773-2.333 2.767-2.293c0.28-0.246 0.456-0.604 0.456-1.004 0-0.736-0.597-1.333-1.333-1.333-0.312 0-0.599 0.107-0.826 0.286l0.003-0.002-4 3.317c-0.293 0.246-0.479 0.613-0.479 1.023s0.185 0.777 0.477 1.022l0.002 0.002 4 3.353c0.23 0.194 0.53 0.312 0.857 0.312 0.41 0 0.777-0.185 1.021-0.476l0.002-0.002z"></path>
</svg>
