<svg version="1.1" xmlns="http://www.w3.org/2000/svg" width="32" height="32" viewBox="0 0 32 32">
<title>media</title>
<path fill="#333" d="M31.023 9.333c-0.305-0.212-0.683-0.338-1.090-0.338-0.252 0-0.492 0.048-0.713 0.136l0.013-0.005-3.177 1.13c-1.173 0.433-2.057 1.877-2.057 3.357v-2.763c-0.032-1.581-1.321-2.85-2.906-2.85-0.017 0-0.033 0-0.050 0l0.003-0h-18.117c-0.014-0-0.031-0-0.047-0-1.574 0-2.853 1.261-2.883 2.828l-0 0.003v10.37c0.030 1.553 1.296 2.8 2.853 2.8 0.015 0 0.031-0 0.046-0l-0.002 0h18.217c0.013 0 0.028 0 0.044 0 1.552 0 2.813-1.243 2.843-2.788l0-0.003v-2.833c0 1.44 0.94 2.913 2.13 3.353l3.057 1.147c0.209 0.078 0.451 0.123 0.703 0.123h0c0.416-0 0.801-0.133 1.116-0.357l-0.006 0.004c0.64-0.457 1-1.27 1-2.293v-8.687c0-1.363-0.533-2.020-0.977-2.333zM21.333 21.21c0 0.037-0.073 0.123-0.22 0.123h-18.217c-0.143 0-0.23-0.087-0.23-0.133v-10.37c0-0.067 0.103-0.163 0.263-0.163h18.117c0.177 0 0.287 0.11 0.287 0.183zM29.333 20.083l-2.247-0.843c-0.245-0.212-0.403-0.518-0.42-0.861l-0-0.003v-4.763c0.006-0.331 0.131-0.632 0.335-0.861l-0.001 0.001 2.333-0.827z"></path>
</svg>
