<?xml version="1.0" encoding="utf-8"?>
<!-- Generator: Adobe Illustrator 20.1.0, SVG Export Plug-In . SVG Version: 6.00 Build 0)  -->
<svg version="1.1" id="Layer_1" xmlns="http://www.w3.org/2000/svg" xmlns:xlink="http://www.w3.org/1999/xlink" x="0px" y="0px"
	 viewBox="0 0 72 72" style="enable-background:new 0 0 72 72;" xml:space="preserve">
<g>
	<g>
		<path d="M49.6,64H2.9C1.3,64,0,62.6,0,61V31.6C0,30,1.2,29,2.9,29h46.6c0.9,0,2.4,0.3,2.4,2.6V61C52,62.8,51,64,49.6,64z M2.9,31
			C2.3,31,2,31.2,2,31.6V61c0,0.5,0.4,1,0.9,1h46.6c0.4,0,0.4-0.6,0.4-1V31.6c0-0.4-0.1-0.5-0.1-0.5h0c0,0-0.1,0-0.4,0H2.9z"/>
	</g>
	<g>
		<g>
			<path d="M13.5,26.6c-5.2,0-9.4-4.2-9.4-9.3c0-5.1,4.2-9.3,9.4-9.3c5.2,0,9.4,4.2,9.4,9.3C22.9,22.4,18.6,26.6,13.5,26.6z
				 M13.5,10c-4.1,0-7.4,3.3-7.4,7.3c0,4,3.3,7.3,7.4,7.3c4.1,0,7.4-3.3,7.4-7.3C20.9,13.3,17.5,10,13.5,10z"/>
		</g>
		<g>
			<path d="M38.2,26.6c-5.2,0-9.4-4.2-9.4-9.3c0-5.1,4.2-9.3,9.4-9.3c5.2,0,9.4,4.2,9.4,9.3C47.6,22.4,43.4,26.6,38.2,26.6z
				 M38.2,10c-4.1,0-7.4,3.3-7.4,7.3c0,4,3.3,7.3,7.4,7.3c4.1,0,7.4-3.3,7.4-7.3C45.6,13.3,42.3,10,38.2,10z"/>
		</g>
	</g>
	<g>
		<path d="M68.6,52.8c-0.3,0-0.6,0-1-0.1l-8.7-2.2c-2.2-0.6-3.9-2.8-3.9-5v-9.2c0-2.2,1.8-4.5,3.9-5l8.7-2.2
			c1.1-0.3,2.3-0.1,3.1,0.6c0.8,0.6,1.3,1.7,1.3,2.8v16.8c0,1.1-0.5,2.2-1.3,2.8C70.1,52.5,69.4,52.8,68.6,52.8z M68.6,30.9
			c-0.2,0-0.3,0-0.5,0.1c0,0,0,0,0,0l-8.7,2.2c-1.3,0.3-2.4,1.8-2.4,3.1v9.2c0,1.3,1.1,2.7,2.4,3.1l8.7,2.2c0.5,0.1,1,0.1,1.4-0.2
			c0.3-0.3,0.5-0.7,0.5-1.2V32.5c0-0.5-0.2-1-0.5-1.3C69.2,31,68.9,30.9,68.6,30.9z M67.8,30L67.8,30L67.8,30z"/>
	</g>
</g>
</svg>
