<?xml version="1.0" encoding="utf-8"?>
<!-- Generator: Adobe Illustrator 20.1.0, SVG Export Plug-In . SVG Version: 6.00 Build 0)  -->
<svg version="1.1" id="Layer_2" xmlns="http://www.w3.org/2000/svg" xmlns:xlink="http://www.w3.org/1999/xlink" x="0px" y="0px"
	 viewBox="0 0 72 72" style="enable-background:new 0 0 72 72;" xml:space="preserve">
<g>
	<path d="M68,12H4c-2.2,0-4-1.8-4-4V4c0-2.2,1.8-4,4-4l64,0c2.2,0,4,1.8,4,4v4C72,10.2,70.2,12,68,12z"/>
	<path d="M68,32H4c-2.2,0-4-1.8-4-4v-4c0-2.2,1.8-4,4-4h64c2.2,0,4,1.8,4,4v4C72,30.2,70.2,32,68,32z"/>
	<path d="M68,52H4c-2.2,0-4-1.8-4-4v-4c0-2.2,1.8-4,4-4h64c2.2,0,4,1.8,4,4v4C72,50.2,70.2,52,68,52z"/>
	<path d="M68,72H4c-2.2,0-4-1.8-4-4v-4c0-2.2,1.8-4,4-4h64c2.2,0,4,1.8,4,4v4C72,70.2,70.2,72,68,72z"/>
</g>
</svg>
