<svg version="1.1" xmlns="http://www.w3.org/2000/svg" width="32" height="32" viewBox="0 0 32 32">
    <title>+icon/+oss/submenu</title>
    <g id="+icon/+oss/submenu" stroke="none" stroke-width="1" fill="none" fill-rule="evenodd">
        <path d="M18.4782609,21.6956522 C19.0305456,21.6956522 19.4782609,22.1433674 19.4782609,22.6956522 L19.4782609,23.4782609 C19.4782609,24.0305456 19.0305456,24.4782609 18.4782609,24.4782609 L1,24.4782609 C0.44771525,24.4782609 1.28867715e-16,24.0305456 6.123234e-17,23.4782609 L1.09153302e-16,22.6956522 C4.15179266e-17,22.1433674 0.44771525,21.6956522 1,21.6956522 L18.4782609,21.6956522 Z M24.0434783,13.3478261 C24.595763,13.3478261 25.0434783,13.7955413 25.0434783,14.3478261 L25.0434783,15.1304348 C25.0434783,15.6827195 24.595763,16.1304348 24.0434783,16.1304348 L6.56521739,16.1304348 C6.01293264,16.1304348 5.56521739,15.6827195 5.56521739,15.1304348 L5.56521739,14.3478261 C5.56521739,13.7955413 6.01293264,13.3478261 6.56521739,13.3478261 L24.0434783,13.3478261 Z M31,5 C31.5522847,5 32,5.44771525 32,6 L32,6.7826087 C32,7.33489345 31.5522847,7.7826087 31,7.7826087 L13.5217391,7.7826087 C12.9694544,7.7826087 12.5217391,7.33489345 12.5217391,6.7826087 L12.5217391,6 C12.5217391,5.44771525 12.9694544,5 13.5217391,5 L31,5 Z" id="Combined-Shape" fill="#131C26"></path>
    </g>
</svg>