<?xml version="1.0" encoding="utf-8"?>
<!-- Generator: Adobe Illustrator 20.1.0, SVG Export Plug-In . SVG Version: 6.00 Build 0)  -->
<svg version="1.1" id="Layer_2" xmlns="http://www.w3.org/2000/svg" xmlns:xlink="http://www.w3.org/1999/xlink" x="0px" y="0px"
	 viewBox="0 0 72 72" style="enable-background:new 0 0 72 72;" xml:space="preserve">
<g>
	<g>
		<g>
			<g>
				<path d="M45.1,37c-0.3,0-0.5-0.1-0.7-0.3L26.3,19L1,19c0,0,0,0,0,0c-0.6,0-1-0.4-1-0.9c0-0.6,0.4-1,1-1L26.7,17
					c0.3,0,0.5,0.1,0.7,0.3l18.3,18c0.4,0.4,0.4,1,0,1.4C45.6,36.9,45.3,37,45.1,37z"/>
			</g>
		</g>
	</g>
	<g>
		<g>
			<path d="M63.5,44c-0.3,0-0.6-0.1-0.8-0.3c-0.4-0.4-0.3-1.1,0.1-1.4l7-6C70,36.1,70,36.1,70,36s0-0.1-0.1-0.2l-7.1-6
				c-0.4-0.4-0.5-1-0.1-1.4c0.4-0.4,1-0.5,1.4-0.1l7,6c0.5,0.4,0.8,1.1,0.8,1.7s-0.3,1.3-0.8,1.7l-7,6C64,43.9,63.7,44,63.5,44z"/>
		</g>
		<g>
			<path d="M71,37H45c-0.6,0-1-0.4-1-1s0.4-1,1-1h26c0.6,0,1,0.4,1,1S71.6,37,71,37z"/>
		</g>
	</g>
	<g>
		<g>
			<g>
				<path d="M26.8,55C26.8,55,26.8,55,26.8,55L1,54.9c-0.6,0-1-0.4-1-1c0-0.6,0.4-1,1-1c0,0,0,0,0,0l25.3,0l18-17.7
					c0.4-0.4,1-0.4,1.4,0c0.4,0.4,0.4,1,0,1.4l-18.3,18C27.3,54.9,27,55,26.8,55z"/>
			</g>
		</g>
	</g>
</g>
</svg>
