<svg version="1.1" xmlns="http://www.w3.org/2000/svg" width="32" height="32" viewBox="0 0 32 32">
<title>merge</title>
<path fill="#333" d="M31.43 14.4l-3.74-4.577c-0.246-0.321-0.63-0.527-1.062-0.527-0.736 0-1.333 0.597-1.333 1.333 0 0.338 0.126 0.646 0.333 0.881l-0.001-0.001 2.58 3.157h-11.567l-5.333-7c-0.434-0.598-1.125-0.986-1.908-1l-0.002-0-8.063 0.037c-0.736 0-1.333 0.597-1.333 1.333s0.597 1.333 1.333 1.333v0l7.903-0.037 5.097 6.693-5.077 6.64-7.923-0.037c-0.736 0-1.333 0.597-1.333 1.333s0.597 1.333 1.333 1.333v0l8.097 0.037c0.768-0.011 1.447-0.386 1.872-0.96l0.005-0.006 5.36-7.033h11.54l-2.58 3.157c-0.206 0.233-0.332 0.542-0.332 0.88 0 0.736 0.597 1.333 1.333 1.333 0.432 0 0.816-0.205 1.059-0.523l0.002-0.003 3.74-4.573c0.349-0.435 0.56-0.994 0.56-1.602s-0.211-1.167-0.564-1.607l0.004 0.005z"></path>
</svg>
