<svg xmlns="http://www.w3.org/2000/svg" width="32" height="32"><path d="M23 32c-4.971 0-9-4.029-9-9s4.029-9 9-9a9 9 0 0 1 9 9 9 9 0 0 1-9 9zm0-16a7 7 0 1 0 7 7 7 7 0 0 0-7-7zm3.373 4.96l-2.667-2.667a1.123 1.123 0 0 0-.15-.124l-.004-.002-.073-.04c-.033-.017-.063-.037-.097-.05l-.1-.03-.087-.027a.932.932 0 0 0-.4.001l.006-.001-.087.027-.1.03c-.033 0-.063.033-.097.05l-.073.04c-.057.04-.107.081-.153.127l-2.666 2.666a1 1 0 0 0 0 1.414 1 1 0 0 0 1.414 0l.96-.96v5.587a1 1 0 0 0 2 0v-5.587l.96.96a1 1 0 0 0 1.414 0 1 1 0 0 0 0-1.414zm4.747-10.067A2.971 2.971 0 0 0 29 10h-1V7a3 3 0 0 0-3-3H12V3a3 3 0 0 0-3-3H3a3 3 0 0 0-3 3v19.777a3.265 3.265 0 0 0 2.68 3.17l.02.003A.948.948 0 0 0 3 26h7.334a1 1 0 0 0 0-2h-4.06c.047-.102.093-.227.131-.355l.005-.021 3.133-10.887c.119-.426.503-.734.96-.737H29a1 1 0 0 1 1 1v.009a.956.956 0 0 1-.035.258l.002-.007a1 1 0 0 0 1.931.521l.002-.007a2.991 2.991 0 0 0-.78-2.893zM26 10H10.503a3.022 3.022 0 0 0-2.878 2.149l-.006.021-3.133 10.893A1.28 1.28 0 0 1 3.284 24h-.001l-.038.001a1.21 1.21 0 0 1-.862-.36A1.242 1.242 0 0 1 2 22.766V3.002a1 1 0 0 1 1-1h6a1 1 0 0 1 1 1v2a1 1 0 0 0 1 1h14a1 1 0 0 1 1 1z"/></svg>