<?xml version="1.0" encoding="utf-8"?>
<!-- Generator: Adobe Illustrator 20.1.0, SVG Export Plug-In . SVG Version: 6.00 Build 0)  -->
<svg version="1.1" id="Layer_1" xmlns="http://www.w3.org/2000/svg" xmlns:xlink="http://www.w3.org/1999/xlink" x="0px" y="0px"
	 viewBox="0 0 72 72" style="enable-background:new 0 0 72 72;" xml:space="preserve">
<g>
	<g>
		<g>
			<g>
				<path d="M48,50.4c-0.3,0-0.5-0.1-0.7-0.3L37,39.9c-0.5-0.5-1.5-0.5-2,0L24.7,50.1c-0.4,0.4-1,0.4-1.4,0c-0.4-0.4-0.4-1,0-1.4
					l10.3-10.2c1.3-1.3,3.5-1.3,4.8,0l10.3,10.2c0.4,0.4,0.4,1,0,1.4C48.5,50.3,48.3,50.4,48,50.4z"/>
			</g>
			<g>
				<path d="M36,67c-0.6,0-1-0.4-1-1V38.8c0-0.6,0.4-1,1-1s1,0.4,1,1V66C37,66.6,36.6,67,36,67z"/>
			</g>
		</g>
	</g>
	<g>
		<g>
			<path d="M68.2,66.6H46.2c-0.6,0-1-0.4-1-1s0.4-1,1-1h21.9c1,0,1.8-0.8,1.8-1.9V26.2H2v36.5c0,1,0.8,1.9,1.8,1.9h22
				c0.6,0,1,0.4,1,1s-0.4,1-1,1h-22c-2.1,0-3.8-1.7-3.8-3.9V25.2c0-0.6,0.4-1,1-1h70c0.6,0,1,0.4,1,1v37.5
				C72,64.9,70.3,66.6,68.2,66.6z"/>
		</g>
		<g>
			<path d="M71,21.7c-0.6,0-1-0.4-1-1v-4.6c0-1-0.8-1.8-1.8-1.8h-42c-2.3,0-3-2.2-3.5-4C21.9,8.1,21.4,7,19.9,7H3.8
				C2.8,7,2,7.7,2,8.7l0,12c0,0.6-0.4,1-1,1s-1-0.4-1-1v-12C0.1,6.6,1.8,5,3.8,5h16.1c3.1,0,4,2.7,4.6,4.8c0.6,1.7,0.9,2.6,1.6,2.6
				h42c2.1,0,3.8,1.7,3.8,3.8v4.6C72,21.2,71.6,21.7,71,21.7z"/>
		</g>
	</g>
</g>
</svg>
