<?xml version="1.0" encoding="utf-8"?>
<!-- Generator: Adobe Illustrator 20.1.0, SVG Export Plug-In . SVG Version: 6.00 Build 0)  -->
<svg version="1.1" id="Layer_1" xmlns="http://www.w3.org/2000/svg" xmlns:xlink="http://www.w3.org/1999/xlink" x="0px" y="0px"
	 viewBox="0 0 72 72" style="enable-background:new 0 0 72 72;" xml:space="preserve">
<g>
	<path d="M1,61.7c0,0-0.1,0-0.1,0c-0.5-0.1-0.9-0.5-0.9-1c0-30.7,27.2-34,37.1-34.2V11.4c0-0.4,0.2-0.8,0.6-0.9
		c0.2-0.1,2.2-0.8,4.9,0.9L69.5,29c0,0,0,0,0,0c1.7,1.1,2.5,2.5,2.5,4.3c0,1.9-0.9,3.6-2.5,4.7L42.7,54.5c-2,1.5-4.6,1.2-4.7,1.1
		c-0.5-0.1-0.8-0.5-0.8-1V39.9C6.6,40.3,2.2,60.1,2,60.9C1.9,61.4,1.5,61.7,1,61.7z M39.1,12.3v15.3c0,0.6-0.4,1-1,1
		c-27,0-34,15.4-35.7,26.3c3.9-6.7,13.4-16.9,35.7-16.9c0.6,0,1,0.4,1,1v14.8c0.7,0,1.6-0.2,2.4-0.8l26.9-16.5c1-0.7,1.6-1.8,1.6-3
		c0-1.1-0.5-1.9-1.6-2.7L41.6,13.1C40.5,12.4,39.7,12.3,39.1,12.3C39.1,12.3,39.1,12.3,39.1,12.3z"/>
</g>
</svg>
