<svg version="1.1" xmlns="http://www.w3.org/2000/svg" width="32" height="32" viewBox="0 0 32 32">
<title>newsletter</title>
<path fill="#333" d="M20 8h-8c-0.736 0-1.333-0.597-1.333-1.333s0.597-1.333 1.333-1.333v0h8c0.736 0 1.333 0.597 1.333 1.333s-0.597 1.333-1.333 1.333v0zM21.333 11.333c0-0.736-0.597-1.333-1.333-1.333v0h-8c-0.736 0-1.333 0.597-1.333 1.333s0.597 1.333 1.333 1.333v0h8c0.736 0 1.333-0.597 1.333-1.333v0zM32 13.277v16.67c-0.015 1.137-0.94 2.053-2.080 2.053-0.009 0-0.019-0-0.028-0h-27.789c-0.007 0-0.015 0-0.024 0-1.138 0-2.063-0.914-2.080-2.049l-0-0.002v-16.853c0-0.87 0-0.94 5.933-4.85 0.019-0.013 0.041-0.025 0.064-0.036l0.003-0.001v-6.877c0-0.736 0.597-1.333 1.333-1.333v0h17.333c0.736 0 1.333 0.597 1.333 1.333v0 7.020c0.057 0.027 0.104 0.052 0.15 0.080l-0.006-0.004c5.857 3.903 5.857 3.97 5.857 4.833zM26 11.543v3.407l2.623-1.617c-0.547-0.38-1.373-0.95-2.623-1.79zM8.667 2.667v13.733l7.333 4.667 7.333-4.483v-13.917zM3.487 13.107l2.513 1.6v-3.307c-1.17 0.78-1.97 1.327-2.513 1.707zM29.333 16.033l-12.613 7.73c-0.048 0.032-0.104 0.064-0.162 0.090l-0.008 0.003c-0.16 0.074-0.348 0.117-0.545 0.117-0.002 0-0.003 0-0.005 0h0c-0.198-0.001-0.386-0.045-0.555-0.123l0.008 0.003c-0.069-0.032-0.128-0.067-0.184-0.106l0.004 0.003-12.607-8.003v13.587h26.667z"></path>
</svg>
