<svg version="1.1" xmlns="http://www.w3.org/2000/svg" width="32" height="32" viewBox="0 0 32 32">
<title>news</title>
<path fill="#333" d="M24.667 24.667h-12c-0.736 0-1.333-0.597-1.333-1.333s0.597-1.333 1.333-1.333v0h12c0.736 0 1.333 0.597 1.333 1.333s-0.597 1.333-1.333 1.333v0zM26 18.667c0-0.736-0.597-1.333-1.333-1.333v0h-12c-0.736 0-1.333 0.597-1.333 1.333s0.597 1.333 1.333 1.333v0h12c0.736 0 1.333-0.597 1.333-1.333v0zM26 13.333v-6.667c0-0.736-0.597-1.333-1.333-1.333v0h-12c-0.736 0-1.333 0.597-1.333 1.333v0 6.667c0 0.736 0.597 1.333 1.333 1.333v0h12c0.736 0 1.333-0.597 1.333-1.333v0zM14 8h9.333v4h-9.333zM30.667 28.667v-26c0-1.105-0.895-2-2-2v0h-20c-1.105 0-2 0.895-2 2v0 11.333h-3.060c-0.174 0.001-0.34 0.034-0.493 0.093l0.009-0.003c-1.026 0.252-1.778 1.158-1.79 2.242v10.335c0 2.577 2.089 4.667 4.667 4.667v0h22c1.473 0 2.667-1.194 2.667-2.667v0zM6.667 16.667v8c0 0.736 0.597 1.333 1.333 1.333s1.333-0.597 1.333-1.333v0-21.333h18.667v25.333h-22c-1.105 0-2-0.895-2-2v0-10z"></path>
</svg>
