<svg xmlns="http://www.w3.org/2000/svg" viewBox="0 0 96 96"><path d="M60 24H36a4 4 0 0 1 0-8h24a4 4 0 0 1 0 8zm4 10a4 4 0 0 0-4-4H36a4 4 0 0 0 0 8h24a4 4 0 0 0 4-4zm32 5.83v50.01A6.24 6.24 0 0 1 89.68 96H6.31A6.24 6.24 0 0 1 0 89.85V39.29c0-2.61 0-2.82 17.8-14.55a1.28 1.28 0 0 1 .2-.11V4a4 4 0 0 1 4-4h52a4 4 0 0 1 4 4v21.06a4.5 4.5 0 0 1 .43.23C96 37 96 37.2 96 39.79zm-18-5.2v10.22L85.87 40c-1.64-1.14-4.12-2.85-7.87-5.37zM26 8v41.2l22 14 22-13.45V8zM10.46 39.32l7.54 4.8V34.2c-3.51 2.34-5.91 3.98-7.54 5.12zM88 48.1L50.16 71.29a3.63 3.63 0 0 1-.51.28 4 4 0 0 1-1.65.35 4 4 0 0 1-1.64-.36 3.6 3.6 0 0 1-.54-.31L8 47.24V88h80z" fill="#333"/></svg>