<?xml version="1.0" encoding="utf-8"?>
<!-- Generator: Adobe Illustrator 20.1.0, SVG Export Plug-In . SVG Version: 6.00 Build 0)  -->
<svg version="1.1" id="Layer_2" xmlns="http://www.w3.org/2000/svg" xmlns:xlink="http://www.w3.org/1999/xlink" x="0px" y="0px"
	 viewBox="0 0 72 72" style="enable-background:new 0 0 72 72;" xml:space="preserve">
<g>
	<g>
		<circle cx="36" cy="52.4" r="3.5"/>
		<g>
			<path d="M36,41c-0.6,0-1-0.4-1-1V22c0-0.6,0.4-1,1-1s1,0.4,1,1v18C37,40.6,36.6,41,36,41z"/>
		</g>
	</g>
	<g>
		<g>
			<path d="M36,72C16.1,72,0,55.9,0,36S16.1,0,36,0s36,16.1,36,36S55.9,72,36,72z M36,2C17.3,2,2,17.3,2,36c0,18.7,15.3,34,34,34
				c18.7,0,34-15.3,34-34C70,17.3,54.7,2,36,2z"/>
		</g>
	</g>
</g>
</svg>
