<svg version="1.1" xmlns="http://www.w3.org/2000/svg" width="32" height="32" viewBox="0 0 32 32">
<title>object-state</title>
<path fill="#333" d="M30.843 19.033l-2.287 1.867c-0.326 0.266-0.745 0.428-1.202 0.433h-0.021c-0.004 0-0.008 0-0.013 0-0.449 0-0.861-0.154-1.188-0.413l0.004 0.003-2.283-1.8c-0.342-0.245-0.562-0.64-0.562-1.088 0-0.736 0.597-1.333 1.333-1.333 0.336 0 0.643 0.124 0.877 0.329l-0.002-0.001 0.5 0.4v-2.43h-2c-0.736 0-1.333-0.597-1.333-1.333s0.597-1.333 1.333-1.333v0h3.333c0.736 0 1.333 0.597 1.333 1.333v0 3.7l0.49-0.4c0.228-0.187 0.522-0.3 0.843-0.3 0.737 0 1.334 0.597 1.334 1.334 0 0.416-0.19 0.787-0.488 1.031l-0.002 0.002zM8 15c0.736 0 1.333-0.597 1.333-1.333s-0.597-1.333-1.333-1.333v0h-3.333c-0.736 0-1.333 0.597-1.333 1.333v0 3.763l-0.51-0.4c-0.214-0.154-0.482-0.246-0.771-0.246-0.736 0-1.333 0.597-1.333 1.333 0 0.401 0.177 0.76 0.456 1.004l0.002 0.001 2.283 1.8c0.322 0.256 0.735 0.41 1.184 0.41 0.008 0 0.016-0 0.024-0h0.029c0.458-0.005 0.877-0.168 1.207-0.436l-0.004 0.003 2.287-1.867c0.3-0.246 0.49-0.618 0.49-1.033 0-0.737-0.597-1.334-1.334-1.334-0.321 0-0.615 0.113-0.846 0.302l0.002-0.002-0.5 0.4v-2.367zM20 12.333h-2.667v-2.333c0-0.736-0.597-1.333-1.333-1.333s-1.333 0.597-1.333 1.333v0 2.333h-2.667c-0.736 0-1.333 0.597-1.333 1.333s0.597 1.333 1.333 1.333v0h2.667v2.43l-0.51-0.4c-0.214-0.154-0.482-0.246-0.771-0.246-0.736 0-1.333 0.597-1.333 1.333 0 0.401 0.177 0.76 0.456 1.004l0.002 0.001 2.283 1.8c0.322 0.256 0.735 0.41 1.184 0.41 0.008 0 0.016-0 0.024-0h0.029c0.458-0.005 0.877-0.168 1.207-0.436l-0.004 0.003 2.287-1.867c0.3-0.246 0.49-0.618 0.49-1.033 0-0.737-0.597-1.334-1.334-1.334-0.321 0-0.616 0.113-0.846 0.302l0.002-0.002-0.5 0.4v-2.367h2.667c0.736 0 1.333-0.597 1.333-1.333s-0.597-1.333-1.333-1.333v0zM30.667 32h-6.667c-0 0-0.001 0-0.001 0-0.736 0-1.333-0.597-1.333-1.333 0-0.218 0.052-0.423 0.144-0.604l-0.003 0.008 3.333-6.667c0.224-0.441 0.674-0.739 1.193-0.739s0.97 0.297 1.19 0.731l0.003 0.008 3.333 6.667c0.089 0.174 0.141 0.379 0.141 0.597 0 0.736-0.597 1.333-1.333 1.333-0 0-0.001 0-0.001 0h0zM26.157 29.333h2.353l-1.177-2.353zM4.667 32c-2.577 0-4.667-2.089-4.667-4.667s2.089-4.667 4.667-4.667c2.577 0 4.667 2.089 4.667 4.667v0c0 2.577-2.089 4.667-4.667 4.667v0zM4.667 25.333c-1.105 0-2 0.895-2 2s0.895 2 2 2c1.105 0 2-0.895 2-2v0c0-1.105-0.895-2-2-2v0zM18.667 32h-5.333c-1.105 0-2-0.895-2-2v0-5.333c0-1.105 0.895-2 2-2v0h5.333c1.105 0 2 0.895 2 2v0 5.333c0 1.105-0.895 2-2 2v0zM14 29.333h4v-4h-4zM21.333 7.333h-10.667c-0.736 0-1.333-0.597-1.333-1.333v0-4.667c0-0.736 0.597-1.333 1.333-1.333v0h10.667c0.736 0 1.333 0.597 1.333 1.333v0 4.667c0 0.736-0.597 1.333-1.333 1.333v0zM12 4.667h8v-2h-8z"></path>
</svg>
