<svg version="1.1" xmlns="http://www.w3.org/2000/svg" width="32" height="32" viewBox="0 0 32 32">
<title>object-state</title>
<path fill="#333" d="M30.667 32H24h-.001a1.333 1.333 0 0 1-1.189-1.937l-.003.008 3.333-6.667a1.334 1.334 0 1 1 2.383-.008l.003.008 3.333 6.667a1.333 1.333 0 0 1-1.192 1.93h-.001zm-4.51-2.667h2.353l-1.177-2.353zM4.667 32a4.667 4.667 0 1 1 4.667-4.667A4.667 4.667 0 0 1 4.667 32zm0-6.667a2 2 0 1 0 2 2 2 2 0 0 0-2-2zm14 6.667h-5.333a2 2 0 0 1-2-2v-5.333a2 2 0 0 1 2-2h5.333a2 2 0 0 1 2 2V30a2 2 0 0 1-2 2zM14 29.333h4v-4h-4zm13.333-16h-10V10a1.333 1.333 0 0 0-2.666 0v3.333h-10c-.736 0-1.333.597-1.333 1.333v5.333a1.333 1.333 0 0 0 2.666 0v-4h8.667v4a1.333 1.333 0 0 0 2.666 0v-4H26v4a1.333 1.333 0 0 0 2.666 0v-5.333c0-.736-.597-1.333-1.333-1.333zm-6-6H10.666A1.333 1.333 0 0 1 9.333 6V1.333C9.333.597 9.93 0 10.666 0h10.667c.736 0 1.333.597 1.333 1.333V6c0 .736-.597 1.333-1.333 1.333zM12 4.667h8v-2h-8z"></path>
</svg>
