<svg xmlns="http://www.w3.org/2000/svg" width="32" height="32"><path d="M31 32h-7.333-.001a1 1 0 0 1-.873-1.488l-.003.005 3.667-6.667a1 1 0 0 1 1.751-.005l.003.005 3.667 6.667A1 1 0 0 1 31.003 32h-.001zm-5.643-2h3.953l-1.977-3.59zm-6.024 2h-6.667a1 1 0 0 1-1-1v-6.667a1 1 0 0 1 1-1h6.667a1 1 0 0 1 1 1V31a1 1 0 0 1-1 1zm-5.666-2h4.667v-4.667h-4.667zm-9.334 2a4.333 4.333 0 1 1 4.333-4.333A4.333 4.333 0 0 1 4.333 32zm0-6.667a2.333 2.333 0 1 0 2.333 2.333 2.333 2.333 0 0 0-2.333-2.333zm21-12.666H17v-4h6a1 1 0 0 0 1-1V1a1 1 0 0 0-1-1H9a1 1 0 0 0-1 1v6.667a1 1 0 0 0 1 1h6v4H6.667c-1.87 0-3.333 1.097-3.333 2.5v4.5a1 1 0 0 0 2 0V15.17c.023-.117.487-.503 1.333-.503H15v5a1 1 0 0 0 2 0v-5h8.333c.847 0 1.31.387 1.333.5v4.5a1 1 0 0 0 2 0v-4.5c0-1.403-1.463-2.5-3.333-2.5zM10 2h12v4.667H10z"/></svg>