<svg xmlns="http://www.w3.org/2000/svg" width="32" height="32"><path d="M29 0H9a3 3 0 0 0-3 3v13H3a3.172 3.172 0 0 0-3 3.013V29a3.163 3.163 0 0 0 2.992 3H13a3.163 3.163 0 0 0 3-2.992V26h13a3 3 0 0 0 3-3V3a3 3 0 0 0-3-3zM14 29c-.073.52-.48.927-.994.999L13 30H3a1.19 1.19 0 0 1-.999-.993L2 29v-9.98c.075-.524.479-.935.993-1.019L3 18h10c.521.085.925.496.999 1.014l.001.006zm16-6a1 1 0 0 1-1 1H16v-4.98A3.172 3.172 0 0 0 13.008 16H8V3a1 1 0 0 1 1-1h20a1 1 0 0 1 1 1zM28 6v5a1 1 0 0 1-2 0V7.413l-7.627 7.627a1 1 0 0 1-1.414 0 1 1 0 0 1 0-1.414l7.627-7.627h-3.587a1 1 0 0 1 0-2h5a2 2 0 0 1 2 2z"/></svg>