<svg version="1.1" xmlns="http://www.w3.org/2000/svg" width="32" height="32" viewBox="0 0 32 32">
<title>open-newtab</title>
<path fill="#333" d="M16.533 32h-14.4c-1.177-0.002-2.131-0.956-2.133-2.133v-14.4c0.002-1.177 0.956-2.131 2.133-2.133h8.867c0.736 0 1.333 0.597 1.333 1.333s-0.597 1.333-1.333 1.333v0h-8.333v13.333h13.333v-8.333c0-0.736 0.597-1.333 1.333-1.333s1.333 0.597 1.333 1.333v0 8.867c-0.002 1.177-0.956 2.131-2.133 2.133h-0zM30.667 0h-8c-0.736 0-1.333 0.597-1.333 1.333s0.597 1.333 1.333 1.333v0h4.787l-13.73 13.723c-0.241 0.241-0.391 0.575-0.391 0.943 0 0.737 0.597 1.334 1.334 1.334 0.368 0 0.702-0.149 0.943-0.391l13.723-13.72v4.777c0 0.736 0.597 1.333 1.333 1.333s1.333-0.597 1.333-1.333v0-8c0-0.736-0.597-1.333-1.333-1.333v0z"></path>
</svg>
