<svg version="1.1" xmlns="http://www.w3.org/2000/svg" width="32" height="32" viewBox="0 0 32 32">
<title>open-sametab</title>
<path fill="#333" d="M29.333 32h-26.667c-1.473 0-2.667-1.194-2.667-2.667v0-26.667c0-1.473 1.194-2.667 2.667-2.667v0h26.667c1.473 0 2.667 1.194 2.667 2.667v0 26.667c0 1.473-1.194 2.667-2.667 2.667v0zM2.667 2.667v26.667h26.667v-26.667zM24 6.667h-7.96c-0.736 0-1.333 0.597-1.333 1.333s0.597 1.333 1.333 1.333v0h4.74l-13.723 13.723c-0.241 0.241-0.391 0.575-0.391 0.943 0 0.737 0.597 1.334 1.334 1.334 0.368 0 0.702-0.149 0.943-0.391v0l13.723-13.723v4.74c0 0.736 0.597 1.333 1.333 1.333s1.333-0.597 1.333-1.333v0-7.96c0-0.736-0.597-1.333-1.333-1.333v0z"></path>
</svg>
