<?xml version="1.0" encoding="utf-8"?>
<!-- Generator: Adobe Illustrator 20.1.0, SVG Export Plug-In . SVG Version: 6.00 Build 0)  -->
<svg version="1.1" id="Layer_2" xmlns="http://www.w3.org/2000/svg" xmlns:xlink="http://www.w3.org/1999/xlink" x="0px" y="0px"
	 viewBox="0 0 72 72" style="enable-background:new 0 0 72 72;" xml:space="preserve">
<g>
	<path d="M67,0H5C2.2,0,0,2.2,0,5v62c0,2.8,2.2,5,5,5h62c2.8,0,5-2.2,5-5V5C72,2.2,69.8,0,67,0z M70,67c0,1.7-1.3,3-3,3H5
		c-1.7,0-3-1.3-3-3V5c0-1.7,1.3-3,3-3h62c1.7,0,3,1.3,3,3V67z"/>
	<path d="M54.7,17.3C54.7,17.3,54.7,17.3,54.7,17.3c-0.2-0.2-0.5-0.3-0.8-0.3H34c-0.6,0-1,0.4-1,1s0.4,1,1,1h17.5L17.4,52.7
		c-0.4,0.4-0.4,1,0,1.4c0.2,0.2,0.5,0.3,0.7,0.3c0.3,0,0.5-0.1,0.7-0.3L53,20.4V38c0,0.6,0.4,1,1,1s1-0.4,1-1V18
		C55,17.7,54.9,17.5,54.7,17.3z"/>
</g>
</svg>
