<?xml version="1.0" encoding="utf-8"?>
<!-- Generator: Adobe Illustrator 20.1.0, SVG Export Plug-In . SVG Version: 6.00 Build 0)  -->
<svg version="1.1" id="Layer_1" xmlns="http://www.w3.org/2000/svg" xmlns:xlink="http://www.w3.org/1999/xlink" x="0px" y="0px"
	 viewBox="0 0 72 72" style="enable-background:new 0 0 72 72;" xml:space="preserve">
<path d="M42,19c0,3.3-2.7,6-6,6s-6-2.7-6-6s2.7-6,6-6S42,15.7,42,19z M42,36c0,3.3-2.7,6-6,6s-6-2.7-6-6c0-3.3,2.7-6,6-6
	S42,32.7,42,36z M42,53c0,3.3-2.7,6-6,6s-6-2.7-6-6c0-3.3,2.7-6,6-6S42,49.7,42,53z"/>
</svg>
