<svg xmlns="http://www.w3.org/2000/svg" width="32" height="32"><path d="M24.96 6.733a1.024 1.024 0 0 0-.142-.31l.002.003-3.667-5.24a3 3 0 0 0-2.39-1.187H7.225c-.981 0-1.852.471-2.4 1.199l-.006.008-3.64 5.22c-.06.088-.108.19-.138.3l-.002.007a2.994 2.994 0 0 0-1.04 2.266v14a3 3 0 0 0 3 3h8a1 1 0 0 0 0-2h-8a1 1 0 0 1-1-1v-14a1 1 0 0 1 1-1h20a1 1 0 0 1 1 1v2a1 1 0 0 0 2 0v-2a2.997 2.997 0 0 0-1.036-2.264l-.004-.003zm-5.423-4.38L22.084 6h-8.083V2h4.774a1 1 0 0 1 .762.352l.001.001zm-13.094.02A.999.999 0 0 1 7.255 2h-.002H12v4H3.917zM23 14c-4.971 0-9 4.029-9 9s4.029 9 9 9a9 9 0 0 0 9-9 9 9 0 0 0-9-9zm0 16a7 7 0 1 1 7-7 7 7 0 0 1-7 7zm4.457-9.053l-3.85 4.95a2.026 2.026 0 0 1-2.776.382l.006.004a2.076 2.076 0 0 1-.211-.177l.001.001-2-1.917a1 1 0 1 1 1.387-1.441l1.987 1.917 3.877-4.947a1.001 1.001 0 0 1 1.79.613.996.996 0 0 1-.212.616l.002-.002z"/></svg>