<svg xmlns="http://www.w3.org/2000/svg" viewBox="0 0 96 96"><path d="M87.94 22.62a4 4 0 0 0-.36-2.41l-9-18A4 4 0 0 0 75 0H13a4 4 0 0 0-3.57 2.2L.43 20a4 4 0 0 0-.36 2.51 3.71 3.71 0 0 0-.07.67V70a6 6 0 0 0 6.05 6H32a4 4 0 0 0 0-8H8V25.88c2.09 0 4.9 0 8.21.05 7.31 0 17 .06 26.79.07H80.01v10a4 4 0 0 0 8 0V23.18a3.43 3.43 0 0 0-.07-.56zM41 18c-13 0-24.07 0-30.54-.09l5-9.9H41zm19.94 0H49V8h23.53l5 10.05zm4.38 61a4 4 0 0 1-2.76-1.1l-6.31-6a4 4 0 1 1 5.5-5.8L65 69.16l9-10.72a4 4 0 1 1 6.14 5.12l-11.68 14A4 4 0 0 1 65.55 79zM96 68a28 28 0 1 0-28 28 28 28 0 0 0 28-28zm-8 0a20 20 0 1 1-20-20 20 20 0 0 1 20 20z" fill="#333"/></svg>