<svg version="1.1" xmlns="http://www.w3.org/2000/svg" width="32" height="32" viewBox="0 0 32 32">
<title>order-management</title>
<path fill="#333" d="M29.313 7.54c0.011-0.064 0.017-0.138 0.017-0.214 0-0.215-0.051-0.417-0.141-0.597l0.003 0.008-3-6c-0.224-0.44-0.674-0.737-1.192-0.737-0 0-0.001 0-0.001 0h-20.667c-0.517 0-0.966 0.295-1.187 0.726l-0.003 0.007-3 5.933c-0.089 0.174-0.142 0.38-0.142 0.598 0 0.084 0.008 0.167 0.023 0.247l-0.001-0.008c-0.014 0.067-0.022 0.144-0.023 0.222v15.608c0 0 0 0 0 0 0 1.105 0.895 2 2 2 0.006 0 0.012-0 0.018-0h8.649c0.736 0 1.333-0.597 1.333-1.333s-0.597-1.333-1.333-1.333v0h-8v-14.040c0.697 0 1.633 0 2.737 0.017 2.437 0 5.667 0.020 8.93 0.023h12.337v3.333c0 0.736 0.597 1.333 1.333 1.333s1.333-0.597 1.333-1.333v0-4.273c-0.003-0.068-0.011-0.132-0.025-0.194l0.001 0.008zM13.667 6c-4.333 0-8.023 0-10.18-0.030l1.667-3.3h8.513zM20.313 6h-3.98v-3.333h7.843l1.667 3.35zM21.773 26.333c-0 0-0.001 0-0.002 0-0.356 0-0.68-0.14-0.919-0.367l0.001 0.001-2.103-2c-0.281-0.246-0.457-0.605-0.457-1.005 0-0.736 0.597-1.333 1.333-1.333 0.375 0 0.714 0.155 0.956 0.404l0 0 1.083 1.020 3-3.573c0.246-0.316 0.627-0.518 1.055-0.518 0.736 0 1.333 0.597 1.333 1.333 0 0.343-0.13 0.656-0.342 0.892l0.001-0.001-3.893 4.667c-0.235 0.281-0.58 0.463-0.967 0.48l-0.003 0zM32 22.667c0-5.155-4.179-9.333-9.333-9.333s-9.333 4.179-9.333 9.333c0 5.155 4.179 9.333 9.333 9.333v0c5.155 0 9.333-4.179 9.333-9.333v0zM29.333 22.667c0 3.682-2.985 6.667-6.667 6.667s-6.667-2.985-6.667-6.667c0-3.682 2.985-6.667 6.667-6.667v0c3.682 0 6.667 2.985 6.667 6.667v0z"></path>
</svg>
