<?xml version="1.0" encoding="utf-8"?>
<!-- Generator: Adobe Illustrator 20.1.0, SVG Export Plug-In . SVG Version: 6.00 Build 0)  -->
<svg version="1.1" id="Layer_1" xmlns="http://www.w3.org/2000/svg" xmlns:xlink="http://www.w3.org/1999/xlink" x="0px" y="0px"
	 viewBox="0 0 72 72" style="enable-background:new 0 0 72 72;" xml:space="preserve">
<g>
	<path d="M38.7,72h-5.5c-1.7,0-3.2-1.5-3.2-3.1v-4.8c0-0.7-0.5-1.5-1.1-1.6c0,0-0.1,0-0.1,0l-6.6-2.7c0,0-0.1,0-0.1,0
		c-0.6-0.3-1.5-0.2-2,0.3l-3.4,3.4c-1.2,1.2-3.1,1.2-4.3,0l-3.9-3.9c-0.6-0.6-0.9-1.3-0.9-2.1c0-0.8,0.3-1.6,0.9-2.1l3.4-3.4
		c0.5-0.5,0.6-1.4,0.3-2c0,0,0-0.1,0-0.1l-2.7-6.6c0,0,0-0.1,0-0.1C9.3,42.5,8.5,42,7.8,42H3c-1.6,0-3-1.5-3-3.3v-5.5
		C0,31.5,1.4,30,3,30h4.8c0.7,0,1.5-0.5,1.6-1.1c0,0,0-0.1,0-0.1l2.7-6.6c0,0,0-0.1,0-0.1c0.3-0.5,0.2-1.3,0.1-1.6l-3.3-3.3
		c-1.1-1.1-1.3-2.1-1.3-2.7c0-0.7,0.3-1.5,0.8-2l3.9-3.9c1.2-1.2,3.1-1.2,4.2,0l3.4,3.4c0.5,0.5,1.4,0.6,2,0.3c0,0,0.1,0,0.1,0
		l6.6-2.8c0,0,0.1,0,0.1,0C29.5,9.3,30,8.5,30,7.8V3.1C30,1.4,31.5,0,33.2,0h5.5C40.4,0,42,1.5,42,3.1v4.8c0,0.7,0.5,1.5,1.1,1.6
		c0,0,0.1,0,0.1,0l6.6,2.8c0,0,0.1,0,0.1,0c0.6,0.3,1.5,0.2,2-0.3l3.4-3.4c1.2-1.2,3.1-1.2,4.2,0l3.9,3.9c1.2,1.2,1.2,3.1,0,4.2
		L60,20.1c-0.5,0.5-0.6,1.4-0.3,2c0,0,0,0.1,0,0.1l2.8,6.6c0,0,0,0.1,0,0.1c0.2,0.6,0.9,1.1,1.6,1.1H69c1.6,0,3,1.5,3,3.3v5.5
		c0,1.7-1.4,3.3-3,3.3h-4.8c-0.7,0-1.5,0.5-1.6,1.1c0,0,0,0.1,0,0.1l-2.8,6.6c0,0,0,0.1,0,0.1c-0.3,0.6-0.2,1.5,0.3,2l3.4,3.4
		c0.6,0.6,0.9,1.3,0.9,2.1c0,0.8-0.3,1.6-0.9,2.1l-3.9,3.9c-1.2,1.2-3.1,1.2-4.2,0L51.9,60c-0.5-0.5-1.4-0.6-2-0.3c0,0-0.1,0-0.1,0
		l-6.6,2.7c0,0-0.1,0-0.1,0c-0.6,0.2-1.1,0.9-1.1,1.6v4.8C42,70.5,40.4,72,38.7,72z M29.5,60.6c1.4,0.4,2.5,2,2.5,3.5v4.8
		c0,0.5,0.6,1.1,1.2,1.1h5.5c0.6,0,1.3-0.6,1.3-1.1v-4.8c0-1.6,1.1-3.1,2.5-3.5l6.5-2.7c1.4-0.7,3.2-0.4,4.3,0.6l3.4,3.4
		c0.4,0.4,1,0.4,1.4,0l3.9-3.9c0.2-0.2,0.3-0.4,0.3-0.7c0-0.3-0.1-0.5-0.3-0.7l-3.4-3.4c-1.1-1.1-1.3-3-0.6-4.3l2.7-6.5
		c0.4-1.4,2-2.5,3.5-2.5H69c0.5,0,1-0.6,1-1.3v-5.5c0-0.6-0.5-1.3-1-1.3h-4.8c-1.6,0-3.1-1.1-3.5-2.5L57.9,23
		c-0.7-1.3-0.4-3.2,0.7-4.3l3.4-3.4c0.4-0.4,0.4-1,0-1.4L58.1,10c-0.4-0.4-1-0.4-1.4,0l-3.4,3.4c-1.1,1.1-3,1.4-4.3,0.6l-6.5-2.7
		c-1.4-0.4-2.5-2-2.5-3.5V3.1C40,2.6,39.3,2,38.7,2h-5.5C32.6,2,32,2.5,32,3.1v4.8c0,1.6-1.1,3.1-2.5,3.5L23,14.1
		c-1.3,0.7-3.2,0.4-4.3-0.6L15.3,10c-0.4-0.4-1-0.4-1.4,0L10,13.9c-0.2,0.2-0.2,0.4-0.2,0.6c0,0.4,0.3,0.9,0.7,1.3l3.4,3.4
		c0.7,0.7,0.8,2.7,0.2,3.9l-2.7,6.5c-0.5,1.4-2,2.5-3.5,2.5H3c-0.5,0-1,0.6-1,1.3v5.5C2,39.4,2.5,40,3,40h4.8c1.6,0,3.1,1.1,3.5,2.5
		L14,49c0.7,1.4,0.4,3.2-0.6,4.3L10,56.7c-0.2,0.2-0.3,0.4-0.3,0.7s0.1,0.5,0.3,0.7l3.9,3.9c0.4,0.4,1,0.4,1.4,0l3.4-3.4
		c1.1-1.1,3-1.4,4.3-0.6L29.5,60.6z M12.4,20.6C12.4,20.6,12.4,20.6,12.4,20.6L12.4,20.6z M12.4,20.5L12.4,20.5L12.4,20.5z M36,54.5
		L36,54.5L36,54.5c-10.2,0-18.5-8.3-18.5-18.5c0-3.3,0.9-6.3,2.3-9c0-0.1,0-0.1,0.1-0.2c0-0.1,0.1-0.1,0.1-0.2
		c3.2-5.5,9.2-9.2,16-9.2c6.8,0,12.8,3.7,16,9.2c0,0,0,0.1,0.1,0.1c0,0,0,0.1,0,0.1c1.5,2.7,2.4,5.8,2.4,9.1
		C54.5,46.2,46.2,54.5,36,54.5L36,54.5z M37,39.4l0,13.1c8.6-0.5,15.5-7.7,15.5-16.5c0-2.6-0.6-5.1-1.7-7.3l-11.4,6.4
		c0.1,0.3,0.1,0.6,0.1,0.9C39.5,37.6,38.4,38.9,37,39.4z M21.2,28.7c-1.1,2.2-1.7,4.7-1.7,7.3c0,8.8,6.9,15.9,15.5,16.5l0-13.1
		c-1.4-0.4-2.5-1.8-2.5-3.4c0-0.3,0-0.6,0.1-0.9L21.2,28.7z M34.7,35.2c-0.1,0.2-0.2,0.5-0.2,0.8c0,0.8,0.7,1.5,1.5,1.5
		c0.8,0,1.5-0.7,1.5-1.5c0-0.8-0.7-1.5-1.5-1.5C35.5,34.5,35,34.8,34.7,35.2C34.7,35.2,34.7,35.2,34.7,35.2z M22.2,27l11.5,6.4
		c0.6-0.5,1.4-0.9,2.3-0.9c0.9,0,1.7,0.3,2.3,0.9L49.8,27c-3-4.5-8-7.4-13.8-7.4C30.2,19.5,25.2,22.5,22.2,27z"/>
</g>
</svg>
