<svg version="1.1" xmlns="http://www.w3.org/2000/svg" width="32" height="32" viewBox="0 0 32 32">
<title>paragraph</title>
<path fill="#333" d="M27.333 0h-16.733c-0.073 0-7.267 0.147-7.267 8.29s7.117 8.27 7.2 8.27h4.8v14.107c0 0.736 0.597 1.333 1.333 1.333s1.333-0.597 1.333-1.333v0-28h2.667v28c0 0.736 0.597 1.333 1.333 1.333s1.333-0.597 1.333-1.333v0-28h4c0.736 0 1.333-0.597 1.333-1.333s-0.597-1.333-1.333-1.333v0zM15.333 13.893h-4.783c-0.463-0.010-4.55-0.25-4.55-5.603s4.153-5.623 4.61-5.623h4.723z"></path>
</svg>
