<?xml version="1.0" encoding="utf-8"?>
<!-- Generator: Adobe Illustrator 20.1.0, SVG Export Plug-In . SVG Version: 6.00 Build 0)  -->
<svg version="1.1" id="Layer_2" xmlns="http://www.w3.org/2000/svg" xmlns:xlink="http://www.w3.org/1999/xlink" x="0px" y="0px"
	 viewBox="0 0 72 72" style="enable-background:new 0 0 72 72;" xml:space="preserve">
<g>
	<g>
		<path d="M37.2,34.5H23.1c-0.1,0-14.9-0.2-14.9-17.2C8.2,0.2,23.1,0,23.3,0h39.5c0.6,0,1,0.4,1,1s-0.4,1-1,1H23.3
			c-0.5,0-13.1,0.2-13.1,15.3c0,15,12.4,15.2,12.9,15.2h14.1c0.6,0,1,0.4,1,1S37.8,34.5,37.2,34.5z"/>
	</g>
	<g>
		<path d="M37.6,72c-0.6,0-1-0.4-1-1V1.6c0-0.6,0.4-1,1-1s1,0.4,1,1V71C38.6,71.6,38.1,72,37.6,72z"/>
	</g>
	<g>
		<path d="M49.8,72c-0.6,0-1-0.4-1-1V1.6c0-0.6,0.4-1,1-1s1,0.4,1,1V71C50.8,71.6,50.3,72,49.8,72z"/>
	</g>
</g>
</svg>
