<svg version="1.1" xmlns="http://www.w3.org/2000/svg" width="32" height="32" viewBox="0 0 32 32">
<title>paragraph-add</title>
<path fill="#333" d="M26.333 0h-16.733c-0.073 0-7.267 0.147-7.267 8.29s7.117 8.27 7.2 8.27h4.8v14.107c0 0.736 0.597 1.333 1.333 1.333s1.333-0.597 1.333-1.333v0-28h2.667v15.333c0 0.736 0.597 1.333 1.333 1.333s1.333-0.597 1.333-1.333v0-15.333h4c0.736 0 1.333-0.597 1.333-1.333s-0.597-1.333-1.333-1.333v0zM14.333 13.893h-4.783c-0.463-0.010-4.55-0.25-4.55-5.603s4.153-5.623 4.61-5.623h4.723zM29.667 26.667c0 0.736-0.597 1.333-1.333 1.333v0h-2.667v2.667c0 0.736-0.597 1.333-1.333 1.333s-1.333-0.597-1.333-1.333v0-2.667h-2.667c-0.736 0-1.333-0.597-1.333-1.333s0.597-1.333 1.333-1.333v0h2.667v-2.667c0-0.736 0.597-1.333 1.333-1.333s1.333 0.597 1.333 1.333v0 2.667h2.667c0.736 0 1.333 0.597 1.333 1.333v0z"></path>
</svg>
