<?xml version="1.0" encoding="utf-8"?>
<!-- Generator: Adobe Illustrator 20.1.0, SVG Export Plug-In . SVG Version: 6.00 Build 0)  -->
<svg version="1.1" id="Layer_3" xmlns="http://www.w3.org/2000/svg" xmlns:xlink="http://www.w3.org/1999/xlink" x="0px" y="0px"
	 viewBox="0 0 72 72" style="enable-background:new 0 0 72 72;" xml:space="preserve">
<path d="M29,35H14.9C14.7,35,0,34.5,0,17.5C0,0.5,14.9,0,15,0h40c0.6,0,1,0.4,1,1s-0.4,1-1,1H15.1C14.5,2,2,2.4,2,17.5
	C2,32.6,14.4,33,14.9,33H29c0.6,0,1,0.4,1,1S29.6,35,29,35z M30,72c-0.6,0-1-0.4-1-1V2c0-0.6,0.4-1,1-1s1,0.4,1,1v69
	C31,71.6,30.6,72,30,72z M42,37c-0.6,0-1-0.4-1-1V2c0-0.6,0.4-1,1-1s1,0.4,1,1v34C43,36.6,42.6,37,42,37z M51.9,72
	c-8.3,0-15-6.7-15-15s6.7-15,15-15c8.3,0,15,6.7,15,15S60.1,72,51.9,72z M51.9,44c-7.2,0-13,5.8-13,13s5.8,13,13,13
	c7.2,0,13-5.8,13-13S59,44,51.9,44z M52,64c-0.6,0-1-0.4-1-1V51c0-0.6,0.4-1,1-1s1,0.4,1,1v12C53,63.6,52.6,64,52,64z M58,58H46
	c-0.6,0-1-0.4-1-1s0.4-1,1-1h12c0.6,0,1,0.4,1,1S58.6,58,58,58z"/>
</svg>
