<svg version="1.1" xmlns="http://www.w3.org/2000/svg" width="32" height="32" viewBox="0 0 32 32">
<title>pdf-file</title>
<path fill="#333" d="M12.667 20.080c0.003 0.041 0.005 0.090 0.005 0.138 0 0.598-0.258 1.135-0.67 1.507l-0.002 0.002c-0.484 0.36-1.093 0.576-1.752 0.576-0.066 0-0.132-0.002-0.197-0.006l0.009 0h-0.627v2.37h-1.433v-6.667h2.157c0.061-0.005 0.131-0.007 0.202-0.007 0.625 0 1.204 0.199 1.676 0.536l-0.009-0.006c0.396 0.348 0.645 0.856 0.645 1.422 0 0.047-0.002 0.094-0.005 0.141l0-0.006zM9.433 21.137h0.47c0.037 0.003 0.079 0.005 0.123 0.005 0.326 0 0.63-0.098 0.883-0.265l-0.006 0.004c0.201-0.195 0.326-0.468 0.326-0.769 0-0.275-0.104-0.525-0.274-0.715l0.001 0.001c-0.21-0.153-0.473-0.244-0.758-0.244-0.037 0-0.074 0.002-0.111 0.005l0.005-0h-0.66zM19 21.27q0 1.643-0.903 2.52t-2.61 0.877h-1.82v-6.667h2q1.577 0 2.447 0.863c0.552 0.579 0.892 1.364 0.892 2.229 0 0.062-0.002 0.124-0.005 0.186l0-0.009zM17.583 21.307q0-2.15-1.827-2.15h-0.727v4.333h0.583q1.97 0.010 1.97-2.183zM21.457 24.667h-1.457v-6.667h4v1.157h-2.543v1.72h2.367v1.153h-2.367zM27.667 9.733l-8.21-9.283c-0.245-0.277-0.602-0.45-0.999-0.45-0 0-0.001 0-0.001 0h-13.123c-0.736 0-1.333 0.597-1.333 1.333v0 29.333c0 0.736 0.597 1.333 1.333 1.333v0h21.333c0.736 0 1.333-0.597 1.333-1.333v0-20.050c0-0 0-0.001 0-0.001 0-0.339-0.126-0.648-0.335-0.883l0.001 0.001zM24.93 10.667h-3.597c-1.92 0-2.667-0.753-2.667-2.687v-4.397zM6.667 29.333v-26.667h9.333v5.313c0 3.403 1.953 5.353 5.333 5.353h4v16z"></path>
</svg>
