<svg xmlns="http://www.w3.org/2000/svg" width="32" height="32"><path d="M32 21a1 1 0 0 1-1 1h-2a1 1 0 0 0-1 1v3h2a1 1 0 0 1 0 2h-2v3a1 1 0 0 1-2 0v-8a3 3 0 0 1 3-3h2a1 1 0 0 1 1 1zm-8 6v-2a5 5 0 0 0-5-5 1 1 0 0 0-1 1v10a1 1 0 0 0 1 1 5 5 0 0 0 5-5zm-2-2v2.002a3.002 3.002 0 0 1-1.979 2.822l-.021.007v-7.667c1.175.424 2 1.53 2 2.828v.009zm-6.977 1.62A3.994 3.994 0 0 1 12.001 28H12v3a1 1 0 0 1-2 0V21a1 1 0 0 1 1-1H11.946a4.064 4.064 0 0 1 4.008 3.39l.003.024a4 4 0 0 1-.938 3.211l.004-.005zm-1.046-2.923A2.05 2.05 0 0 0 12.002 22H12v4a2 2 0 0 0 1.975-2.315l.001.011zm13.146-15l-7.83-7.82A2.99 2.99 0 0 0 17.174 0H3a3 3 0 0 0-3 3v26a3 3 0 0 0 3 3h4a1 1 0 0 0 0-2H3a1 1 0 0 1-1-1V3a1 1 0 0 1 1-1h13v7a3 3 0 0 0 3 3h7v5a1 1 0 0 0 2 0v-6.173-.001c0-.827-.335-1.577-.877-2.119zM18 9V2.413L25.587 10H19a1 1 0 0 1-1-1z"/></svg>