<?xml version="1.0" encoding="utf-8"?>
<!-- Generator: Adobe Illustrator 20.1.0, SVG Export Plug-In . SVG Version: 6.00 Build 0)  -->
<svg version="1.1" id="Layer_1" xmlns="http://www.w3.org/2000/svg" xmlns:xlink="http://www.w3.org/1999/xlink" x="0px" y="0px"
	 viewBox="0 0 72 72" style="enable-background:new 0 0 72 72;" xml:space="preserve">
<path d="M59.1,72H12.9C10.8,72,9,70.2,9,68V4c0-2.2,1.8-4,3.9-4h28.9c0.3,0,0.5,0.1,0.7,0.3l20.2,21.3c0.2,0.2,0.3,0.4,0.3,0.7V68
	C63,70.2,61.3,72,59.1,72z M12.9,2C11.9,2,11,2.9,11,4v64c0,1.1,0.9,2,1.9,2h46.1c1.1,0,1.9-0.9,1.9-2V22.7L41.4,2H12.9z M61,24
	H48.3c-3.9,0-8.3-2.9-8.3-7L39.9,1.8c0-0.6,0.4-0.8,1-0.8c0,0,0,0,0,0c0.5,0,1,0.2,1,0.8l0.2,15.3c0,2.8,3.4,4.9,6.3,4.9H61
	c0.6,0,1,0.4,1,1S61.6,24,61,24z M17.2,61V46.6h5.3c0.9,0,1.7,0.1,2.3,0.3c0.6,0.2,1.1,0.5,1.4,0.9c0.4,0.4,0.6,0.8,0.7,1.3
	c0.1,0.5,0.2,1,0.2,1.5c0,0.8-0.2,1.5-0.5,2c-0.3,0.5-0.8,0.9-1.3,1.2c-0.5,0.3-1.1,0.5-1.8,0.6c-0.7,0.1-1.3,0.2-2,0.2h-3.1V61
	H17.2z M21.7,53.5c0.6,0,1.2,0,1.7-0.1s0.9-0.2,1.3-0.5c0.4-0.2,0.6-0.5,0.8-0.9c0.2-0.4,0.3-0.9,0.3-1.5c0-0.9-0.3-1.6-0.9-2.1
	s-1.5-0.7-2.8-0.7h-3.5v5.7H21.7z M31,61V46.6h4.9c0.4,0,0.8,0,1.2,0c0.4,0,0.8,0.1,1.1,0.1c0.4,0.1,0.7,0.2,1.1,0.3
	c0.4,0.1,0.7,0.3,1,0.6c0.5,0.3,0.9,0.8,1.2,1.3s0.5,1,0.7,1.6c0.2,0.6,0.3,1.1,0.4,1.7s0.1,1.1,0.1,1.6c0,0.5,0,1-0.1,1.5
	c-0.1,0.5-0.2,1-0.3,1.5c-0.1,0.5-0.3,0.9-0.5,1.4c-0.2,0.4-0.5,0.8-0.8,1.2c-0.3,0.4-0.7,0.7-1.1,0.9s-0.8,0.4-1.2,0.5
	c-0.4,0.1-0.9,0.2-1.3,0.3c-0.5,0-0.9,0.1-1.4,0.1H31z M32.3,59.8h3.3c0.6,0,1.2,0,1.7-0.1c0.5-0.1,1.1-0.3,1.6-0.6
	c0.5-0.2,0.9-0.6,1.2-1c0.3-0.4,0.5-0.9,0.7-1.4c0.2-0.5,0.3-1,0.4-1.5s0.1-1,0.1-1.5c0-0.5,0-1.1-0.1-1.6c-0.1-0.5-0.2-1.1-0.4-1.5
	s-0.4-0.9-0.8-1.3c-0.3-0.4-0.7-0.7-1.2-1c-0.4-0.2-0.9-0.4-1.5-0.4c-0.6-0.1-1.2-0.1-1.8-0.1h-3.3V59.8z M46.8,61V46.6H56v1.2h-7.9
	V53h7.2v1.2h-7.2V61H46.8z"/>
</svg>
