<svg xmlns="http://www.w3.org/2000/svg" width="32" height="32"><path d="M11 28H3a3 3 0 0 1-3-3V3a3 3 0 0 1 3-3h14.174c.827 0 1.577.335 2.119.877l3.83 3.83A2.99 2.99 0 0 1 24 6.826V9a1 1 0 0 1-2 0V6.827a.996.996 0 0 0-.293-.703l-3.83-3.83a.996.996 0 0 0-.703-.293H3a1 1 0 0 0-1 1v22a1 1 0 0 0 1 1h8a1 1 0 0 1 0 2zm15-6a3 3 0 1 0-3 3 3 3 0 0 0 3-3zm-2 0a1 1 0 1 1-1-1 1 1 0 0 1 1 1zm1.667 8.027l.59-1.93a.334.334 0 0 1 .386-.223h-.002l1.96.46a2.783 2.783 0 0 0 2.665-4.614l.001.001-1.39-1.487a.33.33 0 0 1 .001-.457l1.373-1.48a2.787 2.787 0 0 0-2.686-4.61l.019-.004-1.95.457a.332.332 0 0 1-.386-.224l-.001-.002-.58-1.933a2.762 2.762 0 0 0-2.645-1.98h-.023H23h-.025a2.758 2.758 0 0 0-2.637 1.951l-.005.02-.59 1.937a.334.334 0 0 1-.386.223h.002l-1.96-.463a2.783 2.783 0 0 0-2.665 4.614l1.375 1.479a.33.33 0 0 1-.001.457l-1.373 1.48a2.787 2.787 0 0 0 2.686 4.61l-.019.004 1.96-.457a.332.332 0 0 1 .386.224l.001.002.583 1.943a2.773 2.773 0 1 0 5.308.019l.005-.02zm-6.75-4.11l-1.957.453a.787.787 0 0 1-.749-1.304l1.377-1.48c.387-.415.624-.974.624-1.588s-.237-1.173-.625-1.59l.001.001-1.377-1.483a.782.782 0 0 1 .571-1.319c.061 0 .12.007.177.02l-.005-.001 1.967.453a2.335 2.335 0 0 0 2.742-1.573l.005-.017.59-1.94a.771.771 0 0 1 .738-.55h.01c.347 0 .641.231.735.548l.001.005.593 1.943a2.339 2.339 0 0 0 2.766 1.587l-.016.003 1.957-.453a.787.787 0 0 1 .749 1.304l-1.377 1.48c-.387.415-.624.974-.624 1.588s.237 1.173.625 1.59l-.001-.001 1.377 1.483a.787.787 0 0 1-.749 1.302l.005.001-1.967-.457a2.335 2.335 0 0 0-2.742 1.573l-.005.017-.59 1.937a.778.778 0 1 1-1.485.006l-.001-.006-.59-1.943a2.339 2.339 0 0 0-2.766-1.587l.016-.003z"/></svg>