<svg xmlns="http://www.w3.org/2000/svg" width="32" height="32"><path d="M23 25a3 3 0 1 1 3-3 3 3 0 0 1-3 3zm0-4a1 1 0 1 0 1 1 1 1 0 0 0-1-1zm0 11h-.025a2.756 2.756 0 0 1-2.637-1.957l-.005-.02-.59-1.933a.334.334 0 0 0-.389-.226h.002l-1.95.47a2.787 2.787 0 0 1-2.665-4.616l-.002.002 1.373-1.48a.33.33 0 0 0-.001-.457l-1.377-1.48a2.783 2.783 0 0 1 2.682-4.632l-.019-.004 1.97.453a.333.333 0 0 0 .382-.221l.001-.002.58-1.927A2.762 2.762 0 0 1 22.972 12h.026-.001.022c1.246 0 2.298.826 2.64 1.961l.005.02.59 1.933a.334.334 0 0 0 .389.226h-.002l1.96-.457a2.787 2.787 0 0 1 2.665 4.616l.002-.002-1.373 1.48a.33.33 0 0 0 .001.457l1.377 1.483a2.783 2.783 0 0 1-2.692 4.612l.019.004-1.97-.457a.333.333 0 0 0-.382.221l-.001.002-.58 1.927a2.76 2.76 0 0 1-2.641 1.973h-.027H23zm-3.563-6.143a2.335 2.335 0 0 1 2.226 1.65l.004.017.59 1.937a.778.778 0 1 0 1.485.006l.001-.006.59-1.947a2.338 2.338 0 0 1 2.762-1.587l-.016-.003 1.967.457a.787.787 0 0 0 .743-1.304l-1.377-1.483c-.387-.415-.624-.974-.624-1.588s.237-1.173.625-1.59l-.001.001 1.377-1.48a.787.787 0 0 0-.756-1.302l.005-.001-1.957.453a2.335 2.335 0 0 1-2.745-1.573l-.005-.017-.59-1.937a.767.767 0 0 0-.738-.56h-.01a.769.769 0 0 0-.736.545l-.001.005-.59 1.94a2.338 2.338 0 0 1-2.762 1.587l.016.003-1.967-.453a.783.783 0 0 0-.743 1.3l1.377 1.483c.387.415.624.974.624 1.588s-.237 1.173-.625 1.59l.001-.001-1.377 1.48a.787.787 0 0 0 .756 1.302l-.005.001 1.957-.453c.156-.038.335-.06.52-.06zm3.23-19.524A1.667 1.667 0 1 1 21 4.666c.92 0 1.667.746 1.667 1.667zm-13.15 20.04a1 1 0 0 0 0-1.414l-7.22-7.197a1 1 0 0 1-.297-.71v-.009c0-.278.113-.53.297-.711l14.09-14.037a.998.998 0 0 1 .711-.297H24.334a1 1 0 0 1 1 1v7.363a1 1 0 0 0 2 0V2.998a3 3 0 0 0-3-3h-7.237a2.99 2.99 0 0 0-2.123.88L.884 14.925C.338 15.468 0 16.221 0 17.052s.338 1.583.884 2.127l7.22 7.193c.18.18.428.292.703.293h.002a1 1 0 0 0 .708-.293z"/></svg>