<svg xmlns="http://www.w3.org/2000/svg" width="32" height="32"><path d="M23 25a3 3 0 1 1 3-3 3 3 0 0 1-3 3zm0-4a1 1 0 1 0 1 1 1 1 0 0 0-1-1zm0 11h-.025a2.756 2.756 0 0 1-2.637-1.957l-.005-.02-.59-1.933a.334.334 0 0 0-.389-.226h.002l-1.95.47a2.787 2.787 0 0 1-2.665-4.616l-.002.002 1.373-1.48a.33.33 0 0 0-.001-.457l-1.377-1.48a2.783 2.783 0 0 1 2.682-4.632l-.019-.004 1.97.453a.333.333 0 0 0 .382-.221l.001-.002.58-1.927a2.773 2.773 0 1 1 5.308-.019l.005.02.59 1.933a.334.334 0 0 0 .389.226h-.002l1.963-.457a2.787 2.787 0 0 1 2.665 4.616l.002-.002-1.373 1.483a.332.332 0 0 0 0 .454l1.377 1.483a2.783 2.783 0 0 1-2.676 4.623l.019.004-1.97-.457a.333.333 0 0 0-.382.221l-.001.002-.58 1.927A2.76 2.76 0 0 1 23.023 32h-.027.001zm-3.563-6.143a2.335 2.335 0 0 1 2.226 1.65l.004.017.59 1.933a.778.778 0 1 0 1.485.006l.001-.006.59-1.943a2.338 2.338 0 0 1 2.762-1.587l-.016-.003 1.967.457a.787.787 0 0 0 .743-1.304l-1.377-1.483c-.387-.415-.624-.974-.624-1.588s.237-1.173.625-1.59l-.001.001 1.377-1.48a.787.787 0 0 0-.756-1.302l.005-.001-1.957.453a2.335 2.335 0 0 1-2.745-1.573l-.005-.017-.59-1.937a.767.767 0 0 0-.738-.56h-.01a.769.769 0 0 0-.736.545l-.001.005-.59 1.94a2.338 2.338 0 0 1-2.762 1.587l.016.003-1.967-.453a.783.783 0 0 0-.743 1.3l1.377 1.483c.387.415.624.974.624 1.588s-.237 1.173-.625 1.59l.001-.001-1.377 1.48a.787.787 0 0 0 .756 1.302l-.005.001 1.957-.453c.156-.038.335-.059.52-.06zM27 0H3a3 3 0 0 0-3 3v22a3 3 0 0 0 3 3h8a1 1 0 0 0 0-2H3a1 1 0 0 1-1-1V8h26v1a1 1 0 0 0 2 0V3a3 3 0 0 0-3-3zM2 6V3a1 1 0 0 1 1-1h24a1 1 0 0 1 1 1v3z"/></svg>