<svg version="1.1" xmlns="http://www.w3.org/2000/svg" width="32" height="32" viewBox="0 0 32 32">
<title>personalize</title>
<path fill="#333" d="M24.763 32h-2.86c-0.564-0.005-1.043-0.36-1.234-0.858l-0.003-0.009-0.497-1.333c-0.36-0.172-0.663-0.345-0.951-0.537l0.028 0.017-1.58 0.283c-0.068 0.012-0.145 0.019-0.225 0.019-0.486 0-0.912-0.261-1.145-0.65l-0.003-0.006-1.427-2.41c-0.118-0.195-0.188-0.43-0.188-0.682 0-0.332 0.122-0.636 0.323-0.87l-0.001 0.002 1-1.187v-0.887l-1-1.19c-0.201-0.232-0.323-0.537-0.323-0.87 0-0.251 0.069-0.486 0.19-0.686l-0.003 0.006 1.427-2.41c0.236-0.396 0.662-0.656 1.149-0.656 0.081 0 0.159 0.007 0.236 0.021l-0.008-0.001 1.58 0.273c0.262-0.176 0.565-0.35 0.881-0.503l0.046-0.020 0.497-1.333c0.196-0.502 0.673-0.851 1.233-0.857h2.861c0.564 0.005 1.043 0.36 1.234 0.858l0.003 0.009 0.497 1.333c0.361 0.173 0.665 0.347 0.955 0.541l-0.028-0.018 1.577-0.283c0.068-0.012 0.145-0.019 0.225-0.019 0.486 0 0.912 0.261 1.145 0.65l0.003 0.006 1.427 2.41c0.118 0.195 0.188 0.43 0.188 0.682 0 0.332-0.122 0.636-0.323 0.87l0.001-0.002-1 1.19v0.89l1 1.187c0.201 0.232 0.323 0.537 0.323 0.87 0 0.251-0.069 0.486-0.19 0.686l0.003-0.006-1.417 2.413c-0.236 0.395-0.662 0.655-1.148 0.655-0.084 0-0.167-0.008-0.247-0.023l0.008 0.001-1.59-0.273c-0.259 0.174-0.559 0.346-0.872 0.497l-0.045 0.020-0.493 1.323c-0.193 0.507-0.673 0.861-1.236 0.867h-0.001zM22.83 29.333h1l0.37-1c0.142-0.365 0.43-0.646 0.791-0.777l0.009-0.003c0.488-0.184 0.911-0.426 1.286-0.724l-0.010 0.007c0.225-0.178 0.513-0.286 0.826-0.286 0.081 0 0.159 0.007 0.236 0.021l-0.008-0.001 1.233 0.213 0.467-0.783-0.773-0.903c-0.204-0.233-0.328-0.54-0.328-0.876 0-0.078 0.007-0.154 0.019-0.228l-0.001 0.008c0.034-0.2 0.053-0.431 0.053-0.666 0-0 0-0.001 0-0.001v0c-0-0.235-0.018-0.466-0.053-0.692l0.003 0.025c-0.010-0.061-0.016-0.132-0.016-0.204 0-0.333 0.122-0.637 0.324-0.871l-0.001 0.002 0.773-0.9-0.47-0.797-1.227 0.207c-0.067 0.012-0.145 0.019-0.224 0.019-0.315 0-0.604-0.109-0.832-0.291l0.003 0.002c-0.367-0.291-0.79-0.534-1.247-0.709l-0.033-0.011c-0.367-0.135-0.652-0.416-0.79-0.771l-0.003-0.009-0.37-1h-1l-0.37 1c-0.142 0.365-0.43 0.646-0.791 0.777l-0.009 0.003c-0.491 0.186-0.915 0.429-1.294 0.728l0.010-0.008c-0.225 0.18-0.514 0.289-0.829 0.289-0.079 0-0.157-0.007-0.232-0.020l0.008 0.001-1.227-0.21-0.47 0.797 0.773 0.9c0.202 0.233 0.326 0.538 0.326 0.873 0 0.072-0.006 0.142-0.017 0.211l0.001-0.008c-0.032 0.2-0.050 0.431-0.050 0.667v0c0 0.235 0.019 0.466 0.057 0.691l-0.003-0.024c0.010 0.060 0.015 0.13 0.015 0.201 0 0.334-0.123 0.64-0.327 0.874l0.001-0.002-0.77 0.897 0.47 0.8 1.223-0.203c0.069-0.012 0.147-0.020 0.228-0.020 0.313 0 0.601 0.108 0.828 0.288l-0.003-0.002c0.367 0.292 0.79 0.535 1.248 0.709l0.032 0.011c0.367 0.135 0.652 0.416 0.79 0.771l0.003 0.009zM23.333 27c-2.025 0-3.667-1.642-3.667-3.667s1.642-3.667 3.667-3.667c2.025 0 3.667 1.642 3.667 3.667v0c0 2.025-1.642 3.667-3.667 3.667v0zM23.333 22.333c-0.552 0-1 0.448-1 1s0.448 1 1 1c0.552 0 1-0.448 1-1v0c0-0.552-0.448-1-1-1v0zM4.667 3.607c-0.736 0-1.333 0.597-1.333 1.333s0.597 1.333 1.333 1.333c0.736 0 1.333-0.597 1.333-1.333v0c0-0.736-0.597-1.333-1.333-1.333v0zM8 3.607c-0.736 0-1.333 0.597-1.333 1.333s0.597 1.333 1.333 1.333c0.736 0 1.333-0.597 1.333-1.333v0c0-0.736-0.597-1.333-1.333-1.333v0zM11.333 3.607c-0.736 0-1.333 0.597-1.333 1.333s0.597 1.333 1.333 1.333c0.736 0 1.333-0.597 1.333-1.333v0c0-0.736-0.597-1.333-1.333-1.333v0zM24.667 0h-22.667c-1.105 0-2 0.895-2 2v0 22.667c0 1.105 0.895 2 2 2v0h10c0.736 0 1.333-0.597 1.333-1.333s-0.597-1.333-1.333-1.333v0h-9.333v-14.333h21.333v2.333c0 0.736 0.597 1.333 1.333 1.333s1.333-0.597 1.333-1.333v0-10c0-1.105-0.895-2-2-2v0zM2.667 7v-4.333h21.333v4.333z"></path>
</svg>
