<?xml version="1.0" encoding="utf-8"?>
<!-- Generator: Adobe Illustrator 20.1.0, SVG Export Plug-In . SVG Version: 6.00 Build 0)  -->
<svg version="1.1" id="Layer_1" xmlns="http://www.w3.org/2000/svg" xmlns:xlink="http://www.w3.org/1999/xlink" x="0px" y="0px"
	 viewBox="0 0 72 72" style="enable-background:new 0 0 72 72;" xml:space="preserve">
<g>
	<path d="M33,72H13.4C11.1,72,9,70,9,67.9v-64C9,1.6,11.3,0,13.4,0h28.9c0.3,0,0.5,0.1,0.7,0.3l19.7,21.2c0.2,0.2,0.3,0.4,0.3,0.7
		V36c0,0.6-0.4,1-1,1s-1-0.4-1-1V22.6L41.9,2H13.4C12.3,2,11,2.8,11,3.9v64c0,1,1.2,2.1,2.4,2.1H33c0.6,0,1,0.4,1,1S33.6,72,33,72z
		 M62,24H48.8c-3.8,0-8.1-2.9-8.1-7L40.6,1.2c0-0.6,0.4-1.2,1-1.2c0,0,0,0,0,0c0.6,0,1,0.7,1,1.2l0.1,15.6c0,2.9,3.2,5.2,6.1,5.2H62
		c0.6,0,1,0.4,1,1S62.6,24,62,24z"/>
	<path d="M49.9,72c-0.8,0-1.6-0.3-2.1-1l0,0L35.6,56.8c-0.2-0.2-0.2-0.4-0.2-0.6l-0.1-11.4c0-0.8,0.3-1.5,0.9-2s1.3-0.7,2.1-0.6
		L49.5,44c0.2,0,0.4,0.2,0.6,0.3l12.2,14.3c0.5,0.6,0.7,1.3,0.7,2c0,0.7-0.4,1.4-0.9,1.9l-10.4,8.9C51.1,71.8,50.5,72,49.9,72z
		 M49.3,69.7c0.3,0.3,0.7,0.4,1,0.1l10.4-8.9c0.1-0.1,0.2-0.3,0.2-0.5c0-0.2-0.1-0.4-0.2-0.6l-12-14l-10.9-1.8
		c-0.2,0-0.4,0.1-0.5,0.1c-0.1,0.1-0.2,0.2-0.2,0.5l0.1,11L49.3,69.7z M41.5,52.2c-0.9,0-1.7-0.4-2.3-1.1c-1.1-1.3-1-3.2,0.3-4.3
		c1.3-1.1,3.2-1,4.3,0.3c1.1,1.3,1,3.2-0.3,4.3h0C42.9,52,42.2,52.2,41.5,52.2z M42.9,51L42.9,51L42.9,51z M41.5,48
		c-0.2,0-0.5,0.1-0.7,0.3c-0.5,0.4-0.5,1.1-0.1,1.5c0.4,0.5,1.1,0.5,1.5,0.1c0.5-0.4,0.5-1.1,0.1-1.5C42.1,48.2,41.8,48,41.5,48z"/>
</g>
</svg>
