<svg xmlns="http://www.w3.org/2000/svg" width="32" height="32"><path d="M22 21.127l-.02.277a10.598 10.598 0 0 1-1.43 4.536l.027-.05a2.905 2.905 0 0 1-2.517 1.446 2.905 2.905 0 0 1-2.06-.853l-4.533-4.537-9.76 9.76a1 1 0 0 1-1.414 0 1 1 0 0 1 0-1.414l9.76-9.76-4.53-4.533a2.909 2.909 0 0 1 .569-4.566l.013-.007A10.486 10.486 0 0 1 11.022 10l.02-.001.037-.001a1 1 0 0 1 .039 2.001h-.002a8.57 8.57 0 0 0-4.04 1.179l.04-.022a.915.915 0 0 0-.331 1.251l-.002-.004a.925.925 0 0 0 .143.187l10.487 10.473a.914.914 0 0 0 1.294 0 .975.975 0 0 0 .141-.179l.002-.004a8.48 8.48 0 0 0 1.148-3.601l.002-.032v-.23a1.002 1.002 0 1 1 2 .113v-.003zm9.707 5.246a1 1 0 0 0 0-1.414L7.04.292a1 1 0 0 0-1.413 1.414l-.001-.001 24.667 24.667a1 1 0 0 0 1.414 0zm-5.63-10.53l4.563-2.907a2.934 2.934 0 0 0 .897-4.058l.007.012a2.774 2.774 0 0 0-.403-.5L23.614.86C23.084.329 22.35 0 21.541 0s-1.543.329-2.073.86a3.01 3.01 0 0 0-.393.485l-.007.012-2.91 4.577a1 1 0 0 0 1.684 1.072l.003-.005 2.91-4.57a.946.946 0 0 1 1.447-.156l7.527 7.53c.046.047.088.098.124.153l.002.004a.938.938 0 0 1-.283 1.288l-.004.002-4.567 2.907a1.001 1.001 0 1 0 1.08 1.684l-.004.002z"/></svg>