<svg version="1.1" xmlns="http://www.w3.org/2000/svg" width="32" height="32" viewBox="0 0 32 32">
<title>pin-unpin</title>
<path fill="#333" d="M31.56 29.707c0.24 0.241 0.389 0.574 0.389 0.942 0 0.737-0.598 1.335-1.335 1.335-0.37 0-0.705-0.15-0.947-0.394l-8.167-8.167-8.167 8.187c-0.241 0.241-0.574 0.39-0.942 0.39-0.005 0-0.010-0-0.015-0h0.001c-0.001 0-0.002 0-0.002 0-0.192 0-0.375-0.042-0.539-0.117l0.008 0.003c-4.89-2.147-3.977-8.023-2.81-10.83 0.211-0.474 0.679-0.799 1.222-0.799 0.736 0 1.333 0.597 1.333 1.333 0 0.175-0.034 0.342-0.095 0.495l0.003-0.009c-0.090 0.223-1.973 4.92 0.667 6.927l16.837-16.847c-2.037-2.647-6.873-0.667-6.923-0.667-0.151 0.065-0.327 0.102-0.512 0.102-0.737 0-1.334-0.597-1.334-1.334 0-0.552 0.335-1.026 0.813-1.228l0.009-0.003c2.807-1.167 8.683-2.080 10.83 2.81 0.075 0.162 0.119 0.352 0.119 0.552 0 0.369-0.15 0.704-0.393 0.945l-0 0-8.217 8.203zM2.297 26.923l23.64-24.667c0.229-0.24 0.37-0.565 0.37-0.923 0-0.739-0.599-1.338-1.338-1.338-0.381 0-0.724 0.159-0.968 0.414l-0 0.001-23.64 24.667c-0.222 0.238-0.358 0.557-0.358 0.909 0 0.736 0.597 1.333 1.333 1.333 0.373 0 0.709-0.153 0.951-0.399l0-0zM7.12 16c0.407-0.234 0.676-0.665 0.676-1.16 0-0.241-0.064-0.468-0.176-0.663l0.003 0.007c-0.688-1.128-1.862-1.902-3.223-2.032l-0.017-0.001c-0.87-0.073-1.487-0.303-1.647-0.613s0.033-1.057 0.227-1.45l7.12-7.127c0.333-0.167 1.067-0.42 1.447-0.223 0.313 0.157 0.543 0.773 0.617 1.647 0.132 1.378 0.905 2.552 2.015 3.229l0.019 0.011c0.19 0.111 0.418 0.176 0.662 0.176 0.493 0 0.924-0.268 1.155-0.666l0.003-0.006c0.109-0.189 0.173-0.415 0.173-0.657 0-0.492-0.267-0.922-0.663-1.153l-0.006-0.003c-0.386-0.26-0.651-0.674-0.706-1.153l-0.001-0.007c-0.163-1.9-0.857-3.177-2.053-3.79-1.84-0.943-3.92 0.233-4.153 0.37-0.099 0.059-0.184 0.127-0.26 0.203l-7.39 7.397c-0.077 0.076-0.144 0.161-0.2 0.254l-0.003 0.006c-0.14 0.23-1.317 2.313-0.373 4.153 0.613 1.197 1.89 1.89 3.79 2.053 0.478 0.056 0.887 0.312 1.147 0.681l0.003 0.005c0.232 0.411 0.667 0.684 1.164 0.684 0.24 0 0.465-0.063 0.659-0.174l-0.007 0.003z"></path>
</svg>
