<?xml version="1.0" encoding="utf-8"?>
<!-- Generator: Adobe Illustrator 20.1.0, SVG Export Plug-In . SVG Version: 6.00 Build 0)  -->
<svg version="1.1" id="Layer_2" xmlns="http://www.w3.org/2000/svg" xmlns:xlink="http://www.w3.org/1999/xlink" x="0px" y="0px"
	 viewBox="0 0 72 72" style="enable-background:new 0 0 72 72;" xml:space="preserve">
<g>
	<path d="M65,66c-0.3,0-0.5-0.1-0.7-0.3L45.8,47.2L28.8,64c-0.4,0.4-1,0.4-1.4,0c-10-9.6-3.2-17.2-3.1-17.3c0.4-0.4,1-0.4,1.4-0.1
		c0.4,0.4,0.4,1,0.1,1.4c-0.2,0.2-5.2,6,2.4,13.8l17-16.8l16.6-16.7c-3-2.8-5.9-4.2-8.7-4.2c-3,0-4.7,1.8-4.7,1.8
		c-0.4,0.4-1,0.4-1.4,0c-0.4-0.4-0.4-1,0-1.4c0.1-0.1,2.3-2.4,6.1-2.4c0,0,0.1,0,0.1,0c3.5,0,7.1,1.8,10.7,5.4c0.4,0.4,0.4,1,0,1.4
		L47.2,45.8l18.5,18.5c0.4,0.4,0.4,1,0,1.4C65.5,65.9,65.3,66,65,66z M17.3,34.8c-0.3,0-0.7-0.2-0.9-0.5L14.6,31
		c-0.1-0.2-0.3-0.3-0.5-0.2c-2.6,1.3-5.5,0-7-2.1c-1.6-2.2-1.4-4.9,0.5-6.8c2.6-2.6,7.2-7.1,10.8-10.8c1.4-1.4,2.7-2.7,3.6-3.6
		c1.9-1.9,4.6-2.1,6.8-0.5c2,1.5,3.4,4.3,2.1,7c-0.1,0.2,0,0.4,0.2,0.5l2.4,1.4c0.5,0.3,0.6,0.9,0.4,1.4S33,18,32.5,17.7l-2.4-1.4
		c-1.1-0.6-1.5-2-1-3.1c0.8-1.7-0.1-3.5-1.5-4.5c-0.5-0.4-2.5-1.5-4.3,0.3c-0.9,0.9-2.2,2.2-3.6,3.6c-3.7,3.7-8.2,8.3-10.8,10.8
		c-1.8,1.7-0.6,3.6-0.3,4.2c1,1.3,2.8,2.3,4.4,1.4c1.1-0.6,2.5-0.2,3.2,1l1.9,3.3c0.3,0.5,0.1,1.1-0.4,1.4
		C17.7,34.8,17.5,34.8,17.3,34.8z"/>
	<path d="M7,56.3c-0.3,0-0.5-0.1-0.7-0.3c-0.4-0.4-0.4-1,0-1.4l48-48c0.4-0.4,1-0.4,1.4,0s0.4,1,0,1.4l-48,48
		C7.5,56.2,7.3,56.3,7,56.3z"/>
</g>
</svg>
