<svg version="1.1" xmlns="http://www.w3.org/2000/svg" width="32" height="32" viewBox="0 0 32 32">
<title>pin</title>
<path fill="#333" d="M23.873 12.493l-1.497-5.547c-0.013-0.064-0.020-0.138-0.020-0.214 0-0.265 0.089-0.51 0.238-0.706l-0.002 0.003c1.043-1.28 1.383-2.507 1-3.647-0.55-1.717-2.503-2.28-2.723-2.34-0.099-0.028-0.213-0.043-0.331-0.043-0.001 0-0.002 0-0.002 0h-4.203c-0.119 0.002-0.234 0.019-0.343 0.049l0.010-0.002c-0.099-0.028-0.214-0.045-0.332-0.047h-4.198c-0.001 0-0.001 0-0.002 0-0.118 0-0.232 0.016-0.34 0.045l0.009-0.002c-0.22 0.060-2.173 0.617-2.737 2.333-0.37 1.14-0.030 2.367 1 3.647 0.148 0.195 0.237 0.441 0.237 0.709 0 0.064-0.005 0.127-0.015 0.188l0.001-0.007-1.497 5.58c-2.333 1.21-5.563 4.060-4.087 7.977 0.195 0.508 0.68 0.863 1.247 0.863h9.38v9.333c0 0.736 0.597 1.333 1.333 1.333s1.333-0.597 1.333-1.333v0-9.333h9.38c0.567-0 1.051-0.355 1.244-0.854l0.003-0.009c1.477-3.917-1.747-6.767-4.087-7.977zM25.667 18.667h-9.333c-0.026-0.002-0.057-0.002-0.088-0.002s-0.062 0.001-0.093 0.003l0.004-0c-0.023-0.001-0.051-0.002-0.078-0.002s-0.055 0.001-0.082 0.002l0.004-0c-0.024-0.002-0.052-0.002-0.080-0.002s-0.056 0.001-0.084 0.003l0.004-0c-0.026-0.002-0.056-0.003-0.087-0.003s-0.061 0.001-0.091 0.003l0.004-0h-9.317c-0.12-2.44 3.267-3.937 3.423-4 0.375-0.162 0.656-0.48 0.764-0.871l0.002-0.009 1.667-6.167c0.068-0.27 0.107-0.579 0.107-0.898 0-0.907-0.317-1.741-0.846-2.396l0.006 0.007c-0.513-0.633-0.583-1-0.543-1.137 0.070-0.197 0.447-0.417 0.737-0.53h4c0.119-0.002 0.234-0.019 0.343-0.049l-0.010 0.002c0.099 0.028 0.214 0.045 0.332 0.047h4.001c0.307 0.117 0.69 0.333 0.75 0.543 0.040 0.127-0.030 0.503-0.543 1.137-0.52 0.646-0.835 1.477-0.835 2.381 0 0.315 0.038 0.622 0.11 0.915l-0.005-0.026 1.667 6.167c0.105 0.398 0.379 0.716 0.738 0.88l0.008 0.003c0.16 0.063 3.547 1.56 3.443 4z"></path>
</svg>
