<svg xmlns="http://www.w3.org/2000/svg" width="32" height="32"><path d="M31.533 9.16a3.053 3.053 0 0 0-.409-.493l-.001-.001L23.35.876a2.992 2.992 0 0 0-2.117-.877h-.01c-1.054 0-1.98.548-2.509 1.375l-.007.012-5.157 8.103a10.642 10.642 0 0 0-1.876-.162A10.89 10.89 0 0 0 6.1 10.85l.051-.028a3.004 3.004 0 0 0-1.479 2.586c0 .828.336 1.578.878 2.121l4.753 4.753-10 10a1 1 0 0 0 0 1.414 1 1 0 0 0 1.414 0l10-10 4.753 4.757c.539.544 1.286.88 2.112.88h.005a2.999 2.999 0 0 0 2.579-1.47l.008-.014a10.822 10.822 0 0 0 1.495-5.522c0-.662-.059-1.311-.172-1.941l.01.066 8.107-5.16a3.002 3.002 0 0 0 .912-4.145l.007.012zm-2 2.447l-8.667 5.527a1.001 1.001 0 0 0-.435 1.087l-.001-.007c.161.635.253 1.365.253 2.116a8.918 8.918 0 0 1-1.243 4.556l.023-.042a.995.995 0 0 1-.86.49h-.006a.976.976 0 0 1-.698-.293L6.959 14.114a.98.98 0 0 1-.154-.196l-.003-.004a.998.998 0 0 1 .349-1.361l.005-.003a8.855 8.855 0 0 1 4.512-1.221c.752 0 1.482.093 2.179.267l-.062-.013a.998.998 0 0 0 1.077-.433l.002-.004 5.527-8.687a.995.995 0 0 1 .84-.46.996.996 0 0 1 .703.293l7.773 7.77c.049.05.093.106.131.166l.003.004a.997.997 0 0 1-.303 1.371l-.004.002z"/></svg>