<?xml version="1.0" encoding="utf-8"?>
<!-- Generator: Adobe Illustrator 20.1.0, SVG Export Plug-In . SVG Version: 6.00 Build 0)  -->
<svg version="1.1" id="Layer_1" xmlns="http://www.w3.org/2000/svg" xmlns:xlink="http://www.w3.org/1999/xlink" x="0px" y="0px"
	 viewBox="0 0 72 72" style="enable-background:new 0 0 72 72;" xml:space="preserve">
<g>
	<path d="M36.1,72c-0.6,0-1-0.4-1-1V44.8l-23.9-0.1c-0.5,0-1-0.4-1-1c-0.2-10.3,5.6-13.8,9.3-14.4l5-18c0.1-0.2-0.1-0.4-0.3-0.5
		c-2.8-0.9-3.9-3.9-3.5-6.4C21.2,1.7,23.3,0,25.9,0c3.7,0,10.1,0,15.3,0c2,0,3.8,0,5.1,0c0,0,0,0,0,0C49,0,51,1.8,51.5,4.5
		C51.9,7,50.8,10,48,10.9c-0.2,0.1-0.3,0.3-0.2,0.5l4.9,18.3c1.1,0.1,3.3,0.7,5.2,2.6c2.5,2.5,3.8,6.3,3.8,11.5c0,0.6-0.4,1-1,1
		l-23.6,0.1V71C37.1,71.6,36.7,72,36.1,72z M12.3,42.7l23.9,0.1l23.6-0.1c-0.1-4.1-1.2-7.1-3.2-9.1c-2.1-2.1-4.6-2.1-4.6-2.1
		c-0.4,0.1-0.9-0.3-1-0.7l-5.1-18.9c-0.3-1.2,0.3-2.5,1.5-2.9c1.7-0.6,2.4-2.6,2.1-4.2C49.4,4.2,48.8,2,46.3,2c0,0,0,0,0,0
		c-1.3,0-3,0-5.1,0c-5.2,0-11.7,0-15.4,0c0,0,0,0,0,0c-2.4,0-3,2.1-3.1,2.8c-0.3,1.6,0.4,3.6,2.1,4.2c1.2,0.4,1.9,1.7,1.6,2.9
		l-5.2,18.7c-0.1,0.4-0.5,0.7-0.9,0.7C20,31.3,12.5,31.8,12.3,42.7z"/>
</g>
</svg>
