<svg version="1.1" xmlns="http://www.w3.org/2000/svg" width="32" height="32" viewBox="0 0 32 32">
<title>place</title>
<path fill="#333" d="M16 32c-0.479-0-0.898-0.252-1.133-0.631l-0.003-0.006c-0.977-1.59-9.53-15.697-9.53-20.94 0-5.757 4.783-10.423 10.667-10.423s10.667 4.667 10.667 10.423c0 5.243-8.553 19.35-9.53 20.94-0.238 0.384-0.658 0.637-1.137 0.637v0zM16 2.667c-4.41 0-8 3.48-8 7.757 0 3.333 5.033 12.593 8 17.647 2.967-5.053 8-14.333 8-17.647 0-4.277-3.59-7.757-8-7.757zM16 14.667c-2.209 0-4-1.791-4-4s1.791-4 4-4c2.209 0 4 1.791 4 4v0c0 2.209-1.791 4-4 4v0zM16 9.333c-0.736 0-1.333 0.597-1.333 1.333s0.597 1.333 1.333 1.333c0.736 0 1.333-0.597 1.333-1.333v0c0-0.736-0.597-1.333-1.333-1.333v0z"></path>
</svg>
