<svg xmlns="http://www.w3.org/2000/svg" width="32" height="32"><path d="M16 30h-.003a1.97 1.97 0 0 1-1.231-.43l.004.003a2.14 2.14 0 0 1-.33-.329l-.003-.004C11.95 26.047 9 21.693 9 19.037a7 7 0 1 1 14 0c0 2.667-2.95 7-5.423 10.19-.319.41-.788.69-1.323.759l-.01.001a1.913 1.913 0 0 1-.235.013H16zm0-16a5.023 5.023 0 0 0-5 5.023v.014-.001c0 1.56 1.917 5 5 8.963 3.083-3.973 5-7.407 5-8.963v-.013A5.023 5.023 0 0 0 16.001 14H16zm0 6.667a1.667 1.667 0 0 1 0-3.334 1.667 1.667 0 0 1 0 3.334zm-9.983-1.334h-.001a.998.998 0 0 1-.791-.388l-.002-.002C2.84 15.846 0 11.61 0 9.026a7 7 0 1 1 14 0 1 1 0 0 1-2 0 5 5 0 0 0-10 0c0 1.53 1.797 4.783 4.81 8.697a1 1 0 0 1-.792 1.61h-.001zm19.983 0a1 1 0 0 1-.789-1.612l-.002.002c2.997-3.907 4.79-7.153 4.79-8.69a5 5 0 0 0-10 0 1 1 0 0 1-2 0 7 7 0 1 1 14 0c0 2.59-2.833 6.817-5.21 9.91a.998.998 0 0 1-.79.39zm-1-8.666a1.667 1.667 0 0 1 0-3.334 1.667 1.667 0 0 1 0 3.334zm-18 0a1.667 1.667 0 0 1 0-3.334 1.667 1.667 0 0 1 0 3.334z"/></svg>