<?xml version="1.0" encoding="utf-8"?>
<!-- Generator: Adobe Illustrator 20.1.0, SVG Export Plug-In . SVG Version: 6.00 Build 0)  -->
<svg version="1.1" xmlns="http://www.w3.org/2000/svg" xmlns:xlink="http://www.w3.org/1999/xlink" x="0px" y="0px"
	 viewBox="0 0 72 72" style="enable-background:new 0 0 72 72;" xml:space="preserve">
<style type="text/css">
	.st0{display:none;}
	.st1{display:inline;}
	
		.st2{clip-path:url(#SVGID_2_);fill:none;stroke:#000000;stroke-width:1.5;stroke-linecap:round;stroke-linejoin:round;stroke-miterlimit:10;}
</style>
<g id="Layer_1" class="st0">
	<g class="st1">
		<g>
			<defs>
				<rect id="SVGID_1_" x="22" y="15" width="28" height="42"/>
			</defs>
			<clipPath id="SVGID_2_">
				<use xlink:href="#SVGID_1_"  style="overflow:visible;"/>
			</clipPath>
			<path class="st2" d="M36.5,31.3c-2.2,0-4-1.8-4-4c0-2.2,1.8-4,4-4c2.2,0,4,1.8,4,4C40.5,29.5,38.7,31.3,36.5,31.3L36.5,31.3
				L36.5,31.3z M36.5,16.7c-7.1,0-12.8,6.2-12.8,13.8c0,12.5,12.8,25,12.8,25s12.8-12.3,12.8-25C49.3,22.8,43.5,16.7,36.5,16.7
				L36.5,16.7L36.5,16.7z"/>
		</g>
	</g>
</g>
<g id="Layer_2">
	<g>
		<g>
			<g>
				<path d="M36,72c-0.4,0-0.7-0.2-0.9-0.5C34.3,70,13.4,34.8,13.4,22.7C13.4,10.2,23.5,0,36,0s22.6,10.2,22.6,22.7
					c0,12.1-20.9,47.3-21.7,48.8C36.7,71.8,36.4,72,36,72z M36,2c-11.4,0-20.6,9.3-20.6,20.7C15.4,32.9,32,62.1,36,69
					c4-6.9,20.6-36.1,20.6-46.3C56.6,11.3,47.4,2,36,2z M36,28.8c-4.2,0-7.7-3.5-7.7-7.7c0-4.2,3.4-7.7,7.7-7.7
					c4.2,0,7.7,3.5,7.7,7.7C43.7,25.3,40.2,28.8,36,28.8z M36,15.4c-3.1,0-5.7,2.6-5.7,5.7c0,3.1,2.5,5.7,5.7,5.7s5.7-2.6,5.7-5.7
					C41.7,17.9,39.1,15.4,36,15.4z"/>
			</g>
		</g>
		<g>
			<path d="M36,28.8c-4.2,0-7.7-3.5-7.7-7.7c0-4.2,3.4-7.7,7.7-7.7c4.2,0,7.7,3.5,7.7,7.7C43.7,25.3,40.2,28.8,36,28.8z M36,15.4
				c-3.1,0-5.7,2.6-5.7,5.7c0,3.1,2.5,5.7,5.7,5.7s5.7-2.6,5.7-5.7C41.7,17.9,39.1,15.4,36,15.4z"/>
		</g>
	</g>
</g>
</svg>
