<?xml version="1.0" encoding="utf-8"?>
<!-- Generator: Adobe Illustrator 20.1.0, SVG Export Plug-In . SVG Version: 6.00 Build 0)  -->
<svg version="1.1" id="Layer_5" xmlns="http://www.w3.org/2000/svg" xmlns:xlink="http://www.w3.org/1999/xlink" x="0px" y="0px"
	 viewBox="0 0 72 72" style="enable-background:new 0 0 72 72;" xml:space="preserve">
<g>
	<g>
		<g>
			<g>
				<path d="M36,61.5c-0.4,0-0.7-0.2-0.9-0.5c-0.5-0.9-12.5-21.1-12.5-28.1c0-7.4,6-13.4,13.3-13.4s13.3,6,13.3,13.4
					c0,7-12,27.3-12.5,28.1C36.7,61.3,36.4,61.5,36,61.5z M36,21.5c-6.3,0-11.3,5.1-11.3,11.4c0,5.5,8.6,20.8,11.3,25.6
					c2.8-4.8,11.3-20.1,11.3-25.6C47.3,26.6,42.3,21.5,36,21.5z M36,35.8c-2.1,0-3.9-1.7-3.9-3.9c0-2.1,1.7-3.9,3.9-3.9
					c2.1,0,3.9,1.7,3.9,3.9C39.9,34.1,38.1,35.8,36,35.8z M36,30.1c-1,0-1.9,0.8-1.9,1.9c0,1,0.8,1.9,1.9,1.9c1,0,1.9-0.8,1.9-1.9
					C37.9,30.9,37,30.1,36,30.1z"/>
			</g>
			<path d="M36,34.2c-1.3,0-2.3-1-2.3-2.3c0-1.3,1-2.3,2.3-2.3c1.3,0,2.3,1,2.3,2.3C38.3,33.2,37.3,34.2,36,34.2z"/>
		</g>
	</g>
	<g>
		<g>
			<g>
				<g>
					<g>
						<g>
							<path d="M60.5,72h-49c-2.8,0-5-2.2-5-5V5c0-2.8,2.2-5,5-5h49c2.8,0,5,2.2,5,5v62C65.5,69.8,63.3,72,60.5,72z M11.5,2
								c-1.7,0-3,1.3-3,3v62c0,1.7,1.3,3,3,3h49c1.7,0,3-1.3,3-3V5c0-1.7-1.3-3-3-3H11.5z"/>
						</g>
						<g>
							<path d="M48.4,11h-25c-0.4,0-0.8-0.2-0.9-0.6l-4-9c-0.2-0.5,0-1.1,0.5-1.3c0.5-0.2,1.1,0,1.3,0.5L24.1,9h23.7l3.7-8.4
								c0.2-0.5,0.8-0.7,1.3-0.5c0.5,0.2,0.7,0.8,0.5,1.3l-4,9C49.2,10.8,48.8,11,48.4,11z"/>
						</g>
					</g>
				</g>
			</g>
		</g>
	</g>
</g>
</svg>
