<svg version="1.1" xmlns="http://www.w3.org/2000/svg" width="32" height="32" viewBox="0 0 32 32">
<title>place_list</title>
<path fill="#333" d="M24.667 24.333c-0.002 0-0.003 0-0.005 0-0.491 0-0.92-0.265-1.151-0.66l-0.003-0.006s-0.173-0.307-0.463-0.837c-0.108-0.189-0.172-0.415-0.172-0.655 0-0.505 0.281-0.945 0.695-1.171l0.007-0.003c0.179-0.095 0.391-0.151 0.616-0.151 0.051 0 0.1 0.003 0.15 0.008l-0.006-0.001c4.073-7.447 5-11.333 5-12.253 0-3.090-2.093-5.603-4.667-5.603-1.337 0.025-2.521 0.658-3.29 1.634l-0.007 0.009c-0.242 0.243-0.576 0.394-0.946 0.394-0.736 0-1.333-0.597-1.333-1.333 0-0.287 0.091-0.554 0.246-0.771l-0.003 0.004c1.27-1.565 3.181-2.567 5.327-2.603l0.006-0c4.043 0 7.333 3.71 7.333 8.27 0 4.063-5.543 13.943-6.173 15.063-0.235 0.401-0.664 0.667-1.155 0.667-0.002 0-0.004 0-0.006 0h0zM8.493 23.667s0.173-0.307 0.463-0.837c0.108-0.189 0.172-0.415 0.172-0.655 0-0.505-0.281-0.945-0.695-1.171l-0.007-0.003c-0.179-0.095-0.391-0.151-0.617-0.151-0.051 0-0.1 0.003-0.15 0.008l0.006-0.001c-4.077-7.447-5-11.343-5-12.253 0-3.090 2.093-5.603 4.667-5.603 1.337 0.025 2.521 0.658 3.29 1.634l0.007 0.009c0.242 0.243 0.576 0.394 0.946 0.394 0.736 0 1.333-0.597 1.333-1.333 0-0.287-0.091-0.554-0.246-0.771l0.003 0.004c-1.27-1.565-3.181-2.567-5.327-2.603l-0.006-0c-4.043 0-7.333 3.71-7.333 8.27 0 4.063 5.543 13.943 6.173 15.063 0.235 0.401 0.664 0.667 1.155 0.667 0.002 0 0.004 0 0.006 0h-0c0.002 0 0.003 0 0.005 0 0.491 0 0.92-0.265 1.151-0.66l0.003-0.006zM19.307 13.913c0-1.841-1.492-3.333-3.333-3.333s-3.333 1.492-3.333 3.333c0 1.841 1.492 3.333 3.333 3.333v0c1.841 0 3.333-1.492 3.333-3.333v0zM16.64 13.913c0 0.368-0.298 0.667-0.667 0.667s-0.667-0.298-0.667-0.667c0-0.368 0.298-0.667 0.667-0.667v0c0.368 0 0.667 0.298 0.667 0.667v0zM27.973 8.913c0 1.841-1.492 3.333-3.333 3.333v0h-0.133c0.085 0.46 0.133 0.989 0.133 1.53v0c0 4.333-6.747 15.933-7.517 17.24-0.236 0.395-0.662 0.656-1.148 0.656s-0.912-0.261-1.145-0.65l-0.003-0.006c-0.77-1.307-7.52-12.893-7.52-17.24 0.002-0.542 0.051-1.071 0.145-1.585l-0.008 0.055h-0.083c-0.002 0-0.004 0-0.006 0-1.841 0-3.333-1.492-3.333-3.333s1.492-3.333 3.333-3.333c1.215 0 2.278 0.65 2.861 1.622l0.008 0.015c1.514-1.375 3.534-2.217 5.75-2.217 2.232 0 4.265 0.854 5.789 2.252l-0.006-0.006c0.588-1 1.658-1.661 2.883-1.661 1.839 0 3.33 1.489 3.333 3.327v0zM7.36 9.58c0.368 0 0.667-0.298 0.667-0.667s-0.298-0.667-0.667-0.667c-0.368 0-0.667 0.298-0.667 0.667v0c0 0.368 0.298 0.667 0.667 0.667v0zM21.973 13.77c0-3.314-2.686-6-6-6s-6 2.686-6 6v0c0 2.373 3.317 9.087 6 13.883 2.693-4.797 6-11.51 6-13.883zM25.307 8.913c0-0.368-0.298-0.667-0.667-0.667s-0.667 0.298-0.667 0.667c0 0.368 0.298 0.667 0.667 0.667v0c0.368 0 0.667-0.298 0.667-0.667v0z"></path>
</svg>
