<svg version="1.1" xmlns="http://www.w3.org/2000/svg" width="32" height="32" viewBox="0 0 32 32">
<title>portfolio</title>
<path fill="#333" d="M31.443 7.087c-0.503-0.656-1.285-1.078-2.165-1.087h-6.611v-1.533c0-1.88-1.667-3.467-3.607-3.467h-6.12c-0.019-0-0.042-0.001-0.064-0.001-1.93 0-3.5 1.543-3.542 3.463l-0 0.004v1.533h-6.483c-0.018-0-0.040-0.001-0.062-0.001-0.922 0-1.746 0.423-2.288 1.085l-0.004 0.005c-0.309 0.397-0.495 0.903-0.495 1.452 0 0.151 0.014 0.299 0.041 0.442l-0.002-0.015v7.697c0 0 0 0 0 0.001 0 0.722 0.574 1.31 1.291 1.333l0.002 0v11.667c0 0.736 0.597 1.333 1.333 1.333v0h26.667c0.736 0 1.333-0.597 1.333-1.333v0-11.667c0.712-0.031 1.277-0.616 1.277-1.332 0-0 0-0.001 0-0.001v0l0.020-7.57c0.022-0.127 0.035-0.273 0.035-0.422 0-0.603-0.209-1.157-0.559-1.593l0.004 0.005zM12 4.467c0.058-0.454 0.442-0.801 0.906-0.801 0.012 0 0.024 0 0.035 0.001l-0.002-0h6.12c0.010-0 0.022-0.001 0.034-0.001 0.465 0 0.848 0.347 0.906 0.796l0 0.005v1.533h-8zM2.85 8.667h26.423c0.020 0.007 0.036 0.019 0.050 0.033l0 0c-0.016 0.076-0.026 0.163-0.027 0.253v6.381h-9.297v-2c0-0.736-0.597-1.333-1.333-1.333v0h-5.333c-0.736 0-1.333 0.597-1.333 1.333v0 2h-9.293v-6.503c0.002-0.021 0.003-0.046 0.003-0.072s-0.001-0.050-0.003-0.075l0 0.003c0.042-0.013 0.090-0.020 0.14-0.020 0.001 0 0.002 0 0.003 0h-0zM17.333 16.837v1.83h-2.667v-4h2.667v1.83c-0.010 0.050-0.016 0.108-0.016 0.167s0.006 0.117 0.017 0.172l-0.001-0.006zM4 28.333v-10.333h8v2c0 0.736 0.597 1.333 1.333 1.333v0h5.333c0.736 0 1.333-0.597 1.333-1.333v0-2h8v10.333z"></path>
</svg>
