<svg xmlns="http://www.w3.org/2000/svg" viewBox="0 0 96 96"><path d="M94.33 21.26a8.27 8.27 0 0 0-6.5-3.26H68v-4.6C68 7.76 63 3 57.18 3H38.82A10.63 10.63 0 0 0 28 13.4V18H8.55a8.86 8.86 0 0 0-7.06 3.27 7.13 7.13 0 0 0-1.37 5.64V50A4 4 0 0 0 4 54v35a4 4 0 0 0 4 4h80a4 4 0 0 0 4-4V54a4 4 0 0 0 3.83-4l.06-22.71a7.65 7.65 0 0 0-1.56-6.03zM36 13.4a2.74 2.74 0 0 1 2.82-2.4h18.36A2.74 2.74 0 0 1 60 13.4V18H36zM8.55 26h79.27a.39.39 0 0 1 .15.1 3.92 3.92 0 0 0-.08.76V46H60v-6a4 4 0 0 0-4-4H40a4 4 0 0 0-4 4v6H8.12V26.49a3 3 0 0 0 0-.43 1.51 1.51 0 0 1 .43-.06zM52 50.51V56h-8V44h8v5.49a2.63 2.63 0 0 0 0 1zM12 85V54h24v6a4 4 0 0 0 4 4h16a4 4 0 0 0 4-4v-6h24v31z" fill="#333"/></svg>