<svg xmlns="http://www.w3.org/2000/svg" width="32" height="32"><path d="M31.523 7.307a2.462 2.462 0 0 0-1.942-.973h-6.914V4.157a3.497 3.497 0 0 0-3.413-3.49H12.75a3.499 3.499 0 0 0-3.417 3.49v2.177H2.55l-.069-.001c-.828 0-1.568.377-2.057.97l-.004.005a1.988 1.988 0 0 0-.378 1.65L.04 8.945v7.723a1 1 0 0 0 1 1h.293v12.667a1 1 0 0 0 1 1h27.333a1 1 0 0 0 1-1V17.668h.277a1 1 0 0 0 1-1l.02-7.6a2.202 2.202 0 0 0-.443-1.764l.003.005zm-20.19-3.15a1.494 1.494 0 0 1 1.413-1.49h6.504a1.495 1.495 0 0 1 1.417 1.49v2.177h-9.333zm17.334 25.176H3.334V17.666h9v2.333a1 1 0 0 0 1 1h5.333a1 1 0 0 0 1-1v-2.333h9zM14.333 19v-4.667h3.333V19zm15.63-10.043l-.02 6.71H19.666v-2.333a1 1 0 0 0-1-1h-5.333a1 1 0 0 0-1 1v2.333H2.04V8.83a1.243 1.243 0 0 0-.042-.302L2 8.537a.668.668 0 0 1 .553-.203H2.55h27.03c.145.007.272.08.352.189l.001.001a.237.237 0 0 1 .064.161v.012-.001a.947.947 0 0 0-.033.251v.01-.001z"/></svg>