<svg version="1.1" xmlns="http://www.w3.org/2000/svg" width="32" height="32" viewBox="0 0 32 32">
<title>portfolio</title>
<path fill="#333" d="M29.547 6.667h-6.88v-1.153c0-2.307-1.617-4.18-3.607-4.18h-6.12c-1.99 0-3.607 1.873-3.607 4.18v1.153h-2.57c-0.014-0.001-0.031-0.001-0.048-0.001s-0.034 0-0.051 0.001l0.002-0c-0.014-0.001-0.031-0.001-0.048-0.001s-0.034 0-0.051 0.001l0.002-0h-4.117c-1.357 0.008-2.453 1.109-2.453 2.467 0 0.002 0 0.005 0 0.007v-0 19.053c0 0.002 0 0.004 0 0.007 0 1.358 1.097 2.459 2.453 2.467h27.094c1.357-0.008 2.453-1.109 2.453-2.467 0-0.002 0-0.005 0-0.007v0-19.053c0-0.002 0-0.004 0-0.007 0-1.358-1.097-2.459-2.453-2.467h-0.001zM24 9.333v18.667h-16v-18.667zM12 5.513c0-0.847 0.513-1.513 0.94-1.513h6.12c0.427 0 0.94 0.667 0.94 1.513v1.153h-8zM2.667 9.333h2.667v18.667h-2.667zM29.333 28h-2.667v-18.667h2.667z"></path>
</svg>
