<?xml version="1.0" encoding="utf-8"?>
<!-- Generator: Adobe Illustrator 20.1.0, SVG Export Plug-In . SVG Version: 6.00 Build 0)  -->
<svg version="1.1" id="Layer_1" xmlns="http://www.w3.org/2000/svg" xmlns:xlink="http://www.w3.org/1999/xlink" x="0px" y="0px"
	 viewBox="0 0 72 72" style="enable-background:new 0 0 72 72;" xml:space="preserve">
<g>
	<g>
		<path d="M48,16.7c-0.6,0-1-0.4-1-1v-4.4c0-2.3-1.9-4.1-4.1-4.1H29.1C26.8,7.2,25,9,25,11.3v4.4c0,0.6-0.4,1-1,1s-1-0.4-1-1v-4.4
			c0-3.4,2.8-6.1,6.1-6.1h13.8c3.4,0,6.1,2.8,6.1,6.1v4.4C49,16.3,48.6,16.7,48,16.7z"/>
	</g>
	<g>
		<path d="M68.3,66.8H3.7c-2,0-3.7-1.6-3.7-3.7V18.9c0-2,1.6-3.7,3.7-3.7h64.7c2,0,3.7,1.6,3.7,3.7v44.2
			C72,65.2,70.4,66.8,68.3,66.8z M3.7,17.3C2.7,17.3,2,18,2,18.9v44.2c0,0.9,0.7,1.7,1.7,1.7h64.7c0.9,0,1.7-0.7,1.7-1.7V18.9
			c0-0.9-0.7-1.7-1.7-1.7H3.7z"/>
	</g>
	<g>
		<path d="M15.2,66.8c-0.6,0-1-0.4-1-1V16.3c0-0.6,0.4-1,1-1s1,0.4,1,1v49.6C16.2,66.4,15.7,66.8,15.2,66.8z"/>
	</g>
	<g>
		<path d="M56.8,66.8c-0.6,0-1-0.4-1-1V16.3c0-0.6,0.4-1,1-1s1,0.4,1,1v49.6C57.8,66.4,57.4,66.8,56.8,66.8z"/>
	</g>
</g>
</svg>
