<svg version="1.1" xmlns="http://www.w3.org/2000/svg" width="32" height="32" viewBox="0 0 32 32">
<title>previewed</title>
<path d="M16 32c-8.837 0-16-7.163-16-16s7.163-16 16-16c8.837 0 16 7.163 16 16v0c-0.009 8.833-7.167 15.991-15.999 16h-0.001zM16 2.667c-7.364 0-13.333 5.97-13.333 13.333s5.97 13.333 13.333 13.333c7.364 0 13.333-5.97 13.333-13.333v0c0-7.364-5.97-13.333-13.333-13.333v0zM20.94 19.057l-3.607-3.607v-8.783c0-0.736-0.597-1.333-1.333-1.333s-1.333 0.597-1.333 1.333v0 9.303c-0 0.010-0 0.022-0 0.034 0 0.366 0.148 0.698 0.387 0.939l4 4c0.241 0.241 0.575 0.391 0.943 0.391 0.737 0 1.334-0.597 1.334-1.334 0-0.368-0.149-0.702-0.391-0.943v0z"></path>
</svg>
