<svg xmlns="http://www.w3.org/2000/svg" width="32" height="32"><path d="M16 32C7.163 32 0 24.837 0 16S7.163 0 16 0s16 7.163 16 16c-.009 8.833-7.167 15.991-15.999 16H16zm0-30C8.268 2 2 8.268 2 16s6.268 14 14 14 14-6.268 14-14S23.732 2 16 2zm6.373 18.96l-3.667-3.667c.185-.374.293-.814.293-1.279v-.015V16a3.001 3.001 0 0 0-1.979-2.817l-.021-.007V5.999a1 1 0 0 0-2 0v7.177a3.005 3.005 0 0 0-1.986 2.823 3 3 0 0 0 2.985 3h.006c.468 0 .91-.11 1.303-.304l-.017.008 3.667 3.667a1 1 0 0 0 1.414 0 .996.996 0 0 0 .292-.707.994.994 0 0 0-.289-.703zM15 16a1 1 0 1 1 1 1 1 1 0 0 1-1-1z"/></svg>