<svg xmlns="http://www.w3.org/2000/svg" width="32" height="32"><path d="M19.607 32h-.009a3.163 3.163 0 0 1-2.235-.92L3.596 17.413a3.175 3.175 0 0 1-.93-2.25v-.014.001a.87.87 0 0 1 0-.153V15l.8-5.583a1 1 0 1 1 1.979.286l.001-.006-.78 5.52c.008.306.134.582.333.783l13.767 13.667a1.18 1.18 0 0 0 1.666 0l9.233-9.167a1.148 1.148 0 0 0 0-1.634L15.712 4.999a1.173 1.173 0 0 0-.806-.333h-.001l-5.487.863a1 1 0 0 1-.315-1.976l.006-.001 5.557-.887h.13l.079-.001c.879 0 1.675.353 2.254.925l13.94 13.857c.575.571.931 1.362.931 2.237s-.356 1.665-.93 2.236l-9.223 9.157a3.158 3.158 0 0 1-2.236.923h-.004zm-.567-6.957a1 1 0 0 0 0-1.414l-6-6a1 1 0 0 0-1.413 1.414l-.001-.001 6 6a1 1 0 0 0 1.414 0zm3.333-3l2.667-2.667a1 1 0 0 0-1.414-1.413l.001-.001-2.667 2.667a1 1 0 0 0 0 1.414 1 1 0 0 0 1.414 0zm-3.333-3l2.667-2.667a1 1 0 0 0-1.414-1.413l.001-.001-2.667 2.667a1 1 0 0 0 0 1.414 1 1 0 0 0 1.414 0zm-3-3l2.667-2.667a1 1 0 0 0-1.414-1.413l.001-.001-2.667 2.667a1 1 0 0 0 0 1.414 1 1 0 0 0 1.414 0zM14 11a3 3 0 1 1-6 0v-.005c0-.468.11-.91.304-1.303l-.008.017-8-8A1 1 0 0 1 1.707.293L1.706.292l8 8a2.893 2.893 0 0 1 1.279-.293H11h-.001a3 3 0 0 1 3 3zm-2 0a1 1 0 1 0-1 1 1 1 0 0 0 1-1z"/></svg>