<svg version="1.1" xmlns="http://www.w3.org/2000/svg" width="32" height="32" viewBox="0 0 32 32">
<title>price</title>
<path fill="#333" d="M14.333 22.56a1.331 1.331 0 0 1-.943-.393l-3.557-3.553a1.333 1.333 0 0 1 1.883-1.886l-.001-.001 3.557 3.557a1.333 1.333 0 0 1-.94 2.276zm-2.166 2.72c.242-.241.391-.575.391-.943s-.149-.702-.391-.943l-3.56-3.557a1.334 1.334 0 1 0-1.886 1.886l3.557 3.557c.241.242.575.391.943.391s.702-.149.943-.391zM31.333 2.497c-1.863 1.047-3.703 2.667-5.28 4.333l4.223 4.227c.242.241.391.575.391.943s-.149.702-.391.943L11.609 31.61c-.241.242-.575.391-.943.391s-.702-.149-.943-.391L.39 22.277c-.242-.241-.391-.575-.391-.943s.149-.702.391-.943L19.057 1.724c.241-.242.575-.391.943-.391s.702.149.943.391l3.207 3.21C25.873 3.151 27.907 1.357 30 .171a1.338 1.338 0 0 1 1.313 2.33l-.007.003zM24.25 8.8c-.493.58-.94 1.127-1.333 1.61a3.29 3.29 0 0 1 .403 1.589c0 .921-.373 1.754-.977 2.357a3.333 3.333 0 1 1-2.357-5.689h.015H20c.292.002.574.041.843.112l-.023-.005c.437-.557.957-1.193 1.537-1.867L20 4.554 3.22 21.334l7.447 7.447 16.78-16.78z"></path>
</svg>
