<?xml version="1.0" encoding="utf-8"?>
<!-- Generator: Adobe Illustrator 20.1.0, SVG Export Plug-In . SVG Version: 6.00 Build 0)  -->
<svg version="1.1" id="Layer_1" xmlns="http://www.w3.org/2000/svg" xmlns:xlink="http://www.w3.org/1999/xlink" x="0px" y="0px"
	 viewBox="0 0 72 72" style="enable-background:new 0 0 72 72;" xml:space="preserve">
<g>
	<g>
		<g>
			<path d="M60.5,72h-49c-2.8,0-5-2.2-5-5V5c0-2.8,2.2-5,5-5h49c2.8,0,5,2.2,5,5v62C65.5,69.8,63.3,72,60.5,72z M11.5,2
				c-1.7,0-3,1.3-3,3v62c0,1.7,1.3,3,3,3h49c1.7,0,3-1.3,3-3V5c0-1.7-1.3-3-3-3H11.5z"/>
		</g>
		<g>
			<path d="M48.4,11h-25c-0.4,0-0.8-0.2-0.9-0.6l-4-9c-0.2-0.5,0-1.1,0.5-1.3c0.5-0.2,1.1,0,1.3,0.5L24.1,9h23.7l3.7-8.4
				c0.2-0.5,0.8-0.7,1.3-0.5c0.5,0.2,0.7,0.8,0.5,1.3l-4,9C49.2,10.8,48.8,11,48.4,11z"/>
		</g>
	</g>
	<g>
		<circle cx="21" cy="59" r="3"/>
		<circle cx="21" cy="49" r="3"/>
		<circle cx="21" cy="39" r="3"/>
		<circle cx="21" cy="29" r="3"/>
	</g>
	<g>
		<g>
			<path d="M53,60H30c-0.6,0-1-0.4-1-1s0.4-1,1-1h23c0.6,0,1,0.4,1,1S53.6,60,53,60z"/>
		</g>
		<g>
			<path d="M53,50H30c-0.6,0-1-0.4-1-1s0.4-1,1-1h23c0.6,0,1,0.4,1,1S53.6,50,53,50z"/>
		</g>
		<g>
			<path d="M53,40H30c-0.6,0-1-0.4-1-1s0.4-1,1-1h23c0.6,0,1,0.4,1,1S53.6,40,53,40z"/>
		</g>
		<g>
			<path d="M53,30H30c-0.6,0-1-0.4-1-1s0.4-1,1-1h23c0.6,0,1,0.4,1,1S53.6,30,53,30z"/>
		</g>
	</g>
</g>
</svg>
