<svg version="1.1" xmlns="http://www.w3.org/2000/svg" width="32" height="32" viewBox="0 0 32 32">
<title>product</title>
<path fill="#333" d="M31.947 10c0.032-0.109 0.051-0.235 0.051-0.365 0-0.157-0.027-0.308-0.077-0.448l0.003 0.009-2.157-6.14c-0.302-0.818-1.075-1.39-1.981-1.39-0.007 0-0.013 0-0.020 0h-23.549c-0.006-0-0.012-0-0.019-0-0.906 0-1.679 0.572-1.976 1.375l-0.005 0.015-2.14 6.093c-0.049 0.132-0.077 0.283-0.077 0.442 0 0.136 0.021 0.267 0.059 0.391l-0.003-0.009c-0.034 0.107-0.055 0.231-0.057 0.359v17.891c0 0 0 0 0 0 0 1.163 0.941 2.106 2.103 2.11h27.79c1.164-0.002 2.107-0.946 2.107-2.11 0 0 0 0 0 0v0-17.89c-0.003-0.12-0.022-0.234-0.056-0.342l0.002 0.009zM28.793 8.333h-7.733l-0.8-4h7.127zM18.667 14.437l-2.12-0.957c-0.16-0.074-0.348-0.116-0.545-0.116s-0.385 0.043-0.553 0.12l0.008-0.003-2.123 0.943v-3.423h5.333zM17.54 4.333l0.793 4h-4.667l0.8-4zM4.607 4.333h7.133l-0.797 4c-3.187 0-6 0-7.737-0.030zM2.667 27.667v-16.713c0.747 0 1.79 0 3.27 0.020l4.73 0.027v5.477c0 0.001 0 0.002 0 0.002 0 0.736 0.597 1.333 1.333 1.333 0.197 0 0.384-0.043 0.552-0.119l-0.008 0.003 3.457-1.54 3.453 1.56c0.161 0.073 0.349 0.115 0.546 0.117h0c0.736 0 1.333-0.597 1.333-1.333v0-5.5h8v16.667z"></path>
</svg>
