<svg version="1.1" xmlns="http://www.w3.org/2000/svg" width="32" height="32" viewBox="0 0 32 32">
<title>product_list</title>
<path fill="#333" d="M22 17.333h-7.977c-0.736 0-1.333-0.597-1.333-1.333s0.597-1.333 1.333-1.333v0h7.977c0.736 0 1.333 0.597 1.333 1.333s-0.597 1.333-1.333 1.333v0zM23.31 20.667c0-0.736-0.597-1.333-1.333-1.333v0h-7.977c-0.736 0-1.333 0.597-1.333 1.333s0.597 1.333 1.333 1.333v0h7.977c0.736 0 1.333-0.597 1.333-1.333v0zM23.31 25.333c0-0.736-0.597-1.333-1.333-1.333v0h-7.977c-0.736 0-1.333 0.597-1.333 1.333s0.597 1.333 1.333 1.333v0h7.977c0.736 0 1.333-0.597 1.333-1.333v0zM28.667 2.667v26.667c0 1.473-1.194 2.667-2.667 2.667v0h-20c-1.473 0-2.667-1.194-2.667-2.667v0-26.667c0-1.473 1.194-2.667 2.667-2.667v0h20c1.473 0 2.667 1.194 2.667 2.667v0zM11.12 2.667l0.75 2.667h8.277l0.77-2.667zM26 29.333v-26.667h-2.307l-1.263 4.37c-0.166 0.561-0.676 0.963-1.281 0.963-0.001 0-0.002 0-0.003 0h-10.287c-0.608-0-1.121-0.407-1.281-0.964l-0.002-0.009-1.227-4.36h-2.35v26.667zM10 24c-0.736 0-1.333 0.597-1.333 1.333s0.597 1.333 1.333 1.333c0.736 0 1.333-0.597 1.333-1.333v0c0-0.736-0.597-1.333-1.333-1.333v0zM11.333 20.667c0 0.736-0.597 1.333-1.333 1.333s-1.333-0.597-1.333-1.333c0-0.736 0.597-1.333 1.333-1.333v0c0.736 0 1.333 0.597 1.333 1.333v0zM11.333 16c0 0.736-0.597 1.333-1.333 1.333s-1.333-0.597-1.333-1.333c0-0.736 0.597-1.333 1.333-1.333v0c0.736 0 1.333 0.597 1.333 1.333v0z"></path>
</svg>
