<?xml version="1.0" encoding="utf-8"?>
<!-- Generator: Adobe Illustrator 20.1.0, SVG Export Plug-In . SVG Version: 6.00 Build 0)  -->
<svg version="1.1" id="Layer_1" xmlns="http://www.w3.org/2000/svg" xmlns:xlink="http://www.w3.org/1999/xlink" x="0px" y="0px"
	 viewBox="0 0 72 72" style="enable-background:new 0 0 72 72;" xml:space="preserve">
<g>
	<g>
		<path d="M72,67.8H0v-46h72V67.8z M2,65.8h68v-42H2V65.8z"/>
	</g>
	<g>
		<path d="M70,23.9H2c-0.7,0-1.3-0.3-1.6-0.9c-0.4-0.6-0.4-1.3-0.2-1.9L6.8,5h58.5l6.6,16.2c0.3,0.6,0.2,1.3-0.2,1.9
			C71.3,23.6,70.7,23.9,70,23.9z M8.1,7L2,21.9l68,0L63.9,7H8.1z"/>
	</g>
	<g>
		<path d="M45,23.8H27c-0.3,0-0.6-0.1-0.8-0.4S26,22.9,26,22.6l3.1-16.5c0.1-0.5,0.5-0.8,1-0.8h11.7c0.5,0,0.9,0.3,1,0.8L46,22.6
			c0.1,0.3,0,0.6-0.2,0.8C45.6,23.6,45.3,23.8,45,23.8z M28.2,21.8h15.6L41,7.2H31L28.2,21.8z"/>
	</g>
	<g>
		<path d="M45.1,42.3c-0.9,0-2.9-1-9.2-5.2l-8.5,4.7c-0.3,0.2-0.7,0.2-1,0c-0.3-0.2-0.5-0.5-0.5-0.9V23c0-0.6,0.4-1,1-1s1,0.4,1,1
			v16.3l7.5-4.2c0.3-0.2,0.7-0.2,1,0c2.7,1.8,5.8,3.7,7.4,4.6V23c0-0.6,0.4-1,1-1s1,0.4,1,1v17.7c0.3,0.7-0.1,1.1-0.2,1.3
			C45.6,42.2,45.4,42.3,45.1,42.3z"/>
	</g>
</g>
</svg>
