<svg xmlns="http://www.w3.org/2000/svg" width="32" height="32"><path d="M26 32H6a3 3 0 0 1-3-3V8a3 3 0 0 1 3-3h4.083C10.577 2.142 13.038-.003 16-.003s5.422 2.146 5.912 4.968l.005.036H26a3 3 0 0 1 3 3v21a3 3 0 0 1-3 3zM6 7a1 1 0 0 0-1 1v21a1 1 0 0 0 1 1h20a1 1 0 0 0 1-1V8a1 1 0 0 0-1-1h-5a1 1 0 0 1-1-1 4 4 0 0 0-8 0 1 1 0 0 1-1 1zm16-1zm1.333 19a1 1 0 0 0-1-1H15a1 1 0 0 0 0 2h7.333a1 1 0 0 0 1-1zm0-6a1 1 0 0 0-1-1H15a1 1 0 0 0 0 2h7.333a1 1 0 0 0 1-1zm0-6a1 1 0 0 0-1-1H15a1 1 0 0 0 0 2h7.333a1 1 0 0 0 1-1zM11 11.333A1.667 1.667 0 1 0 12.667 13c0-.92-.746-1.667-1.667-1.667zm0 6A1.667 1.667 0 1 0 12.667 19c0-.92-.746-1.667-1.667-1.667zm0 6A1.667 1.667 0 1 0 12.667 25c0-.92-.746-1.667-1.667-1.667zm5-19.666a1.667 1.667 0 1 0 1.667 1.667c0-.92-.746-1.667-1.667-1.667z"/></svg>