<svg xmlns="http://www.w3.org/2000/svg" width="32" height="32"><path d="M31 9a.504.504 0 0 0 0-.116v.002l.001-.043c0-.015 0-.03-.002-.045V8.8a.885.885 0 0 0-.025-.093l.002.006c0-.033-.023-.07-.04-.107v-.008-.009l-3.307-6.987A3.078 3.078 0 0 0 24.93-.002l-.057.001h.003-17.8a3.085 3.085 0 0 0-2.712 1.614l-.008.016-3.263 6.943v.017c0 .037-.027.073-.04.107a.623.623 0 0 0-.022.081l-.001.005-.001.043c0 .015 0 .03.002.045v-.002a.605.605 0 0 0-.03.127v22.003a1 1 0 0 0 1 1h28a1 1 0 0 0 1-1v-22zm-6.127-7l.056-.001c.375 0 .706.189.902.478l.002.004 2.593 5.52H16.999v-6zm-18.72.51A1.084 1.084 0 0 1 7.129 2h-.003 7.873v6H3.572zM29 30H3V10h26zm-4-4h-6a1 1 0 0 1 0-2h6a1 1 0 0 1 0 2z"/></svg>