<svg xmlns="http://www.w3.org/2000/svg" viewBox="0 0 96 96"><path d="M48 56a28 28 0 1 1 28-28 28 28 0 0 1-28 28zm0-48a20 20 0 1 0 20 20A20 20 0 0 0 48 8zm34.28 87.79a4 4 0 0 0 2.51-5.07c-2.1-6.24-6.11-17.17-9.64-21.31C72.4 65.28 67.63 62.44 61 61a42.36 42.36 0 0 0-8.83-1H40.59c-1.29 0-13.07-.07-20.19 8.73-3.26 4-7.17 15.48-9.21 21.94a4 4 0 1 0 7.62 2.41c3.46-11 6.42-17.6 7.81-19.32C31.44 67.8 40.3 68 40.38 68h11.85c3.45-.06 13.14.93 16.35 6a4.73 4.73 0 0 0 .43.57c1.48 1.61 4.59 8 8.2 18.73A4 4 0 0 0 81 96a4.13 4.13 0 0 0 1.28-.21z" fill="#333"/></svg>