<svg version="1.1" xmlns="http://www.w3.org/2000/svg" width="32" height="32" viewBox="0 0 32 32">
<title>profile</title>
<path fill="#333" d="M16 18.667c-5.155 0-9.333-4.179-9.333-9.333s4.179-9.333 9.333-9.333c5.155 0 9.333 4.179 9.333 9.333v0c0 5.155-4.179 9.333-9.333 9.333v0zM16 2.667c-3.682 0-6.667 2.985-6.667 6.667s2.985 6.667 6.667 6.667c3.682 0 6.667-2.985 6.667-6.667v0c0-3.682-2.985-6.667-6.667-6.667v0zM27.427 31.93c0.532-0.183 0.907-0.68 0.907-1.263 0-0.153-0.026-0.299-0.073-0.436l0.003 0.009c-0.7-2.080-2.037-5.723-3.213-7.103-0.917-1.377-2.507-2.323-4.717-2.803-0.881-0.204-1.896-0.325-2.938-0.333l-0.006-0h-3.86c-0.43 0-4.357-0.023-6.73 2.91-1.087 1.333-2.39 5.16-3.070 7.313-0.051 0.136-0.081 0.294-0.081 0.458 0 0.736 0.597 1.333 1.333 1.333 0.614 0 1.131-0.415 1.286-0.979l0.002-0.009c1.153-3.667 2.14-5.867 2.603-6.44 1.607-1.987 4.56-1.92 4.587-1.92h3.95c1.15-0.020 4.38 0.31 5.45 2 0.046 0.071 0.093 0.134 0.145 0.192l-0.001-0.002c0.493 0.537 1.53 2.667 2.733 6.243 0.185 0.528 0.68 0.9 1.261 0.9 0.001 0 0.002 0 0.003 0h-0c0.153-0.001 0.299-0.026 0.436-0.073l-0.010 0.003z"></path>
</svg>
