<svg xmlns="http://www.w3.org/2000/svg" width="32" height="32"><path d="M21 2h-3V1a1 1 0 0 0-2 0v1H8V1a1 1 0 0 0-2 0v1H3a3 3 0 0 0-3 3v16a3 3 0 0 0 3 3h8a1 1 0 0 0 0-2H3a1 1 0 0 1-1-1V10h20v1a1 1 0 0 0 2 0V5a3 3 0 0 0-3-3zM2 8V5a1 1 0 0 1 1-1h3v1a1 1 0 0 0 2 0V4h8v1a1 1 0 0 0 2 0V4h3a1 1 0 0 1 1 1v3zm21 24c-4.971 0-9-4.029-9-9s4.029-9 9-9a9 9 0 0 1 9 9 9 9 0 0 1-9 9zm0-16a7 7 0 1 0 7 7 7 7 0 0 0-7-7zm1.413 7l2.293-2.293a1 1 0 0 0-1.414-1.413l.001-.001L23 21.586l-2.293-2.293a1 1 0 0 0-1.413 1.414l-.001-.001 2.293 2.293-2.293 2.293a1 1 0 0 0 0 1.414 1 1 0 0 0 1.414 0L23 24.413l2.293 2.293a1 1 0 0 0 1.414 0 1 1 0 0 0 0-1.414z"/></svg>