<?xml version="1.0" encoding="utf-8"?>
<!-- Generator: Adobe Illustrator 20.1.0, SVG Export Plug-In . SVG Version: 6.00 Build 0)  -->
<svg version="1.1" id="Layer_1" xmlns="http://www.w3.org/2000/svg" xmlns:xlink="http://www.w3.org/1999/xlink" x="0px" y="0px"
	 viewBox="0 0 72 72" style="enable-background:new 0 0 72 72;" xml:space="preserve">
<g>
	<g>
		<g>
			<path d="M67,72H5c-2.8,0-5-2.2-5-5V9c0-2.8,2.2-5,5-5h3.8c0.6,0,1,0.4,1,1s-0.4,1-1,1H5C3.3,6,2,7.4,2,9v58c0,1.7,1.3,3,3,3h62
				c1.7,0,3-1.3,3-3V9c0-1.7-1.3-3-3-3h-4.2c-0.6,0-1-0.4-1-1s0.4-1,1-1H67c2.8,0,5,2.2,5,5v58C72,69.7,69.8,72,67,72z"/>
		</g>
		<g>
			<path d="M44.9,6H27c-0.6,0-1-0.4-1-1s0.4-1,1-1h17.9c0.6,0,1,0.4,1,1S45.5,6,44.9,6z"/>
		</g>
		<g>
			<path d="M71,27.7H1c-0.6,0-1-0.4-1-1s0.4-1,1-1h70c0.6,0,1,0.4,1,1S71.6,27.7,71,27.7z"/>
		</g>
		<g>
			<g>
				<path d="M18,11.3c-0.6,0-1-0.4-1-1V1c0-0.6,0.4-1,1-1s1,0.4,1,1v9.3C19,10.9,18.5,11.3,18,11.3z"/>
			</g>
			<g>
				<path d="M18,19.8c-2.8,0-5-2.2-5-5s2.2-5,5-5s5,2.2,5,5S20.7,19.8,18,19.8z M18,11.8c-1.7,0-3,1.3-3,3s1.3,3,3,3s3-1.3,3-3
					S19.6,11.8,18,11.8z"/>
			</g>
		</g>
		<g>
			<g>
				<path d="M54.1,11.3c-0.6,0-1-0.4-1-1V1c0-0.6,0.4-1,1-1s1,0.4,1,1v9.3C55.1,10.9,54.6,11.3,54.1,11.3z"/>
			</g>
			<g>
				<path d="M54.1,19.8c-2.8,0-5-2.2-5-5s2.2-5,5-5s5,2.2,5,5S56.8,19.8,54.1,19.8z M54.1,11.8c-1.7,0-3,1.3-3,3c0,1.7,1.3,3,3,3
					s3-1.3,3-3C57.1,13.2,55.7,11.8,54.1,11.8z"/>
			</g>
		</g>
	</g>
	<g>
		<g>
			<path d="M36,49.6h-2.9c-0.6,0-1-0.4-1-1s0.4-1,1-1H36c3.3,0,6-2.7,6-6s-2.7-6-6-6c-2.8,0-5.3,2-5.9,4.8c-0.1,0.5-0.6,0.9-1.2,0.8
				c-0.5-0.1-0.9-0.6-0.8-1.2c0.8-3.7,4.1-6.4,7.8-6.4c4.4,0,8,3.6,8,8S40.4,49.6,36,49.6z"/>
		</g>
		<g>
			<path d="M36,63.6c-3.5,0-6.7-2.4-7.7-5.8c-0.2-0.5,0.2-1.1,0.7-1.2c0.5-0.2,1.1,0.2,1.2,0.7c0.7,2.6,3.1,4.3,5.8,4.3
				c3.3,0,6-2.7,6-6s-2.7-6-6-6h-2.9c-0.6,0-1-0.4-1-1s0.4-1,1-1H36c4.4,0,8,3.6,8,8S40.4,63.6,36,63.6z"/>
		</g>
	</g>
</g>
</svg>
