<svg xmlns="http://www.w3.org/2000/svg" width="32" height="32"><path d="M31 4h-7V1a1 1 0 0 0-2 0v3H10V1a1 1 0 0 0-2 0v3H1a1 1 0 0 0-1 1v26a1 1 0 0 0 1 1h30a1 1 0 0 0 1-1V5a1 1 0 0 0-1-1zM8 6v2.333a1 1 0 0 0 2 0V6h12v2.333a1 1 0 0 0 2 0V6h6v6H2V6zM2 30V14h28v16zm17.207-3a1 1 0 0 1-.921-1.387l-.002.007 2.717-6.603c-.012-.003-.026-.004-.04-.004s-.028.001-.041.004h.001-2.92a1 1 0 0 1 0-2h2.913c.56 0 1.069.214 1.451.565l-.002-.001c.385.354.628.858.637 1.418v.002c-.001.26-.053.507-.148.733l.005-.012-2.723 6.667c-.155.363-.51.613-.922.613h-.005zM14 25h-1v-6a2 2 0 0 0-2-2h-1a1 1 0 0 0 0 2h1v6h-1a1 1 0 0 0 0 2h4a1 1 0 0 0 0-2z"/></svg>