<svg version="1.1" xmlns="http://www.w3.org/2000/svg" width="32" height="32" viewBox="0 0 32 32">
<title>publish-later-cancel</title>
<path fill="#333" d="M29.12 1.333h-1.453c-0.736 0-1.333 0.597-1.333 1.333s0.597 1.333 1.333 1.333v0h1.453c0.119 0.004 0.213 0.101 0.213 0.22 0 0.001 0 0.002-0 0.004v-0 7.11h-26.667v-7.12c-0-0.001-0-0.002-0-0.003 0-0.114 0.090-0.206 0.203-0.21h1.464c0.736 0 1.333-0.597 1.333-1.333s-0.597-1.333-1.333-1.333v0h-1.463c-1.586 0.006-2.87 1.293-2.87 2.88 0 0 0 0 0 0v0 24.897c0 0.001 0 0.002 0 0.003 0 1.592 1.289 2.883 2.88 2.887h26.244c1.59-0.006 2.877-1.296 2.877-2.887 0-0.001 0-0.002 0-0.004v0-24.887c0-0.001 0-0.002 0-0.003 0-1.592-1.289-2.883-2.88-2.887h-0zM29.12 29.333h-26.24c-0.119-0.004-0.213-0.101-0.213-0.22 0-0.001 0-0.002 0-0.004v0-15.11h26.667v15.11c0 0.002 0 0.004 0 0.007 0 0.117-0.093 0.213-0.21 0.217h-0zM19.667 4h-7.333c-0.736 0-1.333-0.597-1.333-1.333s0.597-1.333 1.333-1.333v0h7.333c0.736 0 1.333 0.597 1.333 1.333s-0.597 1.333-1.333 1.333v0zM20.273 25.943c-0.241 0.241-0.574 0.389-0.942 0.389s-0.701-0.149-0.942-0.389l0 0-2.39-2.4-2.39 2.397c-0.236 0.215-0.551 0.347-0.897 0.347-0.736 0-1.333-0.597-1.333-1.333 0-0.344 0.13-0.658 0.345-0.895l-0.001 0.001 2.393-2.393-2.37-2.38c-0.226-0.238-0.364-0.561-0.364-0.916 0-0.736 0.597-1.333 1.333-1.333 0.357 0 0.682 0.141 0.922 0.37l-0.001-0 2.363 2.357 2.363-2.37c0.239-0.229 0.564-0.369 0.921-0.369 0.736 0 1.333 0.597 1.333 1.333 0 0.355-0.139 0.678-0.365 0.917l0.001-0.001-2.37 2.393 2.393 2.407c0.236 0.24 0.381 0.57 0.381 0.933 0 0.365-0.147 0.696-0.385 0.937l0-0zM11 7.333c0 0.001 0 0.002 0 0.003 0 1.473-1.194 2.667-2.667 2.667s-2.667-1.194-2.667-2.667c0-0.982 0.531-1.84 1.321-2.303l0.013-0.007v-3.693c0-0.736 0.597-1.333 1.333-1.333s1.333 0.597 1.333 1.333v0 3.693c0.802 0.469 1.332 1.326 1.333 2.307v0zM26.333 7.333c0 0.001 0 0.002 0 0.003 0 1.473-1.194 2.667-2.667 2.667s-2.667-1.194-2.667-2.667c0-0.982 0.531-1.84 1.321-2.303l0.013-0.007v-3.693c0-0.736 0.597-1.333 1.333-1.333s1.333 0.597 1.333 1.333v0 3.693c0.802 0.469 1.332 1.326 1.333 2.307v0z"></path>
</svg>
