<svg version="1.1" xmlns="http://www.w3.org/2000/svg" width="32" height="32" viewBox="0 0 32 32">
<title>publish</title>
<path fill="#333" d="M32 1.223c-0.057-0.67-0.601-1.196-1.274-1.223l-0.003-0c-0.153 0-3.84-0.15-9.783 2.703-3.96 1.903-8.333 6.367-11.647 10.227l-5.030 0.287c-0.525 0.031-0.966 0.361-1.157 0.821l-0.003 0.009-3 7.41c-0.061 0.147-0.096 0.318-0.096 0.497 0 0.736 0.597 1.333 1.333 1.333h0c0.002 0 0.004 0 0.006 0 0.167 0 0.327-0.032 0.473-0.090l-0.009 0.003 3.143-1.187 5 4.953-1.213 3.227c-0.055 0.141-0.087 0.303-0.087 0.473 0 0.736 0.597 1.333 1.333 1.333 0.005 0 0.009-0 0.014-0h-0.001c0.18-0 0.352-0.036 0.509-0.1l-0.009 0.003 7.453-3.020c0.472-0.195 0.803-0.641 0.83-1.167l0-0.003 0.257-5.143c3.837-3.367 8.293-7.79 10.227-11.643 2.993-5.96 2.733-9.553 2.733-9.703zM5.26 15.833l1.74-0.097c-1.493 1.88-2.523 3.31-2.82 3.733l-0.44 0.167zM16.167 26.73l-3.833 1.56 0.15-0.4c0.177-0.13 1.697-1.25 3.773-2.95zM26.883 9.73c-2.83 5.633-12.12 13.050-15.070 15.333l-4.887-4.857c2.19-2.967 9.397-12.333 15.17-15.093 3.253-1.563 5.72-2.13 7.14-2.333-0.193 1.373-0.75 3.76-2.353 6.95zM8.853 28.293c-0.187 0.35-0.707 1.040-2.277 1.837-1.414 0.73-3.062 1.359-4.784 1.801l-0.166 0.036c-0.087 0.021-0.187 0.033-0.29 0.033-0.001 0-0.002 0-0.004 0h0c-0.735-0.002-1.33-0.598-1.33-1.333 0-0.192 0.040-0.374 0.113-0.539l-0.003 0.009c0.51-1.73 1.151-3.231 1.944-4.636l-0.057 0.11c0.857-1.547 1.63-2.023 1.92-2.157l1.107 2.427c0.041-0.014 0.076-0.033 0.108-0.057l-0.001 0.001c-0.33 0.297-0.599 0.655-0.791 1.056l-0.009 0.020c-0.333 0.59-0.597 1.157-0.82 1.667 0.577-0.223 1.213-0.497 1.88-0.827 0.448-0.19 0.83-0.449 1.154-0.767l-0 0c-0.030 0.033-0.054 0.073-0.069 0.118l-0.001 0.002zM20.213 15.543c-0.479 0.487-1.144 0.789-1.88 0.79h-0c-0.004 0-0.008 0-0.013 0-0.728 0-1.387-0.296-1.864-0.773l-0-0c-0.487-0.483-0.789-1.153-0.789-1.893 0-1.465 1.182-2.655 2.644-2.667h0.001c1.471 0.003 2.662 1.195 2.662 2.667 0 0.732-0.295 1.395-0.772 1.877l0-0z"></path>
</svg>
