<svg version="1.1" xmlns="http://www.w3.org/2000/svg" width="32" height="32" viewBox="0 0 32 32">
<title>publish-later</title>
<path fill="#333" d="M19.667 4h-7.333c-0.736 0-1.333-0.597-1.333-1.333s0.597-1.333 1.333-1.333v0h7.333c0.736 0 1.333 0.597 1.333 1.333s-0.597 1.333-1.333 1.333v0zM32 4.223v24.887c0 0.001 0 0.002 0 0.003 0 1.591-1.287 2.881-2.876 2.887h-26.244c-1.591-0.004-2.88-1.295-2.88-2.887 0-0.001 0-0.002 0-0.004v0-24.897c0 0 0 0 0-0 0-1.587 1.284-2.874 2.869-2.88h1.464c0.736 0 1.333 0.597 1.333 1.333s-0.597 1.333-1.333 1.333v0h-1.463c-0.113 0.004-0.203 0.096-0.203 0.21 0 0.001 0 0.002 0 0.004v-0 7.12h26.667v-7.11c0-0.001 0-0.002 0-0.003 0-0.119-0.095-0.216-0.213-0.22h-1.454c-0.736 0-1.333-0.597-1.333-1.333s0.597-1.333 1.333-1.333v0h1.453c1.591 0.004 2.88 1.295 2.88 2.887 0 0.001 0 0.002 0 0.004v-0zM29.333 29.11v-15.11h-26.667v15.11c-0 0.001-0 0.002-0 0.003 0 0.119 0.095 0.216 0.213 0.22h26.244c0.117-0.004 0.21-0.099 0.21-0.217 0-0.002-0-0.005-0-0.007v0zM19.333 19.5c0-0.009 0-0.019 0-0.029 0-1.918-1.555-3.473-3.473-3.473-0.046 0-0.091 0.001-0.137 0.003l0.007-0c-0.023-0.001-0.051-0.001-0.079-0.001-1.082 0-2.047 0.495-2.683 1.271l-0.005 0.006c-0.211 0.235-0.34 0.547-0.34 0.89 0 0.736 0.597 1.333 1.333 1.333 0.445 0 0.839-0.218 1.081-0.552l0.003-0.004c0.173-0.174 0.413-0.281 0.677-0.281 0.486 0 0.888 0.363 0.949 0.833l0 0.005c0 0.547-0.52 0.833-1.033 0.833h-0.363c-0.736 0-1.333 0.597-1.333 1.333s0.597 1.333 1.333 1.333v0h0.287c0.51 0 1.060 0.26 1.060 0.833-0.002 0.464-0.379 0.84-0.843 0.84-0.038 0-0.075-0.002-0.111-0.007l0.004 0c-0.021 0.002-0.045 0.003-0.070 0.003-0.234 0-0.446-0.097-0.596-0.253l-0-0c-0.245-0.342-0.641-0.563-1.088-0.563-0.736 0-1.333 0.597-1.333 1.333 0 0.383 0.162 0.729 0.421 0.972l0.001 0.001c0.641 0.721 1.571 1.174 2.606 1.174 0.021 0 0.043-0 0.064-0.001l-0.003 0c2.057 0 3.61-1.503 3.61-3.5 0-0.005 0-0.010 0-0.015 0-0.805-0.286-1.544-0.761-2.12l0.005 0.006c0.506-0.588 0.813-1.358 0.813-2.2 0-0.001 0-0.002 0-0.003v0zM9.667 5.027v-3.693c0-0.736-0.597-1.333-1.333-1.333s-1.333 0.597-1.333 1.333v0 3.693c-0.803 0.47-1.333 1.328-1.333 2.309 0 1.473 1.194 2.667 2.667 2.667s2.667-1.194 2.667-2.667c0-0.982-0.531-1.84-1.321-2.303l-0.013-0.007zM25 5.027v-3.693c0-0.736-0.597-1.333-1.333-1.333s-1.333 0.597-1.333 1.333v0 3.693c-0.803 0.47-1.333 1.328-1.333 2.309 0 1.473 1.194 2.667 2.667 2.667s2.667-1.194 2.667-2.667c0-0.982-0.531-1.84-1.321-2.303l-0.013-0.007z"></path>
</svg>
