<?xml version="1.0" encoding="utf-8"?>
<!-- Generator: Adobe Illustrator 20.1.0, SVG Export Plug-In . SVG Version: 6.00 Build 0)  -->
<svg version="1.1" id="Layer_1" xmlns="http://www.w3.org/2000/svg" xmlns:xlink="http://www.w3.org/1999/xlink" x="0px" y="0px"
	 viewBox="0 0 72 72" style="enable-background:new 0 0 72 72;" xml:space="preserve">
<style type="text/css">
	.st0{fill-rule:evenodd;clip-rule:evenodd;}
</style>
<g>
	<g>
		<g>
			<path d="M25.4,63.3c-0.3,0-0.5-0.1-0.7-0.3L9,47.5c-0.3-0.3-0.4-0.9-0.1-1.3c0.9-1.3,22.2-31.5,39.7-39.9C62.4-0.3,70.7,0,71,0
				c0.5,0,0.9,0.4,0.9,0.9c0,0.3,0.6,8.4-6.3,22.2c-8.5,17-38.4,39.1-39.7,40C25.8,63.2,25.6,63.3,25.4,63.3z M11,46.7L25.5,61
				c4.6-3.5,30.8-23.6,38.4-38.8C69.2,11.6,69.9,4.5,70,2C67.5,2.1,60.1,3,49.4,8.1C33.8,15.6,14.3,42.1,11,46.7z"/>
		</g>
		<g>
			<g>
				<path d="M1.3,50.9c-0.3,0-0.5-0.1-0.7-0.3c-0.3-0.3-0.4-0.7-0.2-1.1l7-17.1c0.1-0.4,0.5-0.6,0.9-0.6l12.9-0.7
					c0.5,0,1,0.4,1.1,0.9c0,0.6-0.4,1-0.9,1.1L9,33.8L3.1,48.2l6.3-2.3c0.5-0.2,1.1,0.1,1.3,0.6c0.2,0.5-0.1,1.1-0.6,1.3l-8.4,3.1
					C1.6,50.9,1.4,50.9,1.3,50.9z"/>
			</g>
			<g>
				<path d="M22.1,71.5c-0.3,0-0.5-0.1-0.7-0.3c-0.3-0.3-0.4-0.7-0.2-1.1l3.1-8.4c0.2-0.5,0.8-0.8,1.3-0.6c0.5,0.2,0.8,0.8,0.6,1.3
					l-2.3,6.3l14.4-6l0.6-12.2c0-0.6,0.5-1,1-1c0.6,0,1,0.5,1,1l-0.6,12.8c0,0.4-0.3,0.7-0.6,0.9l-17,7.1
					C22.4,71.5,22.2,71.5,22.1,71.5z"/>
			</g>
		</g>
	</g>
	<g>
		<g>
			<path d="M1.1,71.9c-0.1,0-0.2,0-0.2,0c-0.5-0.1-0.9-0.7-0.7-1.2c0.1-0.2,1.4-5.8,4.8-12.5c2-3.9,3.7-4.8,3.9-4.9
				c0.5-0.2,1.1,0,1.3,0.5c0.2,0.5,0,1.1-0.4,1.3c-0.1,0-1.3,0.8-3,4c-3.3,6.4-4.6,11.9-4.6,12C1.9,71.6,1.5,71.9,1.1,71.9z"/>
		</g>
		<g>
			<path d="M1,72c-0.5,0-0.9-0.3-1-0.8c-0.1-0.5,0.2-1.1,0.7-1.2c0.1,0,5.6-1.4,12-4.7c3.2-1.7,4-3,4-3c0.3-0.5,0.9-0.7,1.3-0.4
				c0.5,0.2,0.7,0.8,0.5,1.3c-0.1,0.2-1,1.9-4.8,3.9C7,70.6,1.5,71.9,1.2,72C1.2,72,1.1,72,1,72z"/>
		</g>
	</g>
	<g>
		<ellipse transform="matrix(0.7041 -0.7101 0.7101 0.7041 -8.0508 38.8714)" class="st0" cx="42.6" cy="29.1" rx="5.7" ry="5.7"/>
		<path d="M42.6,35.8c-1.7,0-3.4-0.6-4.7-1.9c-1.3-1.3-2-2.9-2-4.7s0.7-3.5,1.9-4.7c2.6-2.6,6.8-2.6,9.4,0c1.3,1.3,2,2.9,2,4.7
			c0,1.8-0.7,3.5-1.9,4.7l0,0C46.1,35.1,44.3,35.8,42.6,35.8z M42.6,24.4c-1.2,0-2.4,0.5-3.3,1.4c-0.9,0.9-1.4,2.1-1.4,3.3
			c0,1.2,0.5,2.4,1.4,3.3c1.8,1.8,4.8,1.8,6.6,0c0,0,0,0,0,0c0.9-0.9,1.4-2.1,1.4-3.3c0-1.2-0.5-2.4-1.4-3.3
			C45,24.9,43.8,24.4,42.6,24.4z"/>
	</g>
</g>
</svg>
