<svg xmlns="http://www.w3.org/2000/svg" width="32" height="32"><path d="M6.853 23.313c-.1.243-.47.883-1.707 1.617a16.849 16.849 0 0 1-3.691 1.651l-.122.033h-.157a.687.687 0 0 1-.173.053l-.004.001a.76.76 0 0 1-.147 0h.003-.133a.894.894 0 0 1-.178-.072l.004.002-.03-.017c-.04-.027-.08-.05-.12-.08l-.067-.087a1.471 1.471 0 0 1-.079-.079l-.001-.001-.04-.047a1.05 1.05 0 0 1-.067-.098l-.003-.005-.03-.047a.744.744 0 0 1-.049-.131L.061 26l-.02-.047-.001-.033.002-.035v.002A.623.623 0 0 1 0 25.772l-.001-.005v-.103l-.001-.047.001-.049v.002a.8.8 0 0 1 .025-.136l-.001.006v-.057a16.65 16.65 0 0 1 1.709-3.902l-.042.075c.753-1.277 1.43-1.64 1.62-1.72l.82 1.83a.282.282 0 0 0 .068-.031l-.001.001a2.805 2.805 0 0 0-.739.914l-.007.016c-.267.45-.507.917-.727 1.387a15.244 15.244 0 0 0 1.475-.769l-.072.039c.364-.185.669-.434.913-.735l.004-.005a.204.204 0 0 0-.03.065v.001zM15 9a2.667 2.667 0 1 0 2.667 2.667A2.667 2.667 0 0 0 15 9zM26.667.92a1 1 0 0 0-.958-.92h-.002c-.127 0-3.187-.123-8.15 2.26-3.363 1.62-7.093 5.457-9.873 8.74l-4.237.243a1.002 1.002 0 0 0-.868.623l-.002.007-2.507 6.3A1 1 0 0 0 1 19.54h.006a.946.946 0 0 0 .357-.069l-.006.002 2.92-1.117 4.237 4.2-1.047 2.753a1 1 0 0 0 .933 1.357h.002c.132 0 .259-.026.374-.072l-.007.002 2.587-1.033a1.001 1.001 0 0 0-.337-1.942.986.986 0 0 0-.41.088l.006-.003-.47.187.297-.78c.377-.28 1.72-1.287 3.453-2.727.044.496.444.886.941.913H14.89c.535 0 .971-.42.999-.948v-.002l.087-1.74c3.177-2.797 6.817-6.437 8.41-9.61 2.493-4.973 2.28-7.957 2.28-8.08zM4.2 13.19l1.757-.1a72.305 72.305 0 0 0-2.487 3.297.828.828 0 0 0-.094.168l-.002.006-.603.233zm18.397-5.083C20.19 12.904 12.23 19.23 9.844 21.057l-4.243-4.203c1.763-2.4 7.907-10.423 12.82-12.787 1.791-.931 3.87-1.629 6.064-1.984l.119-.016c-.143 1.15-.603 3.223-2.007 6.04zm8.856 19.37C29.536 29.667 26.333 32 23.1 32h-.203c-3.247 0-6.433-2.333-8.333-4.52-.34-.395-.547-.914-.547-1.48s.207-1.085.549-1.483l-.003.003C16.483 22.3 19.72 19.957 23 20c3.277-.043 6.513 2.3 8.45 4.517.341.396.548.915.548 1.482 0 .566-.206 1.083-.548 1.481l.003-.003zm-12.53 1.19l6.26-6.263a5.86 5.86 0 0 0-2.156-.403h-.13c-2.563 0-5.29 2.057-6.84 3.833a.268.268 0 0 0 0 .334v-.001a13.982 13.982 0 0 0 2.815 2.468l.052.032zm11-2.83a13.83 13.83 0 0 0-2.821-2.448l-.053-.032-6.243 6.25a5.936 5.936 0 0 0 2.145.393h.152c2.563 0 5.23-1.973 6.84-3.833a.27.27 0 0 0-.004-.337z"/></svg>