<svg xmlns="http://www.w3.org/2000/svg" width="32" height="32"><path d="M7.92 28.057c-.09.213-.5.977-2 1.86a20.024 20.024 0 0 1-4.441 1.994l-.145.039h-.163a.643.643 0 0 1-.166.049L1.001 32a.76.76 0 0 1-.147 0h.003-.133a.894.894 0 0 1-.178-.072l.004.002-.03-.017c-.04-.027-.08-.05-.12-.08l-.067-.087a1.471 1.471 0 0 1-.079-.079l-.001-.001-.04-.047a1.05 1.05 0 0 1-.067-.098l-.003-.005-.03-.047a.744.744 0 0 1-.049-.131l-.001-.006-.02-.047-.001-.033.002-.035v.002a.623.623 0 0 1-.042-.115l-.001-.005v-.103L0 30.949l.001-.049v.002a.8.8 0 0 1 .025-.136l-.001.006v-.057a20.233 20.233 0 0 1 2.101-4.723l-.051.089c.883-1.497 1.667-1.913 1.87-2l.78 1.84.057-.027s-.42.25-1 1.21a17.311 17.311 0 0 0-1.068 2.107l-.045.12a17.852 17.852 0 0 0 2.325-1.179l-.081.046c.95-.56 1.193-.97 1.197-.973a.141.141 0 0 0-.026.052v.001zm21.333-17.42c-1.94 3.853-6.39 8.29-10.253 11.697v.057l-.28 5.577c-.02.399-.272.735-.623.878l-.007.002-7.72 3.083a.988.988 0 0 1-.368.07h-.003a1 1 0 0 1-.931-1.363l-.002.007 1.333-3.48-5.363-5.307-3.667 1.407a.941.941 0 0 1-.359.07H.998h0a1 1 0 0 1-.927-1.377l-.002.007 3.047-7.667c.145-.359.483-.611.881-.63h.002l5.243-.3c3.37-3.977 7.913-8.667 12-10.627 5.973-2.883 9.643-2.74 9.797-2.74a1 1 0 0 1 .96.916v.004c0 .15.257 3.717-2.753 9.717zM2.77 20.583l1.287-.49a.964.964 0 0 1 .125-.26l-.002.003c.14-.197 1.407-2 3.333-4.377l-2.76.157zm14.14 3.53a89.245 89.245 0 0 1-4.607 3.643l-.557 1.47 5-2zM29.96 2.06c-1.373.153-4.12.667-7.867 2.473C15.966 7.48 8.306 17.576 6.31 20.303l5.427 5.363c2.713-2.067 12.723-9.963 15.723-15.94 1.873-3.71 2.37-6.343 2.5-7.667zm-11.627 8.273a3.333 3.333 0 1 0 3.333 3.333 3.333 3.333 0 0 0-3.333-3.333z"/></svg>