<svg version="1.1" xmlns="http://www.w3.org/2000/svg" width="32" height="32" viewBox="0 0 32 32">
<title>quote</title>
<path fill="#333" d="M14 9.333v5.333c0 0.013 0 0.029 0 0.045 0 2.208-0.585 4.28-1.608 6.068l0.032-0.060c-1.247 2.113-3.053 3.28-5.090 3.28-0.736 0-1.333-0.597-1.333-1.333s0.597-1.333 1.333-1.333v0c1.707 0 3.52-2.093 3.917-5.333h-3.917c-0.736 0-1.333-0.597-1.333-1.333v0-5.333c0-0.736 0.597-1.333 1.333-1.333v0h5.333c0.736 0 1.333 0.597 1.333 1.333v0zM24.667 8h-5.333c-0.736 0-1.333 0.597-1.333 1.333v0 5.333c0 0.736 0.597 1.333 1.333 1.333v0h3.917c-0.397 3.24-2.21 5.333-3.917 5.333-0.736 0-1.333 0.597-1.333 1.333s0.597 1.333 1.333 1.333v0c2.037 0 3.843-1.167 5.090-3.28 0.992-1.729 1.577-3.8 1.577-6.008 0-0.016-0-0.032-0-0.047v0.002-5.333c0-0.736-0.597-1.333-1.333-1.333v0z"></path>
</svg>
