<svg version="1.1" xmlns="http://www.w3.org/2000/svg" width="32" height="32" viewBox="0 0 32 32">
<title>radio-button-multiple</title>
<path fill="#333" d="M30.667 25h-14.667c-0.736 0-1.333-0.597-1.333-1.333s0.597-1.333 1.333-1.333v0h14.667c0.736 0 1.333 0.597 1.333 1.333s-0.597 1.333-1.333 1.333v0zM12 23.333c0-3.314-2.686-6-6-6s-6 2.686-6 6c0 3.314 2.686 6 6 6v0c3.314 0 6-2.686 6-6v0zM9.333 23.333c0 1.841-1.492 3.333-3.333 3.333s-3.333-1.492-3.333-3.333c0-1.841 1.492-3.333 3.333-3.333v0c1.841 0 3.333 1.492 3.333 3.333v0zM30.667 10h-14.667c-0.736 0-1.333-0.597-1.333-1.333s0.597-1.333 1.333-1.333v0h14.667c0.736 0 1.333 0.597 1.333 1.333s-0.597 1.333-1.333 1.333v0zM12 8.667c0-3.314-2.686-6-6-6s-6 2.686-6 6c0 3.314 2.686 6 6 6v0c3.314 0 6-2.686 6-6v0zM9.333 8.667c0 1.841-1.492 3.333-3.333 3.333s-3.333-1.492-3.333-3.333c0-1.841 1.492-3.333 3.333-3.333v0c1.841 0 3.333 1.492 3.333 3.333v0zM6 7.333v0c-0.736 0-1.333 0.597-1.333 1.333s0.597 1.333 1.333 1.333c0.736 0 1.333-0.597 1.333-1.333v0c0-0.736-0.597-1.333-1.333-1.333v0z"></path>
</svg>
