<svg xmlns="http://www.w3.org/2000/svg" width="32" height="32"><path d="M28.53 32h-.004a1.89 1.89 0 0 1-.968-.265l.009.005L24 29.733l-3.58 2a1.917 1.917 0 0 1-2.716-2.413l-.005.013 1.43-3.283-2.583-2.82a1.9 1.9 0 0 1 0-2.667 1.916 1.916 0 0 1 1.359-.564h.033-.002 2.707l1.65-2.973a1.927 1.927 0 0 1 2.588-.818l-.011-.005c.352.178.635.452.818.787l.005.01 1.64 2.667h2.753a1 1 0 0 1 .541.159l-.004-.002c.903.58 1.37 1.267 1.383 2.043v.034c0 .52-.209.99-.547 1.333l-2.593 2.83 1.427 3.27a1.916 1.916 0 0 1-1.01 2.515l-.012.005a1.941 1.941 0 0 1-.74.147zm-9.097-2zM24 27.587c.18.001.349.047.495.129l-.005-.003 3.863 2.173-1.577-3.62a.997.997 0 0 1 .177-1.074l-.001.001 3.047-3.307a1.083 1.083 0 0 0-.217-.211l-.003-.002h-3-.001c-.359 0-.673-.189-.85-.472l-.002-.004-1.927-3.12-1.893 3.417a1 1 0 0 1-.87.507H18.126l2.92 3.18a.995.995 0 0 1 .174 1.083l.003-.006-1.577 3.63 3.863-2.173a.96.96 0 0 1 .481-.127h.009zM12.53 32h-.002a1.9 1.9 0 0 1-.967-.262l.009.005L8 29.733l-3.58 2a1.917 1.917 0 0 1-2.716-2.396l-.005.013 1.433-3.287L.545 23.24a1.9 1.9 0 0 1 0-2.667A1.964 1.964 0 0 1 1.934 20h2.707l1.65-2.97a1.93 1.93 0 1 1 3.411-.01l.005.01L11.354 20H14.083c.516 0 .984.205 1.328.537h-.001c.352.337.572.809.58 1.332v.024c0 .52-.207.992-.544 1.338l-2.587 2.823 1.43 3.28a1.918 1.918 0 0 1-1.763 2.667zm-9.097-2zM8 27.587h.003c.179 0 .347.047.492.129l-.005-.003 3.867 2.177-1.58-3.623a.997.997 0 0 1 .18-1.074l-.001.001 2.923-3.193h-3.11a1 1 0 0 1-.871-.512l-.003-.005-1.897-3.403-1.893 3.407c-.174.308-.5.513-.874.513H2.121l2.923 3.19a.995.995 0 0 1 .178 1.079l.003-.006-1.56 3.62 3.86-2.17c.137-.076.299-.123.472-.127h.001zM20.53 16h-.001c-.355 0-.686-.097-.971-.265l.009.005L16 13.733l-3.58 2a1.917 1.917 0 0 1-2.716-2.413l-.005.013 1.433-3.28-2.587-2.82a1.9 1.9 0 0 1 0-2.667c.349-.35.832-.567 1.365-.567h.03-.002 2.703l1.667-2.967a1.929 1.929 0 0 1 3.409-.011l.005.01 1.667 2.967h2.742a1.903 1.903 0 0 1 1.354 3.24l-2.62 2.82 1.427 3.273a1.922 1.922 0 0 1-1.011 2.518l-.012.005c-.217.091-.47.143-.734.143h-.006zM16 11.587h.003c.179 0 .347.047.492.129l-.005-.003 3.863 2.177-1.58-3.627a.997.997 0 0 1 .18-1.074l-.001.001L21.875 6h-3.11c-.373 0-.699-.205-.871-.508l-.003-.005-1.893-3.407-1.897 3.407c-.174.308-.5.513-.873.513h-3.107l2.923 3.19a.995.995 0 0 1 .178 1.079l.003-.006-1.58 3.623 3.863-2.173a.983.983 0 0 1 .487-.127h.003zM22.093 6z"/></svg>