<svg version="1.1" xmlns="http://www.w3.org/2000/svg" width="32" height="32" viewBox="0 0 32 32">
<title>rate</title>
<path fill="#333" d="M14.47 14.967l-3.137 3.12 0.667 4.48c0.007 0.035 0.010 0.075 0.010 0.116 0 0.228-0.114 0.428-0.288 0.549l-0.002 0.001c-0.105 0.073-0.236 0.117-0.377 0.117v0c-0.122-0-0.237-0.032-0.337-0.088l0.003 0.002-3.757-2.157-3.823 2.040c-0.091 0.049-0.199 0.078-0.313 0.078-0.148 0-0.284-0.048-0.395-0.13l0.002 0.001c-0.168-0.123-0.276-0.319-0.276-0.54 0-0.045 0.004-0.089 0.013-0.131l-0.001 0.004 0.783-4.45-3.060-3.2c-0.111-0.119-0.178-0.278-0.178-0.454 0-0.334 0.245-0.61 0.565-0.659l0.004-0 4.263-0.6 1.957-4.023c0.11-0.225 0.338-0.377 0.6-0.377 0.003 0 0.007 0 0.010 0h-0c0.264 0.004 0.49 0.161 0.595 0.386l0.002 0.004 1.86 4.077 4.25 0.703c0.249 0.042 0.449 0.217 0.525 0.449l0.001 0.005c0.020 0.060 0.031 0.13 0.031 0.202 0 0.186-0.076 0.353-0.198 0.474l-0 0zM29.067 23.217c0.176-0.122 0.29-0.323 0.29-0.55 0-0.041-0.004-0.081-0.011-0.121l0.001 0.004-0.68-4.463 3.133-3.12c0.121-0.121 0.196-0.288 0.196-0.472 0-0.069-0.011-0.136-0.030-0.2l0.001 0.005c-0.078-0.236-0.278-0.411-0.523-0.453l-0.004-0.001-4.247-0.713-1.86-4.077c-0.109-0.228-0.338-0.383-0.603-0.383s-0.494 0.155-0.602 0.379l-0.002 0.004-1.957 4.010-4.263 0.6c-0.327 0.046-0.577 0.324-0.577 0.661 0 0.18 0.071 0.343 0.187 0.463l-0-0 3.060 3.2-0.783 4.453c-0.008 0.038-0.012 0.082-0.012 0.127 0 0.221 0.108 0.417 0.274 0.539l0.002 0.001c0.109 0.080 0.245 0.128 0.393 0.128 0.115 0 0.223-0.029 0.317-0.080l-0.004 0.002 3.823-2.040 3.773 2.14c0.096 0.054 0.211 0.087 0.333 0.087h0c0.141-0.005 0.27-0.053 0.375-0.131l-0.002 0.001zM24.28 19.757l-2.947 1.577 0.607-3.447c0.006-0.034 0.010-0.074 0.010-0.114 0-0.18-0.071-0.343-0.187-0.463l0 0-2.38-2.51 3.333-0.463c0.224-0.032 0.409-0.171 0.505-0.363l0.002-0.004 1.493-3.073 1.413 3.103c0.093 0.199 0.275 0.342 0.493 0.379l0.004 0.001 3.313 0.55-2.45 2.44c-0.122 0.121-0.198 0.288-0.198 0.474 0 0.035 0.003 0.070 0.008 0.103l-0-0.004 0.523 3.457-2.9-1.647c-0.093-0.052-0.204-0.083-0.322-0.083s-0.229 0.031-0.325 0.084l0.003-0.002z"></path>
</svg>
