<svg xmlns="http://www.w3.org/2000/svg" width="32" height="32"><path d="M31 32H1a1 1 0 0 1-1-1V1a1 1 0 0 1 1-1h30a1 1 0 0 1 1 1v30a1 1 0 0 1-1 1zM2 30h28V2H2zm9.043-5.333h-.011a1.93 1.93 0 0 1-.519-.07l.014.003a2.01 2.01 0 0 1-1.215-.924l-.005-.009a1.996 1.996 0 0 1-.112-1.793l-.005.013 1.56-3.583-2.787-2.483-.037-.037a1.995 1.995 0 0 1-.588-1.417c0-.545.218-1.039.572-1.4a2.08 2.08 0 0 1 1.449-.593h2.974l1.863-3.923a1.999 1.999 0 1 1 3.588-.042l.005.011v.03l1.877 3.927h3.023a2 2 0 0 1 1.383 3.41l-.037.037-2.793 2.483 1.553 3.57a2 2 0 0 1-2.856 2.512l.009.005-3.95-2.22-3.967 2.23a1.976 1.976 0 0 1-.99.263zm-1.71-10.29l3.273 2.92a.998.998 0 0 1 .251 1.15l.003-.006-1.83 4.227 4.477-2.523a1 1 0 0 1 .985.003l-.005-.003 4.457 2.523-1.82-4.227a.999.999 0 0 1 .249-1.146l.001-.001 3.293-2.93h-3.633a1 1 0 0 1-.9-.564l-.003-.006-2.13-4.46-2.13 4.473c-.165.34-.507.57-.903.57h-.001z"/></svg>