<svg xmlns="http://www.w3.org/2000/svg" viewBox="0 0 96 96"><path d="M67.41 35.35L59 43.7l1.82 12a2 2 0 0 1-2 2.3 2.06 2.06 0 0 1-1-.26L47.78 52l-10.23 5.47a2 2 0 0 1-2.11-.14 2 2 0 0 1-.8-2l2.11-12-8.2-8.57a2 2 0 0 1 1.18-3.36l11.4-1.58 5.24-10.78A1.91 1.91 0 0 1 48.19 18 2 2 0 0 1 50 19.17l5 10.91L66.33 32a2 2 0 0 1 1.57 1.36 2 2 0 0 1-.49 1.99zm-45.19 60L51.21 76H87a8.71 8.71 0 0 0 9-9V9a8.77 8.77 0 0 0-8.92-9H9a8.71 8.71 0 0 0-9 9v58a8.71 8.71 0 0 0 9 9h7v16a4 4 0 0 0 2.11 3.53 4 4 0 0 0 4.11-.2zM87.08 8c.5 0 .92.08.92 1v58c0 .76-.24 1-1 1H50a4 4 0 0 0-2.22.67L24 84.53V72a4 4 0 0 0-4-4H9c-.79 0-1-.21-1-1V9c0-.79.21-1 1-1z" fill="#333"/></svg>