<svg version="1.1" xmlns="http://www.w3.org/2000/svg" width="32" height="32" viewBox="0 0 32 32">
<title>rate-review</title>
<path fill="#333" d="M22.47 11.783l-2.803 2.783 0.607 4c0.005 0.030 0.008 0.065 0.008 0.1 0 0.368-0.298 0.667-0.667 0.667-0.003 0-0.005 0-0.008-0h0c-0.122-0-0.237-0.032-0.337-0.088l0.003 0.002-3.347-1.913-3.41 1.823c-0.091 0.050-0.199 0.079-0.314 0.079-0.146 0-0.281-0.047-0.391-0.127l0.002 0.001c-0.169-0.122-0.278-0.319-0.278-0.542 0-0.044 0.004-0.087 0.012-0.129l-0.001 0.004 0.703-4-2.733-2.857c-0.114-0.119-0.184-0.281-0.184-0.459 0-0.337 0.249-0.615 0.573-0.66l0.004-0 3.8-0.527 1.747-3.593c0.108-0.208 0.321-0.348 0.567-0.348 0.014 0 0.028 0 0.041 0.001l-0.002-0c0.267 0.001 0.496 0.159 0.602 0.386l0.002 0.004 1.667 3.637 3.777 0.64c0.248 0.043 0.446 0.218 0.522 0.449l0.001 0.005c0.018 0.058 0.029 0.125 0.029 0.195 0 0.183-0.073 0.348-0.192 0.469l0-0zM7.407 31.783l9.663-6.45h11.93c0.029 0.001 0.064 0.002 0.098 0.002 1.603 0 2.903-1.3 2.903-2.903 0-0.035-0.001-0.069-0.002-0.103l0 0.005v-19.333c0.001-0.023 0.001-0.050 0.001-0.077 0-1.615-1.309-2.923-2.923-2.923-0.018 0-0.036 0-0.054 0l0.003-0h-26.027c-0.029-0.001-0.064-0.002-0.098-0.002-1.603 0-2.903 1.3-2.903 2.903 0 0.035 0.001 0.069 0.002 0.103l-0-0.005v19.333c-0.001 0.029-0.002 0.064-0.002 0.098 0 1.603 1.3 2.903 2.903 2.903 0.035 0 0.069-0.001 0.103-0.002l-0.005 0h2.333v5.333c0 0 0 0.001 0 0.002 0 0.506 0.282 0.946 0.696 1.172l0.007 0.003c0.182 0.099 0.399 0.158 0.629 0.158 0.276 0 0.533-0.084 0.745-0.228l-0.005 0.003zM29.027 2.667c0.167 0 0.307 0.027 0.307 0.333v19.333c0 0.253-0.080 0.333-0.333 0.333h-12.333c-0 0-0.001 0-0.001 0-0.275 0-0.531 0.083-0.743 0.226l0.005-0.003-7.927 5.287v-4.177c0-0.736-0.597-1.333-1.333-1.333v0h-3.667c-0.263 0-0.333-0.070-0.333-0.333v-19.333c0-0.263 0.070-0.333 0.333-0.333z"></path>
</svg>
