<svg version="1.1" xmlns="http://www.w3.org/2000/svg" width="32" height="32" viewBox="0 0 32 32">
<title>recommendation-calls</title>
    <path d="M31.0303031,17.2926061 L31.0303031,22.8974546 C31.0303031,24.8368485 29.7600001,26.3427879 28.1212122,26.3427879 L3.67224237,26.3427879 L6.17406057,29.4041213 C6.3553939,29.6252122 6.46496966,29.9103031 6.46496966,30.2215758 C6.46496966,30.9362425 5.88606056,31.5151516 5.17139389,31.5151516 C4.76799995,31.5151516 4.40824238,31.3309092 4.17163631,31.0419395 L4.16969692,31.0400001 L0.543030239,26.601697 C0.204605995,26.185697 -6.66666674e-08,25.6484849 -6.66666674e-08,25.0647273 C-6.66666674e-08,25.0598788 -6.66666674e-08,25.0550303 -6.66666674e-08,25.0492122 L-6.66666674e-08,25.0501819 C-6.66666674e-08,25.0463031 -6.66666674e-08,25.0414546 -6.66666674e-08,25.0366061 C-6.66666674e-08,24.4518788 0.204605995,23.9146667 0.546909027,23.4938182 L0.543030239,23.4986667 L4.16969692,19.0603636 C4.40824238,18.7694546 4.76896965,18.5852121 5.17139389,18.5852121 C5.88606056,18.5852121 6.46496966,19.1641212 6.46496966,19.8787879 C6.46496966,20.1900606 6.3553939,20.4761212 6.17212117,20.6991515 L6.17406057,20.6972121 L3.66933328,23.7585455 L28.137697,23.7585455 C28.339394,23.5578182 28.4635152,23.2804849 28.4635152,22.9730909 C28.4635152,22.9469091 28.4625455,22.9207273 28.4606061,22.8945455 L28.4606061,22.8984243 L28.4606061,17.2935758 C28.4606061,16.5798788 29.0395152,16.0009697 29.7532122,16.0009697 C30.4669092,16.0009697 31.0458182,16.5798788 31.0458182,17.2935758 L31.0458182,17.2935758 L31.0303031,17.2926061 Z M31.0303031,6.94981814 C31.0303031,6.94884845 31.0303031,6.94690905 31.0303031,6.94496966 C31.0303031,6.36024238 30.825697,5.82399996 30.483394,5.40315147 L30.4872728,5.40799996 L26.8606061,0.959999937 C26.6220607,0.669090845 26.2613334,0.48484842 25.8589091,0.48484842 C25.1442425,0.48484842 24.5653334,1.06375751 24.5653334,1.77842418 C24.5653334,2.08969691 24.6749091,2.37575752 24.8581819,2.59878782 L24.8562425,2.59684843 L27.3580607,5.65818178 L2.90909085,5.65818178 C1.27030297,5.65818178 -6.66666657e-08,7.17090905 -6.66666657e-08,9.10351512 L-6.66666657e-08,14.7083636 C-6.66666657e-08,15.4220606 0.578909027,16.0009697 1.292606,16.0009697 C2.00630297,16.0009697 2.58521207,15.4220606 2.58521207,14.7083636 L2.58521207,14.7083636 L2.58521207,9.10351512 C2.58327267,9.08121209 2.58230297,9.05503027 2.58230297,9.02884846 C2.58230297,8.72242421 2.70642419,8.44412118 2.90812116,8.2443636 L2.90812116,8.2443636 L27.3764849,8.2443636 L24.8552728,11.305697 C24.6739394,11.5267879 24.5643637,11.8118788 24.5643637,12.1231515 C24.5643637,12.8378182 25.1432728,13.4167273 25.8579394,13.4167273 C26.2613334,13.4167273 26.621091,13.2324848 26.857697,12.9435151 L26.8596364,12.9415757 L30.4863031,8.50715148 C30.8247273,8.09018179 31.0293334,7.55393936 31.0293334,6.96921208 C31.0293334,6.9633939 31.0293334,6.95757572 31.0293334,6.95175754 L31.0293334,6.95272724 L31.0303031,6.94981814 Z" id="swap"></path>
</svg>