<svg version="1.1" xmlns="http://www.w3.org/2000/svg" width="32" height="32" viewBox="0 0 32 32">
<title>recommendation-calls</title>
    <path d="M4.8979592,11.7542858 C5.44000002,11.7542858 5.87755104,12.1918368 5.87755104,12.7338776 L5.87755104,24.3583674 C5.87755104,24.972245 6.31836737,25.4685715 6.85714289,25.4685715 L28.002,25.468 L25.7567348,23.2220409 C25.374694,22.8400001 25.374694,22.2195919 25.7567348,21.8375511 C26.1387756,21.4555103 26.7591838,21.4555103 27.1412246,21.8375511 L31.0508539,25.7456774 C31.1376129,25.8300978 31.2087255,25.9305116 31.2594949,26.0422219 C31.2629664,26.0523012 31.2672964,26.0622661 31.2714528,26.0722863 C31.3115857,26.1663584 31.3364426,26.2683229 31.3442713,26.3751079 C31.3441707,26.3853326 31.3447605,26.3953775 31.3451963,26.4054278 C31.3466268,26.4192842 31.3469389,26.4336865 31.3469389,26.4481634 L31.3453625,26.4868786 C31.3449281,26.4979354 31.3443076,26.5089863 31.343501,26.520026 L31.3469389,26.4481634 C31.3469389,26.5815652 31.3204363,26.7086381 31.2723961,26.824417 C31.2672964,26.8340606 31.2629664,26.8440255 31.258463,26.8539305 C31.2072245,26.9691178 31.1333902,27.0721565 31.043118,27.1580948 L27.1412246,31.0587756 C26.9518368,31.2514287 26.7004083,31.3461226 26.4489797,31.3461226 C26.1975511,31.3461226 25.9461226,31.2514287 25.7567348,31.0587756 C25.374694,30.6767348 25.374694,30.0563267 25.7567348,29.6742858 L28.003,27.427 L6.85714289,27.4277552 C5.23755104,27.4277552 3.91836736,26.049796 3.91836736,24.3583674 L3.91836736,12.7338776 C3.91836736,12.1918368 4.35591839,11.7542858 4.8979592,11.7542858 Z M5.5902041,8.12326534 C5.97224492,8.50530616 5.97224492,9.12571432 5.5902041,9.50775514 C5.40081635,9.7004082 5.14938778,9.79510208 4.8979592,9.79510208 C4.64653063,9.79510208 4.39510206,9.7004082 4.2057143,9.50775514 L0.30382087,5.60707435 C0.212778702,5.52040296 0.13845604,5.41633832 0.0861112541,5.30013881 C0.0844006283,5.29387788 0.0817758245,5.28789049 0.0792138151,5.28188261 C0.0367755313,5.18500777 0.0105283641,5.07950106 0.00256844864,4.96883323 C0.00263125652,4.9579658 0.00201076764,4.94691494 0.00157642542,4.9358581 C0.000248044797,4.92289511 0,4.91004861 0,4.89714288 L0.00153745256,4.85943284 C0.0019861532,4.84770551 0.00264424747,4.83598473 0.00351173538,4.82427663 L0,4.89714288 C0,4.76029099 0.0278911432,4.63009967 0.0783132359,4.51192912 C0.0822150261,4.50536534 0.0853024064,4.49835566 0.0884759559,4.49137571 C0.138213392,4.37949114 0.209326055,4.27907731 0.296084989,4.19465691 L4.2057143,0.286530613 C4.58775512,-0.0955102045 5.20816329,-0.0955102045 5.5902041,0.286530613 C5.97224492,0.668571431 5.97224492,1.2889796 5.5902041,1.67102042 L3.344,3.917 L24.489796,3.91755104 C26.1093879,3.91755104 27.4285715,5.29551023 27.4285715,6.9869388 L27.4285715,18.6114286 C27.4285715,19.1534695 26.9910205,19.5910205 26.4489797,19.5910205 C25.9069389,19.5910205 25.4693879,19.1534695 25.4693879,18.6114286 L25.4693879,6.9869388 C25.4693879,6.37306125 25.0285715,5.87673472 24.489796,5.87673472 L3.343,5.876 L5.5902041,8.12326534 Z"></path>
</svg>