<?xml version="1.0" encoding="utf-8"?>
<!-- Generator: Adobe Illustrator 20.1.0, SVG Export Plug-In . SVG Version: 6.00 Build 0)  -->
<svg version="1.1" id="Layer_2" xmlns="http://www.w3.org/2000/svg" xmlns:xlink="http://www.w3.org/1999/xlink" x="0px" y="0px"
	 viewBox="0 0 72 72" style="enable-background:new 0 0 72 72;" xml:space="preserve">
<g>
	<g>
		<path d="M39.3,68.5c-0.5,0-1,0-1.4,0c-5.7-0.1-8.9-1.7-10.5-2.5c-0.2-0.1-0.4-0.2-0.5-0.3c0,0,0,0,0,0c-0.4,0-0.7-0.2-0.9-0.5
			c-0.2-0.5-0.1-1.1,0.4-1.3c0.6-0.3,1.1,0,1.9,0.4c1.4,0.7,4.3,2.2,9.6,2.3c10,0.1,16.6-1.2,21.9-2.3l0.2,0
			c0.8-0.2,2.5-0.9,3.3-1.4c0.4-0.3,1.2-0.9,1.5-1.4c0.3-0.5,0.5-1.1,0.5-1.6c0-1.7-0.7-2.1-1.3-2.5c-0.4-0.2-1.2-0.7-1-1.6
			c0.2-1,0.9-1.2,1.3-1.3c0.1,0,0.2,0,0.2-0.1c1.4-0.5,3-1.5,2.9-3.2c-0.1-1.2-1-2.1-1.3-2.2c-1.3-0.3-1.5-1.1-1.5-1.5
			c0-0.5,0.4-1.1,1.3-1.3c1.8-0.4,4-1.3,4.2-3.4c0.2-1.8-1-3.6-1.9-4c-0.7-0.3-1.4-0.5-2-0.6c-0.9-0.2-1.7-0.4-1.8-1.3
			c-0.1-0.9,0.8-1.2,1.1-1.3l0.3-0.1c1.6-0.6,3-1.3,3-3.1c0-0.9-0.2-1.5-0.7-2c-0.7-0.7-1.9-0.8-2.4-0.8H54.9c-1,0-2.5-0.8-2.8-2
			c-0.4-2-0.9-4.8,1.3-9.1c0.6-1.1,0.7-4.1-0.3-7.6c-0.8-3.1-2.2-5.7-4-7.6c-0.3-0.2-1.3-0.8-2.2-0.7c-0.5,0.1-1,0.4-1.5,1v8.2
			c0,0.1,0,0.2,0,0.4c-0.1,0.6-0.4,3.5-1.6,5.6c-0.7,1.2-3.8,6.2-6.4,10.1c-2,3.1-3.4,5-4.1,5.8c-1.7,1.9-4.9,2.1-6.6,2.1
			c-0.6,0-1-0.5-1-1c0-0.6,0.5-1,1-1c1.1,0,3.8,0,5-1.4c0.6-0.7,2-2.6,3.9-5.6c2.8-4.2,5.7-9,6.3-10c0.8-1.5,1.3-3.7,1.4-4.9
			c0-0.1,0-0.1,0-0.2l0-8.5c0-0.2,0.1-0.4,0.2-0.5c0.8-1.2,1.8-1.9,2.9-2.2c1.8-0.3,3.4,0.8,3.9,1.1c0,0,0.1,0.1,0.1,0.1
			c2,2.1,3.7,5.1,4.6,8.5c1,3.6,1,7.2,0.1,9c-1.9,3.7-1.5,5.9-1.1,7.8c0.1,0.1,0.6,0.4,0.8,0.4h10.7c0.4,0,2.4,0.1,3.8,1.4
			c0.9,0.8,1.3,2,1.3,3.4c0,2.4-1.4,3.6-2.7,4.3c0.3,0.1,0.6,0.2,0.9,0.3c1.7,0.7,3.4,3.4,3.1,6c-0.1,1.3-0.9,3.6-4.3,4.8
			c0.8,0.7,1.5,2,1.6,3.3c0.1,1.3-0.3,3.6-3.8,5c0.8,0.6,1.6,1.6,1.6,3.8c0,0.9-0.2,1.8-0.7,2.6c-0.5,0.8-1.3,1.5-2,2
			c-1,0.8-3,1.6-4.1,1.8l-0.2,0C55,67.2,48.6,68.5,39.3,68.5z"/>
	</g>
	<g>
		<path d="M20.9,71.6C20.9,71.6,20.8,71.6,20.9,71.6L9,71.6c-5.6,0-7-4.6-7-7c0-0.2-1.6-23-2-28.8c-0.1-2.1,0.4-3.8,1.6-4.9
			c1.7-1.6,4.1-1.5,4.6-1.5h14.1c1.7,0,2.6,0.7,3.1,1.3c1,1.3,0.8,3.1,0.7,3.6v33.5c0,1.3-0.4,2.3-1.1,2.9
			C22.2,71.5,21.2,71.6,20.9,71.6z M5.7,31.4c-0.6,0-1.9,0.1-2.7,0.9c-0.7,0.7-1.1,1.8-1,3.3c0.3,5.8,2,28.6,2,28.8
			c0,0.6,0.2,5.1,5,5.1h11.9c0,0,0.5,0,0.8-0.3c0.4-0.4,0.4-1,0.4-1.5V34.2c0-0.1,0-0.2,0-0.2c0.1-0.4,0.2-1.4-0.3-2
			c-0.3-0.4-0.8-0.5-1.5-0.5H6.1c0,0-0.1,0-0.1,0C6,31.4,5.9,31.4,5.7,31.4z"/>
	</g>
</g>
</svg>
