<?xml version="1.0" encoding="utf-8"?>
<!-- Generator: Adobe Illustrator 20.1.0, SVG Export Plug-In . SVG Version: 6.00 Build 0)  -->
<svg version="1.1" id="Layer_1" xmlns="http://www.w3.org/2000/svg" xmlns:xlink="http://www.w3.org/1999/xlink" x="0px" y="0px"
	 viewBox="0 0 72 72" style="enable-background:new 0 0 72 72;" xml:space="preserve">
<g>
	<path d="M34.2,70.2C15.3,70.2,0,54.8,0,36C0,17.2,15.3,1.8,34.2,1.8c14.4,0,27.3,9.2,32.1,22.6L70,12c0.2-0.5,0.7-0.8,1.2-0.7
		c0.5,0.2,0.8,0.7,0.7,1.2l-4.4,14.7c-0.1,0.3-0.3,0.5-0.5,0.6C66.8,28,66.5,28,66.2,28l-0.5-0.2c-0.1,0-0.1,0-0.1-0.1L52,23.1
		c-0.5-0.2-0.8-0.7-0.6-1.3c0.2-0.5,0.7-0.8,1.3-0.6l11.8,4.1C60,12.5,47.8,3.8,34.2,3.8C16.4,3.8,2,18.3,2,36
		c0,17.7,14.4,32.2,32.2,32.2c14.3,0,27-9.6,30.9-23.4c0.2-0.5,0.7-0.8,1.2-0.7c0.5,0.2,0.8,0.7,0.7,1.2
		C62.9,60,49.4,70.2,34.2,70.2z"/>
</g>
</svg>
