<svg version="1.1" xmlns="http://www.w3.org/2000/svg" width="32" height="32" viewBox="0 0 32 32">
<title>refresh</title>
<path fill="#333" d="M31.113 6.077c-0.133-0.049-0.287-0.077-0.447-0.077-0.576 0-1.067 0.366-1.253 0.878l-0.003 0.009-0.71 2c-2.684-4.74-7.693-7.887-13.437-7.887v0c-8.417 0-15.263 6.73-15.263 15s6.847 15 15.263 15c6.79 0 12.83-4.48 14.683-10.89 0.040-0.121 0.063-0.261 0.063-0.405 0-0.736-0.597-1.333-1.333-1.333-0.616 0-1.135 0.418-1.288 0.986l-0.002 0.009c-1.527 5.28-6.513 8.967-12.123 8.967-6.93 0-12.597-5.533-12.597-12.333s5.667-12.333 12.597-12.333c0.002 0 0.004 0 0.006 0 4.935 0 9.213 2.816 11.314 6.928l0.033 0.072-3.577-1.057c-0.112-0.034-0.24-0.053-0.373-0.053-0.736 0-1.333 0.597-1.333 1.333 0 0.603 0.401 1.113 0.951 1.278l0.009 0.002 6.107 1.777c0.111 0.034 0.238 0.053 0.37 0.053 0.001 0 0.002 0 0.003 0h-0c0.575-0.001 1.064-0.366 1.25-0.877l0.003-0.009 1.897-5.333c0.049-0.133 0.077-0.287 0.077-0.447 0-0.576-0.366-1.067-0.878-1.253l-0.009-0.003z"></path>
</svg>
