<svg xmlns="http://www.w3.org/2000/svg" width="32" height="32"><path d="M32 7a1 1 0 0 1-1 1h-3.51a13.886 13.886 0 0 1 2.511 8c0 7.732-6.268 14-14 14-1.943 0-3.794-.396-5.476-1.111l.092.035a1 1 0 1 1 .773-1.844l-.006-.003c1.363.583 2.949.922 4.614.922 6.627 0 12-5.373 12-12 0-2.469-.746-4.764-2.025-6.672L26 9.37V13a1 1 0 0 1-2 0V7a1 1 0 0 1 1-1h6a1 1 0 0 1 1 1zM21.383 3.073c-1.594-.684-3.449-1.082-5.397-1.082-7.732 0-14 6.268-14 14 0 2.998.942 5.775 2.547 8.053L4.503 24H1a1 1 0 0 0 0 2h6a1 1 0 0 0 1-1v-6a1 1 0 0 0-2 0v3.64a11.892 11.892 0 0 1-2.01-6.648c0-6.627 5.373-12 12-12 1.67 0 3.26.341 4.705.957l-.078-.03a1 1 0 0 0 .773-1.845l-.007-.002z"/></svg>