<svg xmlns="http://www.w3.org/2000/svg" width="32" height="32"><path d="M16 32C7.163 32 0 24.837 0 16S7.163 0 16 0s16 7.163 16 16c-.009 8.833-7.167 15.991-15.999 16H16zm0-30C8.268 2 2 8.268 2 16s6.268 14 14 14 14-6.268 14-14S23.732 2 16 2zm5.94 11.313c0-3.39-2.667-6.147-5.97-6.147S10 9.923 10 13.313v8.107l-2.293-2.293a1 1 0 0 0-1.413 1.414l-.001-.001 4 4a1 1 0 0 0 1.414 0l4-4a1 1 0 0 0-1.414-1.413l.001-.001-2.293 2.293v-8.107L12 13.231a4.066 4.066 0 0 1 3.966-4.065h.005c2.19 0 3.97 1.86 3.97 4.177l.06 2.183a1 1 0 0 0 2-.028v-.03.001z"/></svg>