<svg xmlns="http://www.w3.org/2000/svg" width="32" height="32" viewBox="0 0 32 32">
    <title>rejected</title>
    <path fill="#333" d="M23.333 11v4.667a1.333 1.333 0 0 1-2.666 0v-4.64c-.02-.25-.25-1.36-2.667-1.36-2.637 0-2.667 1.333-2.667 1.333v9.527c.553-.57 1.147-1.19 1.697-1.777a1.335 1.335 0 1 1 1.94 1.834l.001-.001C14.798 25 14.668 25 14.001 25s-.797 0-4.97-4.417a1.335 1.335 0 0 1 1.939-1.835l.001.001c.55.583 1.143 1.207 1.697 1.777v-9.527c0-.04.06-4 5.333-4s5.333 3.96 5.333 4zM32 16c0-8.837-7.163-16-16-16S0 7.163 0 16s7.163 16 16 16c8.833-.009 15.991-7.167 16-15.999V16zm-2.667 0c0 7.364-5.97 13.333-13.333 13.333S2.667 23.363 2.667 16C2.667 8.636 8.637 2.667 16 2.667c7.364 0 13.333 5.97 13.333 13.333z"/>
</svg>
