<svg xmlns="http://www.w3.org/2000/svg" width="32" height="32"><path d="M27.92 24.11c-.656-4.61-4.578-8.116-9.318-8.116-.123 0-.245.002-.366.007l.017-.001H17V9.9c2.299-.482 4-2.492 4-4.899a5 5 0 1 0-6.033 4.893L15 9.9V16h-1.253a9.481 9.481 0 0 0-.353-.007c-4.737 0-8.656 3.503-9.308 8.06l-.006.05a4.008 4.008 0 0 0-3.09 3.895 4 4 0 1 0 5.119-3.841l-.028-.007c.616-3.517 3.647-6.157 7.295-6.157.11 0 .219.002.327.007l-.015-.001h1.313v6.13c-1.739.46-3 2.019-3 3.873a4 4 0 1 0 5.028-3.867l-.028-.006v-6.13h1.313a7.4 7.4 0 0 1 7.584 6.112l.006.044a4.007 4.007 0 0 0-2.902 3.846 4 4 0 1 0 4.946-3.887l-.027-.006zM7 28a2 2 0 1 1-2-2 2 2 0 0 1 2 2zm11 0a2 2 0 1 1-2-2 2 2 0 0 1 2 2zM16 8a3 3 0 1 1 3-3 3 3 0 0 1-3 3zm11 22a2 2 0 1 1 2-2 2 2 0 0 1-2 2z"/></svg>