<svg version="1.1" xmlns="http://www.w3.org/2000/svg" width="32" height="32" viewBox="0 0 32 32">
<title>relations</title>
<path fill="#333" d="M19.333 8c0 0.368-0.298 0.667-0.667 0.667v0h-5.333c-0.368 0-0.667-0.298-0.667-0.667v0-5.333c0-0.368 0.298-0.667 0.667-0.667v0h5.333c0.368 0 0.667 0.298 0.667 0.667v0zM8.667 24.667c0-0.368-0.298-0.667-0.667-0.667v0h-4.667c-0.368 0-0.667 0.298-0.667 0.667v0 4.667c0 0.368 0.298 0.667 0.667 0.667v0h4.667c0.368 0 0.667-0.298 0.667-0.667v0zM19 24.667c0-0.368-0.298-0.667-0.667-0.667v0h-4.667c-0.368 0-0.667 0.298-0.667 0.667v0 4.667c0 0.368 0.298 0.667 0.667 0.667v0h4.667c0.368 0 0.667-0.298 0.667-0.667v0zM29.333 24.667c0-0.368-0.298-0.667-0.667-0.667v0h-4.667c-0.368 0-0.667 0.298-0.667 0.667v0 4.667c0 0.368 0.298 0.667 0.667 0.667v0h4.667c0.368 0 0.667-0.298 0.667-0.667v0zM26.667 15h-9.333v-3c0-0.736-0.597-1.333-1.333-1.333s-1.333 0.597-1.333 1.333v0 3h-9.333c-0.736 0-1.333 0.597-1.333 1.333v0 4.333c0 0.736 0.597 1.333 1.333 1.333s1.333-0.597 1.333-1.333v0-3h8v3c0 0.736 0.597 1.333 1.333 1.333s1.333-0.597 1.333-1.333v0-3h8v3c0 0.736 0.597 1.333 1.333 1.333s1.333-0.597 1.333-1.333v0-4.333c0-0.736-0.597-1.333-1.333-1.333v0z"></path>
</svg>
