<?xml version="1.0" encoding="utf-8"?>
<!-- Generator: Adobe Illustrator 20.1.0, SVG Export Plug-In . SVG Version: 6.00 Build 0)  -->
<svg version="1.1" xmlns="http://www.w3.org/2000/svg" xmlns:xlink="http://www.w3.org/1999/xlink" x="0px" y="0px"
	 viewBox="0 0 72 72" style="enable-background:new 0 0 72 72;" xml:space="preserve">
<g id="Layer_1">
	<g>
		<g>
			<path d="M41.8,69H30.2c-1.1,0-2-0.9-2-2V55.5c0-1.1,0.9-2,2-2h11.6c1.1,0,2,0.9,2,2V67C43.8,68.1,42.9,69,41.8,69z"/>
			<path d="M14.6,69H3c-1.1,0-2-0.9-2-2V55.5c0-1.1,0.9-2,2-2h11.6c1.1,0,2,0.9,2,2V67C16.6,68.1,15.7,69,14.6,69z"/>
			<path d="M69,69H57.4c-1.1,0-2-0.9-2-2V55.5c0-1.1,0.9-2,2-2H69c1.1,0,2,0.9,2,2V67C71,68.1,70.1,69,69,69z"/>
		</g>
		<g>
			<g>
				<path d="M64,51c-0.6,0-1-0.4-1-1V40H9v10c0,0.6-0.4,1-1,1s-1-0.4-1-1V39c0-0.6,0.4-1,1-1h56c0.6,0,1,0.4,1,1v11
					C65,50.6,64.6,51,64,51z"/>
			</g>
			<g>
				<path d="M36,51c-0.6,0-1-0.4-1-1V26c0-0.6,0.4-1,1-1s1,0.4,1,1v24C37,50.6,36.6,51,36,51z"/>
			</g>
		</g>
		<path d="M43.7,22.3H28.3c-1.1,0-2-0.9-2-2V5c0-1.1,0.9-2,2-2h15.3c1.1,0,2,0.9,2,2v15.3C45.7,21.4,44.8,22.3,43.7,22.3z"/>
	</g>
</g>
<g id="Layer_2">
</g>
</svg>
