<svg version="1.1" xmlns="http://www.w3.org/2000/svg" width="32" height="32" viewBox="0 0 32 32">
<title>restore</title>
<path fill="#333" d="M16.737 1c-5.744 0-10.753 3.147-13.397 7.81l-0.040 0.076-0.71-2c-0.189-0.521-0.68-0.887-1.257-0.887-0.737 0-1.334 0.597-1.334 1.334 0 0.16 0.028 0.314 0.080 0.456l-0.003-0.009 1.897 5.333c0.189 0.52 0.678 0.885 1.253 0.887h0c0.001 0 0.002 0 0.003 0 0.132 0 0.26-0.020 0.38-0.056l-0.009 0.002 6.107-1.777c0.559-0.167 0.96-0.677 0.96-1.28 0-0.736-0.597-1.333-1.333-1.333-0.133 0-0.262 0.020-0.383 0.056l0.009-0.002-3.577 1.057c2.134-4.184 6.412-7 11.347-7 0.002 0 0.004 0 0.007 0h-0c6.947 0 12.597 5.533 12.597 12.333s-5.667 12.333-12.597 12.333c-5.61 0-10.597-3.687-12.123-8.967-0.155-0.577-0.674-0.995-1.29-0.995-0.736 0-1.333 0.597-1.333 1.333 0 0.145 0.023 0.284 0.066 0.415l-0.003-0.009c1.853 6.41 7.893 10.89 14.683 10.89 8.417 0 15.263-6.73 15.263-15s-6.847-15-15.263-15z"></path>
</svg>
