<svg xmlns="http://www.w3.org/2000/svg" width="32" height="32"><path d="M16.143 14h13.713l.068.001c1.12 0 2.033-.887 2.075-1.997V4a2.077 2.077 0 0 0-2.147-2h.003-6.48L21.708.54A2.222 2.222 0 0 0 20.251 0H16.141l-.068-.001c-1.12 0-2.033.887-2.075 1.997V8h-12V1a1 1 0 0 0-2 0v24.143c0 1.63 1.933 2.857 4.5 2.857h9.5v2a2.077 2.077 0 0 0 2.075 2.001l.072-.001h-.003 13.713l.068.001c1.12 0 2.033-.887 2.075-1.997V22a2.077 2.077 0 0 0-2.147-2h.003-6.48l-1.667-1.46A2.222 2.222 0 0 0 20.25 18H16.14l-.068-.001c-1.12 0-2.033.887-2.075 1.997V26h-9.5c-1.667 0-2.5-.693-2.5-.857V10h12v2a2.077 2.077 0 0 0 2.075 2.001l.072-.001h-.003zM16 20.04a.243.243 0 0 1 .134-.04H20.256c.051 0 .098.018.135.047l1.943 1.707a.996.996 0 0 0 .658.247H29.866c.05 0 .096.015.135.041L30 22.041v7.92a.243.243 0 0 1-.134.04H16.134a.242.242 0 0 1-.135-.041l.001.001z"/></svg>