<svg version="1.1" xmlns="http://www.w3.org/2000/svg" width="32" height="32" viewBox="0 0 32 32">
<title>reveal</title>
<path fill="#333" d="M26.76 15.2c-3.427-4.907-7.12-7.33-11.013-7.2-6.247 0.217-10.383 7-10.557 7.277-0.115 0.19-0.183 0.419-0.183 0.664 0 0.001 0 0.002 0 0.003v-0c-0.003 0.017-0.006 0.036-0.007 0.056l-0 0.001c-0.001 0.009-0.001 0.018-0.001 0.028s0 0.020 0.001 0.030l-0-0.001c0 0.002 0 0.004 0 0.006 0 0.244 0.068 0.472 0.187 0.667l-0.003-0.006c0.18 0.277 4.317 7.060 10.563 7.277h0.3c3.783 0 7.39-2.42 10.713-7.2 0.148-0.226 0.237-0.503 0.237-0.8s-0.088-0.574-0.24-0.806l0.003 0.006zM15.847 21.333c-3.82-0.127-6.847-3.81-7.933-5.333 1.087-1.523 4.113-5.207 7.933-5.333 2.747-0.090 5.51 1.703 8.203 5.333-2.693 3.627-5.453 5.423-8.203 5.333zM19 16c0 1.657-1.343 3-3 3s-3-1.343-3-3c0-1.657 1.343-3 3-3v0c1.657 0 3 1.343 3 3v0z"></path>
<path fill="#333" d="M29.333 32h-26.667c-1.473 0-2.667-1.194-2.667-2.667v0-26.667c0-1.473 1.194-2.667 2.667-2.667v0h26.667c1.473 0 2.667 1.194 2.667 2.667v0 26.667c0 1.473-1.194 2.667-2.667 2.667v0zM2.667 2.667v26.667h26.667v-26.667z"></path>
</svg>
