<svg xmlns="http://www.w3.org/2000/svg" width="32" height="32"><path d="M31 32H1a1 1 0 0 1-1-1V1a1 1 0 0 1 1-1h30a1 1 0 0 1 1 1v30a1 1 0 0 1-1 1zM2 30h28V2H2zm14-6c-3.667 0-7.257-1.833-11.02-5.6a3.4 3.4 0 0 1-.983-2.397 3.4 3.4 0 0 1 .983-2.397C8.743 9.829 12.333 7.999 16 7.999s7.253 1.833 11.02 5.6c.608.616.983 1.463.983 2.397s-.375 1.781-.983 2.397C23.257 22.17 19.667 24 16 24zm-9.6-9c-.255.257-.412.61-.412 1s.157.743.412 1c3.363 3.36 6.507 5 9.6 5s6.233-1.64 9.603-5a1.41 1.41 0 0 0 0-2C22.23 11.64 19.09 10 16 10s-6.233 1.637-9.6 5zm9.6 5a4 4 0 1 1 4-4 4 4 0 0 1-4 4zm0-6a2 2 0 1 0 2 2 2 2 0 0 0-2-2z"/></svg>