<?xml version="1.0" encoding="utf-8"?>
<!-- Generator: Adobe Illustrator 20.1.0, SVG Export Plug-In . SVG Version: 6.00 Build 0)  -->
<svg version="1.1" id="Layer_5" xmlns="http://www.w3.org/2000/svg" xmlns:xlink="http://www.w3.org/1999/xlink" x="0px" y="0px"
	 viewBox="0 0 72 72" style="enable-background:new 0 0 72 72;" xml:space="preserve">
<g>
	<g>
		<g>
			<path d="M66.8,30.4c-0.5,0-0.9-0.3-1-0.8C62.8,15.6,50.3,5.5,36,5.5C21.7,5.5,9.2,15.6,6.2,29.6c-0.1,0.5-0.7,0.9-1.2,0.8
				c-0.5-0.1-0.9-0.6-0.8-1.2C7.4,14.3,20.8,3.5,36,3.5c15.2,0,28.6,10.8,31.8,25.6c0.1,0.5-0.2,1.1-0.8,1.2
				C66.9,30.4,66.9,30.4,66.8,30.4z"/>
		</g>
		<g>
			<path d="M66.8,30.4c-0.1,0-0.2,0-0.3-0.1l-13.5-4.6c-0.5-0.2-0.8-0.7-0.6-1.3c0.2-0.5,0.7-0.8,1.3-0.6l12.6,4.3l3.9-13
				c0.2-0.5,0.7-0.8,1.2-0.7c0.5,0.2,0.8,0.7,0.7,1.2l-4.2,14c-0.1,0.3-0.3,0.5-0.5,0.6C67.1,30.3,67,30.4,66.8,30.4z"/>
		</g>
	</g>
	<g>
		<g>
			<path d="M36,68.5c-15.2,0-28.6-10.8-31.8-25.6c-0.1-0.5,0.2-1.1,0.8-1.2c0.5-0.1,1.1,0.2,1.2,0.8c3,13.9,15.5,24.1,29.8,24.1
				c14.3,0,26.8-10.1,29.8-24.1c0.1-0.5,0.7-0.9,1.2-0.8c0.5,0.1,0.9,0.6,0.8,1.2C64.6,57.7,51.2,68.5,36,68.5z"/>
		</g>
		<g>
			<path d="M1,57.6c-0.1,0-0.2,0-0.3,0c-0.5-0.2-0.8-0.7-0.7-1.2l4.2-14c0.1-0.3,0.3-0.5,0.5-0.6s0.5-0.1,0.8-0.1l13.5,4.6
				c0.5,0.2,0.8,0.7,0.6,1.3c-0.2,0.5-0.7,0.8-1.3,0.6L5.9,43.9L2,56.9C1.8,57.3,1.4,57.6,1,57.6z"/>
		</g>
	</g>
</g>
</svg>
