<svg version="1.1" xmlns="http://www.w3.org/2000/svg" width="32" height="32" viewBox="0 0 32 32">
<title>review</title>
<path fill="#333" d="M31.957 8.080l-1.643 6.253c-0.153 0.578-0.671 0.998-1.286 1h-0c-0.002 0-0.003 0-0.005 0-0.175 0-0.341-0.034-0.494-0.097l0.009 0.003-5.29-2.083c-0.501-0.201-0.848-0.682-0.848-1.245 0-0.739 0.599-1.338 1.338-1.338 0.176 0 0.345 0.034 0.499 0.096l-0.009-0.003 2.56 1c-1.787-4.543-6.023-7.667-10.75-7.667-5.297 0-9.933 3.843-11.28 9.35-0.155 0.577-0.674 0.995-1.29 0.995-0.736 0-1.333-0.597-1.333-1.333 0-0.105 0.012-0.207 0.035-0.305l-0.002 0.009c1.637-6.717 7.34-11.383 13.87-11.383 5.447 0 10.35 3.333 12.757 8.293l0.583-2.223c0.135-0.604 0.667-1.049 1.303-1.049 0.736 0 1.333 0.597 1.333 1.333 0 0.136-0.020 0.268-0.058 0.392l0.003-0.009zM28.847 17.72c-0.097-0.025-0.208-0.040-0.322-0.040-0.623 0-1.146 0.427-1.292 1.004l-0.002 0.009c-1.357 5.48-5.99 9.307-11.267 9.307-4.727 0-8.963-3.123-10.75-7.667l2.56 1c0.145 0.059 0.314 0.093 0.49 0.093 0.737 0 1.335-0.598 1.335-1.335 0-0.561-0.346-1.041-0.836-1.238l-0.009-0.003-5.29-2.090c-0.144-0.058-0.311-0.092-0.486-0.092-0.617 0-1.137 0.42-1.288 0.989l-0.002 0.009-1.643 6.253c-0.028 0.102-0.044 0.218-0.044 0.339 0 0.618 0.421 1.138 0.991 1.289l0.009 0.002c0.1 0.027 0.215 0.043 0.333 0.043h0c0.618-0 1.137-0.421 1.288-0.991l0.002-0.009 0.583-2.223c2.407 4.963 7.31 8.297 12.757 8.297 6.507 0 12.203-4.667 13.857-11.333 0.025-0.096 0.039-0.206 0.039-0.319 0-0.622-0.426-1.145-1.003-1.292l-0.009-0.002z"></path>
</svg>
