<svg xmlns="http://www.w3.org/2000/svg" width="32" height="32"><path d="M5 32h-.007a.951.951 0 0 1-.445-.109l.005.003A1 1 0 0 1 4 31.001v-5H3a3 3 0 0 1-3-3v-20a3 3 0 0 1 3-3h26a3 3 0 0 1 3 3v8a1 1 0 0 1-2 0v-8a1 1 0 0 0-1-1H3a1 1 0 0 0-1 1v20a1 1 0 0 0 1 1h2a1 1 0 0 1 1 1v4l4.36-3.267a1 1 0 0 1 1.202 1.598l-.002.002-5.96 4.467a.992.992 0 0 1-.6.2zm10.197-.02l5-1c.202-.041.377-.138.513-.273l10-10.033c.08-.049.149-.105.21-.17a3.84 3.84 0 0 0-5.477-5.383L15.29 25.294a.996.996 0 0 0-.272.504l-.001.006-1 5a1 1 0 0 0 .98 1.197H15c.07 0 .138-.007.203-.021l-.007.001zM20 30zm6.86-13.467a1.843 1.843 0 0 1 2.734 2.469l.002-.003a.936.936 0 0 0-.16.13l-9.94 9.95-3.223.643.647-3.23zm2.63 2.57z"/></svg>