<svg version="1.1" xmlns="http://www.w3.org/2000/svg" width="32" height="32" viewBox="0 0 32 32">
<title>roles</title>
<path fill="#333" d="M10.667 16c-4.418 0-8-3.582-8-8s3.582-8 8-8c4.418 0 8 3.582 8 8v0c0 4.418-3.582 8-8 8v0zM10.667 2.667c-2.946 0-5.333 2.388-5.333 5.333s2.388 5.333 5.333 5.333c2.946 0 5.333-2.388 5.333-5.333v0c0-2.946-2.388-5.333-5.333-5.333v0zM15.333 30.667c0-0.736-0.597-1.333-1.333-1.333v0h-11.333c-0.005-0.015-0.008-0.033-0.008-0.052s0.003-0.036 0.008-0.053l-0 0.001c0.021-0.073 0.037-0.158 0.043-0.246l0-0.004c0.015-0.205 0.046-0.394 0.092-0.577l-0.005 0.023v-0.040c0.703-2.873 1.94-6.697 2.54-7.513 1.167-1.583 3.293-1.54 3.303-1.54h3.103c0.374 0.006 0.735 0.037 1.089 0.089l-0.045-0.006c0.058 0.009 0.124 0.014 0.192 0.014 0.737 0 1.334-0.597 1.334-1.334 0-0.669-0.493-1.223-1.135-1.319l-0.007-0.001c-0.434-0.068-0.936-0.108-1.447-0.11h-3.003c-0.41 0-3.603 0-5.52 2.63-1.287 1.757-2.867 8.037-2.977 8.437-0.071 0.266-0.127 0.584-0.158 0.909l-0.002 0.025c-0.041 0.179-0.064 0.385-0.064 0.596 0 0.646 0.217 1.241 0.582 1.717l-0.005-0.007c0.477 0.626 1.221 1.026 2.060 1.027h11.364c0.736 0 1.333-0.597 1.333-1.333v0zM23.333 32c-4.786 0-8.667-3.88-8.667-8.667s3.88-8.667 8.667-8.667c4.786 0 8.667 3.88 8.667 8.667v0c0 4.786-3.88 8.667-8.667 8.667v0zM23.333 17.333c-3.314 0-6 2.686-6 6s2.686 6 6 6c3.314 0 6-2.686 6-6v0c0-3.314-2.686-6-6-6v0zM22.763 26.667h0.1c0.54-0.042 1.011-0.303 1.331-0.693l0.003-0.003 0.040-0.050 2.823-3.783c0.181-0.226 0.29-0.515 0.29-0.83 0-0.736-0.597-1.333-1.333-1.333-0.451 0-0.849 0.224-1.091 0.566l-0.003 0.004-2.333 3.103-1.060-0.947c-0.235-0.209-0.546-0.336-0.887-0.336-0.738 0-1.336 0.598-1.336 1.336 0 0.397 0.173 0.754 0.448 0.999l0.001 0.001 1.7 1.51c0.33 0.284 0.762 0.457 1.235 0.457 0.008 0 0.016-0 0.023-0h-0.001z"></path>
</svg>
