<?xml version="1.0" encoding="utf-8"?>
<!-- Generator: Adobe Illustrator 20.1.0, SVG Export Plug-In . SVG Version: 6.00 Build 0)  -->
<svg version="1.1" id="Layer_1" xmlns="http://www.w3.org/2000/svg" xmlns:xlink="http://www.w3.org/1999/xlink" x="0px" y="0px"
	 viewBox="0 0 72 72" style="enable-background:new 0 0 72 72;" xml:space="preserve">
<g>
	<path d="M37.4,72H9.9c-1.9,0-3.2-0.5-4.1-1.5c-0.8-1-1.1-2.4-0.8-4.2c0-0.1,0.3-1.5,0.6-2.5C5.9,63,6.1,62,6.4,61
		c1.8-6.6,4.2-15.6,7.3-19c4.7-5.2,11.9-4.6,12.7-4.5h7.8c0.1,0,2.7,0,5.9,1.5c0.5,0.2,0.7,0.8,0.5,1.3c-0.2,0.5-0.8,0.7-1.3,0.5
		c-2.8-1.3-5.1-1.3-5.1-1.3h-7.9c0,0-0.1,0-0.1,0c-0.1,0-6.9-0.8-11,3.9c-2.8,3.1-5.2,11.8-6.9,18.2c-0.3,1-0.5,2-0.8,2.9
		c-0.3,1-0.6,2.3-0.6,2.3c-0.2,1.1-0.1,2,0.4,2.5C7.8,69.7,8.7,70,9.9,70h27.5c0.6,0,1,0.4,1,1S38,72,37.4,72z"/>
</g>
<g>
	<path d="M29.5,33.6c-9.3,0-16.8-7.5-16.8-16.8S20.2,0,29.5,0c4.6,0,8.8,1.8,12,5c3.1,3.2,4.8,7.4,4.8,11.8
		C46.3,26.1,38.8,33.6,29.5,33.6z M29.5,2c-8.2,0-14.8,6.6-14.8,14.8c0,8.2,6.6,14.8,14.8,14.8c8.2,0,14.8-6.6,14.8-14.8
		c0-3.9-1.4-7.6-4.2-10.4C37.3,3.6,33.5,2,29.5,2z"/>
</g>
<g>
	<path d="M50,63.2c-0.8,0-1.5-0.2-1.9-0.7l-4.8-4.3c-0.4-0.4-0.4-1-0.1-1.4c0.4-0.4,1-0.4,1.4-0.1l4.8,4.3c0.2,0.2,0.6,0.2,0.8-0.1
		l7.9-10.8c0.3-0.4,1-0.5,1.4-0.2c0.4,0.3,0.5,1,0.2,1.4l-7.9,10.8C51.4,62.8,50.7,63.2,50,63.2z"/>
</g>
<g>
	<path d="M51.4,72c-8.6,0-15.6-7-15.6-15.6c0-8.6,7-15.6,15.6-15.6c8.6,0,15.6,7,15.6,15.6C67,65,60,72,51.4,72z M51.4,42.8
		c-7.5,0-13.6,6.1-13.6,13.6S43.9,70,51.4,70S65,63.9,65,56.4S58.9,42.8,51.4,42.8z"/>
</g>
</svg>
