<svg xmlns="http://www.w3.org/2000/svg" width="32" height="32"><path d="M25 4h-5a4 4 0 0 0-8 0H7a3 3 0 0 0-3 3v22a3 3 0 0 0 3 3h18a3 3 0 0 0 3-3V7a3 3 0 0 0-3-3zM14 4a2 2 0 1 1 4 0v4h-4zM9.227 30c.748-2.74 3.001-4.803 5.795-5.261l.042-.006a6.73 6.73 0 0 1 5.096 1.345l-.015-.012a7.393 7.393 0 0 1 2.614 3.882l.012.052zM26 29a1 1 0 0 1-1 1h-.16a9.45 9.45 0 0 0-3.461-5.494l-.022-.016a8.699 8.699 0 0 0-5.348-1.823 8.77 8.77 0 0 0-1.273.092l.047-.006C11.03 23.283 8 26.206 7.163 30H7a1 1 0 0 1-1-1V7a1 1 0 0 1 1-1h5v2a2 2 0 0 0 2 2h4a2 2 0 0 0 2-2V6h5a1 1 0 0 1 1 1zm-10-6.333a5.333 5.333 0 1 1 5.333-5.333A5.333 5.333 0 0 1 16 22.667zM16 14a3.333 3.333 0 1 0 3.333 3.333A3.333 3.333 0 0 0 16 14z"/></svg>