<svg xmlns="http://www.w3.org/2000/svg" width="32" height="32"><path d="M6 32a6 6 0 1 1 6-6 6 6 0 0 1-6 6zm0-10a4 4 0 1 0 4 4 4 4 0 0 0-4-4zm15.123 9.333c.553-1.562.873-3.364.873-5.24s-.32-3.678-.907-5.353l.035.113c-2.248-6.366-8.214-10.846-15.226-10.846-1.873 0-3.672.32-5.344.907l.113-.035a1.004 1.004 0 1 0 .674 1.892l-.007.002a13.836 13.836 0 0 1 4.575-.763c6.136 0 11.356 3.919 13.294 9.391l.03.099c.483 1.367.761 2.942.761 4.583s-.279 3.217-.792 4.683l.03-.099a1.002 1.002 0 0 0 .609 1.272l.007.002c.098.034.21.053.327.053h.006a1 1 0 0 0 .938-.653l.002-.007zm10.36-.13c.33-1.554.518-3.34.518-5.17 0-9.021-4.588-16.97-11.558-21.641l-.094-.059C16.32 1.613 11.355-.008 6.012-.008 4.167-.008 2.366.185.63.553l.169-.03a1.003 1.003 0 1 0 .407 1.963l-.007.001a23.222 23.222 0 0 1 4.82-.492c4.93 0 9.51 1.496 13.311 4.06l-.085-.054c6.519 4.37 10.753 11.709 10.753 20.036 0 1.686-.174 3.331-.504 4.92l.027-.156a1.003 1.003 0 0 0 .777 1.175l.006.001a1.003 1.003 0 0 0 1.175-.777l.001-.006z"/></svg>