<?xml version="1.0" encoding="utf-8"?>
<!-- Generator: Adobe Illustrator 20.1.0, SVG Export Plug-In . SVG Version: 6.00 Build 0)  -->
<svg version="1.1" id="Layer_4" xmlns="http://www.w3.org/2000/svg" xmlns:xlink="http://www.w3.org/1999/xlink" x="0px" y="0px"
	 viewBox="0 0 72 72" style="enable-background:new 0 0 72 72;" xml:space="preserve">
<g>
	<ellipse cx="9.5" cy="63.2" rx="8.8" ry="8.8"/>
	<g>
		<g>
			<path d="M44.7,69.7c-0.6,0-1-0.4-1-1c0-16.4-6.6-28.1-19.7-34.7c-9.9-4.9-19.9-5-20-5c-0.6,0-1-0.4-1-1c0-0.6,0.4-1,1-1
				c0.4,0,41.7,0.5,41.7,41.7C45.7,69.2,45.3,69.7,44.7,69.7z"/>
		</g>
		<g>
			<path d="M57.6,69.7c-0.6,0-1-0.4-1-1c0-21.7-8.8-37.2-26.2-45.9c-13-6.5-26.3-6.6-26.4-6.6c-0.6,0-1-0.4-1-1c0-0.6,0.4-1,1-1
				c0.6,0,13.8,0.1,27.2,6.8c12.5,6.2,27.4,19.5,27.4,47.7C58.6,69.2,58.1,69.7,57.6,69.7z"/>
		</g>
		<g>
			<path d="M70.5,69.7c-0.6,0-1-0.4-1-1c0-27.7-11-47.3-32.7-58.3C20.5,2.1,4.1,2,4,2C3.4,2,3,1.6,3,1s0.4-1,1-1
				C4.1,0,21,0.1,37.7,8.6c15.4,7.8,33.8,24.6,33.8,60.1C71.5,69.2,71,69.7,70.5,69.7z"/>
		</g>
		<g>
			<path d="M31.8,69.7c-0.6,0-1-0.4-1-1c0-26.7-25.8-27-26.8-27c-0.6,0-1-0.4-1-1s0.4-1,1-1c0.3,0,28.8,0.3,28.8,29
				C32.8,69.2,32.4,69.7,31.8,69.7z"/>
		</g>
	</g>
</g>
</svg>
