<svg version="1.1" xmlns="http://www.w3.org/2000/svg" width="32" height="32" viewBox="0 0 32 32">
<title>rss</title>
<path fill="#333" d="M8.023 27.333c0 1.841-1.492 3.333-3.333 3.333s-3.333-1.492-3.333-3.333c0-1.841 1.492-3.333 3.333-3.333v0c1.841 0 3.333 1.492 3.333 3.333v0zM30.667 29.333c0-8.257-2.46-14.903-7.333-19.75-8.183-8.18-20.153-8.25-20.667-8.25-0.736 0-1.333 0.597-1.333 1.333s0.597 1.333 1.333 1.333v0c4.697 0.183 9.080 1.348 13.007 3.294l-0.187-0.084c8.303 4.18 12.513 11.623 12.513 22.123 0 0.736 0.597 1.333 1.333 1.333v0c0.736 0 1.333-0.597 1.333-1.333v0zM25.363 29.333c0-11.7-6.203-17.26-11.407-19.86-3.285-1.643-7.139-2.664-11.216-2.805l-0.047-0.001c-0.736 0-1.333 0.597-1.333 1.333s0.597 1.333 1.333 1.333v0c3.722 0.155 7.192 1.086 10.301 2.633l-0.148-0.067c6.533 3.303 9.85 9.167 9.85 17.433 0 0.736 0.597 1.333 1.333 1.333s1.333-0.597 1.333-1.333v0zM20.030 29.307c0-8.947-4.753-13.2-8.74-15.193-2.508-1.254-5.449-2.032-8.561-2.139l-0.036-0.001c-0.736 0-1.333 0.597-1.333 1.333s0.597 1.333 1.333 1.333v0c2.714 0.108 5.246 0.782 7.515 1.905l-0.109-0.049c4.817 2.41 7.263 6.72 7.263 12.81 0 0.736 0.597 1.333 1.333 1.333s1.333-0.597 1.333-1.333v0zM14.697 29.333c0-3.88-1.143-6.91-3.4-9-3.54-3.31-8.487-3-8.697-3-0.698 0.049-1.245 0.627-1.245 1.333 0 0.738 0.598 1.336 1.336 1.336 0.032 0 0.064-0.001 0.096-0.003l-0.004 0c0.043 0 4.037-0.23 6.713 2.28 1.667 1.577 2.533 3.947 2.533 7.047 0 0.736 0.597 1.333 1.333 1.333s1.333-0.597 1.333-1.333v0z"></path>
</svg>
