<svg xmlns="http://www.w3.org/2000/svg" width="32" height="32"><path d="M23 32c-4.971 0-9-4.029-9-9s4.029-9 9-9a9 9 0 0 1 9 9 9 9 0 0 1-9 9zm0-16a7 7 0 1 0 7 7 7 7 0 0 0-7-7zm4.833 7.553l.037-.07a.844.844 0 0 0 .052-.095l.002-.005c0-.033.02-.067.03-.1a.56.56 0 0 0 .025-.081l.001-.006a.932.932 0 0 0-.001-.4l.001.006a.855.855 0 0 0-.029-.093l.002.006c0-.033 0-.067-.03-.1a.709.709 0 0 0-.055-.103l.002.003-.037-.07a1.134 1.134 0 0 0-.127-.153l-2.666-2.666a1 1 0 0 0-1.413 1.414l-.001-.001.96.96h-5.587a1 1 0 0 0 0 2h5.587l-.96.96a1 1 0 0 0 0 1.414 1 1 0 0 0 1.414 0l2.667-2.667c.045-.046.087-.096.124-.15l.002-.004zM24.023 0H8.109C6.926 0 5.856.48 5.082 1.257l-3.827 3.83A4.248 4.248 0 0 0-.002 8.108v15.916a2.646 2.646 0 0 0 2.643 2.643h8.454a1 1 0 0 0 0-2H6.998v-8.713a.637.637 0 0 1 .668-.62h-.001 7a1 1 0 0 0 0-2H7.638a2.64 2.64 0 0 0-2.64 2.619v8.714H2.641a.646.646 0 0 1-.643-.643V8.12v-.013c0-.628.255-1.196.667-1.607l3.833-3.833A2.296 2.296 0 0 1 8.114 2h.107v5.577a2.647 2.647 0 0 0 2.643 2.647h8.224a2.647 2.647 0 0 0 2.643-2.647V2h2.29a.646.646 0 0 1 .643.643V11a1 1 0 0 0 2 0V2.643A2.646 2.646 0 0 0 24.021 0zm-4.29 7.577a.647.647 0 0 1-.643.647h-8.224a.643.643 0 0 1-.643-.643v-5.58h9.51z"/></svg>