<svg version="1.1" xmlns="http://www.w3.org/2000/svg" width="32" height="32" viewBox="0 0 32 32">
<title>save</title>
<path fill="#333" d="M31.37 5.497l-4.96-4.89c-0.38-0.375-0.902-0.607-1.478-0.607-0.001 0-0.002 0-0.002 0h-22.047c-1.592 0.002-2.881 1.292-2.883 2.883v26.234c0.002 1.592 1.292 2.881 2.883 2.883h26.233c1.592-0.002 2.881-1.292 2.883-2.883v-22.117c-0.001-0.588-0.242-1.12-0.63-1.503l-0-0zM10.667 2.667h10.667v6.333c0 0.017 0 0.047-0.060 0.103-0.14 0.119-0.323 0.191-0.522 0.191-0.012 0-0.024-0-0.036-0.001l0.002 0h-0.050l-9.333 0.040c-0.38 0-0.667-0.217-0.667-0.333zM24.667 29.333h-17.333v-10.52c0.019-0.085 0.093-0.148 0.183-0.148 0.007 0 0.015 0 0.022 0.001l-0.001-0h16.907c0.006-0.001 0.013-0.001 0.020-0.001 0.1 0 0.184 0.072 0.203 0.166l0 0.001zM29.333 29.117c0 0.12-0.097 0.217-0.217 0.217v0h-1.783v-10.5c-0.017-1.568-1.292-2.833-2.863-2.833-0.009 0-0.019 0-0.028 0h-16.905c-0.007-0-0.015-0-0.024-0-1.561 0-2.828 1.256-2.846 2.812l-0 0.002v10.52h-1.783c-0.12 0-0.217-0.097-0.217-0.217v0-26.233c0-0.12 0.097-0.217 0.217-0.217v0h5.117v6.333c0 1.65 1.497 3 3.333 3l9.333-0.033c0.038 0.002 0.082 0.002 0.126 0.002 0.911 0 1.738-0.358 2.349-0.94l-0.001 0.001c0.53-0.51 0.86-1.225 0.86-2.018 0-0.004 0-0.009-0-0.013v0.001-6.333h0.7l4.633 4.567zM20 8.683h-2.667v-5.333h2.667z"></path>
</svg>
