<?xml version="1.0" encoding="utf-8"?>
<!-- Generator: Adobe Illustrator 20.1.0, SVG Export Plug-In . SVG Version: 6.00 Build 0)  -->
<svg version="1.1" id="Layer_2" xmlns="http://www.w3.org/2000/svg" xmlns:xlink="http://www.w3.org/1999/xlink" x="0px" y="0px"
	 viewBox="0 0 72 72" style="enable-background:new 0 0 72 72;" xml:space="preserve">
<g>
	<path d="M67,72H5c-2.8,0-5-2.2-5-5V5c0-2.8,2.2-5,5-5h52.6L72,14.5V67C72,69.8,69.8,72,67,72z M5,2C3.3,2,2,3.3,2,5v62
		c0,1.7,1.3,3,3,3h62c1.7,0,3-1.3,3-3V15.4L56.7,2H5z"/>
</g>
<g>
	<path d="M49.9,25.8H22.1c-2.8,0-5-2.2-5-5V0h37.8v20.8C54.9,23.6,52.7,25.8,49.9,25.8z M19.1,2v18.8c0,1.7,1.3,3,3,3h27.8
		c1.7,0,3-1.3,3-3V2H19.1z"/>
</g>
<g>
	<path d="M61.3,72H10.7V41.6c0-2.8,2.2-5,5-5h40.7c2.8,0,5,2.2,5,5V72z M12.7,70h46.7V41.6c0-1.7-1.3-3-3-3H15.7c-1.7,0-3,1.3-3,3
		V70z"/>
</g>
<rect x="42.5" y="6.5" width="6.5" height="12.9"/>
</svg>
