<svg xmlns="http://www.w3.org/2000/svg" width="32" height="32"><path d="M29 0H9.645A4.962 4.962 0 0 0 6.12 1.463L1.453 6.13A4.947 4.947 0 0 0 0 9.639v.029-.002 19.333a3 3 0 0 0 3 3h26a3 3 0 0 0 3-3v-26a3 3 0 0 0-3-3zM12 2h12v7a1 1 0 0 1-1 1H13a1 1 0 0 1-1-1zM8 30V19a1 1 0 0 1 1-1h14a1 1 0 0 1 1 1v11zm22-1a1 1 0 0 1-1 1h-3V19a3 3 0 0 0-3-3H9a3 3 0 0 0-3 3v11H3a1 1 0 0 1-1-1V9.667v-.006c0-.826.336-1.574.88-2.114L7.547 2.88A2.97 2.97 0 0 1 9.661 2H10v7a3 3 0 0 0 3 3h10a3 3 0 0 0 3-3V2h3a1 1 0 0 1 1 1z"/></svg>