<svg xmlns="http://www.w3.org/2000/svg" width="32" height="32"><path d="M31 4h-7V1a1 1 0 0 0-2 0v3H10V1a1 1 0 0 0-2 0v3H1a1 1 0 0 0-1 1v26a1 1 0 0 0 1 1h30a1 1 0 0 0 1-1V5a1 1 0 0 0-1-1zM8 6v2.333a1 1 0 0 0 2 0V6h12v2.333a1 1 0 0 0 2 0V6h6v6H2V6zM2 30V14h28v16zm24.333-4.667a1.667 1.667 0 1 1-1.667-1.667c.92 0 1.667.746 1.667 1.667zM16 23.667a1.667 1.667 0 1 0 1.667 1.667c0-.92-.746-1.667-1.667-1.667zm-8.667 0A1.667 1.667 0 1 0 9 25.334c0-.92-.746-1.667-1.667-1.667zM24.667 17a1.667 1.667 0 1 0 1.667 1.667c0-.92-.746-1.667-1.667-1.667zM16 17a1.667 1.667 0 1 0 1.667 1.667c0-.92-.746-1.667-1.667-1.667zm-8.667 0A1.667 1.667 0 1 0 9 18.667C9 17.747 8.254 17 7.333 17z"/></svg>