<svg xmlns="http://www.w3.org/2000/svg" width="32" height="32"><path d="M31.707 30.293l-8.833-8.837a12.78 12.78 0 0 0 3.073-8.337C25.947 6.024 20.195.272 13.1.272S.253 6.024.253 13.119 6.005 25.966 13.1 25.966c3.201 0 6.128-1.171 8.377-3.107l-.017.014 8.833 8.833a1 1 0 0 0 1.414 0 1 1 0 0 0 0-1.414zM17.3 23.12a10.817 10.817 0 0 1-4.291.872c-6.075 0-11-4.925-11-11 0-1.479.292-2.89.821-4.178l-.027.073c1.663-4.073 5.593-6.89 10.181-6.89 1.488 0 2.908.297 4.202.834l-.073-.027c4.068 1.675 6.88 5.609 6.88 10.199 0 1.481-.293 2.894-.824 4.184l.027-.073c-1.107 2.723-3.201 4.852-5.826 5.98l-.071.027z"/></svg>