<svg version="1.1" xmlns="http://www.w3.org/2000/svg" width="32" height="32" viewBox="0 0 32 32">
<title>search</title>
<path fill="#333" d="M31.61 29.723l-9.093-9.093c1.754-2.156 2.816-4.936 2.816-7.964 0-6.996-5.671-12.667-12.667-12.667s-12.667 5.671-12.667 12.667c0 6.996 5.671 12.667 12.667 12.667 3.028 0 5.808-1.062 7.987-2.835l-0.023 0.018 9.093 9.093c0.241 0.241 0.575 0.391 0.943 0.391 0.737 0 1.334-0.597 1.334-1.334 0-0.368-0.149-0.702-0.391-0.943v0zM2.667 12.667c0-0.001 0-0.002 0-0.004 0-5.523 4.477-10 10-10s10 4.477 10 10c0 2.707-1.075 5.162-2.822 6.963l0.002-0.003c-0.040 0.033-0.083 0.063-0.123 0.1-0.034 0.037-0.067 0.077-0.097 0.12l-0.003 0.004c-1.798 1.742-4.252 2.816-6.957 2.816-5.522 0-9.998-4.475-10-9.996v-0z"></path>
</svg>
