<?xml version="1.0" encoding="utf-8"?>
<!-- Generator: Adobe Illustrator 20.1.0, SVG Export Plug-In . SVG Version: 6.00 Build 0)  -->
<svg version="1.1" id="Layer_2" xmlns="http://www.w3.org/2000/svg" xmlns:xlink="http://www.w3.org/1999/xlink" x="0px" y="0px"
	 viewBox="0 0 72 72" style="enable-background:new 0 0 72 72;" xml:space="preserve">
<g>
	<g>
		<path d="M28.6,57C12.9,57,0.1,44.2,0.1,28.5S12.9,0,28.6,0s28.5,12.8,28.5,28.5S44.3,57,28.6,57z M28.6,2C14,2,2.1,13.9,2.1,28.5
			S14,55,28.6,55s26.5-11.9,26.5-26.5S43.2,2,28.6,2z"/>
	</g>
	<g>
		<path d="M70.9,72c-0.3,0-0.5-0.1-0.7-0.3L47.4,48.6c-0.4-0.4-0.4-1,0-1.4c0.4-0.4,1-0.4,1.4,0l22.8,23.1c0.4,0.4,0.4,1,0,1.4
			C71.4,71.9,71.2,72,70.9,72z"/>
	</g>
</g>
</svg>
