<svg version="1.1" xmlns="http://www.w3.org/2000/svg" width="32" height="32" viewBox="0 0 32 32">
<title>sections</title>
<path fill="#333" d="M31.953 9.747l0.047-5.553v-0.177c0-0.002 0-0.005 0-0.008 0-0.32-0.115-0.613-0.305-0.84l0.002 0.002c-0.617-0.903-2.223-1.503-5.117-1.963-2.995-0.447-6.451-0.703-9.967-0.703-0.215 0-0.431 0.001-0.646 0.003l0.033-0c-0.182-0.002-0.397-0.003-0.613-0.003-3.516 0-6.972 0.255-10.351 0.749l0.384-0.046c-3.85 0.613-5.42 1.46-5.42 2.967v5.527c0 0.56 0.345 1.039 0.834 1.237l0.009 0.003c0.073 0.030 0.353 0.137 0.82 0.293-1.157 0.5-1.667 1.14-1.667 2h0.003v5.723c0 0.567 0.355 1.051 0.854 1.244l0.009 0.003c0.073 0.030 0.377 0.14 0.88 0.3-1.217 0.497-1.743 1.14-1.743 2.003v5.513c0 0.001 0 0.001 0 0.002 0 0.571 0.359 1.059 0.864 1.248l0.009 0.003c0.367 0.133 6.26 2.233 14.97 2.233 0.006 0 0.012 0 0.019 0 5.395 0 10.605-0.794 15.519-2.272l-0.381 0.098c0.555-0.167 0.952-0.672 0.957-1.27v-0l0.043-5.397v-0.17c0-0.867-0.537-1.51-1.77-2 0.257-0.073 0.517-0.147 0.777-0.227 0.55-0.171 0.944-0.674 0.947-1.27v-0l0.047-5.733v-0.113c-0.030-0.813-0.547-1.433-1.667-1.92l0.69-0.233c0.538-0.175 0.922-0.668 0.93-1.252v-0.001zM2.667 8.747v-2.203c0.755 0.228 1.685 0.435 2.636 0.579l0.117 0.015c2.986 0.447 6.432 0.703 9.938 0.703 0.226 0 0.451-0.001 0.677-0.003l-0.034 0c0.191 0.002 0.417 0.003 0.642 0.003 3.506 0 6.951-0.255 10.32-0.749l-0.383 0.046c1.061-0.158 1.984-0.364 2.883-0.628l-0.149 0.038-0.020 2.2c-12.823 3.767-23.603 0.96-26.627 0zM16 3.173c5.77 0 9.783 0.507 11.897 1-2.113 0.493-6.127 1-11.897 1s-9.783-0.507-11.897-1c2.113-0.507 6.127-1 11.897-1zM2.667 18v-2.423c0.752 0.219 1.684 0.419 2.636 0.559l0.121 0.015c2.958 0.427 6.374 0.67 9.847 0.67 0.256 0 0.512-0.001 0.768-0.004l-0.039 0c0.217 0.002 0.473 0.004 0.729 0.004 3.473 0 6.889-0.244 10.232-0.715l-0.385 0.044c1.066-0.153 1.991-0.351 2.893-0.604l-0.157 0.038-0.020 2.417c-12.81 3.593-23.577 0.917-26.627 0zM2.667 27.047v-2.217c0.75 0.212 1.685 0.408 2.639 0.545l0.125 0.015c2.997 0.426 6.458 0.669 9.977 0.669 0.209 0 0.417-0.001 0.625-0.003l-0.032 0c0.176 0.002 0.385 0.002 0.593 0.002 3.518 0 6.98-0.243 10.368-0.714l-0.392 0.045c1.070-0.15 1.999-0.344 2.905-0.591l-0.162 0.038v2.207c-12.82 3.487-23.58 0.903-26.647 0.003zM25.417 22.153c0.89 0.117 1.6 0.237 2.16 0.353-2.193 0.447-6.097 0.88-11.577 0.88s-9.383-0.433-11.577-0.88c0.523-0.11 1.18-0.223 2-0.333 0.303-0.042 0.568-0.182 0.766-0.386l0-0c2.583 0.46 5.556 0.723 8.59 0.723 0.027 0 0.054-0 0.081-0h-0.004c3.106-0.001 6.148-0.271 9.104-0.789l-0.314 0.046c0.2 0.205 0.466 0.345 0.763 0.386l0.007 0.001zM25.417 12.82c1 0.133 1.75 0.273 2.333 0.403-2.16 0.473-6.12 0.943-11.75 0.943s-9.59-0.47-11.743-0.94c0.55-0.123 1.257-0.253 2.163-0.38 0.245-0.035 0.461-0.134 0.639-0.279l-0.002 0.002c2.629 0.496 5.653 0.78 8.744 0.78 0.015 0 0.030 0 0.045-0h-0.002c3.157-0.001 6.245-0.292 9.241-0.848l-0.311 0.048c0.175 0.142 0.392 0.239 0.63 0.273l0.007 0.001z"></path>
</svg>
