<?xml version="1.0" encoding="utf-8"?>
<!-- Generator: Adobe Illustrator 20.1.0, SVG Export Plug-In . SVG Version: 6.00 Build 0)  -->
<svg version="1.1" id="Layer_6" xmlns="http://www.w3.org/2000/svg" xmlns:xlink="http://www.w3.org/1999/xlink" x="0px" y="0px"
	 viewBox="0 0 72 72" style="enable-background:new 0 0 72 72;" xml:space="preserve">
<g>
	<g>
		<path d="M36.1,28.2c-4.5,0-9-0.3-17.8-1l-0.4,0c-12-0.9-17.3-4.4-17.5-4.6C0.2,22.4,0,22.1,0,21.8V9.1c0-0.6,0.4-1,1-1s1,0.4,1,1
			v12.1c1.4,0.8,6.5,3.2,16.1,4l0.4,0c17.7,1.4,17.7,1.4,35.4,0c11.7-0.9,15.3-3.4,16-4L70,9.1c0-0.6,0.5-1,1-1c0.6,0,1,0.5,1,1
			l-0.1,12.5c0,0.2-0.1,0.4-0.2,0.5c-0.3,0.4-3,3.9-17.7,5.1C45.1,27.9,40.6,28.2,36.1,28.2z"/>
	</g>
	<g>
		<path d="M36,16C23.5,16,0,14.6,0,9.1s23.5-6.9,36-6.9c12.5,0,36,1.4,36,6.9S48.5,16,36,16z M36,4.2C12.5,4.2,2,7.8,2,9.1
			S12.5,14,36,14c23.5,0,34-3.6,34-4.9S59.5,4.2,36,4.2z"/>
	</g>
	<g>
		<g>
			<path d="M34.5,49.1c-25.6,0-33.7-5.2-34.1-5.4C0.2,43.4,0,43.1,0,42.8V30.9c0-0.3,0-1,0.5-1.8c1.4-2.1,5.4-3.6,11.9-4.4
				c0.5-0.1,1,0.3,1.1,0.9c0.1,0.5-0.3,1-0.9,1.1C2.2,28,2,30.6,2,30.6c0,0.1,0,0.1,0,0.2v11.4c2,1,11.3,5,34,4.8
				c27.8-0.2,33.1-4.1,33.9-4.8L70,30.3c-0.3-0.5-2.3-2.7-10.7-3.6c-0.5-0.1-0.9-0.6-0.9-1.1c0.1-0.5,0.5-1,1.1-0.9
				c10.8,1.2,12.3,4.7,12.4,5.1c0,0.1,0.1,0.2,0,0.3l-0.1,12.5c0,0.1,0,0.3-0.1,0.4c-0.5,1-4.4,5.8-35.8,6
				C35.5,49.1,35,49.1,34.5,49.1z"/>
		</g>
		<g>
			<path d="M33.4,37.1C2.2,37.1,0.1,31.4,0,30.2c0-0.5,0.4-1,0.9-1.1c0.5,0,1,0.3,1.1,0.8c0.1,0.3,2.9,5.4,34,5.1
				c33.6-0.3,34-4.9,34-4.9c0-0.6,0.4-1,1-1s1,0.4,1,1c0,4.4-12.1,6.7-36,6.9C35.1,37.1,34.2,37.1,33.4,37.1z M2,30C2,30,2,30,2,30
				C2,30,2,30,2,30z M2,30C2,30,2,30,2,30C2,30,2,30,2,30z"/>
		</g>
	</g>
	<g>
		<g>
			<path d="M34.5,69.8c-25.6,0-33.7-5.2-34.1-5.4C0.2,64.2,0,63.9,0,63.6V51.7c0-0.3,0-1,0.5-1.8c1.4-2.1,5.4-3.5,11.9-4.4
				c0.5-0.1,1,0.3,1.1,0.9c0.1,0.5-0.3,1-0.9,1.1C2.2,48.8,2,51.4,2,51.4c0,0.1,0,0.1,0,0.2V63c2,1,11.3,5,34,4.8
				c27.3-0.2,33-4.1,33.9-4.9L70,51.1c-0.3-0.5-2.3-2.7-10.7-3.6c-0.5-0.1-0.9-0.6-0.9-1.1c0.1-0.5,0.5-1,1.1-0.9
				c10.8,1.2,12.3,4.7,12.4,5.1c0,0.1,0.1,0.2,0,0.3l-0.1,12.5c0,0.1,0,0.3-0.1,0.4c-0.5,1-4.4,5.8-35.8,6
				C35.5,69.8,35,69.8,34.5,69.8z"/>
		</g>
		<g>
			<path d="M33.4,57.8C2.2,57.8,0.1,52.1,0,51c0-0.6,0.4-1,0.9-1.1c0.5-0.1,1,0.3,1.1,0.8c0.1,0.3,2.9,5.4,34,5.1
				c33.6-0.3,34-4.9,34-4.9c0-0.6,0.4-1,1-1s1,0.4,1,1c0,4.4-12.1,6.7-36,6.9C35.1,57.8,34.2,57.8,33.4,57.8z M2,50.8
				C2,50.8,2,50.8,2,50.8C2,50.8,2,50.8,2,50.8z M2,50.8C2,50.8,2,50.8,2,50.8C2,50.8,2,50.8,2,50.8z M2,50.7L2,50.7L2,50.7z"/>
		</g>
	</g>
	<g>
		<path d="M1.9,23.3c-0.6,0-1-0.4-1-1V10.5c0-0.6,0.4-1,1-1s1,0.4,1,1v11.9C2.9,22.9,2.5,23.3,1.9,23.3z"/>
	</g>
	<g>
		<path d="M1.9,44.3c-0.6,0-1-0.4-1-1V31.5c0-0.6,0.4-1,1-1s1,0.4,1,1v11.9C2.9,43.9,2.5,44.3,1.9,44.3z"/>
	</g>
	<g>
		<path d="M1.9,64.9c-0.6,0-1-0.4-1-1V52.5c0-0.6,0.4-1,1-1s1,0.4,1,1v11.4C2.9,64.4,2.5,64.9,1.9,64.9z"/>
	</g>
	<g>
		<path d="M69.9,23.3c-0.6,0-1-0.4-1-1V11.5c0-0.6,0.4-1,1-1s1,0.4,1,1v10.9C70.9,22.9,70.5,23.3,69.9,23.3z"/>
	</g>
	<g>
		<path d="M69.9,44.3c-0.6,0-1-0.4-1-1V32.1c0-0.6,0.4-1,1-1s1,0.4,1,1v11.2C70.9,43.9,70.5,44.3,69.9,44.3z"/>
	</g>
	<g>
		<path d="M69.9,64.9c-0.6,0-1-0.4-1-1V53c0-0.6,0.4-1,1-1s1,0.4,1,1v10.9C70.9,64.4,70.5,64.9,69.9,64.9z"/>
	</g>
</g>
</svg>
