<svg xmlns="http://www.w3.org/2000/svg" width="32" height="32"><path d="M31.923 6.287C31.156 2.667 24.57 0 16 0S.843 2.667.077 6.287A.957.957 0 0 0 0 6.664v18.203C0 28.934 6.88 32 16 32s16-3.067 16-7.133v-18.2-.003a.966.966 0 0 0-.079-.384l.002.006zM30 15.667v.2C30 18.294 24.25 21 16 21S2 18.293 2 15.867V10.49C4.667 12.62 9.823 14 16 14s11.333-1.38 14-3.51zM16 2c8.25 0 14 2.637 14 5s-5.75 5-14 5S2 9.363 2 7s5.75-5 14-5zm0 28c-8.25 0-14-2.707-14-5.133v-5.443c2.667 2.17 7.823 3.577 14 3.577s11.333-1.407 14-3.577v5.443C30 27.294 24.25 30 16 30z"/></svg>