<svg version="1.1" xmlns="http://www.w3.org/2000/svg" width="32" height="32" viewBox="0 0 32 32">
<title>send-review-new-C1</title>
<path fill="#333" d="M5.963 27.39c-0.736 0-1.333-0.597-1.333-1.333v0-6.033l-1.963-0.023c-1.468-0.035-2.647-1.223-2.667-2.691l-0-0.002v-14.613c0.033-1.475 1.221-2.662 2.694-2.693l0.003-0h21.823c1.427 0 2.48 1.133 2.48 2.693v14.62c0 1.537-1.113 2.687-2.57 2.687h-9.513l-8.073 7.060c-0.233 0.205-0.541 0.33-0.878 0.33-0.001 0-0.001 0-0.002 0h0zM2.667 2.723v14.59c0.010 0.016 0.027 0.026 0.047 0.027h0l3.263 0.030c0.736 0 1.333 0.597 1.333 1.333v0 4.42l6.23-5.457c0.233-0.206 0.54-0.332 0.876-0.333h9.917v-14.667h-21.567c-0.040 0.007-0.075 0.027-0.1 0.056l-0 0zM24.52 2.667v0 0zM26.037 32c-0.005 0-0.012 0-0.018 0-0.339 0-0.648-0.126-0.883-0.335l0.001 0.001-7.667-7.020-2.787 0.020c-0.736 0-1.333-0.597-1.333-1.333s0.597-1.333 1.333-1.333v0l3.3-0.043c0.014-0.001 0.031-0.001 0.047-0.001 0.336 0 0.642 0.127 0.874 0.335l-0.001-0.001 5.833 5.333v-4.333c0-0.736 0.597-1.333 1.333-1.333v0l3.287-0.033s0.023-0.020 0.023-0.027v-14.203c-0.699-0.048-1.248-0.626-1.248-1.333 0-0.738 0.598-1.336 1.336-1.336 0.031 0 0.062 0.001 0.092 0.003l-0.004-0h0.217c1.467 0 2.273 0.803 2.273 2.26v14.637c-0.016 1.461-1.181 2.644-2.632 2.69l-0.004 0-2 0.020v6.033c0 0.736-0.597 1.333-1.333 1.333v0zM29.883 7.713v0zM19.333 8.467l-3.593-3.433c-0.239-0.228-0.563-0.368-0.92-0.368-0.737 0-1.334 0.597-1.334 1.334 0 0.38 0.159 0.723 0.414 0.966l0.001 0 1.787 1.7h-7.353c-0.736 0-1.333 0.597-1.333 1.333s0.597 1.333 1.333 1.333v0h7.267l-1.837 1.667c-0.273 0.248-0.444 0.604-0.444 1 0 0.744 0.603 1.348 1.348 1.348 0.348 0 0.665-0.132 0.904-0.349l-0.001 0.001 3.737-3.433c0.429-0.386 0.698-0.942 0.698-1.562 0-0.607-0.258-1.154-0.67-1.537l-0.001-0.001z"></path>
</svg>
