<svg xmlns="http://www.w3.org/2000/svg" width="32" height="32"><path d="M5 32h-.007a.953.953 0 0 1-.382-.079l.006.002A1.001 1.001 0 0 1 4 31v-5H3a3 3 0 0 1-3-3V7a3 3 0 0 1 3-3h11a1 1 0 0 1 0 2H3a1 1 0 0 0-1 1v16a1 1 0 0 0 1 1h2a1 1 0 0 1 1 1v3.587l4.293-4.293a.997.997 0 0 1 .707-.293h14a1 1 0 0 0 1-1v-6a1 1 0 0 1 2 0v6a3 3 0 0 1-3 3H11.413l-5.707 5.707a.997.997 0 0 1-.707.293zM31.833 5.553l.037-.07a.844.844 0 0 0 .052-.095l.002-.005c0-.033.02-.067.03-.1a.56.56 0 0 0 .025-.081l.001-.006a.932.932 0 0 0-.001-.4l.001.006a.855.855 0 0 0-.029-.093l.002.006c0-.033 0-.067-.03-.1a.709.709 0 0 0-.055-.103l.002.003-.037-.07a1.134 1.134 0 0 0-.127-.153l-4-4a1 1 0 0 0-1.413 1.414l-.001-.001 2.293 2.293h-3.587a9 9 0 0 0-9 9 1 1 0 0 0 2 0 7 7 0 0 1 7-7h3.587l-2.293 2.293a1 1 0 0 0 0 1.414 1 1 0 0 0 1.414 0l4-4c.045-.046.087-.096.124-.15l.002-.004z"/></svg>