<svg xmlns="http://www.w3.org/2000/svg" viewBox="0 0 96 96"><path d="M28 57a4 4 0 0 1 0-8 4 4 0 1 1 0 8zm-8-4a4 4 0 0 0-4-4 4 4 0 1 0 4 4zm0-37a4 4 0 0 0-4-4 4 4 0 1 0 4 4zm12 0a4 4 0 0 0-4-4 4 4 0 1 0 4 4zm20 16v5h40a4 4 0 0 1 4 4v24a4 4 0 0 1-4 4H52v3.7a12 12 0 0 1 7.3 7.3h36.34v8H59.3a12 12 0 0 1-22.6 0H.18v-8H36.7a12 12 0 0 1 7.3-7.3V69H4a4 4 0 0 1-4-4V41a4 4 0 0 1 4-4h40v-5H4a4 4 0 0 1-4-4V4a4 4 0 0 1 4-4h88a4 4 0 0 1 4 4v24a4 4 0 0 1-4 4zm0 52a4 4 0 1 0-4 4 4 4 0 0 0 4-4zM8 45v16h80V45zm0-21h80V8H8z" fill="#333"/></svg>