<svg xmlns="http://www.w3.org/2000/svg" width="32" height="32"><path d="M32 30.333a1.667 1.667 0 1 1-1.667-1.667c.92 0 1.667.746 1.667 1.667zM32 19a5 5 0 0 1-5 5H17v6h9a1 1 0 0 1 0 2H6a1 1 0 0 1 0-2h9v-6H5a5 5 0 0 1-3.013-8.991L2 15a4.977 4.977 0 0 1-.86-7.172l-.007.008 2.533-4.407c1.22-2.066 3.436-3.43 5.97-3.43H22.363a6.905 6.905 0 0 1 5.952 3.398l.018.032 2.533 4.403A4.975 4.975 0 0 1 31.998 11a4.992 4.992 0 0 1-1.986 3.99l-.013.009c1.22.922 2 2.37 2 4zM4.477 6.027C4.647 6.027 4.81 6 5 6h22c.177 0 .333 0 .52.027l-.92-1.6A4.92 4.92 0 0 0 22.362 2H9.633a4.906 4.906 0 0 0-4.221 2.401l-.012.023zM5 14h22a3 3 0 1 0 0-6H5a3 3 0 1 0 0 6zm25 5a3 3 0 0 0-3-3H5a3 3 0 1 0 0 6h22a3 3 0 0 0 3-3zM1.667 28.667a1.667 1.667 0 1 0 1.667 1.667c0-.92-.746-1.667-1.667-1.667zM27 19a1 1 0 0 0-1-1h-2a1 1 0 0 0 0 2h2a1 1 0 0 0 1-1zm-7 1h-2a1 1 0 0 1 0-2h2a1 1 0 0 1 0 2zM9 19a1.667 1.667 0 1 1-1.667-1.667C8.253 17.333 9 18.079 9 19zm18-8a1 1 0 0 0-1-1h-2a1 1 0 0 0 0 2h2a1 1 0 0 0 1-1zm-7 1h-2a1 1 0 0 1 0-2h2a1 1 0 0 1 0 2zM9 11a1.667 1.667 0 1 1-1.667-1.667C8.253 9.333 9 10.079 9 11z"/></svg>