<svg xmlns="http://www.w3.org/2000/svg" width="32" height="32"><path d="M21.13 32a3.587 3.587 0 0 1-2.664-1.187l-.003-.003-1.267-1.377a1.607 1.607 0 0 0-1.19-.524c-.421 0-.804.161-1.091.425l.001-.001a1.72 1.72 0 0 0-.113.113l-1.257 1.383a3.613 3.613 0 0 1-6.286-2.615v.009l.097-1.89a1.613 1.613 0 0 0-1.509-1.71h-.182l-1.867.097a3.61 3.61 0 0 1-2.613-6.281l.003-.003 1.38-1.253a1.604 1.604 0 0 0 .112-2.278l.001.001c-.037-.04-.073-.08-.113-.117l-1.383-1.253a3.613 3.613 0 0 1 2.601-6.279h-.008l1.877.097c.027.002.058.002.089.002.859 0 1.561-.671 1.611-1.518v-.004a1.107 1.107 0 0 0 0-.174v.004l-.097-1.867a3.613 3.613 0 0 1 6.287-2.61l.003.003 1.253 1.39a1.617 1.617 0 0 0 2.281.112l-.001.001c.04-.037.077-.077.113-.117l1.257-1.38a3.613 3.613 0 0 1 6.286 2.615v-.009l-.097 1.863a1.614 1.614 0 0 0 1.522 1.69h.004a1.072 1.072 0 0 0 .17 0h-.004l1.867-.097a3.61 3.61 0 0 1 2.61 6.284l-.003.003-1.38 1.253a1.609 1.609 0 0 0-.096 2.288l-.001-.001c.037.04.073.077.113.113l1.383 1.253a3.613 3.613 0 0 1-2.615 6.286h.009l-1.89-.097a1.616 1.616 0 0 0-1.693 1.522v.004a1.027 1.027 0 0 0 0 .168v-.004l.097 1.87a3.617 3.617 0 0 1-3.417 3.797h-.009zM16 26.903a3.595 3.595 0 0 1 2.664 1.184l.003.003 1.267 1.377a1.6 1.6 0 0 0 1.281.533h-.004a1.58 1.58 0 0 0 1.122-.528l.001-.002c.26-.285.419-.665.419-1.083l-.002-.084v.004l-.097-1.867a3.606 3.606 0 0 1 0-.385v.009a3.62 3.62 0 0 1 3.795-3.416h-.009l1.867.097.077.002c.475 0 .903-.205 1.199-.53l.001-.001c.257-.285.415-.665.415-1.081a1.61 1.61 0 0 0-.527-1.194l-.001-.001-1.383-1.27a3.593 3.593 0 0 1-1.176-2.664c0-1.056.454-2.007 1.177-2.667l.003-.003 1.377-1.25a1.613 1.613 0 0 0-1.079-2.812l-.084.002h.004l-1.867.097a3.566 3.566 0 0 1-.383 0h.009a3.608 3.608 0 0 1-3.419-3.809v.01l.097-1.87a1.617 1.617 0 0 0-2.809-1.162l-.001.001-1.267 1.38a3.602 3.602 0 0 1-2.665 1.176 3.607 3.607 0 0 1-2.666-1.173l-.002-.003-1.267-1.39a1.602 1.602 0 0 0-1.281-.53h.004a1.582 1.582 0 0 0-1.122.528l-.001.002c-.26.285-.419.665-.419 1.083l.002.084v-.004l.097 1.867a3.737 3.737 0 0 1 0 .393v-.009a3.616 3.616 0 0 1-3.806 3.407h.009l-1.867-.097-.062-.001a1.613 1.613 0 0 0-1.089 2.803l.001.001 1.38 1.253a3.597 3.597 0 0 1 1.188 2.678 3.604 3.604 0 0 1-1.185 2.676l-.003.003-1.38 1.253a1.588 1.588 0 0 0-.533 1.281V21.2a1.617 1.617 0 0 0 1.614 1.532l.079-.002h-.004l1.867-.097h.4a3.616 3.616 0 0 1 3.396 3.826v-.01l-.097 1.86a1.617 1.617 0 0 0 2.809 1.165l.001-.001 1.267-1.383c.08-.087.167-.173.257-.253a3.582 3.582 0 0 1 2.41-.93zm0-4.57A6.333 6.333 0 1 1 22.333 16 6.333 6.333 0 0 1 16 22.333zm0-10.666A4.333 4.333 0 1 0 20.333 16 4.333 4.333 0 0 0 16 11.667z"/></svg>