<?xml version="1.0" encoding="utf-8"?>
<!-- Generator: Adobe Illustrator 20.1.0, SVG Export Plug-In . SVG Version: 6.00 Build 0)  -->
<svg version="1.1" id="Layer_2" xmlns="http://www.w3.org/2000/svg" xmlns:xlink="http://www.w3.org/1999/xlink" x="0px" y="0px"
	 viewBox="0 0 72 72" style="enable-background:new 0 0 72 72;" xml:space="preserve">
<g>
	<path d="M38.7,72h-5.5c-1.7,0-3-1.4-3-3v-4.8c0-0.7-0.6-1.4-1.2-1.6c0,0-0.1,0-0.1,0l-6.7-2.8c0,0-0.1,0-0.1,0
		c-0.6-0.3-1.5-0.2-2,0.3l-3.4,3.4c-1.2,1.2-3.1,1.2-4.3,0l-3.9-3.9c-0.6-0.6-0.9-1.3-0.9-2.1c0-0.8,0.3-1.6,0.9-2.1l3.4-3.4
		c0.5-0.5,0.6-1.4,0.3-2c0,0,0-0.1-0.1-0.1l-2.7-6.7c-0.2-0.7-1-1.3-1.7-1.3H3c-1.7,0-3-1.4-3-3v-5.5c0-1.7,1.3-3,3-3h4.8
		c0.7,0,1.4-0.6,1.6-1.2l2.8-6.8c0,0,0-0.1,0.1-0.1c0.3-0.6,0.2-1.5-0.3-2l-3.4-3.4c-0.6-0.6-0.9-1.3-0.9-2.1c0-0.8,0.3-1.6,0.9-2.1
		l3.9-3.9c1.2-1.2,3.1-1.2,4.3,0l3.4,3.4c0.5,0.5,1.4,0.6,2,0.3c0,0,0.1,0,0.1-0.1l6.7-2.8c0,0,0.1,0,0.1,0c0.6-0.2,1.2-1,1.2-1.6V3
		c0-1.7,1.3-3,3-3h5.5c1.7,0,3,1.4,3,3v4.8c0,0.7,0.6,1.4,1.2,1.6c0,0,0.1,0,0.1,0l6.7,2.8c0,0,0.1,0,0.1,0c0.6,0.3,1.5,0.2,2-0.3
		l3.4-3.4c1.2-1.2,3.1-1.2,4.2,0l3.9,3.9c1.2,1.2,1.2,3.1,0,4.3L60,20.1c-0.5,0.5-0.6,1.4-0.3,2c0,0,0,0.1,0,0.1l2.8,6.7
		c0,0,0,0.1,0,0.1c0.2,0.6,1,1.2,1.6,1.2H69c1.7,0,3,1.4,3,3v5.5c0,1.7-1.4,3-3,3h-4.8c-0.7,0-1.4,0.6-1.6,1.2c0,0,0,0.1,0,0.1
		l-2.8,6.7c0,0,0,0.1,0,0.1c-0.3,0.6-0.2,1.5,0.3,2l3.4,3.4c0.6,0.6,0.9,1.3,0.9,2.1c0,0.8-0.3,1.6-0.9,2.1l-3.9,3.9
		c-1.2,1.2-3.1,1.2-4.3,0L51.9,60c-0.5-0.5-1.4-0.6-2-0.3c0,0-0.1,0-0.1,0l-6.7,2.8c0,0-0.1,0-0.1,0c-0.6,0.2-1.2,1-1.2,1.6V69
		C41.8,70.6,40.4,72,38.7,72z M29.6,60.7c1.5,0.5,2.6,2,2.6,3.5V69c0,0.6,0.4,1,1,1h5.5c0.6,0,1-0.5,1-1v-4.8c0-1.5,1.1-3.1,2.6-3.5
		L49,58c1.4-0.7,3.2-0.4,4.3,0.6l3.4,3.4c0.4,0.4,1,0.4,1.4,0l3.9-3.9c0.2-0.2,0.3-0.4,0.3-0.7c0-0.3-0.1-0.5-0.3-0.7l-3.4-3.4
		c-1.1-1.1-1.3-3-0.6-4.3l2.7-6.6c0.5-1.5,2-2.6,3.5-2.6H69c0.6,0,1-0.5,1-1v-5.5c0-0.6-0.5-1-1-1h-4.8c-1.5,0-3.1-1.1-3.5-2.6
		L57.9,23c-0.7-1.4-0.4-3.2,0.7-4.3l3.4-3.4c0.4-0.4,0.4-1,0-1.4L58.1,10c-0.4-0.4-1-0.4-1.4,0l-3.4,3.4c-1.1,1.1-3,1.4-4.3,0.6
		l-6.6-2.7c-1.5-0.5-2.6-2-2.6-3.5V3c0-0.6-0.5-1-1-1h-5.5c-0.6,0-1,0.5-1,1v4.8c0,1.5-1.1,3.1-2.6,3.5L23,14.1
		c-1.3,0.7-3.2,0.4-4.3-0.6L15.3,10c-0.4-0.4-1-0.4-1.4,0L10,13.9c-0.2,0.2-0.3,0.4-0.3,0.7c0,0.3,0.1,0.5,0.3,0.7l3.4,3.4
		c1.1,1.1,1.4,3,0.7,4.3l-2.7,6.6c-0.4,1.4-2,2.6-3.5,2.6H3c-0.5,0-1,0.5-1,1v5.5c0,0.5,0.5,1,1,1h4.8c1.5,0,3.1,1.2,3.5,2.6L14,49
		c0.7,1.4,0.4,3.2-0.6,4.3L10,56.7c-0.2,0.2-0.3,0.4-0.3,0.7c0,0.3,0.1,0.5,0.3,0.7l3.9,3.9c0.4,0.4,1,0.4,1.4,0l3.4-3.4
		c1.1-1.1,3-1.4,4.3-0.6L29.6,60.7z M36,52c-8.8,0-16-7.2-16-16c0-8.8,7.2-16,16-16c8.8,0,16,7.2,16,16C52,44.8,44.8,52,36,52z
		 M36,22c-7.7,0-14,6.3-14,14c0,7.7,6.3,14,14,14c7.7,0,14-6.3,14-14C50,28.3,43.7,22,36,22z"/>
</g>
</svg>
