<svg xmlns="http://www.w3.org/2000/svg" width="32" height="32"><path d="M21.127 32a3.591 3.591 0 0 1-2.664-1.19l-.003-.003-1.253-1.39a1.606 1.606 0 0 0-2.278-.116l.001-.001c-.043.04-.08.077-.117.117l-1.257 1.39a3.613 3.613 0 0 1-6.289-2.612v.009l.087-1.87.002-.079c0-.862-.677-1.567-1.528-1.611h-.004a1.027 1.027 0 0 0-.168 0l-1.859.093a3.61 3.61 0 0 1-2.607-6.278L2.583 17.2a1.614 1.614 0 0 0 .115-2.278l.001.001a2.152 2.152 0 0 0-.117-.117l-1.39-1.253a3.61 3.61 0 0 1 2.616-6.289h-.009l1.867.097.082.002c.862 0 1.567-.677 1.611-1.528v-.004a1.107 1.107 0 0 0 0-.174v.004l-.097-1.867a3.61 3.61 0 0 1 6.278-2.607l.003.003 1.26 1.383a1.6 1.6 0 0 0 1.195.532 1.6 1.6 0 0 0 1.08-.417l-.001.001c.043-.037.08-.077.12-.117l1.25-1.39a3.613 3.613 0 0 1 6.286 2.612v-.009l-.093 1.88a1.614 1.614 0 0 0 1.519 1.693h.004a1.072 1.072 0 0 0 .17 0h-.004l1.867-.097a3.613 3.613 0 0 1 2.613 6.29l-.003.003-1.39 1.243a1.614 1.614 0 0 0-.115 2.278l-.001-.001c.037.043.077.08.117.12l1.39 1.25a3.613 3.613 0 0 1-2.616 6.289h.009l-1.867-.097a1.616 1.616 0 0 0-1.69 1.526v.004a1.027 1.027 0 0 0 0 .168v-.004l.093 1.867a3.613 3.613 0 0 1-3.394 3.799h-.01zM5.743 22.64h.177a3.625 3.625 0 0 1 3.429 3.805v-.009l-.093 1.867a1.584 1.584 0 0 0 .528 1.279l.002.001a1.61 1.61 0 0 0 2.276-.115l.001-.001 1.27-1.39c.084-.094.17-.18.26-.261l.003-.003a3.593 3.593 0 0 1 2.402-.915c1.056 0 2.006.453 2.666 1.176l.003.003 1.267 1.39a1.613 1.613 0 0 0 2.808-1.083l-.002-.084v.004l-.097-1.867v-.37a3.615 3.615 0 0 1 3.803-3.423h-.009l1.867.097.08.002a1.613 1.613 0 0 0 1.085-2.807l-.001-.001-1.39-1.267q-.137-.123-.26-.26a3.605 3.605 0 0 1-.914-2.405c0-1.055.451-2.005 1.171-2.666l.003-.002 1.39-1.253a1.613 1.613 0 0 0-1.167-2.81h.004l-1.87.097a3.606 3.606 0 0 1-.385 0h.009a3.616 3.616 0 0 1-3.413-3.82v.01l.093-1.867.002-.086c0-.471-.204-.894-.528-1.186l-.001-.001a1.611 1.611 0 0 0-2.276.112l-.001.001-1.25 1.387a3.28 3.28 0 0 1-.257.257l-.003.003a3.596 3.596 0 0 1-2.416.926 3.603 3.603 0 0 1-2.671-1.18l-.003-.003-1.27-1.387a1.613 1.613 0 0 0-2.803 1.163v-.004l.097 1.867a3.606 3.606 0 0 1 0 .385v-.009a3.615 3.615 0 0 1-3.802 3.42h.009L3.699 9.26a1.613 1.613 0 0 0-1.165 2.809l.001.001 1.39 1.263q.133.127.26.26c.576.639.929 1.489.929 2.421a3.612 3.612 0 0 1-1.186 2.68L2.535 19.94a1.612 1.612 0 0 0 1.167 2.799h-.004l1.863-.097zm17.147-.857A8.949 8.949 0 0 0 24.994 16 9 9 0 0 0 16 7a9 9 0 0 0-9 9v.024c0 2.208.801 4.229 2.127 5.789l-.011-.013c.038.075.084.14.137.197l-.001-.001c.055.061.116.115.183.161l.004.002c.063.067.127.137.193.203a8.913 8.913 0 0 0 6.34 2.637H16h-.001.003a8.944 8.944 0 0 0 6.539-2.829l.004-.005a.86.86 0 0 0 .199-.169l.001-.001c.055-.062.102-.132.141-.208l.003-.006zM23 16a6.924 6.924 0 0 1-1.176 3.872l.016-.025L17 15.55V9.08c3.41.494 6 3.397 6 6.905v.016V16zM8 16h1a7.001 7.001 0 0 1 5.962-6.915L15 9.08v6.47l-4.843 4.307A6.872 6.872 0 0 1 9 16.022v-.023V16zm8 7a6.914 6.914 0 0 1-4.516-1.674l.009.008 4.507-4 4.51 4a6.94 6.94 0 0 1-4.509 1.667H16z"/></svg>