<svg version="1.1" xmlns="http://www.w3.org/2000/svg" width="32" height="32" viewBox="0 0 32 32">
<title>settings-block</title>
<path fill="#333" d="M18.857 32h-5.713c-0 0-0.001 0-0.001 0-0.569 0-1.054-0.356-1.246-0.858l-0.003-0.009-1.183-3.173c-0.99-0.422-1.842-0.909-2.628-1.48l0.038 0.026-3.697 0.637c-0.068 0.012-0.147 0.019-0.227 0.019-0.485 0-0.91-0.259-1.143-0.647l-0.003-0.006-2.857-4.823c-0.116-0.194-0.185-0.428-0.185-0.678 0-0.334 0.123-0.64 0.326-0.874l-0.001 0.002 2.403-2.803c-0.044-0.4-0.070-0.863-0.070-1.333v-0c0-0.002 0-0.005 0-0.008 0-0.467 0.025-0.928 0.075-1.382l-0.005 0.056-2.403-2.797c-0.202-0.232-0.324-0.538-0.324-0.872 0-0.245 0.066-0.474 0.181-0.671l-0.003 0.006 2.857-4.837c0.237-0.394 0.661-0.653 1.147-0.653 0.080 0 0.159 0.007 0.235 0.021l-0.008-0.001 3.693 0.637c0.751-0.548 1.606-1.037 2.514-1.427l0.086-0.033 1.183-3.173c0.195-0.511 0.68-0.867 1.249-0.867 0 0 0.001 0 0.001 0h5.713c0 0 0.001 0 0.001 0 0.569 0 1.054 0.356 1.246 0.858l0.003 0.009 1.183 3.173c0.994 0.423 1.849 0.912 2.638 1.486l-0.038-0.026 3.693-0.637c0.068-0.012 0.147-0.019 0.227-0.019 0.485 0 0.91 0.259 1.143 0.647l0.003 0.006 2.857 4.837c0.112 0.191 0.178 0.42 0.178 0.665 0 0.334-0.123 0.639-0.326 0.873l0.001-0.002-2.403 2.797c0.045 0.398 0.070 0.859 0.070 1.326 0 0.003 0 0.005 0 0.008v-0c-0 0.47-0.026 0.934-0.075 1.39l0.005-0.057 2.403 2.813c0.201 0.232 0.323 0.537 0.323 0.87 0 0.251-0.069 0.486-0.19 0.686l0.003-0.006-2.847 4.823c-0.237 0.394-0.661 0.653-1.147 0.653-0.080 0-0.159-0.007-0.235-0.021l0.008 0.001-3.71-0.64c-0.746 0.542-1.596 1.026-2.497 1.414l-0.086 0.033-1.183 3.173c-0.195 0.511-0.68 0.867-1.249 0.867-0 0-0.001 0-0.001 0h0zM14.070 29.333h3.86l1.070-2.86c0.139-0.364 0.422-0.646 0.777-0.78l0.009-0.003c1.117-0.418 2.083-0.969 2.942-1.65l-0.022 0.017c0.225-0.178 0.512-0.286 0.825-0.286 0.080 0 0.157 0.007 0.233 0.020l-0.008-0.001 3.373 0.58 1.9-3.21-2.177-2.527c-0.2-0.232-0.322-0.536-0.322-0.869 0-0.072 0.006-0.143 0.017-0.212l-0.001 0.008c0.076-0.468 0.12-1.008 0.12-1.558 0-0.001 0-0.001 0-0.002v0c-0-0.545-0.044-1.079-0.128-1.601l0.008 0.057c-0.010-0.060-0.015-0.13-0.015-0.201 0-0.334 0.123-0.64 0.327-0.874l-0.001 0.002 2.173-2.527-1.9-3.21-3.353 0.577c-0.069 0.012-0.147 0.020-0.228 0.020-0.313 0-0.601-0.108-0.828-0.288l0.003 0.002c-0.841-0.669-1.813-1.226-2.863-1.622l-0.074-0.024c-0.365-0.137-0.648-0.419-0.784-0.774l-0.003-0.009-1.070-2.86h-3.86l-1.070 2.86c-0.139 0.364-0.422 0.646-0.777 0.78l-0.009 0.003c-1.124 0.421-2.095 0.977-2.959 1.664l0.022-0.017c-0.225 0.178-0.513 0.286-0.825 0.286-0.081 0-0.159-0.007-0.236-0.021l0.008 0.001-3.353-0.577-1.9 3.21 2.173 2.527c0.202 0.232 0.325 0.538 0.325 0.873 0 0.071-0.006 0.14-0.016 0.208l0.001-0.008c-0.076 0.464-0.12 0.998-0.12 1.543v0c0 0 0 0.001 0 0.002 0 0.549 0.044 1.088 0.128 1.613l-0.008-0.058c0.010 0.061 0.016 0.132 0.016 0.204 0 0.333-0.122 0.637-0.324 0.871l0.001-0.002-2.173 2.52 1.903 3.21 3.357-0.577c0.068-0.012 0.146-0.019 0.225-0.019 0.313 0 0.6 0.108 0.828 0.288l-0.003-0.002c0.84 0.665 1.809 1.219 2.856 1.615l0.074 0.025c0.365 0.137 0.648 0.419 0.784 0.774l0.003 0.009zM16 22.667c-3.682 0-6.667-2.985-6.667-6.667s2.985-6.667 6.667-6.667c3.682 0 6.667 2.985 6.667 6.667v0c0 3.682-2.985 6.667-6.667 6.667v0zM16 12c-2.209 0-4 1.791-4 4s1.791 4 4 4c2.209 0 4-1.791 4-4v0c0-2.209-1.791-4-4-4v0z"></path>
</svg>
