<svg xmlns="http://www.w3.org/2000/svg" viewBox="0 0 96 96"><path d="M48 24a24 24 0 1 0 24 24 24 24 0 0 0-24-24zm0 8a16 16 0 0 1 12 5.5l-12 6-12-6A16 16 0 0 1 48 32zM32 48a16.07 16.07 0 0 1 .36-3.35L44 50.47v13A16 16 0 0 1 32 48zm20 15.47v-13l11.64-5.82A15.95 15.95 0 0 1 52 63.47zM56.57 96H39.43a4 4 0 0 1-3.75-2.6l-3.55-9.52a39.78 39.78 0 0 1-7.77-4.36l-11.09 1.91a4 4 0 0 1-4.12-1.9L.58 65.06A4 4 0 0 1 1 60.41L8.21 52A38.52 38.52 0 0 1 8 48a37.76 37.76 0 0 1 .21-4L1 35.61A4 4 0 0 1 .56 31l8.57-14.51a4 4 0 0 1 4.12-1.9l11.08 1.91a39.3 39.3 0 0 1 7.8-4.38l3.55-9.52A4 4 0 0 1 39.43 0h17.14a4 4 0 0 1 3.75 2.6l3.55 9.52a39.3 39.3 0 0 1 7.8 4.38l11.08-1.91a4 4 0 0 1 4.12 1.9L95.44 31a4 4 0 0 1-.44 4.61L87.79 44a37.76 37.76 0 0 1 .21 4 38.85 38.85 0 0 1-.21 4L95 60.44a4 4 0 0 1 .41 4.65l-8.54 14.47a4 4 0 0 1-4.12 1.9l-11.13-1.92a40.36 40.36 0 0 1-7.75 4.34l-3.55 9.52a4 4 0 0 1-3.75 2.6zm-14.36-8h11.58L57 79.42a4 4 0 0 1 2.36-2.35 32.09 32.09 0 0 0 8.76-4.9 4 4 0 0 1 3.15-.8l10.12 1.74 5.7-9.63-6.53-7.58a4 4 0 0 1-.92-3.23A30.31 30.31 0 0 0 80 48a30 30 0 0 0-.36-4.63 4 4 0 0 1 .93-3.22l6.52-7.58-5.7-9.63-10.06 1.73a4 4 0 0 1-3.16-.8 32.23 32.23 0 0 0-8.81-4.94A4 4 0 0 1 57 16.58L53.79 8H42.21L39 16.58a4 4 0 0 1-2.36 2.35 32.23 32.23 0 0 0-8.81 4.94 4 4 0 0 1-3.16.8l-10.06-1.73-5.7 9.63 6.52 7.58a4 4 0 0 1 .93 3.22A30 30 0 0 0 16 48a30.41 30.41 0 0 0 .36 4.67 4 4 0 0 1-.92 3.22l-6.52 7.56 5.71 9.63 10.07-1.73a4 4 0 0 1 3.15.8 32.47 32.47 0 0 0 8.79 4.92A4 4 0 0 1 39 79.42z" fill="#333"/></svg>