<?xml version="1.0" encoding="utf-8"?>
<!-- Generator: Adobe Illustrator 20.1.0, SVG Export Plug-In . SVG Version: 6.00 Build 0)  -->
<svg version="1.1" xmlns="http://www.w3.org/2000/svg" xmlns:xlink="http://www.w3.org/1999/xlink" x="0px" y="0px"
	 viewBox="0 0 72 72" style="enable-background:new 0 0 72 72;" xml:space="preserve">
<style type="text/css">
	
		.st0{fill-rule:evenodd;clip-rule:evenodd;fill:none;stroke:#000000;stroke-width:2;stroke-linecap:round;stroke-linejoin:round;stroke-miterlimit:10;}
	.st1{display:none;}
</style>
<g id="Layer_3">
	<g>
		<g>
			<g>
				<path d="M21,56H1c-0.6,0-1-0.4-1-1s0.4-1,1-1h19.5l29.2-35.5c0.2-0.2,0.5-0.4,0.8-0.4L70.4,18c0,0,0,0,0,0c0.5,0,1,0.4,1,1
					c0,0.6-0.4,1-1,1L51,20.1L21.8,55.6C21.6,55.9,21.3,56,21,56z"/>
			</g>
		</g>
		<g>
			<g>
				<path d="M70.6,56C70.6,56,70.6,56,70.6,56l-20.1-0.1c-0.3,0-0.6-0.1-0.8-0.4L39.6,43.2c-0.4-0.4-0.3-1.1,0.1-1.4
					c0.4-0.4,1.1-0.3,1.4,0.1L51,53.9L70.6,54c0.6,0,1,0.5,1,1C71.6,55.6,71.1,56,70.6,56z"/>
			</g>
			<g>
				<path d="M30.9,32c-0.3,0-0.6-0.1-0.8-0.4L20.5,20H1c-0.6,0-1-0.4-1-1s0.4-1,1-1h20c0.3,0,0.6,0.1,0.8,0.4l9.9,12
					c0.4,0.4,0.3,1.1-0.1,1.4C31.4,32,31.1,32,30.9,32z"/>
			</g>
		</g>
	</g>
	<g>
		<path d="M63.5,27c-0.3,0-0.6-0.1-0.8-0.3c-0.4-0.4-0.3-1.1,0.1-1.4l7-6C70,19.1,70,19.1,70,19s0-0.1-0.1-0.2l-7.1-6
			c-0.4-0.4-0.5-1-0.1-1.4c0.4-0.4,1-0.5,1.4-0.1l7,6c0.5,0.4,0.8,1.1,0.8,1.7s-0.3,1.3-0.8,1.7l-7,6C64,26.9,63.7,27,63.5,27z"/>
	</g>
	<g>
		<path d="M63.5,63c-0.3,0-0.6-0.1-0.8-0.3c-0.4-0.4-0.3-1.1,0.1-1.4l7-6C70,55.1,70,55.1,70,55s0-0.1-0.1-0.2l-7.1-6
			c-0.4-0.4-0.5-1-0.1-1.4s1-0.5,1.4-0.1l7,6c0.5,0.4,0.8,1.1,0.8,1.7s-0.3,1.3-0.8,1.7l-7,6C64,62.9,63.7,63,63.5,63z"/>
	</g>
</g>
<g id="Guides" class="st1">
</g>
</svg>
