<svg version="1.1" xmlns="http://www.w3.org/2000/svg" width="32" height="32" viewBox="0 0 32 32">
<title>sites-all</title>
<path fill="#333" d="M22.073 8h-20.147c-1.064 0-1.927 0.863-1.927 1.927v0 20.147c0 1.064 0.863 1.927 1.927 1.927v0h20.163c1.054-0.002 1.908-0.856 1.91-1.91v-20.164c0-1.064-0.863-1.927-1.927-1.927v0zM21.333 10.667v3.433h-18.667v-3.433zM2.667 29.333v-12.567h18.667v12.567zM10.667 12.333c0 0.552-0.448 1-1 1s-1-0.448-1-1c0-0.552 0.448-1 1-1v0c0.552 0 1 0.448 1 1v0zM8 12.333c0 0.552-0.448 1-1 1s-1-0.448-1-1c0-0.552 0.448-1 1-1v0c0.552 0 1 0.448 1 1v0zM5.333 12.333c0 0.552-0.448 1-1 1s-1-0.448-1-1c0-0.552 0.448-1 1-1v0c0.552 0 1 0.448 1 1v0zM26.667 26.667c-0.736 0-1.333-0.597-1.333-1.333v0-18.667h-18.667c-0.736 0-1.333-0.597-1.333-1.333s0.597-1.333 1.333-1.333v0h18.667c1.473 0 2.667 1.194 2.667 2.667v0 18.667c0 0.736-0.597 1.333-1.333 1.333v0zM30.667 21.333c-0.736 0-1.333-0.597-1.333-1.333v0-17.357l-17.333 0.023c-0.736 0-1.333-0.597-1.333-1.333s0.597-1.333 1.333-1.333v0h17.333c0 0 0 0 0 0 1.465 0 2.653 1.181 2.667 2.642v17.358c0 0.736-0.597 1.333-1.333 1.333v0z"></path>
</svg>
