<svg version="1.1" xmlns="http://www.w3.org/2000/svg" width="32" height="32" viewBox="0 0 32 32">
    <title>+icon/+oss/sites-all</title>
    <g id="+icon/+oss/sites-all" stroke="none" stroke-width="1" fill="none" fill-rule="evenodd">
        <path d="M22.0730775,7.99993745 L1.9262349,7.99993745 C0.862243208,7.99993745 -0.000750050003,8.86293071 -0.000750050003,9.9269224 L-0.000750050003,9.9269224 L-0.000750050003,30.073765 C-0.000750050003,31.1377567 0.862243208,32.0007499 1.9262349,32.0007499 L1.9262349,32.0007499 L22.0890774,32.0007499 C23.1430691,31.99875 23.9970625,31.1447566 23.9990625,30.0907649 L23.9990625,9.9269224 C23.9990625,8.86293071 23.1360692,7.99993745 22.0720775,7.99993745 L22.0720775,7.99993745 L22.0730775,7.99993745 Z M21.3330833,10.6669166 L21.3330833,14.0998898 L2.66622911,14.0998898 L2.66622911,10.6669166 L21.3330833,10.6669166 Z M2.66722911,29.3327708 L2.66722911,16.765869 L21.3340833,16.765869 L21.3340833,29.3327708 L2.66722911,29.3327708 Z M10.6671666,12.3329114 C10.6671666,12.8848993 10.2191701,13.3328958 9.66718223,13.3328958 C9.11517873,13.3328958 8.66718223,12.8848993 8.66718223,12.3329114 C8.66718223,11.7809079 9.11517873,11.3329114 9.66718223,11.3329114 L9.66718223,11.3329114 C10.2191701,11.3329114 10.6671666,11.7809079 10.6671666,12.3329114 L10.6671666,12.3329114 Z M8.00018744,12.3329114 C8.00018744,12.8848993 7.55219094,13.3328958 7.00020307,13.3328958 C6.44819957,13.3328958 6.00020307,12.8848993 6.00020307,12.3329114 C6.00020307,11.7809079 6.44819957,11.3329114 7.00020307,11.3329114 L7.00020307,11.3329114 C7.55219094,11.3329114 8.00018744,11.7809079 8.00018744,12.3329114 L8.00018744,12.3329114 Z M5.33320828,12.3329114 C5.33320828,12.8848993 4.88521178,13.3328958 4.3332239,13.3328958 C3.7812204,13.3328958 3.3332239,12.8848993 3.3332239,12.3329114 C3.3332239,11.7809079 3.7812204,11.3329114 4.3332239,11.3329114 L4.3332239,11.3329114 C4.88521178,11.3329114 5.33320828,11.7809079 5.33320828,12.3329114 L5.33320828,12.3329114 Z M26.6670416,26.6667916 C25.9310474,26.6667916 25.334052,26.0697963 25.334052,25.333802 L25.334052,25.333802 L25.334052,6.66694787 L6.66719786,6.66694787 C5.93120361,6.66694787 5.33420827,6.06995253 5.33420827,5.33395828 C5.33420827,4.59796403 5.93120361,4.00096869 6.66719786,4.00096869 L6.66719786,4.00096869 L25.334052,4.00096869 C26.8070405,4.00096869 28.0010312,5.19495937 28.0010312,6.66794786 L28.0010312,6.66794786 L28.0010312,25.334802 C28.0010312,26.0707963 27.4040359,26.6677916 26.6680416,26.6677916 L26.6680416,26.6677916 L26.6670416,26.6667916 Z M30.6670104,21.3328333 C29.9310161,21.3328333 29.3340208,20.735838 29.3340208,19.9998437 L29.3340208,19.9998437 L29.3340208,2.6429793 L12.0011562,2.66597912 C11.2651619,2.66597912 10.6681666,2.06898379 10.6681666,1.33298954 C10.6681666,0.596995286 11.2651619,-5.00000006e-08 12.0011562,-5.00000006e-08 L12.0011562,-5.00000006e-08 L29.3340208,-5.00000006e-08 C29.3340208,-5.00000006e-08 29.3340208,-5.00000006e-08 29.3340208,-5.00000006e-08 C30.7990093,-5.00000006e-08 31.9870001,1.18099072 32.0009999,2.64197931 L32.0009999,19.9998437 C32.0009999,20.735838 31.4040046,21.3328333 30.6680104,21.3328333 L30.6680104,21.3328333 L30.6670104,21.3328333 Z" id="sites-all" fill="#131C26"></path>
    </g>
</svg>