<svg version="1.1" xmlns="http://www.w3.org/2000/svg" width="32" height="32" viewBox="0 0 32 32">
<title>slider</title>
<path fill="#333" d="M21.333 30.667h-10.667c-1.473 0-2.667-1.194-2.667-2.667v0-24c0-1.473 1.194-2.667 2.667-2.667v0h10.667c1.473 0 2.667 1.194 2.667 2.667v0 24c0 1.473-1.194 2.667-2.667 2.667v0zM21.333 4h-10.667v24h10.667zM4.737 21.11c0.361-0.242 0.595-0.649 0.595-1.11 0-0.274-0.083-0.529-0.225-0.741l0.003 0.005-2.173-3.263 2.17-3.24c0.134-0.205 0.214-0.455 0.214-0.724 0-0.736-0.597-1.333-1.333-1.333-0.451 0-0.85 0.224-1.091 0.567l-0.003 0.004-2.667 3.98c-0.14 0.208-0.224 0.464-0.224 0.74s0.084 0.532 0.227 0.745l-0.003-0.005 2.667 4.020c0.242 0.361 0.649 0.595 1.11 0.595 0.274 0 0.529-0.083 0.741-0.225l-0.005 0.003zM29.11 20.737l2.667-4.020c0.14-0.208 0.224-0.464 0.224-0.74s-0.084-0.532-0.227-0.745l0.003 0.005-2.667-3.98c-0.244-0.347-0.643-0.571-1.094-0.571-0.736 0-1.333 0.597-1.333 1.333 0 0.269 0.080 0.52 0.217 0.729l-0.003-0.005 2.167 3.257-2.173 3.28c-0.159 0.217-0.254 0.488-0.254 0.782 0 0.736 0.597 1.333 1.333 1.333 0.481 0 0.902-0.255 1.137-0.637l0.003-0.006z"></path>
</svg>
