<svg xmlns="http://www.w3.org/2000/svg" width="32" height="32"><path d="M31 32H1a1 1 0 0 1-1-1V1a1 1 0 0 1 1-1h30a1 1 0 0 1 1 1v30a1 1 0 0 1-1 1zM2 30h28V2H2zm22-3.333A1.667 1.667 0 1 1 22.333 25c.92 0 1.667.746 1.667 1.667zM16 25a1.667 1.667 0 1 0 1.667 1.667c0-.92-.746-1.667-1.667-1.667zm-6.333 0a1.667 1.667 0 1 0 1.667 1.667c0-.92-.746-1.667-1.667-1.667zm14.666-8h-.001a1 1 0 0 1-.745-1.668l-.001.001L25.666 13l-2.077-2.333a1 1 0 0 1 1.493-1.335l.001.001 2.667 3a1 1 0 0 1 0 1.335l.001-.001-2.667 3a.998.998 0 0 1-.745.333h-.005zm-16-.253a.998.998 0 0 0 .079-1.415l.001.001L6.333 13l2.077-2.333a1 1 0 0 0-1.493-1.335l-.001.001-2.667 3a1 1 0 0 0 0 1.335l-.001-.001 2.667 3a.998.998 0 0 0 1.411.083l-.001.001z"/></svg>