<svg version="1.1" xmlns="http://www.w3.org/2000/svg" width="32" height="32" viewBox="0 0 32 32">
<title>slider-lastviewed</title>
<path fill="#333" d="M4 21.333c-0.461-0-0.868-0.235-1.107-0.592l-0.003-0.005-2.667-4.020c-0.14-0.208-0.224-0.464-0.224-0.74s0.084-0.532 0.227-0.745l-0.003 0.005 2.667-3.98c0.244-0.347 0.643-0.571 1.094-0.571 0.736 0 1.333 0.597 1.333 1.333 0 0.269-0.080 0.52-0.217 0.729l0.003-0.005-2.167 3.257 2.173 3.28c0.132 0.204 0.211 0.453 0.211 0.72 0 0.732-0.59 1.326-1.321 1.333h-0.001zM21.333 19.963c-1.657 0-3 1.343-3 3s1.343 3 3 3c1.657 0 3-1.343 3-3v0c0-1.657-1.343-3-3-3v0zM32 23c0.001 0.016 0.001 0.036 0.001 0.055 0 0.282-0.089 0.542-0.241 0.756l0.003-0.004c-3.23 4.553-6.72 6.86-10.387 6.86h-0.297c-6.047-0.207-10.050-6.667-10.217-6.933-0.118-0.19-0.19-0.42-0.193-0.666v-0.068c-0.001-0.008-0.001-0.017-0.001-0.027s0-0.019 0.001-0.028l-0 0.001c0.001-0.247 0.072-0.477 0.193-0.672l-0.003 0.005c0.17-0.28 4.173-6.737 10.22-6.947 3.777-0.123 7.367 2.18 10.667 6.857 0.159 0.214 0.254 0.483 0.254 0.774 0 0.013-0 0.025-0.001 0.038l0-0.002zM29.047 23c-2.59-3.403-5.227-5.090-7.867-5-3.63 0.12-6.513 3.533-7.587 5 1.073 1.467 3.957 4.88 7.587 5 2.633 0.090 5.277-1.597 7.86-5zM10.667 18.667v-14.667h10.667v8c0 0.736 0.597 1.333 1.333 1.333s1.333-0.597 1.333-1.333v0-8c0-1.473-1.194-2.667-2.667-2.667v0h-10.667c-1.473 0-2.667 1.194-2.667 2.667v0 14.667c0 0.736 0.597 1.333 1.333 1.333s1.333-0.597 1.333-1.333v0z"></path>
</svg>
