<svg xmlns="http://www.w3.org/2000/svg" viewBox="0 0 96 96"><path d="M12 64a4 4 0 0 1-3.33-1.79l-8-12.06a4 4 0 0 1 0-4.44l8-11.94a4 4 0 0 1 6.64 4.46L8.81 48l6.52 9.84A4 4 0 0 1 12 64zm52-4.11a9 9 0 1 0 9 9 9 9 0 0 0-9-9zM96 69a3.92 3.92 0 0 1-.71 2.42C85.6 85.08 75.13 92 64.13 92h-.89c-18.14-.62-30.15-20-30.65-20.8a3.94 3.94 0 0 1-.58-2V69a.92.92 0 0 1 0-.16 3.86 3.86 0 0 1 .57-2C33.09 66 45.1 46.63 63.24 46c11.33-.37 22.1 6.54 32 20.57A3.92 3.92 0 0 1 96 69zm-8.86 0c-7.77-10.21-15.68-15.27-23.6-15-10.89.36-19.54 10.6-22.76 15C44 73.4 52.65 83.64 63.54 84c7.9.27 15.83-4.79 23.58-15zM32 56V12h32v24a4 4 0 0 0 8 0V12a8 8 0 0 0-8-8H32a8 8 0 0 0-8 8v44a4 4 0 0 0 8 0z" fill="#333"/></svg>