<svg xmlns="http://www.w3.org/2000/svg" width="32" height="32"><path d="M29 4h-3a1 1 0 0 0 0 2h3a1 1 0 0 1 1 1v12H2V7a1 1 0 0 1 1-1h2a1 1 0 0 0 0-2H3a3 3 0 0 0-3 3v16a3 3 0 0 0 3 3h12v4h-5a1 1 0 0 0 0 2h12a1 1 0 0 0 0-2h-5v-4h12a3 3 0 0 0 3-3V7a3 3 0 0 0-3-3zm0 20H3a1 1 0 0 1-1-1v-2h28v2a1 1 0 0 1-1 1zm-15.667-9.333A1.333 1.333 0 1 1 12 13.334c.736 0 1.333.597 1.333 1.333zM19 13.333a1.333 1.333 0 1 0 1.333 1.333c0-.736-.597-1.333-1.333-1.333zM19.5 12h-8.007c-.433 0-.801-.275-.941-.66l-.002-.007-2-6A1 1 0 0 1 9.493 4H20.557l1-3.287a1 1 0 1 1 1.911.581l.002-.007-1.137 3.75a.996.996 0 0 1-.149.488l.002-.004-1.73 5.767a1 1 0 0 1-.957.713zm-7.28-2h6.537l1.2-4h-9.07z"/></svg>