<svg xmlns="http://www.w3.org/2000/svg" width="32" height="32"><path d="M13.333 30.333a1.667 1.667 0 1 1-1.834-1.666l.007-.001a.972.972 0 0 1 .163 0h-.003c.92 0 1.667.746 1.667 1.667zM6 22a3 3 0 1 0-3 3 3 3 0 0 0 3-3zm-2 0a1 1 0 1 1-1-1 1 1 0 0 1 1 1zm4.667-11.333A3.333 3.333 0 1 0 5.334 14a3.333 3.333 0 0 0 3.333-3.333zm-2 0a1.333 1.333 0 1 1-1.333-1.333c.736 0 1.333.597 1.333 1.333zm14.333-6a4.667 4.667 0 1 0-4.667 4.667A4.667 4.667 0 0 0 21 4.667zm-2 0A2.667 2.667 0 1 1 16.333 2 2.667 2.667 0 0 1 19 4.667zM32 16a6 6 0 1 0-6 6 6 6 0 0 0 6-6zm-2 0a4 4 0 1 1-4-4 4 4 0 0 1 4 4z"/></svg>