<?xml version="1.0" encoding="utf-8"?>
<!-- Generator: Adobe Illustrator 20.1.0, SVG Export Plug-In . SVG Version: 6.00 Build 0)  -->
<svg version="1.1" id="Layer_1" xmlns="http://www.w3.org/2000/svg" xmlns:xlink="http://www.w3.org/1999/xlink" x="0px" y="0px"
	 viewBox="0 0 72 72" style="enable-background:new 0 0 72 72;" xml:space="preserve">
<g id="Layer_1_1_">
	<g>
		<path d="M56.2,50.4c3.3,0,5.9,2.6,5.9,5.9s-2.6,5.9-5.9,5.9s-5.9-2.6-5.9-5.9S52.9,50.4,56.2,50.4z M56.2,63.2
			c-3.8,0-6.9-3.1-6.9-6.9s3.1-6.9,6.9-6.9s6.9,3.1,6.9,6.9S60,63.2,56.2,63.2z M56.2,51.4c-2.7,0-4.9,2.2-4.9,4.9
			c0,2.7,2.2,4.9,4.9,4.9c2.7,0,4.9-2.2,4.9-4.9C61.1,53.6,58.9,51.4,56.2,51.4z M36,58.7c3.3,0,5.9,2.6,5.9,5.9
			c0,3.3-2.6,5.9-5.9,5.9s-5.9-2.6-5.9-5.9C30.1,61.3,32.7,58.7,36,58.7z M36,71.5c-3.8,0-6.9-3.1-6.9-6.9s3.1-6.9,6.9-6.9
			s6.9,3.1,6.9,6.9S39.8,71.5,36,71.5z M36,59.7c-2.7,0-4.9,2.2-4.9,4.9c0,2.7,2.2,4.9,4.9,4.9c2.7,0,4.9-2.2,4.9-4.9
			C40.9,61.9,38.7,59.7,36,59.7z M15.8,50.2c3.3,0,5.9,2.6,5.9,5.9S19.1,62,15.8,62s-5.9-2.6-5.9-5.9S12.5,50.2,15.8,50.2z M15.8,63
			c-3.8,0-6.9-3.1-6.9-6.9s3.1-6.9,6.9-6.9s6.9,3.1,6.9,6.9S19.6,63,15.8,63z M15.8,51.2c-2.7,0-4.9,2.2-4.9,4.9
			c0,2.7,2.2,4.9,4.9,4.9c2.7,0,4.9-2.2,4.9-4.9C20.7,53.4,18.5,51.2,15.8,51.2z M7.4,30.1c3.3,0,5.9,2.6,5.9,5.9s-2.6,5.9-5.9,5.9
			S1.5,39.3,1.5,36S4.1,30.1,7.4,30.1z M7.4,42.9c-3.8,0-6.9-3.1-6.9-6.9s3.1-6.9,6.9-6.9s6.9,3.1,6.9,6.9S11.2,42.9,7.4,42.9z
			 M7.4,31.1c-2.7,0-4.9,2.2-4.9,4.9c0,2.7,2.2,4.9,4.9,4.9s4.9-2.2,4.9-4.9C12.3,33.3,10.1,31.1,7.4,31.1z M15.8,9.8
			c3.3,0,5.9,2.6,5.9,5.9s-2.6,5.9-5.9,5.9S9.9,19,9.9,15.7S12.5,9.8,15.8,9.8z M15.8,22.6c-3.8,0-6.9-3.1-6.9-6.9s3.1-6.9,6.9-6.9
			s6.9,3.1,6.9,6.9S19.6,22.6,15.8,22.6z M15.8,10.8c-2.7,0-4.9,2.2-4.9,4.9c0,2.7,2.2,4.9,4.9,4.9c2.7,0,4.9-2.2,4.9-4.9
			C20.7,13,18.5,10.8,15.8,10.8z"/>
		<path d="M36,14.3c-3.8,0-6.9-3.1-6.9-6.9s3.1-6.9,6.9-6.9s6.9,3.1,6.9,6.9S39.8,14.3,36,14.3z M36,2.5c-2.7,0-4.9,2.2-4.9,4.9
			s2.2,4.9,4.9,4.9c2.7,0,4.9-2.2,4.9-4.9S38.7,2.5,36,2.5z M64.6,42.9c-3.8,0-6.9-3.1-6.9-6.9s3.1-6.9,6.9-6.9s6.9,3.1,6.9,6.9
			S68.4,42.9,64.6,42.9z M64.6,31.1c-2.7,0-4.9,2.2-4.9,4.9c0,2.7,2.2,4.9,4.9,4.9c2.7,0,4.9-2.2,4.9-4.9
			C69.5,33.3,67.3,31.1,64.6,31.1z M56.2,22.8c-3.8,0-6.9-3.1-6.9-6.9S52.4,9,56.2,9s6.9,3.1,6.9,6.9S60,22.8,56.2,22.8z M56.2,11
			c-2.7,0-4.9,2.2-4.9,4.9s2.2,4.9,4.9,4.9c2.7,0,4.9-2.2,4.9-4.9S58.9,11,56.2,11z"/>
	</g>
</g>
</svg>
