<svg xmlns="http://www.w3.org/2000/svg" width="32" height="32"><path d="M27.477 19.247c.434.264.959.42 1.52.42h.004a3 3 0 1 0-3-3v.005c0 .398.08.778.224 1.124l-.007-.019-.037.017-5.247 2.917a3.003 3.003 0 0 0-4.75 1.269l-.007.021h-4.353a3.005 3.005 0 0 0-2.823-1.986 3 3 0 0 0-3 2.985v.001c.002.142.013.279.032.413l-.002-.017-4.03 2.237v-10.06l7.187-4.19a2.942 2.942 0 0 0 1.81.617h.004a3 3 0 0 0 2.526-1.388l.007-.012 3.497 2a3.195 3.195 0 0 0-.03.398v.002a3 3 0 1 0 6 0V13c0-.44-.096-.858-.268-1.235l.008.019 5.143-6c.331.136.714.215 1.116.217h.001a3 3 0 1 0-3-3v.003c0 .536.142 1.038.391 1.471l-.008-.014-5.027 5.873a2.96 2.96 0 0 0-1.356-.324c-.796 0-1.519.31-2.056.815l.002-.001-4-2.277A3.006 3.006 0 0 0 11 6.101a3 3 0 0 0-2.998 2.894V9c.002.252.033.495.091.728l-.004-.021-6.087 3.553V1a1 1 0 0 0-2 0v30a1 1 0 0 0 1 1h30a1 1 0 0 0 0-2h-29v-2.08l4.94-2.743a3 3 0 0 0 4.876-1.155l.007-.021h4.353a3.005 3.005 0 0 0 2.823 1.986 3 3 0 0 0 3-2.985v-.001c0-.201-.021-.396-.06-.585l.003.019 5.21-2.893a.995.995 0 0 0 .321-.29l.002-.003zM29 15.667a1 1 0 1 1-1 1 1 1 0 0 1 1-1zM29 2a1 1 0 1 1-1 1 1 1 0 0 1 1-1zm-9 10a1 1 0 1 1-1 1 1 1 0 0 1 1-1zm-9-4a1 1 0 1 1-1 1 1 1 0 0 1 1-1zM9 24a1 1 0 1 1 1-1 1 1 0 0 1-1 1zm10 0h-.001a1 1 0 1 1 .714-1.7c.023.072.05.134.083.192l-.003-.005a.956.956 0 0 0 .153.203c.032.092.051.198.053.309V23a1 1 0 0 1-1 1z"/></svg>