<svg version="1.1" xmlns="http://www.w3.org/2000/svg" width="32" height="32" viewBox="0 0 32 32">
<title>stats</title>
<path fill="#333" d="M30.667 32h-29.333c-0.736 0-1.333-0.597-1.333-1.333v0-29.333c0-0.736 0.597-1.333 1.333-1.333s1.333 0.597 1.333 1.333v0 28h28c0.736 0 1.333 0.597 1.333 1.333s-0.597 1.333-1.333 1.333v0zM30.573 3.303c-0.332-1.122-1.353-1.926-2.562-1.926-1.473 0-2.667 1.194-2.667 2.667 0 0.179 0.018 0.354 0.051 0.523l-0.003-0.017-3.237 2.917c-0.247-0.084-0.532-0.132-0.828-0.132-0.981 0-1.839 0.53-2.302 1.319l-0.007 0.013c-0.132 0.228-0.235 0.492-0.294 0.773l-0.003 0.017-3.623 1.21c-0.467-0.41-1.083-0.661-1.757-0.661-1.473 0-2.667 1.194-2.667 2.667 0 0.523 0.15 1.010 0.41 1.422l-0.006-0.011-4.513 8.583c-1.42 0.066-2.546 1.234-2.546 2.664 0 1.473 1.194 2.667 2.667 2.667s2.667-1.194 2.667-2.667c0-0.534-0.157-1.031-0.427-1.448l0.006 0.010 4.507-8.56c0.213-0.008 0.416-0.039 0.609-0.091l-0.019 0.004c0.969-0.269 1.705-1.046 1.91-2.019l0.003-0.017 3.63-1.21c0.467 0.413 1.084 0.666 1.76 0.667h0c0 0 0.001 0 0.001 0 0.247 0 0.487-0.034 0.714-0.098l-0.019 0.004c1.143-0.318 1.967-1.349 1.967-2.573 0-0.195-0.021-0.385-0.061-0.568l0.003 0.018 3.24-2.917c0.244 0.082 0.526 0.131 0.819 0.133h0.001c0.001 0 0.003 0 0.004 0 0.248 0 0.487-0.034 0.714-0.098l-0.019 0.004c1.142-0.318 1.966-1.349 1.966-2.573 0-0.248-0.034-0.488-0.097-0.716l0.004 0.019z"></path>
</svg>
