<?xml version="1.0" encoding="utf-8"?>
<!-- Generator: Adobe Illustrator 20.1.0, SVG Export Plug-In . SVG Version: 6.00 Build 0)  -->
<svg version="1.1" id="Layer_1" xmlns="http://www.w3.org/2000/svg" xmlns:xlink="http://www.w3.org/1999/xlink" x="0px" y="0px"
	 viewBox="0 0 72 72" style="enable-background:new 0 0 72 72;" xml:space="preserve">
<g>
	<g>
		<g>
			<path d="M71,72H1c-0.6,0-1-0.4-1-1V1c0-0.6,0.4-1,1-1s1,0.4,1,1v69h69c0.6,0,1,0.4,1,1S71.6,72,71,72z"/>
		</g>
	</g>
	<g>
		<g>
			<path d="M52.7,22.4c-0.2,0-0.5-0.1-0.7-0.2c-0.4-0.4-0.5-1-0.1-1.4L63.7,7.3c0.4-0.4,1-0.5,1.4-0.1c0.4,0.4,0.5,1,0.1,1.4
				L53.4,22.1C53.2,22.3,53,22.4,52.7,22.4z"/>
		</g>
		<g>
			<path d="M34.3,26.9c-0.5,0-0.9-0.4-1-0.9c0-0.6,0.4-1,0.9-1.1l11.4-1c0.5,0,1,0.4,1.1,0.9c0,0.6-0.4,1-0.9,1.1L34.3,26.9
				C34.4,26.9,34.3,26.9,34.3,26.9z"/>
		</g>
		<g>
			<path d="M17.2,50.3c-0.2,0-0.3,0-0.5-0.1c-0.5-0.3-0.7-0.9-0.4-1.4l9.9-18.7c0.3-0.5,0.9-0.7,1.4-0.4c0.5,0.3,0.7,0.9,0.4,1.4
				l-9.9,18.7C17.9,50.1,17.5,50.3,17.2,50.3z"/>
		</g>
		<g>
			<ellipse transform="matrix(0.9652 -0.2614 0.2614 0.9652 -13.2351 5.847)" cx="15.4" cy="52.7" rx="3.9" ry="3.9"/>
			<path d="M15.4,57.2c-0.8,0-1.6-0.2-2.3-0.6C12,56,11.3,55.1,11,53.9s-0.2-2.4,0.4-3.5c0.6-1.1,1.6-1.8,2.8-2.1
				c2.4-0.7,4.9,0.8,5.6,3.2l0,0c0.3,1.2,0.2,2.4-0.4,3.5c-0.6,1.1-1.6,1.8-2.8,2.1C16.2,57.2,15.8,57.2,15.4,57.2z M15.4,49.5
				c-0.3,0-0.5,0-0.8,0.1c-0.8,0.2-1.5,0.7-1.9,1.5c-0.4,0.7-0.5,1.6-0.3,2.4c0.2,0.8,0.7,1.5,1.5,1.9c0.7,0.4,1.6,0.5,2.4,0.3
				c0.8-0.2,1.5-0.7,1.9-1.5c0.4-0.7,0.5-1.6,0.3-2.4l0,0C18,50.5,16.7,49.5,15.4,49.5z"/>
		</g>
		<g>
			<ellipse transform="matrix(0.9652 -0.2614 0.2614 0.9652 -5.8719 8.5752)" cx="29.3" cy="26.4" rx="3.9" ry="3.9"/>
			<path d="M29.3,30.9c-2,0-3.9-1.3-4.4-3.4c-0.7-2.4,0.8-4.9,3.2-5.6c2.4-0.7,4.9,0.8,5.6,3.2c0.3,1.2,0.2,2.4-0.4,3.5
				c-0.6,1.1-1.6,1.8-2.8,2.1C30.1,30.9,29.7,30.9,29.3,30.9z M29.3,23.2c-0.3,0-0.5,0-0.8,0.1c-1.7,0.5-2.7,2.2-2.2,3.9
				c0.5,1.7,2.2,2.7,3.9,2.2c0.8-0.2,1.5-0.7,1.9-1.5c0.4-0.7,0.5-1.6,0.3-2.4l0,0C32,24.1,30.7,23.2,29.3,23.2z"/>
		</g>
		<g>
			<ellipse transform="matrix(0.9652 -0.2614 0.2614 0.9652 -4.6445 13.9056)" cx="50" cy="24.4" rx="3.9" ry="3.9"/>
			<path d="M50,29c-0.8,0-1.6-0.2-2.3-0.6c-1.1-0.6-1.8-1.6-2.1-2.8c-0.7-2.4,0.8-4.9,3.2-5.6c2.4-0.7,4.9,0.8,5.6,3.2l0,0
				c0.3,1.2,0.2,2.4-0.4,3.5c-0.6,1.1-1.6,1.8-2.8,2.1C50.8,28.9,50.4,29,50,29z M50,21.3c-0.3,0-0.5,0-0.8,0.1
				c-1.7,0.5-2.7,2.2-2.2,3.9c0.2,0.8,0.7,1.5,1.5,1.9c0.7,0.4,1.6,0.5,2.4,0.3c0.8-0.2,1.5-0.7,1.9-1.5c0.4-0.7,0.5-1.6,0.3-2.4
				l0,0C52.6,22.2,51.3,21.3,50,21.3z"/>
		</g>
		<g>
			<ellipse transform="matrix(0.9652 -0.2614 0.2614 0.9652 1.0656 17.7182)" cx="67.1" cy="4.9" rx="3.9" ry="3.9"/>
			<path d="M67.1,9.4c-0.8,0-1.6-0.2-2.3-0.6c-1.1-0.6-1.8-1.6-2.1-2.8c-0.7-2.4,0.8-4.9,3.2-5.6c2.4-0.7,4.9,0.8,5.6,3.2
				c0,0,0,0,0,0c0.3,1.2,0.2,2.4-0.4,3.5c-0.6,1.1-1.6,1.8-2.8,2.1C67.9,9.4,67.5,9.4,67.1,9.4z M67.1,1.7c-0.3,0-0.5,0-0.8,0.1
				c-1.7,0.5-2.7,2.2-2.2,3.9c0.2,0.8,0.7,1.5,1.5,1.9C66.3,8,67.2,8.1,68,7.9c0.8-0.2,1.5-0.7,1.9-1.5c0.4-0.7,0.5-1.6,0.3-2.4l0,0
				C69.8,2.6,68.5,1.7,67.1,1.7z"/>
		</g>
	</g>
</g>
</svg>
