<svg version="1.1" xmlns="http://www.w3.org/2000/svg" width="32" height="32" viewBox="0 0 32 32">
<title>strikethrough</title>
<path fill="#333" d="M26.667 14.667h-9.687c-7.917-2.643-6.55-7.503-6.487-7.707 0.573-1.793 1.58-3 3.077-3.667 4.097-1.83 10.377 0.92 10.43 0.947 0.171 0.086 0.373 0.136 0.587 0.136 0.736 0 1.333-0.597 1.333-1.333 0-0.556-0.341-1.033-0.825-1.233l-0.009-0.003c-0.287-0.14-7.397-3.267-12.597-0.943-2.203 0.98-3.73 2.76-4.537 5.277-0.159 0.579-0.25 1.244-0.25 1.93 0 1.283 0.32 2.492 0.884 3.551l-0.020-0.041c0.659 1.231 1.539 2.261 2.597 3.070l0.023 0.017h-5.853c-0.736 0-1.333 0.597-1.333 1.333s0.597 1.333 1.333 1.333v0h11.21c3.783 1.207 6.233 2.823 7.093 4.667 0.503 1.087 0.48 2.303-0.063 3.62-0.24 0.513-3.74 6.643-16.447 1.97-0.137-0.052-0.295-0.082-0.46-0.082-0.736 0-1.334 0.597-1.334 1.334 0 0.571 0.359 1.059 0.864 1.249l0.009 0.003c3.793 1.387 6.883 1.907 9.42 1.907 7.79 0 10.237-4.963 10.373-5.243l0.020-0.047c0.853-2.023 0.867-4.030 0.043-5.81-0.617-1.333-1.693-2.527-3.213-3.567h3.817c0.736 0 1.333-0.597 1.333-1.333s-0.597-1.333-1.333-1.333v0z"></path>
</svg>
