<svg version="1.1" xmlns="http://www.w3.org/2000/svg" width="32" height="32" viewBox="0 0 32 32">
<title>subscript</title>
<path fill="#333" d="M18 28h-14c-0.736 0-1.333-0.597-1.333-1.333s0.597-1.333 1.333-1.333v0h14c0.736 0 1.333 0.597 1.333 1.333s-0.597 1.333-1.333 1.333v0zM18 1.333h-14c-0.736 0-1.333 0.597-1.333 1.333s0.597 1.333 1.333 1.333v0h5.667v18.667c0 0.736 0.597 1.333 1.333 1.333s1.333-0.597 1.333-1.333v0-18.667h5.667c0.736 0 1.333-0.597 1.333-1.333s-0.597-1.333-1.333-1.333v0zM28.943 28.393l-1.727-1.727 1.707-1.717c0.268-0.245 0.436-0.596 0.436-0.986 0-0.736-0.597-1.333-1.333-1.333-0.392 0-0.745 0.169-0.989 0.439l-0.001 0.001-1.703 1.697-1.703-1.707c-0.236-0.215-0.551-0.347-0.897-0.347-0.736 0-1.333 0.597-1.333 1.333 0 0.344 0.131 0.658 0.345 0.895l-0.001-0.001 1.707 1.727-1.727 1.737c-0.268 0.245-0.436 0.596-0.436 0.986 0 0.736 0.597 1.333 1.333 1.333 0.392 0 0.745-0.169 0.989-0.439l0.001-0.001 1.723-1.737 1.723 1.727c0.245 0.271 0.598 0.44 0.99 0.44 0.736 0 1.333-0.597 1.333-1.333 0-0.39-0.168-0.742-0.435-0.986l-0.001-0.001z"></path>
</svg>
