<?xml version="1.0" encoding="utf-8"?>
<!-- Generator: Adobe Illustrator 20.1.0, SVG Export Plug-In . SVG Version: 6.00 Build 0)  -->
<svg version="1.1" id="Layer_1" xmlns="http://www.w3.org/2000/svg" xmlns:xlink="http://www.w3.org/1999/xlink" x="0px" y="0px"
	 viewBox="0 0 72 72" style="enable-background:new 0 0 72 72;" xml:space="preserve">
<g>
	<g>
		<g>
			<path d="M67,72H5c-2.8,0-5-2.2-5-5V26.5c0-0.6,0-1.6,35.3-26.4c0.3-0.2,0.8-0.2,1.2,0C72,25.4,72,26.3,72,27v40
				C72,69.8,69.8,72,67,72z M2,26.9V67c0,1.7,1.3,3,3,3h62c1.7,0,3-1.4,3-3V27.3c-2.1-2.2-21.6-16.2-34.1-25.1
				C23.4,10.9,4.1,24.7,2,26.9z M70.1,27.5L70.1,27.5L70.1,27.5z M1.9,27L1.9,27L1.9,27z"/>
		</g>
		<g>
			<path d="M69.6,70.9c-0.2,0-0.4-0.1-0.6-0.2L39.9,47.3c-2.3-1.8-5.3-1.8-7.6,0L3,70.7c-0.4,0.3-1.1,0.3-1.4-0.2
				c-0.3-0.4-0.3-1.1,0.2-1.4L31,45.7c3-2.4,7.1-2.4,10.1,0l29.1,23.4c0.4,0.3,0.5,1,0.2,1.4C70.2,70.8,69.9,70.9,69.6,70.9z"/>
		</g>
		<g>
			<path d="M45,51c-0.3,0-0.5-0.1-0.7-0.3c-0.4-0.4-0.4-1,0-1.4l24.2-24.5c0.4-0.4,1-0.4,1.4,0c0.4,0.4,0.4,1,0,1.4L45.8,50.7
				C45.6,50.9,45.3,51,45,51z"/>
		</g>
		<g>
			<path d="M27.1,50.7c-0.3,0-0.5-0.1-0.7-0.3L2.2,25.9c-0.4-0.4-0.4-1,0-1.4c0.4-0.4,1-0.4,1.4,0L27.8,49c0.4,0.4,0.4,1,0,1.4
				C27.6,50.6,27.3,50.7,27.1,50.7z"/>
		</g>
	</g>
	<g>
		<path d="M33.5,31c-0.3,0-0.5-0.1-0.7-0.3l-6.5-6.4c-0.4-0.4-0.4-1,0-1.4c0.4-0.4,1-0.4,1.4,0l5.8,5.7l10.9-11.3
			c0.4-0.4,1-0.4,1.4,0c0.4,0.4,0.4,1,0,1.4l-11.6,12C34,30.9,33.8,31,33.5,31C33.5,31,33.5,31,33.5,31z"/>
	</g>
</g>
</svg>
