<svg xmlns="http://www.w3.org/2000/svg" width="32" height="32"><path d="M31.893 20.56A3.007 3.007 0 0 0 29 18.333H17a3 3 0 0 0-2.888 2.206l-.005.021A.963.963 0 0 0 14 21v8a3 3 0 0 0 3 3h12a3 3 0 0 0 3-3v-8a.976.976 0 0 0-.109-.445l.003.005zM17 20.333h12a.998.998 0 0 1 .877.525l.003.005-6.353 4a.969.969 0 0 1-1.06-.003l.004.002-6.333-4c.169-.312.491-.523.862-.53h.001zM29 30H17a1 1 0 0 1-1-1v-5.85l5.407 3.39c.452.287 1.002.457 1.592.457s1.14-.17 1.604-.464l-.012.007 5.41-3.39V29a1 1 0 0 1-1 1zm-18 2H4.995A1 1 0 0 1 4 31.104V31.1L3.097 22H1a1 1 0 0 1-1-1v-3-.026a8 8 0 0 1 15.216-3.458l.021.048a1 1 0 0 1-1.804.865l-.003-.006c-.982-2.054-3.043-3.448-5.43-3.448a6 6 0 0 0-6 6v.026V18v2h2.005a1 1 0 0 1 .995.896v.004l.907 9.1h4.197l.157-1.567a1.005 1.005 0 1 1 2 .204v-.004l-.26 2.467c-.053.508-.478.9-.995.9h-.005zm2-27a5 5 0 1 0-5 5 5 5 0 0 0 5-5zm-2 0a3 3 0 1 1-3-3 3 3 0 0 1 3 3z"/></svg>