<svg version="1.1" xmlns="http://www.w3.org/2000/svg" width="32" height="32" viewBox="0 0 32 32">
<title>subscript</title>
<path fill="#333" d="M30.273 30.277c-0.241 0.241-0.574 0.389-0.942 0.389s-0.701-0.149-0.942-0.389l0 0-1.723-1.73-1.723 1.727c-0.236 0.215-0.551 0.347-0.897 0.347-0.736 0-1.333-0.597-1.333-1.333 0-0.344 0.131-0.658 0.345-0.895l-0.001 0.001 1.727-1.727-1.707-1.717c-0.213-0.235-0.344-0.549-0.344-0.894 0-0.736 0.597-1.333 1.333-1.333 0.346 0 0.661 0.132 0.898 0.348l-0.001-0.001 1.703 1.697 1.703-1.707c0.245-0.271 0.598-0.44 0.99-0.44 0.736 0 1.333 0.597 1.333 1.333 0 0.39-0.168 0.742-0.435 0.986l-0.001 0.001-1.707 1.727 1.727 1.737c0.237 0.24 0.383 0.571 0.383 0.935 0 0.366-0.147 0.698-0.386 0.938l0-0zM20 4h-17.333c-0.736 0-1.333 0.597-1.333 1.333s0.597 1.333 1.333 1.333v0h7.333v22.667c0 0.736 0.597 1.333 1.333 1.333s1.333-0.597 1.333-1.333v0-22.667h7.333c0.736 0 1.333-0.597 1.333-1.333s-0.597-1.333-1.333-1.333v0z"></path>
</svg>
