<svg xmlns="http://www.w3.org/2000/svg" width="32" height="32"><path d="M31 32h-4a1 1 0 0 1-.785-1.619l-.002.002 3.31-4.22a1.89 1.89 0 0 0 .4-1.163.963.963 0 1 0-1.922.002v-.003a1 1 0 0 1-2 0 2.963 2.963 0 1 1 5.922.005v-.005a3.87 3.87 0 0 1-.833 2.405l.006-.008-2.04 2.603h1.943a1 1 0 0 1 0 2zM13.413 12L23.706 1.707A1 1 0 0 0 22.292.294l.001-.001L12 10.586 1.707.293A1 1 0 0 0 .294 1.707l-.001-.001 10.293 10.293L.293 22.292a1 1 0 0 0 0 1.414 1 1 0 0 0 1.414 0L12 13.413l10.293 10.293a1 1 0 0 0 1.414 0 1 1 0 0 0 0-1.414z"/></svg>