<svg version="1.1" xmlns="http://www.w3.org/2000/svg" width="32" height="32" viewBox="0 0 32 32">
<title>subscriber</title>
<path fill="#333" d="M25.213 6.073c-3.233-2.31-6.723-4.74-8.073-5.693-0.335-0.234-0.75-0.374-1.198-0.374s-0.864 0.14-1.205 0.379l0.007-0.005c-14.743 10.187-14.743 10.38-14.743 11.313v18.197c0 0 0 0 0 0 0 1.163 0.941 2.106 2.103 2.11h27.79c1.164-0.002 2.107-0.946 2.107-2.11 0 0 0 0 0 0v0-18c0-0.873 0-0.963-6.787-5.817zM2.667 13.64l8.15 8.257-8.15 5.87zM15.873 21.54c0.035-0.025 0.078-0.040 0.125-0.040s0.090 0.015 0.126 0.040l-0.001-0 10.817 7.793h-21.883zM21.183 21.9l8.15-8.233v14.103zM15.937 2.79c5.373 3.75 9.683 6.83 11.963 8.543l-8.9 9-1.333-0.957c-0.466-0.339-1.050-0.543-1.682-0.543s-1.216 0.203-1.69 0.548l0.008-0.006-1.303 0.957-9-9.107c2.263-1.677 6.567-4.72 11.937-8.437zM14.887 15.667c-0 0-0.001 0-0.001 0-0.365 0-0.695-0.146-0.936-0.383l-2.886-2.84c-0.245-0.242-0.397-0.578-0.397-0.95 0-0.737 0.597-1.334 1.334-1.334 0.365 0 0.696 0.147 0.937 0.384l1.923 1.893 4.177-4.36c0.243-0.253 0.585-0.411 0.963-0.411 0.737 0 1.334 0.597 1.334 1.334 0 0.359-0.141 0.684-0.371 0.924l0-0-5.117 5.333c-0.239 0.249-0.572 0.405-0.942 0.41h-0.001z"></path>
</svg>
