<svg xmlns="http://www.w3.org/2000/svg" width="32" height="32"><path d="M23.707 30.293a1 1 0 0 1 0 1.414 1 1 0 0 1-1.414 0L12 21.414 1.707 31.707a1 1 0 0 1-1.414 0 1 1 0 0 1 0-1.414L10.586 20 .293 9.707a1 1 0 0 1 1.414-1.413l-.001-.001 10.293 10.293L22.292 8.293a1 1 0 0 1 1.413 1.414l.001-.001-10.293 10.293zM31.93 9a1 1 0 0 0-1-1h-1.85l2.077-2.597A3.839 3.839 0 0 0 32 3a3 3 0 1 0-6 0 1 1 0 0 0 2 0 1 1 0 0 1 2 0 1.864 1.864 0 0 1-.406 1.16l.003-.004-3.377 4.22A1 1 0 0 0 27 9.999h3.93a1 1 0 0 0 1-1z"/></svg>