<svg version="1.1" xmlns="http://www.w3.org/2000/svg" width="32" height="32" viewBox="0 0 32 32">
<title>superscript</title>
<path fill="#333" d="M21.333 5.333c0 0.736-0.597 1.333-1.333 1.333v0h-7.333v22.667c0 0.736-0.597 1.333-1.333 1.333s-1.333-0.597-1.333-1.333v0-22.667h-7.333c-0.736 0-1.333-0.597-1.333-1.333s0.597-1.333 1.333-1.333v0h17.333c0.736 0 1.333 0.597 1.333 1.333v0zM30.277 7.060l-1.727-1.727 1.707-1.717c0.213-0.235 0.344-0.549 0.344-0.894 0-0.736-0.597-1.333-1.333-1.333-0.346 0-0.661 0.132-0.898 0.348l0.001-0.001-1.703 1.697-1.703-1.707c-0.245-0.271-0.598-0.44-0.99-0.44-0.736 0-1.333 0.597-1.333 1.333 0 0.39 0.168 0.742 0.435 0.986l0.001 0.001 1.707 1.727-1.727 1.737c-0.268 0.245-0.436 0.596-0.436 0.986 0 0.736 0.597 1.333 1.333 1.333 0.392 0 0.745-0.169 0.989-0.439l0.001-0.001 1.723-1.737 1.723 1.727c0.245 0.271 0.598 0.44 0.99 0.44 0.736 0 1.333-0.597 1.333-1.333 0-0.39-0.168-0.742-0.435-0.986l-0.001-0.001z"></path>
</svg>
