<svg version="1.1" xmlns="http://www.w3.org/2000/svg" width="32" height="32" viewBox="0 0 32 32">
<title>swap</title>
<path fill="#333" d="M32 17.333v5.78c0 2-1.31 3.553-3 3.553h-25.213l2.58 3.157c0.187 0.228 0.3 0.522 0.3 0.843 0 0.737-0.597 1.334-1.334 1.334-0.416 0-0.787-0.19-1.031-0.488l-0.002-0.002-3.74-4.577c-0.349-0.429-0.56-0.983-0.56-1.585 0-0.005 0-0.010 0-0.016v0.001c-0-0.004-0-0.009-0-0.014 0-0.603 0.211-1.157 0.564-1.591l-0.004 0.005 3.74-4.577c0.246-0.3 0.618-0.49 1.033-0.49 0.737 0 1.334 0.597 1.334 1.334 0 0.321-0.113 0.616-0.302 0.846l0.002-0.002-2.583 3.157h25.233c0.208-0.207 0.336-0.493 0.336-0.81 0-0.027-0.001-0.054-0.003-0.081l0 0.004v-5.78c0-0.736 0.597-1.333 1.333-1.333s1.333 0.597 1.333 1.333v0zM32 6.667c0-0.001 0-0.003 0-0.005 0-0.603-0.211-1.156-0.564-1.59l0.004 0.005-3.74-4.587c-0.246-0.3-0.618-0.49-1.033-0.49-0.737 0-1.334 0.597-1.334 1.334 0 0.321 0.113 0.616 0.302 0.846l-0.002-0.002 2.58 3.157h-25.213c-1.69 0-3 1.56-3 3.553v5.78c0 0.736 0.597 1.333 1.333 1.333s1.333-0.597 1.333-1.333v0-5.78c-0.002-0.023-0.003-0.050-0.003-0.077 0-0.316 0.128-0.603 0.336-0.809l0-0h25.233l-2.6 3.157c-0.187 0.228-0.3 0.522-0.3 0.843 0 0.737 0.597 1.334 1.334 1.334 0.416 0 0.787-0.19 1.031-0.488l0.002-0.002 3.74-4.573c0.349-0.43 0.56-0.983 0.56-1.586 0-0.006-0-0.012-0-0.018v0.001z"></path>
</svg>
