<svg xmlns="http://www.w3.org/2000/svg" width="32" height="32"><path d="M31.707 27.707l-4 4a1 1 0 0 1-1.414 0 1 1 0 0 1 0-1.414L28.586 28H6.999a3.075 3.075 0 0 1-3.001-3.072l.001-.064v.003V13a1 1 0 0 1 2 0v11.867A1.077 1.077 0 0 0 6.995 26h21.59l-2.293-2.293a1 1 0 0 1 1.414-1.413l-.001-.001 4 4c.045.046.087.096.124.15l.002.004.04.073c0 .033.037.063.05.097s.02.067.03.1a.56.56 0 0 1 .025.081l.001.006a.932.932 0 0 1-.001.4l.001-.006a.855.855 0 0 1-.029.093l.002-.006c0 .033 0 .067-.03.1s-.033.063-.05.097l-.04.073c-.04.057-.081.107-.127.153zM25 4H3.413l2.293-2.293A1 1 0 0 0 4.292.294l.001-.001-4 4a1.123 1.123 0 0 0-.124.15l-.002.004-.04.073c0 .033-.037.063-.05.097s-.02.067-.03.1a.56.56 0 0 0-.025.081l-.001.006a.932.932 0 0 0 .001.4l-.001-.006a.855.855 0 0 0 .029.093l-.002-.006c0 .033 0 .067.03.1s.033.063.05.097l.04.073c.04.057.081.107.127.153l4 4a1 1 0 0 0 1.414 0 1 1 0 0 0 0-1.414L3.416 6.001h21.587a1.078 1.078 0 0 1 1 1.136v-.003 11.867a1 1 0 0 0 2 0V7.134l.001-.061a3.073 3.073 0 0 0-2.997-3.072h-.004z"/></svg>