<?xml version="1.0" encoding="utf-8"?>
<!-- Generator: Adobe Illustrator 20.1.0, SVG Export Plug-In . SVG Version: 6.00 Build 0)  -->
<svg version="1.1" id="Layer_2" xmlns="http://www.w3.org/2000/svg" xmlns:xlink="http://www.w3.org/1999/xlink" x="0px" y="0px"
	 viewBox="0 0 72 72" style="enable-background:new 0 0 72 72;" xml:space="preserve">
<g>
	<g>
		<g>
			<g>
				<path d="M1.7,34.2c-0.6,0-1-0.4-1-1V20.7c0-2.5,2-4.5,4.5-4.5h64c0.6,0,1,0.4,1,1s-0.4,1-1,1h-64c-1.4,0-2.5,1.1-2.5,2.5v12.5
					C2.7,33.8,2.2,34.2,1.7,34.2z"/>
			</g>
		</g>
		<g>
			<g>
				<path d="M66,55.7H2c-0.6,0-1-0.4-1-1s0.4-1,1-1h64c1.4,0,2.5-1.1,2.5-2.5V38.8c0-0.6,0.4-1,1-1s1,0.4,1,1v12.5
					C70.5,53.7,68.5,55.7,66,55.7z"/>
			</g>
		</g>
	</g>
	<g>
		<path d="M58.5,29.9c-0.3,0-0.6-0.1-0.8-0.3c-0.4-0.4-0.3-1.1,0.1-1.4L69.6,18c0.3-0.2,0.4-0.5,0.4-0.8s-0.1-0.6-0.4-0.8L57.8,6.3
			c-0.4-0.4-0.5-1-0.1-1.4c0.4-0.4,1-0.5,1.4-0.1l11.8,10.1c0.7,0.6,1.1,1.5,1.1,2.3c0,0.9-0.4,1.8-1.1,2.4L59.1,29.7
			C58.9,29.8,58.7,29.9,58.5,29.9z"/>
	</g>
	<g>
		<path d="M13.5,67.5c-0.2,0-0.5-0.1-0.7-0.2L1.1,57.2C0.4,56.6,0,55.7,0,54.8s0.4-1.8,1.1-2.3l11.8-10.1c0.4-0.4,1.1-0.3,1.4,0.1
			s0.3,1.1-0.1,1.4L2.4,54C2.1,54.2,2,54.5,2,54.8s0.1,0.6,0.4,0.8l11.8,10.1c0.4,0.4,0.5,1,0.1,1.4C14.1,67.4,13.8,67.5,13.5,67.5z
			"/>
	</g>
</g>
</svg>
