<?xml version="1.0" encoding="utf-8"?>
<!-- Generator: Adobe Illustrator 20.1.0, SVG Export Plug-In . SVG Version: 6.00 Build 0)  -->
<svg version="1.1" id="Layer_1" xmlns="http://www.w3.org/2000/svg" xmlns:xlink="http://www.w3.org/1999/xlink" x="0px" y="0px"
	 viewBox="0 0 72 72" style="enable-background:new 0 0 72 72;" xml:space="preserve">
<path d="M48,60H24c-0.6,0-1-0.4-1-1s0.4-1,1-1h6V30h-6c-0.6,0-1-0.4-1-1s0.4-1,1-1h17c0.6,0,1,0.4,1,1v29h6c0.6,0,1,0.4,1,1
	S48.6,60,48,60z M32,58h8V30h-8V58z M36,23.8c-3.3,0-6-2.7-6-6s2.7-6,6-6s6,2.7,6,6S39.3,23.8,36,23.8z M36,13.8c-2.2,0-4,1.8-4,4
	s1.8,4,4,4c2.2,0,4-1.8,4-4S38.2,13.8,36,13.8z M36,72C16.1,72,0,55.9,0,36S16.1,0,36,0s36,16.1,36,36S55.9,72,36,72z M36,2
	C17.3,2,2,17.3,2,36c0,18.7,15.3,34,34,34c18.7,0,34-15.3,34-34C70,17.3,54.7,2,36,2z"/>
</svg>
