<svg version="1.1" xmlns="http://www.w3.org/2000/svg" width="32" height="32" viewBox="0 0 32 32">
<title>table-column</title>
<path fill="#333" d="M30.667 6.667c-0.066 0.002-0.129 0.009-0.19 0.021l0.007-0.001c-0.054-0.011-0.117-0.018-0.182-0.020l-0.001-0h-6.667c-0.736 0-1.333 0.597-1.333 1.333v0 22.667c0 0.736 0.597 1.333 1.333 1.333v0h6.667c0.066-0.002 0.129-0.009 0.19-0.021l-0.007 0.001c0.054 0.011 0.117 0.018 0.182 0.020l0.001 0c0.736 0 1.333-0.597 1.333-1.333v0-22.667c0-0.736-0.597-1.333-1.333-1.333v0zM29.333 22h-4.367v-5.333h4.367zM29.333 14h-4.367v-4.667h4.367zM24.967 24.667h4.367v4.667h-4.367zM19.667 0.667v22.667c0 0.368-0.298 0.667-0.667 0.667v0h-6c-0.368 0-0.667-0.298-0.667-0.667v0-22.667c0-0.368 0.298-0.667 0.667-0.667v0h6c0.368 0 0.667 0.298 0.667 0.667v0zM8.367 6.667c-0.066 0.002-0.129 0.009-0.19 0.021l0.007-0.001c-0.054-0.011-0.117-0.018-0.182-0.020l-0.001-0h-6.667c-0.736 0-1.333 0.597-1.333 1.333v0 22.667c0 0.736 0.597 1.333 1.333 1.333v0h6.667c0.066-0.002 0.129-0.009 0.19-0.021l-0.007 0.001c0.054 0.011 0.117 0.018 0.182 0.020l0.001 0c0.736 0 1.333-0.597 1.333-1.333v0-22.667c0-0.736-0.597-1.333-1.333-1.333v0zM7.033 22h-4.367v-5.333h4.367zM7.033 14h-4.367v-4.667h4.367zM2.667 24.667h4.367v4.667h-4.367z"></path>
</svg>
