<svg version="1.1" xmlns="http://www.w3.org/2000/svg" width="32" height="32" viewBox="0 0 32 32">
<title>table-row</title>
<path fill="#333" d="M25.333 23.633c0-0.736-0.597-1.333-1.333-1.333v0h-22.667c-0.736 0-1.333 0.597-1.333 1.333v0 6.667c0.002 0.066 0.009 0.129 0.021 0.19l-0.001-0.007c-0.011 0.054-0.018 0.117-0.020 0.182l-0 0.001c0 0.736 0.597 1.333 1.333 1.333v0h22.667c0.736 0 1.333-0.597 1.333-1.333v0c-0.002-0.066-0.009-0.129-0.021-0.19l0.001 0.007c0.011-0.054 0.018-0.117 0.020-0.182l0-0.001zM10 29.203v-4.237h5.333v4.367h-5.333v-0.13zM7.333 29.333h-4.667v-4.367h4.667v4.367zM18 29.213v-4.247h4.667v4.367h-4.667v-0.12zM32 13v6c0 0.368-0.298 0.667-0.667 0.667v0h-22.667c-0.368 0-0.667-0.298-0.667-0.667v0-6c0-0.368 0.298-0.667 0.667-0.667v0h22.667c0.368 0 0.667 0.298 0.667 0.667v0zM25.333 1.333c0-0.736-0.597-1.333-1.333-1.333v0h-22.667c-0.736 0-1.333 0.597-1.333 1.333v0 6.667c0.002 0.066 0.009 0.129 0.021 0.19l-0.001-0.007c-0.011 0.054-0.018 0.117-0.020 0.182l-0 0.001c0 0.736 0.597 1.333 1.333 1.333v0h22.667c0.736 0 1.333-0.597 1.333-1.333v0c-0.002-0.066-0.009-0.129-0.021-0.19l0.001 0.007c0.011-0.054 0.018-0.117 0.020-0.182l0-0.001zM10 6.903v-4.237h5.333v4.367h-5.333v-0.13zM7.333 7.033h-4.667v-4.367h4.667v4.367zM18 6.917v-4.25h4.667v4.367h-4.667v-0.117z"></path>
</svg>
