<svg xmlns="http://www.w3.org/2000/svg" width="32" height="32"><path d="M31 10h-6.667a1 1 0 0 0-1 1v20a1 1 0 0 0 1 1H31a1 1 0 0 0 1-1V11a1 1 0 0 0-1-1zm-5.667 6.667V12H30v4.667zm4.667 2v4.667h-4.667v-4.667zm-4.667 6.666H30V30h-4.667zM21 27.733l-4.333 4c-.018.015-.037.031-.058.045l-.002.002-.08.06-.087.047c-.027 0-.053.03-.08.04l-.107.033a.533.533 0 0 1-.072.019l-.004.001a.872.872 0 0 1-.386-.001l.006.001a.677.677 0 0 1-.081-.021l.005.001-.107-.033c-.027 0-.053-.027-.08-.04l-.087-.047-.08-.06a1.03 1.03 0 0 1-.032-.044l-.002-.003-4.333-4a1 1 0 0 1 1.336-1.465l-.003-.002L15 28.716v-8.383a1 1 0 0 1 2 0v8.383l2.667-2.45a1 1 0 0 1 1.332 1.468l.001-.001zM12 0v17.333h8V0zM7.667 10H1a1 1 0 0 0-1 1v20a1 1 0 0 0 1 1h6.667a1 1 0 0 0 1-1V11a1 1 0 0 0-1-1zM2 16.667V12h4.667v4.667zm4.667 2v4.667H2v-4.667zM2 25.333h4.667V30H2z"/></svg>