<svg xmlns="http://www.w3.org/2000/svg" width="32" height="32"><path d="M22 1v6.667a1 1 0 0 1-1 1H1a1 1 0 0 1-1-1V1a1 1 0 0 1 1-1h20a1 1 0 0 1 1 1zm-6.667 5.667H20V2h-4.667zm-2-4.667H8.666v4.667h4.667zM6.667 6.667V2H2v4.667zM4.267 11l-4 4.333a.526.526 0 0 0-.045.058l-.002.002c-.02.027-.04.05-.06.08s-.03.057-.047.087a.542.542 0 0 0-.073.187.533.533 0 0 0-.019.072l-.001.004a.872.872 0 0 0 .001.386l-.001-.006a.677.677 0 0 0 .021.081l-.001-.005c0 .037.02.07.033.107s.027.053.04.08.03.06.047.087.04.053.06.08l.044.032.003.002 4 4.333a1 1 0 0 0 1.465-1.336l.002.003L3.284 17h8.383a1 1 0 0 0 0-2H3.284l2.45-2.667a1 1 0 0 0-1.468-1.332L4.267 11zM32 20H14.667v-8H32zm-10 4.333V31a1 1 0 0 1-1 1H1a1 1 0 0 1-1-1v-6.667a1 1 0 0 1 1-1h20a1 1 0 0 1 1 1zM15.333 30H20v-4.667h-4.667zm-2-4.667H8.666V30h4.667zM6.667 30v-4.667H2V30z"/></svg>