<?xml version="1.0" encoding="utf-8"?>
<!-- Generator: Adobe Illustrator 20.1.0, SVG Export Plug-In . SVG Version: 6.00 Build 0)  -->
<svg version="1.1" id="Layer_2" xmlns="http://www.w3.org/2000/svg" xmlns:xlink="http://www.w3.org/1999/xlink" x="0px" y="0px"
	 viewBox="0 0 72 72" style="enable-background:new 0 0 72 72;" xml:space="preserve">
<g>
	<path d="M53,37c-0.6,0-1-0.4-1-1V1c0-0.6,0.4-1,1-1s1,0.4,1,1v35C54,36.6,53.6,37,53,37z M36,72c-0.6,0-1-0.4-1-1V1
		c0-0.6,0.4-1,1-1s1,0.4,1,1v70C37,71.6,36.6,72,36,72z M19,72c-0.6,0-1-0.4-1-1V1c0-0.6,0.4-1,1-1s1,0.4,1,1v70
		C20,71.6,19.6,72,19,72z M71,20H1c-0.6,0-1-0.4-1-1s0.4-1,1-1h70c0.6,0,1,0.4,1,1S71.6,20,71,20z M71,37H1c-0.6,0-1-0.4-1-1
		s0.4-1,1-1h70c0.6,0,1,0.4,1,1S71.6,37,71,37z M36,54H1c-0.6,0-1-0.4-1-1s0.4-1,1-1h35c0.6,0,1,0.4,1,1S36.6,54,36,54z M71,2H1
		C0.4,2,0,1.6,0,1s0.4-1,1-1h70c0.6,0,1,0.4,1,1S71.6,2,71,2z M36,72H1c-0.6,0-1-0.4-1-1s0.4-1,1-1h35c0.6,0,1,0.4,1,1
		S36.6,72,36,72z M1,72c-0.6,0-1-0.4-1-1V1c0-0.6,0.4-1,1-1s1,0.4,1,1v70C2,71.6,1.6,72,1,72z M71,37c-0.6,0-1-0.4-1-1V1
		c0-0.6,0.4-1,1-1s1,0.4,1,1v35C72,36.6,71.6,37,71,37z"/>
	<path d="M57,72c-8.3,0-15-6.7-15-15s6.7-15,15-15c8.3,0,15,6.7,15,15S65.3,72,57,72z M57,44c-7.2,0-13,5.8-13,13s5.8,13,13,13
		c7.2,0,13-5.8,13-13S64.2,44,57,44z M57,64c-0.6,0-1-0.4-1-1V51c0-0.6,0.4-1,1-1s1,0.4,1,1v12C58,63.6,57.6,64,57,64z M63,58H51
		c-0.6,0-1-0.4-1-1s0.4-1,1-1h12c0.6,0,1,0.4,1,1S63.6,58,63,58z"/>
</g>
</svg>
