<svg version="1.1" xmlns="http://www.w3.org/2000/svg" width="32" height="32" viewBox="0 0 32 32">
<title>table-cell</title>
<path fill="#333" d="M30.667 0h-29.333c-0.736 0-1.333 0.597-1.333 1.333v0 29.333c0 0.736 0.597 1.333 1.333 1.333v0h29.333c0.736 0 1.333-0.597 1.333-1.333v0-29.333c0-0.736-0.597-1.333-1.333-1.333v0zM22 2.667v4.667h-4.667v-4.667zM14.667 2.667v4.667h-4.667v-4.667zM2.667 2.667h4.667v4.667h-4.667zM2.667 10h4.667v4.667h-4.667zM2.667 17.333h4.667v4.667h-4.667zM7.333 29.333h-4.667v-4.667h4.667zM10 29.333v-4.667h4.697v4.667zM17.363 29.333v-4.667h4.637v4.667zM29.333 29.333h-4.667v-4.667h4.667zM29.333 22h-4.667v-4.667h4.667zM29.333 14.667h-4.667v-4.667h4.667zM29.333 7.333h-4.667v-4.667h4.667z"></path>
</svg>
