<svg version="1.1" xmlns="http://www.w3.org/2000/svg" width="32" height="32" viewBox="0 0 32 32">
<title>table-add</title>
<path fill="#333" d="M30.667 0h-29.333c-0.736 0-1.333 0.597-1.333 1.333v0 29.333c0 0.736 0.597 1.333 1.333 1.333v0h14.28c0.070-0.002 0.136-0.009 0.201-0.021l-0.008 0.001c0.057 0.011 0.124 0.018 0.192 0.020l0.002 0c0.736 0 1.333-0.597 1.333-1.333v0-13.333h13.333c0.736 0 1.333-0.597 1.333-1.333v0-14.667c0-0.736-0.597-1.333-1.333-1.333v0zM14.667 29.333h-4.667v-4.667h4.667zM7.333 29.333h-4.667v-4.667h4.667zM2.667 2.667h4.667v4.667h-4.667zM2.667 22v-4.667h4.667v4.667zM2.667 14.667v-4.667h4.667v4.667zM10 10h4.667v4.667h-4.667zM10 7.333v-4.667h4.667v4.667zM17.333 2.667h4.667v4.667h-4.667zM24.667 2.667h4.667v4.667h-4.667zM29.333 10v4.667h-4.667v-4.667zM14.667 22h-4.667v-4.667h4.667zM17.333 10h4.667v4.667h-4.667zM30 24.667c0 0.736-0.597 1.333-1.333 1.333v0h-2.667v2.667c0 0.736-0.597 1.333-1.333 1.333s-1.333-0.597-1.333-1.333v0-2.667h-2.667c-0.736 0-1.333-0.597-1.333-1.333s0.597-1.333 1.333-1.333v0h2.667v-2.667c0-0.736 0.597-1.333 1.333-1.333s1.333 0.597 1.333 1.333v0 2.667h2.667c0.736 0 1.333 0.597 1.333 1.333v0z"></path>
</svg>
