<?xml version="1.0" encoding="utf-8"?>
<!-- Generator: Adobe Illustrator 20.1.0, SVG Export Plug-In . SVG Version: 6.00 Build 0)  -->
<svg version="1.1" xmlns="http://www.w3.org/2000/svg" xmlns:xlink="http://www.w3.org/1999/xlink" x="0px" y="0px"
	 viewBox="0 0 72 72" style="enable-background:new 0 0 72 72;" xml:space="preserve">
<style type="text/css">
	.st0{display:none;}
</style>
<g id="Layer_2" class="st0">
</g>
<g id="Layer_3">
	<g>
		<g>
			<path d="M20.9,55.7c-0.3,0-0.5-0.1-0.7-0.3L0.3,36.1C0.1,35.9,0,35.6,0,35.4c0-0.3,0.1-0.5,0.3-0.7l19.9-19.1
				c0.4-0.4,1-0.4,1.4,0c0.4,0.4,0.4,1,0,1.4L2.4,35.4L21.6,54c0.4,0.4,0.4,1,0,1.4C21.4,55.6,21.2,55.7,20.9,55.7z"/>
		</g>
		<g>
			<path d="M51.1,55.7c-0.3,0-0.5-0.1-0.7-0.3c-0.4-0.4-0.4-1,0-1.4l19.2-18.6L50.4,17c-0.4-0.4-0.4-1,0-1.4c0.4-0.4,1-0.4,1.4,0
				l19.9,19.1c0.2,0.2,0.3,0.4,0.3,0.7c0,0.3-0.1,0.5-0.3,0.7L51.8,55.4C51.6,55.6,51.3,55.7,51.1,55.7z"/>
		</g>
		<g>
			<path d="M26.3,66.1c-0.1,0-0.2,0-0.3-0.1c-0.5-0.2-0.8-0.7-0.6-1.3L44.7,6.6C44.9,6.1,45.5,5.8,46,6c0.5,0.2,0.8,0.7,0.6,1.3
				L27.3,65.4C27.1,65.8,26.7,66.1,26.3,66.1z"/>
		</g>
	</g>
</g>
</svg>
