<svg xmlns="http://www.w3.org/2000/svg" width="32" height="32"><path d="M23 24h-.005a1 1 0 0 1-.662-1.749l.001-.001 7.147-6.28-7.147-6.217a1.005 1.005 0 1 1 1.335-1.505l-.001-.001 8 6.963a.998.998 0 0 1 .001 1.505l-.001.001-8 7.033a.995.995 0 0 1-.661.25h-.006zm-9.367 4.593L20.3 3.926a1 1 0 0 0-1.932-.527l-.002.007-6.667 24.667a1 1 0 0 0 1.932.527l.002-.007zM9.75 23.667a.997.997 0 0 0-.082-1.416l-.001-.001-7.147-6.28 7.147-6.217a1.005 1.005 0 1 0-1.335-1.505l.001-.001-8 6.963a.998.998 0 0 0-.001 1.505l.001.001 8 7.033a.997.997 0 0 0 1.416-.082l.001-.001z"/></svg>