<svg version="1.1" xmlns="http://www.w3.org/2000/svg" width="32" height="32" viewBox="0 0 32 32">
<title>tag</title>
<path fill="#333" d="M9.333 24c-0.001 0-0.001 0-0.002 0-0.326 0-0.625-0.117-0.857-0.312l0.002 0.002-8-6.69c-0.292-0.246-0.477-0.613-0.477-1.022 0-0.006 0-0.013 0-0.019v0.001c0.002-0.41 0.189-0.775 0.481-1.018l0.002-0.002 8-6.633c0.233-0.204 0.54-0.329 0.877-0.329 0.736 0 1.333 0.597 1.333 1.333 0 0.425-0.198 0.803-0.508 1.047l-0.003 0.002-6.767 5.61 6.773 5.667c0.298 0.246 0.487 0.616 0.487 1.030 0 0.736-0.597 1.333-1.333 1.333-0.004 0-0.007 0-0.011-0h0.001zM23.523 23.69l8-6.69c0.292-0.246 0.477-0.613 0.477-1.022 0-0.006-0-0.013-0-0.019v0.001c-0.002-0.41-0.189-0.775-0.481-1.018l-0.002-0.002-8-6.633c-0.224-0.177-0.511-0.284-0.823-0.284-0.736 0-1.333 0.597-1.333 1.333 0 0.4 0.176 0.759 0.455 1.003l0.002 0.001 6.767 5.61-6.773 5.667c-0.293 0.246-0.478 0.613-0.478 1.023 0 0.737 0.598 1.335 1.335 1.335 0.327 0 0.627-0.118 0.859-0.313l-0.002 0.002zM13.95 28.357l6.667-24c0.022-0.090 0.034-0.193 0.034-0.299 0-0.736-0.597-1.333-1.333-1.333-0.588 0-1.087 0.381-1.264 0.909l-0.003 0.009-6.667 24c-0.042 0.124-0.066 0.266-0.066 0.415 0 0.736 0.597 1.333 1.333 1.333 0.63 0 1.159-0.438 1.298-1.026l0.002-0.009z"></path>
</svg>
