<svg xmlns="http://www.w3.org/2000/svg" width="32" height="32"><path d="M17.16 32h-.002A3.028 3.028 0 0 1 15 31.1L1.563 17.666a3.053 3.053 0 0 1-.897-2.163V7.066a3.07 3.07 0 0 1 3.066-3.067h8.442c.844 0 1.607.344 2.158.9l13.437 13.434c.553.555.895 1.321.895 2.167s-.342 1.612-.895 2.167L19.332 31.1c-.553.556-1.318.9-2.163.9h-.011.001zM3.733 6c-.589 0-1.067.478-1.067 1.067v8.44c.002.294.12.559.31.753l13.43 13.427a1.062 1.062 0 0 0 1.506 0l8.44-8.44a1.062 1.062 0 0 0 0-1.506L12.925 6.314a1.051 1.051 0 0 0-.751-.313h-.002zm5.45 4.157a1.66 1.66 0 0 0-1.18-.49H8a1.667 1.667 0 1 0 1.184.49zm21.847 6.226a.997.997 0 0 0 .02-1.414L17.333.912a3.04 3.04 0 0 0-2.156-.913H5.666a1 1 0 0 0 0 2h9.513c.285 0 .541.119.723.31l13.713 14.053a.997.997 0 0 0 1.414.02z"/></svg>