<svg version="1.1" xmlns="http://www.w3.org/2000/svg" width="32" height="32" viewBox="0 0 32 32">
<title>tags</title>
<path fill="#333" d="M14.22 30.24h-0.217c-0.827-0.065-1.551-0.456-2.053-1.043l-0.003-0.004-11.613-13.457c-0.206-0.233-0.332-0.54-0.333-0.876v-0l0.043-10.667c-0-0.005-0-0.010-0-0.016 0-0.863 0.387-1.635 0.996-2.154l0.004-0.003c0.496-0.438 1.151-0.705 1.869-0.705 0.164 0 0.325 0.014 0.481 0.041l-0.017-0.002 10.29 1.73c0.318 0.054 0.591 0.214 0.789 0.442l0.001 0.002 11.597 13.443c0.441 0.527 0.708 1.212 0.708 1.96 0 0.899-0.387 1.707-1.002 2.268l-0.002 0.002-9.667 8.333c-0.495 0.439-1.15 0.707-1.867 0.707-0.001 0-0.002 0-0.003 0h0zM2.667 14.37l11.3 13.080c0.054 0.066 0.133 0.11 0.222 0.12l0.001 0c0.008 0.001 0.018 0.002 0.028 0.002 0.043 0 0.084-0.015 0.116-0.039l-0 0 9.667-8.333c0.059-0.069 0.094-0.159 0.094-0.257 0-0.085-0.027-0.163-0.072-0.228l0.001 0.001-11.287-13.083-9.813-1.633c-0.003-0-0.007-0-0.010-0-0.051 0-0.096 0.020-0.13 0.054v0c-0.042 0.030-0.070 0.078-0.073 0.133l-0 0zM21.14 30.333l9.783-8.537c0.662-0.597 1.077-1.457 1.077-2.415 0-0.801-0.29-1.534-0.77-2.1l0.004 0.005-10.35-12.353c-0.246-0.293-0.613-0.478-1.023-0.478-0.737 0-1.335 0.598-1.335 1.335 0 0.327 0.118 0.627 0.313 0.859l-0.002-0.002 10.353 12.353c0.090 0.103 0.145 0.238 0.145 0.386 0 0.158-0.063 0.302-0.165 0.408l0-0-9.787 8.54c-0.244 0.242-0.395 0.577-0.395 0.948 0 0.736 0.597 1.333 1.333 1.333 0.31 0 0.595-0.106 0.822-0.283l-0.003 0.002zM7.783 12.707c1.472-0.001 2.665-1.195 2.665-2.667s-1.194-2.667-2.667-2.667-2.667 1.194-2.667 2.667c0 0.737 0.299 1.404 0.782 1.887l0 0c0.479 0.482 1.143 0.78 1.876 0.78 0.004 0 0.007 0 0.011-0h-0.001z"></path>
</svg>
