<?xml version="1.0" encoding="utf-8"?>
<!-- Generator: Adobe Illustrator 20.1.0, SVG Export Plug-In . SVG Version: 6.00 Build 0)  -->
<svg version="1.1" id="Layer_4" xmlns="http://www.w3.org/2000/svg" xmlns:xlink="http://www.w3.org/1999/xlink" x="0px" y="0px"
	 viewBox="0 0 72 72" style="enable-background:new 0 0 72 72;" xml:space="preserve">
<g>
	<g>
		<g>
			<path d="M31,67.3c-0.1,0-0.3,0-0.5,0c-1.3-0.1-2.4-0.7-3.3-1.7L0.4,34.2c-0.2-0.2-0.2-0.4-0.2-0.6L0,8.4C0,7.1,0.6,5.9,1.6,5
				s2.3-1.2,3.7-1L30,8.1c0.2,0,0.4,0.2,0.6,0.3l26.9,31.4c0.8,1,1.3,2.2,1.2,3.5c-0.1,1.3-0.7,2.5-1.6,3.3L34,66.2
				C33.2,66.9,32.1,67.3,31,67.3z M2.2,33.1l26.6,31.1c0,0,0,0,0,0c0.5,0.6,1.2,0.9,1.9,1c0.7,0.1,1.5-0.2,2-0.6L55.7,45
				c0.6-0.5,0.9-1.1,0.9-1.9c0-0.8-0.2-1.5-0.7-2.1L29.3,10L4.9,6C4.2,5.8,3.4,6,2.9,6.5C2.3,7,2,7.7,2,8.4L2.2,33.1z"/>
		</g>
		<g>
			<path d="M12.6,23.7c-1.6,0-3.1-0.7-4.2-2c-1-1.1-1.4-2.6-1.3-4.1s0.8-2.8,1.9-3.8s2.6-1.4,4.1-1.3c1.5,0.1,2.8,0.8,3.8,1.9
				c1,1.1,1.4,2.6,1.3,4.1c-0.1,1.5-0.8,2.8-1.9,3.8C15.1,23.3,13.8,23.7,12.6,23.7z M12.6,14.5c-0.9,0-1.7,0.3-2.3,0.9
				C9.5,16,9.1,16.9,9,17.9c-0.1,1,0.2,1.9,0.8,2.6c1.3,1.5,3.5,1.7,5,0.4v0c0.7-0.6,1.2-1.5,1.2-2.4c0.1-1-0.2-1.9-0.8-2.6
				s-1.5-1.2-2.4-1.2C12.7,14.6,12.6,14.5,12.6,14.5z"/>
		</g>
	</g>
	<g>
		<path d="M46.3,68.1c-0.3,0-0.6-0.1-0.8-0.3c-0.4-0.4-0.3-1.1,0.1-1.4l23.2-19.8c0.7-0.6,1.1-1.4,1.1-2.3c0.1-0.9-0.2-1.8-0.8-2.5
			L44.6,13c-0.4-0.4-0.3-1.1,0.1-1.4c0.4-0.4,1.1-0.3,1.4,0.1l24.5,28.7c0.9,1.1,1.4,2.5,1.3,3.9c-0.1,1.4-0.7,2.7-1.8,3.7L47,67.8
			C46.8,68,46.6,68.1,46.3,68.1z"/>
	</g>
</g>
</svg>
