<svg xmlns="http://www.w3.org/2000/svg" width="32" height="32"><path d="M32 28.333a1 1 0 0 1-1 1h-4.143c-.455 1.544-1.86 2.651-3.523 2.651s-3.068-1.108-3.517-2.626l-.007-.026h-7.62c-.455 1.544-1.86 2.651-3.523 2.651s-3.068-1.108-3.517-2.626l-.007-.026H1a1 1 0 0 1 0-2h4.143c.455-1.544 1.86-2.651 3.523-2.651s3.068 1.108 3.517 2.626l.007.026h7.62c.455-1.544 1.86-2.651 3.523-2.651s3.068 1.108 3.517 2.626l.007.026H31a1 1 0 0 1 1 1zm-7.78-5.54l3.333-6.427a.981.981 0 0 0 .113-.46V.999a1 1 0 0 0-1-1h-6.667a1 1 0 0 0-1 1v14.907c0 .168.042.327.116.465l-.003-.005 3.333 6.427a1.002 1.002 0 0 0 1.771.006l.003-.005zM21 2h4.667v13.667l-2.333 4.493-2.333-4.493zm5.667 13.907zM9.553 22.793l3.333-6.427a.981.981 0 0 0 .113-.46V.999a1 1 0 0 0-1-1H5.332a1 1 0 0 0-1 1v14.907c0 .168.042.327.116.465l-.003-.005 3.333 6.427a1.001 1.001 0 0 0 1.771.006l.003-.005zM6.333 2H11v13.667L8.667 20.16l-2.333-4.493zM12 15.907z"/></svg>