<svg version="1.1" xmlns="http://www.w3.org/2000/svg" width="32" height="32" viewBox="0 0 32 32">
<title>timeline</title>
<path fill="#333" d="M9 24.667c-0.512-0-0.957-0.289-1.18-0.713l-0.003-0.007-3.333-6.427c-0.095-0.177-0.15-0.387-0.15-0.61 0-0.001 0-0.003 0-0.004v0-14.907c0-0.736 0.597-1.333 1.333-1.333v0h6.667c0.736 0 1.333 0.597 1.333 1.333v0 14.907c0 0.001 0 0.002 0 0.004 0 0.223-0.056 0.433-0.153 0.617l0.003-0.007-3.333 6.427c-0.227 0.431-0.671 0.72-1.183 0.72h-0zM7 16.58l2 3.857 2-3.857v-13.247h-4zM23 24.667c-0.512-0-0.957-0.289-1.18-0.713l-0.003-0.007-3.333-6.427c-0.095-0.177-0.15-0.387-0.15-0.61 0-0.001 0-0.003 0-0.004v0-14.907c0-0.736 0.597-1.333 1.333-1.333v0h6.667c0.736 0 1.333 0.597 1.333 1.333v0 14.907c0 0.001 0 0.002 0 0.004 0 0.223-0.055 0.433-0.153 0.617l0.003-0.007-3.333 6.427c-0.227 0.431-0.671 0.72-1.183 0.72h-0zM21 16.58l2 3.857 2-3.857v-13.247h-4zM30.667 27h-5.037c-0.503-0.991-1.515-1.658-2.683-1.658s-2.18 0.667-2.675 1.641l-0.008 0.017h-8.527c-0.504-0.991-1.515-1.658-2.683-1.658s-2.18 0.667-2.675 1.641l-0.008 0.017h-5.037c-0.736 0-1.333 0.597-1.333 1.333s0.597 1.333 1.333 1.333v0h5.037c0.503 0.991 1.516 1.658 2.683 1.658s2.18-0.667 2.675-1.641l0.008-0.017h8.527c0.503 0.991 1.515 1.658 2.683 1.658s2.18-0.667 2.675-1.641l0.008-0.017h5.037c0.736 0 1.333-0.597 1.333-1.333s-0.597-1.333-1.333-1.333v0z"></path>
</svg>
