<?xml version="1.0" encoding="utf-8"?>
<!-- Generator: Adobe Illustrator 20.1.0, SVG Export Plug-In . SVG Version: 6.00 Build 0)  -->
<svg version="1.1" id="Layer_1" xmlns="http://www.w3.org/2000/svg" xmlns:xlink="http://www.w3.org/1999/xlink" x="0px" y="0px"
	 viewBox="0 0 72 72" style="enable-background:new 0 0 72 72;" xml:space="preserve">
<g>
	<g>
		<path d="M36,72C16.1,72,0,55.9,0,36S16.1,0,36,0s36,16.1,36,36S55.9,72,36,72z M36,2C17.3,2,2,17.3,2,36c0,18.7,15.3,34,34,34
			c18.7,0,34-15.3,34-34C70,17.3,54.7,2,36,2z"/>
	</g>
	<g>
		<g>
			<path d="M35.3,71.4c-0.1,0-0.1,0-0.2,0c-0.5-0.1-0.9-0.6-0.8-1.1c0.9-5.7,1.6-12.5,1.3-13.9c-1.9-1.2-1.7-2.6-1.6-3.4
				c0-0.1,0-0.3,0-0.4c-0.1,0-0.2-0.1-0.5-0.1c-1.7-0.3-2.8-1.1-3.3-2.3c-0.9-2.1,0.6-4.5,0.7-4.8c0-0.1,0.1-0.1,0.2-0.2
				c0.7-0.7,1.4-1.6,1.3-2c0,0-0.1-0.1-0.3-0.2c-1.6-0.6-2.4-0.7-2.8-0.7c-0.4,0-1-0.1-1.4-0.8c0-0.1-0.1-0.2-0.2-0.4
				c-0.3-0.7-0.8-2.2-4.4-2.3c-2,0-3.5-0.6-4.4-1.7c-0.9-1.1-1-2.3-1-2.8c-0.2-0.7-1.2-4.1-3.7-5.2c-2.7-1.2-1.9-4.8-1.2-7.7
				c0.3-1.4,0.8-3.4,0.4-3.9c-1.1-1.9-1.1-6.8-1.1-7.8c0-0.6,0.5-1,1-1c0.6,0,1,0.5,1,1c-0.1,2.2,0.2,5.7,0.8,6.7
				c0.8,1.2,0.3,3.2-0.2,5.4c-0.5,2.3-1.1,4.9,0.1,5.4c3.8,1.6,4.8,6.5,4.9,6.7c0,0.1,0,0.2,0,0.3c0,0-0.1,0.8,0.5,1.5
				c0.5,0.6,1.5,1,2.9,1c4.7,0.1,5.8,2.5,6.1,3.5c0.5,0,1.5,0.1,3.2,0.8c1.1,0.4,1.4,1.2,1.5,1.7c0.3,1.5-1.3,3.2-1.8,3.7
				c-0.3,0.5-0.9,1.9-0.5,2.8c0.2,0.5,0.9,0.9,1.9,1.1c2.3,0.4,2.1,2,2,2.7c-0.1,0.7-0.1,1.1,0.8,1.6c0.6,0.3,1.8,1-0.5,15.8
				C36.2,71,35.7,71.4,35.3,71.4z M29.7,41L29.7,41L29.7,41z"/>
		</g>
		<g>
			<path d="M39.9,71.4c-0.1,0-0.3,0-0.4-0.1C39,71.1,38.7,70.5,39,70c0.5-1,4.6-10.1,7.5-11.8c1.6-1,1.7-1.4,1.7-2
				c0.1-1.2,0.4-2.3,2.5-4c1.2-1,1.9-2,1.7-2.6c-0.1-0.6-1-1.1-2.2-1.4c-0.3-0.1-8-1.9-7.5-5.9c0.2-1.4-0.9-1.8-4.6-2.4l-0.3,0
				c-0.5-0.1-1.4,0.1-2.2,0.3c-1.4,0.3-2.8,0.5-3.8,0.2c-0.7-0.2-3.5-1.6-3.1-3.4c0.1-0.5,0.4-0.8,0.7-0.9c0,0,0.1,0,0.1-0.1
				c0-0.1-0.1-0.1-0.1-0.2c-0.2-0.4-1.4,0.1-1.8,0.3c-0.4,0.2-0.9,0.2-1.2-0.1l-2.7-2.4c-0.3-0.3-0.4-0.7-0.3-1.1
				c0.1-0.3,1.1-2.9,3.2-3.5c0.7-0.2,1.9-0.2,3.2,0.9c1.2,1,1.9,1.4,2.2,1.6c-0.1-0.5-0.3-1.3-0.6-2c-0.2-0.4-0.1-0.9,0.3-1.1
				c1-0.9,2-2,2-2.3c0,0-0.1-0.2-0.2-0.4c-0.2-0.5-0.5-1.2-0.1-2c0.5-0.9,1.8-1.4,4.6-1.9c1.1-0.2,1.7-0.4,2-0.5
				c-0.2-0.1-0.4-0.3-0.6-0.3c0,0-0.1,0-0.1-0.1c-0.5-0.3-1.1-1-0.9-1.8c0.3-1.2,1.8-1.5,4-1.6c1.1-0.1,1.3-0.3,1.3-0.3
				c0.1-0.3-0.5-1.4-1.4-2.3c-0.1-0.1-0.1-0.2-0.2-0.3c-0.1-0.1-0.5-0.8-2.8-3.5c-0.7-0.8-1-0.9-1-0.9c-0.3,0.2-0.6,1.5-0.9,3.9
				c-0.2,1.6-0.9,2.3-1.5,2.6c-0.9,0.5-2,0.3-2.7,0c-1.2-0.6-2.8-2.3-3.3-2.9c-0.2-0.2-1.7-2.1-1-3.8c0.4-1.1,1.4-1.8,3.1-2.1
				c0.6-0.1,1.4-0.3,1.7-0.9c0.2-0.5,0-1.1,0-1.1c0-0.1-0.1-0.2-0.1-0.3l-0.7-4.4c-0.1-0.5,0.3-1.1,0.8-1.1C34.5,0,35,0.3,35.1,0.9
				l0.7,4.3c0.2,0.4,0.5,1.6-0.1,2.7c-0.5,1-1.6,1.6-3.2,1.9c-0.9,0.1-1.4,0.4-1.5,0.8c-0.2,0.5,0.3,1.4,0.7,1.9
				c0.7,0.8,2,2,2.7,2.4c0.2,0.1,0.6,0.2,0.9,0.1c0.2-0.1,0.4-0.5,0.5-1.1c0.3-2.7,0.7-5.1,2.4-5.6c1.5-0.4,2.7,1,3.1,1.5
				c2,2.4,2.7,3.3,3,3.7c0.6,0.6,2.4,2.7,1.8,4.4c-0.4,1-1.4,1.5-3,1.6c-0.6,0-1.1,0.1-1.4,0.1c0.6,0.4,1.1,1.1,1,1.9
				c-0.2,1.4-2.1,1.9-3.9,2.2c-2.2,0.3-2.9,0.7-3.1,0.8c0,0.1,0.1,0.2,0.1,0.3c0.1,0.3,0.3,0.7,0.3,1.1c0,1.1-1.2,2.4-2.2,3.4
				c0.5,1.3,0.8,3.1-0.2,3.9c-1.2,0.9-3.1-0.4-4.8-1.9c-0.8-0.7-1.3-0.6-1.4-0.5c-0.7,0.2-1.2,1-1.6,1.6l1.7,1.5
				c1.2-0.5,2.9-0.8,3.9,0.7c0.9,1.5,0.2,2.4-0.2,2.8c0.3,0.3,1.1,0.8,1.6,1c0.5,0.2,1.8,0,2.8-0.2c1.1-0.2,2.1-0.4,2.9-0.3l0.3,0
				c3.2,0.5,6.8,1,6.3,4.6c-0.2,1.5,3.7,3.1,5.9,3.7c2.7,0.6,3.5,1.9,3.7,2.9c0.2,1,0,2.7-2.4,4.6c-1.6,1.3-1.7,1.9-1.8,2.6
				c-0.1,1.2-0.4,2.2-2.7,3.5c-1.8,1.1-5,7.3-6.7,10.9C40.6,71.2,40.3,71.4,39.9,71.4z M30.6,37.6L30.6,37.6L30.6,37.6z M29.6,36
				L29.6,36L29.6,36z"/>
		</g>
	</g>
</g>
<g>
	<path d="M68.6,49.7c-0.2,0-0.4-0.1-0.6-0.2c-4.6-3.5-5.5-5.2-6.4-6.9c-0.4-0.8-0.8-1.5-1.5-2.4c-1.8-2.2-3.1-6-4-8.7
		c-0.4-1.1-0.8-2.2-1-2.6c-0.7-1.2-1.1-3.3-0.4-4.8c0.4-0.8,1.1-1.7,2.8-2c0.9-0.2,2-0.4,2.3-0.8c0.2-0.4,0.1-1.3-0.4-2.8
		c-0.6-1.6-0.2-2.6,0.2-3.2c1.2-1.7,3.9-1.6,4.2-1.6c0.6,0,1,0.5,1,1c0,0.6-0.5,1-1,1c-0.6,0-2.1,0.2-2.5,0.8
		c-0.2,0.3-0.2,0.8,0,1.4c0.8,2.2,0.9,3.4,0.3,4.4c-0.7,1.2-2.2,1.6-3.7,1.8c-0.7,0.1-1.1,0.4-1.3,0.9c-0.4,0.9-0.1,2.3,0.3,3
		c0.3,0.5,0.7,1.5,1.1,2.9c0.8,2.5,2.1,6.2,3.7,8.1c0.8,1.1,1.3,1.9,1.7,2.7c0.8,1.6,1.7,3,5.9,6.3c0.4,0.3,0.5,1,0.2,1.4
		C69.2,49.6,68.9,49.7,68.6,49.7z"/>
</g>
</svg>
