<?xml version="1.0" encoding="utf-8"?>
<!-- Generator: Adobe Illustrator 20.1.0, SVG Export Plug-In . SVG Version: 6.00 Build 0)  -->
<svg version="1.1" id="Layer_1" xmlns="http://www.w3.org/2000/svg" xmlns:xlink="http://www.w3.org/1999/xlink" x="0px" y="0px"
	 viewBox="0 0 72 72" style="enable-background:new 0 0 72 72;" xml:space="preserve">
<g>
	<path d="M54.9,72H17.1c-2.8,0-5.1-2.3-5.1-5V27c0-0.6,0.4-1,1-1s1,0.4,1,1v40c0,1.6,1.4,3,3.1,3h37.8c1.7,0,3.1-1.4,3.1-3V27
		c0-0.6,0.4-1,1-1s1,0.4,1,1v40C60,69.7,57.7,72,54.9,72z M7,22.9c-0.4,0-0.8-0.3-1-0.7c-0.1-0.5,0.2-1.1,0.7-1.2l13.5-3.6l-1.8-6.8
		C18,8.9,19,7.3,20.6,6.8l25.1-6.7C46.5-0.1,47.3,0,48,0.4c0.7,0.4,1.2,1,1.4,1.8L51.2,9l13.5-3.6c0.5-0.1,1.1,0.2,1.2,0.7
		c0.1,0.5-0.2,1.1-0.7,1.2l-14.5,3.9c0,0,0,0,0,0s0,0,0,0L7.3,22.8C7.2,22.8,7.1,22.9,7,22.9z M46.5,2c-0.1,0-0.2,0-0.3,0L21.1,8.8
		c-0.5,0.1-0.9,0.7-0.7,1.2l1.8,6.8l27-7.2l-1.8-6.8c-0.1-0.3-0.2-0.5-0.5-0.6C46.8,2,46.6,2,46.5,2z"/>
</g>
</svg>
