<svg xmlns="http://www.w3.org/2000/svg" width="32" height="32"><path d="M12.333 25.333a1 1 0 0 1-1-1V15a1 1 0 0 1 2 0v9.333a1 1 0 0 1-1 1zm8.334-1V15a1 1 0 0 0-2 0v9.333a1 1 0 0 0 2 0zM32 6.333a1 1 0 0 1-1 1h-3.667v21.2l.001.078A3.39 3.39 0 0 1 24.041 32H7.963a3.392 3.392 0 0 1-3.298-3.389l.001-.082v.004-21.2H.999a1 1 0 0 1 0-2h8.333V3.666c0-2.023 1.467-3.667 3.267-3.667h6.8c1.8 0 3.267 1.643 3.267 3.667v1.667h8.333a1 1 0 0 1 1 1zm-20.667-1h9.333V3.666c0-.903-.58-1.667-1.267-1.667h-6.8c-.687 0-1.267.763-1.267 1.667zm14 2H6.666v21.2A1.39 1.39 0 0 0 7.959 30h16.077a1.391 1.391 0 0 0 1.297-1.47v.004z"/></svg>