<?xml version="1.0" encoding="utf-8"?>
<!-- Generator: Adobe Illustrator 20.1.0, SVG Export Plug-In . SVG Version: 6.00 Build 0)  -->
<svg version="1.1" id="Layer_2" xmlns="http://www.w3.org/2000/svg" xmlns:xlink="http://www.w3.org/1999/xlink" x="0px" y="0px"
	 viewBox="0 0 72 72" style="enable-background:new 0 0 72 72;" xml:space="preserve">
<path d="M66,12H6c-0.6,0-1-0.4-1-1s0.4-1,1-1h60c0.6,0,1,0.4,1,1S66.6,12,66,12z M51,12c-0.6,0-1-0.4-1-1V3c0-0.5-0.5-1-1-1H23
	c-0.6,0-1,0.5-1,1v8c0,0.6-0.4,1-1,1s-1-0.4-1-1V3c0-1.7,1.4-3,3-3h26c1.7,0,3,1.3,3,3v8C52,11.6,51.6,12,51,12z M54.9,72H17.1
	c-2.8,0-5.1-2.3-5.1-5V11c0-0.6,0.4-1,1-1s1,0.4,1,1v56c0,1.6,1.4,3,3.1,3h37.8c1.7,0,3.1-1.4,3.1-3V11c0-0.6,0.4-1,1-1s1,0.4,1,1
	v56C60,69.7,57.7,72,54.9,72z M46.7,31.7L37.4,41l9.3,9.3c0.4,0.4,0.4,1,0,1.4C46.5,51.9,46.3,52,46,52s-0.5-0.1-0.7-0.3L36,42.4
	l-9.3,9.3C26.5,51.9,26.3,52,26,52s-0.5-0.1-0.7-0.3c-0.4-0.4-0.4-1,0-1.4l9.3-9.3l-9.3-9.3c-0.4-0.4-0.4-1,0-1.4s1-0.4,1.4,0
	l9.3,9.3l9.3-9.3c0.4-0.4,1-0.4,1.4,0S47.1,31.3,46.7,31.7z"/>
</svg>
