<svg version="1.1" xmlns="http://www.w3.org/2000/svg" width="32" height="32" viewBox="0 0 32 32">
<title>trash</title>
<path fill="#333" d="M29.333 5.333h-5.333v-2.64c0-1.537-0.917-2.693-2.133-2.693h-11.753c-1.207 0-2.113 1.143-2.113 2.667v2.667h-5.333c-0.736 0-1.333 0.597-1.333 1.333s0.597 1.333 1.333 1.333v0h2v21.15c0.013 1.577 1.295 2.85 2.873 2.85 0.006 0 0.012-0 0.018-0h16.949c0.004 0 0.009 0 0.013 0 1.546 0 2.8-1.246 2.813-2.789v-21.211h2c0.736 0 1.333-0.597 1.333-1.333s-0.597-1.333-1.333-1.333v0zM10.667 2.667h10.667v2.667h-10.667zM24.667 29.21c-0.011 0.071-0.072 0.124-0.145 0.124-0.005 0-0.011-0-0.016-0.001l0.001 0h-16.95c-0.004 0-0.010 0.001-0.015 0.001-0.107 0-0.195-0.080-0.208-0.183l-0-0.001v-21.15h17.333zM16 26.667c-0.736 0-1.333-0.597-1.333-1.333v0-13.333c0-0.736 0.597-1.333 1.333-1.333s1.333 0.597 1.333 1.333v0 13.333c0 0.736-0.597 1.333-1.333 1.333v0zM13 22.667v-8c0-0.736-0.597-1.333-1.333-1.333s-1.333 0.597-1.333 1.333v0 8c0 0.736 0.597 1.333 1.333 1.333s1.333-0.597 1.333-1.333v0zM21.667 22.667v-8c0-0.736-0.597-1.333-1.333-1.333s-1.333 0.597-1.333 1.333v0 8c0 0.736 0.597 1.333 1.333 1.333s1.333-0.597 1.333-1.333v0z"></path>
</svg>
