<svg version="1.1" xmlns="http://www.w3.org/2000/svg" width="32" height="32" viewBox="0 0 32 32">
<title>trash-empty</title>
<path fill="#333" d="M29 5.333h-5.333v-2.64c0-1.537-0.917-2.693-2.133-2.693h-11.753c-1.207 0-2.113 1.143-2.113 2.667v2.667h-5.333c-0.736 0-1.333 0.597-1.333 1.333s0.597 1.333 1.333 1.333v0h2v21.15c0.013 1.577 1.295 2.85 2.873 2.85 0.006 0 0.012-0 0.018-0h16.949c0.004 0 0.009 0 0.013 0 1.546 0 2.8-1.246 2.813-2.789v-21.211h2c0.736 0 1.333-0.597 1.333-1.333s-0.597-1.333-1.333-1.333v0zM10.333 2.667h10.667v2.667h-10.667zM24.333 29.21c-0.011 0.071-0.072 0.124-0.145 0.124-0.005 0-0.011-0-0.016-0.001l0.001 0h-16.95c-0.004 0-0.010 0.001-0.015 0.001-0.107 0-0.195-0.080-0.208-0.183l-0-0.001v-21.15h17.333zM20.273 22.943c-0.241 0.241-0.574 0.389-0.942 0.389s-0.701-0.149-0.942-0.389l0 0-2.39-2.4-2.39 2.397c-0.236 0.215-0.551 0.347-0.897 0.347-0.736 0-1.333-0.597-1.333-1.333 0-0.344 0.13-0.658 0.345-0.895l-0.001 0.001 2.393-2.393-2.37-2.38c-0.226-0.238-0.364-0.561-0.364-0.916 0-0.736 0.597-1.333 1.333-1.333 0.357 0 0.682 0.141 0.922 0.37l-0.001-0 2.363 2.357 2.363-2.37c0.239-0.229 0.564-0.369 0.921-0.369 0.736 0 1.333 0.597 1.333 1.333 0 0.355-0.139 0.678-0.365 0.917l0.001-0.001-2.37 2.393 2.393 2.407c0.236 0.24 0.381 0.57 0.381 0.933 0 0.365-0.147 0.696-0.385 0.937l0-0z"></path>
</svg>
