<svg version="1.1" xmlns="http://www.w3.org/2000/svg" width="32" height="32" viewBox="0 0 32 32">
<title>trash-send</title>
<path fill="#333" d="M24.507 32h-16.95c-0.005 0-0.011 0-0.017 0-1.579 0-2.86-1.273-2.873-2.849v-16.485c0-0.736 0.597-1.333 1.333-1.333s1.333 0.597 1.333 1.333v0 16.483c0.013 0.104 0.102 0.184 0.208 0.184 0.005 0 0.011-0 0.016-0.001l-0.001 0h16.95c0.005 0 0.010 0.001 0.015 0.001 0.073 0 0.134-0.053 0.145-0.123l0-0.001v-16.543c0-0.736 0.597-1.333 1.333-1.333s1.333 0.597 1.333 1.333v0 16.543c-0.013 1.544-1.268 2.79-2.813 2.79-0.005 0-0.009 0-0.014-0h0.001zM30.667 6.667c0 0.736-0.597 1.333-1.333 1.333v0h-26.667c-0.736 0-1.333-0.597-1.333-1.333s0.597-1.333 1.333-1.333v0h5.333v-2.667c0-1.513 0.907-2.667 2.113-2.667h11.753c1.217 0 2.133 1.157 2.133 2.693v2.64h5.333c0.736 0 1.333 0.597 1.333 1.333v0zM10.667 5.333h10.667v-2.667h-10.667zM21.28 19.81c-0.243-0.256-0.586-0.415-0.967-0.415-0.357 0-0.681 0.14-0.921 0.369l0.001-0-2.060 1.963v-7.27c0-0.736-0.597-1.333-1.333-1.333s-1.333 0.597-1.333 1.333v0 7.267l-2.063-1.96c-0.239-0.227-0.562-0.367-0.918-0.367-0.736 0-1.333 0.597-1.333 1.333 0 0.38 0.159 0.723 0.414 0.966l0.001 0.001 3.7 3.517c0.395 0.378 0.932 0.61 1.523 0.61 0.004 0 0.007 0 0.011-0h-0.001c0.001 0 0.003 0 0.005 0 0.591 0 1.128-0.231 1.526-0.608l-0.001 0.001 3.703-3.52c0.256-0.243 0.415-0.586 0.415-0.967 0-0.357-0.14-0.681-0.369-0.921l0 0.001z"></path>
</svg>
