<svg version="1.1" xmlns="http://www.w3.org/2000/svg" width="32" height="32" viewBox="0 0 32 32">
<title>trash-notrashed</title>
<path fill="#333" d="M23.37 32h-14.687c-1.482-0.042-2.667-1.254-2.667-2.742 0-0.019 0-0.038 0.001-0.057l-0 0.003v-15.87c0-0.736 0.597-1.333 1.333-1.333s1.333 0.597 1.333 1.333v0 15.87c-0 0.002-0 0.004-0 0.007 0 0.046 0.015 0.089 0.040 0.124l-0-0.001h14.61c0.002-0.011 0.004-0.023 0.004-0.035s-0.001-0.024-0.004-0.036l0 0.001v-15.93c0-0.736 0.597-1.333 1.333-1.333s1.333 0.597 1.333 1.333v0 15.93c0 0.015 0 0.033 0 0.051 0 1.464-1.171 2.655-2.628 2.686l-0.003 0zM24.86 5.333l-23.193 6.207c-0.1 0.027-0.214 0.042-0.333 0.043h-0.001c-0.729-0.009-1.317-0.602-1.317-1.333 0-0.612 0.412-1.128 0.975-1.285l0.009-0.002 4.817-1.297-0.56-2.1c-0.37-1.373 0.183-2.63 1.28-2.927l9.667-2.583c1.107-0.297 2.223 0.527 2.597 1.913l0.533 2.077 4.837-1.297c0.103-0.029 0.222-0.045 0.345-0.045 0.738 0 1.337 0.599 1.337 1.337 0 0.616-0.416 1.134-0.983 1.289l-0.009 0.002zM8.393 7l8.37-2.243-0.517-1.933-8.37 2.223z"></path>
</svg>
