<svg xmlns="http://www.w3.org/2000/svg" width="32" height="32"><path d="M23 32c-4.971 0-9-4.029-9-9s4.029-9 9-9a9 9 0 0 1 9 9 9 9 0 0 1-9 9zm0-16a7 7 0 1 0 7 7 7 7 0 0 0-7-7zm3.373 7.627a1 1 0 0 0-1.414 0l-.96.96V19a1 1 0 0 0-2 0v5.587l-.96-.96a1 1 0 0 0-1.413 1.414l-.001-.001 2.667 2.667c.046.045.096.087.15.124l.004.002.073.04c.033 0 .063.037.097.05s.067.02.1.03l.087.027a.932.932 0 0 0 .4-.001l-.006.001.087-.027c.033 0 .067 0 .1-.03s.063-.033.097-.05l.073-.04c.057-.04.107-.081.153-.127l2.666-2.666a1 1 0 0 0 0-1.414zM10.333 21a1 1 0 0 1-1-1v-7.333a1 1 0 0 1 2 0V20a1 1 0 0 1-1 1zm7-7.667v-.667a1 1 0 0 0-2 0v.667a1 1 0 0 0 2 0zM26.667 5a1 1 0 0 1-1 1h-3v5a1 1 0 0 1-2 0V6H6v17.6c0 .577.39 1.067.853 1.067H11a1 1 0 0 1 0 2H6.853C5.28 26.667 4 25.29 4 23.6V6H1a1 1 0 0 1 0-2h6.667V3l-.001-.061A2.94 2.94 0 0 1 10.53 0H16.134a2.94 2.94 0 0 1 2.867 2.939L19 3.003V3v1h6.667a1 1 0 0 1 1 1zM17 4V3l.002-.06c0-.495-.381-.9-.865-.94h-5.603a.945.945 0 0 0-.867 1.002v-.003 1z"/></svg>