<svg version="1.1" xmlns="http://www.w3.org/2000/svg" width="32" height="32" viewBox="0 0 32 32">
<title>trash</title>
<path fill="#333" d="M24.507 32h-16.95c-0.005 0-0.011 0-0.017 0-1.579 0-2.86-1.273-2.873-2.849v-21.151h-2c-0.736 0-1.333-0.597-1.333-1.333s0.597-1.333 1.333-1.333v0h5.333v-2.667c0-1.513 0.907-2.667 2.113-2.667h11.753c1.217 0 2.133 1.157 2.133 2.693v2.64h5.333c0.736 0 1.333 0.597 1.333 1.333s-0.597 1.333-1.333 1.333v0h-2v21.21c-0.013 1.544-1.268 2.79-2.813 2.79-0.005 0-0.009 0-0.014-0h0.001zM7.333 8v21.15c0.013 0.104 0.102 0.184 0.208 0.184 0.005 0 0.011-0 0.016-0.001l-0.001 0h16.95c0.005 0 0.010 0.001 0.015 0.001 0.073 0 0.134-0.053 0.145-0.123l0-0.001v-21.21zM10.667 5.333h10.667v-2.667h-10.667zM16 26.667c-0.736 0-1.333-0.597-1.333-1.333v0-13.333c0-0.736 0.597-1.333 1.333-1.333s1.333 0.597 1.333 1.333v0 13.333c0 0.736-0.597 1.333-1.333 1.333v0zM20 24c-0.736 0-1.333-0.597-1.333-1.333v0-8c0-0.736 0.597-1.333 1.333-1.333s1.333 0.597 1.333 1.333v0 8c0 0.736-0.597 1.333-1.333 1.333v0zM12 24c-0.736 0-1.333-0.597-1.333-1.333v0-8c0-0.736 0.597-1.333 1.333-1.333s1.333 0.597 1.333 1.333v0 8c0 0.736-0.597 1.333-1.333 1.333v0z"></path>
</svg>
