<?xml version="1.0" encoding="utf-8"?>
<!-- Generator: Adobe Illustrator 20.1.0, SVG Export Plug-In . SVG Version: 6.00 Build 0)  -->
<svg version="1.1" id="Layer_1" xmlns="http://www.w3.org/2000/svg" xmlns:xlink="http://www.w3.org/1999/xlink" x="0px" y="0px"
	 viewBox="0 0 72 72" style="enable-background:new 0 0 72 72;" xml:space="preserve">
<g>
	<g>
		<path d="M54.9,72H17.1c-2.8,0-5.1-2.3-5.1-5V11c0-0.6,0.4-1,1-1s1,0.4,1,1v56c0,1.6,1.4,3,3.1,3h37.8c1.7,0,3.1-1.4,3.1-3V11
			c0-0.6,0.4-1,1-1s1,0.4,1,1v56C60,69.7,57.7,72,54.9,72z"/>
	</g>
	<g>
		<path d="M51,12c-0.6,0-1-0.4-1-1V3c0-0.5-0.5-1-1-1H23c-0.6,0-1,0.5-1,1v8c0,0.6-0.4,1-1,1s-1-0.4-1-1V3c0-1.7,1.4-3,3-3h26
			c1.7,0,3,1.3,3,3v8C52,11.6,51.6,12,51,12z"/>
	</g>
	<g>
		<path d="M66,12H6c-0.6,0-1-0.4-1-1s0.4-1,1-1h60c0.6,0,1,0.4,1,1S66.6,12,66,12z"/>
	</g>
	<g>
		<g>
			<path d="M36,60c-0.6,0-1-0.4-1-1V23c0-0.6,0.4-1,1-1s1,0.4,1,1v36C37,59.6,36.6,60,36,60z"/>
		</g>
		<g>
			<path d="M25,56c-0.6,0-1-0.4-1-1V27c0-0.6,0.4-1,1-1s1,0.4,1,1v28C26,55.6,25.6,56,25,56z"/>
		</g>
		<g>
			<path d="M47,56c-0.6,0-1-0.4-1-1V27c0-0.6,0.4-1,1-1s1,0.4,1,1v28C48,55.6,47.6,56,47,56z"/>
		</g>
	</g>
</g>
</svg>
