<svg xmlns="http://www.w3.org/2000/svg" width="32" height="32"><path d="M23 32H9a3 3 0 0 1-3-3V11a1 1 0 0 1 2 0v18a1 1 0 0 0 1 1h14a1 1 0 0 0 1-1V11a1 1 0 0 1 2 0v18a3 3 0 0 1-3 3zm5.873-28.02L3.54 9.313c-.062.012-.133.02-.206.02h-.008a1 1 0 0 1-.205-1.979l.006-.001 7.207-1.513-.253-1.143a2.812 2.812 0 0 1 .406-2.177l-.006.01a2.942 2.942 0 0 1 1.834-1.28l.019-.004L18.071.063a2.958 2.958 0 0 1 3.493 2.206l.004.02.25 1.13 6.643-1.4a1.002 1.002 0 0 1 .421 1.959l-.007.001zm-16.853.28l.197.89 7.587-1.567-.19-.867a.958.958 0 0 0-1.143-.699l.006-.001-5.727 1.187a.958.958 0 0 0-.608.406l-.002.003a.83.83 0 0 0-.119.652l-.001-.006z"/></svg>