<?xml version="1.0" encoding="utf-8"?>
<!-- Generator: Adobe Illustrator 20.1.0, SVG Export Plug-In . SVG Version: 6.00 Build 0)  -->
<svg version="1.1" id="Layer_1" xmlns="http://www.w3.org/2000/svg" xmlns:xlink="http://www.w3.org/1999/xlink" x="0px" y="0px"
	 viewBox="0 0 72 72" style="enable-background:new 0 0 72 72;" xml:space="preserve">
<path d="M54.9,72H17.1c-2.8,0-5.1-2.3-5.1-5V27c0-0.6,0.4-1,1-1s1,0.4,1,1v40c0,1.6,1.4,3,3.1,3h37.8c1.7,0,3.1-1.4,3.1-3V27
	c0-0.6,0.4-1,1-1s1,0.4,1,1v40C60,69.7,57.7,72,54.9,72z M51,12c-0.6,0-1-0.4-1-1V3c0-0.5-0.5-1-1-1H23c-0.6,0-1,0.5-1,1v8
	c0,0.6-0.4,1-1,1s-1-0.4-1-1V3c0-1.7,1.4-3,3-3h26c1.7,0,3,1.3,3,3v8C52,11.6,51.6,12,51,12z M66,12H6c-0.6,0-1-0.4-1-1s0.4-1,1-1
	h60c0.6,0,1,0.4,1,1S66.6,12,66,12z M36,53.8c-0.8,0-1.6-0.3-2.2-0.9l-9.2-9.1c-0.4-0.4-0.4-1,0-1.4c0.4-0.4,1-0.4,1.4,0l9.2,9.1
	c0.4,0.4,1.2,0.4,1.6,0l9.2-9.1c0.4-0.4,1-0.4,1.4,0c0.4,0.4,0.4,1,0,1.4l-9.2,9.1C37.6,53.4,36.8,53.8,36,53.8z M36,53
	c-0.6,0-1-0.4-1-1V27c0-0.6,0.4-1,1-1s1,0.4,1,1v25C37,52.6,36.6,53,36,53z"/>
</svg>
