<svg xmlns="http://www.w3.org/2000/svg" viewBox="0 0 96 96"><path d="M38.19 90C20.42 90 6 80.65 5.24 80.15a4 4 0 0 1 .68-7l12.61-5.25C12.6 63.6 4.6 56.08 1.4 45.23c-3.12-10.55-1-21.84 6.16-33.55a4 4 0 0 1 6.51-.44 4.2 4.2 0 0 1 1 .76c14.56 14.87 24.78 17.7 28.1 17.87C44.5 23.81 49 11.43 59 7.34c7.06-2.89 15-1.1 23.6 5.32H92a4 4 0 0 1 3.74 5.43l-5.45 14.2.3 3.69a23.3 23.3 0 0 1-1.29 9.92C81 68.39 68.74 82.46 52.74 87.72A46.4 46.4 0 0 1 38.19 90zM16.93 77.22c7.74 3.34 20.62 7.1 33.37 2.89 13.53-4.48 24.12-16.91 31.49-37a15.31 15.31 0 0 0 .83-6.5L82.24 32a3.93 3.93 0 0 1 .25-1.76l3.7-9.62h-4.92a4 4 0 0 1-2.48-.86c-6.6-5.2-12.24-6.9-16.75-5.06-7.17 2.93-10.73 14.23-11.22 18a5.68 5.68 0 0 1-4.07 4.63C40.58 39.46 27.27 34.85 12 20.17c-4 8.08-5 15.71-2.94 22.75 4.2 14.35 19.79 22 20 22.08a4 4 0 0 1-.21 7.3z" fill="#333"/></svg>