<svg version="1.1" xmlns="http://www.w3.org/2000/svg" width="32" height="32" viewBox="0 0 32 32">
<title>twitter</title>
<path fill="#333" d="M12.73 30c-5.923 0-10.73-3.117-10.983-3.283-0.357-0.243-0.587-0.647-0.587-1.105 0-0.549 0.332-1.020 0.806-1.225l0.009-0.003 4.203-1.75c-1.977-1.433-4.643-3.94-5.71-7.557-1.040-3.517-0.333-7.28 2.053-11.183 0.238-0.385 0.658-0.637 1.137-0.637 0.415 0 0.787 0.19 1.031 0.488l0.002 0.002c0.128 0.071 0.238 0.155 0.333 0.253l0 0c4.853 4.957 8.26 5.9 9.367 5.957 0.443-2.020 1.943-6.147 5.277-7.51 2.353-0.963 5-0.367 7.867 1.773h3.133c0 0 0.001 0 0.001 0 0.736 0 1.333 0.597 1.333 1.333 0 0.171-0.032 0.335-0.091 0.486l0.003-0.009-1.817 4.733 0.1 1.23c0.019 0.202 0.029 0.437 0.029 0.675 0 0.944-0.168 1.848-0.477 2.685l0.017-0.054c-2.767 7.497-6.853 12.187-12.187 13.94-1.43 0.482-3.077 0.76-4.789 0.76-0.021 0-0.043-0-0.064-0h0.003zM5.643 25.74c2.58 1.113 6.873 2.367 11.123 0.963 4.51-1.493 8.040-5.637 10.497-12.333 0.188-0.51 0.297-1.1 0.297-1.715 0-0.159-0.007-0.316-0.022-0.472l0.001 0.020-0.127-1.537c-0.003-0.034-0.005-0.074-0.005-0.114 0-0.17 0.032-0.333 0.091-0.482l-0.003 0.009 1.233-3.207h-1.64c-0 0-0 0-0.001 0-0.313 0-0.601-0.108-0.829-0.289l0.003 0.002c-2.2-1.733-4.080-2.3-5.583-1.687-2.39 0.977-3.577 4.743-3.74 6-0.113 0.743-0.645 1.337-1.343 1.54l-0.013 0.003c-2.057 0.71-6.493-0.827-11.583-5.72-1.333 2.693-1.667 5.237-0.98 7.583 1.4 4.783 6.597 7.333 6.667 7.36 0.45 0.221 0.754 0.675 0.754 1.201 0 0.553-0.336 1.027-0.816 1.229l-0.009 0.003z"></path>
</svg>
