<svg xmlns="http://www.w3.org/2000/svg" width="32" height="32"><path d="M11.723 29c-3.487 0-7.25-.877-11.13-2.6a1 1 0 0 1 .406-1.913h.023a14.425 14.425 0 0 0 5.958-1.132l-.095.036c-2.017-.447-3.697-1.357-4.767-3.5a1 1 0 0 1 .54-1.385l.007-.002.88-.333c-1.92-1.105-3.26-3.032-3.543-5.288l-.004-.035a1 1 0 0 1 1.149-1.106l-.006-.001 1.94.293c-.957-1.83-1.183-4.13-.667-6.873a1.002 1.002 0 0 1 1.736-.474l.001.001c3.823 4.397 7.333 6.273 11 5.85v-.493a7.073 7.073 0 0 1 7.038-7.043h.002a6.974 6.974 0 0 1 4.262 1.495l-.015-.011 2.893-.963a1 1 0 0 1 1.221 1.373l.003-.006-1.05 2.29 1.887.823a1 1 0 0 1 .196 1.724l-.003.002-2.407 1.743v.603c-.05 5.899-3.082 11.08-7.66 14.114l-.063.039c-2.683 1.74-5.963 2.775-9.485 2.775l-.262-.002h.013zm-6.44-2.983c7.157 2.13 12.077.487 15.083-1.467 4.099-2.711 6.775-7.285 6.813-12.488v-1.119a1 1 0 0 1 .41-.808l.003-.002 1.393-1-1.2-.517a1.002 1.002 0 0 1-.511-1.339l-.003.006.517-1.133-1.253.417a.998.998 0 0 1-1.001-.217l.001.001a4.976 4.976 0 0 0-3.354-1.333h-.002a5.065 5.065 0 0 0-5.027 5.025v1.335a1.001 1.001 0 0 1-.79.976l-.007.001c-4.15.867-8.16-.687-12.207-4.737-.053 2.18.583 3.84 1.93 5.05a1 1 0 0 1-.819 1.736l.006.001-2.933-.46c.745 1.785 2.428 3.041 4.416 3.156l.014.001a1 1 0 0 1 .29 1.938l-.007.002-2.517.913c1.08 1.27 2.753 1.627 5.61 1.85a1.001 1.001 0 0 1 .486 1.821l-.003.002a16.274 16.274 0 0 1-5.226 2.366l-.114.024z"/></svg>