<svg version="1.1" xmlns="http://www.w3.org/2000/svg" width="32" height="32" viewBox="0 0 32 32">
<title>unarchive</title>
<path fill="#333" d="M31.333 3.27c-0.363-0.372-0.87-0.603-1.43-0.603h-0l-27.8 0.063c-1.171 0.044-2.104 1.004-2.104 2.182 0 0.023 0 0.045 0.001 0.068l-0-0.003v6.123c0 0.003-0 0.006-0 0.010 0 0.633 0.255 1.206 0.667 1.624l-0-0c0.344 0.346 0.81 0.569 1.328 0.6l0.006 0v13.923c0.002 1.146 0.931 2.075 2.076 2.077h23.847c1.146-0.002 2.075-0.931 2.077-2.076v-14.020c1.124-0.094 2.001-1.029 2.001-2.17 0-0.024-0-0.047-0.001-0.070l0 0.003v-6.1c0-0.003 0-0.007 0-0.011 0-0.632-0.255-1.204-0.667-1.619l0 0zM2.667 5.397l26.667-0.063v5.243l-26.667 0.090zM4.667 26.667v-13.333l22.667-0.073v13.407zM20.273 24.277c-0.241 0.241-0.574 0.389-0.942 0.389s-0.701-0.149-0.942-0.389l0 0-2.39-2.4-2.39 2.397c-0.236 0.215-0.551 0.347-0.897 0.347-0.736 0-1.333-0.597-1.333-1.333 0-0.344 0.13-0.658 0.345-0.895l-0.001 0.001 2.393-2.393-2.37-2.38c-0.226-0.238-0.364-0.561-0.364-0.916 0-0.736 0.597-1.333 1.333-1.333 0.357 0 0.682 0.141 0.922 0.37l-0.001-0 2.363 2.357 2.363-2.37c0.239-0.229 0.564-0.369 0.921-0.369 0.736 0 1.333 0.597 1.333 1.333 0 0.355-0.139 0.678-0.365 0.917l0.001-0.001-2.37 2.393 2.393 2.407c0.236 0.24 0.381 0.57 0.381 0.933 0 0.365-0.147 0.696-0.385 0.937l0-0z"></path>
</svg>
