<?xml version="1.0" encoding="utf-8"?>
<!-- Generator: Adobe Illustrator 20.1.0, SVG Export Plug-In . SVG Version: 6.00 Build 0)  -->
<svg version="1.1" id="Layer_1" xmlns="http://www.w3.org/2000/svg" xmlns:xlink="http://www.w3.org/1999/xlink" x="0px" y="0px"
	 viewBox="0 0 72 72" style="enable-background:new 0 0 72 72;" xml:space="preserve">
<g>
	<path d="M67,64H5c-0.6,0-1-0.4-1-1V25H2.8C1.2,25,0,23.8,0,22.2V9.7C0,8.2,1.2,7,2.8,7h66.5C70.8,7,72,8.2,72,9.7v12.5
		c0,1.5-1.2,2.8-2.8,2.8H68v38C68,63.6,67.6,64,67,64z M6,62h60V25H6V62z M2.8,9C2.4,9,2,9.2,2,9.7v12.5C2,22.6,2.4,23,2.8,23h66.5
		c0.4,0,0.8-0.4,0.8-0.8V9.7C70,9.2,69.6,9,69.2,9H2.8z M46,54.5c-0.3,0-0.5-0.1-0.7-0.3L36,44.8l-9.3,9.3c-0.4,0.4-1,0.4-1.4,0
		c-0.4-0.4-0.4-1,0-1.4l9.3-9.3l-9.2-9.3c-0.4-0.4-0.4-1,0-1.4c0.4-0.4,1-0.4,1.4,0L36,42l9.2-9.3c0.4-0.4,1-0.4,1.4,0
		c0.4,0.4,0.4,1,0,1.4l-9.2,9.3l9.3,9.3c0.4,0.4,0.4,1,0,1.4C46.5,54.4,46.2,54.5,46,54.5z"/>
</g>
</svg>
