<?xml version="1.0" encoding="utf-8"?>
<!-- Generator: Adobe Illustrator 20.1.0, SVG Export Plug-In . SVG Version: 6.00 Build 0)  -->
<svg version="1.1" id="Layer_1" xmlns="http://www.w3.org/2000/svg" xmlns:xlink="http://www.w3.org/1999/xlink" x="0px" y="0px"
	 viewBox="0 0 72 72" style="enable-background:new 0 0 72 72;" xml:space="preserve">
<path d="M36,63c-10.2,0-17.3-3.5-21-10.5c-2-3.8-3-9.2-3-16.1V5.5c0-0.6,0.4-1,1-1h8c0.6,0,1,0.4,1,1v34c0,3.8,0.8,7,2.3,9.5
	c2.2,3.7,5.9,5.5,11.2,5.5c6.4,0,10.6-2,12.9-6c1.2-2.2,1.8-5.2,1.8-9v-34c0-0.6,0.4-1,1-1h8c0.6,0,1,0.4,1,1v30.9
	c0,6.9-1,12.3-3,16.1C53.3,59.4,46.2,63,36,63z M13.9,6.5v29.9c0,6.6,0.9,11.7,2.8,15.2C20.1,57.9,26.4,61,36,61s15.9-3.1,19.3-9.4
	c1.9-3.5,2.8-8.6,2.8-15.2V6.5h-6v33c0,4.1-0.7,7.5-2.1,10c-2.6,4.6-7.5,7-14.7,7c-6,0-10.3-2.2-12.9-6.5c-1.7-2.8-2.5-6.3-2.5-10.5
	v-33H13.9z M12.9,68.2v-3.8h46.1v3.8H12.9z"/>
</svg>
