<svg version="1.1" xmlns="http://www.w3.org/2000/svg" width="32" height="32" viewBox="0 0 32 32">
<title>underscore</title>
<path fill="#333" d="M26.667 32h-21.333c-0.736 0-1.333-0.597-1.333-1.333s0.597-1.333 1.333-1.333v0h21.333c0.736 0 1.333 0.597 1.333 1.333s-0.597 1.333-1.333 1.333v0zM16 28c9.88-0.053 10-8.633 10-8.72v-17.907c0-0.736-0.597-1.333-1.333-1.333v0c-0.736 0-1.333 0.597-1.333 1.333v0 17.91c0 0.247-0.083 6-7.333 6.053h-0.070c-6.987-0.003-7.247-5.443-7.263-6.057v-17.947c0-0.736-0.597-1.333-1.333-1.333v0c-0.736 0-1.333 0.597-1.333 1.333v0 17.947c0 0.143 0.030 3.553 2.577 6.090 1.757 1.747 4.23 2.63 7.333 2.63z"></path>
</svg>
