<?xml version="1.0" encoding="utf-8"?>
<!-- Generator: Adobe Illustrator 20.1.0, SVG Export Plug-In . SVG Version: 6.00 Build 0)  -->
<svg version="1.1" id="Layer_1" xmlns="http://www.w3.org/2000/svg" xmlns:xlink="http://www.w3.org/1999/xlink" x="0px" y="0px"
	 viewBox="0 0 72 72" style="enable-background:new 0 0 72 72;" xml:space="preserve">
<g>
	<g>
		<g>
			<path d="M48,13.1c-0.3,0-0.5-0.1-0.7-0.3L37,2.6c-0.5-0.5-1.5-0.5-2,0L24.7,12.8c-0.4,0.4-1,0.4-1.4,0c-0.4-0.4-0.4-1,0-1.4
				L33.6,1.2c1.3-1.3,3.5-1.3,4.8,0l10.3,10.2c0.4,0.4,0.4,1,0,1.4C48.5,13,48.3,13.1,48,13.1z"/>
		</g>
		<g>
			<path d="M36,52.7c-0.6,0-1-0.4-1-1V1.5c0-0.6,0.4-1,1-1s1,0.4,1,1v50.1C37,52.2,36.6,52.7,36,52.7z"/>
		</g>
	</g>
	<g>
		<path d="M67,72H5c-2.8,0-5-2.2-5-5V40.4c0-0.6,0.4-1,1-1s1,0.4,1,1V67c0,1.7,1.3,3,3,3h62c1.7,0,3-1.3,3-3V40.4c0-0.6,0.4-1,1-1
			s1,0.4,1,1V67C72,69.8,69.8,72,67,72z"/>
	</g>
</g>
</svg>
