<svg version="1.1" xmlns="http://www.w3.org/2000/svg" width="32" height="32" viewBox="0 0 32 32">
<title>upload</title>
<path fill="#333" d="M26.667 32h-21.333c-0.736 0-1.333-0.597-1.333-1.333s0.597-1.333 1.333-1.333v0h21.333c0.736 0 1.333 0.597 1.333 1.333s-0.597 1.333-1.333 1.333v0zM22.18 6.307l-4.573-3.747c-0.436-0.349-0.995-0.56-1.603-0.56s-1.168 0.211-1.608 0.564l0.005-0.004-4.577 3.747c-0.279 0.246-0.453 0.603-0.453 1.002 0 0.736 0.597 1.333 1.333 1.333 0.305 0 0.585-0.102 0.81-0.274l-0.003 0.002 3.157-2.583v20.213c0 0.736 0.597 1.333 1.333 1.333s1.333-0.597 1.333-1.333v0-20.217l3.153 2.587c0.227 0.185 0.52 0.297 0.839 0.297 0.003 0 0.006 0 0.009-0h-0c0.414-0.001 0.784-0.191 1.028-0.488l0.002-0.002c0.187-0.228 0.3-0.522 0.3-0.843 0-0.412-0.187-0.781-0.481-1.026l-0.002-0.002z"></path>
</svg>
