<svg version="1.1" xmlns="http://www.w3.org/2000/svg" width="32" height="32" viewBox="0 0 32 32">
<title>upload</title>
<path fill="#333" d="M22.363 6.183c-0.246 0.296-0.615 0.483-1.027 0.483-0.001 0-0.002 0-0.003 0h0c-0.323 0-0.618-0.115-0.849-0.305l0.002 0.002-3.153-2.58v20.217c0 0.736-0.597 1.333-1.333 1.333s-1.333-0.597-1.333-1.333v0-20.213l-3.157 2.583c-0.221 0.17-0.502 0.272-0.807 0.272-0.736 0-1.333-0.597-1.333-1.333 0-0.399 0.175-0.756 0.452-1l0.001-0.001 4.577-3.747c0.436-0.349 0.995-0.56 1.603-0.56s1.168 0.211 1.608 0.564l-0.005-0.004 4.573 3.747c0.298 0.246 0.487 0.616 0.487 1.030 0 0.323-0.115 0.618-0.305 0.849l0.002-0.002zM28 30.667c0-0.736-0.597-1.333-1.333-1.333v0h-21.333c-0.736 0-1.333 0.597-1.333 1.333s0.597 1.333 1.333 1.333v0h21.333c0.736 0 1.333-0.597 1.333-1.333v0z"></path>
</svg>
