<svg xmlns="http://www.w3.org/2000/svg" width="32" height="32"><path d="M27.857 30h-4.19a1 1 0 0 1 0-2h3.313l.933-7.13c.067-.494.485-.87.992-.87H30v-2c0-2.207-1.9-4-4.237-4a1 1 0 0 1 0-2C29.2 12 32 14.693 32 18v3a1 1 0 0 1-1 1h-1.217l-.933 7.13c-.067.494-.485.87-.991.87h-.002zM30 8a4 4 0 1 0-4 4 4 4 0 0 0 4-4zm-2 0a2 2 0 1 1-2-2 2 2 0 0 1 2 2zm-9 24h-6.005a1 1 0 0 1-.995-.896V31.1l-.903-9.1H9a1 1 0 0 1-1-1v-3a8 8 0 0 1 16 0v3a1 1 0 0 1-1 1h-2.097L20 31.1a1 1 0 0 1-.995.9H19zm-5.097-2h4.193l.903-9.1a1 1 0 0 1 .995-.9h2.005v-2a6 6 0 1 0-12 0v2h2.005a1 1 0 0 1 .995.896v.004zM16 10a5 5 0 1 1 5-5 5 5 0 0 1-5 5zm0-8a3 3 0 1 0 3 3 3 3 0 0 0-3-3zM8.333 30H4.135c-.506 0-.925-.377-.991-.865l-.001-.005L2.216 22H.999a1 1 0 0 1-1-1v-3c0-3.307 2.8-6 6.237-6a1 1 0 0 1 0 2c-2.337 0-4.237 1.793-4.237 4v2h1.105c.506 0 .925.377.991.865l.001.005.923 7.13h3.313a1 1 0 0 1 0 2zM10 8a4 4 0 1 0-4 4 4 4 0 0 0 4-4zM8 8a2 2 0 1 1-2-2 2 2 0 0 1 2 2z"/></svg>