<svg version="1.1" xmlns="http://www.w3.org/2000/svg" width="32" height="32" viewBox="0 0 32 32">
<title>user_group</title>
<path fill="#333" d="M29.623 27.5h-2.217c-0.736 0-1.333-0.597-1.333-1.333s0.597-1.333 1.333-1.333v0h1.893c-0.001-0.004-0.001-0.009-0.001-0.013s0-0.009 0.001-0.014l-0 0c-0.012-0.152-0.033-0.291-0.064-0.427l0.004 0.020v-0.040c-0.573-2.273-1.553-5.41-2.010-6.027-0.84-1.17-2.353-1.15-2.417-1.147h-1.11c-0.736 0-1.333-0.597-1.333-1.333s0.597-1.333 1.333-1.333v0h1.047c0.383 0 3.043 0.023 4.647 2.253 1.050 1.463 2.333 6.6 2.417 6.957 0.060 0.226 0.107 0.495 0.132 0.77l0.001 0.020c0.034 0.156 0.053 0.335 0.053 0.519 0 0.588-0.198 1.13-0.531 1.563l0.004-0.006c-0.431 0.552-1.096 0.903-1.844 0.903-0.002 0-0.004 0-0.007 0h0zM25.833 13.89c2.419-1.082 4.074-3.468 4.074-6.241 0-3.73-2.996-6.76-6.712-6.816l-0.005-0c-0.382 0.001-0.756 0.032-1.12 0.092l0.040-0.005c-0.639 0.107-1.119 0.656-1.119 1.317 0 0.737 0.597 1.334 1.334 1.334 0.076 0 0.15-0.006 0.223-0.019l-0.008 0.001c0.192-0.034 0.413-0.053 0.639-0.053 0.004 0 0.008 0 0.011 0h-0.001c2.25 0.054 4.053 1.891 4.053 4.149 0 1.684-1.003 3.133-2.443 3.784l-0.026 0.011c-0.486 0.206-0.82 0.679-0.82 1.231 0 0.736 0.597 1.333 1.333 1.333 0.198 0 0.386-0.043 0.555-0.121l-0.008 0.003zM6.697 14c-0.192-0-0.374-0.041-0.539-0.113l0.009 0.003c-2.419-1.082-4.074-3.468-4.074-6.241 0-3.73 2.996-6.76 6.712-6.816l0.005-0c0.382 0.001 0.756 0.032 1.12 0.092l-0.040-0.005c0.639 0.107 1.119 0.656 1.119 1.317 0 0.737-0.597 1.334-1.334 1.334-0.076 0-0.15-0.006-0.223-0.019l0.008 0.001c-0.192-0.034-0.413-0.053-0.639-0.053-0.004 0-0.008 0-0.011 0h0.001c-2.25 0.054-4.053 1.891-4.053 4.149 0 1.684 1.003 3.133 2.443 3.784l0.026 0.011c0.476 0.21 0.803 0.679 0.803 1.223 0 0.736-0.597 1.333-1.333 1.333h-0zM5.927 26.167c0-0.736-0.597-1.333-1.333-1.333v0h-1.893c0.001-0.004 0.001-0.009 0.001-0.013s-0-0.009-0.001-0.014l0 0c0.012-0.152 0.033-0.291 0.064-0.427l-0.004 0.020v-0.040c0.55-2.273 1.54-5.41 2-6.043 0.84-1.17 2.333-1.147 2.403-1.147h1.123c0.736 0 1.333-0.597 1.333-1.333s-0.597-1.333-1.333-1.333v0h-1.037c-0.39 0-3.043 0.023-4.643 2.253-1.053 1.467-2.333 6.603-2.42 6.96-0.060 0.226-0.107 0.495-0.132 0.77l-0.001 0.020c-0.034 0.156-0.053 0.335-0.053 0.519 0 0.588 0.198 1.13 0.531 1.563l-0.004-0.006c0.43 0.559 1.098 0.915 1.85 0.917h2.217c0.736 0 1.333-0.597 1.333-1.333v0zM23.183 31.167h-14.353c-0.002 0-0.003 0-0.005 0-0.791 0-1.495-0.377-1.941-0.961l-0.004-0.006c-0.342-0.444-0.548-1.007-0.548-1.619 0-0.195 0.021-0.386 0.061-0.569l-0.003 0.018c0.031-0.322 0.083-0.614 0.155-0.897l-0.009 0.040c0.097-0.377 1.517-6 2.667-7.593 1.75-2.397 4.667-2.42 5.047-2.413h2.667c0.4 0 4.123 0 5.697 2.6 1.207 1.59 2.597 6.58 2.883 7.757 0 0.040 0.017 0.083 0.023 0.123l0.047 0.333c0.046 0.186 0.073 0.399 0.073 0.619 0 0.601-0.199 1.156-0.534 1.602l0.005-0.007c-0.445 0.588-1.141 0.966-1.925 0.973h-0.001zM9.020 28.5h13.957v-0.070l-0.047-0.333c-0.597-2.39-1.86-6.053-2.42-6.727-0.046-0.056-0.090-0.118-0.13-0.183l-0.004-0.007c-0.643-1.127-2.73-1.357-3.413-1.333h-2.78s-1.83-0.033-2.813 1.333c-0.517 0.71-1.633 4.17-2.247 6.667v0.040c-0.034 0.134-0.060 0.293-0.073 0.456l-0.001 0.011c-0.009 0.058-0.019 0.108-0.032 0.156l0.002-0.009zM16 16.833c-4.050 0-7.333-3.283-7.333-7.333s3.283-7.333 7.333-7.333c4.050 0 7.333 3.283 7.333 7.333v0c0 4.050-3.283 7.333-7.333 7.333v0zM16 4.833c-2.577 0-4.667 2.089-4.667 4.667s2.089 4.667 4.667 4.667c2.577 0 4.667-2.089 4.667-4.667v0c0-2.577-2.089-4.667-4.667-4.667v0z"></path>
</svg>
