<?xml version="1.0" encoding="utf-8"?>
<!-- Generator: Adobe Illustrator 20.1.0, SVG Export Plug-In . SVG Version: 6.00 Build 0)  -->
<svg version="1.1" id="Layer_2" xmlns="http://www.w3.org/2000/svg" xmlns:xlink="http://www.w3.org/1999/xlink" x="0px" y="0px"
	 viewBox="0 0 72 72" style="enable-background:new 0 0 72 72;" xml:space="preserve">
<g>
	<g>
		<g>
			<path d="M56.4,72H15.6c-1.4,0-2.7-0.6-3.5-1.6c-0.8-1-1-2.3-0.7-3.7c0-0.2,0.1-0.7,0.3-1.6c1.3-5.6,4.8-18.2,7.1-21.6
				c4.3-6.2,11.8-6.1,12.1-6l7.6,0c0.4,0,10.2-0.2,13.9,6.4c2.7,3.6,6.6,17,7.8,22l0.2,0.9c0.4,1.4,0.1,2.7-0.6,3.7
				C59.1,71.4,57.8,72,56.4,72z M30.9,39.5c-0.8,0-6.8,0.2-10.3,5.2c-1.9,2.7-5.2,13.9-6.8,21c-0.2,0.9-0.3,1.4-0.3,1.4
				c0,0,0,0.1,0,0.1c-0.2,0.8-0.1,1.5,0.3,2c0.4,0.5,1.1,0.8,1.9,0.8h40.8c0.8,0,1.5-0.3,1.9-0.8c0.4-0.5,0.5-1.2,0.3-2
				c0,0,0,0,0-0.1l-0.2-0.9c-1.3-5.7-5.1-18.4-7.4-21.3c0,0-0.1-0.1-0.1-0.1c-3-5.6-12-5.4-12.1-5.4L30.9,39.5
				C31,39.5,31,39.5,30.9,39.5z M35.9,33.6c-9.3,0-16.8-7.5-16.8-16.8C19.1,7.5,26.7,0,35.9,0c9.3,0,16.8,7.5,16.8,16.8
				C52.7,26.1,45.2,33.6,35.9,33.6z M35.9,2c-8.2,0-14.8,6.6-14.8,14.8c0,8.2,6.6,14.8,14.8,14.8c8.2,0,14.8-6.6,14.8-14.8
				C50.7,8.6,44.1,2,35.9,2z"/>
		</g>
	</g>
</g>
</svg>
