<svg version="1.1" xmlns="http://www.w3.org/2000/svg" width="32" height="32" viewBox="0 0 32 32">
<title>user</title>
<path fill="#333" d="M16 16c-4.418 0-8-3.582-8-8s3.582-8 8-8c4.418 0 8 3.582 8 8v0c0 4.418-3.582 8-8 8v0zM16 2.667c-2.946 0-5.333 2.388-5.333 5.333s2.388 5.333 5.333 5.333c2.946 0 5.333-2.388 5.333-5.333v0c0-2.946-2.388-5.333-5.333-5.333v0zM24.047 32h-16.077c-0.001 0-0.001 0-0.002 0-0.837 0-1.581-0.397-2.054-1.014l-0.005-0.006c-0.361-0.469-0.578-1.065-0.578-1.712 0-0.213 0.024-0.421 0.068-0.62l-0.004 0.019c0.033-0.352 0.089-0.672 0.169-0.982l-0.009 0.042c0.1-0.403 1.69-6.667 2.973-8.437 1.917-2.623 5.107-2.623 5.52-2.623h3c0.163 0 4.503-0.053 6.25 2.833 1.333 1.76 2.94 7.533 3.207 8.62 0 0.043 0 0.083 0.023 0.123l0.053 0.377c0.049 0.196 0.077 0.42 0.077 0.651 0 0.634-0.21 1.219-0.565 1.689l0.005-0.007c-0.469 0.635-1.213 1.043-2.053 1.047h-0.001zM8 29.333h16c0.004-0.013 0.007-0.028 0.007-0.043s-0.002-0.030-0.007-0.044l0 0.001c-0.015-0.048-0.028-0.106-0.036-0.165l-0.001-0.005-0.057-0.387c-0.597-2.427-2.020-6.73-2.73-7.58-0.045-0.056-0.088-0.118-0.126-0.183l-0.004-0.007c-0.767-1.333-3.133-1.607-3.967-1.587h-3.107s-2.137-0.043-3.29 1.537c-0.6 0.82-1.837 4.643-2.54 7.517v0.040c-0.041 0.16-0.071 0.349-0.086 0.542l-0.001 0.011c-0.007 0.092-0.022 0.177-0.046 0.259l0.002-0.009c-0.010 0.021-0.016 0.046-0.016 0.072 0 0.011 0.001 0.022 0.003 0.032l-0-0.001z"></path>
</svg>
