<?xml version="1.0" encoding="utf-8"?>
<!-- Generator: Adobe Illustrator 20.1.0, SVG Export Plug-In . SVG Version: 6.00 Build 0)  -->
<svg version="1.1" id="Layer_2" xmlns="http://www.w3.org/2000/svg" xmlns:xlink="http://www.w3.org/1999/xlink" x="0px" y="0px"
	 viewBox="0 0 72 72" style="enable-background:new 0 0 72 72;" xml:space="preserve">
<g>
	<g>
		<g>
			<path d="M14.3,53.5H3.1c-1,0-1.9-0.4-2.5-1.2c-0.6-0.7-0.7-1.7-0.5-2.7c0-0.1,0.1-0.5,0.2-1c0.7-2.8,3-11.6,4.6-14
				c2.9-4.2,7.8-4,8.1-4l4.9,0c0.2,0,6.8-0.2,9.2,4.3c0.1,0.1,0.1,0.2,0.2,0.3c0.3,0.5,0.2,1.1-0.3,1.4c-0.5,0.3-1.1,0.2-1.4-0.3
				c-0.1-0.1-0.1-0.2-0.2-0.2c0,0-0.1-0.1-0.1-0.1c-1.9-3.4-7.4-3.3-7.5-3.3l-4.9,0c-0.2,0-4.1-0.1-6.4,3.2
				c-1.2,1.7-3.3,8.8-4.3,13.3C2.1,49.7,2.1,50,2.1,50c0,0,0,0.1,0,0.1c-0.1,0.4-0.1,0.7,0.1,1c0.2,0.2,0.5,0.4,0.9,0.4h11.2
				c0.6,0,1,0.4,1,1S14.9,53.5,14.3,53.5z M16.1,28.9C10,28.9,5,23.9,5,17.7c0-6.1,5-11.1,11.1-11.1c2.3,0,4.6,0.7,6.5,2.1
				c0.4,0.3,0.5,0.9,0.2,1.4c-0.3,0.4-0.9,0.5-1.4,0.2c-1.6-1.2-3.4-1.8-5.4-1.8c-5,0-9.1,4.1-9.1,9.1c0,5,4.1,9.2,9.1,9.2
				c1.2,0,2.4-0.2,3.6-0.7c0.5-0.2,1.1,0,1.3,0.5c0.2,0.5,0,1.1-0.5,1.3C19.1,28.6,17.7,28.9,16.1,28.9z"/>
		</g>
	</g>
	<g>
		<g>
			<path d="M68.9,53.5H57.5c-0.6,0-1-0.4-1-1s0.4-1,1-1h11.4c0.4,0,0.7-0.1,0.9-0.4c0.2-0.2,0.2-0.6,0.1-1l-0.1-0.6
				C69,45.9,66.6,37.8,65.1,36c0,0-0.1-0.1-0.1-0.1c-1.9-3.4-7.4-3.3-7.5-3.3l-4.9,0c-0.2,0-4.1-0.1-6.4,3.2
				c-0.1,0.1-0.2,0.3-0.3,0.5c-0.3,0.5-0.9,0.7-1.3,0.4s-0.7-0.9-0.4-1.3c0.2-0.3,0.3-0.6,0.4-0.8c2.9-4.2,7.8-4,8.1-4l4.9,0
				c0.2,0,6.7-0.2,9.2,4.2c1.9,2.5,4.4,11.4,5,14.2l0.1,0.6c0.2,0.9,0.1,1.9-0.5,2.6C70.8,53.1,69.9,53.5,68.9,53.5z M55.8,28.9
				c-1.5,0-3-0.3-4.4-0.9c-0.5-0.2-0.7-0.8-0.5-1.3c0.2-0.5,0.8-0.7,1.3-0.5c1.1,0.5,2.4,0.7,3.6,0.7c5,0,9.2-4.1,9.2-9.2
				c0-5-4.1-9.1-9.2-9.1c-1.9,0-3.8,0.6-5.4,1.8c-0.4,0.3-1.1,0.2-1.4-0.2c-0.3-0.4-0.2-1.1,0.2-1.4c1.9-1.4,4.2-2.2,6.5-2.2
				c6.1,0,11.2,5,11.2,11.1C66.9,23.9,61.9,28.9,55.8,28.9z"/>
		</g>
	</g>
	<g>
		<g>
			<path d="M53.1,66.5H18.8c-1.2,0-2.4-0.5-3-1.4c-0.7-0.9-0.9-2.1-0.6-3.2c0-0.2,0.1-0.6,0.3-1.3c1.1-4.7,4-15.4,6-18.3
				c3.7-5.3,10.1-5.2,10.3-5.2l6.4,0c0.3,0,8.7-0.2,11.8,5.4c2.3,3,5.6,14.4,6.6,18.6l0.1,0.7c0.3,1.2,0.1,2.4-0.6,3.3
				C55.5,66,54.4,66.5,53.1,66.5z M31.7,39.1c-0.6,0-5.7,0.1-8.6,4.3c-1.6,2.3-4.4,11.7-5.7,17.6c-0.2,0.7-0.3,1.2-0.3,1.2
				c0,0,0,0.1,0,0.1c-0.2,0.6-0.1,1.2,0.2,1.6c0.3,0.4,0.8,0.6,1.5,0.6h34.4c0.6,0,1.1-0.2,1.5-0.6c0.3-0.4,0.4-1,0.2-1.6
				c0,0,0,0,0-0.1l-0.1-0.7c-1.1-4.8-4.3-15.4-6.2-17.9c0,0-0.1-0.1-0.1-0.1c-2.5-4.6-10-4.5-10.1-4.5L31.7,39.1
				C31.7,39.1,31.7,39.1,31.7,39.1z M35.9,34.2c-7.9,0-14.3-6.4-14.3-14.3c0-7.9,6.4-14.3,14.3-14.3c7.9,0,14.3,6.4,14.3,14.3
				C50.2,27.7,43.8,34.2,35.9,34.2z M35.9,7.5c-6.8,0-12.3,5.5-12.3,12.3c0,6.8,5.5,12.3,12.3,12.3c6.8,0,12.3-5.5,12.3-12.3
				C48.2,13,42.7,7.5,35.9,7.5z"/>
		</g>
	</g>
</g>
</svg>
