<svg xmlns="http://www.w3.org/2000/svg" width="32" height="32"><path d="M7.333 26a1.005 1.005 0 0 1-.34-.062L7 25.94a1.001 1.001 0 0 1-.604-1.281l-.002.007c1.063-2.895 3.343-5.122 6.203-6.089l.07-.021c5.277-1.803 11.09.937 12.94 6.11a1 1 0 0 1-1.879.674l-.002-.007C22.239 21.19 17.563 19 13.296 20.45a8.075 8.075 0 0 0-5.005 4.828l-.018.056a1.003 1.003 0 0 1-.94.667zm15.334-14.667A6.667 6.667 0 1 0 16 18a6.667 6.667 0 0 0 6.667-6.667zm-2 0A4.667 4.667 0 1 1 16 6.666a4.667 4.667 0 0 1 4.667 4.667zM29 32h-6a1 1 0 0 1 0-2h6a1 1 0 0 0 1-1v-6a1 1 0 0 1 2 0v6a3 3 0 0 1-3 3zm-19-1a1 1 0 0 0-1-1H3a1 1 0 0 1-1-1v-6a1 1 0 0 0-2 0v6a3 3 0 0 0 3 3h6a1 1 0 0 0 1-1zM32 9V3a3 3 0 0 0-3-3h-6a1 1 0 0 0 0 2h6a1 1 0 0 1 1 1v6a1 1 0 0 0 2 0zM2 9V3a1 1 0 0 1 1-1h6a1 1 0 0 0 0-2H3a3 3 0 0 0-3 3v6a1 1 0 0 0 2 0z"/></svg>