<svg version="1.1" xmlns="http://www.w3.org/2000/svg" width="32" height="32" viewBox="0 0 32 32">
<title>users-personalization</title>
<path fill="#333" d="M20 32h-8a1.333 1.333 0 0 1 0-2.666h8A1.333 1.333 0 0 1 20 32zm2.667-5.333c0-.736-.597-1.333-1.333-1.333H10.667a1.333 1.333 0 0 0 0 2.666h10.667c.736 0 1.333-.597 1.333-1.333zM28 12c0 6.627-5.373 12-12 12S4 18.627 4 12 9.373 0 16 0s12 5.373 12 12zm-12 9.333h.007c1.37 0 2.671-.297 3.841-.83l-.058.024a7.84 7.84 0 0 0-.868-1.694l.018.028a1.454 1.454 0 0 1-.15-.173l-.003-.004c-.233-.333-1.27-.567-2.06-.567h-2c-.333 0-1.24.107-1.693.603a8.844 8.844 0 0 0-.821 1.726l-.019.064a9.07 9.07 0 0 0 3.807.823zm0-8.303a3 3 0 1 0-3-3 3 3 0 0 0 3 3zM25.333 12v-.008a9.333 9.333 0 1 0-15.448 7.051l.012.01a7.74 7.74 0 0 1 1.176-2.147l-.013.017c1.067-1.167 2.6-1.41 3.353-1.457-2.379-.708-4.084-2.876-4.084-5.441a5.667 5.667 0 1 1 7.195 5.458l-.04.009c.98.097 2.533.43 3.403 1.547a7.78 7.78 0 0 1 1.168 1.987l.019.053a9.319 9.319 0 0 0 3.26-7.08z"></path>
</svg>
