<svg version="1.1" xmlns="http://www.w3.org/2000/svg" width="32" height="32" viewBox="0 0 32 32">
<title>users-select</title>
<path fill="#333" d="M5.957 12h-.002c-.186 0-.363-.039-.523-.11l.008.003c-2.254-.959-3.805-3.154-3.805-5.712A6.19 6.19 0 0 1 8.908.085L8.871.08a1.334 1.334 0 1 1-.429 2.6l.009.003a3.477 3.477 0 0 0-.559-.043h-.015.001-.031a3.543 3.543 0 0 0-1.395 6.801l.023.009A1.334 1.334 0 0 1 5.96 12h-.001zM5.45 23c0-.736-.597-1.333-1.333-1.333h-1.45c.009-.098.024-.188.046-.275l-.003.012-.001-.018.001-.019v.001c.527-2.28 1.357-4.923 1.71-5.44a2.393 2.393 0 0 1 1.891-.927h1.022a1.333 1.333 0 0 0 0-2.666h-.958a5.036 5.036 0 0 0-4.102 2.109l-.01.015c-.917 1.333-2.023 6-2.1 6.333a4.34 4.34 0 0 0-.115.692l-.001.018a2.466 2.466 0 0 0 .468 2.006l-.004-.006c.4.509 1.016.833 1.708.833h1.912a1.334 1.334 0 0 0 1.32-1.333zm17.803-11.123c2.257-.952 3.812-3.146 3.812-5.704A6.173 6.173 0 0 0 20.892 0l-.097.001h.005a6.7 6.7 0 0 0-1.038.082L19.8.078a1.333 1.333 0 0 0 .383 2.61h.031-.002c.17-.03.366-.047.566-.047h.022-.001.037a3.591 3.591 0 0 1 3.59 3.541v.002a3.54 3.54 0 0 1-2.17 3.251l-.023.009a1.333 1.333 0 1 0 1.025 2.429l-.006.003zm3.83 7.383a1.336 1.336 0 0 0 .851-1.676l.003.009c-.147-.46-.293-.887-.43-1.263a7.634 7.634 0 0 0-.931-1.958l.018.028c-1.48-2.023-3.927-2.067-4.3-2.067h-.96a1.333 1.333 0 0 0 0 2.666h1.023s1.373-.017 2.1.98c.219.368.411.792.554 1.239l.012.044c.123.333.257.733.393 1.157.18.53.67.906 1.249.913h.001c.15-.002.293-.029.426-.076l-.009.003zM21 8.067a6.668 6.668 0 1 0-6.667 6.737A6.708 6.708 0 0 0 21 8.097v-.032.002zm-2.64 0a4.02 4.02 0 1 1-4.027-4.093 4.064 4.064 0 0 1 4.02 4.063v.032-.002zm.613 18.6c0-.736-.597-1.333-1.333-1.333H8.35c.01-.136.03-.261.06-.382l-.003.016v-.04c.613-2.437 1.583-5.267 2-5.823.86-1.103 2.46-1.087 2.46-1.087h.087c1.26-.027 2.787-.04 3.153 0 .187.047.77.213 1.12.333.083.083.22.243.333.367s.303.353.483.547a1.333 1.333 0 1 0 1.945-1.784l-.002-.002c-.157-.17-.297-.333-.423-.48a3.627 3.627 0 0 0-1.09-.991l-.017-.009a2.104 2.104 0 0 0-.23-.101l-.016-.005a12.525 12.525 0 0 0-1.645-.479l-.092-.017c-.54-.067-2.637-.03-3.543 0-.423 0-3.037.053-4.62 2.177-1.06 1.42-2.333 6.387-2.437 6.74a4.54 4.54 0 0 0-.135.754l-.002.02a2.483 2.483 0 0 0 .454 2.006l-.005-.006c.431.559 1.1.916 1.853.917h9.627a1.334 1.334 0 0 0 1.307-1.333zm11.694-1.334H28v-2.667a1.333 1.333 0 0 0-2.666 0v2.667h-2.667a1.333 1.333 0 0 0 0 2.666h2.667v2.667a1.333 1.333 0 0 0 2.666 0v-2.667h2.667a1.333 1.333 0 0 0 0-2.666z"></path>
</svg>
