<svg xmlns="http://www.w3.org/2000/svg" width="32" height="32"><path d="M23 32c-4.971 0-9-4.029-9-9s4.029-9 9-9a9 9 0 0 1 9 9 9 9 0 0 1-9 9zm0-16a7 7 0 1 0 7 7 7 7 0 0 0-7-7zm4 6h-3v-3a1 1 0 0 0-2 0v3h-3a1 1 0 0 0 0 2h3v3a1 1 0 0 0 2 0v-3h3a1 1 0 0 0 0-2zm0-8a1 1 0 0 1-.828-.44l-.002-.004c-1.433-2.143-4.647-2.867-7.163-1.613a5.112 5.112 0 0 0-1.304.927l.001-.001a1 1 0 0 1-1.407-1.424 7.165 7.165 0 0 1 1.776-1.275l.041-.019c3.387-1.687 7.743-.667 9.717 2.29a1 1 0 0 1-.27 1.384l-.003.002a.972.972 0 0 1-.551.17h-.006zm-.333-9.333A4.667 4.667 0 1 0 22 9.334a4.667 4.667 0 0 0 4.667-4.667zm-2 0A2.667 2.667 0 1 1 22 2a2.667 2.667 0 0 1 2.667 2.667zM11.2 32H5.075a1 1 0 0 1-.995-.896V31.1L3.157 22H1a1 1 0 0 1-1-1v-3a8 8 0 0 1 4.057-6.919l.04-.021a8.136 8.136 0 0 1 4.041-1.061 8.222 8.222 0 0 1 7.038 3.965l.021.037a1 1 0 0 1-1.725 1.003l-.002-.003c-1.106-1.824-3.081-3.023-5.336-3.023a6.195 6.195 0 0 0-3.088.819l.03-.016C3.233 13.824 2.007 15.768 1.999 18v2.001h2.065a1 1 0 0 1 .994.892v.004L5.998 30h4.297l.333-3.413a1.006 1.006 0 0 1 2.005.101.928.928 0 0 1-.006.106v-.004l-.437 4.31a1 1 0 0 1-.993.9zm1.467-27a5 5 0 1 0-5 5 5 5 0 0 0 5-5zm-2 0a3 3 0 1 1-3-3 3 3 0 0 1 3 3z"/></svg>