<svg xmlns="http://www.w3.org/2000/svg" width="32" height="32"><path d="M31 26H1a1 1 0 0 1-1-1V7a1 1 0 0 1 1-1h30a1 1 0 0 1 1 1v18a1 1 0 0 1-1 1zM2 24h28V8H2zm21.51-2.333V14h-2.843v-1.58a11.592 11.592 0 0 0 1.66-.156l-.067.009a2.267 2.267 0 0 0 1.18-.607c.216-.232.378-.517.467-.832l.003-.014a1.81 1.81 0 0 0 .09-.482v-.004h2v11.333zM16 17.333A1.667 1.667 0 1 0 17.667 19c0-.92-.746-1.667-1.667-1.667zm0-6A1.667 1.667 0 1 0 17.667 13c0-.92-.746-1.667-1.667-1.667zm-5.333 10.334V10.334h-2a1.815 1.815 0 0 1-.097.486l.004-.013a2.049 2.049 0 0 1-.468.862l.001-.002a2.26 2.26 0 0 1-1.166.618l-.014.002c-.47.081-1.02.134-1.58.146h-.013V14h2.843v7.667z"/></svg>