<svg xmlns="http://www.w3.org/2000/svg" width="32" height="32"><path d="M31 26H1a1 1 0 0 1-1-1V7a1 1 0 0 1 1-1h30a1 1 0 0 1 1 1v18a1 1 0 0 1-1 1zM2 24h28V8H2zm18-6a1.333 1.333 0 1 1-1.333-1.333c.736 0 1.333.597 1.333 1.333zm-1.333-5.333A1.333 1.333 0 1 0 20 14c0-.736-.597-1.333-1.333-1.333zm4.393 7.11a2.158 2.158 0 0 1-.886-1.614v-.006h1.69c.04.24.16.447.332.596l.001.001c.175.144.4.231.647.231l.052-.001h-.002.016c.556 0 1.023-.377 1.162-.888l.002-.008c.14-.431.224-.927.233-1.442v-.005a1.882 1.882 0 0 1-.488.429l-.008.005a2.275 2.275 0 0 1-1.097.278l-.077-.001h.004-.039a2.71 2.71 0 0 1-1.807-.686l.003.002a2.483 2.483 0 0 1-.797-2.008v.008a2.983 2.983 0 0 1 .802-2.175l-.002.002a2.742 2.742 0 0 1 2.086-.827h-.006q1.97 0 2.703 1.69A6.27 6.27 0 0 1 28 15.886v-.012a6.943 6.943 0 0 1-.415 2.578l.015-.048a2.794 2.794 0 0 1-2.804 1.93h.007-.028c-.645 0-1.24-.209-1.723-.563l.008.006zm2.607-3.93a1.334 1.334 0 0 0 .58-1.246v.006a1.706 1.706 0 0 0-.337-1.128l.003.005a1.146 1.146 0 0 0-.883-.415l-.057.001h.003l-.036-.001c-.268 0-.515.089-.714.239l.003-.002a1.465 1.465 0 0 0-.487 1.256l-.001-.006a1.674 1.674 0 0 0 .294 1.115l-.004-.006a1.168 1.168 0 0 0 .971.376h-.005.004c.246 0 .475-.073.667-.2l-.005.003zm-19.71 4.246V14.26H4v-1.117a6.924 6.924 0 0 0 1.112-.113l-.042.007c.316-.063.589-.218.796-.436l.001-.001c.146-.166.256-.368.314-.59l.002-.01c.032-.098.054-.211.063-.328v-.005h1.333v8.427zm4.21-1.063a5.228 5.228 0 0 1-.579-2.644v.011l-.001-.151c0-.488.029-.97.087-1.442l-.006.057c.073-.654.27-1.249.569-1.78l-.012.023c.233-.395.548-.719.922-.957l.011-.007a2.488 2.488 0 0 1 1.38-.363h-.004a2.727 2.727 0 0 1 1.852.594l-.005-.004c.447.386.738.941.776 1.564v.006h-1.63a.82.82 0 0 0-.155-.442l.002.002a.906.906 0 0 0-.744-.388l-.059.002h.003c-.53 0-.91.297-1.133.887a5.296 5.296 0 0 0-.253 1.44v.01c.187-.227.424-.406.695-.522l.012-.005a2.593 2.593 0 0 1 2.733.583 2.657 2.657 0 0 1 .706 1.911v-.005.049c0 .755-.261 1.45-.699 1.997l.005-.006q-.693.883-2.157.883a2.481 2.481 0 0 1-2.31-1.291l-.007-.013zm3.196-.45a1.657 1.657 0 0 0 .303-1.061v.005a1.572 1.572 0 0 0-.336-1.11l.002.003a1.137 1.137 0 0 0-.856-.387h-.015.001-.019c-.274 0-.526.096-.724.255l.002-.002a1.405 1.405 0 0 0-.483 1.202v-.006a1.594 1.594 0 0 0 .365 1.09l-.002-.003c.214.265.539.433.903.433h.001a.998.998 0 0 0 .854-.417l.002-.003z"/></svg>