<svg xmlns="http://www.w3.org/2000/svg" width="32" height="32"><path d="M31 26H1a1 1 0 0 1-1-1V7a1 1 0 0 1 1-1h30a1 1 0 0 1 1 1v18a1 1 0 0 1-1 1zM2 24h28V8H2zm25.373-5.707a1 1 0 0 1 0 1.414 1 1 0 0 1-1.414 0l-2.293-2.293-2.293 2.293a1 1 0 0 1-1.414 0 1 1 0 0 1 0-1.414L22.252 16l-2.293-2.293a1 1 0 1 1 1.413-1.414l.001.001 2.293 2.293 2.293-2.293a1 1 0 0 1 1.413 1.414l.001-.001L25.08 16zM16 16.667A1.333 1.333 0 1 0 17.333 18c0-.736-.597-1.333-1.333-1.333zM17.333 14A1.333 1.333 0 1 1 16 12.667c.736 0 1.333.597 1.333 1.333zm-7.586 2l2.293-2.293a1 1 0 1 0-1.413-1.414l-.001.001-2.293 2.293-2.293-2.293a1 1 0 1 0-1.414 1.413l.001.001 2.293 2.293-2.293 2.293a1 1 0 0 0 0 1.414 1 1 0 0 0 1.414 0l2.293-2.293 2.293 2.293a1 1 0 0 0 1.414 0 1 1 0 0 0 0-1.414z"/></svg>