<svg xmlns="http://www.w3.org/2000/svg" width="32" height="32"><path d="M31 26H1a1 1 0 0 1-1-1V7a1 1 0 0 1 1-1h30a1 1 0 0 1 1 1v18a1 1 0 0 1-1 1zM2 24h28V8H2zm17.667-2.333c.011-.812.21-1.576.553-2.253l-.013.029q.49-1.13 2.333-2.393a16.965 16.965 0 0 0 2.069-1.59l-.015.014c.433-.409.705-.983.717-1.621v-.002-.038c0-.439-.16-.84-.426-1.148l.002.002a1.47 1.47 0 0 0-1.181-.476h.004q-1.043 0-1.427.757a3.618 3.618 0 0 0-.257 1.353v.036-.002h-2.167v-.021c0-.842.198-1.638.55-2.343l-.014.03q.91-1.667 3.233-1.667a4.175 4.175 0 0 1 2.932 1.005l-.006-.005a3.349 3.349 0 0 1 1.086 2.617v-.007.04c0 .826-.289 1.585-.772 2.18l.005-.006a7.554 7.554 0 0 1-1.637 1.415l-.03.018-.91.627q-.857.587-1.17.85a2.58 2.58 0 0 0-.514.59l-.006.011h5.057v2zM16 17.333A1.667 1.667 0 1 0 17.667 19c0-.92-.746-1.667-1.667-1.667zm0-6A1.667 1.667 0 1 0 17.667 13c0-.92-.746-1.667-1.667-1.667zM8.307 22c1.333 0 2.333-.373 3-1.12.62-.669 1-1.568 1-2.556v-.046.002a2.877 2.877 0 0 0-.869-2.219l-.001-.001c-.387-.36-.687-.537-.893-.537.319-.14.585-.345.794-.6l.003-.004a2.554 2.554 0 0 0 .608-1.659l-.001-.082v.004a2.876 2.876 0 0 0-1.013-2.33l-.004-.003a3.976 3.976 0 0 0-2.675-.863h.009l-.108-.001c-.5 0-.981.08-1.432.227l.033-.009a3.09 3.09 0 0 0-1.063.629l.003-.002a3.7 3.7 0 0 0-.867 1.239l-.009.024a5.648 5.648 0 0 0-.296 1.637v.01h2.143a2.177 2.177 0 0 1 .368-1.381l-.005.008a1.368 1.368 0 0 1 1.188-.516h-.005c.025-.002.053-.002.082-.002.394 0 .751.162 1.008.422.241.27.388.627.388 1.019l-.001.067v-.003q0 1.03-.76 1.367a4.173 4.173 0 0 1-1.556.216h.01v1.64a4.694 4.694 0 0 1 1.7.226l-.033-.009q.923.383.923 1.537a1.729 1.729 0 0 1-.497 1.334 1.659 1.659 0 0 1-1.153.463h-.018.001a1.53 1.53 0 0 1-1.503-.838l-.004-.009a2.57 2.57 0 0 1-.223-1.161v.005H4.336c0 .823.206 1.598.569 2.276l-.013-.026q.96 1.627 3.417 1.627z"/></svg>