<svg xmlns="http://www.w3.org/2000/svg" width="32" height="32"><path d="M24.067 27.333h-.01a1 1 0 0 1-.723-1.69l5.333-5.547a.099.099 0 0 0 0-.047v-.006a.067.067 0 0 0-.02-.047H1a1 1 0 0 1 0-2h27.667c1.109.019 2 .922 2 2.033v.018-.001.005c0 .553-.217 1.055-.571 1.426l.001-.001-5.31 5.547a.999.999 0 0 1-.72.31zM32 13a1 1 0 0 0-1-1H3.35c-.011-.013-.017-.03-.017-.048s.006-.035.017-.048l5.317-5.547a1 1 0 1 0-1.442-1.381l-.001.001-5.32 5.543c-.351.373-.567.877-.567 1.432s.216 1.059.568 1.433l-.001-.001c.36.379.867.615 1.43.617h27.667a1 1 0 0 0 1-1z"/></svg>