<svg version="1.1" xmlns="http://www.w3.org/2000/svg" width="32" height="32" viewBox="0 0 32 32">
<title>versions</title>
<path fill="#333" d="M20 18h-8c-0.736 0-1.333-0.597-1.333-1.333s0.597-1.333 1.333-1.333v0h8c0.736 0 1.333 0.597 1.333 1.333s-0.597 1.333-1.333 1.333v0zM32 4.9v6.1c0 0.017 0.001 0.037 0.001 0.057 0 1.14-0.877 2.076-1.993 2.169l-0.008 0.001v14.030c-0.002 1.146-0.931 2.075-2.076 2.077h-23.847c-1.146-0.002-2.075-0.931-2.077-2.076v-13.924c-0.524-0.031-0.99-0.254-1.333-0.6l-0-0c-0.412-0.417-0.667-0.991-0.667-1.623 0-0.003 0-0.007 0-0.010v0.001-6.123c-0.001-0.019-0.001-0.042-0.001-0.065 0-1.178 0.933-2.138 2.1-2.182l0.004-0 27.797-0.063c0.561 0.006 1.066 0.235 1.433 0.603l0 0c0.412 0.415 0.667 0.988 0.667 1.619 0 0.004 0 0.007-0 0.011v-0.001zM2.667 10.667l26.667-0.087v-5.247l-26.667 0.063zM27.333 26.667v-13.417l-22.667 0.083v13.333z"></path>
</svg>
