<svg xmlns="http://www.w3.org/2000/svg" width="32" height="32"><path d="M16 1v30a1 1 0 0 1-2 0v-1H3a3 3 0 0 1-3-3V16a1 1 0 0 0 1 1h9.59l-3.297 3.3a1 1 0 0 0 0 1.414 1 1 0 0 0 1.414 0l5-5a.997.997 0 0 0 .293-.708V16v-.1l.001-.043-.001-.045v.002a1.005 1.005 0 0 0-.332-.549l-.002-.001-4.96-4.97a1 1 0 0 0-1.413 1.414l-.001-.001L10.579 15H.999a1 1 0 0 0-1 1V5a3 3 0 0 1 3-3h11V1a1 1 0 0 1 2 0zm12 1h-9a1 1 0 0 0 0 2h9c1.143 0 2 .617 2 1.167V15h-8.583l3.29-3.293a1 1 0 0 0-1.414-1.413l.001-.001-5 5c-.048.047-.09.098-.128.153l-.002.004-.027.05a.814.814 0 0 0-.061.118l-.002.006a.523.523 0 0 0-.026.079l-.001.004c0 .033-.023.067-.03.1a.873.873 0 0 0-.017.175v.019V16c0 .07.007.138.021.203l-.001-.006a.53.53 0 0 0 .021.07l-.001-.003a.812.812 0 0 0 .039.126l-.002-.006a.814.814 0 0 0 .038.073l-.002-.003c.018.04.037.074.059.106l-.002-.003c.023.031.046.058.07.084a.452.452 0 0 0 .054.067l5 5a1 1 0 0 0 1.414 0 1 1 0 0 0 0-1.414l-3.293-3.293h8.587v9.833c0 .55-.857 1.167-2 1.167h-9a1 1 0 0 0 0 2h9c2.243 0 4-1.39 4-3.167V5.167c0-1.777-1.757-3.167-4-3.167z"/></svg>