<?xml version="1.0" encoding="utf-8"?>
<!-- Generator: Adobe Illustrator 20.1.0, SVG Export Plug-In . SVG Version: 6.00 Build 0)  -->
<svg version="1.1" id="Layer_2" xmlns="http://www.w3.org/2000/svg" xmlns:xlink="http://www.w3.org/1999/xlink" x="0px" y="0px"
	 viewBox="0 0 72 72" style="enable-background:new 0 0 72 72;" xml:space="preserve">
<g>
	<g>
		<g>
			<g>
				<path d="M66.8,64.8H5.2c-0.6,0-1-0.4-1-1V24.3c0-0.6,0.4-1,1-1h61.6c0.6,0,1,0.4,1,1v39.5C67.8,64.3,67.4,64.8,66.8,64.8z
					 M6.2,62.8h59.6V25.3H6.2V62.8z"/>
			</g>
		</g>
		<g>
			<g>
				<path d="M69.2,25.3H2.8C1.2,25.3,0,24,0,22.5V10c0-1.5,1.2-2.8,2.8-2.8h66.5c1.5,0,2.8,1.2,2.8,2.8v12.5
					C72,24,70.8,25.3,69.2,25.3z M2.8,9.2C2.3,9.2,2,9.6,2,10v12.5c0,0.4,0.3,0.7,0.8,0.7h66.5c0.4,0,0.8-0.3,0.8-0.7V10
					c0-0.4-0.3-0.8-0.8-0.8H2.8z"/>
			</g>
		</g>
	</g>
	<path d="M43.8,35.3H28.1c-0.9,0-1.6-0.7-1.6-1.6c0-0.9,0.7-1.6,1.6-1.6h15.7c0.9,0,1.6,0.7,1.6,1.6C45.5,34.6,44.8,35.3,43.8,35.3z
		"/>
</g>
</svg>
