<svg version="1.1" xmlns="http://www.w3.org/2000/svg" width="32" height="32" viewBox="0 0 32 32">
    <title>+icon/+oss/slider</title>
    <g id="+icon/+oss/slider" stroke="none" stroke-width="1" fill="none" fill-rule="evenodd">
        <path d="M21.3325833,30.3342083 L10.6654166,30.3342083 C9.19239355,30.3342083 7.9983749,29.1401897 7.9983749,27.6671667 L7.9983749,27.6671667 L7.9983749,3.66679163 C7.9983749,2.19376861 9.19239355,0.999749954 10.6654166,0.999749954 L10.6654166,0.999749954 L21.3325833,0.999749954 C22.8056063,0.999749954 23.9996249,2.19376861 23.9996249,3.66679163 L23.9996249,3.66679163 L23.9996249,27.6671667 C23.9996249,29.1401897 22.8056063,30.3342083 21.3325833,30.3342083 L21.3325833,30.3342083 Z M21.3325833,3.66679163 L10.6654166,3.66679163 L10.6654166,27.6671667 L21.3325833,27.6671667 L21.3325833,3.66679163 Z M4.73632392,20.777059 C5.09732956,20.5350552 5.33133322,20.1280488 5.33133322,19.6670416 C5.33133322,19.3930374 5.24833192,19.1380334 5.1063297,18.9260301 L5.10932975,18.9310301 L2.9362958,15.6679792 L5.1063297,12.4279285 C5.2403318,12.2229253 5.32033305,11.9729214 5.32033305,11.7039172 C5.32033305,10.9679057 4.72332372,10.3708964 3.98731222,10.3708964 C3.53630517,10.3708964 3.13729894,10.5948999 2.89629517,10.9379052 L2.89329512,10.9419053 L0.22625345,14.9219675 C0.0862512626,15.1299707 0.00224995001,15.3859747 0.00224995001,15.6619791 C0.00224995001,15.9379834 0.0862512626,16.1939874 0.229253497,16.4069907 L0.22625345,16.4019906 L2.89329512,20.4220534 C3.13529891,20.7830591 3.54230527,21.0170627 4.00331247,21.0170627 C4.27731675,21.0170627 4.53232074,20.9340614 4.74432405,20.7920592 L4.73932397,20.7950593 L4.73632392,20.777059 Z M29.1097048,20.4040532 L31.7767464,16.3839903 C31.9167486,16.1759871 32.00075,15.9199831 32.00075,15.6439788 C32.00075,15.3679745 31.9167486,15.1119705 31.7737464,14.8989671 L31.7767464,14.9039672 L29.1097048,10.923905 C28.865701,10.5768996 28.4666947,10.3528961 28.0156877,10.3528961 C27.2796762,10.3528961 26.6826669,10.9499054 26.6826669,11.6859169 C26.6826669,11.9549211 26.7626681,12.2059251 26.8996702,12.4149283 L26.8966702,12.4099282 L29.0637041,15.6669791 L26.8906701,18.9470304 C26.7316676,19.1640338 26.6366661,19.435038 26.6366661,19.7290426 C26.6366661,20.4650541 27.2336755,21.0620634 27.969687,21.0620634 C28.4506945,21.0620634 28.8717011,20.8070595 29.1067047,20.4250535 L29.1097048,20.4190534 L29.1097048,20.4040532 Z"></path>
    </g>
</svg>