<svg xmlns="http://www.w3.org/2000/svg" width="32" height="32"><path d="M26.427 27.667H5.584a5.583 5.583 0 0 1-5.583-5.573V9.92a5.594 5.594 0 0 1 5.586-5.587h20.827a5.594 5.594 0 0 1 5.587 5.586v12.163a5.583 5.583 0 0 1-5.573 5.583h-.001zM5.587 6.333A3.594 3.594 0 0 0 2 9.919v12.174a3.577 3.577 0 0 0 3.573 3.573h20.854A3.577 3.577 0 0 0 30 22.093V9.919a3.594 3.594 0 0 0-3.586-3.587zm7.08 15.87h-.004a.977.977 0 0 1-.481-.126l.005.003a1.001 1.001 0 0 1-.52-.877V9.69v-.002a1 1 0 0 1 1.544-.839l-.004-.002 9 5.757a1 1 0 0 1 .004 1.684l-.004.002-9 5.757c-.153.098-.34.156-.54.157zm1-10.686v7.86l6.143-3.93z"/></svg>