<?xml version="1.0" encoding="utf-8"?>
<!-- Generator: Adobe Illustrator 20.1.0, SVG Export Plug-In . SVG Version: 6.00 Build 0)  -->
<svg version="1.1" xmlns="http://www.w3.org/2000/svg" xmlns:xlink="http://www.w3.org/1999/xlink" x="0px" y="0px"
	 viewBox="0 0 72 72" style="enable-background:new 0 0 72 72;" xml:space="preserve">
<style type="text/css">
	.st0{display:none;}
	.st1{display:inline;}
	.st2{clip-path:url(#SVGID_3_);}
	.st3{clip-path:url(#SVGID_4_);}
</style>
<g id="Layer_1" class="st0">
	<g class="st1">
		<g>
			<defs>
				<rect id="SVGID_1_" y="9" width="72" height="54"/>
			</defs>
			<defs>
				<path id="SVGID_2_" d="M3.6,47.4c0,6,4.8,10.8,10.8,10.8h43.2c6,0,10.8-4.8,10.8-10.8v-24c0-6-4.8-10.8-10.8-10.8H14.4
					c-6,0-10.8,4.8-10.8,10.8V47.4L3.6,47.4z M14.4,9h43.2c8,0,14.4,6.4,14.4,14.4v24c0,7.9-6.5,14.4-14.4,14.4H14.4
					C6.4,61.8,0,55.4,0,47.4v-24C0,15.4,6.5,9,14.4,9L14.4,9z M47.5,34.5L47.5,34.5l-0.2-0.2c0,0-0.1,0-0.1-0.1L28.6,23.7l0,0
					c-0.2-0.2-0.5-0.3-0.8-0.3c-0.7,0-1.3,0.6-1.3,1.4v21.6c0,0.7,0.6,1.4,1.3,1.4c0.3,0,0.6-0.1,0.8-0.3l0,0l18.6-10.6
					c0,0,0.1,0,0.1-0.1l0.2-0.1l0,0c0.3-0.2,0.5-0.6,0.5-1S47.8,34.8,47.5,34.5L47.5,34.5z"/>
			</defs>
			<clipPath id="SVGID_3_">
				<use xlink:href="#SVGID_1_"  style="overflow:visible;"/>
			</clipPath>
			<clipPath id="SVGID_4_" class="st2">
				<use xlink:href="#SVGID_2_"  style="overflow:visible;"/>
			</clipPath>
			<rect x="-11.3" y="-2.3" class="st3" width="94.5" height="75.3"/>
		</g>
	</g>
</g>
<g id="Layer_2">
	<g>
		<g>
			<path d="M59,62H13C5.8,62,0,56.2,0,49V23c0-7.2,5.8-13,13-13h46c7.2,0,13,5.8,13,13v26C72,56.2,66.2,62,59,62z M13,12
				C6.9,12,2,16.9,2,23v26c0,6.1,4.9,11,11,11h46c6.1,0,11-4.9,11-11V23c0-6.1-4.9-11-11-11H13z"/>
		</g>
		<g>
			<polygon points="28.5,25.2 47.5,36 28.5,46.8 			"/>
			<path d="M28.5,47.8c-0.2,0-0.3,0-0.5-0.1c-0.3-0.2-0.5-0.5-0.5-0.9V25.2c0-0.4,0.2-0.7,0.5-0.9c0.3-0.2,0.7-0.2,1,0l19,10.7
				c0.3,0.2,0.5,0.5,0.5,0.9c0,0.4-0.2,0.7-0.5,0.9L29,47.6C28.8,47.7,28.7,47.8,28.5,47.8z M29.5,27V45l16-9.1L29.5,27z"/>
		</g>
	</g>
</g>
</svg>
