<svg version="1.1" xmlns="http://www.w3.org/2000/svg" width="32" height="32" viewBox="0 0 32 32">
<title>video</title>
<path fill="#333" d="M26.667 28.333h-21.333c-2.946 0-5.333-2.388-5.333-5.333v0-13.333c0-2.946 2.388-5.333 5.333-5.333v0h21.333c2.946 0 5.333 2.388 5.333 5.333v0 13.333c0 2.946-2.388 5.333-5.333 5.333v0zM5.333 7c-1.473 0-2.667 1.194-2.667 2.667v0 13.333c0 1.473 1.194 2.667 2.667 2.667v0h21.333c1.473 0 2.667-1.194 2.667-2.667v0-13.333c0-1.473-1.194-2.667-2.667-2.667v0zM20.503 15.713l-7.333-4.333c-0.049-0.029-0.107-0.047-0.17-0.047-0.184 0-0.333 0.149-0.333 0.333v0 8.667c0 0.184 0.149 0.333 0.333 0.333v0c0.063-0 0.121-0.017 0.171-0.047l-0.002 0.001 7.333-4.333c0.098-0.059 0.163-0.165 0.163-0.287s-0.065-0.228-0.162-0.286l-0.002-0.001z"></path>
</svg>
