<?xml version="1.0" encoding="utf-8"?>
<!-- Generator: Adobe Illustrator 20.1.0, SVG Export Plug-In . SVG Version: 6.00 Build 0)  -->
<svg version="1.1" id="Layer_1" xmlns="http://www.w3.org/2000/svg" xmlns:xlink="http://www.w3.org/1999/xlink" x="0px" y="0px"
	 viewBox="0 0 72 72" style="enable-background:new 0 0 72 72;" xml:space="preserve">
<path d="M67,54H5c-2.7,0-5-2.4-5-5.2V13.4C0,10.9,2.1,9,5,9h62c2.9,0,5,1.9,5,4.4v35.4C72,51.6,69.7,54,67,54z M5,11
	c-1.4,0-3,0.8-3,2.4v35.4C2,50.3,3.3,52,5,52h62c1.7,0,3-1.7,3-3.2V13.4c0-1.7-1.6-2.4-3-2.4H5z M31,53v9 M31,63c-0.6,0-1-0.4-1-1
	v-9c0-0.6,0.4-1,1-1s1,0.4,1,1v9C32,62.6,31.6,63,31,63z M41,62v-9 M41,63c-0.6,0-1-0.4-1-1v-9c0-0.6,0.4-1,1-1s1,0.4,1,1v9
	C42,62.6,41.6,63,41,63z M26,62.4l20,0 M26,63c-0.6,0-1-0.3-1-0.8c0-0.6,0.4-0.9,1-0.9l20,0v0c1,0,1,0.5,1,1c0,0.6-0.4,0.8-1,0.8
	L26,63C26,63,26,63,26,63z"/>
</svg>
