<svg version="1.1" xmlns="http://www.w3.org/2000/svg" width="32" height="32" viewBox="0 0 32 32">
<title>view-tablet</title>
<path fill="#333" d="M24 3.333h-16c-1.473 0-2.667 1.194-2.667 2.667v0 20c0 1.473 1.194 2.667 2.667 2.667v0h16c1.473 0 2.667-1.194 2.667-2.667v0-20c0-1.473-1.194-2.667-2.667-2.667v0zM24 6v1.333h-16v-1.333zM24 10v9.333h-16v-9.333zM8 26v-4h16v4zM17.333 24c0 0.736-0.597 1.333-1.333 1.333s-1.333-0.597-1.333-1.333c0-0.736 0.597-1.333 1.333-1.333v0c0.736 0 1.333 0.597 1.333 1.333v0z"></path>
</svg>
