<svg xmlns="http://www.w3.org/2000/svg" width="32" height="32"><path d="M19.667 29.667H11a1 1 0 0 1 0-2h8.667a1 1 0 0 1 0 2zm12.333-5a1 1 0 0 0-1-1H11a1 1 0 0 0 0 2h20a1 1 0 0 0 1-1zM8 28.333V25a2.333 2.333 0 0 0-2.333-2.333H2.334A2.333 2.333 0 0 0 .001 25v3.333a2.333 2.333 0 0 0 2.333 2.333h3.333A2.333 2.333 0 0 0 8 28.333zm-2.333-3.666c.184 0 .333.149.333.333v3.333a.333.333 0 0 1-.333.333H2.334a.333.333 0 0 1-.333-.333V25c0-.184.149-.333.333-.333zm14-5.667H11a1 1 0 0 1 0-2h8.667a1 1 0 0 1 0 2zM32 14a1 1 0 0 0-1-1H11a1 1 0 0 0 0 2h20a1 1 0 0 0 1-1zM8 17.667v-3.333a2.333 2.333 0 0 0-2.333-2.333H2.334a2.333 2.333 0 0 0-2.333 2.333v3.333A2.333 2.333 0 0 0 2.334 20h3.333A2.333 2.333 0 0 0 8 17.667zM5.667 14c.184 0 .333.149.333.333v3.333a.333.333 0 0 1-.333.333H2.334a.333.333 0 0 1-.333-.333v-3.333c0-.184.149-.333.333-.333zm14-5.667H11a1 1 0 0 1 0-2h8.667a1 1 0 0 1 0 2zm12.333-5a1 1 0 0 0-1-1H11a1 1 0 0 0 0 2h20a1 1 0 0 0 1-1zM8 7V3.667a2.333 2.333 0 0 0-2.333-2.333H2.334A2.333 2.333 0 0 0 .001 3.667V7a2.333 2.333 0 0 0 2.333 2.333h3.333A2.333 2.333 0 0 0 8 7zM5.667 3.333c.184 0 .333.149.333.333v3.333a.333.333 0 0 1-.333.333H2.334a.333.333 0 0 1-.333-.333V3.666c0-.184.149-.333.333-.333z"/></svg>