<svg version="1.1" xmlns="http://www.w3.org/2000/svg" width="32" height="32" viewBox="0 0 32 32">
<title>view-grid</title>
<path fill="#333" d="M29.333 32h-9.333c-1.473 0-2.667-1.194-2.667-2.667v0-9.333c0-1.473 1.194-2.667 2.667-2.667v0h9.333c1.473 0 2.667 1.194 2.667 2.667v0 9.333c0 1.473-1.194 2.667-2.667 2.667v0zM20 20v9.333h9.333v-9.333zM12 32h-9.333c-1.473 0-2.667-1.194-2.667-2.667v0-9.333c0-1.473 1.194-2.667 2.667-2.667v0h9.333c1.473 0 2.667 1.194 2.667 2.667v0 9.333c0 1.473-1.194 2.667-2.667 2.667v0zM2.667 20v9.333h9.333v-9.333zM29.333 14.667h-9.333c-1.473 0-2.667-1.194-2.667-2.667v0-9.333c0-1.473 1.194-2.667 2.667-2.667v0h9.333c1.473 0 2.667 1.194 2.667 2.667v0 9.333c0 1.473-1.194 2.667-2.667 2.667v0zM20 2.667v9.333h9.333v-9.333zM12 14.667h-9.333c-1.473 0-2.667-1.194-2.667-2.667v0-9.333c0-1.473 1.194-2.667 2.667-2.667v0h9.333c1.473 0 2.667 1.194 2.667 2.667v0 9.333c0 1.473-1.194 2.667-2.667 2.667v0zM2.667 2.667v9.333h9.333v-9.333z"></path>
</svg>
