<?xml version="1.0" encoding="utf-8"?>
<!-- Generator: Adobe Illustrator 20.1.0, SVG Export Plug-In . SVG Version: 6.00 Build 0)  -->
<svg version="1.1" id="Layer_1" xmlns="http://www.w3.org/2000/svg" xmlns:xlink="http://www.w3.org/1999/xlink" x="0px" y="0px"
	 viewBox="0 0 72 72" style="enable-background:new 0 0 72 72;" xml:space="preserve">
<path d="M71,5H24c-0.6,0-1-0.4-1-1s0.4-1,1-1h47c0.6,0,1,0.4,1,1S71.6,5,71,5z M48,15H24c-0.6,0-1-0.4-1-1s0.4-1,1-1h24
	c0.6,0,1,0.4,1,1S48.6,15,48,15z M10,16H5c-2.8,0-5-2.2-5-5V6c0-2.8,2.2-5,5-5h5c2.8,0,5,2.2,5,5v5C15,13.8,12.8,16,10,16z M5,3
	C3.3,3,2,4.3,2,6v5c0,1.7,1.3,3,3,3h5c1.7,0,3-1.3,3-3V6c0-1.7-1.3-3-3-3H5z M71,32H24c-0.6,0-1-0.4-1-1s0.4-1,1-1h47
	c0.6,0,1,0.4,1,1S71.6,32,71,32z M48,42H24c-0.6,0-1-0.4-1-1s0.4-1,1-1h24c0.6,0,1,0.4,1,1S48.6,42,48,42z M10,44H5
	c-2.8,0-5-2.2-5-5v-5c0-2.8,2.2-5,5-5h5c2.8,0,5,2.2,5,5v5C15,41.8,12.8,44,10,44z M5,31c-1.7,0-3,1.3-3,3v5c0,1.7,1.3,3,3,3h5
	c1.7,0,3-1.3,3-3v-5c0-1.7-1.3-3-3-3H5z M71,59H24c-0.6,0-1-0.4-1-1s0.4-1,1-1h47c0.6,0,1,0.4,1,1S71.6,59,71,59z M48,69H24
	c-0.6,0-1-0.4-1-1s0.4-1,1-1h24c0.6,0,1,0.4,1,1S48.6,69,48,69z M10,71H5c-2.8,0-5-2.2-5-5v-5c0-2.8,2.2-5,5-5h5c2.8,0,5,2.2,5,5v5
	C15,68.8,12.8,71,10,71z M5,58c-1.7,0-3,1.3-3,3v5c0,1.7,1.3,3,3,3h5c1.7,0,3-1.3,3-3v-5c0-1.7-1.3-3-3-3H5z"/>
</svg>
