<?xml version="1.0" encoding="utf-8"?>
<!-- Generator: Adobe Illustrator 20.1.0, SVG Export Plug-In . SVG Version: 6.00 Build 0)  -->
<svg version="1.1" id="Layer_1" xmlns="http://www.w3.org/2000/svg" xmlns:xlink="http://www.w3.org/1999/xlink" x="0px" y="0px"
	 viewBox="0 0 72 72" style="enable-background:new 0 0 72 72;" xml:space="preserve">
<path d="M49,60H23c-2.8,0-5-2.2-5-5V18c0-2.8,2.2-5,5-5h26c2.8,0,5,2.2,5,5v37C54,57.8,51.8,60,49,60z M23,15c-1.7,0-3,1.3-3,3v37
	c0,1.7,1.3,3,3,3h26c1.7,0,3-1.3,3-3V18c0-1.7-1.3-3-3-3H23z M53,22H19v-2h34V22z M53,51H19v-2h34V51z M35.9,56c-1.1,0-2-0.9-2-2
	s0.9-2,2-2c1.1,0,2,0.9,2,2S37.1,56,35.9,56z M35.9,54L35.9,54L35.9,54z"/>
</svg>
