<svg xmlns="http://www.w3.org/2000/svg" width="32" height="32"><path d="M31 32H11a1 1 0 0 1-1-1v-6a1 1 0 0 1 1-1h20a1 1 0 0 1 1 1v6a1 1 0 0 1-1 1zm-19-2h18v-4H12zm-5 2H1a1 1 0 0 1-1-1v-6a1 1 0 0 1 1-1h6a1 1 0 0 1 1 1v6a1 1 0 0 1-1 1zm-5-2h4v-4H2zm29-10H11a1 1 0 0 1-1-1v-6a1 1 0 0 1 1-1h20a1 1 0 0 1 1 1v6a1 1 0 0 1-1 1zm-19-2h18v-4H12zm-5 2H1a1 1 0 0 1-1-1v-6a1 1 0 0 1 1-1h6a1 1 0 0 1 1 1v6a1 1 0 0 1-1 1zm-5-2h4v-4H2zM31 8H11a1 1 0 0 1-1-1V1a1 1 0 0 1 1-1h20a1 1 0 0 1 1 1v6a1 1 0 0 1-1 1zM12 6h18V2H12zM7 8H1a1 1 0 0 1-1-1V1a1 1 0 0 1 1-1h6a1 1 0 0 1 1 1v6a1 1 0 0 1-1 1zM2 6h4V2H2z"/></svg>