<svg version="1.1" xmlns="http://www.w3.org/2000/svg" width="32" height="32" viewBox="0 0 32 32">
<title>view-custom</title>
<path fill="#333" d="M30.667 5.333h-20c-0.736 0-1.333-0.597-1.333-1.333s0.597-1.333 1.333-1.333v0h20c0.736 0 1.333 0.597 1.333 1.333s-0.597 1.333-1.333 1.333v0zM20.667 8c0-0.736-0.597-1.333-1.333-1.333v0h-8.667c-0.736 0-1.333 0.597-1.333 1.333s0.597 1.333 1.333 1.333v0h8.667c0.736 0 1.333-0.597 1.333-1.333v0zM32 14c0-0.736-0.597-1.333-1.333-1.333v0h-20c-0.736 0-1.333 0.597-1.333 1.333s0.597 1.333 1.333 1.333v0h20c0.736 0 1.333-0.597 1.333-1.333v0zM20.667 18c0-0.736-0.597-1.333-1.333-1.333v0h-8.667c-0.736 0-1.333 0.597-1.333 1.333s0.597 1.333 1.333 1.333v0h8.667c0.736 0 1.333-0.597 1.333-1.333v0zM32 24c0-0.736-0.597-1.333-1.333-1.333v0h-20c-0.736 0-1.333 0.597-1.333 1.333s0.597 1.333 1.333 1.333v0h20c0.736 0 1.333-0.597 1.333-1.333v0zM20.667 28c0-0.736-0.597-1.333-1.333-1.333v0h-8.667c-0.736 0-1.333 0.597-1.333 1.333s0.597 1.333 1.333 1.333v0h8.667c0.736 0 1.333-0.597 1.333-1.333v0zM8 7.333v-2.667c0-1.473-1.194-2.667-2.667-2.667v0h-2.667c-1.473 0-2.667 1.194-2.667 2.667v0 2.667c0 1.473 1.194 2.667 2.667 2.667v0h2.667c1.473 0 2.667-1.194 2.667-2.667v0zM5.333 4.667v2.667h-2.667v-2.667zM8 17.333v-2.667c0-1.473-1.194-2.667-2.667-2.667v0h-2.667c-1.473 0-2.667 1.194-2.667 2.667v0 2.667c0 1.473 1.194 2.667 2.667 2.667v0h2.667c1.473 0 2.667-1.194 2.667-2.667v0zM5.333 14.667v2.667h-2.667v-2.667zM8 27.333v-2.667c0-1.473-1.194-2.667-2.667-2.667v0h-2.667c-1.473 0-2.667 1.194-2.667 2.667v0 2.667c0 1.473 1.194 2.667 2.667 2.667v0h2.667c1.473 0 2.667-1.194 2.667-2.667v0zM5.333 24.667v2.667h-2.667v-2.667z"></path>
</svg>
