<svg version="1.1" xmlns="http://www.w3.org/2000/svg" width="32" height="32" viewBox="0 0 32 32">
<title>view-mobile</title>
<path fill="#333" d="M20 4.333h-8c-1.473 0-2.667 1.194-2.667 2.667v0 17.333c0 1.473 1.194 2.667 2.667 2.667v0h8c1.473 0 2.667-1.194 2.667-2.667v0-17.333c0-1.473-1.194-2.667-2.667-2.667v0zM12 11h8v6.667h-8zM20 7v1.333h-8v-1.333zM12 24.333v-4h8v4zM17.333 22.333c0 0.736-0.597 1.333-1.333 1.333s-1.333-0.597-1.333-1.333c0-0.736 0.597-1.333 1.333-1.333v0c0.736 0 1.333 0.597 1.333 1.333v0z"></path>
</svg>
