<svg version="1.1" xmlns="http://www.w3.org/2000/svg" width="32" height="32" viewBox="0 0 32 32">
<title>view</title>
<path fill="#333" d="M18 15.94c0 1.105-0.895 2-2 2s-2-0.895-2-2c0-1.105 0.895-2 2-2v0c1.105 0 2 0.895 2 2v0zM22 15.94c0 3.314-2.686 6-6 6s-6-2.686-6-6c0-3.314 2.686-6 6-6v0c3.314 0 6 2.686 6 6v0zM19.333 15.94c0-1.841-1.492-3.333-3.333-3.333s-3.333 1.492-3.333 3.333c0 1.841 1.492 3.333 3.333 3.333v0c1.841 0 3.333-1.492 3.333-3.333v0zM31.78 15.203c-5.027-7.617-10.447-11.38-16.113-11.203-9.143 0.307-15.237 10.83-15.493 11.28-0.11 0.192-0.174 0.422-0.174 0.667 0 0.019 0 0.037 0.001 0.056l-0-0.003c-0.001 0.018-0.001 0.039-0.001 0.060 0 0.243 0.065 0.47 0.178 0.666l-0.003-0.006c1.252 2.066 2.642 3.856 4.21 5.471l-0.007-0.007c3.557 3.677 7.463 5.683 11.29 5.817h0.4c5.52 0 10.807-3.767 15.713-11.203 0.138-0.228 0.22-0.503 0.22-0.797s-0.082-0.569-0.224-0.804l0.004 0.007zM15.763 25.333c-6.523-0.21-11.533-7.213-12.9-9.333 1.367-2.117 6.377-9.12 12.9-9.333 4.507-0.15 9 3 13.333 9.333-4.333 6.333-8.82 9.477-13.333 9.333z"></path>
</svg>
