<svg version="1.1" xmlns="http://www.w3.org/2000/svg" width="32" height="32" viewBox="0 0 32 32">
<title>view-list</title>
<path fill="#333" d="M5.333 30h-2.667c-1.473 0-2.667-1.194-2.667-2.667v0-2.667c0-1.473 1.194-2.667 2.667-2.667v0h2.667c1.473 0 2.667 1.194 2.667 2.667v0 2.667c0 1.473-1.194 2.667-2.667 2.667v0zM2.667 24.667v2.667h2.667v-2.667zM5.333 20h-2.667c-1.473 0-2.667-1.194-2.667-2.667v0-2.667c0-1.473 1.194-2.667 2.667-2.667v0h2.667c1.473 0 2.667 1.194 2.667 2.667v0 2.667c0 1.473-1.194 2.667-2.667 2.667v0zM2.667 14.667v2.667h2.667v-2.667zM5.333 10h-2.667c-1.473 0-2.667-1.194-2.667-2.667v0-2.667c0-1.473 1.194-2.667 2.667-2.667v0h2.667c1.473 0 2.667 1.194 2.667 2.667v0 2.667c0 1.473-1.194 2.667-2.667 2.667v0zM2.667 4.667v2.667h2.667v-2.667zM30 30h-18.667c-1.105 0-2-0.895-2-2v0-4c0-1.105 0.895-2 2-2v0h18.667c1.105 0 2 0.895 2 2v0 4c0 1.105-0.895 2-2 2v0zM12 27.333h17.333v-2.667h-17.333zM30 20h-18.667c-1.105 0-2-0.895-2-2v0-4c0-1.105 0.895-2 2-2v0h18.667c1.105 0 2 0.895 2 2v0 4c0 1.105-0.895 2-2 2v0zM12 17.333h17.333v-2.667h-17.333zM30 10h-18.667c-1.105 0-2-0.895-2-2v0-4c0-1.105 0.895-2 2-2v0h18.667c1.105 0 2 0.895 2 2v0 4c0 1.105-0.895 2-2 2v0zM12 7.333h17.333v-2.667h-17.333z"></path>
</svg>
