<svg xmlns="http://www.w3.org/2000/svg" width="32" height="32"><path d="M16.233 24a10.35 10.35 0 0 1-2.171-.232l.068.012a1 1 0 1 1 .413-1.959l-.007-.001c.51.114 1.095.179 1.696.18h.001c3 0 6.08-1.667 9.37-5.133.249-.279.401-.648.401-1.053s-.152-.775-.403-1.055l.001.002c-.6-.63-1.17-1.18-1.733-1.667a1.002 1.002 0 1 1 1.334-1.499l-.001-.001c.61.533 1.22 1.123 1.87 1.807.586.635.946 1.487.946 2.423s-.36 1.788-.948 2.426l.002-.002c-3.71 3.87-7.25 5.753-10.84 5.753zm10.14-18.373a1 1 0 0 0-1.414 0l-7.667 7.667a2.896 2.896 0 0 0-1.279-.293h-.015.001a3 3 0 0 0-3 3v.005c0 .468.11.91.304 1.303l-.008-.017-7.667 7.667a1 1 0 0 0 0 1.414 1 1 0 0 0 1.414 0l7.667-7.667c.375.187.818.297 1.285.297h.005a3 3 0 0 0 3-3v-.005c0-.468-.11-.91-.304-1.303l.008.017 7.667-7.667a1 1 0 0 0 .004-1.417zM8.23 20.333a.998.998 0 0 0-.089-1.409l-.001-.001a30.57 30.57 0 0 1-1.733-1.667c-.249-.279-.401-.648-.401-1.053s.152-.775.403-1.055l-.001.002c3.28-3.483 6.347-5.15 9.36-5.15a8.212 8.212 0 0 1 1.751.19l-.054-.01a1 1 0 0 0 .413-1.959l-.007-.001A10.018 10.018 0 0 0 15.768 8h-.001c-3.59 0-7.13 1.883-10.827 5.763-.586.635-.946 1.487-.946 2.423s.36 1.788.948 2.426l-.002-.002c.667.683 1.26 1.273 1.87 1.807a.996.996 0 0 0 1.419-.082l.001-.001zM2 6.333v-3.21C2 2.503 2.503 2 3.123 2h3.21a1 1 0 0 0 0-2h-3.21A3.127 3.127 0 0 0 0 3.123v3.21a1 1 0 0 0 2 0zm29 1a1 1 0 0 1-1-1v-3.21C30 2.503 29.497 2 28.877 2h-3.21a1 1 0 0 1 0-2h3.21A3.127 3.127 0 0 1 32 3.123v3.21a1 1 0 0 1-1 1zM6.333 32h-3.21A3.127 3.127 0 0 1 0 28.877v-3.21a1 1 0 0 1 2 0v3.21C2 29.497 2.503 30 3.123 30h3.21a1 1 0 0 1 0 2zm22.544 0h-3.21a1 1 0 0 1 0-2h3.21c.62 0 1.123-.503 1.123-1.123v-3.21a1 1 0 0 1 2 0v3.21A3.127 3.127 0 0 1 28.877 32zM20 1a1 1 0 0 0-1-1h-6a1 1 0 0 0 0 2h6a1 1 0 0 0 1-1zm-1 31h-6a1 1 0 0 1 0-2h6a1 1 0 0 1 0 2zm12-12a1 1 0 0 1-1-1v-6a1 1 0 0 1 2 0v6a1 1 0 0 1-1 1zM1 20a1 1 0 0 1-1-1v-6a1 1 0 0 1 2 0v6a1 1 0 0 1-1 1z"/></svg>