<svg version="1.1" xmlns="http://www.w3.org/2000/svg" width="32" height="32" viewBox="0 0 32 32">
<title>view-hide</title>
<path fill="#333" d="M31.783 16.733c-3.577 5.443-8.987 11.267-15.753 11.267-1.622-0.010-3.168-0.323-4.59-0.883l0.086 0.030c-0.441-0.224-0.737-0.674-0.737-1.193 0-0.736 0.597-1.333 1.333-1.333 0.124 0 0.243 0.017 0.357 0.048l-0.009-0.002c5.667 2.14 11.273-0.82 16.683-8.787-1.089-1.447-2.209-2.729-3.414-3.924l-0.002-0.002c-0.261-0.244-0.423-0.59-0.423-0.975 0-0.736 0.597-1.333 1.333-1.333 0.374 0 0.711 0.154 0.953 0.401l0 0c1.477 1.464 2.837 3.041 4.066 4.72l0.077 0.11c0.167 0.22 0.268 0.499 0.268 0.802 0 0.061-0.004 0.12-0.012 0.179l0.001-0.007c0.005 0.043 0.008 0.093 0.008 0.143 0 0.276-0.084 0.532-0.227 0.745l0.003-0.005zM20.45 4.757c-4.89-1.757-9.98-0.423-14.713 3.81-2.142 1.952-3.986 4.178-5.491 6.634l-0.076 0.133c-0.114 0.19-0.181 0.42-0.181 0.665 0 0.061 0.004 0.12 0.012 0.179l-0.001-0.007c-0.008 0.053-0.012 0.115-0.012 0.178 0 0.263 0.078 0.509 0.212 0.714l-0.003-0.005c1.271 1.843 2.659 3.452 4.201 4.898l0.016 0.015c0.239 0.226 0.561 0.365 0.917 0.365 0.737 0 1.335-0.598 1.335-1.335 0-0.382-0.16-0.726-0.417-0.969l-0.001-0.001c-1.243-1.178-2.37-2.452-3.378-3.818l-0.055-0.079c1.537-2.383 8.297-11.89 16.737-8.867 0.13 0.046 0.279 0.073 0.435 0.073 0.736 0 1.333-0.597 1.333-1.333 0-0.569-0.357-1.055-0.859-1.247l-0.009-0.003zM11.333 16.667c-0.026 0.002-0.057 0.003-0.088 0.003s-0.062-0.001-0.093-0.003l0.004 0c-0.662-0.084-1.169-0.645-1.169-1.323 0-0.065 0.005-0.128 0.014-0.191l-0.001 0.007c0.374-2.681 2.465-4.778 5.111-5.156l0.032-0.004c0.057-0.008 0.122-0.013 0.188-0.013 0.744 0 1.347 0.603 1.347 1.347 0 0.677-0.5 1.238-1.151 1.332l-0.007 0.001c-1.477 0.215-2.631 1.365-2.851 2.821l-0.002 0.019c-0.089 0.658-0.647 1.16-1.322 1.16-0.004 0-0.008-0-0.012-0h0.001zM16.837 22c2.591-0.328 4.642-2.288 5.104-4.804l0.006-0.036c0.020-0.12 0.033-0.243 0.047-0.363 0.004-0.039 0.006-0.084 0.006-0.13 0-0.74-0.6-1.34-1.34-1.34-0.694 0-1.265 0.528-1.333 1.204l-0 0.006c0 0.067-0.017 0.13-0.027 0.193-0.274 1.381-1.396 2.435-2.791 2.602l-0.015 0.002c-0.7 0.047-1.249 0.626-1.249 1.333 0 0.738 0.598 1.336 1.336 1.336 0.030 0 0.061-0.001 0.091-0.003l-0.004 0c0.025 0.002 0.055 0.002 0.085 0.002s0.060-0.001 0.089-0.003l-0.004 0zM28.277 3.733c-0.241-0.242-0.575-0.391-0.943-0.391s-0.702 0.149-0.943 0.391v0l-10.283 10.267h-0.107c-1.105 0-2 0.895-2 2v0 0.11l-10.28 10.28c-0.241 0.241-0.391 0.575-0.391 0.943 0 0.737 0.597 1.334 1.334 1.334 0.368 0 0.702-0.149 0.943-0.391v0l10.283-10.277h0.11c1.105 0 2-0.895 2-2v0-0.11l10.277-10.28c0.242-0.241 0.391-0.575 0.391-0.943s-0.149-0.702-0.391-0.943v0z"></path>
</svg>
