<?xml version="1.0" encoding="utf-8"?>
<!-- Generator: Adobe Illustrator 20.1.0, SVG Export Plug-In . SVG Version: 6.00 Build 0)  -->
<svg version="1.1" id="Layer_2" xmlns="http://www.w3.org/2000/svg" xmlns:xlink="http://www.w3.org/1999/xlink" x="0px" y="0px"
	 viewBox="0 0 72 72" style="enable-background:new 0 0 72 72;" xml:space="preserve">
<g>
	<g>
		<g>
			<path d="M2.2,37.3c-0.2,0-0.4,0-0.5-0.1c-0.5-0.3-0.6-0.9-0.3-1.4c0.1-0.2,3.5-5.6,9.4-11.2C18.5,17.1,27,13,35.2,12.7
				c12.3-0.4,24.2,7.3,35.5,23c0.3,0.4,0.2,1.1-0.2,1.4c-0.5,0.3-1.1,0.2-1.4-0.2C58.2,21.8,46.9,14.3,35.3,14.7
				C16.5,15.4,3.1,36.6,3,36.8C2.8,37.1,2.5,37.3,2.2,37.3z"/>
		</g>
		<g>
			<path d="M36.2,59.9c-0.3,0-0.6,0-0.9,0C27,59.6,18.5,55.5,10.7,48c-5.8-5.6-9.2-11-9.4-11.2c-0.3-0.5-0.1-1.1,0.3-1.4
				c0.5-0.3,1.1-0.1,1.4,0.3C3.1,36,16.5,57.2,35.3,57.8c11.6,0.4,23-7.1,33.7-22.1c0.3-0.4,0.9-0.6,1.4-0.2
				c0.4,0.3,0.6,0.9,0.2,1.4C59.7,52.1,48.1,59.9,36.2,59.9z"/>
		</g>
	</g>
	<g>
		<path d="M36,49c-7.2,0-13-5.8-13-13c0-7.2,5.8-13,13-13c7.2,0,13,5.8,13,13C49,43.2,43.2,49,36,49z M36,25c-6.1,0-11,4.9-11,11
			s4.9,11,11,11s11-4.9,11-11S42.1,25,36,25z"/>
	</g>
	<g>
		<circle cx="36" cy="36" r="5"/>
		<path d="M36,42c-3.3,0-6-2.7-6-6s2.7-6,6-6s6,2.7,6,6S39.3,42,36,42z M36,32c-2.2,0-4,1.8-4,4c0,2.2,1.8,4,4,4c2.2,0,4-1.8,4-4
			C40,33.8,38.2,32,36,32z"/>
	</g>
</g>
</svg>
