<svg version="1.1" xmlns="http://www.w3.org/2000/svg" width="32" height="32" viewBox="0 0 32 32">
<title>view-desktop</title>
<path fill="#333" d="M30 2.667h-28c-1.105 0-2 0.895-2 2v0 17.333c0 1.105 0.895 2 2 2v0h10v2.667h-0.667c-0.736 0-1.333 0.597-1.333 1.333s0.597 1.333 1.333 1.333v0h9.333c0.736 0 1.333-0.597 1.333-1.333s-0.597-1.333-1.333-1.333v0h-0.667v-2.667h10c1.105 0 2-0.895 2-2v0-17.333c0-1.105-0.895-2-2-2v0zM17.333 26.667h-2.667v-2.667h2.667zM29.333 21.333h-26.667v-16h26.667z"></path>
</svg>
