<svg xmlns="http://www.w3.org/2000/svg" width="32" height="32"><path d="M15.807 26C10.02 26 4.29 21.967.83 18.153c-.515-.567-.831-1.324-.831-2.155s.316-1.588.833-2.158l-.002.003C4.29 10.033 10.02 6 15.807 6H16c5.863-.097 11.667 4 15.173 7.84.515.567.831 1.324.831 2.155s-.316 1.588-.833 2.158l.002-.003C27.666 22 21.846 26.1 16 26zm0-18C10.667 8 5.48 11.697 2.31 15.187a1.205 1.205 0 0 0 .001 1.627l-.001-.001C5.48 20.303 10.667 24 15.803 24h.39c5.13 0 10.333-3.697 13.497-7.19a1.205 1.205 0 0 0-.001-1.627l.001.001c-3.173-3.487-8.357-7.183-13.497-7.183h-.39zM16 22h-.287A6.045 6.045 0 0 1 10 16.295l-.001-.015A6 6 0 0 1 15.992 10h.007a6 6 0 1 1 0 12zm0-10h-.005A4 4 0 0 0 12 16.199v-.009A4.03 4.03 0 0 0 15.8 20h.01A4 4 0 0 0 20 16.005V16a4 4 0 0 0-4-4zm5 4z"/></svg>