<?xml version="1.0" encoding="utf-8"?>
<!-- Generator: Adobe Illustrator 20.1.0, SVG Export Plug-In . SVG Version: 6.00 Build 0)  -->
<svg version="1.1" id="Layer_1" xmlns="http://www.w3.org/2000/svg" xmlns:xlink="http://www.w3.org/1999/xlink" x="0px" y="0px"
	 viewBox="0 0 72 72" style="enable-background:new 0 0 72 72;" xml:space="preserve">
<path d="M45,60H27c-2.8,0-5-2.2-5-5V18c0-2.8,2.2-5,5-5h18c2.8,0,5,2.2,5,5v37C50,57.8,47.8,60,45,60z M27,15c-1.7,0-3,1.3-3,3v37
	c0,1.7,1.3,3,3,3h18c1.7,0,3-1.3,3-3V18c0-1.7-1.3-3-3-3H27z M49,22H23c-0.6,0-1-0.4-1-1s0.4-1,1-1h26c0.6,0,1,0.4,1,1
	S49.6,22,49,22z M49,51H23c-0.6,0-1-0.4-1-1s0.4-1,1-1h26c0.6,0,1,0.4,1,1S49.6,51,49,51z M35.9,56c-1.1,0-2-0.9-2-2s0.9-2,2-2
	c1.1,0,2,0.9,2,2S37.1,56,35.9,56z M35.9,54L35.9,54L35.9,54z"/>
</svg>
