<?xml version="1.0" encoding="utf-8"?>
<!-- Generator: Adobe Illustrator 20.1.0, SVG Export Plug-In . SVG Version: 6.00 Build 0)  -->
<svg version="1.1" id="Layer_1" xmlns="http://www.w3.org/2000/svg" xmlns:xlink="http://www.w3.org/1999/xlink" x="0px" y="0px"
	 viewBox="0 0 72 72" style="enable-background:new 0 0 72 72;" xml:space="preserve">
<path d="M10,71H5c-2.8,0-5-2.2-5-5v-5c0-2.8,2.2-5,5-5h5c2.8,0,5,2.2,5,5v5C15,68.8,12.8,71,10,71z M5,58c-1.7,0-3,1.3-3,3v5
	c0,1.7,1.3,3,3,3h5c1.7,0,3-1.3,3-3v-5c0-1.7-1.3-3-3-3H5z M10,44H5c-2.8,0-5-2.2-5-5v-5c0-2.8,2.2-5,5-5h5c2.8,0,5,2.2,5,5v5
	C15,41.8,12.8,44,10,44z M5,31c-1.7,0-3,1.3-3,3v5c0,1.7,1.3,3,3,3h5c1.7,0,3-1.3,3-3v-5c0-1.7-1.3-3-3-3H5z M10,16H5
	c-2.8,0-5-2.2-5-5V6c0-2.8,2.2-5,5-5h5c2.8,0,5,2.2,5,5v5C15,13.8,12.8,16,10,16z M5,3C3.3,3,2,4.3,2,6v5c0,1.7,1.3,3,3,3h5
	c1.7,0,3-1.3,3-3V6c0-1.7-1.3-3-3-3H5z M67,71H28c-2.8,0-5-2.2-5-5v-5c0-2.8,2.2-5,5-5h39c2.8,0,5,2.2,5,5v5C72,68.8,69.8,71,67,71z
	 M28,58c-1.7,0-3,1.3-3,3v5c0,1.7,1.3,3,3,3h39c1.7,0,3-1.3,3-3v-5c0-1.7-1.3-3-3-3H28z M67,44H28c-2.8,0-5-2.2-5-5v-5
	c0-2.8,2.2-5,5-5h39c2.8,0,5,2.2,5,5v5C72,41.8,69.8,44,67,44z M28,31c-1.7,0-3,1.3-3,3v5c0,1.7,1.3,3,3,3h39c1.7,0,3-1.3,3-3v-5
	c0-1.7-1.3-3-3-3H28z M67,16H28c-2.8,0-5-2.2-5-5V6c0-2.8,2.2-5,5-5h39c2.8,0,5,2.2,5,5v5C72,13.8,69.8,16,67,16z M28,3
	c-1.7,0-3,1.3-3,3v5c0,1.7,1.3,3,3,3h39c1.7,0,3-1.3,3-3V6c0-1.7-1.3-3-3-3H28z"/>
</svg>
