<?xml version="1.0" encoding="utf-8"?>
<!-- Generator: Adobe Illustrator 20.1.0, SVG Export Plug-In . SVG Version: 6.00 Build 0)  -->
<svg version="1.1" id="Layer_1" xmlns="http://www.w3.org/2000/svg" xmlns:xlink="http://www.w3.org/1999/xlink" x="0px" y="0px"
	 viewBox="0 0 72 72" style="enable-background:new 0 0 72 72;" xml:space="preserve">
<path d="M67,72H46c-2.8,0-5-2.2-5-5V46c0-2.8,2.2-5,5-5h21c2.8,0,5,2.2,5,5v21C72,69.8,69.8,72,67,72z M46,43c-1.7,0-3,1.3-3,3v21
	c0,1.7,1.3,3,3,3h21c1.7,0,3-1.3,3-3V46c0-1.7-1.3-3-3-3H46z M26,72H5c-2.8,0-5-2.2-5-5V46c0-2.8,2.2-5,5-5h21c2.8,0,5,2.2,5,5v21
	C31,69.8,28.8,72,26,72z M5,43c-1.7,0-3,1.3-3,3v21c0,1.7,1.3,3,3,3h21c1.7,0,3-1.3,3-3V46c0-1.7-1.3-3-3-3H5z M67,31H46
	c-2.8,0-5-2.2-5-5V5c0-2.8,2.2-5,5-5h21c2.8,0,5,2.2,5,5v21C72,28.8,69.8,31,67,31z M46,2c-1.7,0-3,1.3-3,3v21c0,1.7,1.3,3,3,3h21
	c1.7,0,3-1.3,3-3V5c0-1.7-1.3-3-3-3H46z M26,31H5c-2.8,0-5-2.2-5-5V5c0-2.8,2.2-5,5-5h21c2.8,0,5,2.2,5,5v21C31,28.8,28.8,31,26,31z
	 M5,2C3.3,2,2,3.3,2,5v21c0,1.7,1.3,3,3,3h21c1.7,0,3-1.3,3-3V5c0-1.7-1.3-3-3-3H5z"/>
</svg>
