<svg version="1.1" xmlns="http://www.w3.org/2000/svg" width="32" height="32" viewBox="0 0 32 32">
<title>wand</title>
<path fill="#333" d="M25.833 7.333c-0.217-0.001-0.423-0.053-0.605-0.144l0.008 0.004c-0.441-0.224-0.738-0.674-0.738-1.193 0-0.218 0.052-0.423 0.145-0.605l-0.003 0.008 2-4c0.224-0.441 0.674-0.738 1.193-0.738 0.737 0 1.334 0.597 1.334 1.334 0 0.217-0.052 0.423-0.144 0.604l0.003-0.008-2 4c-0.224 0.44-0.674 0.737-1.192 0.737-0 0-0.001 0-0.001 0h0zM31.43 14.423c0.044-0.126 0.069-0.271 0.069-0.423 0-0.584-0.376-1.081-0.899-1.261l-0.009-0.003-4-1.333c-0.112-0.034-0.242-0.054-0.375-0.054-0.736 0-1.333 0.597-1.333 1.333 0 0.567 0.354 1.051 0.853 1.244l0.009 0.003 4 1.333c0.126 0.044 0.271 0.069 0.423 0.069 0.584 0 1.081-0.376 1.261-0.899l0.003-0.009zM18.293 10c0.027-0.101 0.043-0.216 0.043-0.335 0-0.619-0.422-1.139-0.993-1.29l-0.009-0.002-5.333-1.333c-0.1-0.027-0.215-0.042-0.333-0.042-0.738 0-1.336 0.598-1.336 1.336 0 0.619 0.421 1.14 0.993 1.291l0.009 0.002 5.333 1.333c0.098 0.025 0.211 0.040 0.328 0.040 0.002 0 0.004 0 0.006 0h-0c0.001 0 0.002 0 0.002 0 0.618 0 1.138-0.42 1.289-0.991l0.002-0.009zM23.823 22.96c0.586-0.149 1.012-0.672 1.012-1.294 0-0.118-0.015-0.233-0.044-0.342l0.002 0.009-1.333-5.333c-0.153-0.581-0.674-1.002-1.293-1.002-0.738 0-1.336 0.598-1.336 1.336 0 0.118 0.015 0.233 0.044 0.343l-0.002-0.009 1.333 5.333c0.153 0.58 0.673 1 1.291 1 0.001 0 0.002 0 0.002 0h-0c0.115-0 0.226-0.015 0.333-0.042l-0.009 0.002zM20.49 7.96c0.586-0.149 1.012-0.672 1.012-1.294 0-0.118-0.015-0.233-0.044-0.342l0.002 0.009-1.333-5.333c-0.153-0.581-0.674-1.002-1.293-1.002-0.738 0-1.336 0.598-1.336 1.336 0 0.118 0.015 0.233 0.044 0.343l-0.002-0.009 1.333 5.333c0.153 0.58 0.673 1 1.291 1 0.001 0 0.002 0 0.002 0h-0c0.115-0 0.226-0.015 0.333-0.042l-0.009 0.002zM18.11 16.293l5.333-5.333c0.241-0.241 0.391-0.575 0.391-0.943 0-0.737-0.597-1.334-1.334-1.334-0.368 0-0.702 0.149-0.943 0.391v0l-5.333 5.333c-0.241 0.241-0.391 0.575-0.391 0.943 0 0.737 0.597 1.334 1.334 1.334 0.368 0 0.702-0.149 0.943-0.391v0zM2.777 31.627l12.667-12.667c0.241-0.241 0.391-0.575 0.391-0.943 0-0.737-0.597-1.334-1.334-1.334-0.368 0-0.702 0.149-0.943 0.391l-12.667 12.667c-0.241 0.241-0.391 0.575-0.391 0.943 0 0.737 0.597 1.334 1.334 1.334 0.368 0 0.702-0.149 0.943-0.391v0z"></path>
</svg>
