<?xml version="1.0" encoding="utf-8"?>
<!-- Generator: Adobe Illustrator 20.1.0, SVG Export Plug-In . SVG Version: 6.00 Build 0)  -->
<svg version="1.1" id="Layer_2" xmlns="http://www.w3.org/2000/svg" xmlns:xlink="http://www.w3.org/1999/xlink" x="0px" y="0px"
	 viewBox="0 0 72 72" style="enable-background:new 0 0 72 72;" xml:space="preserve">
<g>
	<g>
		<path d="M5.2,72c-0.3,0-0.5-0.1-0.7-0.3c-0.4-0.4-0.4-1,0-1.4L33.1,42c0.4-0.4,1-0.4,1.4,0c0.4,0.4,0.4,1,0,1.4L5.9,71.7
			C5.7,71.9,5.4,72,5.2,72z"/>
	</g>
	<g>
		<path d="M38.4,39c-0.3,0-0.5-0.1-0.7-0.3c-0.4-0.4-0.4-1,0-1.4l12.2-12.2c0.4-0.4,1-0.4,1.4,0c0.4,0.4,0.4,1,0,1.4L39.1,38.7
			C39,38.9,38.7,39,38.4,39z"/>
	</g>
	<g>
		<rect x="2.9" y="53.6" transform="matrix(0.7117 -0.7025 0.7025 0.7117 -32.0505 31.0306)" width="37.8" height="2"/>
	</g>
	<g>
		<rect x="35.6" y="32.5" transform="matrix(0.7081 -0.7061 0.7061 0.7081 -11.1169 40.1054)" width="14.8" height="2"/>
	</g>
	<g>
		<path d="M53.8,51.2c-0.5,0-0.9-0.3-1-0.8l-2.9-14.8c-0.1-0.5,0.2-1.1,0.8-1.2c0.5-0.1,1.1,0.2,1.2,0.8L54.8,50
			c0.1,0.5-0.2,1.1-0.8,1.2C53.9,51.2,53.9,51.2,53.8,51.2z"/>
	</g>
	<g>
		<path d="M66.8,32.9c-0.1,0-0.2,0-0.3-0.1l-10.4-3.7c-0.5-0.2-0.8-0.8-0.6-1.3c0.2-0.5,0.8-0.8,1.3-0.6L67.2,31
			c0.5,0.2,0.8,0.8,0.6,1.3C67.6,32.7,67.2,32.9,66.8,32.9z"/>
	</g>
	<g>
		<path d="M54.3,19.7c-0.2,0-0.4-0.1-0.6-0.2c-0.4-0.3-0.5-1-0.2-1.4l8-10.6c0.3-0.4,1-0.5,1.4-0.2c0.4,0.3,0.5,1,0.2,1.4l-8,10.6
			C54.9,19.5,54.6,19.7,54.3,19.7z"/>
	</g>
	<g>
		<path d="M47,17.2c-0.5,0-0.9-0.3-1-0.8L42.9,1.2c-0.1-0.5,0.2-1.1,0.8-1.2c0.5-0.1,1.1,0.2,1.2,0.8L48,16c0.1,0.5-0.2,1.1-0.8,1.2
			C47.1,17.2,47.1,17.2,47,17.2z"/>
	</g>
	<g>
		<path d="M41.9,23.8c-0.1,0-0.2,0-0.4-0.1l-10.3-4c-0.5-0.2-0.8-0.8-0.6-1.3c0.2-0.5,0.8-0.8,1.3-0.6l10.3,4
			c0.5,0.2,0.8,0.8,0.6,1.3C42.7,23.6,42.3,23.8,41.9,23.8z"/>
	</g>
</g>
</svg>
