<svg xmlns="http://www.w3.org/2000/svg" width="32" height="32"><path d="M1 32a1 1 0 0 1-.691-1.723L13.643 17.61a1 1 0 0 1 1.38 1.446L1.69 31.723A.996.996 0 0 1 1 32zm17.707-16.293l5.333-5.333a1 1 0 0 0-1.414-1.413l.001-.001-5.333 5.333a1 1 0 0 0 0 1.414 1 1 0 0 0 1.414 0zm1.87-8.404a1.003 1.003 0 0 0 .725-1.22l.002.007L19.971.757a1 1 0 1 0-1.938.493l-.002-.007 1.333 5.333c.113.438.504.757.97.757.087 0 .17-.011.25-.032l-.007.002zm3.333 15.334a1.003 1.003 0 0 0 .725-1.22l.002.007-1.333-5.333a1 1 0 1 0-1.938.493l-.002-.007 1.333 5.333c.113.438.504.757.97.757.087 0 .17-.011.25-.032l-.007.002zM17.303 9.91a1 1 0 0 0-.72-1.211l-.007-.002-5.333-1.333a1 1 0 0 0-.493 1.938l.007.002 5.333 1.333a1 1 0 0 0 1.211-.72l.002-.007zM31.283 14a1 1 0 0 0-.626-1.265l-.007-.002-4-1.333a1 1 0 0 0-.64 1.898l.007.002 4 1.333c.081.022.173.034.268.034l.051-.001h-.002.007c.433 0 .801-.275.941-.66l.002-.007zM26.56 6.113l2-4a1 1 0 0 0-1.784-.9l-.003.006-2 4a1 1 0 0 0 .441 1.331l.006.003c.129.07.283.112.446.113h.001a1 1 0 0 0 .891-.548l.003-.006z"/></svg>