<svg version="1.1" xmlns="http://www.w3.org/2000/svg" width="32" height="32" viewBox="0 0 32 32">
<title>warning-triangle</title>
<path fill="#333" d="M16 17C15.264 17 14.667 16.403 14.667 15.667V7.667C14.667 6.931 15.264 6.334 16 6.334C16.736 6.334 17.333 6.931 17.333 7.667V15.667C17.333 16.403 16.736 17 16 17ZM16 19C14.159 19 12.667 20.492 12.667 22.333C12.667 24.174 14.159 25.666 16 25.666C17.841 25.666 19.333 24.174 19.333 22.333C19.333 20.492 17.841 19 16 19ZM31.993 25.699C31.993 24.842 31.804 24.028 31.466 23.299L31.481 23.334C31.47 23.317 31.459 23.298 31.449 23.277L31.448 23.274L20.668 4.461C19.763 2.785 18.02 1.665 16.015 1.665C14.01 1.665 12.266 2.785 11.375 4.433L11.361 4.461L0.557999 23.258C0.557999 23.278 0.534999 23.295 0.524999 23.318C0.194999 24.016 0.0019989 24.833 0.0019989 25.696C0.0019989 26.77 0.300999 27.774 0.818999 28.63L0.804999 28.605C1.472 29.705 2.495 30.335 3.595 30.335H28.408C29.505 30.335 30.521 29.705 31.198 28.608C31.697 27.775 31.993 26.772 31.993 25.699ZM13.667 5.79C14.104 4.927 14.984 4.345 16 4.345C17.016 4.345 17.896 4.926 18.326 5.775L18.333 5.79L29.113 24.55C29.253 24.887 29.334 25.278 29.334 25.689C29.334 26.252 29.181 26.779 28.915 27.231L28.923 27.217C28.753 27.494 28.55 27.674 28.406 27.674H3.593C3.45 27.674 3.26 27.494 3.076 27.217C2.818 26.78 2.666 26.255 2.666 25.693C2.666 25.281 2.748 24.888 2.897 24.53L2.89 24.55L13.667 5.79Z"/>
</svg>