<svg xmlns="http://www.w3.org/2000/svg" width="32" height="32"><path d="M3.027 32A3.029 3.029 0 0 1 .17 29.971l-.006-.021a2.935 2.935 0 0 1-.165-.982c0-.485.115-.943.32-1.349l-.008.017 12.63-25.73C13.51.768 14.666.001 16.001.001s2.491.768 3.051 1.885l.009.02 12.63 25.73a3.03 3.03 0 0 1-2.717 4.363H3.027zM16 2a1.44 1.44 0 0 0-.629.147l.008-.004c-.281.14-.503.363-.64.635l-.004.008-12.63 25.73a1.03 1.03 0 0 0 .461 1.374l.006.003c.132.066.288.106.453.107H28.977a1.023 1.023 0 0 0 .913-1.486l.003.006-12.63-25.733A1.423 1.423 0 0 0 16 2zm1.667 23.333A1.667 1.667 0 1 1 16 23.666c.92 0 1.667.746 1.667 1.667zM17 21.027V10.974a1 1 0 0 0-2 0v10.053a1 1 0 0 0 2 0z"/></svg>