<svg version="1.1" xmlns="http://www.w3.org/2000/svg" width="32" height="32" viewBox="0 0 32 32">
<title>warning</title>
<path fill="#333" d="M16 17c-0.736 0-1.333-0.597-1.333-1.333v0-8c0-0.736 0.597-1.333 1.333-1.333s1.333 0.597 1.333 1.333v0 8c0 0.736-0.597 1.333-1.333 1.333v0zM16 19c-1.841 0-3.333 1.492-3.333 3.333s1.492 3.333 3.333 3.333c1.841 0 3.333-1.492 3.333-3.333v0c0-1.841-1.492-3.333-3.333-3.333v0zM31.197 28.607c0.5-0.832 0.796-1.835 0.796-2.908 0-0.857-0.189-1.671-0.527-2.4l0.015 0.035c-0.011-0.017-0.022-0.036-0.032-0.057l-0.001-0.003-10.78-18.813c-0.905-1.676-2.648-2.796-4.653-2.796s-3.749 1.12-4.64 2.768l-0.014 0.028-10.803 18.797c0 0.020-0.023 0.037-0.033 0.060-0.33 0.698-0.523 1.515-0.523 2.378 0 1.074 0.299 2.078 0.817 2.934l-0.014-0.025c0.667 1.1 1.69 1.73 2.79 1.73h24.813c1.097 0 2.113-0.63 2.79-1.727zM13.667 5.79c0.437-0.863 1.317-1.445 2.333-1.445s1.896 0.581 2.326 1.43l0.007 0.015 10.78 18.76c0.14 0.337 0.221 0.728 0.221 1.139 0 0.563-0.153 1.090-0.419 1.542l0.008-0.014c-0.17 0.277-0.373 0.457-0.517 0.457h-24.813c-0.143 0-0.333-0.18-0.517-0.457-0.258-0.437-0.41-0.962-0.41-1.524 0-0.412 0.082-0.805 0.231-1.163l-0.007 0.020z"></path>
</svg>
