<?xml version="1.0" encoding="utf-8"?>
<!-- Generator: Adobe Illustrator 20.1.0, SVG Export Plug-In . SVG Version: 6.00 Build 0)  -->
<svg version="1.1" id="Layer_1" xmlns="http://www.w3.org/2000/svg" xmlns:xlink="http://www.w3.org/1999/xlink" x="0px" y="0px"
	 viewBox="0 0 72 72" style="enable-background:new 0 0 72 72;" xml:space="preserve">
<g>
	<circle cx="36" cy="52" r="3.5"/>
	<g>
		<path d="M65.6,64H6.4c-2.4,0-4.6-1.3-5.7-3.4c-1.1-2.1-1-4.4,0.4-6.4l29.5-43.4C31.8,9.1,33.9,8,36.1,8c0,0,0,0,0,0
			c2.2,0,4.2,1.1,5.5,2.9l29.4,43.4c1.3,1.9,1.4,4.3,0.3,6.4C70.2,62.7,68,64,65.6,64z M36.1,10c-1.6,0-2.9,0.7-3.8,2l0,0L2.7,55.4
			c-0.9,1.3-1,2.9-0.2,4.3C3.3,61.1,4.7,62,6.4,62h59.2c1.7,0,3.1-0.9,3.9-2.3c0.7-1.4,0.7-3-0.2-4.3L39.9,12
			C39,10.7,37.6,10,36.1,10C36.1,10,36.1,10,36.1,10z M31.4,11.4L31.4,11.4L31.4,11.4z"/>
	</g>
	<g>
		<path d="M36,43c-0.6,0-1-0.4-1-1V25c0-0.6,0.4-1,1-1s1,0.4,1,1v17C37,42.6,36.6,43,36,43z"/>
	</g>
</g>
</svg>
