<svg version="1.1" xmlns="http://www.w3.org/2000/svg" width="32" height="32" viewBox="0 0 32 32">
<title>wiki</title>
<path fill="#333" d="M14.080 16.667h-1.187l-0.667-2.45c-0.027-0.090-0.067-0.27-0.127-0.543s-0.1-0.457-0.1-0.55c0 0.117-0.047 0.3-0.1 0.553s-0.097 0.437-0.127 0.543l-0.667 2.447h-1.183l-1.257-4.667h1.027l0.64 2.547c0.11 0.47 0.19 0.877 0.24 1.223 0-0.12 0.043-0.31 0.090-0.563s0.097-0.453 0.137-0.593l0.71-2.613h0.983l0.72 2.613c0.030 0.117 0.070 0.297 0.117 0.537s0.083 0.447 0.107 0.62q0.037-0.25 0.11-0.62c0.047-0.25 0.093-0.45 0.133-0.603l0.627-2.547h1.027zM16 11.843c0-0.333 0.223-0.51 0.667-0.51s0.667 0.17 0.667 0.51c0 0.007 0.001 0.015 0.001 0.024 0 0.143-0.065 0.271-0.167 0.356l-0.001 0.001c-0.123 0.085-0.275 0.136-0.44 0.136-0.021 0-0.042-0.001-0.063-0.003l0.003 0c-0.443 0-0.667-0.17-0.667-0.513zM17.277 16.667h-1.223v-3.833h1.223zM18.88 14.583l0.4-0.583 0.94-1.167h1.033l-1.333 1.667 1.413 2.167h-1.057l-0.967-1.553-0.393 0.36v1.193h-0.917v-5.333h0.917v2.38l-0.050 0.87zM22 11.843c0-0.333 0.223-0.51 0.667-0.51s0.667 0.17 0.667 0.51c0 0.007 0.001 0.015 0.001 0.024 0 0.143-0.065 0.271-0.167 0.356l-0.001 0.001c-0.123 0.085-0.275 0.136-0.44 0.136-0.021 0-0.042-0.001-0.063-0.003l0.003 0c-0.443 0-0.667-0.17-0.667-0.513zM23.277 16.667h-1.223v-3.833h1.223zM30.667 21.333h-1.333v-14.747c0-0.009 0-0.020 0-0.030 0-1.4-1.126-2.538-2.522-2.556l-0.002-0h-21.393c-1.524 0.024-2.75 1.265-2.75 2.793 0 0.013 0 0.026 0 0.039l-0-0.002v14.503h-1.333c-0.736 0-1.333 0.597-1.333 1.333v0 1.030c0.002 2.376 1.927 4.301 4.303 4.303h23.697c2.209 0 4-1.791 4-4v0-1.333c0-0.736-0.597-1.333-1.333-1.333v0zM5.333 6.83c-0.001-0.005-0.001-0.011-0.001-0.017 0-0.062 0.033-0.117 0.083-0.146l0.001-0h21.25v14.667h-21.333zM29.333 24c0 0.736-0.597 1.333-1.333 1.333v0h-23.697c-0.796-0.002-1.459-0.57-1.608-1.323l-0.002-0.010z"></path>
</svg>
