<svg xmlns="http://www.w3.org/2000/svg" width="32" height="32"><path d="M31.123 6.707l-5.83-5.83A2.99 2.99 0 0 0 23.174 0H4a4 4 0 0 0-4 4v24a4 4 0 0 0 4 4h24a4 4 0 0 0 4-4V8.827v-.001c0-.827-.335-1.577-.877-2.119zM29.587 8H25a1 1 0 0 1-1-1V2.413zM28 30H4a2 2 0 0 1-2-2V4a1.995 1.995 0 0 1 .587-1.413A1.972 1.972 0 0 1 3.992 2H22v5a3 3 0 0 0 3 3h5v18a2 2 0 0 1-2 2zm-13.92-5.75h-1.187l-.667-2.453c-.027-.087-.067-.267-.127-.54s-.1-.457-.1-.55c0 .113-.047.3-.1.553s-.097.437-.127.543l-.667 2.447H9.922l-1.257-4.667h1.027l.64 2.547c.11.47.19.877.24 1.223 0-.123.043-.31.09-.563s.097-.453.137-.593l.72-2.613h.983l.72 2.613c.03.117.07.297.117.537s.083.447.107.62q.037-.25.11-.62c.047-.25.093-.45.133-.603l.627-2.547h1.017zM16 19.427c0-.333.223-.51.667-.51s.667.17.667.51l.001.024a.462.462 0 0 1-.167.356l-.001.001a.772.772 0 0 1-.503.133h.003c-.443 0-.667-.17-.667-.513zm1.277 4.823h-1.223v-3.833h1.223zm1.603-2.083l.4-.583.94-1.167h1.033l-1.333 1.667 1.413 2.167h-1.057l-.967-1.553-.393.36v1.193h-.917v-5.333h.917v2.38l-.05.87zm3.12-2.74c0-.333.223-.51.667-.51s.667.17.667.51l.001.024a.462.462 0 0 1-.167.356l-.001.001a.772.772 0 0 1-.503.133h.003c-.443 0-.667-.17-.667-.513zm1.277 4.823h-1.223v-3.833h1.223z"/></svg>