<svg xmlns="http://www.w3.org/2000/svg" width="32" height="32"><path d="M14.08 15h-1.187l-.667-2.45c-.027-.09-.067-.27-.127-.543s-.1-.457-.1-.55c0 .117-.047.3-.1.553s-.097.437-.127.543L11.105 15H9.922l-1.257-4.667h1.027l.64 2.547c.11.47.19.877.24 1.223 0-.12.043-.31.09-.563s.097-.453.137-.593l.71-2.613h.983l.72 2.613c.03.117.07.297.117.537s.083.447.107.62q.037-.25.11-.62c.047-.25.093-.45.133-.603l.627-2.547h1.027zM16 10.177c0-.333.223-.51.667-.51s.667.17.667.51l.001.024a.462.462 0 0 1-.167.356l-.001.001a.772.772 0 0 1-.503.133h.003c-.443 0-.667-.17-.667-.513zM17.277 15h-1.223v-3.833h1.223zm1.603-2.083l.4-.583.94-1.167h1.033l-1.333 1.667 1.413 2.167h-1.057l-.967-1.553-.393.36v1.193h-.917V9.668h.917v2.38l-.05.87zm3.12-2.74c0-.333.223-.51.667-.51s.667.17.667.51l.001.024a.462.462 0 0 1-.167.356l-.001.001a.772.772 0 0 1-.503.133h.003c-.443 0-.667-.17-.667-.513zM23.277 15h-1.223v-3.833h1.223zM31 20h-1V7a3 3 0 0 0-3-3H5a3 3 0 0 0-3 3v13H1a1 1 0 0 0-1 1v2a5 5 0 0 0 5 5h22a5 5 0 0 0 5-5v-2a1 1 0 0 0-1-1zM4 7a1 1 0 0 1 1-1h22a1 1 0 0 1 1 1v13H19.445c-.37 0-.692.2-.865.499l-.003.005a2.977 2.977 0 0 1-4.064 1.099l.014.008a3.012 3.012 0 0 1-1.096-1.092l-.008-.014a1 1 0 0 0-.868-.503H4zm26 16a3 3 0 0 1-3 3H5a3 3 0 0 1-3-3v-1h10.017a4.969 4.969 0 0 0 7.974.013L20 22h10z"/></svg>