<?xml version="1.0" encoding="utf-8"?>
<!-- Generator: Adobe Illustrator 20.1.0, SVG Export Plug-In . SVG Version: 6.00 Build 0)  -->
<svg version="1.1" id="Layer_1" xmlns="http://www.w3.org/2000/svg" xmlns:xlink="http://www.w3.org/1999/xlink" x="0px" y="0px"
	 viewBox="0 0 72 72" style="enable-background:new 0 0 72 72;" xml:space="preserve">
<path d="M59.1,72H12.9C10.8,72,9,70.2,9,68V4c0-2.2,1.8-4,3.9-4h28.9c0.3,0,0.5,0.1,0.7,0.3l20.2,21.3c0.2,0.2,0.3,0.4,0.3,0.7V68
	C63,70.2,61.3,72,59.1,72z M12.9,2C11.9,2,11,2.9,11,4v64c0,1.1,0.9,2,1.9,2h46.1c1.1,0,1.9-0.9,1.9-2V22.7L41.4,2H12.9z M61,24
	H48.3c-3.9,0-8.3-2.9-8.3-7L39.9,1.8c0-0.6,0.4-0.8,1-0.8c0,0,0,0,0,0c0.5,0,1,0.2,1,0.8l0.2,15.3c0,2.8,3.4,4.9,6.3,4.9H61
	c0.6,0,1,0.4,1,1S61.6,24,61,24z M28.3,52.1L28.3,52.1l3.2-12.5h1.4L29.1,54h-1.5l-3.3-12.7h0L20.9,54h-1.5l-3.7-14.4h1.4l3.1,12.5
	h0l3.3-12.5h1.5L28.3,52.1z M36.3,41.4v-1.8h1.3v1.8H36.3z M36.3,54V43.6h1.2V54H36.3z M42,54V39.6h1.2v9l5.1-4.9h1.6L46,47.4
	l4.3,6.6H49l-3.9-5.8l-2,1.9V54H42z M53.7,41.4v-1.8H55v1.8H53.7z M53.8,54V43.6H55V54H53.8z"/>
</svg>
