<?xml version="1.0" encoding="utf-8"?>
<!-- Generator: Adobe Illustrator 20.1.0, SVG Export Plug-In . SVG Version: 6.00 Build 0)  -->
<svg version="1.1" id="Layer_1" xmlns="http://www.w3.org/2000/svg" xmlns:xlink="http://www.w3.org/1999/xlink" x="0px" y="0px"
	 viewBox="0 0 72 72" style="enable-background:new 0 0 72 72;" xml:space="preserve">
<path d="M65,52H7V18.5c0-2.7,1.9-5.5,4.8-5.5h48.5c2.9,0,4.8,2.8,4.8,5.5V52z M9,50h54V18.5c0-1.7-1.1-3.5-2.8-3.5H11.8
	C10.1,15,9,16.8,9,18.5V50z M64,59H8c-2.9,0-5-2.9-5-5.5V50h66v3.5C69,56.1,66.9,59,64,59z M5,52v1.5C5,55.1,6.3,57,8,57h56
	c1.7,0,3-1.9,3-3.5V52H5z M28.3,39.1L28.3,39.1l3.2-12.5h1.4L29.1,41h-1.5l-3.3-12.7h0L20.9,41h-1.5l-3.7-14.4h1.4l3.1,12.5h0
	l3.3-12.5h1.5L28.3,39.1z M36.3,28.4v-1.8h1.3v1.8H36.3z M36.3,41V30.6h1.2V41H36.3z M42,41V26.6h1.2v9l5.1-4.9h1.6L46,34.4l4.3,6.6
	H49l-3.9-5.8l-2,1.9V41H42z M53.7,28.4v-1.8H55v1.8H53.7z M53.8,41V30.6H55V41H53.8z"/>
</svg>
