<svg xmlns="http://www.w3.org/2000/svg" width="32" height="32"><path d="M32 31a1 1 0 0 1-1 1h-6a1 1 0 0 1-1-1v-6a1 1 0 0 1 2 0v3.72a8.43 8.43 0 0 0 2.667-5.992v-.009a7.917 7.917 0 0 0-5.278-7.426l-.055-.017a1.002 1.002 0 1 1 .673-1.885L24 13.389c3.902 1.384 6.65 5.035 6.667 9.331v.002a10.452 10.452 0 0 1-3.109 7.276l-.001.001H31a1 1 0 0 1 1 1zm-12.667-7.667h-6.667a1 1 0 0 0-1 1V31a1 1 0 0 0 1 1h6.667a1 1 0 0 0 1-1v-6.667a1 1 0 0 0-1-1zm1-4v-6.667a1 1 0 0 0-1-1h-6.667a1 1 0 0 0-1 1v6.667a1 1 0 0 0 1 1h6.667a1 1 0 0 0 1-1zm-6.666-5.666h4.667v4.667h-4.667zm6.666-9.334A4.333 4.333 0 1 0 16 8.666a4.333 4.333 0 0 0 4.333-4.333zm-2 0A2.333 2.333 0 1 1 16 2a2.333 2.333 0 0 1 2.333 2.333zM9.277.667A1.002 1.002 0 0 0 7.993.059L8 .057C4.099 1.441 1.351 5.093 1.333 9.388v.002a10.442 10.442 0 0 0 3.109 7.276l.001.001H1a1 1 0 0 0 0 2h6a1 1 0 0 0 1-1v-6a1 1 0 0 0-2 0v3.72a8.426 8.426 0 0 1-2.667-5.992v-.008a7.923 7.923 0 0 1 5.278-7.426l.055-.017A1.002 1.002 0 0 0 9.274.66l.002.007z"/></svg>