<svg version="1.1" xmlns="http://www.w3.org/2000/svg" width="32" height="32" viewBox="0 0 32 32">
<title>workflow</title>
<path fill="#333" d="M8.667 15.667v1c0 .736-.597 1.333-1.333 1.333h-3a1.335 1.335 0 0 1-.143-2.666h.003c-1.527-1.317-2.193-3.107-2.193-5.667 0-3.203 1.643-5.69 4.75-7.2a1.334 1.334 0 0 1 1.174 2.397l-.008.003c-2.187 1.06-3.25 2.63-3.25 4.8 0 1.817.35 2.913 1.36 3.747a1.333 1.333 0 0 1 2.64.253v2.001zM27.807 27C29.334 25.683 30 23.893 30 21.333c0-3.203-1.643-5.69-4.75-7.2a1.334 1.334 0 0 0-1.174 2.397l.008.003c2.187 1.06 3.25 2.63 3.25 4.8 0 1.817-.333 2.913-1.36 3.747a1.333 1.333 0 0 0-2.64.253v3.001c0 .736.597 1.333 1.333 1.333h3l.07.002a1.335 1.335 0 0 0 .073-2.668h-.003zM16 22.667a4.667 4.667 0 1 0 4.667 4.667A4.667 4.667 0 0 0 16 22.667zm4.667-4v-5.333a2 2 0 0 0-2-2h-5.333a2 2 0 0 0-2 2v5.333a2 2 0 0 0 2 2h5.333a2 2 0 0 0 2-2zM14 14h4v4h-4zm6.667-9.333A4.667 4.667 0 1 0 16 9.334a4.667 4.667 0 0 0 4.667-4.667zm-2.667 0a2 2 0 1 1-2-2 2 2 0 0 1 2 2z"/>
</svg>
